<?xml version="1.0" standalone="no"?>
<!DOCTYPE svg PUBLIC "-//W3C//DTD SVG 20010904//EN"
 "http://www.w3.org/TR/2001/REC-SVG-20010904/DTD/svg10.dtd">
<svg version="1.0" xmlns="http://www.w3.org/2000/svg"
 width="512.000000pt" height="512.000000pt" viewBox="0 0 512.000000 512.000000"
 preserveAspectRatio="xMidYMid meet">
<metadata>
Created by potrace 1.11, written by Peter Selinger 2001-2013
</metadata>
<g transform="translate(0.000000,512.000000) scale(0.100000,-0.100000)"
fill="#000000" stroke="none">
<path d="M709 2559 l-296 -790 110 3 109 3 42 115 c24 63 62 168 85 233 l43
117 313 0 313 0 78 -231 c42 -127 82 -233 89 -235 6 -3 59 -3 117 -2 l106 3
-92 255 c-51 140 -180 495 -286 788 l-193 532 -121 0 -121 0 -296 -791z m476
356 c32 -93 84 -245 116 -337 l58 -168 -248 0 -248 0 126 345 c69 189 128 341
132 337 3 -4 32 -83 64 -177z"/>
<path d="M2020 2560 l0 -790 105 0 105 0 0 279 0 279 122 115 c67 64 125 114
129 111 4 -2 129 -179 279 -394 l271 -390 136 0 c75 0 133 4 131 9 -1 5 -151
216 -333 470 -181 253 -329 463 -328 466 2 3 149 147 327 320 l325 315 -147 0
-147 0 -382 -382 -383 -383 0 383 0 382 -105 0 -105 0 0 -790z"/>
<path d="M3480 2560 l0 -790 368 0 c375 0 452 6 551 41 121 42 224 143 272
267 32 82 32 232 -1 317 -29 77 -111 160 -192 195 -32 14 -58 27 -58 30 0 3
16 14 35 24 48 26 112 97 138 154 18 39 22 65 22 157 0 104 -2 114 -33 177
-18 36 -51 82 -73 103 -54 49 -148 92 -229 104 -36 6 -228 11 -432 11 l-368 0
0 -790z m790 576 c99 -38 146 -118 138 -235 -6 -81 -32 -130 -87 -166 -69 -46
-135 -55 -393 -55 l-238 0 0 241 0 241 268 -4 c222 -4 275 -7 312 -22z m54
-655 c79 -32 131 -85 152 -157 41 -143 -30 -289 -165 -341 -39 -14 -92 -18
-333 -21 l-288 -3 0 276 0 277 288 -4 c272 -4 290 -5 346 -27z"/>
</g>
</svg>
