<svg xmlns="http://www.w3.org/2000/svg" viewBox="0 0 1200 900"><defs/><filter id="a"><feGaussianBlur stdDeviation="12"/></filter><rect width="100%" height="100%" fill="#57463d"/><g filter="url(#a)"><g fill-opacity=".5" transform="translate(2.3 2.3) scale(4.6875)"><circle r="1" fill="#c5feff" transform="matrix(2.5201 33.21172 -194.53507 14.76129 55 49.6)"/><circle r="1" fill="#000300" transform="matrix(-23.08475 -46.50393 84.78853 -42.0894 206.6 125.9)"/><circle r="1" fill="#aeb8db" transform="rotate(40.6 -20.4 202.2) scale(48.94873 44.72625)"/><circle r="1" fill="#96c2ff" transform="rotate(178.3 14.4 22.5) scale(114.52093 30.12046)"/><path fill="#11140d" d="M201 28l68 179-116-103z"/><circle r="1" fill="#8b725b" transform="matrix(.53043 23.37404 -84.41617 1.91567 74.5 95.4)"/><ellipse cx="140" cy="6" rx="255" ry="9"/><ellipse cx="96" cy="156" fill="#2e251b" rx="255" ry="31"/><circle r="1" fill="#e0d2a3" transform="rotate(-160.2 50 51.3) scale(22.17546 9.16379)"/><path fill="#878faa" d="M235 71l-53-57h69z"/><path fill="#82afee" d="M15 16h160v30H15z"/><path fill="#815845" d="M0 154h174v9H0z"/><path fill="#131917" d="M12 133l14-39 80 68z"/><circle r="1" fill="#77574c" transform="matrix(67.755 -7.14696 .85184 8.07568 103.5 84)"/><ellipse cx="156" cy="6" fill="#000602" rx="255" ry="8"/><path fill="#817263" d="M8.3 135.2l-2.8-78L-16 157l79.2-5z"/><circle cx="142" cy="87" r="7" fill="#ffffea"/><path fill="#161813" d="M181.7 185.8L181 55.2 200.7 40l11.9-6.8z"/><ellipse cx="97" cy="61" fill="#bac0c9" rx="86" ry="14"/><path fill="#baae8b" d="M45.5 107.1l26.8 24.3 16.5-4.7-22-23.6z"/><path fill="#071207" d="M245 28h11v109h-11z"/><path fill="#938a82" d="M178 89l3-39-34 39z"/><ellipse cx="178" cy="190" fill="#875e30" rx="156" ry="7"/><path fill="#262b2c" d="M112.6 106.8l53.7 48-115.5 2.3 53.9-39.1z"/><path fill="#4b4642" d="M70.9 71.5L48.2 86.4l72.7 35.6L12.2 88.1z"/><path fill="#87b0e8" d="M0 15h240v6H0z"/><path fill="#9a8a73" d="M39 121l-2-33 44-10z"/><path fill="#bcbac3" d="M0 68h45v13H0z"/><ellipse cx="89" cy="174" fill="#302012" rx="255" ry="11"/><path fill="#84878c" d="M234.8 67.5L249 32l-35.9-12.9L228 69.9z"/><circle r="1" fill="#503238" transform="matrix(-16.64207 6.35522 -2.41359 -6.32034 99.2 84)"/><path fill="#000608" d="M42 116h18v20H42z"/><circle r="1" fill="#3b202f" transform="matrix(-12.4358 -1.76375 .4568 -3.22085 59.2 77.3)"/><ellipse cy="88" fill="#955f49" rx="29" ry="9"/><path fill="#030b06" d="M8.8 202.7l37.8 2.2-35.5-22-27.1 2.4z"/><path fill="#101514" d="M170 86h57v66h-57z"/><path fill="#e2ceae" d="M130.5 94.2l13.4-18.1 5.8 26.8 8.3-18.1z"/><path fill="#4f3a2c" d="M144 157h104v14H144z"/><path d="M78 108h25v3H78z"/><path fill="#b9a07e" d="M100 108l11-8H75z"/><path fill="#6d6d87" d="M200 27l-33 11 18 15z"/><path fill="#513d2b" d="M-14 125l49-41 7 41z"/><path fill="#5e645b" d="M231.1 69l-21.7-5.1-14.1-39.3 40.3 61.3z"/><path fill="#cdbca1" d="M75 113l2-11-35 9z"/><path fill="#2f1d1d" d="M139 80l-9 10-7-11z"/><path fill="#161a12" d="M234 58h16v78h-16z"/><ellipse cx="31" cy="149" fill="#585d61" rx="32" ry="8"/><path fill="#363739" d="M200.1 81.3l-72 25.7 55.3 28-17.4-30.4z"/><path fill="#96b6da" d="M145 58l44-44L13 45z"/><ellipse cx="63" cy="3" fill="#493820" rx="39" ry="3"/><path fill="#746650" d="M111 100l25 22-10-49z"/><path fill="#c8c7b6" d="M58 81l13 6H47z"/><path fill="#22251a" d="M195.3 29.8l-8.5 43.9-14.2 10.4 69.6 49.5z"/><path fill="#91513f" d="M123 73h35v7h-35z"/><ellipse cx="119" cy="172" fill="#0d0801" rx="172" ry="2"/><path fill="#818894" d="M209 16h37v28h-37z"/><path fill="#000002" d="M18 125h19v13H18z"/><path fill="#392c25" d="M56.8 103.7l23.9.4-32.6-14.4 13.7 2.2z"/><path fill="#919998" d="M219.9 44.6l13.4-4 9.4 10.7-13 21.4z"/><ellipse cx="145" cy="156" fill="#6c513b" rx="25" ry="7"/><path fill="#c3c4c9" d="M114 68l48 5V40z"/><path fill="#242221" d="M121.1 171L96 109.3l51.6 30.8-36.6-31.6z"/><path fill="#9b998e" d="M38 123h2v17h-2z"/><path fill="#7a6036" d="M20 184h70v8H20z"/><path fill="#563836" d="M0 82h49v5H0z"/><path fill="#8e9bad" d="M216 63l-9-15 9-33z"/><path fill="#433f34" d="M217.8 65.6l-23.5-9-29.1 29.2-4.9-8.9z"/><ellipse cx="52" cy="125" fill="#181a18" rx="10" ry="12"/><path fill="#5a3f2a" d="M194.1 159.8l.5-12.4 41.9 16.1-44.5-2.6z"/><path fill="#aa9871" d="M61 111h27v17H61z"/><ellipse cx="9" cy="24" fill="#82abde" rx="174" ry="10"/><path fill="#2e361e" d="M219 53v41l13-20z"/><path fill="#939ba5" d="M156 100l-12 4-1-12z"/><path fill="#983d36" d="M68.3 86.3L66 75.5l7.8-1.8L76 84.5z"/><ellipse cx="127" cy="9" fill="#020e12" rx="81" ry="6"/><circle r="1" fill="#121414" transform="matrix(17.68095 -23.91106 17.98978 13.30248 184 131.5)"/><path fill="#b0becb" d="M69.6 67L90 56.5 96.4 69 76 79.5z"/><path fill="#b2a182" d="M105 93l2 22 9-36z"/><circle r="1" fill="#a7a7ad" transform="matrix(6.25595 1.24817 -3.1369 15.7224 166.3 61)"/><path fill="#3a3634" d="M94 142l66 16 11-18z"/><path fill="#222a36" d="M36.5 89.3l-6.4-1.1-12.7 18.4L35 99.2z"/><path fill="#2e2118" d="M193 173h54v14h-54z"/><ellipse cx="146" cy="170" fill="#5e4d40" rx="142" ry="1"/><path fill="#4a3824" d="M246.7 134.8l24.9 23.2-12.3 13.2-24.9-23.2z"/><path fill="#1b1e1b" d="M103.7 132.6l-61.8 2.6 56.8 20.7 2.6-51.5z"/><path fill="#464659" d="M101 93l-38 4 18-16z"/><ellipse cy="93" fill="#aa9876" rx="26" ry="3"/><path fill="#ba0020" d="M237 190h19v2h-19z"/><path fill="#83776a" d="M118.2 119.4l5.5-13.6 7.2-14.1 1.3 26.6z"/><path fill="#00121b" d="M0 6h45v9H0z"/><path fill="#c1b5a0" d="M67 86h9v5h-9z"/><path fill="#bcb29a" d="M41 105h37v6H41z"/><circle r="1" fill="#27281b" transform="matrix(6.31874 20.75039 -18.48663 5.6294 255 71)"/><path fill="#706b71" d="M170.9 112.6l.1 1-17.9 1.8-.1-1z"/><path fill="#72513f" d="M54 156h89v6H54z"/><path fill="#3d4e5b" d="M79 127h25v6H79z"/><path fill="#8088a0" d="M175 25h18v25h-18z"/><path fill="#664e36" d="M-1.8 147.9l26-37 37.9-9.5-71.9 1.9z"/><path fill="#b0734a" d="M74 98h23v6H74z"/><circle r="1" fill="#a0b8cd" transform="matrix(14.79373 -2.23716 2.7798 18.38206 32.3 63.6)"/></g></g></svg>