<svg xmlns="http://www.w3.org/2000/svg" viewBox="0 0 1200 1004"><defs/><filter id="a"><feGaussianBlur stdDeviation="12"/></filter><rect width="100%" height="100%" fill="#36322a"/><g filter="url(#a)"><g fill-opacity=".5" transform="translate(2.3 2.3) scale(4.6875)"><circle r="1" fill="#fff" transform="matrix(-25.45527 182.11253 -183.70415 -25.67774 145.8 96)"/><circle r="1" fill="#ffffde" transform="matrix(-105.06386 99.22721 -175.08921 -185.38815 105.4 61.4)"/><circle r="1" fill="#b19b70" transform="matrix(-130.51519 38.89898 -7.2566 -24.34762 39 167.7)"/><circle r="1" fill="#fcfff9" transform="matrix(64.60805 -55.12948 16.59044 19.44288 196.5 174)"/><circle r="1" fill="#764317" transform="matrix(-30.40452 4.07027 -1.73384 -12.95164 255 179.1)"/><circle r="1" fill="#a58355" transform="rotate(44.9 12.1 332.2) scale(17.96926 45.45376)"/><circle r="1" fill="#e7e9e0" transform="matrix(-74.54895 33.95607 -28.21703 -61.94916 146 21)"/><path fill="#fffffb" d="M196 176l74 37-116-1z"/><path fill="#8f918c" d="M54 85h46v23H54z"/><path fill="#ac8a5a" d="M246-16l25 52-22 62z"/><path fill="#8d7f5d" d="M-16 208l58-6-1-52z"/><path fill="#e7e2cd" d="M60 160h32v49H60z"/><path fill="#2c2d2a" d="M129 108l-6-10-5 18z"/><path fill="#fbfaef" d="M74.2 198.1l56 19 71.5-22.9-33.6-.3z"/><ellipse cx="114" cy="128" fill="#d6d2bc" rx="35" ry="18"/><path fill="#b2a281" d="M78.7 158.4l-39.4-14.3 14-38.5 39.4 14.3z"/><path fill="#b2b0a2" d="M165-3.4l7.7 31.7 51.8 35.9-29.7-40.8z"/><path fill="#b9a880" d="M227 95.1l-9.4 8.7-36.2 23.1-9.2-39.5z"/><path fill="#999993" d="M49.9 65.6l1-11.2 62.9 15.9-48.9-1.1z"/><ellipse cx="106" cy="156" fill="#a68962" rx="33" ry="8"/><circle r="1" fill="#e9e8da" transform="rotate(70.8 18.1 78) scale(12.61984 58.62635)"/><ellipse cy="162" fill="#dad9c5" rx="29" ry="13"/><circle r="1" fill="#f2f0e4" transform="matrix(40.76117 31.84612 -7.37702 9.44216 207.8 14.9)"/><circle r="1" fill="#e1e2d5" transform="matrix(25.26725 -8.30745 10.7923 32.82498 208.5 151)"/><circle r="1" fill="#ece7d3" transform="matrix(-39.577 18.35978 -4.57218 -9.85596 30 14.1)"/><ellipse cx="226" cy="54" fill="#a99262" rx="11" ry="7"/><circle r="1" fill="#b3b3aa" transform="matrix(-3.5091 -3.191 32.3709 -35.59787 108 58)"/><path fill="#b3b3a7" d="M112.8 91.3l21.7-9.6-14.2-20.1 52.6-3z"/><path fill="#b59e6d" d="M96 196l-9-9.4 15-14.6 9 9.4z"/><path fill="#ebead3" d="M221 104.9l2.7-9.6L265 107l-2.7 9.6z"/><path fill="#a8a79a" d="M202.5 148.2l-16.2 11 10.4.5 7.6 27.5z"/><path fill="#f8f9ea" d="M142.3 113.2l2.5-39-29.7 19 11.6 4.7z"/><path fill="#bca982" d="M225.5 185.2l-5.6 10.5 5.7-31.3 35.5-3.2z"/><path fill="#bcb08e" d="M21.5 33.7l37.2-18.9 32.7-5-36.6 20.7z"/><path fill="#c2b288" d="M155.8 187l-11.8 7.6-21.8-33.6 11.8-7.6z"/><path fill="#d1be89" d="M11 205h57v9H11z"/><path fill="#fbf8e1" d="M249 5.9l-17.5 8.8 4.8-30.7H271z"/><path fill="#e5e7d9" d="M95 94l31-33-29 88z"/><path fill="#838580" d="M63 53h5v46h-5z"/><path fill="#bdac84" d="M147 100l4 54 29-24z"/><path fill="#eae6d1" d="M174.5 69.5l42.4 24.1L232.2 76l-46.8-23.4z"/><path fill="#9d755a" d="M247 96l24-45-42 34z"/><path fill="#b7ae94" d="M47.7 104.5l-29.4 29.3-34.3-14.2 33.6 39.1z"/><circle r="1" fill="#ebf1fb" transform="matrix(-1.25215 -12.75136 24.4124 -2.39723 145.4 0)"/><ellipse cx="24" cy="79" fill="#e2dfd0" rx="15" ry="27"/><path fill="#dadbcf" d="M63 97l-7 28 20 1z"/><path fill="#4b4d49" d="M221 6h9v4h-9z"/><path fill="#e6e2cc" d="M148 89l21 42 16-27z"/><path fill="#747260" d="M55 181l11 5-21 3z"/><circle r="1" fill="#7f6e60" transform="matrix(3.79406 .43899 -.43338 3.74555 206 48.6)"/><path fill="#81837b" d="M157 60h22v4h-22z"/><path fill="#a88d64" d="M39.6 157l26-23.4 6.8 7.4-26 23.4z"/><path fill="#cec6a4" d="M253 30l-8 44-40 17z"/><path fill="#74583e" d="M253 185l-25-6 34-8z"/><path fill="#cbcdc2" d="M74.9 24.5L64.3 76.1l28.7 20-24.3-70z"/><path fill="#ececdd" d="M161.7 16.1L134.8 88l29.5-40.1L190 59.7z"/><path fill="#d6d3bb" d="M181.2 196l-8.8-35.9-26.4-13.2-17.7 10.9z"/><path fill="#84847e" d="M195 29l-16-5 12-7z"/><path fill="#aeb2b2" d="M148.7 5.8l3.5-13.9-2.4 26.2-15.2-17z"/><path fill="#f3fdff" d="M205.5 176l-1-19 20-1 1 19z"/><path fill="#7d7c76" d="M52 55l-8 13 26-8z"/><path fill="#828683" d="M78 99l1-12-37 4z"/><circle r="1" fill="#121313" transform="matrix(1.70236 4.41667 -.93309 .35965 35.5 172.6)"/><path fill="#898982" d="M10.2 65.2l-.1 4.5 4.5 3.7-30.6 2.3z"/><circle r="1" fill="#aaa080" transform="rotate(-146.7 77.3 46.8) scale(2.36648 28.54945)"/><path fill="#a59c82" d="M193 76l-11 12-17-5z"/><path fill="#a1a9ac" d="M269.6 157L238 134.3l2.4-3.3 31.6 23z"/><ellipse cx="14" cy="35" fill="#eae5d1" rx="8" ry="26"/><path fill="#90958e" d="M110 55l-11-7 1 18z"/><path fill="#1c1f1e" d="M52.7 23l3.9 1.1-1.3 4.8-3.9-1z"/><path fill="#d9d4bd" d="M92 159l-7 65-40-59z"/><path fill="#fff" d="M189.4-14.2L203-2.4l-14.4 16.6L175 2.4z"/><path fill="#ac916c" d="M86.3 167.7l24.3 18L94.1 154l60-9z"/><path fill="#c1bca5" d="M49 176l-14 6 11 40z"/><path fill="#dddcc8" d="M125.9 102.4l21.9-18.8-73 60 18 1.8z"/><path fill="#9f7c5a" d="M216.5 96.2l7.5 8-12.5 11.6-7.5-8z"/><circle r="1" fill="#e8e3cb" transform="matrix(6.75683 3.43735 -8.97696 17.64607 116.6 187.2)"/><path fill="#a0a39e" d="M10.6 106.8L-16 130.4l45.6-26.3 7.2 19.1z"/><path fill="#ececdd" d="M186.3 127.9l37-2.3 47.7 38.8-98.9-17.9z"/><path fill="#d8d7c9" d="M178.7 14.8l45.8 20.3-7.1-33.7 23.8 23z"/><path fill="#d4dbd3" d="M22.2 132.8l-31.5-6.6 63.6-18.5 11.8-35.3z"/><path fill="#efeede" d="M171.6 91.1l-18.4-12.5 26.4-29.1-22.3 60.7z"/><path fill="#7e6f53" d="M20.3 212.7L-2.6 229l28.9-31.8L10 177.5z"/><path fill="#e9f3f1" d="M150.9 3.6l-40.3 39.2 2.1 19.1-9.1-28.4z"/><path fill="#f3f0e0" d="M254.6 195.6l15.2 16.2-71.4-28.5 1.7 45.7z"/><path fill="#edebdd" d="M52.6 52.2l9.8 25.3-13.5 3.7 18.7-50z"/><path fill="#85857c" d="M177 37h11v4h-11z"/><path fill="#9c9f97" d="M34.9 100.8l32.2-9.2-3.8-9.1-32.4 20.3z"/><path fill="#b7a57b" d="M241 5h15v30h-15z"/><path fill="#96988f" d="M146 71.3l-19.5 12.2-.5-.8 19.5-12.2z"/><path fill="#e2e5d9" d="M24 95.4L5.7 92.9-16 56.8l35.9 70.4z"/><path fill="#bcad85" d="M149 176l-22 20 7-32z"/><path fill="#bbb18c" d="M219 107h23v16h-23z"/><path fill="#535452" d="M98 83l-5-2 3 7z"/><path fill="#b0a080" d="M161 123l5 52-14-33z"/><ellipse cx="243" cy="190" fill="#bfab82" rx="22" ry="4"/><path fill="#a68864" d="M94 165.5l6.3 10.6 5.3-39.4 8.6-6.3z"/><path fill="#9fa098" d="M31 78l-10-7 3 13z"/><path fill="#070404" d="M147.4 7.2l2.7-1.3.5 1-2.7 1.2z"/><path fill="#f2f1e2" d="M119 55h10v30h-10z"/></g></g></svg>