<svg xmlns="http://www.w3.org/2000/svg" viewBox="0 0 1200 900"><defs/><filter id="a"><feGaussianBlur stdDeviation="12"/></filter><rect width="100%" height="100%" fill="#444"/><g filter="url(#a)"><g fill-opacity=".5" transform="translate(2.3 2.3) scale(4.6875)"><circle r="1" fill="#fff" transform="matrix(-49.48046 21.83879 -99.53716 -225.52277 202.9 19)"/><circle r="1" fill="#878787" transform="rotate(114.1 9.5 33.8) scale(167.69975 79.29633)"/><circle r="1" fill="#fff" transform="matrix(-35.01222 4.89758 -14.07215 -100.60007 241.1 84)"/><ellipse cx="144" cy="5" fill="#fff" rx="62" ry="9"/><circle r="1" fill="#fff" transform="rotate(-77.7 26 18.8) scale(16.76621 41.09411)"/><circle r="1" fill="#9e9e9e" transform="matrix(1.55045 -17.70736 76.40243 6.68978 179.8 183.5)"/><path fill="#262626" d="M150 42h46v85h-46z"/><path d="M144.5 98.2l-1 56-28-.4 1-56z"/><path fill="#2b2b2b" d="M15.4 30.5l129.3-18.4 67 5-108.4 15z"/><path fill="#fafafa" d="M129 72h13v26h-13z"/><ellipse cx="113" cy="75" fill="#d3d3d3" rx="3" ry="99"/><path fill="#bcbcbc" d="M144 23h7v126h-7z"/><path d="M117 71V27h26v44z"/><circle r="1" fill="#adadad" transform="rotate(-129.1 131.4 17.5) scale(45.84342 11.54381)"/><ellipse cx="56" cy="122" fill="#383838" rx="20" ry="103"/><path fill="#fff" d="M148 24l37-2-12 22zm54.4 156l-53-1 .2-7 53 1z"/><path fill="#d3d3d3" d="M79.6 58.8l6.2-17.4-.8 80.4-10.9-56.1z"/><path d="M150 57h16v92h-16z"/><circle r="1" fill="#3a3a3a" transform="matrix(-15.9713 19.3448 -5.25727 -4.34047 187.5 36.2)"/><circle r="1" fill="#4c4c4c" transform="matrix(-3.66157 6.63293 -31.15921 -17.2008 221 172.2)"/><circle r="1" fill="#767676" transform="matrix(-14.87569 -5.92917 13.40696 -33.6367 91.7 123)"/><path fill="#e4e4e4" d="M204 27h52v124h-52z"/><circle r="1" fill="#3b3b3b" transform="matrix(-16.49563 -41.8766 12.8213 -5.05045 91 32.6)"/><path fill="#f6f6f6" d="M81-16l32 28h72z"/><circle r="1" fill="#313131" transform="matrix(-7.4097 -4.36465 2.99493 -5.08438 20.6 31.6)"/><path fill="#f1f1f1" d="M0 21h15v37H0z"/><ellipse cx="197" cy="115" fill="#797979" rx="7" ry="59"/><path fill="#222" d="M106.6 183.2l-18.8-27 7.8 34 126.8-4.5z"/><path fill="#1d1d1d" d="M118 14h88v6h-88z"/><ellipse cx="118" cy="106" fill="#070707" rx="4" ry="67"/><path fill="#252525" d="M-16 60l42 19 6-22z"/><ellipse cx="88" cy="99" fill="#242424" rx="2" ry="109"/><path fill="#303030" d="M-5.4 168.2l8-50.4 12.8 2-8 50.4z"/><path fill="#3c3c3c" d="M152 35h14v17h-14z"/><path fill="#fff" d="M168 21l17 7-16 21z"/><ellipse cx="144" cy="176" fill="#c8c8c8" rx="29" ry="4"/><path fill="#898989" d="M50 50l-53 50 27 22z"/><path fill="#afafaf" d="M98.6-16L59.1 1.6l-1.3-15.5L63 17.6z"/><ellipse cx="217" cy="6" fill="#dedede" rx="125" ry="7"/><path d="M122 100h21v39h-21z"/><path fill="#474747" d="M81.6 102l10.6 44.2-55.1 15.4-36.8.2z"/><ellipse cx="177" cy="97" fill="#666" rx="8" ry="53"/><path fill="#7f7f7f" d="M18.8 49.8l43.5-29.6-30.6 2.7L1 7.6z"/><path fill="#474747" d="M202.6 174.3l51.1 13.3 8.2 19.4-43.4-49.4z"/><path fill="#fff" d="M23 48h13v10H23z"/><path fill="#292929" d="M105 10h6v69h-6z"/><path d="M173 163h22l-10-23z"/><path fill="#222" d="M96.9 207l-12.4-38.2 61.3-2.1L95 143.5z"/><path fill="#9b9b9b" d="M103.6 90L92 151.2l-1.3-45.4.2-9.2z"/><path fill="#fff" d="M150 24h23v11h-23zm86 164h9v4h-9z"/><path fill="#cdcdcd" d="M152 190h61v2h-61z"/><path fill="#fff" d="M-11-16L19 3l42-13z"/><path fill="#f2f2f2" d="M94 0h10v14H94z"/><path fill="#303030" d="M73.7 45.4l-2.5 30.5-18.4-31.3L96.2 9.5z"/><circle r="1" fill="#838383" transform="matrix(5.98227 -23.05768 5.41754 1.40557 43.7 43.8)"/><path fill="#5b5b5b" d="M186.2 137.5l-62.4 13.7-2.8 7.9 43.5 6.5z"/><path fill="#d7d7d7" d="M145.2 56.9l1.6-30 4 .2-1.6 30z"/><ellipse cx="112" cy="153" fill="#8c8c8c" rx="3" ry="34"/><path fill="#5c5c5c" d="M148.7 58.4l25.8 5.2-7.8-29.4-15.3.5z"/><path fill="#656565" d="M64 133L15 90l45 6z"/><path fill="#cfcfcf" d="M77 150l3-8 6 14z"/><path fill="#767676" d="M186 21h18v58h-18z"/><ellipse cx="92" cy="64" fill="#a7a7a7" rx="2" ry="21"/><path fill="#131313" d="M150.7 71.7l.9 79.8 11.5 4.7 7.3-102.6z"/><path fill="#fafafa" d="M19 174l-16-1v-1l16 1z"/><path fill="#aaa" d="M128.3 95.2l-6.1-21.1 11.5-3.3 6.1 21.1z"/><path fill="#d7d7d7" d="M203.5 139.4l21.1 23.3 46.4 38.7-65.7-141.6z"/><path fill="#8f8f8f" d="M115.7 127.4L104 79.6l-18.9 64.5L116 58.2z"/><path fill="#dcdcdc" d="M15 114l9-10 5 6z"/><path fill="#3b3b3b" d="M197 13l-29 39 17-8z"/><path fill="#2d2d2d" d="M114 180h41v7h-41z"/><ellipse cx="82" cy="85" fill="#dadada" rx="3" ry="18"/><path fill="#f0f0f0" d="M205 14h16v42h-16z"/><path fill="#363636" d="M36 3l-8 12-29-6z"/><ellipse cx="173" cy="21" fill="#767676" rx="26" ry="3"/><circle r="1" fill="#cecece" transform="rotate(39.5 -44.2 66.6) scale(7.6497 11.6872)"/><path fill="#adadad" d="M111 3h5v76h-5z"/><path fill="#dadada" d="M9 19h11v7H9z"/><circle r="1" fill="#858585" transform="matrix(1.67407 -14.9853 5.06805 .56617 80.6 52)"/><path fill="#cecece" d="M151 165h46v1h-46z"/><path fill="#8d8d8d" d="M117 106l-14 21 5 7z"/><path d="M117 63h6v41h-6zM54 184h15v8H54z"/><path fill="#535353" d="M8 27l13 11 26-19z"/><path fill="#333" d="M50.6 179.9l1.8-58.7L67.7 94l-33.8 73.3z"/><path fill="#fff" d="M177.2 1.9l1-7L210.9.2l-1 7z"/><path fill="#212121" d="M186.7 118.5l-23.6 27.1-3.4-35.1 26.6 17.7z"/><ellipse cx="157" cy="14" fill="#747474" rx="39" ry="2"/><path fill="#161616" d="M2.8 143.7l.7 34.7-19.5-4.7v-15.6z"/><circle r="1" fill="#606060" transform="matrix(11.00715 -61.87492 4.18525 .74453 52.4 171.1)"/><circle r="1" fill="#898989" transform="matrix(-6.99025 -29.13928 3.7888 -.9089 198.2 151.7)"/><path fill="#fafafa" d="M221.1 207l5.6-10.3 25.1.1-11.2-12.1z"/><path fill="#c4c4c4" d="M84 92h3v26h-3z"/><path fill="#a1a1a1" d="M13.7 150.3l-2.3-1.8 20.9-26.8 2.3 1.8z"/><path fill="#868686" d="M80 178l2 29-13-20z"/><path fill="#919191" d="M147 144l8 22-9-3z"/><path fill="#060606" d="M121 33l23 36-23 1z"/><circle r="1" fill="#5f5f5f" transform="matrix(2.57406 -28.91247 12.02686 1.07074 182.2 97.7)"/></g></g></svg>