<svg xmlns="http://www.w3.org/2000/svg" viewBox="0 0 1200 677"><defs/><filter id="a"><feGaussianBlur stdDeviation="12"/></filter><rect width="100%" height="100%" fill="#464646"/><g filter="url(#a)"><g fill-opacity=".5" transform="translate(2.3 2.3) scale(4.6875)"><circle cx="119" cy="70" r="155" fill="#fff"/><circle cx="96" cy="23" r="199" fill="#fff"/><circle r="1" fill="#fff" transform="matrix(-187.36109 -2.28916 1.28893 -105.49506 125.6 64.8)"/><circle r="1" fill="#fff" transform="matrix(-253.79046 -24.8073 8.74475 -89.463 103.5 46.7)"/><circle cx="38" cy="63" r="75" fill="#fff"/><circle r="1" fill="#fff" transform="rotate(-28.8 237.5 -447.9) scale(97.35557 73.67611)"/><path fill="#b3b3b3" d="M128 9.3l8.7-3.6 42.8 5.3-59.7-.1z"/><circle r="1" fill="#fff" transform="rotate(58.5 -21.7 56.4) scale(87.4809 53.57867)"/><ellipse cx="148" cy="21" fill="#b7b7b7" rx="31" ry="2"/><circle r="1" fill="#fff" transform="rotate(-171.3 69.2 49.7) scale(151.51933 17.98724)"/><path fill="#a1a1a1" d="M100 36h2v33h-2z"/><path fill="#fff" d="M133-16l138 155V11z"/><path fill="#e0e0e0" d="M91 18h36v19H91z"/><ellipse cx="86" cy="143" fill="#b3b4b2" rx="179" ry="1"/><path fill="#c9c9c9" d="M79 124h13v16H79z"/><path fill="#9f9f9f" d="M179 45h3v16h-3z"/><path fill="#acacac" d="M129 6h23v6h-23z"/><circle r="1" fill="#fff" transform="rotate(74.5 55.6 73) scale(13.05155 51.98299)"/><path fill="#d0d0d0" d="M125 85h37v4h-37z"/><circle cx="91" cy="91" r="29" fill="#fff"/><path fill="#f9f9f9" d="M0 111h72v27H0z"/><circle r="1" fill="#fff" transform="rotate(117.9 70.6 104.5) scale(33.45085 30.39402)"/><path fill="#e8e8e8" d="M152.2 89.8l22.4-62-22.3 5.1L174 62.4z"/><path fill="#e0e0e0" d="M170.3 131.5l-7.7-9.7-8.3-10 16.9-.8z"/><path fill="#d7d7d7" d="M125 111l-14 17 1-15z"/><ellipse cx="132" cy="1" fill="#fff" rx="255" ry="6"/><path fill="#b0b0b0" d="M99 137.5v1l-24-2v-1z"/><path fill="#858585" d="M130 7h22v2h-22z"/><path fill="#d8d8d8" d="M52 125h52v4H52z"/><ellipse cx="182" cy="21" fill="#d4d4d4" rx="17" ry="2"/><path fill="#fff" d="M75 129h17v4H75z"/><ellipse cx="94" cy="139" fill="#c8c8c8" rx="176" ry="1"/><ellipse cx="139" cy="68" fill="#d7d7d7" rx="27" ry="2"/><ellipse cx="143" cy="50" fill="#fff" rx="9" ry="24"/><path fill="#d9d9d9" d="M57 128l-14-16 11 2z"/><circle r="1" fill="#fff" transform="matrix(-44.09145 .0062 -.00054 -3.85476 147.5 15)"/><path fill="#b7b8b7" d="M9 161H7v-36h2z"/><ellipse cx="145" cy="100" fill="#fff" rx="74" ry="13"/><path fill="#e0e0e0" d="M15.6 121.8L29.7 109l4.7 5.2L20.3 127z"/><path fill="#a8a8a8" d="M136 25h10v2h-10z"/><path fill="#fff" d="M-16-10L0 138 114-16z"/><path fill="#d7d7d7" d="M108 35h73v2h-73z"/><path fill="#e0e0e0" d="M176 121h6v23h-6z"/><path fill="#cbcbcb" d="M119 66h2v24h-2z"/><ellipse cx="140" cy="9" fill="#fff" rx="151" ry="1"/><path fill="#d5d5d5" d="M113 36h2v34h-2z"/><path fill="silver" d="M100 127h2v12h-2z"/><path fill="#cbcbcb" d="M89 19h58v1H89z"/><path fill="#fff" d="M-16 123.7l137.3-32.8L53.4-2.5-14-16z"/><path fill="#cbcbcb" d="M166 62h16v2h-16z"/><ellipse cx="198" cy="135" fill="#fff" rx="88" ry="3"/><path fill="#d4d4d4" d="M169 36l11-1 7 6z"/><path fill="#adadae" d="M24 143h47v1H24z"/><ellipse cx="187" cy="11" fill="#fff" rx="29" ry="10"/><path fill="#fefefe" d="M105 51l26 7 22-32z"/><path fill="#fff" d="M68.7 130.5l-2.8-15.3-11.2 25.1 42.4-11.8z"/><path fill="#acacac" d="M84 123h7v3h-7z"/><path fill="#cacaca" d="M72 125h2v15h-2z"/><ellipse cx="11" cy="133" fill="#b4b4b4" rx="1" ry="5"/><ellipse cx="160" cy="75" fill="#d4d4d4" rx="2" ry="10"/><path fill="#fff" d="M184 25h34v113h-34zM151 3h33v6h-33z"/><path fill="#979797" d="M137 10h21v1h-21z"/><path fill="#f9f9f9" d="M96 20h16v15H96z"/><path fill="#cbcbcb" d="M103 62h11v2h-11z"/><path fill="#c5c5c5" d="M88 18h21v1H88z"/><path fill="#929292" d="M137 21.3l8 .4v1l-8-.4z"/><path fill="silver" d="M81 123h10v5H81z"/><path fill="#b7b7b7" d="M100.5 44.1l1-.1 2 19.9-1 .1z"/><ellipse cx="167" cy="138" fill="#e6e6e6" rx="133" ry="1"/><path fill="#d0d0d0" d="M180 125h2v19h-2z"/><ellipse cx="140" cy="10" fill="#a6a6a6" rx="17" ry="1"/><path fill="#fff" d="M-16-16L91.8 27.5l8 109.1-9.5-19.3zM124 94h33v33h-33zm93-59h-46l-7-15z"/><path fill="#bababa" d="M79.3 132.5l8 1-.6 4-8-1z"/><path fill="#d2d2d2" d="M134 85h14v5h-14z"/><path fill="#c1c1c1" d="M36.4 137.2l-8.6 2.6-.2-1 8.6-2.6z"/><path fill="#fff" d="M132 17L88-16l-9 31z"/><ellipse cx="86" cy="127" fill="#9d9d9d" rx="9" ry="1"/><path fill="#d5d5d5" d="M162 18h2v15h-2z"/><circle r="1" fill="#fbfbfb" transform="matrix(6.24589 -78.56678 12.8948 1.0251 232.2 57.8)"/><path fill="#dcdcdc" d="M157 113h11v7h-11z"/><path fill="silver" d="M7 121h2v16H7z"/><path fill="#fcfcfc" d="M133.4 22.1l19.2 29.3-26.9 30.5 21.6 4.3z"/><path fill="#fff" d="M-16 132.3v-64l26.9 85.1-2-13z"/><path fill="#d1d1d1" d="M90.6 16.8L96.4 37l-1 .2L89.6 17z"/><path fill="#eee" d="M102 26h2v38h-2z"/><path fill="#fdfdfd" d="M7.7 128.5l19.3 9.8-9.1-13.1 9.6-28.6z"/><ellipse cx="101" cy="125" fill="#d9d9d9" rx="3" ry="4"/><path fill="#fff" d="M95 124l25-57-97 38z"/><path fill="#fff" d="M31 96h14v30H31z"/><path fill="#c2c2c2" d="M144 21h54v1h-54z"/><ellipse cx="159" cy="50" fill="#fafafa" rx="8" ry="14"/><path fill="#f7f7f7" d="M104 127h63v11h-63z"/><ellipse cx="99" cy="55" fill="#e0e0e0" rx="1" ry="20"/><path fill="#fff" d="M83.4 104L90 4.4 69.1 49.6l49.1 22.9z"/><path fill="#fbfbfb" d="M99 131.1l-16.9-6.7L95.2 137l7.6-49.9z"/><path fill="#d5d5d5" d="M122 110h2v9h-2z"/><path fill="#fff" d="M175.3 20.5l-35-3.2L241.4-16l-84.5 47.8z"/></g></g></svg>