<svg xmlns="http://www.w3.org/2000/svg" viewBox="0 0 1200 848"><defs/><filter id="prefix__a"><feGaussianBlur stdDeviation="12"/></filter><rect width="100%" height="100%" fill="#5b5b5b"/><g filter="url(#prefix__a)"><g transform="translate(2.3 2.3) scale(4.6875)"><circle r="1" fill="#fff" fill-opacity=".5" transform="matrix(236.24248 -30.26336 17.85135 139.35156 154.9 93.5)"/><circle r="1" fill="#fff" fill-opacity=".5" transform="matrix(-27.30848 -136.6656 186.94494 -37.35528 111.5 105.5)"/><circle r="1" fill="#ededed" fill-opacity=".5" transform="rotate(89.6 16.4 113) scale(107.19294 254.61203)"/><circle r="1" fill="#dadada" fill-opacity=".5" transform="rotate(-77.6 46.3 33.2) scale(63.94096 69.0459)"/><ellipse cx="255" cy="104" fill="#b6b6b6" fill-opacity=".5" rx="1" ry="103"/><circle r="1" fill="#d8d8d8" fill-opacity=".5" transform="matrix(14.8715 4.6035 -8.15463 26.34337 124 103.7)"/><path fill="#cdcdcd" fill-opacity=".5" d="M25 94l-4-28-29 28z"/><path fill="#c6c6c6" fill-opacity=".5" d="M233 76h10v16h-10z"/><path fill="#b3b3b3" fill-opacity=".5" d="M22 128l-5 6-6-7z"/><path fill="#c1c1c1" fill-opacity=".5" d="M100.4 116.5L133.6 98l2 3.5-33.2 18.5z"/><path fill="#b6b6b6" fill-opacity=".5" d="M2.5.5v-1h99v1z"/><circle r="1" fill="#e6e6e6" fill-opacity=".5" transform="matrix(57.39487 17.7199 -11.66374 37.7789 135 18.3)"/><path fill="#b4b4b4" fill-opacity=".5" d="M240 169.8l-.8 1.8-7.2-3.4.8-1.8z"/><circle r="1" fill="#e6e6e6" fill-opacity=".5" transform="matrix(49.8021 19.02863 -7.51126 19.6586 174.5 133.8)"/><path fill="#ccc" fill-opacity=".5" d="M213.6 123.3l9.1 6.8 10.3-6.8 1.9-.6z"/><path fill="#e4e4e4" fill-opacity=".5" d="M25 115h89v42H25z"/><path fill="#d4d4d4" fill-opacity=".5" d="M51 82h151v3H51z"/><ellipse cx="250" cy="85" fill="#dcdcdc" fill-opacity=".5" rx="5" ry="60"/><ellipse cx="183" cy="179" fill="#eaeaea" fill-opacity=".5" rx="54" ry="6"/><circle r="1" fill="#e2e2e2" fill-opacity=".5" transform="rotate(126.9 13.8 28) scale(13.8131 51.58616)"/><path fill="#cbcbcb" fill-opacity=".5" d="M15.2 68l3 .5L12.7 96l-3-.5z"/><ellipse cx="33" cy="97" fill="#e2e2e2" fill-opacity=".5" rx="102" ry="5"/><ellipse cx="122" cy="127" fill="#c1c1c1" fill-opacity=".5" rx="7" ry="2"/><path fill="#eaeaea" fill-opacity=".5" d="M106 1h123v7H106z"/><path fill="#dedede" fill-opacity=".5" d="M209 70h26v31h-26z"/><path fill="#cbcbcb" fill-opacity=".5" d="M244 166.4l2.7 2.6-13.3 4.6.7-6.3z"/><path fill="#c9c9c9" fill-opacity=".5" d="M214 123h23v3h-23z"/><path fill="#e5e5e5" fill-opacity=".5" d="M0 122h12v58H0z"/><path fill="#c9c9c9" fill-opacity=".5" d="M125 74l1 20h-1l-1-20z"/><path fill="#dedede" fill-opacity=".5" d="M28.8 8.6l-10.6 97.6 42.3-78.3-3.9-22.8z"/><ellipse cx="162" fill="#d5d5d5" fill-opacity=".5" rx="108" ry="1"/><circle r="1" fill="#c5c5c5" fill-opacity=".5" transform="rotate(-30 258.8 -179.7) scale(22.58162 1)"/><ellipse cx="228" cy="144" fill="#e6e6e6" fill-opacity=".5" rx="18" ry="19"/><path fill="#e0e0e0" fill-opacity=".5" d="M78 57L10 81l152-3z"/><path fill="#d8d8d8" fill-opacity=".5" d="M201 167h32v3h-32z"/><path fill="#e6e6e6" fill-opacity=".5" d="M126.3 112.6l-34.2 19.5 80.1-21-43.2 18.2z"/><circle r="1" fill="#e0e0e0" fill-opacity=".5" transform="matrix(-1.44638 -7.51372 61.34274 -11.80842 63.6 111.8)"/><path fill="#c8c8c8" fill-opacity=".5" d="M3.5 94.5l-.8-.6 19.8-26.4.8.6z"/><path fill="#e6e6e6" fill-opacity=".5" d="M127 85h14v10h-14z"/><path fill="#dadada" fill-opacity=".5" d="M253 2.5l3 171h-1l-3-171z"/><path fill="#bdbdbd" fill-opacity=".5" d="M125.5 103.9l-.4-1 13.4-6.8.4 1z"/><path fill="#ddd" fill-opacity=".5" d="M121.5 107.4l19.7-9.3 11.2 18.2-28-17.4z"/><path fill="#b8b8b8" fill-opacity=".5" d="M215 125h2v4h-2z"/><path fill="#e4e4e4" fill-opacity=".5" d="M229.6 117.6l-158.9 29L250 94.7l-14.3 32.7z"/><path fill="#e3e3e3" fill-opacity=".5" d="M122.7 69.7l.8 27.8-31.4 28.7 20.5-33.7z"/><path fill="#d2d2d2" fill-opacity=".5" d="M234 82h10v14h-10z"/><path fill="#e0e0e0" fill-opacity=".5" d="M23.4 129.8l99.4-22.3-96.3 27-14.8-1.5z"/><path fill="#d7d7d7" fill-opacity=".5" d="M203.7 83l13.9-13 2.7 3-13.9 13z"/><path fill="#e6e6e6" fill-opacity=".5" d="M0 1h16v3H0z"/><path fill="#e4e4e4" fill-opacity=".5" d="M129 118h86v50h-86z"/><path fill="none" stroke="#bababa" stroke-opacity=".5" stroke-width=".5" d="M11.1 132.9q.1-3.9 12.6-3"/><path fill="#e4e4e4" fill-opacity=".5" d="M19 87h53v3H19z"/><path fill="#dcdcdc" fill-opacity=".5" d="M48 172h117v2H48z"/><circle r="1" fill="#bababa" fill-opacity=".5" transform="matrix(3.44827 -2.3306 .55997 .82851 108.3 114.4)"/><path fill="#e4e4e4" fill-opacity=".5" d="M252 40l-18 40-30-89zM0 92l5-16-21 14z"/><ellipse cx="77" cy="177" fill="#e6e6e6" fill-opacity=".5" rx="113" ry="3"/><path fill="#e3e3e3" fill-opacity=".5" d="M203.2 112.9l20.1 11.4 1.3 1.9 16.6-35.9z"/><path fill="#e2e2e2" fill-opacity=".5" d="M24 80l-14 4 10-9z"/><path fill="#e6e6e6" fill-opacity=".5" d="M220 192l19-22-57 1z"/><path fill="#dcdcdc" fill-opacity=".5" d="M27 57l-42 41L1 24z"/><path fill="#dedede" fill-opacity=".5" d="M9 167h54v5H9z"/><path fill="#e0e0e0" fill-opacity=".5" d="M238.8 74.4L254 99.9l-12.3-8.6 9.9-45.4z"/><path fill="#e3e3e3" fill-opacity=".5" d="M16 1.3l14.1 18.8-5.4 26.5-9.1-14.8z"/><path fill="#d0d0d0" fill-opacity=".5" d="M48.5 83l-27 1v-1l27-1z"/><path fill="#cbcbcb" fill-opacity=".5" d="M5 87h14v4H5z"/><ellipse cx="48" cy="108" fill="#dfdfdf" fill-opacity=".5" rx="33" ry="14"/><path fill="#b9b9b9" fill-opacity=".5" d="M236 79h2v4h-2z"/><path fill="#e6e6e6" fill-opacity=".5" d="M215 88h12v8h-12z"/><circle cx="167" cy="45" r="26" fill="#e4e4e4" fill-opacity=".5"/><ellipse cx="43" cy="20" fill="#d8d8d8" fill-opacity=".5" rx="2" ry="13"/><path fill="#e4e4e4" fill-opacity=".5" d="M229 171l23-25-17-32z"/><path fill="#dadada" fill-opacity=".5" d="M8 72h3v25H8z"/><circle cx="22" cy="128" r="3" fill="#ccc" fill-opacity=".5"/><path fill="#e3e3e3" fill-opacity=".5" d="M181.6 115l-53.9 13.5-7.7-12.6 51.1-23.3z"/><path fill="#e4e4e4" fill-opacity=".5" d="M18 131h16v35H18z"/><path fill="#cbcbcb" fill-opacity=".5" d="M2 86h12v7H2z"/><path fill="#7a7a7a" fill-opacity=".5" d="M0 0l-16-16h47z"/><path fill="#e5e5e5" fill-opacity=".5" d="M103 136v-21l-55 32z"/><circle cx="18" cy="129" r="2" fill="#aaa" fill-opacity=".5"/><path fill="#a5a5a5" fill-opacity=".5" d="M124.2 94.1l-1.2-1.6.8-.6 1.2 1.6z"/><path fill="#c8c8c8" fill-opacity=".5" d="M115 126h8v4h-8z"/><ellipse cx="13" cy="127" fill="#e2e2e2" fill-opacity=".5" rx="7" ry="2"/><path fill="#e2e2e2" fill-opacity=".5" d="M123.5 79.5l-5-69.9 16-1 5 69.8z"/><path fill="silver" fill-opacity=".5" d="M128 101l-21.4 14.9-.5-.9 21.3-14.9z"/><path fill="#ebebeb" fill-opacity=".5" d="M118 123h1v11h-1z"/><path fill="#dedede" fill-opacity=".5" d="M7.1 120.8l-8.5-24.4 25.7-8.5 3.6 41.6z"/><path fill="#cbcbcb" fill-opacity=".5" d="M10.8 76.9l1.5-6.8 4.9 1-1.5 6.8zM123.2 94l4.6-14.3 1 .3-4.6 14.3z"/><path fill="#dbdbdb" fill-opacity=".5" d="M146.8 94.8l-.2 3.6-38.5 24.8-4.5-3.6z"/><ellipse cx="101" cy="72" fill="#dfdfdf" fill-opacity=".5" rx="63" ry="4"/><path fill="#acacac" fill-opacity=".5" d="M231.8 124.4l-2.3-2 .7-.8 2.3 2z"/><path fill="#e1e1e1" fill-opacity=".5" d="M224.5 75l11-26.9 12 4.9-11 26.9z"/><path fill="#c6c6c6" fill-opacity=".5" d="M238 167h8v3h-8z"/><path fill="none" stroke="#e2e2e2" stroke-opacity=".5" stroke-width=".5" d="M156.4 130q69 20.3 83.1-22.6"/><path fill="#e4e4e4" fill-opacity=".5" d="M175 1h74v16h-74z"/><path fill="#c1c1c1" fill-opacity=".5" d="M104.4 112.7l3.6 1.7-.4 1-3.6-1.8z"/><circle r="1" fill="#cbcbcb" fill-opacity=".5" transform="rotate(160.8 112.2 60.2) scale(4.76724 1.41492)"/><path fill="#dcdcdc" fill-opacity=".5" d="M30 77l41-11-53-1z"/><path fill="#afafaf" fill-opacity=".5" d="M16.3 132l-4.8-1 .2-1 4.8 1z"/></g></g></svg>