<svg xmlns="http://www.w3.org/2000/svg" viewBox="0 0 1200 594"><defs/><filter id="a"><feGaussianBlur stdDeviation="12"/></filter><rect width="100%" height="100%" fill="#576b4d"/><g filter="url(#a)"><g fill-opacity=".5" transform="translate(2.3 2.3) scale(4.6875)"><circle cx="121" cy="78" r="157" fill="#fff"/><circle cx="163" cy="83" r="187" fill="#fff"/><circle r="1" fill="#fff" transform="matrix(-198.86583 -3.12403 1.6466 -104.81728 151.5 61)"/><path fill="#a8b888" d="M135 54l64-29 38 43z"/><path fill="#9fa899" d="M136 56L53 16l93 82z"/><circle r="1" fill="#fff" transform="matrix(-14.84822 -30.23942 107.10878 -52.59277 192.9 114.5)"/><path fill="#9ba98a" d="M17.6 51.9l6.5-14.8 16.7-5.2L120 14.8z"/><circle r="1" fill="#fff" transform="matrix(17.2466 52.76605 -34.76375 11.36255 28.2 98.2)"/><circle r="1" fill="#fff" transform="matrix(9.1721 -20.89464 87.19756 38.27705 224.7 18)"/><path fill="#a5ae9e" d="M53.3 76l15.3-39.3 5.3 79.4L85 74.6z"/><circle r="1" fill="#879d6f" transform="rotate(-68.3 122 -125.6) scale(5.39822 20.21298)"/><path fill="#bcca90" d="M181 78l-15.4 9.6L147.1 58l15.3-9.5z"/><path fill="#9fa998" d="M86.8 54.9l14-43.5 39.8 94-40.5-70.1z"/><ellipse cx="98" cy="120" fill="#fff" rx="19" ry="77"/><circle r="1" fill="#fff" transform="matrix(226.84443 -41.34462 3.8462 21.10285 14.8 12.3)"/><path fill="#b8bcb8" d="M122.6 54.4l15.4 62-12.6 3.2-15.4-62z"/><circle r="1" fill="#fff" transform="matrix(-8.57716 47.66986 -35.30379 -6.35215 242.7 12)"/><path fill="#79905a" d="M121 60l16 23-13-2z"/><path fill="#fff" d="M182 61h34v65h-34z"/><path fill="#5c7746" d="M219 53l10 6-6 10z"/><path fill="#fff" d="M130 15l-13 45 52-25z"/><path fill="#9fac92" d="M72.8 34.6L25.7 48l-2.5-8.7L70.3 26z"/><circle r="1" fill="#fffaff" transform="rotate(-154.8 43.2 4) scale(8.20884 5.52205)"/><path fill="#b0b9a6" d="M83.2 81.9L64.9 47.2l18.2-11.7-27.6 42.6z"/><path fill="#7a8f70" d="M157.6 48l1-8 15.8 2-1 8z"/><path fill="#a9b0a8" d="M75.6 78.7L67.3 118l-3-.6L72.8 78z"/><path fill="#ebede1" d="M130 65.7l52.8-10.9-29.1-31.4L188.3 38z"/><path fill="#d2dbba" d="M125 51h89v8h-89z"/><circle r="1" fill="#fff" transform="matrix(-157.49298 -.24442 .01353 -8.7164 140.7 125)"/><path fill="#688157" d="M187 31h10v10h-10z"/><circle r="1" fill="#838e81" transform="rotate(-110.5 60.7 -14.6) scale(3.78592 7.22137)"/><path fill="#9aa68b" d="M108.1 26.7l-25.4-9.5-4.4 3 16.7 6z"/><path fill="#fff" d="M135 61l40 80 22-37z"/><path fill="#cccdd3" d="M141.1 74.4l-18.2 26.1 33.3-2.2-11.4-13z"/><path fill="#f0eef2" d="M78.2 72.2L29.5 38.8l69.3 32.6 46.1-76.9z"/><ellipse cx="171" cy="3" fill="#fff" rx="225" ry="7"/><path fill="#96a283" d="M86 51h61v2H86z"/><path fill="#e8edda" d="M153.3 25.8l62.8 3.6-28.8 25 17.3-28.7z"/><path fill="#faf9fb" d="M111.2 45.7l-4.7-18.6 49.6-8.6 1.9 32z"/><path fill="#c5d0a3" d="M159 85l11-25 16 22z"/><ellipse cx="252" cy="68" fill="#fff" rx="23" ry="109"/><path fill="#fff" d="M110.6 121.8L93 60.3l14.4-4.1 17.6 61.5z"/><path fill="#f9f8fa" d="M89.6 141l-11.9-37.2 52.7-48.1-9-7.7z"/><ellipse cx="39" cy="112" fill="#fdfcfe" rx="27" ry="65"/><path fill="#d5d5d9" d="M12.9 46.7l-2.5 1.2L57 36.7 13.9 53.4z"/><path fill="#8c9d7c" d="M54.2 77.7l12.7-14.1 3 2.7L57 80.4z"/><path fill="#f6f5f5" d="M204.9 109.9l-8.8-50.1 41.2 7.3 33.7 45.5z"/><path fill="#faf9fd" d="M159 20l-16 15 45 10z"/><path fill="#769056" d="M97.3 20.2l6.8 1.7-1.4 5.9-6.8-1.7z"/><circle cx="207" cy="40" r="4" fill="#5d7851"/><circle cx="72" cy="93" r="3" fill="#68804d"/><path fill="#c0c7b9" d="M91.5 54.4L67.8 32.6l47.3 17.9-7.5-14.1z"/><path fill="#ccd6b3" d="M224.7 71.3l-21-13.2-17.3-25.5L159.9 21z"/><path fill="#fff" d="M153.6 83.6l-17.8-19 6.6-6.2 17.8 19z"/><path fill="#8fa079" d="M117 67l10-7 7 15z"/><path fill="#eeedef" d="M-3.6 90.9L94.2 87 17.8 65.6l56.4 8.6z"/><path fill="#f3f2f4" d="M102.5 30.4l-11.1 5.3-34.5-17.5 3-2z"/><path fill="#f2f0f2" d="M-8 45l87-25L44 1z"/><path fill="#e3e2e3" d="M92 8h47v11H92z"/><circle r="1" fill="#7f937d" transform="matrix(-.91363 2.34333 -6.2745 -2.44632 114.5 50.5)"/><path fill="#fff" d="M148 123.9l-18.6-24.5 62.5.8-9.8-18.1z"/><path fill="#f3f3f4" d="M174 22l33-11 48 33z"/><ellipse cx="179" cy="28" fill="#4d6b3f" rx="3" ry="2"/><path fill="#54734d" d="M221.4 57.4l-1.2 2.8-3.6-1.6 1.2-2.8z"/><path fill="#bbbfb5" d="M95 31.4l-25.2.8 3.7 6L58 59z"/><circle cx="92" cy="39" r="3" fill="#526b4e"/><path fill="#fcfcfd" d="M99 42h5v64h-5z"/><path fill="#ced6b7" d="M131.6 63.8L182 42.4l-17.5 43-24.1-37z"/><path fill="#c2c5c7" d="M143 80l8 15-24 6z"/><ellipse cx="177" cy="60" fill="#737f4f" rx="8" ry="1"/><path fill="#fbfafc" d="M-2.9 118.7l16.8-64.8L26 38.4l-42-19.7z"/><path fill="#7c885a" d="M207.5 58.5v1h-19v-1z"/><path fill="#cfced4" d="M67 99h11v19H67z"/><circle r="1" fill="#b0b7ab" transform="matrix(3.0482 1.03557 -2.07971 6.12165 79.2 74.3)"/><path fill="#f2f2f2" d="M123 58.4L89-16l34.5 60.6 8.4 19.7z"/><path fill="#c3d2a2" d="M200 32h12v4h-12z"/><path fill="#ced9b1" d="M207 46l8 21 12 2z"/><ellipse cx="123" cy="125" fill="#fff" rx="255" ry="8"/><path fill="#d0d1d6" d="M112.6 76.2l26.6 43.8-12-30.7L102.4 34z"/><circle r="1" fill="#84996b" transform="matrix(-.79092 -2.3101 5.4647 -1.87098 64.3 69)"/><path fill="#fcfcfd" d="M236.6 44.6L172 17l13.9 11.5 14-6.3z"/><path fill="#a6b493" d="M11.9 52.9l19.5-17.1 46.5-9.3L34.4 41z"/><path fill="#f8f7f8" d="M6.7 99.1L26.4 49l47.9-12.5-6.5 8.4z"/><ellipse cx="95" cy="20" fill="#91a76d" rx="4" ry="2"/><path fill="#809471" d="M173 45l-12 2v-7z"/><path fill="#fbfafb" d="M66 63l48 12-34-26z"/><path fill="#d9e0c3" d="M165 47h50v12h-50z"/><path fill="#5b7550" d="M221.1 62.5l2.7-4.2 5 3.2-2.6 4.2z"/><ellipse cx="123" fill="#fff" rx="255" ry="8"/><path fill="#c3c8c2" d="M85.6 86.8l-17.5 18.5 13.2-26-20-21.6z"/><path fill="#79825c" d="M143.5 50.2v-1l15 .6v1z"/><path fill="#c5c9cb" d="M119 86l-11-34 12 5z"/><path fill="#f7f6f8" d="M189.9 89L172 61.6l42.4.6-21 34.4z"/><path fill="#fbfafb" d="M222 16l20 49-30-20z"/><path fill="#fff" d="M69 88l-3 23-77 10z"/><path fill="#577732" d="M69.7 46.1l-2.6 4.3-.8-.5 2.6-4.3z"/><circle r="1" fill="#83996c" transform="matrix(-2.59292 -.17223 .1765 -2.65731 75.7 78)"/><path fill="#e3e3e6" d="M66 56l-1-22-15 3z"/><path fill="#9dad8a" d="M74.3 25.7l-28.1 5.7.3 5.5 20.8-3.7z"/><path fill="#bfc0c8" d="M96 36l10-9 6 15z"/></g></g></svg>