<svg xmlns="http://www.w3.org/2000/svg" viewBox="0 0 1200 782"><defs/><filter id="prefix__a"><feGaussianBlur stdDeviation="12"/></filter><rect width="100%" height="100%" fill="#415f68"/><g filter="url(#prefix__a)"><g transform="translate(2.3 2.3) scale(4.6875)"><circle cx="128" cy="83" r="157" fill="#fffff9" fill-opacity=".5"/><circle r="1" fill="#d7c9b1" fill-opacity=".5" transform="matrix(-153.6289 108.14049 -87.59973 -124.44785 131.2 84.6)"/><circle r="1" fill="#a2df00" fill-opacity=".5" transform="rotate(-67.7 139.9 -37.9) scale(30.70182 11.67134)"/><path fill="#656463" fill-opacity=".5" d="M105 0h36v9h-36z"/><path fill="#75d10c" fill-opacity=".5" d="M114.8 102.4l-14.6 24.1 13.9 1.7 15.8-9.8z"/><path fill="#5da968" fill-opacity=".5" d="M104 116h9v41h-9z"/><circle r="1" fill="#acadb1" fill-opacity=".5" transform="matrix(21.46136 -9.06572 22.83668 54.06144 151.8 65.4)"/><path fill="#cac7c1" fill-opacity=".5" d="M266 3L155 132l72 36z"/><ellipse cx="66" cy="14" fill="#cbc3bf" fill-opacity=".5" rx="41" ry="61"/><path fill="#e1dcd4" fill-opacity=".5" d="M-.9 167L56 178.5l-25.7-21.8 71.5-45.1z"/><ellipse cx="125" cy="96" fill="#ded030" fill-opacity=".5" rx="11" ry="15"/><path fill="#61605f" fill-opacity=".5" d="M116 70h22v5h-22z"/><path fill="#7c748e" fill-opacity=".5" d="M173.1 94.3L202.5 77l-14.7-5 1.5 6.8z"/><ellipse cx="170" cy="62" fill="#696464" fill-opacity=".5" rx="16" ry="2"/><circle r="1" fill="#607d9a" fill-opacity=".5" transform="rotate(-21.6 294.7 -624.5) scale(43.9505 1)"/><path fill="#aab0ac" fill-opacity=".5" d="M47 84l10 97L4 99z"/><path fill="#969a9e" fill-opacity=".5" d="M185 163l-10-20-32-1z"/><path fill="#0d0c0e" fill-opacity=".5" d="M148 8l-10-24h9z"/><path fill="#e7ded5" fill-opacity=".5" d="M30 107h31v7H30z"/><path fill="#81807c" fill-opacity=".5" d="M120.2 46l.8-6.9 22.8 2.8-.8 7z"/><path fill="#85829a" fill-opacity=".5" d="M178.2 88.8l5.3 2.8-13.7 25.6-5.3-2.8z"/><circle r="1" fill="#d2cec6" fill-opacity=".5" transform="matrix(35.3275 6.07079 -2.75006 16.0033 238.6 159.1)"/><path fill="#52b075" fill-opacity=".5" d="M123 125l-5 9-27-9z"/><path fill="#394f90" fill-opacity=".5" d="M171.4 32.4l-1 .3-19.8-65 1-.4z"/><path fill="#cdcac3" fill-opacity=".5" d="M57 117h28v49H57z"/><path fill="#7d8eab" fill-opacity=".5" d="M112.5 88V30h3v58z"/><circle r="1" fill="#b6b6ac" fill-opacity=".5" transform="rotate(-70.4 151.1 -7.1) scale(7.75132 20.00488)"/><circle r="1" fill="#dfdad1" fill-opacity=".5" transform="rotate(167 125 36.7) scale(33.17577 7.11352)"/><path fill="#57ba53" fill-opacity=".5" d="M98 142l-5 5 24 4z"/><path fill="#c5938d" fill-opacity=".5" d="M175.2 54.9L158.1.4l6.1 13.4 23 57.8z"/><path fill="#d8dbd3" fill-opacity=".5" d="M119.3 17.5l-5.5-19.3-26.7 7.5L119.8-16z"/><path fill="#cdcac3" fill-opacity=".5" d="M141 35h12v44h-12z"/><path fill="#9eaaa2" fill-opacity=".5" d="M249.6 2.6l-19 10.5-15.9 1.8 19.6 27.5z"/><circle r="1" fill="#c8c3bd" fill-opacity=".5" transform="matrix(12.92627 -4.04469 8.46845 27.064 136.7 145.5)"/><path fill="#867a77" fill-opacity=".5" d="M92 80h23v4H92z"/><path fill="#a7aaa4" fill-opacity=".5" d="M156.3 157.8L271 108.9l-25.9-7.3-5.5 11.8z"/><path fill="#d7d9ce" fill-opacity=".5" d="M25.5 97.7l-36.8-42.1 23.8 7.1L1.2 87.8z"/><circle cx="122" cy="104" r="3" fill="#d22d0c" fill-opacity=".5"/><circle r="1" fill="#a1ada2" fill-opacity=".5" transform="matrix(10.36502 -5.96015 13.92625 24.21849 2.4 7)"/><path fill="#b8de16" fill-opacity=".5" d="M109 115.5l4.3 10.1 11.6-4.7-11-27.4z"/><path fill="#7b8ca4" fill-opacity=".5" d="M106.9 100l-.2.9L51 88.1l.2-1z"/><path fill="#285195" fill-opacity=".5" d="M162.2 7.3l-2.3-11.8 4-.8L166 6.5z"/><path fill="#080906" fill-opacity=".5" d="M122.8 8.2l-2 .4-1.6-6.8 2-.4z"/><path fill="#2a2826" fill-opacity=".5" d="M131 1l-2-8 8 12z"/><path fill="#c9c5c0" fill-opacity=".5" d="M128.1 14.1l-2.4-7.7-9.5 16.3L136.9-16z"/><path fill="#c48285" fill-opacity=".5" d="M147 109l-14 6 28 2z"/><path fill="#fffffe" fill-opacity=".5" d="M34.7 74.4L31.9 82l-6.6-2.4 2.8-7.6z"/><circle r="1" fill="#899aa9" fill-opacity=".5" transform="matrix(7.77532 25.9165 -2.19755 .6593 159.2 51)"/><circle r="1" fill="#ccc7bc" fill-opacity=".5" transform="rotate(-69.6 152.2 -62.6) scale(14.04357 11.46817)"/><path fill="#ccc6c2" fill-opacity=".5" d="M168.7 36l8.3-13.8L223.3 50 215 63.8z"/><path fill="#fff9f4" fill-opacity=".5" d="M60.5 116.3l21.7 7.5-.7 1.9-21.7-7.5z"/><path fill="#88969f" fill-opacity=".5" d="M24 108l29-21-20 6z"/><path fill="#bca099" fill-opacity=".5" d="M182.4 148.3l-33.2 9.9 24.8 19.9-5-42z"/><path fill="#5d6156" fill-opacity=".5" d="M144.6 83.3l9 .4-.2 3-9-.4z"/><path fill="#da9993" fill-opacity=".5" d="M63.1 65.1l-34-43.2 18.6 20.2L61 59z"/><path fill="#9ea6a3" fill-opacity=".5" d="M60.3 158.6L74.6 181H48l-11-38.8z"/><path fill="#a7a9aa" fill-opacity=".5" d="M136.8 35.4L106 33.9 83.3 5l31.8 15.9z"/><path fill="#c0bebb" fill-opacity=".5" d="M159 28l-16 8-5-46z"/><path fill="#12110e" fill-opacity=".5" d="M138-4.6l1.9.3L138 8.6l-2-.3z"/><path fill="#727070" fill-opacity=".5" d="M81.4 114.3v1l-18.8 2.4v-1z"/><path fill-opacity=".5" d="M125 0l-8-2 21-14z"/><ellipse cx="128" cy="97" fill="#cbea4b" fill-opacity=".5" rx="5" ry="19"/><ellipse cx="203" cy="76" fill="#7d92a3" fill-opacity=".5" rx="13" ry="3"/><path fill="#8e899c" fill-opacity=".5" d="M170.2 120l-1.5-20.1-.5 11.1-15.1 13.2z"/><path fill="#e7e7e4" fill-opacity=".5" d="M172 11l-2 12-5-23z"/><path fill="#927c74" fill-opacity=".5" d="M226 120.6l-.8.6L180 61.4l.8-.6z"/><path fill="#83767d" fill-opacity=".5" d="M124 153.7v1l-30 1.6v-1z"/><circle r="1" fill="#f2ebe0" fill-opacity=".5" transform="matrix(20.90637 8.27742 -.8558 2.16149 36.3 165)"/><path fill="#d8d6cc" fill-opacity=".5" d="M185 110l19-28 27-4z"/><path fill="#c7c7c0" fill-opacity=".5" d="M96.4 83.5l-16.6-9.1-42.7 9.7 54.4 10.8z"/><path fill="#6a7f9f" fill-opacity=".5" d="M137 99l1-13 3 15z"/><circle r="1" fill="#cd8480" fill-opacity=".5" transform="rotate(-169.3 17.1 4.9) scale(1 10.94689)"/><path fill-opacity=".5" d="M145 .5l3.6-1.9.4 1-3.6 1.8z"/><path fill="none" stroke="#828277" stroke-opacity=".5" stroke-width=".5" d="M81 131.6q13.1 3.6 52.8 18.5"/><path fill="#d1ceca" fill-opacity=".5" d="M136 62l-8-16-15 18z"/><path fill="#f8f7f6" fill-opacity=".5" d="M20 11h4v9h-4z"/><path fill="#9098a8" fill-opacity=".5" d="M138.1 51.5L157.3 33l8.7-2.4 5.4-1z"/><path fill="#7285a1" fill-opacity=".5" d="M26 138l10 5-20-4z"/><circle r="1" fill="#e3e3da" fill-opacity=".5" transform="rotate(-111.1 129.5 13.9) scale(2.73317 6.59619)"/><path fill="#929b9f" fill-opacity=".5" d="M117.5 90.8l-27 16.7 22.3-19 4-17z"/><path fill="#a9afa8" fill-opacity=".5" d="M43 67.4L-.3 83.9 47 53.7l7.4 31.5z"/><path fill="#d2d0c9" fill-opacity=".5" d="M211.8 120.8l-6.9 2.3 14 16.5 11.3-9z"/><path fill="#637c99" fill-opacity=".5" d="M167 66.5l-1 21h-1l1-21z"/><circle cx="154" cy="152" r="4" fill="#f1ede9" fill-opacity=".5"/><path fill="#c9c6c0" fill-opacity=".5" d="M47 98h42v16H47z"/><path fill="#e18981" fill-opacity=".5" d="M173.3 149.9l-9.6-29.5 1-.3 9.6 29.5z"/><path fill="#93a8a9" fill-opacity=".5" d="M-16 73l30 23-10 7z"/><path fill="#dc7a75" fill-opacity=".5" d="M97.2 85l-23-19.3.6-.7 23 19.3z"/><path fill="none" stroke="#000" stroke-opacity=".5" stroke-width=".5" d="M135.8-16q-3.5 0-3 24.3"/><path fill="#a8b2a9" fill-opacity=".5" d="M246 49l-13 41 22-26z"/><path fill="#908e86" fill-opacity=".5" d="M173 6h2v27h-2z"/><path fill="#a6a7a1" fill-opacity=".5" d="M208.9 161.9l-13.5.5-23.7-19.1 41 17.1z"/><path fill-opacity=".5" d="M108 0h6v1h-6z"/><path fill="#86957b" fill-opacity=".5" d="M73.5 123.4l43.5 20.3-.5.9L73 124.3z"/><circle r="1" fill="#798ba5" fill-opacity=".5" transform="rotate(135.1 -25.7 62.2) scale(1 20.73375)"/><path fill="#aeb5ae" fill-opacity=".5" d="M54.5 42.6L71-16l-9.2 42.9 25.1 12z"/><path fill="#c8bebd" fill-opacity=".5" d="M109 137l-12 17 1-9z"/><path fill="#cd2a01" fill-opacity=".5" d="M117 121.2l-6-.4v-2l6 .4z"/><path fill="#f7efe7" fill-opacity=".5" d="M271 43l-26.8 7.8V37.9l9.7 11.3z"/><path fill="#49b452" fill-opacity=".5" d="M109 127h14v5h-14z"/></g></g></svg>