<svg xmlns="http://www.w3.org/2000/svg" viewBox="0 0 1200 848"><defs/><filter id="prefix__a"><feGaussianBlur stdDeviation="12"/></filter><rect width="100%" height="100%" fill="#436773"/><g filter="url(#prefix__a)"><g transform="translate(2.3 2.3) scale(4.6875)"><circle cx="119" cy="93" r="171" fill="#fff" fill-opacity=".5"/><circle cx="184" cy="84" r="221" fill="#fff" fill-opacity=".5"/><circle cx="149" cy="125" r="194" fill="#fff" fill-opacity=".5"/><ellipse cx="49" cy="93" fill="#a3c2de" fill-opacity=".5" rx="114" ry="23"/><ellipse cx="154" cy="27" fill="#fff" fill-opacity=".5" rx="255" ry="36"/><ellipse cx="91" cy="154" fill="#fff" fill-opacity=".5" rx="253" ry="34"/><path fill="#81a3dd" fill-opacity=".5" d="M112.9 127.3l8.7 9.8-53.3-20.9 45.9-37.3z"/><circle r="1" fill="#b9d9d8" fill-opacity=".5" transform="matrix(-1.64194 15.62197 -103.82577 -10.91253 204 88.4)"/><path fill="#6b8cdc" fill-opacity=".5" d="M-3.4 96.4l82.9.5-33.1 2.4-58.1 21.5z"/><ellipse cx="148" cy="113" fill="#fff" fill-opacity=".5" rx="35" ry="17"/><circle r="1" fill="#fff" fill-opacity=".5" transform="rotate(89.8 73.2 90.5) scale(27.46351 160.8668)"/><path fill="#fff" fill-opacity=".5" d="M6 169l-12-51.6L74 99l12 51.6z"/><ellipse cx="15" cy="75" fill="#e7f4e7" fill-opacity=".5" rx="107" ry="18"/><ellipse cx="154" cy="179" fill="#fff" fill-opacity=".5" rx="255" ry="46"/><path fill="#577ed5" fill-opacity=".5" d="M94.5 111l7.4 8.7 15.4 2.6-5.6-18.2z"/><ellipse cx="141" cy="129" fill="#abc6e7" fill-opacity=".5" rx="36" ry="4"/><path fill="#96b1dc" fill-opacity=".5" d="M85 122L51 98v12z"/><path fill="#255bcc" fill-opacity=".5" d="M36.5 97.3l.7 4.8-33.7-3 7.1-1.9z"/><path fill="#9bbdd4" fill-opacity=".5" d="M249.8 84.4l-16.4 5.1.3 13.3.9 24.8z"/><path fill="#0014bf" fill-opacity=".5" d="M77 105h4v7h-4z"/><path fill="#a5c5cf" fill-opacity=".5" d="M161 76L77 86l83 13z"/><ellipse cx="85" cy="112" fill="#fff" fill-opacity=".5" rx="4" ry="9"/><path fill="#f2f8fa" fill-opacity=".5" d="M215.8 96.7L251.3 76l-51 11.7-52.9 7.9z"/><path fill="#fff" fill-opacity=".5" d="M145 94l7 37-48-6z"/><circle r="1" fill="#dcede6" fill-opacity=".5" transform="matrix(60.1868 -5.68933 1.63578 17.30476 162.5 63.2)"/><path fill="#91b0df" fill-opacity=".5" d="M201.7 122.7L164 133.3l35.3-12.9 9.6-14.9z"/><path fill="#fffffc" fill-opacity=".5" d="M-16 116.9l27.9-10 9.5-5.1-3.5-.7z"/><path fill="#f4f7fc" fill-opacity=".5" d="M59 89h44v8H59z"/><ellipse cx="177" cy="81" fill="#c0ddcd" fill-opacity=".5" rx="44" ry="8"/><path fill="#adc9d8" fill-opacity=".5" d="M75.9 90.7l63.7 15.3-75.5-34.9 32.3 33.6z"/><path fill="#fefffd" fill-opacity=".5" d="M204.3 96l23.6.2L205.5-16 271 59.7z"/><path fill="#fffffe" fill-opacity=".5" d="M13.1-12.5L3.5 83.1l33.7 8.5-53.2 2.3z"/><path fill="#6d99da" fill-opacity=".5" d="M113.7 129l34.7 5-.1 1-34.7-5z"/><path fill="#fff" fill-opacity=".5" d="M238 105h18v23h-18z"/><path fill="#fffffd" fill-opacity=".5" d="M85 121L55 96l19 5z"/><path fill="#94b4e0" fill-opacity=".5" d="M122 77.5l20.3 20.1 29.1-1.5-64.8.5z"/><path fill="#b6cde4" fill-opacity=".5" d="M234 129l-1-19 17 28z"/><path fill="#a2c3cc" fill-opacity=".5" d="M52.4 81.9l-20.9-5.7 2.7 21.5 7.1-11.6z"/><circle r="1" fill="#fff" fill-opacity=".5" transform="rotate(54.3 -9 273.8) scale(9.36297 17.80188)"/><path fill="#fff" fill-opacity=".5" d="M155 98h27v30h-27z"/><path fill="#4074d4" fill-opacity=".5" d="M110.3 100.3L74 106.7l-.2-1 36.4-6.4z"/><path fill="#b7cde1" fill-opacity=".5" d="M152 97h3v43h-3z"/><ellipse cx="200" cy="21" fill="#fff" fill-opacity=".5" rx="245" ry="21"/><path fill="#88a6e8" fill-opacity=".5" d="M195 102h59v2h-59z"/><path fill="#fcfefc" fill-opacity=".5" d="M89.4 111.7l-32 83.3 41.3-27.9-21.5-71.9z"/><path fill="#83a8da" fill-opacity=".5" d="M196.7 124.7l-35.2 7.5-.2-1 35.2-7.4z"/><path fill="#7b9edc" fill-opacity=".5" d="M34 84h2v33h-2z"/><path fill="#a9c0e3" fill-opacity=".5" d="M51.9 130l8.8-46.8-14.2 18 5.8 4.5z"/><path fill="#ebf2f1" fill-opacity=".5" d="M72.2 117.2l22.1 12.3-38.9-6.2-1.8-16.2z"/><path fill="#e4f0ee" fill-opacity=".5" d="M130 38.8l10.4-10.7 10 25.3-103.7-4z"/><ellipse cx="27" cy="98" fill="#2d5fcd" fill-opacity=".5" rx="14" ry="2"/><path fill="#edf5f0" fill-opacity=".5" d="M19 87L0-3l49 62z"/><ellipse cx="140" cy="158" fill="#fefffe" fill-opacity=".5" rx="196" ry="26"/><path fill="#dfeceb" fill-opacity=".5" d="M125.6 10.1l13.2 10.5L126.5-16l-20.7 74.8z"/><path fill="#87a4d5" fill-opacity=".5" d="M118 106h3v11h-3z"/><path fill="#97b6ec" fill-opacity=".5" d="M160 96h43v2h-43z"/><path fill="#f3f8f6" fill-opacity=".5" d="M91.1 112.9l22.3 13.4-.5.8-22.3-13.4z"/><circle cx="107" cy="114" r="6" fill="#4f79d3" fill-opacity=".5"/><path fill="none" stroke="#5684d4" stroke-opacity=".5" stroke-width=".5" d="M124 131.7q-13.3.4-55.7-15.8"/><path fill="#fff" fill-opacity=".5" d="M0 101h21v2H0z"/><ellipse cx="139" cy="98" fill="#fffffd" fill-opacity=".5" rx="20" ry="2"/><ellipse cx="40" cy="93" fill="#89a9e5" fill-opacity=".5" rx="42" ry="1"/><path fill="#d1e9dc" fill-opacity=".5" d="M210 54l30 36-22-2z"/><circle r="1" fill="#f1f3f7" fill-opacity=".5" transform="matrix(1.91402 3.23643 -27.80968 16.4466 20.8 114.5)"/><ellipse cx="192" cy="101" fill="#648fe0" fill-opacity=".5" rx="14" ry="1"/><path fill="#f8f9ff" fill-opacity=".5" d="M220.7 98.5l16.1 2.5-7.9.5-88.5-2.9z"/><ellipse cy="104" fill="#3636bf" fill-opacity=".5" rx="8" ry="2"/><circle r="1" fill="#81a1da" fill-opacity=".5" transform="matrix(38.46387 -21.88373 .4945 .86917 1 116.6)"/><path fill="#85aaca" fill-opacity=".5" d="M238.8 103.4l-2.4-3.2 12.8-9.6 2.4 3.2z"/><circle cx="192" cy="73" r="6" fill="#b5d7be" fill-opacity=".5"/><path fill="#9cbad7" fill-opacity=".5" d="M53.7 90.8L42.9 79l9.2-1.5 9.6 41.9z"/><path fill="#d0dee1" fill-opacity=".5" d="M22 63l-9 16-8-33z"/><path fill="#608bd6" fill-opacity=".5" d="M129 74h2v21h-2z"/><path fill="#c7dade" fill-opacity=".5" d="M130 67l15-11 8 35z"/><path fill="none" stroke="#3e77d7" stroke-opacity=".5" stroke-width=".5" d="M84.4 100.4q4-2.1 23.5-4"/><path fill="#fffffd" fill-opacity=".5" d="M122 105h11v26h-11z"/><path fill="#3e77cf" fill-opacity=".5" d="M150.5 130.4l11 .2v1l-11-.2z"/><path fill="#fbfeff" fill-opacity=".5" d="M208.2 91.6l-6.6 26.2-5.8-1.4 6.6-26.2z"/><path fill="#a1bcdd" fill-opacity=".5" d="M147 95l7-1-2 16z"/><ellipse cx="34" fill="#d5cecc" fill-opacity=".5" rx="51" ry="1"/><path fill="#6e92d4" fill-opacity=".5" d="M117 134l-14-8h10z"/><circle cx="245" cy="77" r="11" fill="#e2f4e1" fill-opacity=".5"/><path fill="#dfe8f1" fill-opacity=".5" d="M90.6 108.5l7 17.6-24.7-14.8 39.2 19z"/><path fill="#a7bde3" fill-opacity=".5" d="M199.6 122.9l17.3-21.3-7.7 7.3-.8-7.2z"/><circle r="1" fill="#a2c0dd" fill-opacity=".5" transform="rotate(102.3 59 128.3) scale(20.48208 1)"/><ellipse cx="229" cy="98" fill="#6d97df" fill-opacity=".5" rx="14" ry="1"/><path fill="#fffeff" fill-opacity=".5" d="M36 89h41v4H36z"/><path fill="#f5faf5" fill-opacity=".5" d="M153.4 66.6l-9.7 22 36.9-42.3-24.4 7z"/><path fill="#fff" fill-opacity=".5" d="M163 87h11v5h-11z"/><path fill="#88a5dc" fill-opacity=".5" d="M43.4 98.3l27.1 16.5-21.4-16.3 8.2 3.4z"/><path fill="#a2bedb" fill-opacity=".5" d="M98.8 68.6l-13.3 37.9.3-14.2 5.1-8.4z"/><path fill="#b2d3ba" fill-opacity=".5" d="M174 80l-7-11 1-11z"/><path fill="#fdfefc" fill-opacity=".5" d="M157 133.3l-17.7-4.2-26.4-24.7 21.5 1.2z"/><path fill="#c3d6e6" fill-opacity=".5" d="M112.3 70.3l-5-35.3 12.4 56.1 1.9 33z"/><path fill="#f9fcf9" fill-opacity=".5" d="M52 130h59v36H52z"/><path fill="none" stroke="#6c95df" stroke-opacity=".5" stroke-width=".5" d="M132.8 103.7q-5.4-2.8-30.7-6.7"/><path fill="#8bb0d1" fill-opacity=".5" d="M63 73l2-7-2-6z"/><ellipse cx="142" cy="132" fill="#4e84d5" fill-opacity=".5" rx="13" ry="1"/><path fill="#e7ebf1" fill-opacity=".5" d="M-16 115.3l46-15.6-16.6 2.5 2.6-.5z"/><path fill="#fff" fill-opacity=".5" d="M194 103l-40 6 28 17z"/></g></g></svg>