<svg xmlns="http://www.w3.org/2000/svg" viewBox="0 0 1200 376"><defs/><filter id="a"><feGaussianBlur stdDeviation="12"/></filter><rect width="100%" height="100%" fill="#4b4b4b"/><g filter="url(#a)"><g fill-opacity=".5" transform="translate(2.3 2.3) scale(4.6875)"><circle cx="118" cy="22" r="171" fill="#fff"/><circle r="1" fill="#fff" transform="rotate(2.2 -847.5 3090.4) scale(189.73427 64.06344)"/><circle r="1" fill="#fff" transform="matrix(-7.44433 87.2253 -204.62424 -17.46385 141.4 24.2)"/><circle r="1" fill="#a0a0a0" transform="matrix(123.86076 -1.35722 .03164 2.88758 126.7 70.3)"/><ellipse cx="152" fill="#fff" rx="158" ry="33"/><path fill="#b2b2b2" d="M75 62h111v13H75z"/><circle r="1" fill="#fff" transform="matrix(-67.65648 6.46691 -3.5688 -37.3366 115.3 0)"/><circle r="1" fill="#fff" transform="matrix(-23.59372 -48.77143 15.33546 -7.4187 0 30.3)"/><ellipse cx="34" cy="29" fill="#d0d0d0" rx="17" ry="23"/><path fill="#cbcbcb" d="M222.1 65.8l19.8-29.3-15.8-21.4-17.5 15z"/><path fill="#fff" d="M261-16l-72 73-37-69z"/><path fill="#fff" d="M238.3-11.4l28-2 5.4 78.8-28 2zM0 53h63v16H0z"/><path fill="#bababa" d="M55 56h149v3H55z"/><path fill="#2c2c2c" d="M183.4 75h-5l.2-6h5z"/><path fill="#f6f6f6" d="M271 77.6l-90.9-3.2-3-18.3-52 38.9z"/><path fill="#6e6e6e" d="M99 68h14v6H99z"/><circle r="1" fill="#787878" transform="matrix(3.36104 2.28416 -2.80626 4.12928 82.4 70)"/><path fill="#d0d0d0" d="M223 74l-48-12 14 14z"/><path d="M139 69h2v3h-2z"/><path fill="#ccc" d="M82 48l21 33-10-42z"/><path fill="#5b5b5b" d="M212.4 72.3l-4 .4-.8-7 4-.4z"/><path fill="#171717" d="M49 71l2 6-2-2z"/><path fill="#dfdfdf" d="M139 23h37v27h-37z"/><path fill="#fff" d="M18-16L271 1 85 39z"/><path fill="#f6f6f6" d="M221.6 65.9l-28 4.6L163.5 95l44.2-44.6z"/><path fill="#fff" d="M7-16l-23 87 33-8z"/><path fill="#f4f4f4" d="M112 73h67v7h-67z"/><path fill="#b5b5b5" d="M0 69h30v4H0z"/><circle r="1" fill="#dedede" transform="matrix(20.608 -3.63375 2.18725 12.40453 221.8 30)"/><ellipse cx="180" cy="79" fill="#fff" rx="99" ry="2"/><ellipse cx="129" cy="60" fill="#ebebeb" rx="73" ry="3"/><path fill="#c2c2c2" d="M223.5 75.7l5.6-41.8-10.6 6.6-.3 14z"/><path fill="#232323" d="M138.6 69l1.7 3.6-1 .4-1.6-3.6z"/><path fill="#6f6f6f" d="M92 67h2v13h-2z"/><path fill="#f3f3f3" d="M78 95l-1-31-46-21z"/><path fill="#fff" d="M183 0h17v54h-17z"/><ellipse cx="30" cy="53" fill="#c8c8c8" rx="2" ry="33"/><path fill="#fff" d="M0 73h46v6H0zm223-2h33v4h-33z"/><path fill="#f0f0f0" d="M109.4 76.9l-1-.2 4.2-23.6 1 .2z"/><path fill="#c4c4c4" d="M156 63h20v10h-20z"/><path fill="#e7e7e7" d="M93.7 65.9l-12.9-.2 32 22.3-38.4 7z"/><path fill="#9d9d9d" d="M193 58h2v17h-2z"/><path fill="#b3b3b3" d="M0 79h41v1H0z"/><ellipse cx="208" cy="73" fill="#888" rx="13" ry="1"/><path fill="#6f6f6f" d="M101.7 66l6 1-1.4 9-6-1z"/><ellipse cx="147" cy="52" fill="#f9f9f9" rx="56" ry="4"/><path fill="#e6e6e6" d="M103 29h2v51h-2z"/><path fill="#fff" d="M246 0h10v67h-10z"/><ellipse cx="172" cy="76" fill="#bdbdbd" rx="23" ry="1"/><path fill="#5b5b5b" d="M77.8 69.4l8-.7.4 4-8 .6z"/><path fill="#b9b9b9" d="M101 77h41v1h-41z"/><path fill="#b3b3b3" d="M83 49l7-7 3 10z"/><path fill="#ebebeb" d="M82 61h2v18h-2z"/><path fill="#767676" d="M52 69l-4 1 4 5z"/><path fill="#fff" d="M33 56h27v12H33z"/><path fill="#e6e6e6" d="M125 42.3l-22.2 6L99 33.6l22.2-6z"/><path fill="#f0f0f0" d="M124.4 58.3L80.8 31l2.7 25.7L29.7 1z"/><path fill="#fff" d="M194 70h11v2h-11z"/><path fill="#eee" d="M85 95l21.4-17.5-4 6.9L99.5 65z"/><path fill="#fff" d="M-15.9 4.4L55-9.3 9 13.1l.9 57z"/><path fill="#b9b9b9" d="M29 52h2v25h-2z"/><path fill="#ccc" d="M74 56h5v19h-5z"/><path fill="#dcdcdc" d="M16 20h38v28H16z"/><path fill="#dfdfdf" d="M114 68h12v5h-12z"/><path fill="#cfcfcf" d="M48.8 90.3l-2-.5 6.4-22.1 2 .5z"/><path fill="#fff" d="M160 77h96v3h-96z"/><path fill="#313131" d="M179.2 68.2l3-.3.6 6-3 .2z"/><path fill="#aeaeae" d="M221 62h3v11h-3z"/><path fill="#f3f3f3" d="M121 57h35v5h-35z"/><path fill="#b0b0b0" d="M63 56h44v2H63z"/><path fill="#4e4e4e" d="M113.3 67.5l1 .3-1.6 4.7-1-.3z"/><circle r="1" fill="#fefefe" transform="matrix(-13.84894 -1.71635 .38574 -3.11244 208.2 63.7)"/><path fill="#fff" d="M88 66h2v11h-2z"/><ellipse cx="194" fill="#fff" rx="158" ry="17"/><circle cx="188" cy="68" r="4" fill="#f8f8f8"/><path fill="#afafaf" d="M200.5 57.5v1l-23-2v-1z"/><ellipse cx="59" cy="78" fill="#c9c9c9" rx="25" ry="1"/><path fill="#d0d0d0" d="M28.7 56.8l-10-32.3 15.4 24.2-.1-28.5z"/><path fill="#fff" d="M49 79h207v1H49z"/><path fill="#f9f9f9" d="M175 67h5v8h-5z"/><path fill="#aaa" d="M62.4 70.5h-1l.2-15h1z"/><path fill="#ebebeb" d="M232 25l17 4-10 33z"/><circle cx="140" cy="68" r="1" fill="#252525"/><path fill="#fff" d="M167.6 21.2l28.5 23.9L214.9-16 40.3 10.4z"/><path fill="#474747" d="M108.8 68.8l.4 4-4 .4-.4-4z"/><circle cx="209" cy="69" r="2" fill="#474747"/><ellipse cx="53" cy="53" fill="#e0e0e0" rx="2" ry="21"/><ellipse cx="229" cy="75" fill="#cbcbcb" rx="52" ry="1"/><path fill="#a1a1a1" d="M145.5 74.5h-1v-17h1z"/><path fill="#ccc" d="M211 67h45v3h-45z"/><ellipse cx="123" cy="55" fill="#fefefe" rx="92" ry="1"/><path fill="#fff" d="M224 63h32v4h-32z"/><ellipse cx="169" cy="39" fill="#e2e2e2" rx="15" ry="12"/><path fill="#bfbfbf" d="M91 64h24v4H91z"/><path fill="#e8e8e8" d="M26 8.1l-10.5 26-5.5-2.2 10.5-26z"/><path fill="#c3c3c3" d="M157 56h73v1h-73z"/><path fill="#a9a9a9" d="M54 74l-1-3-4 6z"/><path fill="#5f5f5f" d="M210.6 73.3l-.5.9-2.7-1.5.5-.9z"/></g></g></svg>