<svg xmlns="http://www.w3.org/2000/svg" viewBox="0 0 1200 900"><defs/><filter id="a"><feGaussianBlur stdDeviation="12"/></filter><rect width="100%" height="100%" fill="#5e4b2e"/><g filter="url(#a)"><g fill-opacity=".5" transform="translate(2.3 2.3) scale(4.6875)"><circle cx="137" cy="126" r="199" fill="#cfd0c7"/><circle r="1" fill="#dfd4be" transform="rotate(-179.1 61.7 94.4) scale(255 65.76911)"/><ellipse cx="157" cy="115" fill="#0c0905" rx="73" ry="10"/><circle r="1" fill="#58503d" transform="matrix(-12.16978 47.28856 -72.89257 -18.75901 238.2 73.6)"/><circle r="1" fill="#655b46" transform="matrix(142.36497 -34.70484 9.0128 36.97203 24 64.6)"/><path fill="#faffff" d="M129 68h37v37h-37z"/><circle r="1" fill="#100000" transform="matrix(7.4263 1.3362 -3.67653 20.43332 122.2 106.2)"/><circle r="1" fill="#adbbcc" transform="matrix(30.0301 -7.7643 3.92118 15.166 101 81.5)"/><ellipse cx="154" cy="58" fill="#5e5336" rx="255" ry="8"/><ellipse cx="31" cy="29" fill="#311500" rx="255" ry="2"/><path fill="#fffbe5" d="M81 118h35v6H81z"/><ellipse cx="23" cy="92" fill="#636461" rx="56" ry="33"/><circle r="1" fill="#787b7d" transform="matrix(-12.29896 22.68806 -29.15284 -15.80344 192.5 99)"/><path fill="#170b00" d="M84.7 117l.7-12 77.9 4-.7 12z"/><ellipse cx="210" cy="44" fill="#b09c79" rx="255" ry="7"/><path fill="#d3e6ff" d="M150.9 65.2l-26.7 4.3 13.7 36.6 30.4-.1z"/><ellipse cx="188" cy="134" fill="#c6baa4" rx="255" ry="10"/><path fill="#dfecf6" d="M96 84h21v21H96z"/><ellipse cx="101" cy="6" fill="#a5926d" rx="243" ry="22"/><circle r="1" fill="#898a89" transform="rotate(154 28.8 54.5) scale(27.48841 21.58972)"/><ellipse cx="170" cy="32" fill="#644f26" rx="255" ry="5"/><path d="M92 76h34v3H92z"/><path fill="#120000" d="M127 82l-1 30-9-12z"/><path fill="#edf8ff" d="M102 67h47v8h-47z"/><ellipse cx="214" cy="92" fill="#68645a" rx="36" ry="33"/><path fill="#63573e" d="M94 51h73v16H94z"/><path fill="#260d00" d="M237.7 33.8l-.4-9 15-.6.4 9z"/><path fill="#9faab6" d="M173 61.8l-2 25.8.6 28.2L151.3 90z"/><circle r="1" fill="#322713" transform="matrix(-.40279 4.34195 -10.90611 -1.01173 2 28)"/><path fill="#b9aa82" d="M183.9-16L271 34.9l-25.4 5.3 25.4-35z"/><ellipse cx="110" cy="98" rx="16" ry="1"/><path fill="#34240d" d="M94 69h31v2H94z"/><path fill="#372607" d="M124 84h6v41h-6z"/><circle r="1" fill="#544a34" transform="matrix(-56.55345 7.74686 -.81785 -5.97042 255 64.2)"/><path fill="#544d39" d="M-8.8 63.5L-16 77l59-4.1 1.7-7.8z"/><circle r="1" fill="#7c7c74" transform="matrix(-10.02538 -17.68349 24.89658 -14.11474 247.9 102)"/><path fill="#0b0000" d="M110 80h1v21h-1z"/><circle r="1" fill="#918268" transform="rotate(-101.4 47 -36.3) scale(22.07242 69.13116)"/><path fill="#30281a" d="M165.1 109.1l-74.2-2.3 37.2 18.5 50-1.3z"/><path fill="#dfeaf8" d="M92 71h55v5H92z"/><path fill="#e0ebf4" d="M91 79h63v3H91z"/><ellipse cx="228" cy="158" fill="#c0b195" rx="60" ry="34"/><path d="M98 83h23v1H98z"/><path fill="#514833" d="M95 56h2v44h-2z"/><path fill="#39290f" d="M123 65h2v50h-2z"/><ellipse cx="34" cy="58" fill="#79755f" rx="77" ry="6"/><ellipse cx="78" cy="132" fill="#beb4a0" rx="255" ry="8"/><path fill="#d6e1f0" d="M131 75h20v31h-20z"/><path fill="#8e8e81" d="M133 26h96v3h-96z"/><path fill="#cdc4b1" d="M117 118l-2 10-26-9z"/><path fill="#6c624d" d="M145 53h8v20z"/><path fill="#2f2415" d="M86 107h80v11H86z"/><path fill="#b4bcbc" d="M93.9 106.6l1.9-45.7-5.2 42.3-5.4 4.1z"/><path fill="#a7b5bd" d="M86.3 65.2l10 .6-.6 11-10-.6z"/><path fill="#998e75" d="M0 38h87v13H0z"/><path fill="#595243" d="M102 84h2v18h-2z"/><path fill="#effaff" d="M98 85h11v10H98z"/><path fill="#808383" d="M185.6 115.3l-10.4 1.9-12.4-10.4L175 64.9z"/><path fill="#5d5a4f" d="M0 25h190v1H0z"/><ellipse cx="143" cy="38" fill="#928266" rx="89" ry="6"/><circle r="1" fill="#e0eaf3" transform="rotate(-90.8 105 -3.1) scale(2.54808 8.41146)"/><circle r="1" fill="#8d9392" transform="matrix(4.91488 -4.52705 13.01023 14.12481 0 110.8)"/><path fill="#301e02" d="M117 91h7v29h-7z"/><path fill="#4e4739" d="M111 107.5l-3-14.8 1-.2 3 14.8z"/><path fill="#706b61" d="M177 87h58v38h-58z"/><path fill="#311b00" d="M233 25h22v3h-22z"/><ellipse cx="94" cy="63" fill="#6d624a" rx="153" ry="4"/><path fill="#9d9b94" d="M72 97h13v28H72z"/><path fill="#92978d" d="M271 92l-7 36-24-9z"/><ellipse cx="103" cy="82" fill="#5c5444" rx="1" ry="14"/><path fill="#a39373" d="M58 22l210 2-76-38z"/><path fill="#d2dce7" d="M130 79h26v27h-26z"/><circle r="1" fill="#746e64" transform="matrix(-8.02532 -13.14758 24.58027 -15.00386 38.2 101.6)"/><ellipse cx="169" cy="30" fill="#5e4726" rx="83" ry="3"/><circle r="1" fill="#b6aa91" transform="rotate(-51.9 279 -117.7) scale(32.18646 17.30183)"/><path fill="#e8f4ff" d="M149 66h-24v12z"/><path fill="#aab5c3" d="M158 67h10v37h-10z"/><path fill="#fff" d="M116 94l-4-12v13z"/><path fill="#3a3123" d="M117 109h33v16h-33z"/><path fill="#858784" d="M69 67h19v39H69z"/><path fill="#edfcff" d="M98 71h11v4H98z"/><ellipse cx="102" cy="100" fill="#3f362a" rx="1" ry="10"/><path fill="#1b0e00" d="M93.8 111l-.6-16h1l.6 16z"/><ellipse cx="98" cy="77" fill="#0c0000" rx="8" ry="1"/><ellipse cx="183" cy="27" fill="#a3a394" rx="53" ry="1"/><path fill="#7c6d50" d="M160 53h75v10h-75z"/><ellipse cx="116" cy="77" fill="#090000" rx="8" ry="1"/><path fill="#5a4c2c" d="M271 103.1V48.5l-27.7 3.6.8 6.4z"/><ellipse cx="159" cy="34" fill="#796949" rx="78" ry="3"/><circle cx="19" cy="191" r="67" fill="#b6b19f"/><ellipse cx="91" cy="143" fill="#bdb5a3" rx="35" ry="25"/><path fill="#948569" d="M163.4 18l-94.5 4.8-53.1 2.5L67.1-16z"/><path fill="#433416" d="M0 28h65v4H0z"/><path fill="#ccd5d6" d="M92 87h2v19h-2z"/><path fill="#3f290f" d="M229 31l13-6 6 11z"/><ellipse cx="107" cy="67" fill="#e2eff7" rx="16" ry="1"/><ellipse cx="138" cy="125" fill="#928872" rx="21" ry="1"/><circle r="1" fill="#807c73" transform="matrix(11.67642 3.59833 -8.8731 28.79281 60.4 97.3)"/><ellipse cx="196" cy="43" fill="#9c8c6f" rx="61" ry="6"/><path fill="#c6cdd1" d="M96 89h3v17h-3z"/></g></g></svg>