<svg xmlns="http://www.w3.org/2000/svg" viewBox="0 0 1200 864"><defs/><filter id="a"><feGaussianBlur stdDeviation="12"/></filter><rect width="100%" height="100%" fill="#2f512a"/><g filter="url(#a)"><g fill-opacity=".5" transform="translate(2.3 2.3) scale(4.6875)"><circle r="1" fill="#cbddea" transform="rotate(14.3 -161.3 670) scale(214.40607 88.3385)"/><circle r="1" fill="#4b7055" transform="matrix(-77.31325 19.85067 -9.2586 -36.05988 210.6 156.4)"/><circle r="1" fill="#c7c1f5" transform="rotate(-168.4 116 35.7) scale(93.15393 18.28741)"/><circle r="1" fill="#465758" transform="rotate(-77.4 100.2 33) scale(45.57415 73.30429)"/><path fill="#a2a9dc" d="M180 182l-64-47 35-51z"/><circle r="1" fill="#ffebf8" transform="matrix(1.8425 -6.03651 44.23256 13.50092 86 76.8)"/><circle r="1" fill="#cafdaa" transform="rotate(-178 84.7 0) scale(95.89804 11.14666)"/><circle r="1" fill="#3f6b12" transform="rotate(165.9 96.8 83) scale(34.29119 22.84947)"/><path fill="#377045" d="M204 27h52v38h-52z"/><circle r="1" fill="#82abea" transform="matrix(-90.26948 42.70446 -14.49872 -30.64766 18.7 0)"/><path fill="#51555f" d="M116.6 80.4L41.7 58.5 160.3 43l9.5 9.7z"/><ellipse cx="151" cy="37" fill="#90d252" rx="68" ry="11"/><path fill="#fff1ff" d="M60 54L37 39l48 8z"/><circle r="1" fill="#95c6dc" transform="matrix(16.92742 -.73907 .46195 10.58047 0 96.7)"/><path fill="#b5b8db" d="M44 60l18 46-48-50z"/><path fill="#28393d" d="M41 101l-57 91 124-69z"/><circle r="1" fill="#90aef4" transform="matrix(-23.14749 38.87219 -2.7822 -1.65674 227.3 173.8)"/><path fill="#fff1de" d="M184 100l-38-21 62 15z"/><path fill="#b8b2ca" d="M135 103l19 57 32-38z"/><path fill="#375c5a" d="M208.3 191.2l60.2-107.7L232 96.6l36.2 10.8z"/><path fill="#fff5ed" d="M116.4 10.4l-36.2-4 24.1-13.3 34.1 2.8z"/><path fill="#5d8733" d="M43 192l65-54-46-1z"/><circle r="1" fill="#9fce85" transform="matrix(84.71814 8.00822 -1.4997 15.8651 222 5.8)"/><path fill="#3a624d" d="M133 98h39v8h-39z"/><circle r="1" fill="#fff4e8" transform="matrix(-25.81308 -9.95477 2.0045 -5.19773 91.8 79.8)"/><path fill="#1e2b44" d="M77.7 196l-11.4-24.4 68-31.7 11.4 24.5z"/><circle r="1" fill="#5e88b5" transform="rotate(46.4 -48.3 276.2) scale(6.11929 58.26153)"/><path fill="#98695c" d="M43.6 40.4l-8.2 24.2 35.8 1.7-23.3-21.1z"/><path fill="#a080a2" d="M99 109.7l30.1-33.5L147 92.3l-30.1 33.5z"/><circle r="1" fill="#46675e" transform="rotate(-173.9 91 5.7) scale(46.97008 3.67734)"/><path fill="#4f9e7c" d="M121.6 8l4.4 20.5L62.4 42 58 21.5z"/><path fill="#adc7e1" d="M115 69.4l-3.7-.2.6-15.1 10.7-3.4z"/><path fill="#4c7581" d="M0 4h69v7H0z"/><path fill="#efdbd7" d="M236.3 70.9l-29.9 48.5-14-2.3 33.4-13.2z"/><path fill="#b4a696" d="M71.8 100.4l18.3-12.5-2.2 4.1 1.9 26.3z"/><circle cx="138" cy="127" r="7" fill="#597f2f"/><path fill="#519017" d="M93 86l20 10-17 6z"/><path fill="#43605b" d="M173.6 158.9l2.2 40.1 27.9-95.6L162 154z"/><path fill="#305651" d="M147 41l-28 24 51-11z"/><path fill="#51713f" d="M57 111L35 75 8 137z"/><path fill="#162335" d="M159.9 165.5l10.7 27.1 17.4-13.9-74.7 20.3z"/><circle r="1" fill="#4c85b8" transform="matrix(-24.28255 23.12396 -2.3904 -2.51017 136.8 86.9)"/><path fill="#9db2c2" d="M28.6 23l10.3 57.2-35.3-6.3 15.3-16.2z"/><circle r="1" fill="#f1c0bd" transform="matrix(.88407 -2.40436 30.13265 11.07967 155.5 113.6)"/><path fill="#708c3f" d="M160.2 93.3l25.1 14.5-7.5 13-25.1-14.6z"/><path fill="#3a5f2c" d="M72 110h30v30H72z"/><circle r="1" fill="#6f7895" transform="rotate(126.3 29 104.2) scale(7.6747 33.28682)"/><circle r="1" fill="#565d52" transform="matrix(-6.9522 -2.86411 7.34764 -17.83532 209.5 51.7)"/><path fill="#e2eaf8" d="M191 73h-27l13 14z"/><path fill="#3b6252" d="M87 45h23v21H87z"/><circle r="1" fill="#22514e" transform="matrix(22.40332 7.28298 -1.48172 4.55796 13.6 83.4)"/><path fill="#b3cde3" d="M226.8 68.1l8.5 6.3-46.7-6.5L227.4 84z"/><path fill="#b8ddfc" d="M157 149l-1 12 16 9z"/><path fill="#5184bb" d="M249.9 91.1l-28 24.6 10.5-22.5 11-9.7z"/><path fill="#4c6b82" d="M83 11h72v8H83z"/><path fill="#9fcb7d" d="M34.4 57l13.9-33 44.3-10.8-82.1 43.2z"/><path fill="#bd7d7d" d="M97 46L58 74l-5-18z"/><path fill="#4c7a82" d="M58 78h14v38H58z"/><path fill="#337b1d" d="M196.6 147.8l11.1-20.1 29.7 16.5-11.1 20.1z"/><path fill="#5a9565" d="M233 43h23v34h-23z"/><path fill="#a097c0" d="M143 62h43v9h-43z"/><path fill="#ffc1a8" d="M203.8 50.7l-3 4-10.6-7.4 3-4z"/><path fill="#214448" d="M37 48h14v9H37z"/><path fill="#868136" d="M245 127l-12 19-28-27z"/><path fill="#dca7b3" d="M43 88l16 9 6-11z"/><path fill="#f0d3cc" d="M153.7 138.3l9.4-22-34.7-13.2 44.6 13.7z"/><path fill="#3c5729" d="M130 101l16 4-12-14z"/><path fill="#ab818b" d="M176.3 162.3l2-4.3-80.1-37.5 50.4 30.3z"/><path fill="#e7dde9" d="M70 44l17 3-9 8z"/><path fill="#94b1d8" d="M-16 55l73-43-72 2z"/><circle r="1" fill="#2d3344" transform="matrix(11.5878 12.72418 -52.46555 47.77993 11.4 163.4)"/><path fill="#d5ddf4" d="M31.8 65.4l28.9 8.1-19.8 10.2L63.1 68z"/><path fill="#89b2db" d="M210.5 98.3l-9.8-9.2-11.5 17.4-6.4 14.6z"/><circle r="1" fill="#d5c1c2" transform="rotate(68.7 9.3 152.4) scale(3.31709 18.41566)"/><path fill="#ffe0d3" d="M122 97l-7-19-23-4z"/><circle r="1" fill="#cfd9ec" transform="matrix(-13.79939 -2.86967 .70703 -3.39992 248.2 83)"/><path fill="#586062" d="M192.3 65.8l-14.9-8.2 6.3-11.4 14.9 8.2z"/><path fill="#3b556f" d="M-6 56l25-22 2 9z"/><path fill="#485d47" d="M77.7 58.3l-10.5 5.9-.1-11.5 8.7-2.6z"/><path fill="#ce9195" d="M157.9 54.8l-59.8 54.8 11-.5 28.3-30.4z"/><path fill="#95c577" d="M117 23h62v15h-62z"/><path fill="#f7d0c2" d="M193.4 91.7l-21.9 20 17.6-6.3-37.3-26.6z"/><path fill="#3480db" d="M126 45l5 9-18 1z"/><path fill="#467dbd" d="M170 182l-8-16 20 7z"/><ellipse cy="61" fill="#b8c0c9" rx="1" ry="77"/><path fill="#5f7039" d="M139.9 160.4l18.1 1.8 1.9-.4-42.3 32.1z"/><path fill="#325869" d="M87.2 120.8l34-16.5-19.6 25.1 8.9 12z"/><path fill="#60a0dd" d="M135 81l38-1-24-11z"/><ellipse cx="151" cy="98" fill="#5da3e2" rx="4" ry="11"/><path fill="#476368" d="M223.7 31.2l-43 39.8 73.6-36.4-13-7z"/><path fill="#6689b6" d="M131.5 120l20.3-3.7-25.8-7.6-22.7 34.1z"/><circle r="1" fill="#a97385" transform="matrix(-3.74661 -3.1322 8.48283 -10.14683 167.5 130.4)"/><path fill="#526c9e" d="M242 157l20 8-6-47z"/><path fill="#283e49" d="M26.3 102.2l18.9 1.2-61.2 32.7 43.9-41.9z"/><path fill="#b9b43f" d="M83 105h8v13h-8z"/><path fill="#5f79ac" d="M38.3 82.6L1.4 65.5l7.3 12 46-4.5z"/><path fill="#a3b4d8" d="M74 97.6l1.6 13 10.1-8.4-9-.6z"/><path fill="#cdc9d1" d="M226 110l21-4-3 13z"/><path fill="#85b6e1" d="M117.2-16L84 5.5l-14.1.4L4.8 1z"/><path fill="#657366" d="M60.5 72.3L43.7 87l33.1 6.9 2.7-8.9z"/></g></g></svg>