<svg xmlns="http://www.w3.org/2000/svg" viewBox="0 0 1200 1045"><defs/><filter id="prefix__a"><feGaussianBlur stdDeviation="12"/></filter><rect width="100%" height="100%" fill="#464a4d"/><g filter="url(#prefix__a)"><g transform="translate(2.3 2.3) scale(4.6875)"><circle cx="78" cy="90" r="221" fill="#fff" fill-opacity=".5"/><circle cx="117" cy="69" r="211" fill="#fff" fill-opacity=".5"/><circle cx="129" cy="105" r="184" fill="#fff" fill-opacity=".5"/><circle cx="61" cy="100" r="247" fill="#fff" fill-opacity=".5"/><circle cx="134" cy="117" r="184" fill="#fff" fill-opacity=".5"/><ellipse cx="143" cy="77" fill="#89a3ef" fill-opacity=".5" rx="2" ry="34"/><path fill="#7292ec" fill-opacity=".5" d="M117 25h2v79h-2z"/><path fill="#baccf2" fill-opacity=".5" d="M99.1 109l-22.5 82.8-22-17.2 13.5 26.5z"/><circle r="1" fill="#95b0f2" fill-opacity=".5" transform="matrix(-7.92491 -46.89055 .98602 -.16665 170 162)"/><path fill="#809aee" fill-opacity=".5" d="M131.7 112.6l2.9 9.5-8.4-1.7-3.3-5.5z"/><circle r="1" fill="#fff" fill-opacity=".5" transform="rotate(147.2 4.5 25.4) scale(97.53796 63.34084)"/><path fill="#adc3f3" fill-opacity=".5" d="M119 24h28v7h-28z"/><path fill="#97adef" fill-opacity=".5" d="M94 100h26v4H94z"/><path fill="#7895ed" fill-opacity=".5" d="M144.5 24l2 40h-1l-2-40z"/><ellipse cx="254" cy="46" fill="#fff" fill-opacity=".5" rx="72" ry="216"/><path fill="#a2bbf4" fill-opacity=".5" d="M137.8 99.2l27.1 6.7-.7 3-27.1-6.8z"/><path fill="#b5c7ef" fill-opacity=".5" d="M109 209h26v6h-26z"/><ellipse cx="164" cy="118" fill="#94acf3" fill-opacity=".5" rx="2" ry="16"/><circle r="1" fill="#fff" fill-opacity=".5" transform="matrix(14.97606 -29.01558 91.08612 47.01305 39.3 208.4)"/><ellipse cx="179" cy="219" fill="#fff" fill-opacity=".5" rx="48" ry="30"/><path fill="#385eeb" fill-opacity=".5" d="M95.3 123h-1l.4-24h1z"/><path fill="#fffffe" fill-opacity=".5" d="M128 28l15-1 1 46z"/><path fill="#c2d3f0" fill-opacity=".5" d="M58 177h25v9H58z"/><path fill="#3c60e9" fill-opacity=".5" d="M127.3 114.2l6 .7-.6 5-6-.8z"/><circle cx="207" cy="124" r="43" fill="#f6fbfc" fill-opacity=".5"/><path fill="#dfeaf3" fill-opacity=".5" d="M239.3 139.8l-42.7 34.1 8.2 10.5-29.8-1.3z"/><path fill="#bfd1ee" fill-opacity=".5" d="M131.1 154.5l.6 5-16.8 2-.6-5z"/><circle r="1" fill="#95acf0" fill-opacity=".5" transform="rotate(-101.6 157.7 17.8) scale(12.48947 1.24225)"/><path fill="#c4d7ef" fill-opacity=".5" d="M121 53h15v6h-15z"/><path fill="#cedfef" fill-opacity=".5" d="M156 11h-38l16-6z"/><ellipse cx="185" cy="6" fill="#fff" fill-opacity=".5" rx="35" ry="28"/><path fill="#fff" fill-opacity=".5" d="M97 112l9 76 22-86zm39-5h25v76h-25zm-152 55L128-9-3-8z"/><path fill="#fdffff" fill-opacity=".5" d="M24.2 171.5L43 90.6l42.9 10L67 181.3z"/><path fill="#5173ef" fill-opacity=".5" d="M126.5 25.6v-1l17-.2v1z"/><ellipse cx="143" cy="188" fill="#d9e6f8" fill-opacity=".5" rx="57" ry="2"/><ellipse cx="148" cy="105" fill="#4b6df3" fill-opacity=".5" rx="6" ry="1"/><path fill="#dee9f2" fill-opacity=".5" d="M230.8 85.7l8.9 50.2-26.9-3.5 28.3-8.9z"/><path fill="#a5bcf2" fill-opacity=".5" d="M163.1 123.7l13 61.5-3.3-3.6-6.2-30.8z"/><path fill="#fafefe" fill-opacity=".5" d="M145 57h27v47h-27z"/><path fill="#ebf3f6" fill-opacity=".5" d="M227.6 83.8L186 41.7l36.6 8.8 12.2 48.9z"/><path fill="#e0ecf7" fill-opacity=".5" d="M84 99h58v3H84z"/><path fill="#9dacec" fill-opacity=".5" d="M77.7 185.8l3.9-17.7-9 23.5 6.7-11.2z"/><ellipse cx="119" cy="176" fill="#fff" fill-opacity=".5" rx="40" ry="13"/><path fill="#fff" fill-opacity=".5" d="M148.3 18.7L271 76.3 221.1-16 100.6 31.5z"/><path fill="#c4d8ef" fill-opacity=".5" d="M125 65h13v4h-13z"/><ellipse cx="81" cy="89" fill="#e5eef8" fill-opacity=".5" rx="32" ry="3"/><ellipse cx="24" cy="131" fill="#dceaf5" fill-opacity=".5" rx="14" ry="4"/><path fill="#fff" fill-opacity=".5" d="M-16 132.3l6.6 89.1L40.2 237 17.7 134.3z"/><path fill="#7c94e9" fill-opacity=".5" d="M143.5 86h-1V64h1z"/><circle r="1" fill="#fff" fill-opacity=".5" transform="matrix(27.74544 -40.2193 20.06151 13.83951 224.5 188.1)"/><path fill="#8da2eb" fill-opacity=".5" d="M117.6 212.5l.9-3.9 3.9.9-.9 3.9z"/><path fill="#fff" fill-opacity=".5" d="M76.6 184.1l62.3-90 10.9 33.1-34-23.9z"/><ellipse cx="146" cy="35" fill="#a8c1f1" fill-opacity=".5" rx="1" ry="9"/><ellipse cx="95" cy="120" fill="#acc0f3" fill-opacity=".5" rx="2" ry="7"/><path fill="#e0ebf5" fill-opacity=".5" d="M171.7 164l6.9 3.8 7.9 30.9-.5 7z"/><path fill="#fafefb" fill-opacity=".5" d="M142.5 82.3l-22.6-31.2 18.5 36.1 6.8-74.3z"/><path fill="none" stroke="#91a8ef" stroke-opacity=".5" stroke-width=".5" d="M96.8 122.6q-3.5-.2-16.3 48.6"/><ellipse cx="126" cy="187" fill="#bdcfef" fill-opacity=".5" rx="1" ry="17"/><path fill="#dde9f4" fill-opacity=".5" d="M145.7 187h5l-.4 18h-5z"/><path fill="#bccbef" fill-opacity=".5" d="M192 184v-9l-5 4z"/><path fill="#e3eef5" fill-opacity=".5" d="M85.5 52.6l-9 52L86 63.3l4.7-25.7z"/><path fill="#ecf2f8" fill-opacity=".5" d="M161.8 104.3l43.1-8.4-58.1-4.4 2.3 12z"/><path fill="#d8e6f2" fill-opacity=".5" d="M113 30l-8-3-13 9z"/><path fill="#fff" fill-opacity=".5" d="M-16 177.7L112.4 237l-.3-30 10.8 14.2z"/><path fill="#d5e3f4" fill-opacity=".5" d="M105.9 194.2l-8.8 10.3 6.9-17.9.2 4.2z"/><path fill="#fff" fill-opacity=".5" d="M165 99h7v33h-7zm-68 4h12v40H97z"/><path fill="#9eb3f2" fill-opacity=".5" d="M141.9 94.4l3.1-46.8-.3 43.7-2.3 8.3z"/><path fill="#fff" fill-opacity=".5" d="M238 75h18v147h-18z"/><path fill="#e7f1f2" fill-opacity=".5" d="M230.4 99.6l-64.8-61.7-14.2-14.5L214 80.1z"/><path fill="#fff" fill-opacity=".5" d="M128 158l-9-36 43-4zm5 32h47v32h-47z"/><path fill="#e1edf4" fill-opacity=".5" d="M21.1 138.4l4.7 21.2 8.6 25.9-10.1-19.4z"/><path fill="#8a9ff2" fill-opacity=".5" d="M164.2 106h1l-1.4 16h-1z"/><path fill="#8498e8" fill-opacity=".5" d="M117 26h10v2h-10z"/><path fill="#e1ecf5" fill-opacity=".5" d="M75.7 189.1l-11.3 2.2-1.2 10.4 26.8-15z"/><path fill="#d8e6ee" fill-opacity=".5" d="M48.2 99l.8-.7L83.8 137l-.8.7z"/><path fill="#d6e6f2" fill-opacity=".5" d="M92.8 117.6l-28.7 83.2-.9-.4 28.7-83.2z"/><path fill="#fff" fill-opacity=".5" d="M114-16L-16 19l136 7z"/><circle cx="99" cy="102" r="2" fill="#8393e5" fill-opacity=".5"/><path fill="#d3e1ef" fill-opacity=".5" d="M179.8 123.2l-9.2-16.9 2.4 9.8 5.3.5z"/><path fill="#dfebf3" fill-opacity=".5" d="M110.8 139.3l-19.1 35.1L89 176l12.8-24.6z"/><path fill="none" stroke="#9fb4f2" stroke-opacity=".5" stroke-width=".5" d="M98.3 117.3q-7 8.4-14.7 47.4"/><path fill="#849df7" fill-opacity=".5" d="M136 24h8v2h-8z"/><path fill="#e3edf4" fill-opacity=".5" d="M151.7 21.7l39.8 26.7h10.6l-28.1-13z"/><path fill="#dce9f4" fill-opacity=".5" d="M132.1 136.9l-17.3 2.9 7.4-4.2 28.4 9.9z"/><path fill="#4561e0" fill-opacity=".5" d="M74 186h2v2h-2z"/><path fill="#e7f1f3" fill-opacity=".5" d="M50.8 168.3l14.8 25.3-.6-2.9-48.7-58.1z"/><path fill="#fff" fill-opacity=".5" d="M95 178l-17 3 20-60z"/><path fill="#a1baed" fill-opacity=".5" d="M126.1 71l-1.2-5.8 1-.2 1.2 5.8z"/><ellipse cx="184" cy="169" fill="#b9cdf3" fill-opacity=".5" rx="10" ry="1"/><path fill="#feffff" fill-opacity=".5" d="M153.7 58l47.5 40.4-53.8-65.9-3.4 67.3z"/><path fill="#899be7" fill-opacity=".5" d="M110 102.3l-24 .4v-1l24-.4z"/><path fill="#f1f9f9" fill-opacity=".5" d="M88 102h7v20h-7z"/><path fill="#e9f2f8" fill-opacity=".5" d="M128 88l-10-1 1 16z"/><path fill="#d7e5f2" fill-opacity=".5" d="M89 89.1l-21.5 14.6-.6-.8 21.6-14.6z"/><path fill="#829bf2" fill-opacity=".5" d="M142 82h1v27h-1z"/><path fill="#fff" fill-opacity=".5" d="M162 136.1l5.8 38.2-14-27.3-35.1-78.3z"/></g></g></svg>