<svg xmlns="http://www.w3.org/2000/svg" viewBox="0 0 1200 775"><defs/><filter id="a"><feGaussianBlur stdDeviation="12"/></filter><rect width="100%" height="100%" fill="#344c55"/><g filter="url(#a)"><g fill-opacity=".5" transform="translate(2.3 2.3) scale(4.6875)"><circle r="1" fill="#fff" transform="matrix(-1.03754 -42.45355 254.92391 -6.2302 133 32.8)"/><circle r="1" fill="#7e9392" transform="rotate(-176.4 83.7 55.4) scale(210.25434 57.75862)"/><circle r="1" fill="#d2dac3" transform="matrix(-130.56892 11.3293 -3.36814 -38.81738 193.9 21.7)"/><circle r="1" fill="#adbcb4" transform="matrix(4.5383 10.84252 -84.03728 35.17503 115.4 164)"/><path fill="#3f5b62" d="M34 61h180v15H34z"/><path fill="#f7f6da" d="M20 43l-6 53 39-54z"/><ellipse cx="103" cy="23" fill="#8aa19f" rx="86" ry="16"/><path fill="#e8ecd7" d="M8.1 83.6l-21.7 25.9-2.4-37.9L2.8 37.7z"/><path fill="#3c525d" d="M94 153L-11 87l-5 90z"/><path fill="#e7e6d3" d="M109.7 57.9L271 43.4 85.7 42.3l15.4 25z"/><path fill="#8d9e9a" d="M146.8 97.7l30.5-5.9 5.9 30.5-30.5 5.9z"/><circle r="1" fill="#e6e6cf" transform="matrix(147.34304 3.75245 -.19709 7.73888 89 1)"/><circle r="1" fill="#324852" transform="matrix(86.81271 -45.92916 8.704 16.4518 243.5 153.4)"/><path fill="#26474c" d="M15.9 60l-.2 14.4L2.1 61.7 15.6 52z"/><ellipse cx="74" cy="48" fill="#d6dac8" rx="228" ry="7"/><ellipse cx="188" cy="22" fill="#e0e1cf" rx="83" ry="5"/><path fill="#395560" d="M43 104l23-44-32-4z"/><path fill="#bfc8b8" d="M271 86l-23-55-31 33z"/><ellipse cx="63" cy="65" fill="#4d6a70" rx="3" ry="35"/><path fill="#839a99" d="M55.5 113l-2.8-27 29.8-3 2.8 26.8z"/><circle r="1" fill="#9fafa8" transform="matrix(1.42465 5.24357 -59.6616 16.2097 175.6 140.5)"/><ellipse cx="252" cy="33" fill="#899e9e" rx="255" ry="6"/><path fill="#e9e6d3" d="M194 58l-16.8-5.3-52.3 3.8 35.7 7z"/><ellipse cx="116" cy="91" fill="#6b8285" rx="14" ry="39"/><path fill="#4f6a70" d="M216.4 55.5l3.8 21.6-30.6 5.4-3.8-21.6z"/><path fill="#aabab1" d="M117 121.5l-113.6 18-.4-3 113.6-18z"/><path fill="#243a4a" d="M42 116h50v7H42z"/><path fill="#728c8b" d="M78 11L-7 7l3 22z"/><path fill="#c7cfc4" d="M15 66h16v20H15z"/><path fill="#3e565f" d="M11 111.6l-13.6 56.5L36.9 180 8.3 48.4z"/><path fill="#415864" d="M120 151l36-35L9 139z"/><path fill="#6c7c80" d="M79 10h154v3H79z"/><ellipse cx="240" cy="103" fill="#486067" rx="16" ry="35"/><path fill="#d7dbc9" d="M149 112l33-1-12 6z"/><path fill="#40565f" d="M112 159h57v6h-57z"/><path fill="#e8e7d1" d="M106.6 62.5L104.7 47 96 59.7l5.3 12.8z"/><path fill="#d1d4c5" d="M218 77l42-38h-41z"/><path fill="#5f7a7d" d="M104 73L91 52 44 62z"/><path fill="#8a9d9b" d="M108 94h34v11h-34z"/><path fill="#f0efd6" d="M38.7 45.6l21 .8-.4 12-21-.8z"/><path fill="#c8cfc0" d="M252 66h4v22h-4z"/><path fill="#758c8d" d="M153.5 72l-44.8-10.3 1.8-7.8 44.8 10.4z"/><path fill="#2e4753" d="M123 106h40v4h-40z"/><path fill="#718788" d="M174.4 131.2L66.2 171.7 51 180l-22.1-9z"/><circle r="1" fill="#364c57" transform="matrix(-1.07614 -2.5297 81.08649 -34.49436 193.2 147)"/><circle r="1" fill="#798d8b" transform="matrix(-1.2335 -2.4059 50.29139 -25.78437 214.7 144.8)"/><circle r="1" fill="#3b5460" transform="matrix(6.14224 .96832 -3.45663 21.92601 96.4 97)"/><ellipse cx="197" cy="144" fill="#2d4551" rx="2" ry="27"/><ellipse cx="20" cy="124" fill="#2a414e" rx="45" ry="4"/><path fill="#6f8587" d="M252.7 68l-116.2 64.8 71.4-14.2 3.3-45.9z"/><path fill="#496169" d="M99 71h111v10H99z"/><path fill="#dfdec9" d="M279-6.5l-1 18-95-5 1-18z"/><ellipse cx="92" cy="116" fill="#39515c" rx="36" ry="4"/><path fill="#4b656d" d="M8 50h7v55H8z"/><path fill="#3a525e" d="M180.9 132.9l58.9-20.5-42.7 9-26.9 6.5z"/><ellipse cx="36" cy="82" fill="#637c7f" rx="5" ry="23"/><path fill="#879b98" d="M140 123h27v8h-27z"/><path fill="#c8d0c3" d="M156 12h60v16h-60z"/><path fill="#dfe1cf" d="M64.5 43.6l22.7-4 2.3 12.8-22.7 4z"/><ellipse cy="78" fill="#b6c1b9" rx="9" ry="13"/><path fill="#6c8181" d="M195.1 77l3.7-49.7 1.6 47.9-7.4-20.5z"/><path fill="#6f8485" d="M206.4 137.1l-13.6-7.2 78.2-23.2v5.6z"/><path fill="#7f9391" d="M167 170.6l26.2-14-33.3-11.1 33.9-8.5z"/><ellipse cx="91" cy="15" fill="#819699" rx="32" ry="5"/><path fill="#37545e" d="M62 30h2v25h-2z"/><path fill="#9badaa" d="M42.3 24.6l29.4 18.2 22.2 1.5L141 21.7z"/><circle r="1" fill="#abb7af" transform="matrix(-31.41221 10.44474 -1.1422 -3.43512 166.7 141.4)"/><path fill="#dedfcd" d="M7 42l22 25 11-17z"/><path fill="#3e545f" d="M-16 139l125 3-97 33z"/><path fill="#5a7378" d="M6 89h51v28H6z"/><ellipse cx="136" cy="112" fill="#c0c7b8" rx="29" ry="1"/><path fill="#2e4a56" d="M8 61h10v6H8z"/><ellipse cx="36" cy="26" fill="#cdd7c4" rx="15" ry="2"/><path fill="#91a59f" d="M19 132l-19 7-16-4z"/><ellipse cx="245" cy="36" fill="#718a89" rx="13" ry="3"/><path fill="#5d7378" d="M226 180l7-24-28-3z"/><path fill="#3e545c" d="M234.7 102.5l30.1-.2-28.1 15.1-4.9 45.4z"/><ellipse cx="195" cy="89" fill="#38515b" rx="2" ry="29"/><path fill="#7c908f" d="M93 157l-38 17 80-12z"/><path fill="#405861" d="M122.5 123.8l42.3-7.5.7 4-42.3 7.4z"/><ellipse cx="101" cy="21" fill="#d3d9ca" rx="43" ry="2"/><path fill="#c3cdbe" d="M3.5 65.8l13.3-33.4-2.5 12.2-18.2-3.8z"/><path fill="#c9cfc1" d="M170.6 38.2l22.7-3.2 2.1 14.8-22.7 3.2z"/><path fill="#697f81" d="M163.1 99.2l23.3 15.2-16-33.4-38.9 28.5z"/><circle r="1" fill="#415862" transform="matrix(.45258 1.94572 -140.15662 32.60081 132.8 138.3)"/><path fill="#5b7277" d="M96.9 137.7l-73.1 14.8 77.8-26.5 17.6-39.6z"/><path fill="#384e5a" d="M43 73h8v30h-8z"/><path fill="#7a8f8f" d="M115.3 72.4l22 36.4-4.9-25.7-17.6 13z"/><circle r="1" fill="#a3b1a9" transform="matrix(-.51428 -2.06028 42.78591 -10.68011 132.3 151)"/><circle cx="25" cy="77" r="7" fill="#bec6b9"/><path fill="#60787c" d="M70.7 101.9l-2.1-40.4-3.4-17.6-5.5 7.4z"/><path fill="#edecd6" d="M104 39h30v2h-30z"/><path fill="#8fa19d" d="M101.4 124.4l-.3-2 43.5-6.8.3 2z"/><path fill="#dbdec8" d="M222 32h34v2h-34z"/><path fill="#384e57" d="M279 146.5l-33 19-15-26 33-19z"/><path fill="#5b757a" d="M65.1 56.1l16.4 24-44.8-24.3-5.4 21.6z"/><path fill="#5e767b" d="M41.5 79.4l-18.2 40.4 52.5-3.4L8.3 94.1z"/><path fill="#829797" d="M151 63h25v6h-25z"/><path fill="#364d58" d="M146 85h2v52h-2z"/><circle r="1" fill="#d1d5c8" transform="matrix(-2.5644 8.01645 -14.85177 -4.75097 152.4 53.9)"/></g></g></svg>