<svg xmlns="http://www.w3.org/2000/svg" viewBox="0 0 878 1200"><defs/><filter id="a"><feGaussianBlur stdDeviation="12"/></filter><rect width="100%" height="100%" fill="#4c4c4c"/><g filter="url(#a)"><g fill-opacity=".5" transform="translate(2.3 2.3) scale(4.6875)"><circle cx="105" cy="143" r="182" fill="#fff"/><circle cx="98" cy="136" r="195" fill="#fff"/><circle r="1" fill="#fff" transform="matrix(147.81628 62.0737 -65.78207 156.647 89.3 125.4)"/><circle r="1" fill="#fff" transform="rotate(-178.1 45 63) scale(143.69193 173.03874)"/><path fill="#9f9f9f" d="M90.5 201.7l2.5-12.4 109-1.7-1.5 12.6z"/><circle r="1" fill="#ccc" transform="matrix(16.44142 -58.1534 12.7297 3.599 80.5 142.6)"/><circle r="1" fill="#fff" transform="rotate(-88.2 63 -27.2) scale(53.81227 186.00001)"/><path fill="#d2d2d2" d="M65 91L55 47l41-11z"/><path fill="#fff" d="M204 202v60H-16v-60z"/><path fill="#cecece" d="M11.8 192l.7-10 113.7 8-.7 10z"/><ellipse cx="157" cy="181" fill="#bfbfbf" rx="9" ry="17"/><circle r="1" fill="#fff" transform="rotate(170.7 1.3 57.7) scale(36.7321 58.65068)"/><path fill="#b4b4b4" d="M59 157h14v18H59z"/><path fill="#d8d8d8" d="M63 130l47 21 11-34z"/><path fill="#fff" d="M58.4 74.5L76 71.4l9.5 54.1-17.7 3.1z"/><circle r="1" fill="#eaeaea" transform="rotate(-105.5 112.4 54.2) scale(28.07819 12.29284)"/><circle r="1" fill="#fff" transform="matrix(-15.92222 -2.01515 7.58436 -59.9261 168.9 100.9)"/><path fill="#b1b1b1" d="M63 55h9v16h-9z"/><circle r="1" fill="#c9c9c9" transform="matrix(9.2183 6.78997 -9.12666 12.39068 96 102.6)"/><path fill="#fefefe" d="M102 155h52v32h-52z"/><path fill="#fff" d="M188 237L70 190l-79 74z"/><circle r="1" fill="#fff" transform="rotate(139.6 67.4 37.9) scale(37.82637 91.56826)"/><circle r="1" fill="#fff" transform="matrix(-30.99055 -7.15473 15.08687 -65.34843 36.6 38.8)"/><path fill="#969696" d="M74 125.2l.9.2-4.8 19.4-1-.2z"/><path fill="#b3b3b3" d="M192.4 189.7l-9.4 9.8-68.9-11.1 8.8-.1z"/><path fill="#fff" d="M71 51h6v25h-6z"/><path fill="#a9a9a9" d="M154 166l3 7 9-8z"/><path fill="#fff" d="M128.1 161.2l-9.2-42.8-19.7 3.1 37.6-76.3z"/><path fill="#d6d6d6" d="M160 244l-14-1 7 21z"/><path fill="#f6f6f6" d="M78 155l13 24-3-64z"/><path fill="#bdbdbd" d="M72.5 46.3l3.5-7.2 13.5 6.6-3.5 7.2z"/><circle r="1" fill="#dcdcdc" transform="matrix(5.86584 -68.19655 1.7728 .15248 50.8 135.6)"/><path fill="#fff" d="M103 123H71l2-13z"/><circle cx="83" cy="127" r="3" fill="#a3a3a3"/><path fill="#fff" d="M181 166l-9 21-15-19z"/><path fill="#e4e4e4" d="M70 162h31v41H70z"/><path fill="#e2e2e2" d="M133 70h4v118h-4z"/><path fill="#afafaf" d="M61 157h18v4H61z"/><path fill="#e0e0e0" d="M56 126h7v66h-7z"/><circle r="1" fill="#ebebeb" transform="rotate(-45.1 209.8 -149.6) scale(2.77067 75.93775)"/><path fill="#fff" d="M108.6 153l.7 10-30 2-.6-10z"/><ellipse cx="34" cy="145" fill="#fff" rx="13" ry="39"/><path fill="#f5f5f5" d="M94 101h5v34h-5z"/><ellipse cx="148" cy="153" fill="#e8e8e8" rx="4" ry="37"/><path fill="#c6c6c6" d="M99 132l8-11-14 2z"/><path fill="#f8f8f8" d="M40 193h41v7H40z"/><path fill="#dadada" d="M178 129h4v33h-4z"/><path fill="#fff" d="M185 124h2v76h-2zM65 93h3v65h-3z"/><path fill="#c4c4c4" d="M30 186h11v9H30z"/><path fill="#bababa" d="M72.2 150.7L58.9 166l9.4 7.4 2.1-47.8z"/><circle r="1" fill="#fff" transform="rotate(167.2 73.6 81) scale(14.9128 20.43281)"/><circle cx="115" cy="121" r="3" fill="#a9a9a9"/><path fill="#e6e6e6" d="M68.5 151.8l-2.3 15.1 30.2-6.6-11 20.5z"/><circle r="1" fill="#cacaca" transform="matrix(-.9969 -.07876 2.15596 -27.28758 79 153)"/><path fill="#bababa" d="M106 202l1-12 28-2z"/><path fill="#eaeaea" d="M94 126l-4 25 43 1z"/><path fill="#7d7d7d" d="M75 167l-12 1v-1l12-1z"/><ellipse cx="6" cy="90" fill="#f0f0f0" rx="4" ry="40"/><path fill="#fff" d="M142.4 89.3L98.1 35.8l-37.9 75.3 24.5-22.2zM104 152h27v34h-27z"/><path fill="#b7b7b7" d="M86 113l-4-7 7-12z"/><ellipse cx="156" cy="217" fill="#fff" rx="52" ry="18"/><circle cx="64" cy="69" r="4" fill="#b8b8b8"/><path fill="#b2b2b2" d="M154 167h4v21h-4z"/><path fill="#c7c7c7" d="M164 161h2v21h-2z"/><path fill="#dfdfdf" d="M54 76l14 7-17 6z"/><path fill="#c7c7c7" d="M9 185h10v5H9z"/><ellipse cx="86" cy="190" fill="#d2d2d2" rx="15" ry="4"/><path fill="#fff" d="M111 59l-3 65 19-18z"/><path fill="#e4e4e4" d="M62 152.8l2.3-9.4 2.5-35.7-6.8 6.4z"/><path fill="#fff" d="M138 116h5v70h-5zm18 33l24 38-3-41z"/><path fill="#ededed" d="M88 43l-13-6 28-8z"/><ellipse cx="28" cy="199" fill="#d0d0d0" rx="22" ry="1"/><ellipse cx="98" cy="130" fill="#fff" rx="2" ry="13"/><path fill="#c8c8c8" d="M99 126h3v24h-3z"/><path fill="#fff" d="M0 200h47v35H0z"/><path fill="#fcfcfc" d="M95.7 168.2l-.4 14-9-.4.4-14z"/><path fill="#8c8c8c" d="M64 158h2v11h-2z"/><ellipse cx="179" cy="193" fill="#a4a4a4" rx="4" ry="5"/><path fill="#a4a4a4" d="M67.3 152.6l4.5-7.7.9.5-4.5 7.7z"/><path fill="#e6e6e6" d="M63.9 54l-10.3 4.4.1-9.5 31.9-15.7z"/><path fill="#f7f7f7" d="M157 184l1-12 6 11z"/><path fill="#fff" d="M69 51l10-5 4 12z"/><path fill="#fcfcfc" d="M61.4 123.7l-10.8 74.4 8.2-132.4 4.4 36.6z"/><path fill="#c9c9c9" d="M95.8 123.5l-16-11.4 14.5 2.8-5.6 16.7z"/><path fill="#e7e7e7" d="M138.3 96.4l2-11.5 14.2 87.9-13.8-62.8z"/><path fill="#fff" d="M85 155l-7 30.2-1-.2 7-30.2z"/><path fill="#ccc" d="M182.8 190.6l-74.2 11.1-56.3-18.4 57.3 21.1z"/><path fill="#fdfdfd" d="M63.2 128.3l54.2-9.3-16.3 2.9-29.1-11z"/><path fill="#cbcbcb" d="M61 174h9v18h-9z"/><path fill="#d7d7d7" d="M119 126h2v24h-2z"/><path fill="#ececec" d="M85.9 104.3l3.5-.2 10.3-9.4.4-6.6z"/><path fill="#fff" d="M48 184h5v7h-5z"/><path fill="#ababab" d="M121 149h6v2h-6z"/><path fill="#d9d9d9" d="M172.8 120.7l1-.3 7.4 22.9-1 .3z"/><path fill="silver" d="M80 130h2v20h-2z"/><path fill="#fff" d="M81.6 72.5l-1.8 61.6-11.4-21.5 39.2-48.1z"/><circle r="1" fill="#fff" transform="matrix(56.53543 16.086 -7.8191 27.4808 21 19.8)"/></g></g></svg>