<svg xmlns="http://www.w3.org/2000/svg" viewBox="0 0 1200 900"><defs/><filter id="a"><feGaussianBlur stdDeviation="12"/></filter><rect width="100%" height="100%" fill="#3f5c49"/><g filter="url(#a)"><g fill-opacity=".5" transform="translate(2.3 2.3) scale(4.6875)"><circle cx="185" cy="89" r="219" fill="#ebfae4"/><circle r="1" fill="#5c7a62" transform="matrix(19.88486 45.73205 -35.84536 15.586 0 36)"/><ellipse cx="242" cy="72" fill="#b6c9b8" rx="49" ry="112"/><circle cy="142" r="102" fill="#839c82"/><path fill="#6d8875" d="M57.8 26.7l43.9 34.6.3-28.4-30.3-17z"/><circle cx="182" cy="52" r="53" fill="#a8bba8"/><circle cx="245" cy="163" r="22" fill="#c7d5c9"/><circle r="1" fill="#6f8a6d" transform="matrix(13.26801 .3011 -.64812 28.56027 16 150.4)"/><path fill="#43624e" d="M24 18l-40 48L-6 9z"/><path fill="#6a8775" d="M198.4 51.5l3.1 19.6 21.4-19.7-8-3.7z"/><path fill="#6a8870" d="M209.1 180.7l11.7 7.8-3.9-37.4-12.1-21.4z"/><circle r="1" fill="#d8ddd2" transform="matrix(4.19566 -2.83449 6.06622 8.97932 31.1 180.5)"/><circle r="1" fill="#cbd3ce" transform="rotate(122.8 45.7 28.5) scale(6.73255 16.59505)"/><path fill="#8ea895" d="M272.4 122.4l-45.8 26.5-25-43.3 45.8-26.5z"/><path fill="#5d7a64" d="M123 18h7v49h-7z"/><path fill="#bcd1be" d="M191.9 96.8l23.6-34-9.6-30.7 35 80.6z"/><path fill="#a3b89f" d="M55.6 154.6l.2-75.4-18.9 79.2L-16 29.2z"/><path fill="#698a6e" d="M133.1 167.8l-14.6 8 4.8-60.1 9.4 52.2z"/><path fill="#b5c7b6" d="M95.2 129.7l-.9 23.5L62.8 81l7.2 29.9z"/><ellipse cx="171" cy="50" fill="#759077" rx="3" ry="73"/><path fill="#becec1" d="M19.8 61.5l3.5 7 8.6-19.1-3.2-11.3z"/><path fill="#cedadb" d="M-13-16l26 32-14-32z"/><path fill="#c3d1c5" d="M127 47l17-17 19 23z"/><path fill="#486a5b" d="M43.8 57.9L41.1 76 52 74.1l-2-8z"/><circle r="1" fill="#bac9bc" transform="rotate(-88.6 80.1 -27.4) scale(74.01085 1.6965)"/><ellipse cx="87" cy="58" fill="#aec0ad" rx="3" ry="96"/><path fill="#74927d" d="M242 153h14v10h-14z"/><path fill="#feffff" d="M252 66h4v15h-4z"/><path fill="#68806c" d="M72 8L36 3 78-9z"/><path fill="#c4d4c4" d="M232.3 47.8l-17 5.2 20-32.5 14.8 44.7z"/><path fill="#c4d2c5" d="M40 64.8l-2.9 3L36 105l5.2-11.4z"/><path fill="#bac5b8" d="M41 10h20v19H41z"/><path fill="#7c9882" d="M138 53h9v105h-9z"/><path fill="#b5c6b0" d="M181.9 100.3l-51.3 10-19.1 64.4 1.1-40.3z"/><path fill="#c9d6c5" d="M200.7 5.2L193 46.7l7.9 43-12.4-94.2z"/><circle r="1" fill="#365e40" transform="matrix(2.1526 -.85637 1.79202 4.50446 107 156.1)"/><ellipse cx="94" cy="42" fill="#597869" rx="4" ry="22"/><ellipse cx="62" cy="84" fill="#6f8d78" rx="5" ry="41"/><path fill="#acbaa8" d="M25.8 122.7l-3.2-65.1-7.1 118.5-3.9-23.5z"/><circle r="1" fill="#7d9680" transform="matrix(13.95271 -12.21886 18.45152 21.06978 90 181.4)"/><path fill="#adbeae" d="M68 43h9v67h-9z"/><path fill="#8ba38b" d="M248.4 26.7L236.9 22l-63.3 25.1L249 3.9z"/><path fill="#6a886a" d="M34 177l15-26-3-26z"/><path fill="#d3dfcd" d="M251.5 7l-39.7-22.3 47.9-.7-4.8 73.2z"/><path fill="#bdcdbf" d="M242.2 157.2l-1.5 36.9-42.2-89.9-11.7 15.3z"/><path fill="#6a8276" d="M109 11h7v33h-7z"/><path fill="#64816d" d="M241.2 61.4l-4.3-.8-2.2 4.8-4.3-20.3z"/><path fill="#799486" d="M218.5 81.7l5-.3 4 56.9-5 .3z"/><path fill="#cad2c4" d="M183 11l-5-23-18 16z"/><path fill="#7e9583" d="M185 74.4l3.8 21.3 10.2-6.1-5.9-24.5z"/><path fill="#688664" d="M12.6 146.6l20.9-5.4-5.5 12.7 5.4-37.7z"/><path fill="#546c5e" d="M11 58l10-37 2 32z"/><ellipse cx="56" cy="173" fill="#668370" rx="4" ry="22"/><path fill="#acbcac" d="M84.5 207.6l-5-.3 4-76.9 5 .3z"/><path fill="#b7ccb0" d="M156.4 133.5l13.8-10 9.4 13-13.8 10z"/><path fill="#beceb9" d="M204 150l-8 29 12 4z"/><path fill="#729277" d="M88 100h12v31H88z"/><path fill="#668a6e" d="M80.6 115.7l.1-15.4-7.8 65.2-2.8-43z"/><path fill="#c1d3b8" d="M151.3 174.1l4.6-13.5-15.2 12.2-10.2 9.5z"/><path fill="#486a43" d="M251 107l10 18 10-26z"/><path fill="#d2ddd0" d="M244.3 149l13.9-27.5-7 65 19.8-26.7z"/><path fill="#708569" d="M138 5h6v23h-6z"/><path fill="#6f8f7c" d="M203 102h8v20h-8z"/><path fill="#7e9c7f" d="M171 54h6v101h-6z"/><path fill="#c2c9bd" d="M117.4 152.6l18-6.8-35.3 3.4 1.2 2.9z"/><path fill="#d8dee3" d="M16 9.9L3.4 6 4 4l12.5 4z"/><path fill="#b4c5b2" d="M174.8 37l-3.9 14.9L184.6 82l5-19.5z"/><circle r="1" fill="#77947d" transform="matrix(2.0304 -.21581 1.63419 15.37465 248.4 54.7)"/><path fill="#819889" d="M57 64h58v10H57z"/><path fill="#a4b8a3" d="M-.3 137.8l29-57.7-18.5 26.6-.8-58.4z"/><path fill="#758e7e" d="M183 14h8v21h-8z"/><ellipse cx="151" cy="78" fill="#b0c3b0" rx="3" ry="97"/><path fill="#75896d" d="M30.8 180.4L6.5 190 .8 163.3 25.9 207z"/><path fill="#bcceb9" d="M30.8 163.9l5.2-35 4.4-3.6-3.6 36.7z"/><path fill="#dae4e0" d="M102.7 10.7l-14.1 5.7L107.3-16 95.1 1.4z"/><path fill="#fff" d="M220 43h5v9h-5z"/><circle r="1" fill="#60846a" transform="rotate(-86.9 48.4 30) scale(16.37719 4.74821)"/><path fill="#64806d" d="M153 33h7v11h-7z"/><path fill="#577e6a" d="M188 130h8v11h-8z"/><path fill="#b6c7b5" d="M101 112h3v72h-3z"/><path fill="#cfd6d2" d="M75 67L60 54l17 5z"/><circle r="1" fill="#aab9a9" transform="matrix(-2.37162 -.18235 2.43902 -31.7217 66 156.4)"/><path fill="#4e6c44" d="M170 39V28l7 5z"/><path fill="#6e8d76" d="M46 31h5v81h-5z"/><path fill="#c5d1bc" d="M220.3 17.5l8.9 15.9L223-7.1l-15.8 26.5z"/><path fill="#d3ddd5" d="M145 43l-10 16 1-25z"/><circle cx="247" cy="8" r="3" fill="#415e40"/><path fill="#759276" d="M105.9 96.6l3.6 45.3-27.5 5 23.7-7.9z"/><ellipse cx="120" cy="65" fill="#b2c2b3" rx="2" ry="77"/><circle r="1" fill="#56845e" transform="matrix(5.39814 -8.98401 3.927 2.35959 33 61.4)"/><path fill="#64806c" d="M-11.9 10.8h48.4l-.6 22.4-12.2.6z"/><circle r="1" fill="#bcc9b4" transform="rotate(-39.6 305.5 -70.3) scale(3.06024 13.02759)"/><path fill="#b5ceac" d="M32.3 89.6l-7 .7-1.6-15.9 7-.7z"/><path fill="#748d76" d="M129.5 31.6l-5.3-22.9-1.7 17.6-3.8 53.5z"/><path fill="#5d7074" d="M102-10l2 14-7 4z"/><path fill="#416656" d="M180.3-5.9l5-1L187.6 6l-5 1z"/><path fill="#bac1c0" d="M11 29h8v5h-8z"/><path fill="#728e79" d="M227-14.5L225.5-.7l2 10.6 6.2 10.5z"/><path fill="#7c977f" d="M240 169l-12-7 11 13z"/><ellipse cx="52" cy="133" fill="#b3c4b2" rx="3" ry="30"/></g></g></svg>