<svg xmlns="http://www.w3.org/2000/svg" viewBox="0 0 1200 926"><defs/><filter id="a"><feGaussianBlur stdDeviation="12"/></filter><rect width="100%" height="100%" fill="#444"/><g filter="url(#a)"><g fill-opacity=".5" transform="translate(2.3 2.3) scale(4.6875)"><circle r="1" fill="#fff" transform="matrix(111.74318 -40.83668 18.17975 49.74603 45.3 73.6)"/><circle r="1" transform="matrix(44.36928 -2.94203 16.20232 244.34983 215.9 47.9)"/><path fill="#fff" d="M-54.6 111.9l-7.6-54.5L60.6 40.1l7.6 54.5z"/><ellipse cx="81" cy="139" fill="#777" rx="109" ry="46"/><path fill="#eee" d="M102 13h45v84h-45z"/><path fill="#838383" d="M267.8 78l-4.7 68-29-2 4.8-68z"/><circle r="1" transform="matrix(-10.36681 -60.20186 21.6106 -3.72136 212.5 156.3)"/><ellipse cx="39" cy="31" fill="#a3a3a3" rx="65" ry="20"/><ellipse cx="89" cy="104" fill="#323232" rx="70" ry="7"/><ellipse cx="124" cy="4" rx="255" ry="8"/><circle r="1" fill="#fff" transform="rotate(-98.1 37.7 35.8) scale(33.47396 15.45578)"/><path fill="#1d1d1d" d="M139.2 81.2l26.1-75.6 9.5 3.2-26.1 75.6z"/><path fill="#878787" d="M0 113h187v26H0z"/><path fill="#e2e2e2" d="M118.8 77.6L98.1 30.2l41.6-20.6 24.4 2.9z"/><circle r="1" transform="rotate(83.8 105.4 141.6) scale(59.71042 30.28807)"/><path fill="#7e7e7e" d="M53 37h49v45H53z"/><circle r="1" fill="#171717" transform="rotate(178.5 39.6 77.6) scale(30.32532 5.45028)"/><path fill="#a5a5a5" d="M136 62l23 35-112-1z"/><ellipse cx="121" cy="135" fill="#a1a1a1" rx="8" ry="34"/><ellipse cx="26" cy="193" fill="#6a6a6a" rx="39" ry="65"/><path fill="#0a0a0a" d="M255 134.1l-102.7 41 4.5-34.8 37.6 71.7z"/><ellipse cy="75" fill="#fff" rx="46" ry="25"/><ellipse cx="169" cy="71" fill="#3f3f3f" rx="22" ry="47"/><path d="M182 144h45v26h-45z"/><circle r="1" fill="#050505" transform="matrix(-106.78683 17.3267 -2.27738 -14.03579 255 184.2)"/><path fill="#bcbcbc" d="M68.3 10.8l1.4 82-24 .4-1.4-82z"/><path fill="#7c7c7c" d="M0 12h46v25H0z"/><path fill="#373737" d="M78 143.7l-23.6-36.1 1.1 54.4 33.8-1.2z"/><path fill="#313131" d="M143 98h11v44h-11z"/><path fill="#696969" d="M19.2 114l55.1 1.6L97 110 17.2 96z"/><path fill="#9b9b9b" d="M139 137h14v30h-14z"/><path fill="#a3a3a3" d="M-16 102l27 58 10-54z"/><circle r="1" fill="#d5d5d5" transform="matrix(38.02806 -5.0201 .89127 6.7515 67.6 89.7)"/><path fill="#1f1f1f" d="M99 138.7l15.6 22-5.4-39.5 2.4 9.6z"/><ellipse cx="208" cy="131" rx="17" ry="37"/><path fill="#606060" d="M223.7 126.2L271 95.5l-28.8-6.4-20.5 27.2z"/><path fill="#c2c2c2" d="M71 12h86v20H71z"/><path fill="#616161" d="M243.8 122.3l.2-36.7-10.3 61.3 10.4 31.4z"/><path fill="#9a9a9a" d="M54.1 97.3l-20.5 20.3 20.7 40.2 1-53z"/><circle r="1" fill="#595959" transform="rotate(-179.8 43 33.6) scale(5.74998 13.587)"/><path fill="#545454" d="M164 99l-22-18 13-48z"/><path fill="#3d3d3d" d="M34 167l13-10-19-36z"/><path fill="#818181" d="M155 119h34v24h-34z"/><ellipse cx="124" cy="41" fill="#e5e5e5" rx="17" ry="26"/><path fill="#f3f3f3" d="M76 51h3v28h-3z"/><path fill="#060606" d="M160 11h96v17h-96z"/><ellipse cx="60" cy="49" fill="#d5d5d5" rx="48" ry="2"/><path fill="#353535" d="M207.7 186.5l-7.7-9.6-21.5-14.5-61.4 49.6z"/><path fill="#686868" d="M63.6 37.7l37 .6-.2 10-37-.6z"/><path fill="#929292" d="M134 12l-27 9-12-10z"/><path fill="#131313" d="M153 148h13v21h-13z"/><ellipse cx="101" cy="104" fill="#363636" rx="23" ry="6"/><ellipse cx="248" cy="135" fill="#121212" rx="2" ry="24"/><path fill="#323232" d="M0 6h155v6H0z"/><path fill="#363636" d="M131 156h9v41h-9z"/><circle r="1" fill="#525252" transform="matrix(.23194 9.64057 -58.94875 1.41825 124 176.1)"/><path fill="#3d3d3d" d="M125 130l-5 7 25-2z"/><path fill="#9f9f9f" d="M109 99.7l11.1-20.4L150 52.5l-11 34.8z"/><path fill="#393939" d="M35 113l5-14-17-1z"/><circle r="1" fill="#282828" transform="matrix(35.50794 17.70895 -10.27607 20.60438 191.3 47.2)"/><path fill="#a5a5a5" d="M82 114l-13 5 11 16z"/><path fill="#7d7d7d" d="M253 178h2v19h-2z"/><ellipse cx="92" cy="69" fill="#d0d0d0" rx="2" ry="22"/><circle r="1" fill="#a6a6a6" transform="rotate(-122.9 7 12.8) scale(33.80555 7.33909)"/><path fill="gray" d="M173.4 137.1l8 27.9-6.8 1.9-8-27.9z"/><path fill="#fff" d="M-16 8v93.4l31.7 4.5 2.8-28.2z"/><circle r="1" fill="#010101" transform="rotate(-55.7 280.5 -121.7) scale(15.57194 50.65649)"/><ellipse cx="61" cy="53" fill="#fff" rx="2" ry="13"/><path fill="#b5b5b5" d="M139 12h10v42h-10z"/><ellipse cx="42" cy="188" fill="#626262" rx="39" ry="28"/><path fill="#979797" d="M47 69h24v12H47z"/><circle r="1" fill="#9e9e9e" transform="matrix(-.21207 1.6839 -17.9132 -2.256 99.7 115.8)"/><path fill="#545454" d="M238 170l16-19v-22z"/><ellipse cx="193" cy="100" fill="#080808" rx="39" ry="4"/><path fill="#5a5a5a" d="M95 54h6v19h-6z"/><path fill="#b2b2b2" d="M119 119l3 12 14-22z"/><path fill="#e2e2e2" d="M47 96L12 80l33-37z"/><ellipse cx="99" cy="179" rx="1" ry="23"/><ellipse cx="166" cy="108" fill="#343434" rx="26" ry="8"/><path fill="#6f6f6f" d="M37 135l-53 45 43-66z"/><ellipse cx="82" cy="188" rx="1" ry="37"/><circle r="1" transform="matrix(17.99551 -6.84663 13.89782 36.52867 249.8 26)"/><path fill="#5f5f5f" d="M114.4 130.2l-9.7-5.6 36.7-21.4-24.6-4.5z"/><path fill="#484848" d="M-10 200l54-50-60 26z"/><path fill="#e6e6e6" d="M102 52h18v19h-18z"/><ellipse cx="157" cy="144" fill="#979797" rx="3" ry="5"/><path fill="#696969" d="M81.8 115l-3.4 33.3 13.3 3.1 12.4-9.1z"/><path fill="#6f6f6f" d="M17.6 40.7l10.7-10.2 18.2-10.4L8.9 9.8z"/><path fill="#010101" d="M250.8 176.9l-4.5-49.3-2.8 23 26.7 16.6z"/><path d="M193 98h28v55h-28z"/><path fill="#696969" d="M55 98h16v32H55z"/><path fill="#111" d="M200.4 67l29.8 39.3 17.4-59.8-20.1 5.3z"/><ellipse cx="93" cy="195" fill="#020202" rx="1" ry="44"/><path fill="#b6b6b6" d="M46 114l-12-1 1 20z"/><path fill="#787878" d="M167 94l-29 4 5-15z"/><path fill="#535353" d="M71 54h4v18h-4z"/><path fill="#424242" d="M148.8 49.6l27.5-2.4-22.2 39 43.5-18z"/><path fill="#242424" d="M71.4 140.4l.3 18.5.9 9.5 8.1-27.4z"/><path fill="#e9e9e9" d="M19 97l56-14-54-2z"/><path fill="#909090" d="M117 138h12v30h-12z"/></g></g></svg>