<svg xmlns="http://www.w3.org/2000/svg" viewBox="0 0 1200 444"><defs/><filter id="a"><feGaussianBlur stdDeviation="12"/></filter><rect width="100%" height="100%" fill="#443e44"/><g filter="url(#a)"><g fill-opacity=".5" transform="translate(2.3 2.3) scale(4.6875)"><circle cx="135" cy="23" r="156" fill="#fff"/><circle cx="86" cy="58" r="190" fill="#fff"/><ellipse cx="46" cy="48" fill="#fff" rx="96" ry="93"/><circle cx="252" cy="33" r="71" fill="#fff"/><path fill="#615f62" d="M136 49h50v36h-50z"/><ellipse cx="35" cy="47" fill="#fff" rx="110" ry="74"/><circle r="1" fill="#fff" transform="matrix(-147.5125 -137.60922 24.84057 -26.62826 241.2 34)"/><circle r="1" fill="#fff" transform="rotate(-93.3 150.7 -54.3) scale(8.93742 139.58452)"/><path fill="#fff" d="M182 50l-14-17 13 32z"/><path fill="#767377" d="M177.4 72.7l-19.9-32.1-4.9-3-16.5 48z"/><circle r="1" fill="#fff" transform="matrix(-25.68852 34.51624 -93.57689 -69.64407 228.9 7.7)"/><circle r="1" fill="#fff" transform="rotate(-14.7 99 -78.6) scale(120.90642 35.585)"/><path fill="#373439" d="M157.3 52.2l-.9.5-23.7-42.9.9-.5z"/><path fill="#b7b6b8" d="M96.5 76.2l10.3 12.9 35.3-15-36.6-.1z"/><path fill="#cfcfcf" d="M81 48l-5-27 59 28z"/><path fill="#a7a5a7" d="M163.5 41l-2.2-9.6 13.8-8 23 4.2z"/><path fill="#c0c1c1" d="M64.9 86.1l-16.1-2.4L99.6 47 81.8 65.9z"/><path fill="#fff" d="M212.7 62.5l-32.4-28.4 10.3 43 28.7-4.9z"/><path fill="#5b585a" d="M187.8 87.5L184 48l-6-16.9 2.6 21z"/><ellipse cx="240" cy="93" fill="#fff" rx="143" ry="7"/><path fill="#939297" d="M161.5 5l-33.4 2.9 20.6 29.5-14.9-24z"/><path fill="#9a989d" d="M57 49h44v2H57z"/><ellipse cx="80" cy="89" fill="#9b9ba1" rx="34" ry="1"/><path fill="#928e92" d="M193 86h-28l1-47z"/><path fill="#767579" d="M50.5 83l-22.9 3v-1l22.8-2.8z"/><circle r="1" fill="#fff" transform="matrix(-26.5435 -17.56876 49.10545 -74.19024 7.3 54.2)"/><path fill="#fff" d="M146.4-3.9L94.8 50.6l-7.2-19.8L55.5-16z"/><path fill="#919093" d="M56.7 40.7l3.1 8.2 1.7.2-3.9-15.9z"/><circle r="1" fill="#fff" transform="matrix(65.45499 18.82812 -8.60933 29.9299 215.9 .8)"/><path fill="#abaaab" d="M44.8 54.4l-55.2 28.1-.4-.9 55.2-28.1z"/><path fill="#79787b" d="M81 26l-12-9h6z"/><circle r="1" fill="#aeacae" transform="matrix(-.96262 -.9008 13.6092 -14.5431 108.6 69.3)"/><path fill="#c4c3c4" d="M114 34l6 18-26-17z"/><path fill="#fff" d="M143.2 44.4L127.1 109l19.4-59.8-47.6-8.3zM194-11H-16l98 31z"/><path fill="#cccccb" d="M182 79h52v6h-52z"/><path fill="#767371" d="M196 28h2v11h-2z"/><path fill="#fff" d="M116 43h41v4h-41z"/><ellipse cx="74" cy="88" fill="#9b98a1" rx="18" ry="1"/><path fill="#fff" d="M177 42l5 20-8-7z"/><path fill="#b4b6b7" d="M104 33h42v2h-42z"/><path fill="#333233" d="M155 38.8l23 39.9-1 .5-23-39.9z"/><path fill="#949196" d="M153.4 13.2l15.8 36.5-16.6-42.9-7-4.2z"/><path fill="#fff" d="M56 79l-9-16 41-16z"/><path fill="#b5b4b6" d="M122.4 71.7l-1.7 8 21.4-28.5-21.8 34.1z"/><path fill="#868285" d="M156 89.1l27.3-13.7-10.2-17.7 18.5 23.9z"/><path fill="#5f5a60" d="M85 31h1v16h-1z"/><path fill="#534e50" d="M167 49l1-11 3 14z"/><path fill="#cdcdcf" d="M173.7 73.5l5.2-4.1-18.7-29.1 13.6 28.1z"/><path fill="#bbb9b7" d="M218 75h38v2h-38z"/><path fill="#a39fa1" d="M195.6 44.5L219 64.8l-.6.7L195 45.2z"/><path fill="#fff" d="M84.8 68.4L101 49.3l12.3 10.3L97 78.7z"/><path fill="#bcbabd" d="M103.8 90.3l66.4-5.8-19.1-16.2 10.6 18z"/><path fill="#fff" d="M198.2 43.5l39.3 38.7L271-5.5l-85.3 45.6z"/><ellipse cx="203" cy="93" fill="#fff" rx="22" ry="10"/><path fill="#9a979b" d="M219.6 64.4L231.2 77l-.8.7L218.8 65z"/><path fill="#fff" d="M167.8 37l8.8-1.8 1.6 7.8-8.8 1.8z"/><path fill="#e7e8ea" d="M140 10.8l-1.1 2.2 15 31.2-.7-20.8z"/><path fill="#f7f9f7" d="M187 41.7l-3.6 7.9 3.4 15.9 22.2-8.8z"/><path fill="#fff" d="M121.3 75.2l-6.1 31.5 4.7-20-14.3 1.6z"/><ellipse cx="71" cy="80" fill="#9c9ba3" rx="17" ry="1"/><circle r="1" fill="#6d696c" transform="matrix(-.91894 .3944 -9.85651 -22.96557 158.4 57.8)"/><path fill="#fff" d="M75.6-16l65.1 63.4-29 1.6L140 24z"/><path fill="#86858b" d="M158 5l-14-1 2 6z"/><ellipse cx="180" cy="32" fill="#5e585a" rx="8" ry="1"/><path fill="#fff" d="M186 60l30 14-24 3z"/><path fill="#caccca" d="M30.5 79.9l.6-6-2.4 4.5 29.2-25.2z"/><ellipse cx="199" cy="93" fill="#fff" rx="143" ry="5"/><path fill="#b1b1b1" d="M57 26h3v15h-3z"/><path fill="#fdfffd" d="M84.1 60.8l-17.7 21 39.5-15.4-40 7.9z"/><path fill="#302b2d" d="M178 31h2v8h-2z"/><path fill="#a6a3a8" d="M141 18l-14-7 8-4z"/><path fill="#949394" d="M229 71h2v14h-2z"/><path fill="#837d85" d="M102 78.1l13.2-18.8.8.6-13.2 18.8z"/><path fill="#5f5b61" d="M138 76l1 7h21z"/><path fill="#525052" d="M147 48h17v3h-17z"/><path fill="#958c92" d="M170 46h17v2h-17z"/><path fill="#fbfdfb" d="M172 50l12 16-6-21z"/><path fill="#f8f9f8" d="M198.1 101l39.4-6.4-54.6-9.3-3.9-11.4z"/><ellipse cx="5" cy="80" fill="#fff" rx="29" ry="6"/><ellipse cx="191" cy="78" fill="#8d888b" rx="17" ry="1"/><path fill="#acabad" d="M155.7 40.7l7 25.6-45.9-33.5 56 40.8z"/><path fill="#646063" d="M149.9 50.2l31.7 34.6-8.2-11.6-14.5-10.9z"/><path fill="#cbcbc9" d="M230.8 52.2l25 16.8-.6.8-25-16.8z"/><path fill="#fcfffe" d="M176.4 75.8l-3.7-9.2.9-.4 3.7 9.2z"/><path fill="#cecdcc" d="M239.5 48.5l-.1 1-56.9-4 .1-1z"/><path fill="#fff" d="M254.1 92.7L225 70.3l16.3 2.4-36.4 36.3z"/><path fill="#c2c4c3" d="M73 16l-10 9h-8z"/><path fill="#7a777a" d="M189.2 90.9l-16.8-26.4 13.6 9.6-6.9-43.1z"/><path fill="#c7c7c7" d="M73.5 69.4l23-20.7-27.6 20.5L50.3 88z"/><path fill="#a4a1a3" d="M137 47h2v29h-2z"/><circle cx="16" cy="21" r="42" fill="#fff"/><path fill="#7e7c81" d="M114.6 45l-6-11.5.8-.5 6 11.5z"/><path fill="#716b70" d="M170 80h12v6h-12z"/><path fill="#fff" d="M140 69l5-22-7 10zm18.2-27l4.5-2.2 3 6.2-4.4 2.2z"/><ellipse cx="82" cy="41" fill="#878184" rx="1" ry="6"/><path fill="#939295" d="M112 78l-11 8 7-1z"/><path fill="#a5a2a6" d="M144 71l-19 5 31 2z"/><path fill="#fff" d="M92 42h57v3H92z"/></g></g></svg>