<svg xmlns="http://www.w3.org/2000/svg" viewBox="0 0 1200 950"><defs/><filter id="a"><feGaussianBlur stdDeviation="12"/></filter><rect width="100%" height="100%" fill="#444"/><g filter="url(#a)"><g fill-opacity=".5" transform="translate(2.3 2.3) scale(4.6875)"><circle r="1" fill="#f1f1f1" transform="rotate(-156.3 77.3 36.3) scale(210.33806 61.48763)"/><circle r="1" fill="#fff" transform="matrix(54.50886 39.14997 -14.57976 20.29954 125.7 71.7)"/><circle r="1" transform="rotate(-49 194.6 69.6) scale(31.27355 121.16045)"/><circle r="1" fill="#323232" transform="matrix(.37297 15.60935 -59.9629 1.43274 126.7 142.7)"/><path fill="#161616" d="M220 153h36v49h-36z"/><ellipse cx="201" cy="150" fill="#f7f7f7" rx="15" ry="74"/><circle r="1" fill="#949494" transform="matrix(.37344 29.63597 -74.95375 .94448 159.8 176)"/><path fill="#373737" d="M51 0h20v143H51z"/><path fill="#fff" d="M38 67l4 46-58-60z"/><path fill="#707070" d="M261.5 104.8L76.6 18.6 88.5-6.8l184.9 86.2z"/><path d="M121 108h13v45h-13z"/><circle r="1" transform="matrix(22.675 -19.1949 51.65526 61.0205 28.4 189)"/><path fill="#c5c5c5" d="M92 79h30v62H92z"/><path d="M234 164l-35-11 26-6z"/><circle r="1" fill="#080808" transform="matrix(-.70018 2.98435 -41.87848 -9.82547 9 40.7)"/><ellipse cx="203" cy="129" fill="#fff" rx="15" ry="20"/><path fill="#2a2a2a" d="M150 76h36v7h-36z"/><ellipse cx="86" cy="110" fill="#111" rx="27" ry="3"/><ellipse cx="112" cy="59" fill="#f8f8f8" rx="43" ry="15"/><path fill="#282828" d="M127 42L78-9 30-3z"/><path fill="#d7d7d7" d="M-10.7 93l16.8-2.7 4.6 28.7-16.8 2.7z"/><path fill="#fff" d="M77 77h11v31H77z"/><path fill="#101010" d="M205-12.3l38.5-21.3L279 30.3l-38.4 21.3z"/><path fill="#2b2b2b" d="M74.5 88v60h-9V88z"/><path fill="#111" d="M158 136l-11.4-17.2 3.9 25.7 46.7 6.3z"/><circle r="1" fill="#8b8b8b" transform="matrix(-10.80002 5.29865 -10.14156 -20.67113 26 106.1)"/><ellipse cx="183" cy="113" fill="#1f1f1f" rx="3" ry="42"/><path fill="#fff" d="M-20.5 58.4l59.4 8.4-2.4 16.8-59.4-8.4z"/><circle r="1" fill="#949494" transform="rotate(-151.9 121.3 12.4) scale(40.20409 17.60148)"/><path fill="#666" d="M232 28L67 9l105 54z"/><path fill="#0b0b0b" d="M99.2 151.1l-13-26.4-3.7 7.6-.8 18.4z"/><path fill="#dfdfdf" d="M167 79h13v60h-13z"/><path d="M14 44l4 10-18-3z"/><path fill="#e8e8e8" d="M70 24l67 57 51-14z"/><circle r="1" fill="#7a7a7a" transform="matrix(5.47641 -.3897 1.80898 25.4211 154 109.1)"/><path fill="#a3a3a3" d="M137 150h52v41h-52z"/><path fill="#ececec" d="M139 86h9v47h-9z"/><ellipse cx="53" cy="59" fill="#8b8b8b" rx="13" ry="49"/><circle r="1" fill="#212121" transform="matrix(15.12737 -36.35 12.42078 5.16901 255 188.2)"/><path fill="#aeaeae" d="M43.2 5.8l-2.9 7.4-49.5-19 2.9-7.4z"/><path fill="#0a0a0a" d="M-4.5 46.2l47.4 14.7-2.3-15.5-6.7 14.2z"/><ellipse cx="68" cy="39" fill="#101010" rx="2" ry="59"/><path fill="#fff" d="M22 46l-7 5 26 2z"/><path fill="#0a0a0a" d="M1 150l4-31 45 12z"/><path d="M0 163h67v39H0z"/><path fill="#5f5f5f" d="M34 146l19 30 24-86z"/><path fill="#606060" d="M141 148l-87 4 71 65z"/><path fill="#0a0a0a" d="M97-16l70 50-34-43z"/><circle r="1" fill="#2c2c2c" transform="rotate(98.8 16.8 82.2) scale(1.3424 21.24694)"/><ellipse cx="253" cy="142" fill="#959595" rx="33" ry="18"/><circle r="1" fill="#d2d2d2" transform="matrix(16.9524 16.44005 -10.63254 10.9639 205.5 102.2)"/><path fill="#e7e7e7" d="M93.7 26.9l48.7 25.5-72.5-10.3.3-20.3z"/><path fill="#cacaca" d="M227 162l-22 23-51-35z"/><path fill="#fff" d="M111 81l2 22-25-24z"/><path d="M183.9 76l-35.7 5v-1l35.6-5z"/><path fill="#404040" d="M157 124h20v5h-20z"/><path fill="#888" d="M179.7 216.5l58.9-51.3-26.5-6.7 16.7 42.7z"/><ellipse cx="150" cy="121" fill="#090909" rx="2" ry="22"/><path fill="#747474" d="M86 89h19v21H86z"/><path fill="#e7e7e7" d="M35 86h7v41h-7z"/><path fill="#2e2e2e" d="M113 79h3v27h-3z"/><path fill="#fff" d="M161 92h16v28h-16z"/><circle r="1" fill="#282828" transform="matrix(39.04263 16.01255 -.75878 1.85009 82.4 21.1)"/><path fill="#505050" d="M125 93l2-8 11-7z"/><path fill="#fff" d="M206.2 151.3l-19.9-42.2 8.4 1.5 25.5 11.6z"/><ellipse cx="16" cy="94" fill="#8d8d8d" rx="19" ry="13"/><path fill="#1a1a1a" d="M74 74h2v36h-2z"/><path fill="#232323" d="M144.5 19.1L204 62.2l-2.1-5.8-41.1-30.3z"/><path fill="#262626" d="M220.2 151.2l43.9 16.9-60.8-12.8 11-10.1z"/><path fill="#343434" d="M48.4 127.8l5.7 63.3 1.8-78.7L40 121z"/><path fill="#cfcfcf" d="M176.1 92.8l-64.8 21.1 38.3-55.3-9.7 37z"/><path fill="#9e9e9e" d="M149 81h32v12h-32z"/><path fill="#212121" d="M121.5 135.8l-2-27 9-.6 2 27z"/><path fill="#fff" d="M9.1 41.6L-16 43l.8 2.9 19.5 2.2z"/><circle r="1" fill="#fff" transform="matrix(3.7855 6.23036 -4.04165 2.45566 80.9 82.7)"/><circle r="1" transform="rotate(-114.4 113.6 -69.1) scale(45.40839 4.28867)"/><circle r="1" fill="#303030" transform="matrix(-15.27504 -3.68193 .43902 -1.82132 30.2 56.8)"/><path fill="#828282" d="M175 194l-26-44-72 5z"/><path fill="#292929" d="M117 139h32v11h-32z"/><circle r="1" fill="#494949" transform="matrix(8.32378 -33.13834 10.96048 2.75308 121.4 201)"/><path fill="#4c4c4c" d="M241 38h28l-39-54z"/><path fill="#727272" d="M48 146l-23-12 8 20z"/><path fill="#292929" d="M15.4 86.9l9.7 25.2L5 126.4l14.7-22.3z"/><path fill="#a0a0a0" d="M135.4 97l11.1 32.4-3.8 12.8-13.7-17.4z"/><path fill="#dadada" d="M71 44h25v28H71z"/><path fill="#b1b1b1" d="M216 103h23v46h-23z"/><ellipse cx="112" cy="125" fill="#cdcdcd" rx="8" ry="15"/><path fill="#999" d="M2.9 147.7l-9-49.4L19.4 89 3 119.2z"/><path fill="#696969" d="M238.4 50.8l31.1 20 1.5 21.5-79.5-35.7z"/><ellipse cx="67" cy="118" rx="1" ry="30"/><path fill="#868686" d="M27.4 128.5l-12.2-22.9 30.7 21.6L55.1 99z"/><path fill="#363636" d="M88 74h2v43h-2z"/><circle r="1" fill="#4b4b4b" transform="rotate(-173 42 -.3) scale(25.72868 12.7585)"/><path fill="#767676" d="M81.4 140.5l-24.6 6.7-5.1 8.7 28-9z"/><path fill="#ebebeb" d="M117 46h7v61h-7z"/><path fill="#a8a8a8" d="M64 17h2v95h-2z"/><circle r="1" fill="#787878" transform="rotate(-54 122.5 -133.3) scale(9.97772 40.69126)"/><path fill="#171717" d="M159 124h5v19h-5z"/><path fill="#060606" d="M75.5 154.4l-6-48.7h1l6 48.6z"/><path fill="#151515" d="M14.1 106.6l-27.7 59.5 128-17.5L32 156z"/></g></g></svg>