<svg xmlns="http://www.w3.org/2000/svg" viewBox="0 0 1200 900"><defs/><filter id="a"><feGaussianBlur stdDeviation="12"/></filter><rect width="100%" height="100%" fill="#404c2c"/><g filter="url(#a)"><g fill-opacity=".5" transform="translate(2.3 2.3) scale(4.6875)"><circle cx="145" cy="87" r="176" fill="#3b2c4b"/><circle r="1" fill="#141210" transform="matrix(-26.50008 197.59456 -36.23257 -4.85927 0 134.4)"/><circle cx="215" cy="69" r="112" fill="#4e4c4e"/><path fill="#c2bec1" d="M219.3 122.4l-10.9-25.8-20.3-30.2 12.2 29.7z"/><path fill="#767270" d="M117 150.3l-23.6 13.1L77 133.7l23.6-13.1z"/><path fill="#0f0c0b" d="M107 126L67 40l-33 1z"/><path fill="#c9bebe" d="M127 96l17 12 5 18z"/><path d="M151 131.7l2.7 6.4-35.1-32.6L101.5 70z"/><path fill="#a29997" d="M93.9 83.8l43.3 49.8-3 2.6-43.4-49.8z"/><path fill="#918f91" d="M154.5 207l-22.8-47-38.5-37-.5-1.6z"/><path fill="#acabb4" d="M270.6 19.2L214.5-1.6 237 9l34 37.6z"/><path fill="#070605" d="M146.5 101.3l-30-48.3 50.7 52.8 5.1 18.5z"/><path d="M204 60L179 3l21 25z"/><path fill="#a09b9f" d="M179-6l25 22 5 27z"/><path fill="#7f7f84" d="M212.2 87.2l-17.9-21.4 36.3 35.4 40.4 87.7z"/><path fill="#a6a5a8" d="M189 117.5l4.8-3.7 27.1 34.7-4.7 3.7z"/><path d="M185.1 160.2l-29.6-14.7 19.5 35.4-19.2-62.6z"/><path fill="#959193" d="M208.5 73.2l-20.1-4.1-34.6-45.9L220.6 99z"/><path fill="#aba1a5" d="M176.3 36.6l-17-22.4L192 37 163.3 4.2z"/><path d="M188.7-16l7.2 25.5 35.6 35.2-4-11.8z"/><path fill="#080705" d="M74 113l5 40-54-82z"/><path fill="#181413" d="M99.7 14.3L170.5 61l-107-43.1L96 56.6z"/><path d="M203.3 89.5l-3.1-16.9 34.6 52.8-13.9-14.1z"/><path fill="#999192" d="M148.9 54.3l58 43.1-30.4-31.8 8 25.8z"/><path fill="#635d59" d="M40.8 44.9l20.1 42.7 34.9 45-67.6-63.1z"/><path d="M95.3 137.4l4.1-2.9 25.3 36-4.1 3z"/><path fill="#63615e" d="M102.8 198.5L17.3 79.7l23 64.3 9.6-34.3z"/><path fill="#8e8282" d="M128.4 28.1l.2-44.1 15.3 52.3 6.8 6.2z"/><path fill="#8f8887" d="M172.9 113.5L120.1 50l38.4 38.5L187 111z"/><path d="M167.6 71.2l-17.2-4.4-18.3-28 75.3 84.5z"/><path fill="#8e8d91" d="M173 102.4l27 22.1 54.5 72.5-21.3-37.4z"/><path d="M205 103l5 26 24 22z"/><path fill="#1c1d1c" d="M242.9 182.4l-28.3-35.2-45.3-48.9 28.6 48z"/><circle r="1" transform="matrix(2.47402 -2.06478 17.9927 21.55882 182.6 49.6)"/><path fill="#080907" d="M51.4 151.1l-12.5-19.7 38.9 33 2 26.6z"/><path fill="#040301" d="M97.2 102L57.9 62.8l61.2 84.4-.7-7z"/><path fill="#79787f" d="M215 19l50 29-22-30z"/><path fill="#080808" d="M104.5 81.3l78.9 90.6 8.7 35.1-44.3-72z"/><path fill="#151718" d="M203 69l68 30v31z"/><path fill="#6c6663" d="M96.4 79.9L48.3 15.3l64.4 91.6-71.1-64z"/><circle r="1" transform="matrix(2.86909 -1.8323 21.6058 33.83124 203.1 169)"/><path fill="#6d6c6d" d="M182.1 207l-55.6-79.2 58.3 52.3-37.1-14.9z"/><path d="M256 165l-39-34 19 30z"/><path fill="#767472" d="M95.9 207h29.3l-58.7-24.8-44-59.4z"/><circle r="1" transform="rotate(-133.3 89.3 41.2) scale(52.51828 1.34314)"/><path d="M83-6L71 1l41 29z"/><path fill="#7c7372" d="M99.5-15.9l24.8 78.5-40.7-39.8L134.8 69z"/><path fill="#818388" d="M220.1 120l31.7 39.6-27.7-24.7 1 12.4z"/><path fill="#040403" d="M41 72.4L18 54.2l-7.7-6.4L-16-16z"/><circle r="1" fill="#a5a4a6" transform="rotate(36.7 -142.8 369.4) scale(23.07612 1)"/><circle r="1" fill="#9fa1a6" transform="matrix(11.37191 19.30568 -1.27723 .75234 229.6 187)"/><path d="M180.3 207l9.8-.2-42.6-21.6-18.2-28.7z"/><path fill="#c7bbc1" d="M147.3-1.7L177.5 33l-.8.7L146.5-1z"/><path fill="#848588" d="M208.6 183.1l-35.8-27.3 27.5 27.6 21.9 23.6z"/><path fill="#9c9aa1" d="M238.8 89.2l-46.2-33.5.6-.9 46.2 33.5z"/><path d="M42.7-11.3l43.7 52-3 2.6-43.8-52z"/><circle r="1" fill="#252423" transform="rotate(66.3 -129.7 121) scale(63.61862 30.65586)"/><circle r="1" fill="#a19fa1" transform="matrix(20.06048 27.62608 -.80917 .58757 111.3 165.3)"/><path d="M268.2 69l-32.1-34.1-29.7-17 16.8 12.4z"/><path fill="#8f8887" d="M121.7 107.6l13.6 17L95.7 87l.9-.2z"/><path fill="#0e0f10" d="M271 172.7l-55-62.9.7 3 3.5 9.6z"/><path d="M159 85.2l.4-8.1.7-.5 27.8 34.4z"/><path fill="#9e9798" d="M133 90.7l1.4-1.4 34.7 36-1.5 1.4z"/><circle r="1" fill="#968a8a" transform="matrix(.7693 -.63888 18.1434 21.84719 113 73.7)"/><path d="M144 28l19 9 5 17z"/><path fill="#acaaac" d="M192.5 228.2l-47.9-73.8.9-.6 47.9 73.8z"/><path d="M209.5 78.6l-7-30.3 4-.9 7 30.3z"/><path fill="#130f0e" d="M126.3 73l10.2 24.3.6 8.1-32.2-50.1z"/><path fill="#998f8d" d="M39.4-1.6l34 50.6-.8.6L38.6-1z"/><circle r="1" transform="matrix(-18.21113 -19.56039 3.19002 -2.96998 177.5 7.3)"/><path d="M211 33l2 18 11 8z"/><path fill="#161513" d="M50.6 97.2l-9.8-23.9 4.5 50.5-53.6-82.3z"/><circle r="1" fill="#939192" transform="rotate(-118.2 123 29.7) scale(33.85909 1)"/><path d="M229.3 182.3l22.3 24.7.6-7.5-31.1-32.5z"/><path fill="#8d8b92" d="M271 81.7l-7.1-7.7-44.2-36.5-2.1 2.7z"/><circle r="1" fill="#757575" transform="rotate(138.5 40.5 110.7) scale(1 49.24388)"/><path d="M66.5 135.4l8.7 13.4 24.2 29.1L81 145.7zm88.4 33.1l-3.7 3.3-20-22.3 3.6-3.3z"/><circle r="1" fill="#b8b0b4" transform="matrix(.46727 -.88411 16.2623 8.595 187.7 64.6)"/><path fill="#817978" d="M120 79l-2 16 32 21z"/><path fill="#8d8a86" d="M97 128.7l-9-47.2 1-.2 9 47.2z"/><path fill="#6c6a66" d="M42 106.4l15.4 9.4-2.5-48.7 9.8 78.4z"/><path fill="#b1a7aa" d="M203.1 97.3l-.6.8-53.6-43.4.6-.8z"/><path fill="#060503" d="M126 54l-19-25-5 10z"/><path fill="#aaa3a5" d="M107.7 162.1l-32.3-51.7.9-.5 32.3 51.7z"/><path fill="#161412" d="M138 105.8l-14.1-12.7-22.5-28.3 4.4.7z"/><path fill="#bab8bb" d="M212.2 108.8l1-.4 14.6 32.8-1 .4z"/><path fill="#827f7f" d="M135.5 206.9L65.1 121l13.3 13.8 11.6 9.9z"/><path fill="#030102" d="M35.3 36.4L58 77.1l-5.4-49.6 12.8 19.2z"/><path fill="#716867" d="M66.2 24L36.6-13.1l33 48.9 42.2 34.4z"/><path fill="#8a8488" d="M197 33l-11 6-8-17z"/><path d="M121.9 60.7l28.6 24.2 8.6 10.3-19.6-11.3z"/><path fill="#929297" d="M229.2 171.4l-.6.8-37.8-29.6.6-.8z"/><path fill="#0f0b0a" d="M86 33l-6 16 16 30z"/><path fill="#aba9a9" d="M201.8 119l-14.5-29.6 1-.4 14.4 29.6z"/><circle r="1" transform="matrix(32.4481 58.05973 -.87292 .48786 115 161.9)"/><circle r="1" transform="matrix(2.31595 -1.80292 15.18354 19.50411 71 118.7)"/><path fill="#979699" d="M209.1 51.4l54.4 42.4-.6.8-54.4-42.4z"/><path fill="#040303" d="M144.2 46l1.6 13.9L112 15.5l7.5 5.7z"/><path fill="#abaab0" d="M231.6 28l.7-.6 34.1 36.5-.7.7z"/></g></g></svg>