<svg xmlns="http://www.w3.org/2000/svg" viewBox="0 0 1200 679"><defs/><filter id="a"><feGaussianBlur stdDeviation="12"/></filter><rect width="100%" height="100%" fill="#205278"/><g filter="url(#a)"><g fill-opacity=".5" transform="translate(2.3 2.3) scale(4.6875)"><circle cx="169" cy="45" r="200" fill="#fff"/><circle cx="119" cy="92" r="174" fill="#fff"/><circle cx="148" cy="49" r="176" fill="#fff"/><ellipse cx="141" cy="76" fill="#fff" rx="178" ry="143"/><path fill="#c8d1da" d="M63 52l97 28 4-29z"/><circle cx="182" cy="105" r="223" fill="#fff"/><circle r="1" fill="#d5dee4" transform="matrix(55.57331 20.447 -7.81742 21.24712 118 52)"/><circle r="1" fill="#fff" transform="matrix(2.09191 -254.99142 50.19245 .41177 224.7 82.2)"/><path fill="#bcc1ce" d="M125.9 74.4l46.9-6.8 6.6 7.3-23.6-19.7z"/><ellipse cx="90" cy="136" fill="#fff" rx="100" ry="69"/><path fill="#c5dce7" d="M26 58l43-26-30 8z"/><circle r="1" fill="#fff" transform="matrix(11.9242 35.03145 -92.99613 31.65456 34.1 4.3)"/><path fill="#adc7dd" d="M110.2 12.4l48.2 46.5-.6.7-48.2-46.5z"/><ellipse cx="180" cy="38" fill="#fff" rx="36" ry="22"/><path fill="#9ebddb" d="M110.5 65.7l-.5-.9 35.5-20.5.5.9z"/><path fill="#dbedf1" d="M45 40L20 83l7-36z"/><path fill="#eef3f3" d="M83 13h44v44H83z"/><circle r="1" fill="#cfd2d7" transform="rotate(-63.2 128 -86.5) scale(4.22974 22.5638)"/><circle r="1" fill="#bacde2" transform="matrix(30.72648 -13.4753 .73434 1.67444 102.2 42.8)"/><path fill="#dddfe1" d="M161 15l5-28-13 23z"/><circle r="1" fill="#dddfdf" transform="matrix(1.4514 -2.2744 11.6772 7.45174 255 51.6)"/><path fill="#a2c5e8" d="M97.7 62.7l-.3 1-27.1-10.4.3-1z"/><ellipse cx="8" cy="82" fill="#fff" rx="13" ry="143"/><circle r="1" fill="#a0c8e3" transform="rotate(159.5 30.4 22.7) scale(21.27572 1)"/><path fill="#fffffe" d="M93.5 34.4l28.2-44.6-44.1 43.7 44.9 20.3z"/><path fill="#fff" d="M46 42l44 39-58-28z"/><circle r="1" fill="#fff" transform="matrix(-100.83934 54.47156 -15.85417 -29.3497 226.3 114.9)"/><path fill="#e4e9ec" d="M149.1 63.5L182.4 94l-42.2-20.4-54.7 32.1z"/><path fill="#fafaf7" d="M104 65l20-13-35-2z"/><path fill="#a5b8cf" d="M160 62.2l.4.9-20.3 12.7-.5-.9z"/><path fill="#fff" d="M133.5 1.8l8.2 45 25.8-1.6 42 9.1z"/><path fill="#dbdfe3" d="M114 8l6 6-21 20z"/><path fill="#bfc0cd" d="M121.4 64.2l15 8-1.8 3.6-15-8z"/><path fill="#c6e0ee" d="M71.2 30.3L91 29.1l-4.8-11.4-4.7 6.6z"/><path fill="#a9c0d5" d="M123.2 30.4l18.2 12.3-.6.9-18.2-12.3z"/><circle r="1" fill="#fff" transform="matrix(48.37332 -34.64572 15.78843 22.04424 216.4 27.6)"/><path fill="#f6f7f6" d="M184 104l27-25-69-4z"/><circle r="1" fill="#fff" transform="rotate(-106.9 27.2 -20.2) scale(33.07714 40.58844)"/><path fill="#c6cbd2" d="M114 45h16l-8 5z"/><path fill="#add5ea" d="M31 64l-9 5 6-9z"/><path fill="#eff4f2" d="M74.2 88.1l27.9 18.3-10.5-13.2-66.4-38z"/><path fill="#c8c8ca" d="M166.2 63.8l14.1 9.5-.5.9-14.1-9.5z"/><path fill="#f2f3f3" d="M191.6 84.7l-20.5-32.8 7.2 37.1-24.9-30.5z"/><path fill="#fff" d="M109 86l12-16-34-10z"/><ellipse cx="32" cy="141" fill="#fff" rx="35" ry="69"/><circle cx="128" cy="63" r="4" fill="#fffffe"/><circle r="1" fill="#fff" transform="matrix(28.36368 11.11234 -17.95883 45.83899 3.3 32.4)"/><path fill="#fbfcfb" d="M117 11h73v13h-73z"/><path fill="#eff2f1" d="M111.4 35.4L-1 85.4l-.4-.8 112.4-50z"/><path fill="#f6f9f8" d="M132 41l-14.4 7.1-3.5-7.2 14.3-7z"/><path fill="#fff" d="M100.4-16l91.8 12.2-82.2 11-24.8 23.1z"/><path fill="#b9d6e9" d="M75.7 28.3L86.6 24 63.3 36.1 23.4 50.6z"/><path fill="#a3b5cb" d="M156 55l2 9-7-13z"/><path fill="#ecf3fb" d="M134 77.3l-1.2-1.7 13.3-8.9 1 1.7z"/><path fill="#f7f8f5" d="M72 50l-37-3 31-12z"/><path fill="#f2f4f2" d="M194 133h29v6h-29z"/><path fill="#c3e0ef" d="M30.9 53.4l6.2-7.9 2.8-3.1-10.7 5.2z"/><path fill="#86b0de" d="M113.9 62.2l-.5-1 10.7-5.4.5 1z"/><path fill="#bebfcd" d="M153 63.8l-12 5-2-4.6 12-5z"/><circle r="1" fill="#f2f3f1" transform="rotate(144.8 55 82.1) scale(34.33792 1)"/><circle r="1" fill="#e3e4e4" transform="matrix(4.25785 .06096 -.02855 1.99398 69.4 135.9)"/><path fill="#bdcfdd" d="M95 59l8 1-3 4z"/><path fill="#bccfe3" d="M81 54.9l-12.2.8 59.1-24.5-37.1 16.2z"/><path fill="#fff" d="M271-2L144-16l90 68z"/><circle r="1" fill="#fff" transform="matrix(-44.65854 25.26659 -15.36958 -27.16565 240.6 98.7)"/><circle r="1" fill="#b8d9ed" transform="matrix(-1.60993 -.63417 1.3615 -3.45637 85.9 21.7)"/><path fill="#bfc1c8" d="M131.4 60.5l1.5-4.8 5.7 1.8-1.5 4.8z"/><path fill="#f2f4f3" d="M223 58l-5 15 33-25z"/><path fill="#c2c6d0" d="M115 10l1 7-3 2z"/><path fill="#e8edee" d="M66.6 82.3L97 66.8l.5 1L67 83.1z"/><path fill="#aac7e6" d="M103 40.3l17.5-7.5.4 1-17.4 7.4z"/><path fill="#f6f7f4" d="M145.6 57.4l-16.3-2.5 15.8-4.2 4.2 1.3z"/><path fill="#f6f8f8" d="M120 30l43-23 22 12z"/><path fill="#e7eced" d="M119 30l-16-17 27 14z"/><path fill="#d6d6dc" d="M155 4h5v7h-5z"/><circle r="1" fill="#c8cacd" transform="rotate(165.5 75.6 46.8) scale(2.39094 3.75218)"/><path fill="#f0f2f1" d="M196.2 89.9l10.3 7.2-41-10.7 18.5 14.5z"/><path fill="#e6eaec" d="M131.2 79.6l-49.6 25.7 88.2-52.7-20.6 17.2z"/><path fill="#fefffd" d="M126.5 56.6L77 30.3l.5-.9L127 55.7z"/><path fill="#e2e4e8" d="M108.6 27.3l-21.1 3.1 1.6.3 16.7 8.6z"/><path fill="#d2d3d5" d="M241.8 43l.5-.8 26 18.8-.6.8z"/><circle cx="108" cy="64" r="2" fill="#a2bfdd"/><circle r="1" fill="#f9fbf9" transform="matrix(-.49107 -.87112 72.31253 -40.76442 137.3 46)"/><circle cx="248" cy="47" r="1" fill="#9398a3"/><path fill="#b1bbca" d="M161.4 62.9l.1 1-8.9 1.2-.1-1z"/><path fill="#fafbf9" d="M152 46.3L53 98.9 119.7 67l-3.2-4.5z"/><path fill="#f0f5f5" d="M45.1 43.4l20.3 14 52.5-23.8-43.3 13.1z"/><path fill="#c1c4cc" d="M71 41.7l3.5 2-1.5 2.6-3.5-2z"/><path fill="#f3f5f4" d="M173.3 13.6l-1 3.9-41.6-11.1 1-3.9z"/><path fill="#fefefe" d="M57.6 23.6L118.2 11 77.6 33.4 121.8-10z"/><path fill="#b0cae0" d="M45.4 42l8.6-6.8.6.8-8.6 6.8z"/><path fill="#ebefee" d="M28 70l9-10 13 7z"/><path fill="#f4f7f5" d="M186 54l19-3 17 7z"/><path fill="#f3f7f5" d="M-3 80.5l84.4 34-.4 1-84.4-34z"/><path fill="#eef1f0" d="M127.9 141.2L203.5 82l.6.7-75.6 59.1z"/><circle cx="133" cy="70" r="2" fill="#abaeb9"/><path fill="#9cbad6" d="M114.9 61.6l-7.1 5.6-.7-.8 7.1-5.6z"/><path fill="#fff" d="M167 59.5L142.7 9.1l69.5 66.8-17 6.1z"/><circle cx="129" cy="59" r="2" fill="#bbbdc1"/><path fill="#fff" d="M100.6 99.1l32.3 10.1 28.6-31.3-3.2-1.8z"/></g></g></svg>