<svg xmlns="http://www.w3.org/2000/svg" viewBox="0 0 1200 825"><defs/><filter id="prefix__a"><feGaussianBlur stdDeviation="12"/></filter><rect width="100%" height="100%" fill="#3e5152"/><g filter="url(#prefix__a)"><g transform="translate(2.3 2.3) scale(4.6875)"><ellipse cx="120" cy="101" fill="#fff" fill-opacity=".5" rx="150" ry="175"/><circle r="1" fill="#fff" fill-opacity=".5" transform="rotate(-162.6 41.8 17.6) scale(88.99691 198.45963)"/><circle r="1" fill="#006761" fill-opacity=".5" transform="matrix(20.42327 8.16873 -68.51403 171.29729 187 66.9)"/><circle r="1" fill="#fff" fill-opacity=".5" transform="rotate(23 -199.7 631) scale(43.74442 137.69463)"/><circle cx="53" cy="40" r="112" fill="#fff" fill-opacity=".5"/><circle r="1" fill="#008582" fill-opacity=".5" transform="matrix(19.70793 6.29517 -36.12494 113.09432 181.2 75)"/><circle r="1" fill="#005154" fill-opacity=".5" transform="rotate(157.9 -5.3 89.8) scale(24.96826 8.02796)"/><circle r="1" fill="#008687" fill-opacity=".5" transform="matrix(-21.82184 -5.49978 10.64264 -42.22754 145.7 169)"/><path fill="#feffff" fill-opacity=".5" d="M244.3-14.3L199.6 93l48-56.1-2.8-19.7z"/><circle r="1" fill="#008581" fill-opacity=".5" transform="matrix(20.79487 8.7764 -38.97815 92.35514 197.3 39)"/><path fill="#008d83" fill-opacity=".5" d="M245 0h11v23h-11z"/><path fill="#fff" fill-opacity=".5" d="M148 44.9l14-46 20 6.2-14 46z"/><path fill="#fb0000" fill-opacity=".5" d="M232 120h14v7h-14z"/><path fill="#fffefd" fill-opacity=".5" d="M110 191L185-3l-67 36z"/><circle r="1" fill="#008481" fill-opacity=".5" transform="matrix(21.49627 -95.14398 20.15168 4.55295 195 37.8)"/><ellipse cx="27" cy="175" fill="#007677" fill-opacity=".5" rx="17" ry="11"/><path fill="#fff" fill-opacity=".5" d="M163.9 191l24.7-35.3 49.6-140.5-82 175.8z"/><circle r="1" fill="#008686" fill-opacity=".5" transform="matrix(27.94322 -52.333 8.29043 4.42668 134.6 160.4)"/><path fill="#00827e" fill-opacity=".5" d="M240 12l-66 37 14-65z"/><ellipse cx="66" cy="154" fill="#e0dddb" fill-opacity=".5" rx="27" ry="31"/><circle r="1" fill="#fff" fill-opacity=".5" transform="matrix(-14.4701 78.01967 -7.74256 -1.436 12.8 115.8)"/><path fill="#fff" fill-opacity=".5" d="M149 109h4v9h-4zm88.3 19.5l-4.1 25.9 11.7 3.8 26.1-18.3z"/><path fill="#fdfefd" fill-opacity=".5" d="M157.2 104.1l-31.9-1.1 32-44-7.4 59.3z"/><path fill="#f0f1f0" fill-opacity=".5" d="M135.7 137.1L107.8 191l-.2-164.7 36.7 96.1z"/><circle r="1" fill="#008585" fill-opacity=".5" transform="matrix(35.30975 -29.8853 6.99172 8.26078 148.3 155.4)"/><path fill="#d7421f" fill-opacity=".5" d="M71.1 148.7l3-4.4 7 4.6 2.3-.5z"/><path fill="#00908b" fill-opacity=".5" d="M244.4 22.3l23.1 2.4L271 8.2 245.7-4.7z"/><circle r="1" fill="#cdcecc" fill-opacity=".5" transform="matrix(-17.54557 5.56578 -7.24905 -22.85189 144 0)"/><path fill="#008284" fill-opacity=".5" d="M23.7 166.5l22.7 7.1-1.8 15-59.3-2.2z"/><path fill="#dddedd" fill-opacity=".5" d="M23 81h88v64H23z"/><path fill="#767473" fill-opacity=".5" d="M216 169h40v2h-40z"/><path fill="#e8fbf8" fill-opacity=".5" d="M264.2 2.2l-32.9-14.7 10 29.7L246.2.7z"/><path fill="#fafbfa" fill-opacity=".5" d="M41.8 144.3l.9 12.4 43.5-24.4-42.5 41.3z"/><circle r="1" fill="#008582" fill-opacity=".5" transform="matrix(-46.42202 100.00767 -14.74146 -6.84276 202.4 37.6)"/><path fill="#fefcfc" fill-opacity=".5" d="M20.4 83.6L-13-13.8l22.7-7.8L43 75.8z"/><path fill="#008584" fill-opacity=".5" d="M159 111.7l26 10-24 62.6-26-10z"/><circle r="1" fill="#f2f5f4" fill-opacity=".5" transform="matrix(14.82555 -27.8828 4.05125 2.15409 225.8 42.6)"/><circle r="1" fill="#e7e7e6" fill-opacity=".5" transform="matrix(11.33387 17.18872 -27.73675 18.28902 3 153.9)"/><path fill="#008385" fill-opacity=".5" d="M43.7 191l-1.9-27-16.8.5-28.7 17.7z"/><path fill="#008582" fill-opacity=".5" d="M219.6-10.4L154.9 92.8 233.3 16l6.6-.8z"/><path fill="#fff" fill-opacity=".5" d="M122 12l-40-1-2-22z"/><path fill="#339996" fill-opacity=".5" d="M144.7 107.9l59.2-28.2-61.4 30L122 99.1z"/><path fill="#008583" fill-opacity=".5" d="M197.9 98.7l27.2-75.1-68 66 3.7 90.7z"/><path fill="#bfc1c1" fill-opacity=".5" d="M30.6 85.3l-4.9-4-1.3 32.6 7.5 6.6z"/><path fill="#008585" fill-opacity=".5" d="M163.5 145.6l-25.8 53-25.2-12.2 25.8-53z"/><path fill="#fff" fill-opacity=".5" d="M219 108h14v8h-14z"/><path fill="#f3f4f2" fill-opacity=".5" d="M37 128l54-7-57-38z"/><path fill="#007d78" fill-opacity=".5" d="M245 5h11v18h-11z"/><path fill="#8f8e8e" fill-opacity=".5" d="M75 168h30v3H75z"/><path fill="#efeeee" fill-opacity=".5" d="M89.9 170.8l21.8-33.6 18.4 12-21.8 33.6z"/><path fill="#ced0cf" fill-opacity=".5" d="M35.1 137.3l-21.3 12.9.4 20 38.4-24.1z"/><path fill="#c8c7c5" fill-opacity=".5" d="M206.5 111.6l-27.9 58.2 1.8 1.6 58.3-35.6z"/><ellipse cx="147" cy="133" fill="#008685" fill-opacity=".5" rx="2" ry="29"/><path fill="#008682" fill-opacity=".5" d="M165.7 52.5l49-65.3 13.8 43.2-26.1 8.1z"/><path fill="#ced0ce" fill-opacity=".5" d="M22 32h22v12H22z"/><path fill="#fff" fill-opacity=".5" d="M37.8 30.5L45.1-16l3.2 13.5 4.2 37z"/><path fill="#e7e8e7" fill-opacity=".5" d="M160.6 76.2l3.1-92.2-30.2 95.7 17.2-12.8z"/><path fill="#fff" fill-opacity=".5" d="M177 156l-24 35 17-8z"/><ellipse cy="104" fill="#f7f6f5" fill-opacity=".5" rx="11" ry="73"/><ellipse cx="63" cy="92" fill="#cccecc" fill-opacity=".5" rx="11" ry="12"/><path fill="#f03900" fill-opacity=".5" d="M239.3 118.1l4.8 7.7-3.4 2-4.8-7.6z"/><path fill="#d6d9d8" fill-opacity=".5" d="M13 155l-19-31h24z"/><path fill="#fffffe" fill-opacity=".5" d="M81.3 107.1l-7.9 5.5 3.9-29.3 9.1-1.6z"/><path fill="#ebebea" fill-opacity=".5" d="M191 142h13l-7 41z"/><path fill="none" stroke="#e9f4f1" stroke-opacity=".5" stroke-width=".5" d="M230.2 20q-23 45.2-15.8 78.6"/><path fill="#fdffff" fill-opacity=".5" d="M157.5 83l-25.2 56.7-1.8-.8 25.2-56.6z"/><path fill="#f7f7f5" fill-opacity=".5" d="M236 14h9v11h-9z"/><circle r="1" fill="#f2f9f7" fill-opacity=".5" transform="matrix(5.9671 -25.0483 2.57032 .61231 179.9 5)"/><path fill="#dbdad8" fill-opacity=".5" d="M271 99.8V10.7l-37 28.9-38.2 73.1z"/><path fill="#cfd1cf" fill-opacity=".5" d="M107.2 80.3l1.5 22-22 1.4-1.4-22z"/><path fill="#cdcecd" fill-opacity=".5" d="M83.8-16l-8.3 31.3-10.6.1L60.2-16z"/><path fill="#d4d6d5" fill-opacity=".5" d="M128 123H91l-24 50z"/><path fill="#007773" fill-opacity=".5" d="M181-16l-34 8 26 9z"/><circle r="1" fill="#008380" fill-opacity=".5" transform="matrix(28.73129 -4.20482 .66 4.5097 210.6 16.2)"/><path fill="#fff" fill-opacity=".5" d="M51 151h15v8H51z"/><path fill="#008685" fill-opacity=".5" d="M176 136l-31-20-14 58z"/><path fill="#f1f2f1" fill-opacity=".5" d="M190.2 141.4l41.6-117.5-34.8 76.2-7.9 17.6z"/><path fill="#008584" fill-opacity=".5" d="M156.9 91.3l31.3-94.8-15 87.5-30.3 30.3z"/><path fill="#e61c00" fill-opacity=".5" d="M77.2 144.7l-3.7 3.4-.7-.8 3.7-3.4z"/><path fill="#fff" fill-opacity=".5" d="M46.8 173.2l-5.7-1.7 2-6.7 5.8 1.7z"/><path fill="#d0d0cf" fill-opacity=".5" d="M21.7-.6l11.6-3.1 5 18.3-11.6 3.1z"/><circle r="1" fill="#008787" fill-opacity=".5" transform="matrix(-19.65262 -1.87177 2.94684 -30.94027 146.8 161.6)"/><path fill="#8d8e8d" fill-opacity=".5" d="M77 169h30v2H77z"/><path fill="#fff" fill-opacity=".5" d="M236 129l24 13-25 2z"/><path fill="#e5e3e1" fill-opacity=".5" d="M200.2 161.3l63.5 29.7-59.5-15.6 27.2-14.6z"/><path fill="#d1d4d1" fill-opacity=".5" d="M234 128l37-10v15z"/><path fill="#fff" fill-opacity=".5" d="M84 120h49v3H84z"/><path fill="#fcfefd" fill-opacity=".5" d="M135.9 116l8.6 3-33.1 63.1 19.3-55.8z"/><path fill="#008581" fill-opacity=".5" d="M240-15l-30 77-31-74z"/><ellipse cx="234" cy="87" fill="#c5c7c6" fill-opacity=".5" rx="19" ry="8"/><path fill="#bfc0bf" fill-opacity=".5" d="M187 153l19.9 10.7 44.9 27.3-52.3-26.5z"/><circle r="1" fill="#e4e4e2" fill-opacity=".5" transform="matrix(-3.50272 .92064 -9.49116 -36.11051 255 171.6)"/><path fill="#f8f7f7" fill-opacity=".5" d="M117 22h18v88h-18z"/><circle cx="235" cy="122" r="4" fill="#f14006" fill-opacity=".5"/><circle cx="103" cy="56" r="10" fill="#fdfcfb" fill-opacity=".5"/><path fill="#f5f6f6" fill-opacity=".5" d="M237 78l10 4-6-15z"/><path fill="#fff" fill-opacity=".5" d="M0 122h79v3H0z"/><path fill="#008384" fill-opacity=".5" d="M31 164h11v12H31z"/><path fill="#fffbfa" fill-opacity=".5" d="M248.4-6.1l2 2.3-14.8 12-2-2.4z"/></g></g></svg>