<svg xmlns="http://www.w3.org/2000/svg" viewBox="0 0 1200 900"><defs/><filter id="a"><feGaussianBlur stdDeviation="12"/></filter><rect width="100%" height="100%" fill="#333a4d"/><g filter="url(#a)"><g fill-opacity=".5" transform="translate(2.3 2.3) scale(4.6875)"><circle r="1" fill="#fff" transform="matrix(-173.17544 28.10521 -9.36266 -57.68977 116.7 24.8)"/><circle r="1" fill="#fff" transform="matrix(-136.3546 2.85622 -.81039 -38.68762 138.4 17.4)"/><circle r="1" fill="#c4c36e" transform="matrix(-252.79585 -6.0185 1.05289 -44.22461 126.1 154.9)"/><path fill="#5a6a05" d="M124 46h132v88H124z"/><path fill="#fff" d="M1-16L271 5 32 87z"/><path fill="#3c4e00" d="M28.2 106.6l-28.6 6.3L-16 54.5 2.7 10.4z"/><ellipse cx="238" cy="17" fill="#fff" rx="233" ry="30"/><circle r="1" fill="#8c8da5" transform="matrix(-6.2856 19.50267 -103.07646 -33.221 157.8 148.7)"/><path fill="#fff" d="M52 76h71v12H52z"/><path fill="#26330e" d="M23.1 57l21.8-1.8-9-22.6L-16 134.9z"/><path fill="#000502" d="M92 65h24v12H92z"/><circle r="1" fill="#394120" transform="matrix(-21.01571 -7.0511 11.72199 -34.93724 168.5 78.1)"/><path fill="#dde4e8" d="M141 39h7v51h-7z"/><circle r="1" fill="#11171b" transform="matrix(2.55735 -7.68769 5.17053 1.72 70.4 71)"/><circle r="1" fill="#81912e" transform="matrix(3.33786 -16.3676 56.06783 11.43397 245.3 64.9)"/><path fill="#2a2c32" d="M123 56h18v60h-18z"/><circle r="1" fill="#868d23" transform="rotate(-118.4 50.1 84) scale(32.22035 64.20617)"/><ellipse cx="240" cy="122" fill="#677421" rx="80" ry="24"/><ellipse cx="50" cy="120" fill="#9a9ba6" rx="87" ry="8"/><ellipse cx="79" cy="166" fill="#645c47" rx="52" ry="23"/><path fill="#fff" d="M182.8 54.4l7.5-70.4L271 20.2l-75.3 30.2z"/><path fill="#02001e" d="M176 86h74v12h-74z"/><ellipse cx="81" cy="100" fill="#24220c" rx="53" ry="10"/><path fill="#101f0b" d="M0 74h24v12H0z"/><path fill="#809032" d="M134 82l55 1-71 21z"/><path fill="#fff" d="M251-16l-6 70-52-67z"/><path fill="#403f45" d="M68 56.2l-8 1.4-2-11.8 7.8-1.4z"/><circle r="1" fill="#6b7264" transform="rotate(95.5 54 94.3) scale(6.41374 14.60025)"/><path fill="#585f61" d="M65.6 55.2l13.5.3.4-6.9 13.8 10.1z"/><path fill="#fffffd" d="M201-16L9 35l120 20z"/><path fill="#46472b" d="M259 151l-86-18.3 2-9.7 86 18.3z"/><path fill="#e6e9ee" d="M15 60h107v5H15z"/><path fill="#3e4f0d" d="M241.6 70.8l-70.4 15-4.8-22.6 70.4-15z"/><path fill="#1b2606" d="M130 94h40v20h-40z"/><path fill="#889c27" d="M253.2 157.2l17.8-56.6-51.9 2.4 12.1 5.1z"/><ellipse cx="219" cy="173" fill="#7d7f85" rx="52" ry="24"/><path fill="#e0e3eb" d="M51 76h72v11H51z"/><path fill="#fffffd" d="M271 29l-45-45-10 65z"/><path fill="#849482" d="M16.6 12L-16 2.7l38.8 30.4L-16 18.2z"/><path fill="#455034" d="M45 54l-22 4 15-22z"/><path fill="#fff" d="M7 32l18 18 7-31z"/><path fill="#21213d" d="M147 53h19v19h-19z"/><path fill="#636a42" d="M0 87h65v6H0z"/><path fill="#909291" d="M164.2 132.6l-65.9 9.7-114.3-33 127.5 6.4z"/><ellipse cx="215" cy="85" fill="#aab198" rx="92" ry="1"/><path fill="#99a29c" d="M239.7 75l26-1.9.6 10-26 1.8z"/><path fill="#bac1ba" d="M13.4 65.9l-2.9-19.1 18.2 3.8 3.1 31.3z"/><path fill="#86892f" d="M66 206l140-6-65-31z"/><path fill="#f1f3f9" d="M82.4 65.9l-8.7 12 16.6-1.6.5-5.6z"/><path fill="#808d20" d="M171.5 69.7l5.2-20.3 55.4 29.3-24-36.8z"/><path fill="#fdfdfb" d="M46.4-16l218.1 57.4L28.6 16.5l-33.9 7.4z"/><path fill="#65752c" d="M250.9 58.3l-7.2-19.1 27.3 8.9-31.5 50.5z"/><path fill="#fafaf8" d="M116 30h7v46h-7z"/><path fill="#90a727" d="M173 100h32v5h-32z"/><path fill="#222241" d="M124 58h16v26h-16z"/><path fill="#dfe4ff" d="M141 60h5v25h-5z"/><ellipse cx="17" cy="144" fill="#889136" rx="66" ry="18"/><path fill="#85992d" d="M147 118h83v10h-83z"/><path fill="#1f271e" d="M234 83.5l-60 1v-8l60-1z"/><ellipse cx="91" cy="56" fill="#636a6e" rx="51" ry="1"/><path fill="#80817f" d="M160.3 137.1L114 162.6 271 204l-43.8-63.8z"/><circle r="1" fill="#d9dbe4" transform="matrix(6.41749 1.74667 -4.04809 14.87316 31.7 71.9)"/><path fill="#515a2d" d="M-1 112h38l-53-85z"/><ellipse cx="59" cy="89" fill="#87928b" rx="61" ry="1"/><path fill="#575c4c" d="M129 117l7-55-24 49z"/><ellipse cx="62" cy="100" fill="#84909f" rx="2" ry="11"/><path fill="#fffef6" d="M200 51l-16-1 1-59z"/><path fill="#fdfffd" d="M-16 3.5L7.8 1.1l68.5 55.7L66.1-16z"/><path fill="#222b1a" d="M23 81.8l-2.4-1.2 2.7-19.8.8-6z"/><path fill="#8f9c24" d="M177.9 50.4l-16.4 16.1 29.9-6.8 19.3-6.7z"/><path fill="#323b2b" d="M270.4 84.7l-5.7 21.3-25.1-6.7 5.7-21.3z"/><path fill="#becaa1" d="M146.9 46.3l5.4-7.2 8.8 6.6-5.4 7.2z"/><path fill="#525328" d="M225.1 146.9l13.8-22.1 5.3 3.8 9.3 26.5z"/><ellipse cx="168" cy="120" fill="#708424" rx="26" ry="11"/><path fill="#fdfefb" d="M39 43l13-59 4 70z"/><path fill="#443f65" d="M160.7 49.9l22.8-7.5 1.8 5.7-22.8 7.5z"/><ellipse cx="184" cy="12" fill="#fcfcf8" rx="84" ry="32"/><path fill="#6c7b61" d="M14.3 1.4L-16 11.1l34 18.3-34-2.6z"/><path fill="#191e26" d="M77 66.4l-1.1 7L65 71.5l1.1-7z"/><path fill="#faf9f6" d="M135 55l25-71-97 65z"/><path fill="#48590e" d="M168 89l-28-3-14 17z"/><path fill="#9ea999" d="M10.8 48.9l13.1.2L9.6 64.6l13.3 14.7z"/><path fill="#232729" d="M91 64h10v11H91z"/><path fill="#727243" d="M19 159.3l125.4-8L54.2 138l-7.7 69z"/><path fill="#dfe4ec" d="M250 75h6v4h-6z"/><path fill="#4e5c40" d="M10.4 9.4L.6 19.3l6.2 39.9-19.5-41.6z"/><path fill="#cfd1d6" d="M80.5 83.4l-63.3 5 53.6-31.6-44.7 1.1z"/><path fill="#515056" d="M81.5 108.3L18.4 113l72.3.6 43.4-1.8z"/><circle cx="82" cy="55" r="4" fill="#33383f"/><path fill="#333d15" d="M180 111l48 2-14-10z"/><path fill="#54513c" d="M42 82h6v12h-6z"/><path fill="#23331e" d="M7 68h7v23H7z"/><path fill="#9dae18" d="M173 84l-22-1-5 7z"/><path fill="#fbfffb" d="M17 58h4v14h-4z"/><path fill="#dadce3" d="M36 57h64v8H36z"/><path fill="#1c1f1d" d="M27 91h98v8H27z"/><path fill="#888686" d="M4 112l-20 21 59-28z"/><path fill="#d7dbdd" d="M143.1 86.8L146 55l3 .3-3 31.7z"/><circle r="1" fill="#87834c" transform="rotate(104.1 -58.5 107.8) scale(14.60999 87.89963)"/><path fill="#fafde9" d="M244 34l2 15-5 4z"/></g></g></svg>