<svg xmlns="http://www.w3.org/2000/svg" viewBox="0 0 1200 219"><defs/><filter id="a"><feGaussianBlur stdDeviation="12"/></filter><rect width="100%" height="100%" fill="#464646"/><g filter="url(#a)"><g fill-opacity=".5" transform="translate(2.3 2.3) scale(4.6875)"><circle cx="148" cy="8" r="152" fill="#fff"/><circle cx="141" cy="16" r="143" fill="#fff"/><circle cx="44" cy="13" r="135" fill="#fff"/><circle r="1" fill="#fff" transform="rotate(88.8 107.2 144.6) scale(67.71153 8.51455)"/><circle r="1" fill="#fff" transform="matrix(1.6411 19.63053 -123.75694 10.34604 39.4 0)"/><path fill="#999992" d="M70.7 40.7l-.4-7 45-2.4.4 7z"/><ellipse cx="205" cy="7" fill="#7b7c7a" rx="29" ry="3"/><ellipse cx="233" cy="27" fill="#fffffd" rx="255" ry="4"/><path fill="#7f817f" d="M179 18h58v5h-58z"/><path fill="#fff" d="M209.2 38.6l-27 22.4-15.1-77-14.8 63.2z"/><ellipse cx="103" cy="21" fill="#bab9b0" rx="78" ry="3"/><circle r="1" fill="#fff" transform="rotate(-9.9 268 -81.6) scale(15.39086 95.62607)"/><ellipse cx="249" cy="23" fill="#fff" rx="8" ry="45"/><ellipse cx="138" fill="#fff" rx="244" ry="5"/><ellipse cx="88" fill="#fff" rx="7" ry="45"/><path fill="#85857f" d="M154 36l-15 3 9-10z"/><path fill="#8a8b8a" d="M205.1 31.9l-.2 7-22-.8.2-7z"/><ellipse cx="135" cy="23" fill="#fffff8" rx="8" ry="25"/><path fill="#fffffa" d="M93 11h140v6H93z"/><path fill="#8b8d85" d="M144 4h14v7h-14z"/><path fill="#a5a6a1" d="M210.6 34.1l1.3 10.2 22.4-7.8 4.5-6.1z"/><path fill="#9a9b9a" d="M92 32h28v7H92z"/><path fill="#919292" d="M101.4 23.2L115 25l15.8-6.4-32.9 2.2z"/><path fill="#fff" d="M67 0h7v46h-7zm151.7 51l-.4-11 27-1 .4 11z"/><path fill="#5e605e" d="M62 31h3v10h-3z"/><circle r="1" fill="#fff" transform="rotate(-162.7 83 10.4) scale(9.22888 42.87722)"/><path fill="#fff" d="M85.6 43.1l-5.4-25.3-92.9-11.3L116.7-3.6z"/><path fill="#a0a198" d="M30 19h8v14h-8z"/><path fill="#fffffa" d="M9 33h52v13H9z"/><path fill="#60625d" d="M128.4 10l-6 1-.8-5 6-1z"/><path fill="#fff" d="M-16 5L7 43l30-17z"/><path fill="#191919" d="M1 37l-4 24-13-38z"/><path fill="#fffffd" d="M150 40h59v5h-59z"/><path fill="#7c7d7f" d="M76.2 31.2l8.8 1.7-1.2 5.9-8.8-1.7z"/><path fill="#90928f" d="M161 17h-17l4 6z"/><path fill="#b4b6ac" d="M92 43h28v3H92z"/><circle cx="77" cy="22" r="3" fill="#717173"/><ellipse cx="113" cy="22" fill="#a5a5a3" rx="15" ry="3"/><path fill="#fff" d="M206 33h14v2h-14z"/><path fill="#7c7e76" d="M43 30h9v3h-9z"/><path fill="#f8f9ec" d="M97 15h3v31h-3z"/><path fill="#7c7d7d" d="M52 23l-10-5 2 4z"/><path fill="#fff" d="M261.6 43.7l-20-.4.8-45 20 .4z"/><ellipse cx="182" cy="27" fill="#fffff2" rx="55" ry="4"/><path fill="#fffff2" d="M116 45l28-52-3 45z"/><path fill="#8b8a8c" d="M233 32l-10 5 14 1z"/><path fill="#fffff6" d="M58.7 8.1l-6.2 28.8-4.3-42.7-12 32.6z"/><path fill="#b6b8b6" d="M243 32.8l-5 1-5-28.6 5-1z"/><path fill="#a4a5a0" d="M175 4h16v6h-16z"/><path fill="#818081" d="M210 36h7v8h-7z"/><ellipse cx="171" cy="2" fill="#fffff5" rx="79" ry="2"/><circle cx="65" cy="21" r="3" fill="#8c8e8c"/><path fill="#fff" d="M157 14l13-30 8 77zm-173-1l134.3-29 1.7 39.6 5.7-9.1z"/><circle r="1" fill="#878986" transform="matrix(1.02966 -1.48065 2.79474 1.9435 125 19.9)"/><ellipse cx="150" cy="6" fill="#fffffb" rx="1" ry="18"/><path fill="#9f9f9d" d="M175 19h33v5h-33z"/><path fill="#d2d5d0" d="M217 5h6v19h-6z"/><ellipse cx="89" cy="45" fill="#d8d9d5" rx="188" ry="1"/><path fill="#88888a" d="M31 19h7v6h-7z"/><path fill="#767776" d="M141.4 34.7l-.4-1 7.6-2.4.4 1z"/><path fill="#8d8e8d" d="M223 5h11v5h-11z"/><circle r="1" fill="#fffdee" transform="matrix(-3.99738 -.18755 .98506 -20.99553 70.2 30.2)"/><path fill="#fffffb" d="M59 6h4v22h-4z"/><path fill="#fefcef" d="M69 39h93v4H69z"/><ellipse cx="112" cy="45" fill="#fefff5" rx="1" ry="30"/><ellipse cx="196" cy="45" fill="#d5d5d0" rx="2" ry="42"/><path fill="#acafae" d="M220 18l5-14.3 1 .4-5 14.2z"/><path fill="#f5f5ef" d="M105.6 61h.6l.9-21.4-2.5-53.7z"/><circle cx="47" cy="22" r="4" fill="#999a97"/><path fill="#727671" d="M56.2 24l.7-8h1l-.8 8z"/><path fill="#faf9e9" d="M29 25h62v5H29z"/><path fill="#bbbfbb" d="M182 8h4v17h-4z"/><path fill="#fffffd" d="M220 41h36v4h-36z"/><circle r="1" fill="#e9e9df" transform="matrix(2.83258 .63835 -4.49573 19.94912 205 37.2)"/><path fill="#959696" d="M151.8 39.7l-7 .5-.6-8 7-.4z"/><path fill="#a1a29c" d="M126 43h5v3h-5z"/><path fill="#989997" d="M99 19h7v6h-7z"/><path fill="#fffffd" d="M155.8 23h-1l-.6-30h1z"/><path fill="#efefe6" d="M165.3 4.7h-49.2L152.5-8l-6.2-5z"/><ellipse cx="60" cy="31" fill="#a6a9a0" rx="4" ry="2"/><circle r="1" fill="#fff" transform="matrix(-25.3924 1.9427 -2.4097 -31.49645 7.7 6.7)"/><path fill="#fffff3" d="M55 12l-9 45 11-18z"/><path fill="#adafb1" d="M197.7 21.3l-1 .2-2.4-16.8 1-.2z"/><path fill="#f3f3e7" d="M25 14h136v3H25z"/><path fill="#f9f8f0" d="M135.9 31.1l15.9.8.9 7.6L165.6 24z"/><ellipse cx="41" cy="4" fill="#fffff8" rx="3" ry="38"/><path fill="#b1b2aa" d="M145 42h4v4h-4z"/><path fill="#fffff5" d="M123 35l-3-14 26 19z"/><path fill="#767876" d="M30.3 30.8l4.8-1.5.6 1.9-4.8 1.5z"/><path fill="#fff" d="M242 3h14v42h-14z"/><path fill="#a0a1a0" d="M177 33h16v6h-16z"/><path fill="#919190" d="M224 18h9v6h-9z"/><path fill="#fdfcf3" d="M133.8 39.7l61.5.7 21.2 4.1-70.5-1z"/><path fill="#fffff3" d="M177 4h1v20h-1zm24 7h19v6h-19z"/><path fill="#fdfff1" d="M206 33h16v3h-16z"/><path fill="#c3c6c3" d="M209.9 4l-.8 14h-3l.8-14z"/><path fill="#fcfbef" d="M177 24h60v7h-60z"/></g></g></svg>