<svg xmlns="http://www.w3.org/2000/svg" viewBox="0 0 1200 900"><defs/><filter id="a"><feGaussianBlur stdDeviation="12"/></filter><rect width="100%" height="100%" fill="#2a3a47"/><g filter="url(#a)"><g fill-opacity=".5" transform="translate(2.3 2.3) scale(4.6875)"><circle cx="152" cy="88" r="186" fill="#fff"/><ellipse cx="123" cy="95" rx="52" ry="45"/><ellipse cx="119" cy="25" fill="#fff" rx="255" ry="32"/><circle r="1" fill="#e2ffcc" transform="matrix(.55985 -37.3286 147.35799 2.21004 109.9 181.2)"/><circle r="1" transform="matrix(18.78979 -32.172 46.7458 27.3015 122.7 95.1)"/><circle r="1" fill="#fff" transform="matrix(159.41576 -33.24692 5.75905 27.6141 127 21.3)"/><circle r="1" fill="#003e03" transform="matrix(0 51.69348 -15.99542 0 252.7 113.7)"/><circle r="1" fill="#fff" transform="matrix(-1.95016 70.42406 -17.10868 -.47377 1.2 92)"/><path fill="#16201c" d="M74 58h99v79H74z"/><path fill="#fff" d="M212 67l4-83L24 24z"/><circle r="1" fill="#f4fcfa" transform="matrix(-2.75503 -10.1959 30.84005 -8.33327 110.9 145.9)"/><path fill="#357057" d="M220 43.3l6.8-33.8 24.6 32.2-31.3 1.5z"/><circle r="1" fill="#7b8064" transform="matrix(-36.51858 -5.71945 4.6325 -29.5784 211.8 134.2)"/><ellipse cx="70" cy="82" fill="#fff" rx="3" ry="66"/><path fill="#48aacb" d="M45 18.7l-22.6 5.1-38.4-7.6L29.7-16z"/><circle r="1" fill="#47493f" transform="matrix(.845 11.7884 -35.74668 2.56235 126.7 64)"/><path fill="#fff" d="M174 75h4v60h-4z"/><circle r="1" fill="#cefcc2" transform="matrix(1.82469 18.91045 -122.53747 11.82376 180 181.5)"/><ellipse cx="44" cy="146" fill="#6e6b68" rx="27" ry="9"/><path fill="#fff" d="M43 0h164v51H43z"/><ellipse cx="5" cy="89" fill="#fff" rx="9" ry="47"/><circle r="1" fill="#82dc75" transform="matrix(-5.28163 17.38388 -33.2481 -10.10154 24.7 186)"/><ellipse cx="36" cy="94" fill="#9b9079" rx="23" ry="43"/><path fill="#343227" d="M174 119l-4 21-42 1z"/><path fill="#7d756a" d="M199 69l35 91-4-91z"/><path fill="#335e41" d="M237 52l34 47-34 65z"/><ellipse cx="125" cy="58" fill="#5d6052" rx="40" ry="6"/><path fill="#fff" d="M173 41h54v20h-54zm85 1l1-51-43-7z"/><ellipse cx="44" cy="70" fill="#111411" rx="20" ry="2"/><path fill="#314750" d="M229.1 47.3l4.5-20.5 3.5-.5 9.4 12.5z"/><path fill="#cab195" d="M216.3 77.5l-42.8-7.6 9.5 40.2 2.5 18z"/><path fill="#f4f4f7" d="M95.2 147.7l55.3 10.1 21.4-6.1-66.4-14.2z"/><path fill="#695f51" d="M173 142h49v10h-49z"/><path fill="#1e2122" d="M74 63h100v15H74z"/><ellipse cx="224" cy="151" fill="#fff" rx="3" ry="6"/><ellipse cx="24" cy="36" fill="#fcfffd" rx="100" ry="15"/><path fill="#2c281e" d="M182.5 72l41-2v2l-41 2z"/><path fill="#13191a" d="M73 82h53v50H73z"/><circle r="1" fill="#def1f8" transform="rotate(179 22 79.9) scale(18.78486 4.67889)"/><path fill="#659d79" d="M243 136.4l26.9 3.3-3 23.9-26.8-3.3z"/><path fill="#c0ccc6" d="M170.3 88.3l6.5-24.8 17-8.6-22.2 45.3z"/><path fill="#b5e0ca" d="M213 6h19v25h-19z"/><path fill="#aee8b1" d="M70 196l76-46-113 13z"/><path fill="#c7ced2" d="M173 136h54v3h-54z"/><path fill="#e4f3d7" d="M236 201l-33-30-63 12z"/><path fill="#262315" d="M19 106h22v3H19z"/><ellipse cx="73" fill="#fafcfa" rx="30" ry="59"/><path fill="#68a063" d="M260.7 80.1l-21-6.8 9.6-29.4 21 6.8z"/><path fill="#d1ded8" d="M34 46h27v20H34z"/><path fill="#bacfc1" d="M243 58l-44 8 53-31z"/><path fill="#263433" d="M263 152l-27-47h35z"/><path fill="#f9fffc" d="M14 135L12 24l-28 87z"/><ellipse cx="71" cy="113" fill="#ebfdfa" rx="2" ry="49"/><path fill="#96988f" d="M132.2 132l51.6 11.7-36.2 5.6-33.9-16.5z"/><ellipse cx="18" cy="122" fill="#c0c7c5" rx="2" ry="49"/><path fill="#4e626d" d="M30 64h3v70h-3z"/><path fill="#4a4c3f" d="M16 140h35v3H16z"/><circle r="1" fill="#60736b" transform="matrix(5.51 -5.2743 4.4528 4.65178 79.4 121.2)"/><path fill="#2a3734" d="M153.6 112.5l18.9-41.6-.2 68.7-14.6-5.2z"/><path fill="#aea79b" d="M45.4 109l-21-27.2 48.9-16.3-21.2 60.1z"/><path fill="#82c880" d="M58 163l28-4-29 17z"/><ellipse cx="182" cy="42" fill="#fff" rx="40" ry="16"/><path fill="#b0bebe" d="M175 60h50v10h-50z"/><path fill="#9feeeb" d="M212 102h15v5h-15z"/><ellipse cx="236" cy="93" fill="#dff4f6" rx="1" ry="49"/><path fill="#9ccd95" d="M159.8 158.5l15.7 26.5 21.8-36.3-36 5.5z"/><path fill="#e0e9ea" d="M83.9 188.9l14.4-49.6-22 32.1 28 35.6z"/><path fill="#edeee9" d="M131.8 149.5l31.1 19.6-4-14.7 16.7-9.7z"/><path fill="#76b1c4" d="M1-3l45 24-44-1z"/><path fill="#a8b7b4" d="M0 135h65v5H0z"/><path fill="#adcbbe" d="M0 140h19v30H0z"/><path fill="#767371" d="M168.2 147.4l67.1-81.6-25.5 41.6 11.3 1z"/><path fill="#937f68" d="M71 139l-33-11 2-23z"/><path fill="#629f7b" d="M216 30l10.3 13.1 5.7 5.7-5-22.8z"/><path fill="#ad907d" d="M188.3 136.4l39.6-.5-2.7-27.7-21.9 8.8z"/><path fill="#4f4f44" d="M115.1 60.8l-43.6 5.4-.6-5 43.6-5.4z"/><path fill="#4a4e46" d="M171.4 70.6L94.9 57.4l21.3-5.9 60.6 8.5z"/><ellipse cx="176" cy="96" fill="#fff" rx="2" ry="26"/><path fill="#97a2a3" d="M20 52l-8 19 46-12z"/><path fill="#37584a" d="M239 160l-9-7-8 4z"/><path fill="#403e2f" d="M220.4 146.2l-41-1.4.2-3 41 1.4z"/><path fill="#609881" d="M271 167.7l-37.3-43.5 26.2-5.9-16.4 9z"/><circle r="1" fill="#f7fffd" transform="matrix(-9.45314 1.75132 -6.57548 -35.49262 255 17.8)"/><path fill="#6c9e76" d="M271 83.6l-19.5 7.5-11 17.3L271 88.5z"/><path fill="#8fa1a9" d="M59 135h12v19H59z"/><path fill="#767f80" d="M3.6 156.1l31-10.1-.2 8.5 13.4-1.7z"/><path fill="#71c866" d="M48 184l-9-11-26-3z"/><path fill="#8c9182" d="M194 158l27-10-60-8z"/><path fill="#1c211f" d="M174 105l-23 25 20 6z"/><path fill="#c3dfc5" d="M37.9 181.6l3 10.6-28.8 8.2-3-10.6z"/><ellipse cx="218" cy="109" fill="#52412f" rx="13" ry="2"/><circle r="1" fill="#c1e0b3" transform="matrix(-27.79662 -5.80702 3.0423 -14.56267 242.8 176.3)"/><path fill="#7a8584" d="M227 52h8v105h-8z"/><path fill="#75766f" d="M73 135h39v4H73z"/><ellipse cx="235" cy="133" fill="#cff6f9" rx="1" ry="22"/><circle r="1" fill="#eef3f1" transform="matrix(-26.49353 20.55049 -5.6276 -7.25505 59.5 33)"/><path fill="#a6cbb7" d="M218.5 14.2l18.9 13.5 12.8 10.5-10.1-23.6z"/><path fill="#11161a" d="M173 68l-27 34 16-43z"/><path fill="#a6a3a9" d="M178 61h5v93h-5z"/></g></g></svg>