<svg xmlns="http://www.w3.org/2000/svg" viewBox="0 0 1200 1016"><defs/><filter id="a"><feGaussianBlur stdDeviation="12"/></filter><rect width="100%" height="100%" fill="#213e2e"/><g filter="url(#a)"><g fill-opacity=".5" transform="translate(2.3 2.3) scale(4.6875)"><circle cx="163" cy="85" r="212" fill="#b07f76"/><ellipse cx="66" cy="165" fill="#510800" rx="63" ry="37"/><path fill="#fff" d="M84.4 22.5l-56.8-4 2-29 56.8 4zM228 129h28v19h-28z"/><path fill="#c3c2c0" d="M173 65h83v34h-83z"/><path fill="#fff" d="M259.8-16l-23.2 7.1 10.4 26 24 58.1z"/><ellipse cx="106" cy="81" rx="21" ry="22"/><path fill="#fff" d="M184 128h11v58h-11z"/><path fill="#9eaebf" d="M48 74h39v57H48z"/><path d="M128 129v-14h128v14z"/><path fill="#fff5ce" d="M140 0h34v18h-34z"/><circle r="1" fill="#c4abad" transform="matrix(-6.21866 32.1587 -21.60164 -4.1772 211.6 205.8)"/><ellipse cx="104" cy="189" fill="#5d3100" rx="30" ry="67"/><path fill="#000714" d="M170 121l-35 7 43-102z"/><path fill="#e5ffff" d="M6.4 148.6l3.2 60-16 .8-3.2-60z"/><path d="M175 62l5-35 53 36z"/><circle r="1" fill="#e2e2d5" transform="rotate(129.5 39 82.4) scale(19.1453 8.8077)"/><circle r="1" fill="#4f2800" transform="matrix(21.4878 -.72048 2.05762 61.36666 27.3 158.4)"/><ellipse cx="103" cy="12" fill="#fff5d2" rx="6" ry="23"/><circle r="1" fill="#081018" transform="rotate(-86.1 224.3 -40) scale(24.60027 18.04081)"/><path fill="#101918" d="M195.4 144.3l.2 33.3 15.5 1.3 15.1-43.8z"/><path fill="#251f18" d="M179 231l9-46-117 19z"/><path fill="#998776" d="M129 155h63v36h-63z"/><path fill="#b19b26" d="M62.3 184.5l12.7 26-51.3 25-12.7-26z"/><ellipse cx="233" cy="88" fill="#16181c" rx="33" ry="4"/><path fill="#fff" d="M235-16l36 29v55z"/><circle r="1" fill="#9c9180" transform="matrix(8.74715 -9.95668 55.2017 48.49588 185.3 9.4)"/><path fill="#fff" d="M265 144.9l-7.7-16.5-18.3 1.1-14.9 13.2z"/><path fill="#00111d" d="M86.5 123.4l9.6 11 31-67.9-41 9.7z"/><circle r="1" fill="#090908" transform="rotate(78.3 -8.1 28.3) scale(32.11244 6.182)"/><path fill="#fff" d="M11.7 8l-20.3 5.5L-11.7 2 8.6-3.5z"/><path fill="#9ee5ff" d="M65.4 231l12.5-15.9-13.7-21.7.3 15.7z"/><path fill="#dff0f1" d="M161 64l-12 1 2 24z"/><ellipse cx="225" cy="179" fill="#a9a4af" rx="6" ry="51"/><path fill="#010200" d="M150 60l-18 8 15 32z"/><ellipse cx="48" cy="82" fill="#847e76" rx="40" ry="25"/><path fill="#ffe" d="M24 0h63v9H24z"/><ellipse cx="91" cy="167" fill="#709583" rx="6" ry="22"/><path fill="#98967c" d="M24 0l87 28-78 6z"/><path fill="#dcd5cd" d="M173 66h10v42h-10z"/><path d="M266 59l-16.2 5-5.9-19 16.3-5z"/><path fill="#5f2e03" d="M131.6 231l-107-53.1 24.2-49.1 79.3 2.5z"/><path fill="#97c3fc" d="M-1.8 36.5l-8.2 4.1 31.5 16.8-.6-5.3z"/><path fill="#fff" d="M183 130h12v19h-12z"/><ellipse cx="74" cy="117" fill="#abd1e1" rx="13" ry="10"/><path fill="#1c1e10" d="M78.9 50.3l53.7 51.5-82.1-54.6 17.6 21.1z"/><path fill="#4e555d" d="M152 147l31-31 6 78z"/><path fill="#d0d4d7" d="M223 0h9v15h-9z"/><path fill="#707c90" d="M181.9 221.9L144.4 198l-1 6.4-3.9 15.4z"/><path d="M255 120l-50 9-37-19z"/><path fill="#6c7e71" d="M85 147h11v40H85z"/><path fill="#363221" d="M93.6 16.3L66.1 65.9l13.3-28.4 12-53.5z"/><path fill="#c7c5b7" d="M134.3 105.2l-4 .4-4.6-44.8 4-.4z"/><path fill="#3f5757" d="M50 104.5v25H0v-25z"/><path fill="#b6a8a0" d="M87 22h23v17H87z"/><path fill="#7c878f" d="M133.8 135.7L162 128l6.2 23-47.6-6.1z"/><path fill="#9e9977" d="M146 44l-2-26 32-5z"/><path fill="#a4a8ac" d="M245 33l-6-18-13 33z"/><path fill="#242727" d="M235 82.9l-19.9-8.5 30.5 3.6 2.8-5.3z"/><path fill="#abbacb" d="M0 129h5v83H0z"/><path fill="#041018" d="M167 188h16v28h-16z"/><path fill="#b0a398" d="M189.7 109.8l46.1 3.1-60.2-14.4-2.3 6.5z"/><path fill="#a08772" d="M143 231l62-29 60 11z"/><path fill="#021f3c" d="M32.9 64.8L-16 36.1V41l33.5 25.3z"/><path fill="#dbdce1" d="M190.4 197.6l-1.8-49 5-.2 1.8 49z"/><circle r="1" fill="#2f1306" transform="matrix(-7.04333 1.80372 -10.6267 -41.49606 77.9 170.9)"/><path fill="#565d4b" d="M86 34h87v30H86z"/><path fill="#060c0f" d="M206.3.1l4-3L229.7 24l-4 3z"/><path fill="#0f2128" d="M171 65l-32 37 36 40z"/><path fill="#67a6f6" d="M.9 65.5L-3.4 47l-12.6-.1 33.3 16.8z"/><path fill="#251e16" d="M188 164.1l-43.2-12.4 1.1-3.8 43.3 12.4z"/><path fill="#441602" d="M10 129h19v78H10z"/><circle r="1" fill="#000006" transform="matrix(-24.35283 -3.16288 .19811 -1.52539 220.8 104.5)"/><path fill="#c4b8ab" d="M173 65h45v19h-45z"/><path fill="#bcb6b1" d="M241 103.4l30-11.3v3.8l-85.4-2.5z"/><circle r="1" fill="#222829" transform="rotate(70.4 76 158) scale(1 51.13751)"/><path fill="#fff" d="M255 34L241-.3 255-6l13.8 34.3z"/><ellipse cx="106" cy="169" fill="#588378" rx="19" ry="3"/><path fill="#ad9985" d="M130 163h21v28h-21z"/><path fill="#f9f4e2" d="M124.4 115l-14.4-4.2 1.6-5.8 14.4 4.2z"/><path fill="#51362d" d="M212 150h4v66h-4z"/><ellipse cx="253" cy="134" fill="#fff" rx="23" ry="6"/><path fill="#000300" d="M108 66h19v30h-19z"/><path fill="#a9aeae" d="M32 55h21v10H32z"/><ellipse cx="53" cy="11" fill="#6b6445" rx="31" ry="2"/><path fill="#121416" d="M231.7 91.5L263 80.7l1.4 3.8L233 95.3z"/><path fill="#6f3502" d="M140 47l-4-22 8-17z"/><path fill="#28383f" d="M126 124l16 18 23-71z"/><path fill="#946e0f" d="M65 214.4l-81 1.2 82.3-23.2-5 34.4z"/><path fill="#723a05" d="M107 130h23v72h-23z"/><path fill="#d6dee5" d="M138 143l-7-12-2 14z"/><circle cx="112" cy="120" r="11" fill="#647071"/><circle cx="178" cy="125" r="6" fill="#a19177"/><path fill="#16171d" d="M184 97h18v6h-18z"/><path fill="#c0cbd8" d="M238.5 75.2l-1.9-7.4 19-4.2 3.4 5.3z"/><path fill="#bbc2c0" d="M5.7 184.4l1.5-20.8 3.4 42.2-26.6 12.8z"/><path fill="#bebfcc" d="M222 174h10v29h-10z"/><path fill="#bcb69e" d="M30 11h30v14H30z"/><path fill="#4d4246" d="M229 147h26v27h-26z"/><path fill="#3a3b2f" d="M147.1 49.2l6 8.4 38.1-5.3 22.9-32.4z"/></g></g></svg>