<svg xmlns="http://www.w3.org/2000/svg" viewBox="0 0 1200 900"><defs/><filter id="a"><feGaussianBlur stdDeviation="12"/></filter><rect width="100%" height="100%" fill="#406c33"/><g filter="url(#a)"><g fill-opacity=".5" transform="translate(2.3 2.3) scale(4.6875)"><circle r="1" fill="#fff" transform="matrix(-4.16419 -85.85794 254.7006 -12.35322 135.7 43.6)"/><ellipse cx="147" cy="15" fill="#fff" rx="254" ry="26"/><circle r="1" fill="#663b37" transform="matrix(-158.0271 3.3102 -.58681 -28.01404 171.3 70.2)"/><path fill="#fff" d="M4.6 81.3l-33.2-28.8 78-89.8L82.6-8.5z"/><circle r="1" fill="#fff" transform="rotate(-177.3 75.4 6.6) scale(202.71853 23.67174)"/><circle r="1" fill="#dbc4d0" transform="matrix(7.63228 25.05974 -81.40786 24.79386 36.2 127)"/><path d="M141.5 103.5v33h-15v-33z"/><ellipse cx="60" cy="146" fill="#627549" rx="130" ry="21"/><path fill="#353c35" d="M193.1 118.1L181 86.8l65.8 12.5-22.7-64.5z"/><ellipse cx="34" cy="110" fill="#fdfaff" rx="29" ry="18"/><path fill="#ebddf1" d="M141 94h47v29h-47z"/><ellipse cx="16" cy="89" fill="#1c1e10" rx="250" ry="3"/><circle r="1" fill="#000600" transform="matrix(-5.69995 -1.94888 10.16657 -29.73442 252 59.7)"/><ellipse cx="127" cy="18" fill="#fff" rx="255" ry="22"/><path fill="#c1afc9" d="M231 91.8l30.7 29.3-24.6 3.7-57.6-3z"/><path fill="#fff" d="M5.9-3l39.4 25.6L6.1 83l-39.4-25.6z"/><path fill="#e8e8ed" d="M136.1 89.9l-19.9 37.6-62.2-6.4 30.4-22.9z"/><ellipse cx="98" cy="58" fill="#aa8470" rx="75" ry="19"/><path fill="#fff" d="M233 52h11v13h-11z"/><path fill="#1a2900" d="M-5.9 91.6l11-.2.8 45-11 .2z"/><path d="M129 103h12v25h-12z"/><ellipse cx="97" cy="132" fill="#3c532b" rx="255" ry="6"/><path d="M199.5 102.7l-9.2.9-3.9 9.1 16.3-2.1z"/><circle cx="110" cy="191" r="66" fill="#5a7e49"/><circle r="1" fill="#a39980" transform="matrix(22.87577 -4.26911 2.49878 13.38957 48.4 148.4)"/><ellipse cx="188" cy="13" fill="#fff" rx="255" ry="27"/><path d="M65 95h12v4H65z"/><path fill="#355f2c" d="M121 125h135v29H121z"/><path fill="#5b3f3c" d="M-16 89h58L24 77z"/><path fill="#9d8572" d="M33 40h121v44H33z"/><circle r="1" fill="#fff" transform="rotate(-51.7 45.5 11.5) scale(53.20934 22.46194)"/><path fill="#424c2a" d="M147 114h4v26h-4z"/><path fill="#d8dad8" d="M41.5 130.6l90.8-38.3 29.3 1.1-13.9 4.4z"/><path fill="#6c695d" d="M177 89l78-6-43-35z"/><path fill="#432127" d="M22 122h4v33h-4z"/><path fill="#aeadb5" d="M256 89l-62 36 56-3z"/><path fill="#1d3d32" d="M244 104.7l14.1-48.2-57.5-12.4 48.5 2.4z"/><path fill="#294d20" d="M175.6 153.5l9.6-16.1 49-3-43.7-13.8z"/><path fill="#101506" d="M65 109h14v2H65z"/><path fill="#a4967b" d="M115.6 133.7l-28.2 12.5-5.6-9.3 15.6-1.6z"/><path fill="#fff" d="M234.4 58.6L271 10 221.3-1.5l20.3 59.4z"/><path d="M191 93h9v6h-9z"/><path fill="#dcdad9" d="M6 91h56v36H6z"/><path fill="#09220c" d="M271 47l-23 31-11-11z"/><path fill="#a99992" d="M0 142h23v12H0z"/><path fill="#8f8f88" d="M215 92h37v10h-37z"/><path fill="#828071" d="M38.2 137.9l-16.9-14.2 25.3 4.7-5.8-12.6z"/><path fill="#2c371f" d="M232.2 138.7l-5.7-15.4 33 1.9 11.5-21.6z"/><path fill="#0c0709" d="M135.4 104l-8 29.5-.2-31.2 9.7 13z"/><circle r="1" fill="#4e7a3d" transform="matrix(-55.87983 -6.18685 3.8163 -34.46898 146.5 166.4)"/><path fill="#998273" d="M139 87L5 82l31-38z"/><path fill="#fff" d="M246 56.3l-2.3 9.7-9.7-2.3 2.3-9.7z"/><circle r="1" fill="#61814e" transform="matrix(-2.5308 -7.59926 27.56852 -9.18123 47.3 163.4)"/><path fill="#313232" d="M29.9 128.3l-23 34-.8-.6 23-34z"/><path fill="#170830" d="M74 146l-4-9 11-1z"/><path fill="#d1d0d2" d="M206 116l-67-18 18 27z"/><ellipse cx="97" cy="92" fill="#93967b" rx="102" ry="2"/><path fill="#345a44" d="M225 56l-10-14 32 3z"/><circle r="1" fill="#837063" transform="rotate(45.1 33.4 272.5) scale(6.36936 24.36191)"/><path fill="#8a7d6c" d="M136 41h41v47h-41z"/><path d="M188 104h13v8h-13z"/><path fill="#b6bab7" d="M200 103h48v19h-48z"/><circle r="1" fill="#525549" transform="matrix(-.33361 12.06173 -.99962 -.02765 65 98.5)"/><ellipse cx="2" cy="49" fill="#fff" rx="17" ry="30"/><path fill="#fff" d="M271 33.2L233.3 46l10.4-62L52.8 40.8z"/><path fill="#dfdfdf" d="M78 101h45v20H78z"/><path fill="#656a5c" d="M159 80l27 14 64-33z"/><path fill="#20120b" d="M13 86l-2 10 3-5z"/><path fill="#fff" d="M202 42L12 14l257-30z"/><ellipse cx="168" cy="90" fill="#2b3122" rx="76" ry="2"/><path fill="#9aa18f" d="M154.7 96.1l37.5-9.6-9.6 8.4-71.2-1.6z"/><path fill="#152a21" d="M271 48.6l-21.9 31-1.8-6.2-2.8-23.4z"/><path fill="#a9a091" d="M26 155v-14l44-1z"/><ellipse cx="114" cy="99" fill="#d1d1cb" rx="45" ry="4"/><path fill="#6a6356" d="M217 55l-3 18 57 22z"/><ellipse cx="24" cy="148" fill="#494530" rx="2" ry="28"/><path fill="#232217" d="M187 92h13v7h-13z"/><path fill="#87b3be" d="M271 54.6v47.2l-21-22.1 21-28.6z"/><path fill="#335a2e" d="M70 129h55v4H70z"/><path fill="#537745" d="M146 152l103-9-175 64z"/><path fill="#e8ebe9" d="M11 100h50v16H11z"/><path fill="#301813" d="M40.5 114h1v18h-1z"/><path fill="#e8eaea" d="M62 38h41v3H62z"/><circle cx="21" cy="180" r="18" fill="#507b3c"/><circle cx="238" cy="57" r="5" fill="#fff"/><ellipse cx="161" cy="149" fill="#3a6f32" rx="80" ry="7"/><path fill="#c9cbca" d="M62 119h36v8H62z"/><circle r="1" fill="#3b5b2e" transform="rotate(-164.7 134.7 76.2) scale(19.14887 76.26253)"/><ellipse cx="115" cy="48" fill="#9b8375" rx="85" ry="7"/><path fill="#1f3f39" d="M235 58l-8.3-3.8 5.2 10.4-1.5-1.1z"/><path fill="#bfc7b6" d="M83 93h57v5H83z"/><path fill="#5c5644" d="M74 84l6 1-2 13z"/><path fill="#fff" d="M2.7 84.7l12.5-12.3L-12 30l46.2 12.3z"/><path fill="#2b3621" d="M187 126h69v5h-69z"/><ellipse cx="69" cy="104" fill="#3b5048" rx="8" ry="1"/><circle cy="105" r="5" fill="#1a310a"/><path fill="#2c292c" d="M198 93h3v11h-3z"/><ellipse cx="255" cy="100" fill="#8f9dae" rx="8" ry="12"/><circle r="1" fill="#2c5e2a" transform="matrix(1.3226 6.67917 -12.10051 2.39614 65.3 191)"/><path fill="#fcffff" d="M0 0h129v39H0z"/></g></g></svg>