<svg xmlns="http://www.w3.org/2000/svg" viewBox="0 0 940 1200"><defs/><filter id="a"><feGaussianBlur stdDeviation="12"/></filter><rect width="100%" height="100%" fill="#924960"/><g filter="url(#a)"><g fill-opacity=".5" transform="translate(2.3 2.3) scale(4.6875)"><circle cx="79" cy="104" r="206" fill="#fff"/><ellipse cx="91" cy="163" fill="#faffff" rx="200" ry="214"/><circle cx="168" cy="125" r="214" fill="#e2fff0"/><circle cx="97" cy="131" r="49" fill="#bcd5a5"/><path fill="#e3ed76" d="M79 220L2 170l106 30z"/><path fill="#a0ed00" d="M144 119l-27-13-9-29z"/><ellipse cx="97" cy="131" fill="#dfcdff" rx="30" ry="35"/><path fill="#e9f421" d="M97.8 199.7l39-63.9-33.2 71.4-29.3 10.1z"/><path fill="#f0f7ff" d="M16.1-11.8L77.2-96 278 49.8 216.8 134z"/><path fill="#eef4ff" d="M-44.7 96.6L15.7-21.9l73 37.3-60.4 118.5z"/><path fill="#ffe92d" d="M22.1 152.6l7.6-20L77 44.8l9.4-12.6z"/><path fill="#c6f365" d="M42.1 112.5L86 172.4l-43.6-24.9 28.7-51.7z"/><path fill="#fff228" d="M69.8 28.5l84 69.5 35.6 30.1L139 80.6z"/><path fill="#c7f329" d="M54.7 184.5L76 160.8l5.2 4.7L60 189.2z"/><path fill="#f4e23c" d="M170.6 132l34.7-17-51.3 32.5-24.8 14.9z"/><circle cx="190" cy="194" r="59" fill="#e8efff"/><circle r="1" fill="#f7f25f" transform="matrix(16.62725 -1.10098 .34976 5.28216 121.5 228.8)"/><circle cx="82" cy="188" r="18" fill="#dee9ff"/><circle r="1" fill="#ebf1ff" transform="matrix(14.9247 -33.09723 102.2459 46.10624 19.3 229.6)"/><ellipse cx="22" cy="167" fill="#e7ea7f" rx="10" ry="16"/><path fill="#2ebbe4" d="M110 238h38v3h-38z"/><path fill="#c1c5d5" d="M140 218h28v37h-28z"/><path fill="#83a58d" d="M70.3 112L55 96.4l8.7-8.4L79 103.7z"/><path fill="#bbcae1" d="M166.6 119.9l14.4 6.2-60.1 39.5 34.3-49z"/><path fill="#e3f06d" d="M121.3 100.6l-.6-2.4L140.8 70l20.9-18.4z"/><path fill="#a3e914" d="M124.9 101.9l17 10.6-4.8 7.6-17-10.6z"/><path fill="#d6f839" d="M51 113h8v31h-8z"/><path fill="#e8f1aa" d="M103 50.2L72.8 34.9l50.1 55.9-33.4-3.9z"/><path fill="#b7cbde" d="M52.9 100.1l58.2-13-28.2 39.6 1.4-79.4z"/><path fill="#9dd7f2" d="M60 145l23 19-22-44z"/><path fill="#fff830" d="M113.1 173.3l-.5-.8 32.3-21.8.5.8z"/><path fill="#e6efff" d="M52.7 146.6l17.8 19-21.2 19.8-17.8-19z"/><path fill="#00d19f" d="M86 92h22v2H86z"/><circle r="1" fill="#fce751" transform="matrix(-1.64215 -.92909 5.18192 -9.159 66.2 72)"/><path fill="#fd00ba" d="M137.4 245.4l-26.7 4.2-.1-1 26.7-4.2z"/><path fill="#e3eafa" d="M89.2 263.2l66.2-110.5-50.6 49-24.9 22.9z"/><path fill="#ffec3f" d="M143.2 86l45 37.8 3.3 7.1-69.9-61.7z"/><path fill="#eb23ad" d="M72.1 127.9l-.2-1 38-8.8.2 1z"/><path fill="#ffe432" d="M59 208.6l-42.4-31.1 49.7 33-7.8.5z"/><path fill="#c6f03c" d="M56.1 108.7l30-20.6 4.3 5.6-6.7.5z"/><path fill="#a9ef0e" d="M111 89h10v12h-10z"/><path fill="#d5f773" d="M22.1 161.3l22-17.3 3.8 4.7-22 17.3z"/><path fill="#7ad1d5" d="M85.2 168.4l26.3-3.3 10.4-6.7 5.1-6.4z"/><path fill="#bfa1c2" d="M75 153l44-22-51 8z"/><path fill="#93dccf" d="M165.1 115.5l-28.4 25.1 9.8-27.2 26.5 13.3z"/><circle r="1" fill="#e0ebfa" transform="rotate(-39.9 303 -29.3) scale(24.93315 12.45195)"/><path fill="#cff258" d="M55.6 193l25.6-29.1-19.9 17.6 9.7 34.8z"/><path fill="#e8ff5f" d="M141.8 123.2l-12.3 32 17.9-38.6-11.4-10.3z"/><path fill="#e5f0fa" d="M98.9 69.5l29.1 7.3-2.9 11.7L96 81.2z"/><path fill="#f4ffff" d="M103.3 104.8l4.5 26.8-21.8 4.5 36.3-34.1z"/><path fill="#e7f035" d="M115.4 185.1l1.8-24.4-11.1 30.4-13.4 22.4z"/><path fill="#ddf94c" d="M104.5 169.4l-.3 2-30.7-4.8.3-2z"/><path fill="#ecf58b" d="M87.9 38.9l42.3 64.4 29.2 16.1-30.5-12.6z"/><circle r="1" fill="#ecf2fd" transform="matrix(52.19624 -.65624 1.28408 102.13325 200 23.2)"/><path fill="#f0fd54" d="M139 114h33v2h-33z"/><ellipse cx="121" cy="229" fill="#dfeaff" rx="27" ry="2"/><path fill="#e0e6f3" d="M55 215h55v41H55z"/><path fill="#ffe948" d="M35 125.4L11.9 173l-.9-.4L34.2 125z"/><path fill="#82df2e" d="M75.6 105.7L55.2 133l-.8-.6L74.8 105z"/><path fill="#f3ed52" d="M55 206l25 9 16-7z"/><path fill="#dae0ff" d="M59 113l-1 13 15-25z"/><path fill="#d9fc52" d="M26.1 165.8l13.2 21.3-10-7.7-5.7-9.4z"/><path fill="#fde015" d="M81 36l-1 6h8z"/><path fill="#d5dbef" d="M23.1 165.3l9.3 23.6-16.5-21.7 58.4-94.5z"/><path fill="#eaedf8" d="M67 148l17-48-22 27z"/><path fill="#d9eb7f" d="M101.9 65.9L91.1 94.1l5.8-31.9-19.7-31.5z"/><path fill="#fd50be" d="M161 134l-13 1 10-6z"/><path fill="#f0ff4c" d="M126 228l-17 5h32z"/><path fill="#dbfa3f" d="M56 149l-2-26 14 34z"/><path fill="#12bef0" d="M132 116v12l4 2z"/><path fill="#a7e571" d="M124.8 147.3l-6 11.5 10.2-28.2-6.4 30.5z"/><path fill="#d6dbfd" d="M68.3 209.2l-.6.8-36-25.2.6-.8z"/><path fill="#e1ebf7" d="M31 158h39v14H31z"/><path fill="#daf2fc" d="M144.4 131.9l-18.6 30.3 22.2-15.9-2.3-17.2z"/><path fill="#e9f0f8" d="M168 152l-32 96 2-89z"/><path fill="#ffed3a" d="M138.6 81.5l-.6.8-60.6-45.8.6-.8z"/><path fill="#ff4ed3" d="M75.8 139.7l-.2-1 22.6-4.4.2 1z"/><path fill="#ffe410" d="M108 225h26v2h-26z"/><circle r="1" fill="#e6edf6" transform="rotate(176.2 68 95.7) scale(25.33142 27.35399)"/><path fill="#d1d6f2" d="M83 39l-26 63 40-34z"/><ellipse cx="198" cy="156" fill="#edf4fc" rx="43" ry="27"/><path fill="#f2f3fe" d="M102 120l17 9-53 10z"/><circle r="1" fill="#ecf1fb" transform="rotate(-134.9 9.3 11.4) scale(73.07292 43.83331)"/><path fill="#eb49b8" d="M121.2 137.8l-5.3-21.4 1-.2 5.2 21.4z"/><path fill="#e6faf8" d="M125.7 131.9l-3.7 16.9-13.6-8.5-14.6.7z"/><path fill="#e9fe42" d="M133.6 145.8l.7.6-19.9 23.8-.7-.6z"/><path fill="#caf400" d="M69.4 99l.7.6-13.5 13.5-.7-.7z"/><circle r="1" fill="#e7f7fa" transform="rotate(-130.4 86 29) scale(20.60582 3.94329)"/><ellipse cx="45" cy="166" fill="#dee8f4" rx="17" ry="14"/><path fill="#00dad0" d="M59 127h2v10h-2z"/><path fill="#a7add2" d="M75.8 62.2l2.7 1.4-22.3 40.2-2.7-1.4z"/><path fill="#fde834" d="M81.5 38l.9.5L64.5 72l-.9-.5z"/><circle r="1" fill="#e4e8f9" transform="matrix(.62044 32.82716 -14.09061 .26631 8 131)"/><path fill="#e7f0ff" d="M167.9 111.8l-18.1-12.1-25.1-4.9 15.8 14.8z"/><circle r="1" fill="#eaf2f9" transform="rotate(178 -.9 109.9) scale(35.29544 46.30725)"/><path fill="#d9e9f4" d="M58.2 187.2l2.6 10.2-20-8.2 22.9 18z"/><path fill="#dee1ff" d="M58.9 97.5l-8.2 19.3-5.6-2.3 8.2-19.3z"/><path fill="#5fd5af" d="M76.5 162.4l8.8 2.1-9.3-5.2-17.3-15.7z"/><path fill="#bfcdd5" d="M94 139h15v26H94z"/><path fill="#e3ebff" d="M166.4 226.9L91.6 232v-1l74.8-5.2z"/></g></g></svg>