<svg xmlns="http://www.w3.org/2000/svg" viewBox="0 0 1200 869"><defs/><filter id="a"><feGaussianBlur stdDeviation="12"/></filter><rect width="100%" height="100%" fill="#2a4b37"/><g filter="url(#a)"><g fill-opacity=".5" transform="translate(2.3 2.3) scale(4.6875)"><circle r="1" fill="#efe8bd" transform="matrix(194.81948 -111.12307 73.75521 129.30665 84.4 121.8)"/><circle r="1" fill="#36582a" transform="matrix(.0351 -20.61668 23.02683 .0392 185.9 36.7)"/><path fill="#b0d8e5" d="M219 81l39 71L117 35z"/><path fill="#d7d7c7" d="M104.8 180.8L81.4 146l39.8-26.8 23.4 34.8z"/><circle r="1" fill="#90604a" transform="matrix(-14.51703 13.9376 -46.91453 -48.86489 57.6 81.3)"/><circle r="1" fill="#536829" transform="rotate(120.8 67.8 94) scale(6.82021 35.51237)"/><circle r="1" fill="#d1c4a2" transform="matrix(41.55488 -33.41099 12.56265 15.6248 155 9.1)"/><circle r="1" fill="#cdffff" transform="matrix(3.01723 -3.38647 28.44161 25.34055 99.2 21.1)"/><circle cx="12" cy="43" r="34" fill="#557f4b"/><path fill="#f9fafd" d="M182.8 170.8l-66.1-40.5 74.1 59.6-2.1-19.9z"/><circle r="1" fill="#304b30" transform="matrix(8.14641 -3.99089 14.03592 28.65088 245 164.7)"/><path fill="#f9f2fe" d="M198.8 119.5L271 76.2l-49.1 16.5-82.9 57.9z"/><path fill="#3f5d3c" d="M18.7 212l-34-1.1 2.6-75 34 1.2z"/><path fill="#fff" d="M127.8 134.6l-2.4 1.8-95.2-131 2.4-1.8z"/><path fill="#4f7537" d="M198.3 76l16.5-26.3L237.7 64l-16.5 26.3z"/><path fill="#4c6b4f" d="M198 106l-80 15 27 20z"/><circle r="1" fill="#cafbff" transform="rotate(-119.7 161.7 -1.9) scale(45.55816 3.50253)"/><path fill="#1d472e" d="M134 147.4l-.8 4.1-19.8 10 10.5-25.6z"/><path fill="#416a37" d="M233.6 102.3L256 86.7l15 15.7-1.5 70.8z"/><circle r="1" fill="#ddc29b" transform="rotate(-153.4 49.1 55) scale(57.9856 6.25672)"/><circle r="1" fill="#adacaf" transform="matrix(-17.09738 -4.77367 15.42993 -55.26381 205.5 172.8)"/><circle r="1" fill="#4b7144" transform="rotate(-162.6 31.6 1.1) scale(24.16654 11.74538)"/><circle r="1" fill="#6f9554" transform="rotate(-75.2 114 46) scale(17.80448 60.14568)"/><path fill="#bbedff" d="M130.8 41.3L54.4-13.8l83.9 72 66.8 24.2z"/><circle r="1" fill="#5f7b49" transform="matrix(-36.01171 -22.07865 4.22494 -6.89115 152.7 71.6)"/><circle r="1" fill="#f1edfc" transform="matrix(-2.37909 -3.4182 40.52071 -28.2027 92.6 184)"/><circle r="1" fill="#446752" transform="matrix(5.39311 11.67628 -15.53523 7.1755 182 144.2)"/><ellipse cx="96" cy="121" fill="#216c47" rx="11" ry="13"/><path fill="#4a6847" d="M118.9 33.4L83.7-3.8l50.5 37.6L187.8 63z"/><path fill="#cdf3ff" d="M238 117l-50-44 34 15z"/><circle r="1" fill="#b67160" transform="matrix(-19.28332 -32.86763 18.37678 -10.7816 62.8 91.5)"/><circle cx="29" cy="86" r="12" fill="#d9c192"/><path fill="#516846" d="M245.6 11.9l17.8-20.3L271-16l-93.3 48.9z"/><path fill="#dfdee2" d="M143.4 154.3l-16.9 8.3 11.9-16.7L228 97.1z"/><circle r="1" fill="#093c1c" transform="matrix(-5.45373 -4.20522 3.16096 -4.09943 218.3 82)"/><path fill="#caf9ff" d="M213.5 84.8l-2.2 4.4-58.8-30 2.2-4.4z"/><path fill="#537058" d="M140.4 154.1l21.8 12-6.4 24.6-25.8-26.9z"/><path fill="#5b7c5b" d="M104 101L73 58l39 28z"/><path fill="#57694e" d="M232.7 137.2l-14.5-36.1 46.2 79.7-31.7 10.1z"/><path fill="#8b9c77" d="M179 122.1l2.5 4.6L148.9 69l63.4 33.5z"/><path fill="#b2b098" d="M152.6 117.1l-37.2-60.8 12.8 8.2-22.2 33z"/><circle r="1" fill="#cad1ab" transform="rotate(147.8 22.6 78) scale(9.32083 10.10302)"/><path fill="#aaaca0" d="M189 146.8l25.4 15.9-15.4 24.5-25.4-15.9z"/><ellipse cx="224" cy="52" fill="#819865" rx="28" ry="23"/><path fill="#f5eaf1" d="M129.4 137.4l-2.3 1.8-50.5-64.6 2.3-1.8z"/><circle r="1" fill="#4c6d4a" transform="rotate(-144.3 80.5 36) scale(9.03757 7.19034)"/><path fill="#bcbb94" d="M77.2 34.9l16.9 2 34.2 39.3L75.1 36z"/><path fill="#667f53" d="M152 48l22-34 12 46z"/><circle cx="106" cy="142" r="12" fill="#dedbc5"/><path fill="#e3eaef" d="M114.4 127.4l33 30.7 17.6 9.1-54.1-47.5z"/><ellipse cx="174" cy="4" fill="#c1b38a" rx="47" ry="12"/><path fill="#426c40" d="M103.1 180.3L205.4 200h-73.8l-8.2-28.1z"/><path fill="#7d866b" d="M241.7 140.7l-30.3-27.9 12.4-12.3-4.2 4.7z"/><ellipse cx="42" cy="172" fill="#88a56a" rx="32" ry="27"/><path fill="#875742" d="M53.4 114.7l-13-29.2 18.2-8.2 13 29.2z"/><path fill="#9cae79" d="M170.6 53l-11.2-6.6 10-17.3 11.2 6.5z"/><path fill="#bee5ff" d="M226.5 101l44.5 74-12.1-5.4-38.7-66z"/><path fill="#fbfdff" d="M62 47.8l-.7.5-55.4-82 .8-.6z"/><path fill="#3d5746" d="M21 151l-37-30v70z"/><circle r="1" fill="#b8e5ff" transform="matrix(29.5458 20.03773 -1.81037 2.66941 119.8 38.8)"/><path fill="#edf0f1" d="M174 169.5l13.9 19.1-42.9-36.2 5.3 1.7z"/><path fill="#5f824e" d="M95 13.6l18.6 9.6L141.7-16H73.4z"/><path fill="#b7bb90" d="M100.5 157.4l6.7 10-25.7 17.2-6.7-10z"/><path fill="#718c51" d="M18-16L-16 89l35 9z"/><circle r="1" fill="#5e7757" transform="matrix(-2.10666 6.11819 -25.009 -8.6113 144.5 65.1)"/><path fill="#869a6e" d="M166 141l20 35-36-25z"/><path fill="#bc8c7b" d="M27 62h39v15H27z"/><path fill="#4b6543" d="M178 61l39-31-35-15z"/><path fill="#dedcce" d="M225.3 137.4l-12.8-15.8 2.5-4.7 15.1 13.6z"/><circle r="1" fill="#d7b888" transform="matrix(-.93336 1.23861 -114.8089 -86.51471 76.6 134.8)"/><path fill="#93a681" d="M34 5.1L20.6 47.7l-36.6 3 50.5-28.3z"/><path fill="#375d40" d="M39 32L28 66l18-14z"/><path fill="#538356" d="M91 50L66 27l2 19z"/><path fill="#afaba3" d="M69.3 65.6l-5.4-14-10.4-14.1-13.2 7.9z"/><path fill="#aaac85" d="M211.6 80.1l13.2 18.3 46.2-54-49.9 44.5z"/><path fill="#7e8e78" d="M192 131l15-17 41 71z"/><circle cx="146" cy="126" r="10" fill="#436048"/><path fill="#4b6a4c" d="M112 122L95 97l-6 33z"/><path fill="#d2d2d0" d="M234.7 99.3l-84 42.6 68.9-45.2L271 71.3z"/><path fill="#ad7863" d="M67.7 130.5l-6.9-82.1 31.3 45.3 5 9.5z"/><path fill="#858d83" d="M32.2 42l20.1-6.1-7.5-11.2L27.4-1z"/><path fill="#c7f2ff" d="M65.2-8l2-2.2L102.8 22l-2 2.3z"/><circle r="1" fill="#728b61" transform="rotate(34.7 -10.6 182.9) scale(43.90527 6.56386)"/><circle r="1" fill="#789462" transform="matrix(-2.21923 -27.15865 22.94519 -1.87493 42 144.8)"/><path fill="#d0c9a9" d="M12.2 5.4l-16.6 9.2-7.8-14L4.4-8.6z"/><path fill="#c3c3b8" d="M204.9 161l7.1 7 3-27.5-16.1 16.5z"/><path fill="#b6ab72" d="M41.1 106.7l-3.9 18L-16 86.5v2.4z"/><path fill="#83a155" d="M131 72h38v14h-38z"/><circle r="1" fill="#cbcfce" transform="matrix(-1.9092 3.12777 -9.0802 -5.54257 105.2 102)"/><path fill="#4f6846" d="M224 136l10 35 33 2z"/><path fill="#90a07b" d="M134.4 138.4l-14-11.8-15.4-22.3 42.1 30.3z"/><path fill="#2a5a3d" d="M271 154.2l-34.5-47.8 4.6-2 7.2 8.6z"/><path fill="#b7aa8f" d="M13 165l27 29-19-39z"/><path fill="#325845" d="M112.7 20l-1.7 4L93.5 5.8l-16.4-20z"/><path fill="#546d51" d="M35.3 43.3l-8 4.2L6.8 8.7l8-4.2z"/><path fill="#517058" d="M135.8 147.9L117 132.6l7 22.3 10.1-2.4z"/><path fill="#b1ad8b" d="M175.4 119.7l-22.2-1.9-39.3-55.5 19.3 42.6z"/><path fill="#94978d" d="M263.4 200L239 170.3l-56.8 7.1 50.4 4.3z"/><path fill="#d6d6d8" d="M69.1 199.4l88.1-54.3 80.2-56.8-112.1 69z"/><path fill="#ff661f" d="M65 80l4 4-10 4z"/></g></g></svg>