<svg xmlns="http://www.w3.org/2000/svg" viewBox="0 0 900 1200"><defs/><filter id="a"><feGaussianBlur stdDeviation="12"/></filter><rect width="100%" height="100%" fill="#615239"/><g filter="url(#a)"><g fill-opacity=".5" transform="translate(2.3 2.3) scale(4.6875)"><circle cx="123" cy="92" r="183" fill="#bac2c5"/><path fill="#2d1c02" d="M117 53.5l59 1-3 172-59-1z"/><ellipse cx="191" cy="192" fill="#fff" rx="18" ry="126"/><ellipse cx="106" cy="138" fill="#fff" rx="9" ry="57"/><circle r="1" fill="#eef3ff" transform="rotate(49.5 -214.8 214.8) scale(79.32568 19.1938)"/><path fill="#fff" d="M80.6 188.1l-1.2-66 14-.2 1.2 66z"/><path fill="#1d191c" d="M207 209l-67 27-80-47z"/><ellipse cx="177" cy="242" fill="#fff" rx="19" ry="24"/><ellipse cx="96" cy="146" rx="3" ry="52"/><ellipse cx="184" cy="156" fill="#fff" rx="10" ry="52"/><circle r="1" fill="#dfdbc9" transform="rotate(-179.7 30.5 84) scale(9.02258 74.65563)"/><path fill="#fff" d="M69 205h47v7H69z"/><path fill="#3f1300" d="M85 215h30v13H85z"/><circle r="1" fill="#75653c" transform="matrix(7.35428 -75.7636 24.87837 2.41491 2 153.3)"/><path fill="#070200" d="M70 97h7v106h-7z"/><circle r="1" fill="#747572" transform="matrix(-71.90085 16.8642 -5.90228 -25.1645 134.5 68.4)"/><ellipse cx="106" cy="148" fill="#fff" rx="8" ry="47"/><path fill="#f8fbff" d="M120.8 245l-11.2 17.8-23.2-24.1 35.9-17z"/><path fill="#fff" d="M79 136h16v56H79z"/><ellipse cx="171" cy="91" rx="51" ry="3"/><path fill="#000001" d="M207 211.6v12.3l-42.6-7.2 9.8-11.8z"/><ellipse cx="191" cy="84" fill="#f6fdff" rx="46" ry="4"/><path fill="#fff" d="M175 93h17v113h-17z"/><circle r="1" fill="#292d35" transform="rotate(-96.1 174 53.7) scale(28.60707 11.40081)"/><path fill="#e5e6e3" d="M41.2 89.2l37.4 6.5 75.7-11-84.2 4.7z"/><path fill="#060001" d="M109 194l-38-3 72 28z"/><path fill="#fff" d="M97.7 193.6l-.4-19 17-.2.4 19z"/><path fill="#0c0500" d="M73 95h51v4H73z"/><path fill="#595548" d="M54 65h66v21H54z"/><path fill="#fdf9f2" d="M51 167h18v30H51z"/><ellipse cx="77" cy="39" fill="#93989a" rx="109" ry="22"/><path fill="#fff" d="M170 222h22v34h-22z"/><path fill="#475567" d="M7 267l-23-15 86-54z"/><circle r="1" fill="#a5abb7" transform="rotate(-43.8 316.4 46) scale(14.0539 42.83038)"/><path fill="#fff" d="M95 113l-7 12 2-27z"/><path fill="#000308" d="M172 123h3v88h-3z"/><path fill="#5c6045" d="M76 95h12v40H76z"/><circle r="1" fill="#52564e" transform="matrix(-3.93793 -14.52263 89.20465 -24.1886 17 0)"/><circle r="1" fill="#322a17" transform="rotate(-175.9 9.3 86) scale(7.29597 12.90527)"/><path fill="#150000" d="M60 150h4v15h-4z"/><circle r="1" fill="#a7aab2" transform="rotate(-177.2 88.8 5) scale(12.06002 28.30408)"/><path fill="#595447" d="M190.5 47.9L58 72.2 159.4 65l27 15.5z"/><path fill="#352402" d="M44 153h7v19h-7z"/><path fill="#ffffed" d="M99 99h16v89H99z"/><path fill="#6b778c" d="M104 265l62-47-5 53z"/><path fill="#0a070d" d="M77.7 191l-10.4 9.6 41.1 5.7-23.6-14.5z"/><path fill="#604e30" d="M115 91h57v118h-57z"/><path fill="#e3edfd" d="M91.6 202.7l.4 4.5L78.7 227l-17.2-24.7z"/><path fill="#f1f3fd" d="M58.8 222.3l16.7 2.9 37.3 26.8 7.7-20.4z"/><circle r="1" fill="#9b9378" transform="rotate(127.4 -46.2 110.5) scale(56.75438 10.26475)"/><circle r="1" fill="#6c512c" transform="matrix(16.89674 -.77668 .41861 9.107 105.3 221.3)"/><ellipse cx="54" cy="116" fill="#b7ad8a" rx="15" ry="37"/><path fill="#383a30" d="M113.2 19.6l.8 31.5-8.3-15.5 2.7-.2z"/><ellipse cx="73" cy="134" fill="#020000" rx="2" ry="39"/><path fill="#f4f9fd" d="M118.6 215.5l-1.9-8.4-63.1.4 61.2 3.9z"/><ellipse cx="32" cy="133" fill="#978964" rx="16" ry="51"/><ellipse cx="76" cy="155" fill="#dae0bc" rx="1" ry="34"/><path fill="#1f1912" d="M189.2 87.4l17.8 1.9-45.5 6-102.6 2.8z"/><path fill="#fffffb" d="M100 135h14v60h-14z"/><ellipse cx="135" cy="83" fill="#837f74" rx="28" ry="8"/><path fill="#ebecc9" d="M175 95h17v41h-17z"/><circle r="1" fill="#fdffff" transform="matrix(11.24543 -2.887 4.29104 16.7144 179.7 236.4)"/><path fill="#120f07" d="M115 96h2v74h-2z"/><path fill="#fffff9" d="M89 100h5v75h-5z"/><path fill="#c9bfaa" d="M49.3 170.3l10.1-33-5.8 70.6-35.9 23.3z"/><path fill="#fff" d="M175 141h17v64h-17zm14-73l18-51-6 108z"/><path fill="#c8d0df" d="M93 228l-46-29 61 72z"/><circle r="1" fill="#6e7580" transform="matrix(8.47955 -33.75852 8.7177 2.18974 31.4 251.7)"/><circle r="1" fill="#dfe1e2" transform="rotate(83.1 -8.2 96.1) scale(2.60654 17.80593)"/><path fill="#6b604f" d="M207 210.3l-35.7-6.6.9 16.3-29.5-19.6z"/><path fill="#4d5150" d="M-16 254.9L6.7 271l25.2-43.2 43-34.1z"/><path fill="#fafcff" d="M173 80h19v7h-19z"/><path fill="#1a160d" d="M125.4 212.7l14.1-3 23.7 6.3-30.2 12.6z"/><path fill="#9c9d9c" d="M104 56L52 67l54-83z"/><path fill="#060000" d="M95 96h3v108h-3z"/><path fill="#fff" d="M99 229h16v12H99z"/><path fill="#fdfff9" d="M82 137h12v54H82z"/><path fill="#93724a" d="M112 218l-6-8-18 3z"/><ellipse cx="80" cy="131" fill="#c1bba5" rx="2" ry="31"/><ellipse cx="71" cy="145" fill="#756d53" rx="2" ry="49"/><path fill="#282223" d="M79 189.5l-11.8 8.9 60.7 12.8-13.5-13.7z"/><ellipse cx="98" cy="153" fill="#51442d" rx="1" ry="53"/><path fill="#a1adc1" d="M158.6 230.7l10.4-13.6 6.4 2.5-20.8 51.4z"/><path fill="#292308" d="M79 146h-1l-1-50h1z"/><path fill="#111214" d="M172 92h3v29h-3z"/><path fill="#1a0f00" d="M11 163h4v20h-4z"/><path fill="#513c23" d="M129 221l-45-4 17 12z"/><path fill="#0b0609" d="M184.3 215.2l-15.8-2 6.6 2.7 31.9 10.2z"/><path fill="#e2e1da" d="M37.7 217.4l27.8-39.5 4.6 13-9.3 14.8z"/><path fill="#474a4c" d="M136 247l20-17-36-11z"/><path fill="#a6a8a7" d="M-16 70.2l67.9 13.9 26.6 13.5-25.6-5.4z"/><path fill="#f6f8c8" d="M99 98h14v30H99z"/><path fill="#6a5a3c" d="M116 95h55v41h-55z"/><ellipse cx="117" cy="7" fill="#878b8b" rx="55" ry="22"/><path fill="#0c0d0a" d="M113.8 42.7l-.9.6-6.7-10 .9-.6z"/><path fill="#272212" d="M15.5 191.5v47h-1v-47z"/><circle cy="111" r="37" fill="#8c7f63"/><path fill="#909bb0" d="M120 223h5v33h-5z"/><path fill="#e0dfd9" d="M97 87h17v6H97z"/></g></g></svg>