<svg xmlns="http://www.w3.org/2000/svg" viewBox="0 0 1200 672"><defs/><filter id="a"><feGaussianBlur stdDeviation="12"/></filter><rect width="100%" height="100%" fill="#444"/><g filter="url(#a)"><g fill-opacity=".5" transform="translate(2.3 2.3) scale(4.6875)"><circle cx="137" cy="92" r="164" fill="#fff"/><circle r="1" fill="#fff" transform="matrix(84.12536 -35.18841 42.90002 102.56158 233 67.8)"/><ellipse cx="74" cy="99" fill="#ecedea" rx="47" ry="50"/><ellipse cx="36" fill="#fff" rx="24" ry="44"/><circle r="1" fill="#fff" transform="matrix(29.57823 20.23762 -48.44497 70.8046 223.2 123.8)"/><circle r="1" fill="#353729" transform="rotate(-136.9 49.8 17.5) scale(4.32039 42.17123)"/><path fill="#fff" d="M146.2 27.5l14.4 24-24.8 15-14.4-24z"/><path d="M175.3 101.4l8.5 19.2-9.1 4-8.5-19.2z"/><path fill="#303030" d="M31.8 93.8l-16.9 16.7-3.5 9.7 28.3 36.5z"/><path fill="#fff" d="M45.4 93.5L16.4 70-16 17.7-2.3 80z"/><path fill="#fffff9" d="M113 38L99 6 54 47z"/><path fill="#161616" d="M87.9 7.2l51.4 21.7-23.7 15 19.1-26.6z"/><circle r="1" fill="#636a42" transform="matrix(-2.74551 -6.81327 21.11505 -8.50862 150.4 70.3)"/><circle r="1" fill="#fff" transform="matrix(17.12343 39.19399 -6.71786 2.93496 141.2 140.8)"/><path fill="#000100" d="M81 41h25v12H81z"/><path d="M164.9 41l-4.3-13.3L169 25l4.3 13.3z"/><path fill="#333" d="M60.5 42.5L40.1 8.1l9.2 11.3L24.7 7z"/><path fill="#323232" d="M90.7 2.7l-4-14.9 40.1-3.8-91.7 73.5z"/><circle cx="132" cy="3" r="12" fill="#fff"/><circle r="1" fill="#121212" transform="matrix(-11.75545 -22.74418 2.95374 -1.52665 128 93)"/><circle r="1" fill="#1b1b1c" transform="matrix(7.88213 22.25027 -2.07752 .73596 116 106.4)"/><path fill="#151515" d="M4 15l12 25 2-26z"/><path fill="#f9f9fa" d="M57.9 153.9l-73.9-3.1L95 9.5-4.8 123.4z"/><path fill="#343434" d="M163.7-13.2l3.7-1.5 21 52-3.8 1.4z"/><path fill="#535253" d="M75.6 51.8l30.1 52.8-10.4-43L82.1 88z"/><path fill="#1d1d1d" d="M-7.3 33.4L-16 4.1l27.5 42.4 12.3 26.3z"/><path fill="#4c4b4d" d="M75 115.4l-7-3.4 15.7 27.2 17.5 13.8z"/><path fill="#fff" d="M25 158l39-70 43 12z"/><path fill="#414338" d="M192.1 100.5l-18.6-48.6 26 48.3 4.5-2.9z"/><path fill="#fbfbfb" d="M192 122l-99 29 44-32z"/><path fill="#fff" d="M48 67L22 38l-4-54z"/><path fill="#f6f7ef" d="M65.3 37.8L15.8 91.9l73.8-40.6 34.3 38.2z"/><path fill="#1c1c1c" d="M6 139l7-13 4 27z"/><path fill="#fff" d="M125.6 82.1l33.5-96.9-50.8 31.7 74.3-26.6zM192 108l-16-45-38 23z"/><path fill="#434343" d="M212.6 62.3l47.5-12.9-44.7 5.6 5.2 16.4z"/><path fill="#202020" d="M19.1 94.3L17.2 86 6.8 78.3l5.4 25.2z"/><path fill="#393939" d="M17.2 47.1l21.9-4.5-12.2 9.3 10.9 25.4z"/><path fill="#fff" d="M53.9 6.5l62.3-8.8-85.5-2.2 32.7 39.8z"/><path fill="#434343" d="M121.7 42.2l19.7 53L112.1 36l43.2-37.8z"/><path fill="#4c4c4c" d="M148 143l11-29-11-5z"/><path fill="#707070" d="M211.6 126.8l59.4-20.2-53.4 23.3-13.6 1.9z"/><path fill="#fff" d="M-2.4 8.5l49.3 92.7-4.5 2.3-49.3-92.7z"/><path fill="#101010" d="M45 46l-1 13 22-26z"/><path fill="#fff" d="M-16 120l35 3-15 13z"/><path fill="#faf9fa" d="M112.8 158l-60.5-39.7L27.9 107l-14.3-1.3z"/><circle cx="218" cy="36" r="4"/><path fill="#fafafb" d="M151.2 119.4l12.2-1.8-15.8 10.6L90.7-4.2z"/><path fill="#fff" d="M-7.2 103.2l26.4-35.6L-16 41.1l27.2 54.7z"/><path fill="#252525" d="M135 24h20l-31 13z"/><circle r="1" fill="#f5ffa8" transform="matrix(3.19506 8.32288 -27.1835 10.43543 184 50.6)"/><path fill="#484848" d="M131.4 96.4l-.4-1 35.6-15.8.4 1z"/><path fill="#f8fce4" d="M122.8 57.9L91.9 35.4l57.8-13.3-43.7 4.5z"/><circle cx="204" cy="84" r="4"/><path fill="#272727" d="M68 5l8 18-19-11z"/><circle cx="100" cy="109" r="4"/><path d="M58 138h9v5h-9z"/><path fill="#fffffa" d="M168.4 17.3l-44.6 30.1-27 31.3 14.3-28.5z"/><path fill="#100f11" d="M64.4 112.4l-.8.6-18-21.4.8-.6z"/><path fill="#585858" d="M258.4 6.6l1.3 3.8-30 11-1.4-3.8z"/><circle r="1" fill="#fff" transform="matrix(-14.50245 -16.74209 51.09071 -44.25616 237.8 84.8)"/><path fill="#424341" d="M133.1 78.6l44.4-20.7-42.2 29.3 1.6-22.2z"/><path fill="#fff" d="M104.8 121.6L43.3 102l41.3 4.7 18.5 51.3z"/><circle r="1" fill="#fff" transform="matrix(-16.4157 4.15381 -3.94707 -15.59866 147.2 45.3)"/><path fill="#fff" d="M7 17.3L1.7-2.9l64 13.6-6.2-16.2z"/><path fill="#2e2e2e" d="M144 102l8-6-19-12z"/><ellipse cx="198" cy="69" rx="5" ry="3"/><path fill="#1c1c1c" d="M237 112h5v11h-5z"/><path fill="#616161" d="M59.4 48.1l-1.8-22.7-9.8 22.9-13.2-19.1z"/><path fill="#fbfcfa" d="M239.9-16l8 51.8L172 66.5l99-26.6z"/><path fill="#2f2f2f" d="M108 21l12-27-20 19z"/><circle r="1" fill="#fafafc" transform="matrix(-2.61186 -2.22286 13.82937 -16.24945 102.6 7.1)"/><path fill="#424438" d="M91.7 51.5l36.8 23-16.2-2.9-9.2-28.6z"/><path d="M245 46h5v8h-5z"/><ellipse cx="197" cy="6" fill="#f7ffd2" rx="19" ry="31"/><path fill="#252525" d="M39.1 67.8l-8.7 1.5-8.2-21.9 19.4 22.8z"/><path fill="#3e3e3f" d="M33.1 93l16.7 24.7-18.5-20-17.5 12.8z"/><path fill="#282828" d="M32 114l7 31-24-35z"/><path fill="#363636" d="M21.5 36.9l-17.2-25 4.2-7.6-21.3-.9z"/><circle r="1" fill="#f9ffc2" transform="matrix(-21.56349 12.05143 -1.42437 -2.5486 161.9 61.6)"/><path fill="#fffff7" d="M106.3 54.1l3.8 8-19.9-1.2 34.5 35.7z"/><path fill="#fff" d="M169.2 118.6l-6.4 39.4-9.2-21.5L271 147.4z"/><circle cx="108" cy="135" r="5" fill="#232223"/><path fill="#282829" d="M91 69.6l4-1 8 27.8-4 1z"/><path fill="#0f0f0f" d="M6.3 110.2l-9.5 12.5-1.5-18.8-11.3-9.4z"/><path fill="#fff" d="M69.6 27.5L28-13.9l30.4 44.8 6.9-22.3z"/><path fill="#fffeff" d="M98.7 114.9l11.1-2.5 24.7 45-5.4-6.7z"/><path fill="#0e0e0f" d="M211.2 28.5l1.9-6.7 5.7 1.7-1.9 6.7z"/><path fill="#fff" d="M29 12l-17 9 37 12z"/><path fill="#fcffe7" d="M84 52h8v30h-8z"/><path fill="#040304" d="M79 120l-8-9 1 9z"/><path fill="#3d3c42" d="M84 65l-7-13-26 34z"/><path fill="#1e1e1d" d="M119.7 105.4l6.5 26.2-3.9 1-6.5-26.2z"/><path fill="#252526" d="M187 75.2l-3.5 2-6.6-12.4 3.6-2z"/><circle r="1" fill="#2a2a2a" transform="matrix(.63048 -4.2283 2.11627 .31555 232.3 35.1)"/><circle r="1" fill="#fff" transform="matrix(8.18067 4.065 -1.77283 3.56777 38.5 57.5)"/><path fill="#171717" d="M173 100l-8 4 12 16z"/><path fill="#fff" d="M121.4 28.3L104.6 2l7.7 15.5 1.4 13.9z"/><path fill="#ebebed" d="M48.1 87.8l11.3 7.8L-.8 76.7l67.1-12.2z"/><path fill="#fff" d="M136.6 112.7l-29.3-22.3 9.6-5.3 9 42.9z"/></g></g></svg>