<svg xmlns="http://www.w3.org/2000/svg" viewBox="0 0 1200 681"><defs/><filter id="a"><feGaussianBlur stdDeviation="12"/></filter><rect width="100%" height="100%" fill="#394f34"/><g filter="url(#a)"><g fill-opacity=".5" transform="translate(2.3 2.3) scale(4.6875)"><circle cx="204" cy="80" r="232" fill="#fff"/><circle r="1" fill="#000700" transform="rotate(-44.7 130.9 -53.5) scale(35.54737 74.48963)"/><circle r="1" fill="#fff" transform="matrix(-146.8235 81.63358 -23.98936 -43.14648 209 131.2)"/><circle r="1" fill="#fff" transform="matrix(94.92967 120.20181 -23.11873 18.25808 5.1 92.6)"/><ellipse cx="203" fill="#fff" rx="144" ry="24"/><circle r="1" fill="#20370a" transform="matrix(.02887 -29.55158 57.98552 .05664 173 55.2)"/><circle r="1" fill="#fff" transform="matrix(7.33579 -24.3484 112.01983 33.7498 230 12.8)"/><circle r="1" fill="#fff" transform="rotate(148.1 81.9 92.4) scale(121.57507 40.69225)"/><path fill="#fff" d="M-54 38L51.3-33 68-8-37.3 63z"/><circle r="1" fill="#fff" transform="matrix(-30.80044 -68.95024 27.16713 -12.1357 29.3 132.1)"/><path fill="#fff" d="M70 0l32-9 10 73z"/><path fill="#234317" d="M-2.9 42.8L55 .6l19.7 12 32.5 44.8z"/><path fill="#1e3c17" d="M40.8 96.3l112.4 18.5-52.6 23.5-14.9 5.1z"/><ellipse cx="130" cy="27" fill="#1a3214" rx="26" ry="9"/><path fill="#fff" d="M144 93h112v52H144zM97-2l162 2 7 47z"/><circle r="1" fill="#fff" transform="matrix(18.02227 -19.56941 50.72746 46.71699 18 108.9)"/><path fill="#fff" d="M42.5-20.5L56 .5l-64.6 42-13.6-21z"/><path fill="#2d4a27" d="M89 143L73 12l76 103z"/><path fill="#2b431b" d="M184.3 84.5L165 97l-15.3-23.5L169 61z"/><path fill="#fff" d="M65.1 157.4l50.4-24.2L271 45.8 257.7 160z"/><circle r="1" fill="#fff" transform="rotate(-126.4 111.7 22.3) scale(155.77393 2.5308)"/><ellipse cx="136" cy="6" fill="#fff" rx="71" ry="13"/><path fill="#fff" d="M-16 13L88 160H-16z"/><path fill="#586a4c" d="M255.3 50.6L184 21.9l-78.1-3.2 32 79.3z"/><circle r="1" fill="#425935" transform="rotate(33.9 -63.5 79.2) scale(29.04314 18.11812)"/><path fill="#fff" d="M271 54l-18-70-95 28zM118.6 8L95.2 34 77.4 18l23.4-26z"/><circle r="1" fill="#27421e" transform="rotate(150.6 19 69.2) scale(5.80896 21.16534)"/><ellipse cx="64" cy="61" fill="#3c5731" rx="30" ry="48"/><path fill="#fff" d="M-34.2 18l83.9-54.5L68.2-8l-83.9 54.5zM230 103l-44 57-52-67z"/><circle r="1" fill="#eff0ef" transform="matrix(-.81614 .57786 -33.2409 -46.9478 147.2 75)"/><path fill="#3c5138" d="M77 139l4-118 68 95z"/><path fill="#405639" d="M-16 30.4l155.7 74.7L60.3 1.3.9 36.6z"/><path fill="#fff" d="M-16 160l119.5-8.3-36.7-19.4-68-98.9zM158.8-16H41.9l69.8 64.8-9.6-23.3z"/><path fill="#5b6c57" d="M141.3 97.9l-25-37.3-13-39.1L154.7 91z"/><path fill="#536348" d="M30.3 75.3l41.1-61.2L1.5 39.9 27.6 72z"/><ellipse cx="233" cy="92" fill="#fff" rx="37" ry="22"/><path fill="#4d5e3e" d="M179 56.2l13 28-29 13.6-13-28z"/><path fill="#fff" d="M60.9 160L271 144.8V44.9l-140.6 80.7z"/><ellipse cx="151" cy="8" fill="#fff" rx="50" ry="12"/><path fill="#416433" d="M209.5 40.2l53.2 15.4-76.5-3.6 3.7-16z"/><path fill="#505f4b" d="M110 18l68 5-37 37z"/><path fill="#7b7f6b" d="M142.2 43.8l.1-17.3 18.4 5.2 22.1 44.8z"/><path fill="#fff" d="M95-4l20 69L66-4zm77.9 114.2L152 79.4l3.1 8.3-16.3 20.2z"/><circle r="1" fill="#fff" transform="matrix(-47.03776 -20.89798 7.84176 -17.65046 248.6 25.4)"/><path fill="#707d71" d="M120.5 17.4l-11.6 1.2-1.8 10.2 5.5 34.5z"/><path fill="#304828" d="M144.1 60.4l19.1 15.1-12.3-24.7L119.1 32z"/><ellipse cx="127" cy="112" fill="#364735" rx="17" ry="12"/><path fill="#374e31" d="M156 88l-15 9 9-17z"/><path fill="#aab9ab" d="M157 81l-18-4-6 12z"/><path fill="#fff" d="M118.1 59.6l-2.9-.3L87 25.8 137.7 99z"/><circle r="1" fill="#fff" transform="matrix(52.28035 -21.6033 7.37473 17.84699 9.2 5.8)"/><ellipse cx="89" cy="100" fill="#3a5033" rx="33" ry="36"/><path fill="#2c4927" d="M56.8.4l-.4 6.3-3.1 30.6-19.4-18.7z"/><path fill="#fff" d="M261.4 160L271 48.1l-94.8 43.8L98.3 160z"/><path fill="#c2c0b2" d="M124 41l20 25-18-12z"/><path fill="#56674d" d="M115.4 59.8l26.6 38-8.9-41.7-23.7-7.2z"/><path fill="#57694c" d="M32.3 40.7l4.9 16.7-4.1 24.1L8.2 45.4z"/><path fill="#fff" d="M72.9 135.6L-4.9 30.2l.1 129.8 99.2-9.3z"/><path fill="#354e31" d="M120.7 18.4l-11.5-.2 1.9 6.2 28 6.3z"/><path fill="#a39f90" d="M216.5 72.1l-41.1-3.7 40.2 8.1-17.4-27.7z"/><path fill="#688361" d="M79.2 56l-.7.7-43.7-36.6.7-.8z"/><path fill="#33502e" d="M24.5 62.4l17.9 29.2L6.2 43.7l21 14.6z"/><path fill="#bab28b" d="M33 68l-3-5 10-5z"/><path fill="#fff" d="M192.5 174.2L80.7 14.4l.8-.6 111.8 159.8z"/><path fill="#516642" d="M240.5 61.4l13.4-13.8-114.7.3 89.5-8z"/><path fill="#315d28" d="M221 67l11-22-25 9z"/><ellipse cx="233" cy="55" fill="#c3b291" rx="4" ry="6"/><ellipse cx="165" cy="29" fill="#646f59" rx="28" ry="8"/><path fill="#33472b" d="M56.5 2l21.3 14.8-2.3 3.3L54.2 5z"/><circle r="1" fill="#fff" transform="rotate(14 59.8 659) scale(31.83826 15.72196)"/><circle cx="90" cy="117" r="25" fill="#3f523b"/><circle cx="85" cy="138" r="4" fill="#9cb09c"/><path fill="#98986a" d="M64 24l-9 5 2-13z"/><path fill="#fff" d="M148.9 114.5l-15.3-20 22 7.6 63.6-27.6z"/><path fill="#dddddb" d="M115 30h4v7h-4z"/><path fill="#3a5034" d="M57.9 1.8l-9 31.8 18.9 77.7-55.4-82.4z"/><path fill="#fff" d="M66.1 6.4L39.2-9.7l152.1 28-111.6-.1z"/><path fill="#fff" d="M271-16l-30 58-72-26z"/><path fill="#5a7255" d="M75.6 56.8L94 44.5l4.5 6.7L80 63.5z"/><path fill="#a5aa91" d="M190.3 69.3l-.2 1-28.4-5.6.2-1z"/><path fill="#3f5b2f" d="M175.2 92.5l8.9-13.6 8-31.4-32.8 40.9z"/><path fill="#fff" d="M94.9-16l13.3 69.1L52.6-16l57.2 42.6z"/><path fill="#6c7166" d="M112.6 29.3l15.3 18.9-10.1 10.6-6.6-6.1z"/><path fill="#11430f" d="M129 76l11 3-9 2z"/><ellipse cx="21" cy="46" fill="#808e78" rx="6" ry="4"/><ellipse cx="154" cy="101" fill="#fff" rx="8" ry="11"/><circle cx="142" cy="92" r="4" fill="#1e341d"/><path fill="#889180" d="M235.5 45.8l-.2 1-80.8-18.6.2-1z"/><path fill="#fff" d="M118.1 131.2L67.8 160l101.3-1.6 21.6-52.6zM45.2 97.5l-57.6-68.7L-4 160l78-23.4z"/><path fill="#395032" d="M59.5 118.2l11.8 4.7-23.2-84.2 1.8 64.7z"/><path fill="#4d5f4a" d="M88.6 97.1l34.7 32.5-22.2 4.7 28.1-30.1z"/><circle r="1" fill="#213327" transform="rotate(90.4 -10 112) scale(16.37626 4.36772)"/><path fill="#42533c" d="M166 24.4l4 1-14 52.2-4-1z"/><path fill="#fff" d="M60 132l72 28-146-14z"/></g></g></svg>