<svg xmlns="http://www.w3.org/2000/svg" viewBox="0 0 1200 616"><defs/><filter id="prefix__a"><feGaussianBlur stdDeviation="12"/></filter><rect width="100%" height="100%" fill="#626262"/><g filter="url(#prefix__a)"><g transform="translate(2.3 2.3) scale(4.6875)"><circle cx="149" cy="60" r="173" fill="#fff" fill-opacity=".5"/><circle cx="124" cy="60" r="155" fill="#fff" fill-opacity=".5"/><circle cx="142" cy="61" r="163" fill="#fff" fill-opacity=".5"/><circle cx="66" cy="71" r="214" fill="#fff" fill-opacity=".5"/><circle cx="72" cy="78" r="218" fill="#fff" fill-opacity=".5"/><ellipse cx="41" cy="52" fill="#fff" fill-opacity=".5" rx="51" ry="111"/><path fill="#efefef" fill-opacity=".5" d="M108.5 15.8l93.7 25.3-94.8-5.1-14.5-16.6z"/><path fill="#ececec" fill-opacity=".5" d="M13 56h171v5H13z"/><ellipse cx="232" cy="23" fill="#d4d4d4" fill-opacity=".5" rx="119" ry="1"/><circle r="1" fill="#fff" fill-opacity=".5" transform="matrix(.77553 -15.70655 105.65287 5.21674 186.4 7)"/><path fill="#fff" fill-opacity=".5" d="M124 146l-9-105 147-4z"/><ellipse cx="210" cy="58" fill="#f0f0f0" fill-opacity=".5" rx="255" ry="3"/><ellipse cx="148" cy="105" fill="#f3f3f3" fill-opacity=".5" rx="40" ry="7"/><path fill="#ededed" fill-opacity=".5" d="M92 54l3 35 19 1z"/><circle r="1" fill="#f5f5f5" fill-opacity=".5" transform="matrix(-1.24314 -6.22131 47.54383 -9.5002 90.7 115.5)"/><path fill="#fff" fill-opacity=".5" d="M146 106l97 33-209-2z"/><ellipse cx="20" cy="92" fill="#f0f0f0" fill-opacity=".5" rx="3" ry="34"/><path fill="#f3f3f3" fill-opacity=".5" d="M237.4 55.2l1.9 56.4L198 98.3l34.9-8.3z"/><ellipse cx="102" cy="47" fill="#fff" fill-opacity=".5" rx="212" ry="9"/><path fill="#eaeaea" fill-opacity=".5" d="M112 0h6v37h-6z"/><circle r="1" fill="#fff" fill-opacity=".5" transform="matrix(-88.75095 5.27278 -.72363 -12.18006 205.3 9.5)"/><ellipse cx="34" cy="14" fill="#e4e4e4" fill-opacity=".5" rx="49" ry="1"/><path fill="none" stroke="#c5c5c5" stroke-opacity=".5" stroke-width=".5" d="M95.2 84.8q.8-3.4 0-18.5"/><path fill="#eee" fill-opacity=".5" d="M138 32h46v8h-46z"/><path fill="#b6b6b6" fill-opacity=".5" d="M107.5 60.4l-13 .2v-1l13-.2z"/><ellipse cx="10" cy="27" fill="#fff" fill-opacity=".5" rx="7" ry="122"/><path fill="#fff" fill-opacity=".5" d="M243 21h8v106h-8zM83.3 109l-54.6 6.7-6-48.7 54.6-6.7zM179 61h51v28h-51z"/><circle r="1" fill="#fefefe" fill-opacity=".5" transform="rotate(-88.8 97.7 -71) scale(2.7258 70.79854)"/><path fill="#ececec" fill-opacity=".5" d="M192 39.2l-1.8-10.9 9.9-1.5 1.7 10.9z"/><path fill="#fff" fill-opacity=".5" d="M96 68h5v28h-5z"/><path fill="#eee" fill-opacity=".5" d="M117.5 38.7L64.2 25.5l1.8 6.2 51.3.5z"/><path fill="#f7f7f7" fill-opacity=".5" d="M172.3 100.4l77.3 20.7-3.9 14.5-77.3-20.7z"/><path fill="#ebebeb" fill-opacity=".5" d="M254 85h2v40h-2z"/><path fill="#dcdcdc" fill-opacity=".5" d="M94 17h2v13h-2z"/><path fill="#e2e2e2" fill-opacity=".5" d="M111 12.5v1H79v-1z"/><ellipse cx="122" cy="59" fill="#eaeaea" fill-opacity=".5" rx="119" ry="1"/><path fill="#fff" fill-opacity=".5" d="M5 0h16v60H5zm113 22l-1-38 141 26z"/><path fill="#e6e6e6" fill-opacity=".5" d="M99 88l8 2 1-10z"/><circle r="1" fill="#f2f2f2" fill-opacity=".5" transform="matrix(-.02737 -.99963 63.65341 -1.7431 210 37.9)"/><ellipse cx="68" cy="40" fill="#fff" fill-opacity=".5" rx="51" ry="8"/><path fill="#f3f3f3" fill-opacity=".5" d="M185 89h56v4h-56z"/><ellipse cx="45" cy="25" fill="#f7f7f7" fill-opacity=".5" rx="27" ry="4"/><path fill="#dedede" fill-opacity=".5" d="M96 18h21v2H96z"/><path fill="#e9e9e9" fill-opacity=".5" d="M149 24h5v12h-5z"/><path fill="#fff" fill-opacity=".5" d="M61 15h52v4H61zm59 29h70v15h-70z"/><path fill="#f3f3f3" fill-opacity=".5" d="M175.1 81.8l-13.7-5.3 2.7-21.7-6.2 25.9z"/><circle r="1" fill="#f4f4f4" fill-opacity=".5" transform="matrix(-36.73797 8.126 -.57661 -2.60688 85.3 110.9)"/><ellipse cx="148" cy="126" fill="#fff" fill-opacity=".5" rx="49" ry="12"/><path fill="#fff" fill-opacity=".5" d="M24.6 123l95.8-22.7 10.2-1.9-72.4-5.3zM204 24h52v12h-52z"/><ellipse cx="66" cy="5" fill="#fff" fill-opacity=".5" rx="45" ry="8"/><path fill="#c4c4c4" fill-opacity=".5" d="M95.2 63.5l.6 9h-1l-.6-9z"/><ellipse cx="133" cy="79" fill="#fff" fill-opacity=".5" rx="17" ry="19"/><path fill="#f4f4f4" fill-opacity=".5" d="M134.5 99.3L155 95l2.5 11.8L137 111z"/><path fill="#fff" fill-opacity=".5" d="M23 64h25v67H23z"/><path fill="#ebebeb" fill-opacity=".5" d="M85 31h54v2H85z"/><path fill="#dedede" fill-opacity=".5" d="M103 21h2v11h-2z"/><path fill="#e9e9e9" fill-opacity=".5" d="M21 56h1v69h-1z"/><ellipse cx="108" cy="73" fill="#e4e4e4" fill-opacity=".5" rx="1" ry="15"/><path fill="#fefefe" fill-opacity=".5" d="M222.6 131l-19.2-59.6 2.7 28.4 14.3-12.1z"/><path fill="#fff" fill-opacity=".5" d="M138 36h56v2h-56z"/><path fill="#f1f1f1" fill-opacity=".5" d="M236 53h20v5h-20z"/><ellipse cx="141" cy="28" fill="#fff" fill-opacity=".5" rx="10" ry="4"/><path fill="#e2e2e2" fill-opacity=".5" d="M235.5 56h1v32h-1z"/><path fill="#e3e3e3" fill-opacity=".5" d="M167 33h17v2h-17z"/><path fill="#fff" fill-opacity=".5" d="M109 15h4v37h-4zm136 28l14 34-19 36zM9.8 146l4.8-102.1-13 24-17.6 50.8z"/><path fill="#c6c6c6" fill-opacity=".5" d="M89 93h5v1h-5z"/><circle r="1" fill="#efefef" fill-opacity=".5" transform="matrix(14.40315 3.59186 -.24197 .97028 226.4 116)"/><path fill="#d4d4d4" fill-opacity=".5" d="M114.5 34h5v2h-5z"/><path fill="#d7d7d7" fill-opacity=".5" d="M94 19h14v2H94z"/><path fill="#fff" fill-opacity=".5" d="M56 61h34v37H56z"/><ellipse cx="227" cy="56" fill="#eaeaea" fill-opacity=".5" rx="27" ry="1"/><path fill="#ebebeb" fill-opacity=".5" d="M22 22h6v6h-6z"/><path fill="#f4f4f4" fill-opacity=".5" d="M200 88l5 32 16 13z"/><ellipse cx="111" fill="#e5e5e5" fill-opacity=".5" rx="1" ry="13"/><path fill="#fff" fill-opacity=".5" d="M182.1 86.1l-25.9 1.5 82.6 43.5-38.6-13.9z"/><path fill="#e4e4e4" fill-opacity=".5" d="M65.5 13.1v1l-43 .8v-1z"/><path fill="#f1f1f1" fill-opacity=".5" d="M52.5 57.5h1v61h-1z"/><path fill="#eee" fill-opacity=".5" d="M155.9 40.3l.8-16.8.1 8.5-34.2 4.8z"/><path fill="#c8c8c8" fill-opacity=".5" d="M92.3 65L91 63.7l.7-.7 1.3 1.5z"/><path fill="#fff" fill-opacity=".5" d="M157 25h15v8h-15z"/><path fill="#e6e6e6" fill-opacity=".5" d="M203 50.5l1 .1-1 7-1-.2z"/><path fill="#fdfdfd" fill-opacity=".5" d="M101.5 80.2l5.2 4.2 3.1-25.6-19.6 60.7z"/><path fill="#efefef" fill-opacity=".5" d="M151.8 84l1 .1-2.6 23.9-1-.1z"/><circle cx="109" cy="74" r="1" fill="#c2c2c2" fill-opacity=".5"/><path fill="#e0e0e0" fill-opacity=".5" d="M4 36l-11 1 4-3z"/><path fill="#f1f1f1" fill-opacity=".5" d="M18.7 51.8l11.9-1.5.7 6-11.9 1.4z"/><path fill="#f2f2f2" fill-opacity=".5" d="M215 101l20 6-4-20z"/><path fill="#fff" fill-opacity=".5" d="M225 53.1L45.5 54.9 8.6 29.3l46.8-.4z"/><path fill="#f0f0f0" fill-opacity=".5" d="M177.2 80.3l2.6-16.8 1 .2-2.6 16.8z"/><path fill="#fff" fill-opacity=".5" d="M182 61h46v27h-46z"/><path fill="#f7f7f7" fill-opacity=".5" d="M13 68h7v24h-7z"/><ellipse cx="50" cy="127" fill="#f2f2f2" fill-opacity=".5" rx="3" ry="14"/><circle cx="113" cy="36" r="1" fill="#b2b2b2" fill-opacity=".5"/></g></g></svg>