<svg xmlns="http://www.w3.org/2000/svg" viewBox="0 0 1200 961"><defs/><filter id="a"><feGaussianBlur stdDeviation="12"/></filter><rect width="100%" height="100%" fill="#444"/><g filter="url(#a)"><g fill-opacity=".5" transform="translate(2.3 2.3) scale(4.6875)"><circle r="1" fill="#fff" transform="rotate(54.8 74.5 244.3) scale(161.04465 47.09264)"/><circle r="1" transform="rotate(107 -41.3 103.3) scale(36.62104 164.23374)"/><circle r="1" fill="#0d0d0d" transform="matrix(-27.09788 -23.7224 53.4354 -61.03876 71.6 60.7)"/><path fill="#fff" d="M103 151.4l-82.3-25.1 2.3-7.7 82.3 25.1z"/><circle r="1" fill="#f5f5f5" transform="matrix(128.36527 160.342 -22.69076 18.16558 233.5 14)"/><circle r="1" fill="#747474" transform="matrix(-22.79641 18.54236 -76.43983 -93.97695 195.9 82)"/><circle r="1" fill="#fff" transform="matrix(1.69624 -4.8437 15.18144 5.31647 118.1 152.6)"/><path fill="#fff" d="M16-16L2 25 34-6z"/><circle r="1" fill="#020202" transform="matrix(.4679 -15.47103 76.3698 2.30967 20.9 110.3)"/><path d="M179 166L45 120l81 3z"/><path fill="#f2f2f2" d="M17.2 47.6l9 1-3.4 31.8-9-1z"/><ellipse cx="55" cy="10" fill="#fff" rx="7" ry="10"/><path fill="#030303" d="M194 157l-93-31 70 62z"/><path d="M27 15h20v63H27z"/><path fill="#cdcdcd" d="M26.7 175l5.4 20.2-6.8 1.8-5.4-20.2z"/><path d="M29 117L-4 44l-12 171z"/><circle r="1" fill="#787878" transform="matrix(60.73189 85.14297 -12.70832 9.06476 201 78.2)"/><path fill="#f6f6f6" d="M47 123l26 18 30 1z"/><path fill="#b8b8b8" d="M1.7 32.8l7.1 14.1 12.7-21.4-15.4 9.8z"/><circle r="1" fill="#2c2c2c" transform="rotate(101.2 -1.5 81.6) scale(27.16398 52.52947)"/><ellipse cx="218" fill="#f1f1f1" rx="59" ry="11"/><path fill="#686868" d="M186 52.1l-14.4 109.7-19.6-5.2 17.3-118.1z"/><path fill="#212121" d="M113 110L141-1 50-16z"/><path d="M38 159l100 31-39-40zM28.5 23.6l15-39.6-9.1 14.6L2.9 27.8z"/><path fill="#939393" d="M77.2 33.5l8 15.4-25.5.1 18.8-10.4z"/><path fill="#fff" d="M116 151h18v7h-18z"/><path fill="#e6e6e6" d="M114.7 145.4l24.5 11.2-30.9-3.1-74.2-28.7z"/><path fill="#111" d="M12.3 44.9L57.8-5.9 16.7 58-16 133.4z"/><path d="M9 196h133v9H9z"/><path fill="#fff" d="M10 14L6-16h40z"/><path fill="#585858" d="M233 95l-3 45-130-13z"/><path fill="#626262" d="M47 59l29 14-28 20z"/><path fill="#a1a1a1" d="M29 65l10-19-25 22z"/><circle r="1" fill="#ababab" transform="matrix(24.60765 34.41052 -13.4177 9.59527 215.4 38.7)"/><circle r="1" transform="matrix(.0957 -11.6533 4.61868 .03793 177.7 144.6)"/><path fill="#fff" d="M48 14h14v6H48z"/><path fill="#515151" d="M116.2 197.4l38.2-5.2-65.2-9.5 50.5 29.7z"/><circle r="1" fill="#656565" transform="matrix(15.81752 -16.5833 14.22414 13.5673 230.2 164)"/><path fill="#373737" d="M133 212.1l42.4-29.3 42.4-73.1-23.1 103.5z"/><path fill="#fafafa" d="M59 134l-36-6 23-5z"/><path fill="#909090" d="M49 28l7 17-9 3z"/><path fill="#fff" d="M28.2 29.2l-6 .6-.4-5 6-.6z"/><path fill="#787878" d="M15 77h24v11H15z"/><path fill="#131313" d="M111.1 20.9L82 74.6l-.9-38.1L54.4 6.3z"/><path d="M30 164h18v41H30zm46-43l79 19-48 3z"/><ellipse cx="152" cy="173" fill="#101010" rx="24" ry="20"/><ellipse cx="44" cy="4" rx="3" ry="93"/><path fill="#161616" d="M45.2 92.6l3.3 31.8-47.7 5-3.3-31.8z"/><path fill="#c4c4c4" d="M18 52l9-10-8 28z"/><path fill="#e3e3e3" d="M11 34L5 53l9-14z"/><path fill="#434343" d="M27.2 56.9l-43.2 6 56.6-11.7-3 31.6z"/><circle cx="121" cy="84" r="5" fill="#969696"/><path fill="#474747" d="M49.2 156l5.2-21.6-70.4 17.8 57.4-6.9z"/><path d="M209 114h5v14h-5z"/><ellipse cx="57" cy="82" fill="#212121" rx="7" ry="46"/><path fill="#e1e1e1" d="M69.7 69.2l.6 5-6 .6-.6-5z"/><circle cx="37" cy="12" r="4" fill="#b2b2b2"/><path fill="#010101" d="M52 146h37v18H52z"/><path fill="#0d0d0d" d="M15.3 5.9l-1.4 14.7-4.7 11.1 15.6-17.1z"/><path fill="#979797" d="M74-13v26h-4v-26z"/><path fill="#626262" d="M183.4 89.4l-47.5 21.1-5.3-11.9 47.5-21.1z"/><path fill="#b3b3b3" d="M51 60h11v3H51z"/><path fill="#434343" d="M250 52l21-14V14z"/><path fill="#464646" d="M145.9 48.6L174 89.5l-28-1.3L99.5-16z"/><path d="M43 0h10v7H43z"/><ellipse cx="203" cy="122" fill="#797979" rx="5" ry="19"/><path fill="#010101" d="M69.8 68.8L56.4 50.3 90 58.5l.3-1.9z"/><path fill="#656565" d="M205 132l-27 29 8-26z"/><path fill="#696969" d="M34 206.7l-19.9-24.1 6.7-5.2L31 190.5z"/><path fill="#272727" d="M145 107l44 13-38 1z"/><path fill="#646464" d="M148.6 207.8l-4.1 12.2 73.7-81.7-36.3 36.7z"/><path fill="#9c9c9c" d="M237.9 108.6l-22.4 23.6 6.1-18.7 8.4 10.1z"/><path fill="#fafafa" d="M17 61l14 2-10-6z"/><circle r="1" fill="#212121" transform="matrix(3.37125 9.7432 -23.65699 8.18557 246.6 204)"/><path fill="#292929" d="M45.4 54.9L16.2 69.5l8.4 7.5-9.5 33.3z"/><path fill="#e1e1e1" d="M130.4 160l-15.1-5.7-84.1-25.7 84.2 17.4z"/><circle r="1" fill="#232323" transform="matrix(22.21584 13.92527 -3.40156 5.42671 123 166.9)"/><path fill="#0c0c0c" d="M210.6 143.5l-34.4 32-4.8-5 34.4-32z"/><path fill="#b6b6b6" d="M12.5 62l8.4 9.1 2.6-5-7.8-8.5z"/><ellipse cx="28" cy="135" rx="21" ry="3"/><path fill="#fff" d="M56 4l-7-20L60-6z"/><path fill="#0f0f0f" d="M10.3 55.5l4.8-23.1 41.8 14.7-19.2-19.9z"/><path fill="#212121" d="M229.2 109.9l.1-13.8.6 19.6-21.2-7.4z"/><path fill="#a1a1a1" d="M247 23l-29 52-15-7z"/><ellipse cx="104" cy="190" fill="#565656" rx="20" ry="4"/><path fill="#2e2e2e" d="M5.1 28.3L11 39.5l-19-18 4.6-31.3z"/><path fill="#858585" d="M83.2 36.3L81 40.7 73.9 52l.6-15.5z"/><path d="M132.5 159.8l1.3-3.8 23.7 8.2-1.3 3.8z"/><path fill="#c2c2c2" d="M7 55.2l-2-.7 12-29.7 2 .7z"/><path fill="#272727" d="M101 42l31 71-83 12z"/><path fill="gray" d="M235 92h18v62h-18z"/><path fill="#828282" d="M192.3 77.3l33-.6.4 28-33 .6z"/><ellipse cx="6" cy="167" fill="#080808" rx="29" ry="11"/><ellipse cx="4" cy="33" fill="#fff" rx="1" ry="8"/><circle r="1" fill="#232323" transform="rotate(101 -11 20.7) scale(19.97733 1)"/><path fill="#f2f2f2" d="M-16-10l39.3-3.5-15 28.2L29 2.4z"/><path fill="#525252" d="M.3 197.3l10.4-15.9 5 3.3-10.4 15.9z"/><path fill="#040404" d="M69.6 177.6l20.4 2.7-59.3-17.5 11.1 17.7z"/></g></g></svg>