<svg xmlns="http://www.w3.org/2000/svg" viewBox="0 0 1200 995"><defs/><filter id="a"><feGaussianBlur stdDeviation="12"/></filter><rect width="100%" height="100%" fill="#45463c"/><g filter="url(#a)"><g fill-opacity=".5" transform="translate(2.3 2.3) scale(4.6875)"><circle r="1" fill="#fff" transform="rotate(73.4 -22 132.6) scale(160.06578 199.47601)"/><circle r="1" fill="#e2e6c2" transform="matrix(152.7185 -146.45177 41.93375 43.72811 157.2 82.3)"/><path fill="#dde5d1" d="M223 181l48-84L135-14z"/><circle r="1" fill="#9c9e72" transform="matrix(-19.73147 -14.50662 43.24002 -58.81378 152.3 163.9)"/><circle r="1" fill="#eef4ee" transform="rotate(70.3 -13.9 134.8) scale(21.16157 29.46767)"/><circle r="1" fill="#9e926b" transform="matrix(-.11899 78.33702 -22.79811 -.03463 255 0)"/><circle cx="6" cy="99" r="75" fill="#a9a67c"/><circle r="1" fill="#c3c7b3" transform="rotate(40.2 9.7 176.1) scale(29.39759 115.62481)"/><path fill="#faf6db" d="M188.7 216.4l-27-33.4 11.6-9.4 27 33.4z"/><path fill="#dcdbc4" d="M81 113h75v32H81z"/><ellipse cx="249" cy="167" fill="#b4a873" rx="16" ry="48"/><path fill="#a4a89a" d="M102 30l76 35-14 51z"/><path fill="#959571" d="M146 143l72 77-3-63z"/><circle r="1" fill="#9b9576" transform="matrix(22.34938 -.13842 .61626 99.50235 0 102)"/><path fill="#d8ddd3" d="M127.6 1l15.2 32.6L118.4 45l-15.2-32.6z"/><ellipse cx="77" fill="#b5b498" rx="33" ry="76"/><ellipse cx="241" cy="61" fill="#bebc9c" rx="23" ry="34"/><circle r="1" fill="#ebede6" transform="rotate(69.6 46.1 182) scale(23.9138 16.52701)"/><circle cx="139" cy="12" r="5" fill="#3f3a30"/><circle r="1" fill="#dce2da" transform="matrix(-8.22528 -8.54733 28.20762 -27.1448 196 18)"/><path fill="#dbece2" d="M168.1 82.4l-6.6 2.3-17.6-51 6.6-2.4z"/><path fill="#d7dac7" d="M81.3 166.7L40.5 142l15.1 70.2L84.1 178z"/><circle r="1" fill="#a49f75" transform="matrix(13.54482 -18.10504 27.99759 20.94568 135.7 193)"/><path fill="#465259" d="M177 84l-13-32-1 14z"/><circle r="1" fill="#848061" transform="rotate(-31 151.7 -452.3) scale(12.34454 22.59669)"/><path fill="#494f54" d="M196.7 162.9l.5-4.6 7.7-4.4 15.7 7z"/><path fill="#81818d" d="M128 38h15v15h-15z"/><path fill="#edf2e2" d="M107 42l14 18-22 19z"/><path fill="#b4dcdf" d="M251.7 227l-36.3-66.4-6.4-7.8 35.7 74.2z"/><path fill="#aeb495" d="M138.9 105.2l-29.4 22.7L65 114.7l47.7 22z"/><path fill="#85888b" d="M185.5 99.1l7.9 21.6-17 6.2-7.8-21.6z"/><ellipse cx="90" cy="202" fill="#d4d7be" rx="14" ry="114"/><path fill="#88a467" d="M70 101l16.1-4.3-17.5 25.1 14.6.6z"/><path fill="#c2cbb7" d="M168 120h14v35h-14z"/><circle r="1" fill="#a3cfe3" transform="matrix(-1.48886 .66587 -62.01153 -138.65459 141.1 0)"/><ellipse cx="230" cy="115" fill="#cfd1b6" rx="38" ry="19"/><circle cx="58" cy="142" r="8" fill="#7d9e59"/><path fill="#bfb99c" d="M111 130l-13 85 46-72z"/><path fill="#7e7d83" d="M132 39l-9-15-7 7z"/><path fill="#e1ecdd" d="M169.4-16l-44.2 28.9L108.5-16l50.2 24.5z"/><path fill="#a5aaa3" d="M137.5 5.4l1.5-3.7 81.5 33-1.5 3.6z"/><circle r="1" fill="#abbbb4" transform="matrix(-2.01528 .92945 -48.30556 -104.73791 193.7 106.5)"/><path fill="#82867a" d="M158 76l-21 5 11 10z"/><path fill="#808961" d="M179.5 157.4L165 182.7l-7.9-30.5-9 9.9z"/><path fill="#b4b7a4" d="M244.7 164l-33.9 21.2-9.5-15.2 33.9-21.2z"/><path fill="#d5d1b5" d="M52 23L47-4l19 16z"/><path fill="#c0b794" d="M25.6 174.5L7.8 208.1l-27.4-14.6 17.8-33.6z"/><path fill="#cfcfb5" d="M170.7 207.2l-9.7-5.3 14.6-26.4 18.1 16.6z"/><path fill="#80a45b" d="M118.4 72.8l-12.5 14.4-2.3-2 12.5-14.4z"/><path fill="#86a069" d="M96 90l-5-9-13 2z"/><ellipse cy="105" fill="#928f72" rx="30" ry="23"/><path fill="#c59e48" d="M128.6 60.4l-.8.6-26.4-31.4.8-.6z"/><path fill="#c1bc9e" d="M255 113l-21 78-29-58z"/><path fill="#576160" d="M223 183.7l-20.9-41 .9-.4 20.9 41z"/><path fill="#929168" d="M195.3 219.8l-5.6 10.6-53-28.2 5.6-10.6z"/><path fill="#e2e6d9" d="M87.2 100.2l3.7 25.1 55.4-17.1-79.5-24.8z"/><path fill="#7a8d5d" d="M133 162l5 14 7-28z"/><path fill="#a8ab9d" d="M26 63l82 6-27-43z"/><path fill="#efeade" d="M144.4 168.7l.3-6 11 .6-.4 6z"/><path fill="#a99e6f" d="M181.2 127.8l3.1-3.9-44.4-37.5 18 19.9z"/><ellipse cx="68" cy="156" fill="#dae6e4" rx="4" ry="18"/><path fill="#95968b" d="M119.9 115.7l-1.4 8.7.9.1 16.7-6.6z"/><path fill="#e4cf97" d="M209 211l-1-9 17-9z"/><circle r="1" fill="#dad5c2" transform="rotate(141.4 48.4 92.6) scale(9.07156 17.92998)"/><path fill="#c9c5a7" d="M72.8 13L85 4.2 113.2 43 101 51.8z"/><path fill="#d2cc9f" d="M150.7 93.1l27.1 13.7-31.7 3.8 35.4 24.4z"/><circle r="1" fill="#999271" transform="matrix(8.34777 1.26248 -5.59176 36.97376 256.1 184)"/><circle r="1" fill="#a8a78c" transform="matrix(-26.69732 8.00958 -6.24436 -20.81354 21.4 16)"/><path fill="#b7ad6f" d="M202 150l-13 7-8-32z"/><circle r="1" fill="#aca890" transform="matrix(-22.36386 71.08434 -11.2553 -3.54103 39 98.4)"/><path fill="#c8a358" d="M115.5 43.3L65.7-16 68-3.7l31.9 29.3z"/><path fill="#fafff2" d="M112 20l-2 9 20-7z"/><path fill="#d2d9cf" d="M121.8 16.3l25.2 2.1 3.3 48.1L140 36.1z"/><ellipse cx="128" cy="74" fill="#dab77d" rx="5" ry="10"/><path fill="#96979c" d="M158 12l19-12-15 21z"/><path fill="#718789" d="M140.6 4.4l1-.4 21.8 51.6-1 .4z"/><path fill="#e0dec5" d="M77.4 111.1l-6.5 5.1-1.6 2.4L47 101.1z"/><circle r="1" fill="#bfbea3" transform="rotate(35.4 -277.4 246.7) scale(32.7402 9.15711)"/><path fill="#9a9b8e" d="M103.1 26l3.5-3.5-27 13.1L108.5.1z"/><path fill="#979a8c" d="M184.8 137.5l-27.1-50.4 35.9 29.5 15.8 40.6z"/><path fill="#e3e6d8" d="M86.8 70.5l-2.3 16.1 1.6-6.8 56.5 34.9z"/><path fill="#89846d" d="M189 48h-7l1-6z"/><path fill="#d9dbc8" d="M227.2 37.4l-22.9 3 31.3 77.5-22.9-11.5z"/><path fill="#e2e6dc" d="M118 73l-27 49 58-20z"/><path fill="#e1dfcb" d="M161 182.7l-.8.4-11.3-27.8 1-.4z"/><path fill="#c7c4b1" d="M52 189l-22-74 24 33z"/><circle r="1" fill="#60554b" transform="matrix(-3.26492 -4.58325 1.59503 -1.13623 150.8 171.4)"/><circle r="1" fill="#afd7e6" transform="matrix(1.62507 -.72848 20.8294 46.46577 192.3 110.8)"/><path fill="#93958b" d="M72.9 37.2l10.8 1.1L69 24.2 18.3 65z"/><path fill="#a0a1a4" d="M176.6 13l-1.1 5.9 6.9 2.7 12.5-32.4z"/><path fill="#cbd6db" d="M133 71l30-2-9-9z"/><path fill="#e8e9e0" d="M180.5 40L162 30l7.5-14 18.5 9.8z"/><path fill="#afaa8e" d="M247.9 55.8L271 45l-30.3 43.2-15.1 1.8z"/><path fill="#f5f6f8" d="M121 0h105v1H121z"/><path fill="#616152" d="M108 153h5v4h-5z"/><path fill="#96a86c" d="M174 131l-12-7-8 21z"/><path fill="#e4dfc7" d="M0 210h102v2H0z"/><path fill="#a5a497" d="M37.6 146.7l22.1-14.9L3 152.9l52.7 8.4z"/><path fill="#8e8b7a" d="M159 166h30v12h-30z"/><path fill="#b3bbaf" d="M125.7 109L141 73.1l-22.9 45.2-15.9 48z"/></g></g></svg>