<svg xmlns="http://www.w3.org/2000/svg" viewBox="0 0 1200 948"><defs/><filter id="a"><feGaussianBlur stdDeviation="12"/></filter><rect width="100%" height="100%" fill="#484848"/><g filter="url(#a)"><g fill-opacity=".5" transform="translate(2.3 2.3) scale(4.6875)"><circle r="1" fill="#fff" transform="matrix(-1.3638 47.60805 -243.7958 -6.9839 153.4 76.4)"/><circle cx="157" cy="171" r="79" fill="#8b8b8b"/><circle r="1" transform="rotate(96.3 -57 102) scale(70.65101 34.0327)"/><path fill="#fff" d="M271 183l-29-99v74zM122.6 34.3l86-1.5.8 41-86 1.4z"/><path d="M246 0h10v105h-10zM41 72h11v44H41z"/><circle r="1" fill="#ededed" transform="matrix(-12.07396 14.76846 -40.86267 -33.40727 69.3 68.3)"/><circle r="1" fill="#313131" transform="matrix(37.18953 28.22634 -10.02256 13.2052 197.5 127.2)"/><circle r="1" transform="matrix(-15.99334 -19.87004 58.90665 -47.41379 28.3 188)"/><circle r="1" fill="#c3c3c3" transform="matrix(11.31393 3.5239 -10.28442 33.01946 97.2 165.6)"/><ellipse cx="100" cy="23" fill="#707070" rx="122" ry="11"/><path fill="#020202" d="M205 63.6l39-16.8 23.9-2.8-47.6 20.9z"/><circle r="1" fill="#0e0e0e" transform="matrix(.13487 -5.27878 133.93892 3.42207 38.8 7.5)"/><ellipse cx="177" cy="166" fill="#939393" rx="62" ry="19"/><path d="M237 168h19v34h-19z"/><path fill="#dbdbdb" d="M175 72h75v21h-75z"/><path fill="#202020" d="M161 145l21 3-10-77z"/><ellipse cx="3" cy="94" fill="#b8b8b8" rx="39" ry="26"/><path d="M250 48h6v60h-6zm6.4-41.7l-14.5 24-34.3-20.6 14.5-24z"/><path fill="#070707" d="M210 57h5v91h-5z"/><path fill="#ccc" d="M58 34h27v88H58z"/><path fill="#040404" d="M224 118h17v39h-17z"/><ellipse cx="225" cy="39" fill="#dfdfdf" rx="203" ry="7"/><path fill="#747474" d="M108 68h22v109h-22z"/><path fill="#fff" d="M244 106h6v59h-6z"/><path fill="#cbcbcb" d="M195 38h12v93h-12z"/><circle r="1" fill="#9b9b9b" transform="rotate(106.8 6.5 114.8) scale(7.17372 50.68352)"/><path fill="#d3d3d3" d="M148 102h17v29h-17z"/><path d="M9.3 52.3l-8 15-10.6-5.6 8-15zM58 212.6l-69.5-8.5 5.5-44.7 69.5 8.5z"/><path fill="#363636" d="M126 67h47v4h-47z"/><path fill="#191919" d="M63.6 104.3L43.9 75.9 42 103.2l-58 35.1z"/><ellipse cx="121" cy="22" fill="#686868" rx="89" ry="11"/><path fill="#505050" d="M98.4 101.4l.1 25.4L35.8 113l29.8 50.3z"/><path fill="#bababa" d="M223 162l-27 36 56-42z"/><path fill="#191919" d="M195 59l-3 86h-1l3-86z"/><path fill="#f6f6f6" d="M244 73l-11 43-8-36z"/><path fill="#9f9f9f" d="M-16 8l9 49 28-28z"/><path fill="#a4a4a4" d="M2 134h20v8H2z"/><path fill="#777" d="M239 25h17v21h-17z"/><path fill="#fff" d="M129.6 70.4l9-.8 1.8 22-9 .8z"/><path fill="#030303" d="M232 140l4 17-55-25z"/><path fill="#919191" d="M214 81h13v55h-13z"/><path fill="#010101" d="M131 119h9v17h-9z"/><path fill="#090909" d="M124 101l18-6 19 5z"/><path fill="#4b4b4b" d="M106 188h134v14H106z"/><path d="M18.6 63.7v-1l18.8-2.4v1z"/><path fill="#030303" d="M79 132h11v28H79z"/><path fill="#d7d7d7" d="M72 66h4v84h-4z"/><circle r="1" fill="#999" transform="rotate(-87.1 151.6 -39) scale(19.83108 8.60283)"/><ellipse cx="193" cy="9" rx="255" ry="2"/><path fill="#7c7c7c" d="M71 53h50v11H71z"/><path fill="#bababa" d="M111 160l-37 4 16 15z"/><circle cx="20" r="25" fill="#1e1e1e"/><path fill="#6c6c6c" d="M10.4 146.5l-7.6 20.9-16.3 10.6 36.3-23.2z"/><path fill="#f5f5f5" d="M75 64h31v15H75z"/><path fill="#787878" d="M109 18h13v149h-13z"/><path d="M42 72h7v37h-7z"/><ellipse cx="156" cy="48" fill="#ededed" rx="36" ry="16"/><path d="M271 71l-12-29-23 10z"/><path fill="#212121" d="M166.2 109.4l10.3 27.3 31.1 8-43.7.6z"/><path fill="#cecece" d="M41 107V70l-11 37z"/><path fill="#8d8d8d" d="M187.5 201.4l34.1-45.9 5.6.1 14.2 24.7z"/><path fill="#fff" d="M77 57h24v4H77z"/><path fill="#696969" d="M58 119l-4-12-39 27z"/><path fill="#e0e0e0" d="M122 56h5v52h-5z"/><path fill="#d2d2d2" d="M232.5 31.1l-48.9 5 21.6 28.5 27-16.4z"/><circle r="1" fill="#696969" transform="matrix(10.24754 4.04877 -1.35949 3.4409 75.7 147.4)"/><path fill="#a5a5a5" d="M107.5 106.2l-9.7 60.4-23.3 17.3 3.6 21.6z"/><path fill="#cfcfcf" d="M24.1 58.1l109.1-8.2L25.4 35l-19 32.9z"/><path fill="#f4f4f4" d="M148 70h22v9h-22z"/><path fill="#070707" d="M43 124h28v15H43z"/><path fill="#5d5d5d" d="M107.5 128.3l-1-28 18-.6 1 28z"/><path fill="#e3e3e3" d="M174 77h15v21h-15z"/><path fill="#535353" d="M225.5 90.4l-2.2-5.1-1.5 58.7 6-12.8z"/><circle r="1" transform="rotate(-167.9 90.6 28.9) scale(1.64844 4.33341)"/><path fill="#3d3d3d" d="M30 31h178v2H30z"/><path fill="#282828" d="M141 68h2v34h-2z"/><path fill="#484848" d="M156 68h3v35h-3z"/><path d="M-16 146.6l32.8 1.6-31.5-22.7 25.7-3.3z"/><path fill="#e2e2e2" d="M38 34h22v39H38z"/><path fill="#c3c3c3" d="M58 79h44v32H58z"/><path fill="#b3b3b3" d="M140 102h23v30h-23z"/><path fill="#727272" d="M31.8 134.4l1 35.2 3.9-40.9 37.9-23.8z"/><path d="M24 111h7v88h-7zm237.7 111.1l-26.3-51.7 8.9-4.5 26.3 51.7z"/><path fill="#f1f1f1" d="M241 148h10v17h-10z"/><circle r="1" transform="matrix(55.8856 -21.6766 8.28354 21.35624 14.6 185)"/><path fill="#a3a3a3" d="M27.8 108.6l-8.2 9.8-30.9 7.8L.1 53.7z"/><path fill="#8d8d8d" d="M251 105h5v70h-5z"/><ellipse cx="114" cy="89" fill="#a2a2a2" rx="3" ry="57"/><path fill="#6f6f6f" d="M185.8 201.3l-30.4-64.9 31.3 15.8 36 23z"/><ellipse cx="2" cy="52" rx="10" ry="3"/><ellipse cx="87" cy="2" fill="#424242" rx="143" ry="7"/><path fill="#0b0b0b" d="M211 63h2v64h-2z"/><path fill="#aeaeae" d="M91 127h12v61H91z"/><ellipse cx="138" cy="24" fill="#747474" rx="52" ry="9"/><ellipse cx="204" cy="10" rx="249" ry="2"/></g></g></svg>