<svg xmlns="http://www.w3.org/2000/svg" viewBox="0 0 1200 780"><defs/><filter id="prefix__a"><feGaussianBlur stdDeviation="12"/></filter><rect width="100%" height="100%" fill="#576977"/><g filter="url(#prefix__a)"><g transform="translate(2.3 2.3) scale(4.6875)"><ellipse cx="112" cy="71" fill="#fff" fill-opacity=".5" rx="201" ry="142"/><circle cx="172" cy="98" r="208" fill="#fff" fill-opacity=".5"/><circle r="1" fill="#fff" fill-opacity=".5" transform="matrix(-174.94463 18.41619 -16.40928 -155.87999 144.5 74.6)"/><path fill="#1f90d5" fill-opacity=".5" d="M139.6 58.4L18.3 101.6l21.3-.7 179.6-64.6z"/><circle r="1" fill="#fff" fill-opacity=".5" transform="matrix(20.73597 59.21963 -151.23288 52.95474 180.1 118.5)"/><circle r="1" fill="#fff" fill-opacity=".5" transform="rotate(-117.8 26 16.5) scale(27.24045 55.55021)"/><circle r="1" fill="#fff" fill-opacity=".5" transform="matrix(.08779 25.14967 -76.51183 .26708 214 0)"/><circle r="1" fill="#fff" fill-opacity=".5" transform="matrix(10.57008 -26.61935 104.50364 41.49658 27.6 129.8)"/><path fill="#84b4cd" fill-opacity=".5" d="M125 8l30 9-38 11z"/><circle r="1" fill="#fff" fill-opacity=".5" transform="rotate(-63.8 214.3 -120.8) scale(91.64756 78.04169)"/><circle r="1" fill="#3999d4" fill-opacity=".5" transform="rotate(-107.5 45 25.2) scale(1 29.71583)"/><path fill="#8cc5e1" fill-opacity=".5" d="M143.6 113.8l-2.1 67.2-6.4-80.6 10.2 9.4z"/><circle r="1" fill="#628fac" fill-opacity=".5" transform="rotate(169.9 11.8 7.6) scale(59.98748 1)"/><path fill="#6ab5e2" fill-opacity=".5" d="M259.2 28.5l-25-3L81.3 82.2l150.5-48.1z"/><path fill="#86abca" fill-opacity=".5" d="M99.7 39.1L62.3 63.6l11-26.2 9.4 19.1z"/><path fill="#359edd" fill-opacity=".5" d="M31 91h16v12H31z"/><path fill="#fff" fill-opacity=".5" d="M62 65l82-47 69 16z"/><path fill="#7badca" fill-opacity=".5" d="M112.4 92l16.9-15.8-2.6 9.3L112 99z"/><path fill="#ceced3" fill-opacity=".5" d="M258.9 103l-68.2-13.5-75.9-22 69.7 30.4z"/><path fill="#97bbce" fill-opacity=".5" d="M92.8 7.7l37.1 3.1-59.5-14 10.8 17.7z"/><path fill="#69a8d0" fill-opacity=".5" d="M124.3 9.7L193 30.4l62.2-1.4-53.9-1.2z"/><path fill="#6caad1" fill-opacity=".5" d="M71 72h43v6H71z"/><path fill="#81b2c7" fill-opacity=".5" d="M15.4 154.8l-19.9 4.3 39.7 7.4-15.4-7z"/><path fill="#fff" fill-opacity=".5" d="M139 5.6L73.2 2.2 6 16.7-16-16z"/><ellipse cx="244" cy="6" fill="#fff" fill-opacity=".5" rx="99" ry="22"/><path fill="#a2c3d3" fill-opacity=".5" d="M88 26l13 37-1-36z"/><path fill="#83badd" fill-opacity=".5" d="M59.4 69.5l17.8-19.6L47 69.5-3 86.9z"/><path fill="#fffefc" fill-opacity=".5" d="M122.9 181L-16 137.3l71.6-44L101 78.2z"/><path fill="#75abd0" fill-opacity=".5" d="M114.3 94.8l-.6 1.1 7.4 6.6 18 1.1z"/><path fill="#dddbd4" fill-opacity=".5" d="M235.1 26.1l-33.3 61.5-6.2 16.3L219.1 71z"/><path fill="#4f88b1" fill-opacity=".5" d="M100 3.5v1l-38 2v-1z"/><path fill="#fff" fill-opacity=".5" d="M-16 44.7L95.8 8.1l-7.7-3.5 50.1 11.1z"/><path fill="#58a4d8" fill-opacity=".5" d="M157.3 54.8l-129 48.4 8-9.5 49.6-16.5z"/><path fill="#fff" fill-opacity=".5" d="M79.5 31.5L104.9 3 72.7 47.1l128.4-7.4z"/><circle r="1" fill="#918696" fill-opacity=".5" transform="matrix(.43079 1.3348 -5.46634 1.76418 250 77.5)"/><path fill="#c3aea9" fill-opacity=".5" d="M137 75l-17-21 4-13z"/><path fill="#cfccc4" fill-opacity=".5" d="M75 111h47v4H75z"/><circle r="1" fill="#fffffd" fill-opacity=".5" transform="matrix(2.107 -26.87888 44.79465 3.5114 20.1 46.5)"/><path fill="#fffffc" fill-opacity=".5" d="M52.7 70.4l-45.8 28 49.8-11 29.8-35.3z"/><circle r="1" fill="#85aac2" fill-opacity=".5" transform="matrix(-44.5858 8.90912 -.25965 -1.29944 23.4 13.7)"/><path fill="#8cc7e3" fill-opacity=".5" d="M137.8 122.4l2.4 35.2-3.2 16.6 9.1-20.6z"/><path fill="#fff" fill-opacity=".5" d="M228 31h28v44h-28z"/><path fill="#5ba5d4" fill-opacity=".5" d="M104.6 62.7l13.7 32.2-1 .4-13.6-32.2z"/><path fill="#54a7db" fill-opacity=".5" d="M71 11h13v3H71z"/><path fill="#bab7bc" fill-opacity=".5" d="M238 80h4v19h-4z"/><path fill="#71b0d4" fill-opacity=".5" d="M180.6 25.5l.1-1 56.7 6-.1 1z"/><path fill="#9aa4b5" fill-opacity=".5" d="M98.4 48.1l-30.1 6.2 30.6-12.7-8.4-.6z"/><ellipse cx="234" cy="146" fill="#fff" fill-opacity=".5" rx="91" ry="46"/><path fill="#fff" fill-opacity=".5" d="M104.5 3.7l112.9 23.1L271 1.6 48.3-16z"/><circle r="1" fill="#a399a5" fill-opacity=".5" transform="matrix(13.28088 3.73309 -.2706 .9627 149.7 78.6)"/><path fill="#afacb8" fill-opacity=".5" d="M212.9 91l-27.8 6.6-27.9-17.7 21.5 18z"/><path fill="#529cc7" fill-opacity=".5" d="M84.8 12l9.5-16.5.9.5-9.5 16.5z"/><path fill="#92c1d9" fill-opacity=".5" d="M119 18h22v9h-22z"/><path fill="#fffffc" fill-opacity=".5" d="M138.5 60.5L87 42.4l62.8-20.9 52.9 13.9z"/><path fill="#e7ac97" fill-opacity=".5" d="M36.4 40.3l.3 1-45 16.4-.4-1z"/><path fill="#3f8ec3" fill-opacity=".5" d="M3 158h15v2H3z"/><path fill="#89bdd5" fill-opacity=".5" d="M69 14.9l22.1-25.8-19.3 25.3 7 23z"/><path fill="#e8ddd5" fill-opacity=".5" d="M132 57l-31-7 54-10z"/><path fill="#fff" fill-opacity=".5" d="M142.1 67.3l100.2-37.8-113.5 65 51.4 6.3z"/><path fill="#516c9b" fill-opacity=".5" d="M208 95l-.4 1-9.5-3 .3-1z"/><circle r="1" fill="#fffffe" fill-opacity=".5" transform="matrix(9.75144 4.44399 -6.65868 14.61114 128.4 119.2)"/><path fill="#fffffb" fill-opacity=".5" d="M-11 149l46-60-51-2z"/><path fill="#edeeea" fill-opacity=".5" d="M75.7 83.4l-22.2 36-5.5 15.4-30.5.1z"/><path fill="none" stroke="#89a0b9" stroke-opacity=".5" stroke-width=".5" d="M168.5 88.4q-22-18.9-48.6-7.2"/><path fill="#b4d8e1" fill-opacity=".5" d="M95 41l-2-11 28-6z"/><path fill="#cba297" fill-opacity=".5" d="M76.8 37.6l.1 1-31.7 3.8-.1-1z"/><path fill="#56b3e5" fill-opacity=".5" d="M-3.3 88L31 77l.3 1L-3 89z"/><path fill="#fff" fill-opacity=".5" d="M68.4 22.4L9.4 38 5.7 23.6 64.6 8z"/><circle r="1" fill="#fff" fill-opacity=".5" transform="matrix(34.0326 -10.35304 3.46899 11.4033 25.5 0)"/><path fill="#89b5d4" fill-opacity=".5" d="M77.1 32.2L59.4 67.7l15.2-17.4-.7 2.6z"/><path fill="#6b6374" fill-opacity=".5" d="M89.2 45.7l.3-1 9.3 3.6-.3 1z"/><path fill="#fff" fill-opacity=".5" d="M70.1 48.5l-5.6 11.3-79.2 29 13.1-34.6z"/><path fill="#c4bfb3" fill-opacity=".5" d="M206.8 82.8l17.5-36 1 .4-17.6 36z"/><path fill="#5ba5de" fill-opacity=".5" d="M144 108l-11-5 6-1z"/><ellipse cx="102" cy="19" fill="#fff" fill-opacity=".5" rx="17" ry="9"/><circle r="1" fill="#fffffe" fill-opacity=".5" transform="matrix(-13.46373 -30.67124 27.71385 -12.16553 171.7 133.1)"/><path fill="#50a3de" fill-opacity=".5" d="M50.7 70.6l-.5-.9 17.1-10.3.5.9z"/><ellipse cx="93" cy="30" fill="#88b2ca" fill-opacity=".5" rx="6" ry="4"/><circle r="1" fill="#fff" fill-opacity=".5" transform="rotate(-148.7 126.8 -.1) scale(13.76151 36.84585)"/><circle cx="87" cy="140" r="28" fill="#fff" fill-opacity=".5"/><path fill="#6fb6e3" fill-opacity=".5" d="M221.9 32.6l-52.3 16.3L107 73l61.1-16.1z"/><path fill="#dedcd6" fill-opacity=".5" d="M27.7 113.9L9.5 93.5l-2.9-1.2 7.2 15.2z"/><path fill="#91afc2" fill-opacity=".5" d="M141.1 14.5l-.6 2-27.6-9 .6-2z"/><path fill="#fffffb" fill-opacity=".5" d="M67.5 7.6l67.9 9.7 72.8 26.1-67.6-28.1z"/><circle r="1" fill="#fcf9f0" fill-opacity=".5" transform="matrix(6.10387 -2.69213 4.78665 10.8528 89.8 64.1)"/><ellipse cx="226" cy="99" fill="#acadbd" fill-opacity=".5" rx="13" ry="2"/><circle cx="147" cy="92" r="14" fill="#fff" fill-opacity=".5"/><path fill="#fff" fill-opacity=".5" d="M73 49l17-4-8-20z"/><path fill="#fffffe" fill-opacity=".5" d="M166.9 85.7l14.2 9.1 52.4-61.1L152 66.6z"/><ellipse cx="255" cy="29" fill="#6ab0da" fill-opacity=".5" rx="21" ry="2"/><ellipse cx="85" cy="97" fill="#f6f6f2" fill-opacity=".5" rx="31" ry="10"/><circle r="1" fill="#65768f" fill-opacity=".5" transform="matrix(3.69375 4.76196 -.79016 .6129 129.2 64)"/><path fill="#4b91c5" fill-opacity=".5" d="M127.4 83.4l-10.2 8-.6-.8 10.2-8z"/><path fill="#5976a1" fill-opacity=".5" d="M250 76h6v2h-6z"/><path fill="#7cb7db" fill-opacity=".5" d="M182.9 28l-42-13 .2-1 42 13z"/><path fill="#b8c2c1" fill-opacity=".5" d="M97 72v-8l16 3z"/><ellipse cx="186" cy="33" fill="#fff" fill-opacity=".5" rx="28" ry="5"/><circle cx="111" cy="59" r="8" fill="#fff" fill-opacity=".5"/><path fill="#fefefd" fill-opacity=".5" d="M0 110h40v47H0z"/><path fill="#e5e7e2" fill-opacity=".5" d="M-16 123.4l10.3 6.2 47.2 1.1L7 138z"/></g></g></svg>