<svg xmlns="http://www.w3.org/2000/svg" viewBox="0 0 1200 900"><defs/><filter id="a"><feGaussianBlur stdDeviation="12"/></filter><rect width="100%" height="100%" fill="#423a2d"/><g filter="url(#a)"><g fill-opacity=".5" transform="translate(2.3 2.3) scale(4.6875)"><circle r="1" fill="#bac3cd" transform="matrix(-175.90683 -67.79669 37.82103 -98.13131 147.3 116.4)"/><circle r="1" fill="#1e1d16" transform="matrix(89.1853 -48.78871 15.9764 29.2047 41.1 93.5)"/><ellipse cx="185" cy="121" fill="#cdc8be" rx="49" ry="95"/><ellipse cx="115" cy="145" fill="#4c4b51" rx="57" ry="34"/><circle r="1" fill="#fffaf0" transform="rotate(-119.9 101.4 .3) scale(32.22815 18.72069)"/><circle r="1" fill="#171711" transform="matrix(8.95133 10.37021 -72.85518 62.8869 19.2 126.2)"/><path fill="#d7d8cf" d="M19.5 146.1l-9.2 17.3 31.3-23.9L95.5 76z"/><circle r="1" fill="#c5cae2" transform="rotate(-21.6 552.9 -183.7) scale(23.90053 22.06691)"/><path fill="#66655f" d="M186.1 106.8l-75.5-112L134-20.7l75.5 112z"/><path fill="#98abe0" d="M27.7 13.4l68.9-4.8 1.7 24-68.9 4.8z"/><circle r="1" transform="matrix(-5.31772 2.92607 -11.81834 -21.47822 0 25.6)"/><circle r="1" fill="#ece9dc" transform="matrix(-36.17103 65.98613 -4.92534 -2.69988 178.1 148.3)"/><ellipse cx="85" cy="125" fill="#484743" rx="30" ry="24"/><path fill="#e1e1dc" d="M183 4l35 57-43-22z"/><path fill="#fff" d="M152 47l2-18-23 20z"/><circle r="1" fill="#9e9d96" transform="matrix(-25.4262 -3.25717 10.79126 -84.239 237.2 122.5)"/><circle r="1" fill="#4d5052" transform="matrix(45.7597 8.10125 -4.46821 25.2386 140 8.8)"/><circle r="1" fill="#637084" transform="matrix(15.52307 .32516 -2.18071 104.10602 21.5 10.1)"/><path fill="#070a0b" d="M195 21l76-17-104-20z"/><path fill="#51493b" d="M186.4 13.4L233.3 6l28.4 36.6L218 58z"/><path fill="#69696a" d="M41 33h101v21H41z"/><path fill="#666158" d="M147.7 108.4l26.5 39.4-126.9-20.9L110.9 61z"/><path fill="#fff" d="M129.8 89l5.8-25.4 14.6 3.4-5.8 25.4z"/><circle r="1" fill="#4f586b" transform="matrix(25.91555 -11.7021 7.60827 16.84935 63.5 180)"/><circle r="1" fill="#d3cdc7" transform="matrix(-8.52956 -6.23277 13.80895 -18.89757 171 108.4)"/><path fill="#1c1d20" d="M128.4 199.5l26.2-40.3 5 3.3-26.2 40.3z"/><path fill="#fff" d="M42 149l-14-8 14-13z"/><path fill="#9a9daa" d="M146 174l-71-24 23 34z"/><path fill="#50493b" d="M74.3 81.1l57.4-40.8 7.3 32.9 16.5-17.8z"/><circle r="1" transform="rotate(135.5 -33.8 97.6) scale(7.47271 32.75125)"/><path fill="#1d1f14" d="M45.3 157.2l-22.9-1.1 10-10.7 13.9 14.5z"/><path fill="#737c77" d="M22 184l-34-21 54 11z"/><ellipse cx="130" cy="147" fill="#9f9ea6" rx="33" ry="5"/><circle r="1" fill="#22211f" transform="rotate(-60.2 94.7 -10.5) scale(15.74549 21.66688)"/><path fill="#4a4947" d="M133.6 81.7l-1.1-26L-16 54l138.2 20.3z"/><path fill="#000100" d="M12.9 41.4l5.4 6L-16 31.2l3.3-47.2z"/><circle r="1" fill="#c5c3bb" transform="rotate(-158.9 108.1 53) scale(9.90349 69.68959)"/><path fill="#636a6c" d="M27.2-6.8l-43.2.3 28 27.8L170.9-16z"/><circle r="1" fill="#757771" transform="rotate(-83.1 50.6 44.9) scale(44.9844 14.48225)"/><path fill="#fbfcf0" d="M188.1 44.5l-17.9-7.6 18.2-20.4-7.4 34.7z"/><path fill="#808fb1" d="M7.5 26.7L21 56.6l56.8-45.3-72.7 5.5z"/><path fill="#ebede9" d="M49.4 179.5l-34.9-26.7 23.4-16.2-15.4 19.6z"/><ellipse cx="160" fill="#13252e" rx="21" ry="12"/><path fill="#edeeed" d="M142.1 44.2l6.9-11.9 3.6 28 6.8 17.5z"/><path fill="#fffffb" d="M147.9 72.2l-14.4-11.1-.2 37L150 87z"/><path fill="#11120e" d="M-.3 146.6l21.8-23.4 8.8 8.2-21.8 23.4z"/><path fill="#787e82" d="M229 33l-19 57 61-33z"/><path fill="#3b3a42" d="M161 145l-62-12-1-25z"/><path fill="#efead1" d="M84 90l-10 1 17-11z"/><path fill="#afafb1" d="M175.8 64.4l22 24.5-9.6 8.7-22-24.5z"/><path fill="#726e65" d="M152 12h22v48h-22z"/><path fill="#a28d5d" d="M229 198l41-17-10-84z"/><path fill="#8b867e" d="M92 86l38-1 6 47z"/><path fill="#000107" d="M218.5-14l-6.3 35.4-18.7-3.3 6.3-35.5z"/><path fill="#9ba3bc" d="M40 22L94 4l4 41z"/><path fill="#636764" d="M0 106h55v7H0z"/><path fill="#e7e7e2" d="M167.6 132.6L153 113.7l5.5-4.3 14.7 18.9z"/><path fill="#61646a" d="M56.1 30.2L7 71.8l145.1-56.9-39.6 40.7z"/><circle r="1" fill="#9c9b8f" transform="rotate(46.5 -110.6 188) scale(35.70958 1)"/><path fill="#504738" d="M154 27l-20 7-17 27z"/><path fill="#9ca2a9" d="M42 185.6l-1.8-61.7 21.5 9.9-24 26z"/><circle r="1" fill="#5c5544" transform="rotate(-65.9 171.7 -103.4) scale(15.43465 3.08301)"/><path fill="#94938c" d="M181 5l7 7-26 5z"/><path d="M271 18.8l-26-7-9.9-22.6H271z"/><path fill="#fff" d="M138 55l-5 5 7-2z"/><ellipse cx="230" cy="132" fill="#9c9d9d" rx="15" ry="56"/><path fill="#5a3f18" d="M210.2 27.8l5.4-23.4 34.2 7.8-5.4 23.4z"/><path fill="#d4d0be" d="M144.8 186l-9.9 21 40.8-39-4.3-19.1z"/><circle r="1" fill="#e2e3dc" transform="rotate(-151.7 106.3 52.7) scale(1.73453 95.64419)"/><path fill="#5e606a" d="M91.6 149.8l74.3 1.7-5.3 14.2-56.3 6.2z"/><path d="M23.2 194.9L6.9 211.2l-24-24L-1 170.7z"/><path fill="#5d564a" d="M171.9 142.4l-13.5-17.3-38.7-30.4 46.7 54.3z"/><path fill="#9f9587" d="M121.2 83.8l15.6 9.7 18.9 33.1L111 76.5z"/><path fill="#969aa6" d="M142.5 167.7L131.9 185l-1.8 13-3.2-33.5z"/><path fill="#90908e" d="M271 141.3L201.4 39.5l3.3 47.6 19.8-41.4z"/><path fill="#393729" d="M29 108l4-10-34 1z"/><path fill="#1d221d" d="M57.3 195.5l-1.9 2.3-46.7-39.3 1.9-2.3z"/><ellipse cx="152" cy="15" fill="#7285b1" rx="7" ry="5"/><path fill="#2a2a22" d="M34.5 134.8l-42.8 29 20.2-48.9 36.3-1.8z"/><path fill="#211e15" d="M67.1 99l-3.4-3.7L107 55l3.4 3.6z"/><path fill="#f4edc1" d="M26.8 167.1l1-1L11.9 152l-.2 2.3z"/><path fill="#595a65" d="M155 145l-42-3-1-13z"/><path fill="#565a5f" d="M212 50l55-7-65-18z"/><path fill="#989da0" d="M82.5 123.7l-9.8-28.4 2.8-1 9.8 28.4z"/><path fill="#20231c" d="M71 102l-6 8 12 6z"/><path fill="#423b2b" d="M140 45h2v25h-2z"/><path fill="#b5b2ae" d="M217 83l-69 117 69-44z"/><path fill="#e4e5e1" d="M155.8 33.2l-18.1 16-9.5 4.1 23.5-20.6z"/><path fill="#797772" d="M68 36l54 13V27z"/><circle cx="32" cy="154" r="7" fill="#343224"/><path fill="#fff" d="M185.5 33.3l-8.6 6.9-4.4-5.5 8.6-6.9z"/><path fill="#717884" d="M62 132l-31 38 24 22z"/><path fill="#cdcdb6" d="M185 16l11 8-15-19z"/><path fill="#c4c0bb" d="M146.7 102.9l38-12.7 2.2 20.7-26.1 10.1z"/><path fill="#a4a18d" d="M0 91l18 8H6z"/><circle r="1" fill="#465267" transform="matrix(23.10581 -9.22816 2.01794 5.05258 34.3 57.3)"/><circle r="1" fill="#eceee9" transform="matrix(2.054 2.34626 -8.38727 7.3425 26.3 145.5)"/><path fill="#a5b1d1" d="M86 160h10v7H86z"/><path fill="#b6ae86" d="M184.7 129.5L140.5 207l43.9-89.5L205 91.1z"/><path fill="#636865" d="M-2-16l6 34L54 8z"/></g></g></svg>