<svg xmlns="http://www.w3.org/2000/svg" viewBox="0 0 959 1200"><defs/><filter id="a"><feGaussianBlur stdDeviation="12"/></filter><rect width="100%" height="100%" fill="#5d3d28"/><g filter="url(#a)"><g fill-opacity=".5" transform="translate(2.3 2.3) scale(4.6875)"><circle r="1" fill="#509ef6" transform="matrix(-57.2238 -84.19475 118.85746 -80.78264 87.7 38.7)"/><circle r="1" transform="matrix(198.1559 -44.08216 14.32472 64.39175 141.4 224.8)"/><circle r="1" fill="#002fc6" transform="matrix(-145.70222 1.96456 -.58724 -43.5525 118 .2)"/><circle r="1" fill="#b3a58e" transform="matrix(34.21772 -20.53896 43.06166 71.74035 66.2 120)"/><ellipse cx="185" cy="93" fill="#807e74" rx="101" ry="53"/><circle cx="23" cy="211" r="57" fill="#00010a"/><circle cx="159" cy="211" r="67" fill="#000109"/><circle r="1" fill="#e6dbcc" transform="matrix(8.4021 -26.10303 9.86262 3.1746 140.5 101)"/><path d="M145 127l-8 23-50-11z"/><circle r="1" fill="#46350e" transform="matrix(25.6105 -4.10214 2.32751 14.53114 19.3 134.8)"/><ellipse cx="184" cy="65" fill="#433931" rx="29" ry="30"/><circle r="1" fill="#0069d8" transform="matrix(-19.9234 -17.281 26.13757 -30.13418 113.1 26.5)"/><circle r="1" fill="#dccfc3" transform="matrix(-19.57384 -17.6048 13.49801 -15.00772 65.5 113.1)"/><ellipse cx="30" cy="37" fill="#421e00" rx="48" ry="7"/><circle r="1" fill="#cfe8f4" transform="matrix(11.7966 -15.2406 9.71367 7.51861 203 131.5)"/><circle r="1" fill="#b0a68e" transform="rotate(50 -135.7 180.6) scale(12.01009 34.38798)"/><circle r="1" fill="#0049b1" transform="matrix(1.4611 -21.07183 202.51375 14.04219 121 14.9)"/><path fill="#0a0e0b" d="M98.7 130l18.5-16.6-25.8-3.3-3.2 25.2z"/><path fill="#adb0b0" d="M128 62h37v68h-37z"/><path fill="#cdb2b9" d="M115 107.5h-14v-47h14z"/><path fill="#f9e4bc" d="M47 155l-38-8 42-6z"/><ellipse cx="180" cy="117" fill="#253c43" rx="14" ry="33"/><circle r="1" fill="#000e0b" transform="rotate(171.1 .9 90.4) scale(48.82357 23.28593)"/><path fill="#ffd6a2" d="M126 142h4v33h-4z"/><path fill="#070d29" d="M100 83.5H82v-19h18z"/><path fill="#00091d" d="M65 96l-9-26 8-7z"/><circle r="1" fill="#1e262f" transform="rotate(142.6 19.6 90.1) scale(27.02011 3.23743)"/><path fill="#c9b89f" d="M111 146h9v31h-9z"/><path fill="#13162d" d="M82 93h19v12H82z"/><path fill="#abb4c9" d="M37 45h19v50H37z"/><path fill="#4e463a" d="M119 59l21-3-12-31z"/><circle r="1" fill="#040c0c" transform="matrix(24.77234 48.4094 -124.09834 63.50433 141 227.4)"/><circle r="1" fill="#353f30" transform="matrix(3.01079 -15.7831 41.97 8.0062 88.5 203.8)"/><ellipse cx="187" cy="44" fill="#150603" rx="28" ry="5"/><path fill="#d1e7ff" d="M142 43l15 15-16-1z"/><circle r="1" fill="#003694" transform="matrix(65.27684 -10.10539 4.4125 28.50306 27.3 2.1)"/><circle r="1" fill="#040503" transform="matrix(16.88683 -2.34377 .97765 7.04394 119.4 137)"/><path fill="#003075" d="M159.5 109.5l-12 1-1-12 12-1z"/><path fill="#0087ee" d="M82 42h39v18H82z"/><path fill="#05162f" d="M30 55h7v22h-7z"/><ellipse cx="74" cy="92" fill="#b9a6a2" rx="9" ry="56"/><path fill="#a5a7ab" d="M56 102L8 82v39z"/><path fill="#0679dc" d="M131 19h49v21h-49z"/><path fill="#33280c" d="M0 94h7v44H0z"/><circle r="1" fill="#0e3a70" transform="rotate(67.8 -.6 131) scale(11.90134 6.15863)"/><path fill="#08120f" d="M137.5 176.4l35.9-42.3-11.8-1.2-7.5 6z"/><path fill="#8292a0" d="M111 208h21v6h-21z"/><path fill="#0b030b" d="M126 53h2v80h-2z"/><path fill="#c7bdbe" d="M114 99h7v31h-7z"/><path fill="#81736f" d="M168.9 39.3l-42.4 2.9 66.8 21.9L155 90.6z"/><path fill="#664e28" d="M39 38L29 11l-5 15z"/><path fill="#121a2b" d="M17 40h2v74h-2z"/><circle r="1" fill="#acc1ca" transform="matrix(1.60613 -22.26656 1.60687 .1159 67.6 164)"/><path fill="#968779" d="M44 132l14 27 54-28z"/><path fill="#000003" d="M30.3 92.4l-.6-6 8-.8.6 6z"/><path fill="#59763f" d="M106 175l5 20-63-5z"/><path fill="#beb3ae" d="M127 33h5v21h-5z"/><path fill="#ece3db" d="M0 54l1 56-17-56z"/><path fill="#d9ccbb" d="M148 126l-19-63 1 61z"/><path fill="#bb8e63" d="M145.2 155l4-7-5.5-13.2-.9 19.5z"/><path fill="#cdcac8" d="M59 60h78v2H59z"/><path fill="#fff" d="M196 144l7-2-11-14z"/><circle r="1" fill="#004cb8" transform="matrix(134.7641 -9.0819 1.58305 23.49052 159.4 5)"/><path fill="#7c6d73" d="M72 81l18 7-13-58z"/><path fill="#d6d0c3" d="M56 115h34v17H56z"/><path fill="#3f3922" d="M181.9 34.6l6.4 9.3 4.6-10.3-4.3-8.2z"/><path fill="#484a43" d="M12.1 165l12-53.8 24.2 29.2-20.6-.4z"/><path fill="#b99ea9" d="M100.6 96.4L70.3 84.5l-1.9 3 50.4-6.1z"/><path fill="#576260" d="M159.8 121.8l-14.8-4.2 57.2-21.9L219 38.8z"/><path fill="#9fa0a3" d="M99.7 111.6l-59-26.2-5.4 54.4 28.5-52.4z"/><circle r="1" fill="#050808" transform="matrix(-32.04362 -50.23865 24.7472 -15.78446 30.5 215.6)"/><path fill="#b3b0b4" d="M8 49h4v59H8z"/><ellipse cx="99" cy="107" fill="#d8d1c9" rx="19" ry="3"/><path fill="#010809" d="M116.5 135.9l6.3 35.3 1.1 45.6 3.3-99z"/><path fill="#030304" d="M73 197h96v12H73z"/><ellipse cx="2" cy="255" fill="#787f7e" rx="2" ry="27"/><path fill="#2d3332" d="M23 31h51v12H23z"/><path fill="#0c0903" d="M1 57h4v20H1z"/><path fill="#000001" d="M140 58l-11-5 10-3z"/><path fill="#333f3b" d="M170.4 111.7l30.6 8.8 6.6-18.5-45.8-3.8z"/><path d="M129 140h14v20h-14z"/><path fill="#8f4f34" d="M159 57l47-2-49-11z"/><path fill="#112a4c" d="M141 72h4v10h-4z"/><circle r="1" fill="#3e423e" transform="matrix(18.7956 -17.15483 1.55686 1.70577 61.3 159.3)"/><path fill="#202d3b" d="M57 65h7v25h-7z"/><ellipse cx="147" cy="41" fill="#673d20" rx="18" ry="2"/><path fill="#adb8cb" d="M20 77h31v9H20z"/><path fill="#958c7a" d="M33.1 139.7l-49.1-1.8 28.5 5.4 24.5-1.4z"/><path fill="#272a21" d="M14.3 143.8l-6.4-8.9-16.4-19.1L30.1 135z"/><path fill="#333732" d="M194.2 46.5l24.8-6.8-50.3 50.1 30-1.2z"/><path fill="#3d4b5c" d="M141 58h62v5h-62z"/><path fill="#fff" d="M192.8 118.4l.8-.5 7.6 11.7-.8.5z"/><path fill="#1f1d1e" d="M109.8 124.1l-6.5-7.4 8.4-6.1-25.7 1z"/><path fill="#565a54" d="M211.3 138l-36.9-25.2-38.4.4 2.8-.1z"/><path fill="#828484" d="M200.9 97.3L219 59.2l-72.9 7.2 51.8 2.8z"/><circle r="1" fill="#030404" transform="matrix(-31.0203 -3.64405 2.79465 -23.78968 146.6 191.4)"/><circle cx="34" cy="147" r="4" fill="#fff"/><path fill="#fff" d="M24 93h24v2H24z"/><path fill="#43464d" d="M70 39.9l-9.4-9.1L65.2 55l-22.1 9.2z"/><path fill="#bcb7b2" d="M64 96.1L89.9 118l-29.5 6.9-.5-47.3z"/></g></g></svg>