<svg xmlns="http://www.w3.org/2000/svg" viewBox="0 0 1200 359"><defs/><filter id="a"><feGaussianBlur stdDeviation="12"/></filter><rect width="100%" height="100%" fill="#713e27"/><g filter="url(#a)"><g fill-opacity=".5" transform="translate(2.3 2.3) scale(4.6875)"><circle cx="119" cy="34" r="153" fill="#fff"/><circle cx="103" cy="39" r="167" fill="#fff"/><circle cx="146" cy="59" r="148" fill="#fff"/><circle r="1" fill="#fff" transform="matrix(-.16777 -24.03094 161.8879 -1.1302 163.4 1.4)"/><ellipse cx="132" cy="27" fill="#9ea5a8" rx="216" ry="3"/><ellipse cx="36" cy="56" fill="#f7ffff" rx="107" ry="27"/><ellipse cx="173" fill="#fff" rx="99" ry="28"/><path fill="#bacba6" d="M145 43h57v19h-57z"/><ellipse cx="183" cy="74" fill="#faffff" rx="102" ry="14"/><path fill="#fbffff" d="M72 31h184v11H72z"/><path fill="#fff" d="M6 0h80v23H6z"/><ellipse cx="251" cy="25" fill="#a1a4a5" rx="17" ry="5"/><path fill="#b0b1b1" d="M0 24h130v6H0z"/><path fill="#ddddd8" d="M67.6 53.7L46.3 63.8l104.1-1.4-31.1-7.4z"/><ellipse cx="181" cy="18" fill="#fff" rx="48" ry="9"/><path fill="#f6f9f9" d="M38 12h12v15H38z"/><path fill="#a7b1b5" d="M-16 2.1L3 28.8l4.4-7.7L3.9 3.5z"/><circle r="1" fill="#ecf1f2" transform="matrix(-5.43588 -19.24156 32.33004 -9.13347 232.6 54.4)"/><path fill="#bac49c" d="M108 42h7v9h-7z"/><ellipse cx="110" cy="19" fill="#e3e5e5" rx="34" ry="5"/><circle r="1" fill="#fff" transform="matrix(-.17356 10.84229 -156.36053 -2.503 199.5 5.2)"/><path fill="#c8d3af" d="M146.7 43.9l-16-3.3 34.2 21.3-23.6-.6z"/><path fill="#e4e5e5" d="M61 38h114v5H61z"/><ellipse cx="151" cy="74" fill="#fff" rx="179" ry="2"/><path fill="#fff" d="M33 31h95v7H33z"/><path fill="#fcfefe" d="M156 45l52-2-12-13z"/><path fill="#b7b7b7" d="M211 24h45v6h-45z"/><path fill="#fff" d="M6 0h23v24H6zm201-16l-76 41 77 2z"/><path fill="#cecdf0" d="M168 51h16v10h-16z"/><path fill="#c8cda4" d="M202.3 48.6l-4.5 14-17.3-15.8 13.2-1.9z"/><path fill="#e7e7e8" d="M8 34h21v37H8z"/><path fill="#b9a085" d="M81 61h28v1H81z"/><ellipse cx="56" cy="30" fill="#d3d9db" rx="221" ry="1"/><ellipse cx="66" cy="46" fill="#fff" rx="42" ry="3"/><path fill="#fff" d="M0 31h6v45H0z"/><path fill="#b7b7b7" d="M110 23h20v4h-20z"/><path fill="#eaeaea" d="M144 62h99v10h-99z"/><path fill="#fff" d="M31.5 55.7l24.5-.1-17.3 20.7L23.1 91z"/><path fill="#eaeae9" d="M147 57.5l-24.4 11.7-21.1-1.3L151 44.1z"/><ellipse cx="36" cy="23" fill="#bcc1c2" rx="18" ry="1"/><ellipse cx="13" cy="32" fill="#fff" rx="255" ry="2"/><path fill="#c4d1a1" d="M157 46l-12 14h20z"/><path fill="#fff" d="M130 62h16v14h-16z"/><path fill="#f8f9ea" d="M162.2 35.3l4 .6-2.4 16.8-4-.6z"/><ellipse cx="204" cy="6" fill="#fff" rx="64" ry="19"/><path fill="#c3ca9f" d="M142 43h44v1h-44z"/><path fill="#b8b9b9" d="M245 20h11v9h-11z"/><path fill="#fff" d="M5.9 6.6L27.3 24l5.4-40H-16z"/><path fill="#eeefef" d="M150 44h41v2h-41z"/><path fill="#bfca9a" d="M63 53l-2 6 3 1z"/><path fill="#b6b6b6" d="M117 27h43v3h-43z"/><path fill="#e6e6e7" d="M24 49h53v6H24z"/><path fill="#b9c79a" d="M137 47.4v-5l6 .2v5z"/><path fill="#edeeee" d="M204 34h52v38h-52z"/><ellipse cx="176" cy="74" fill="#fff" rx="197" ry="2"/><path fill="#fff" d="M37-16l20 38 28 1z"/><path fill="#fdfeff" d="M135.8 47.5l1.1-4-23.3.1L135 59z"/><path fill="#b4b4b4" d="M139 28h108v2H139z"/><path fill="#d6d6d6" d="M113 18h24v2h-24z"/><path fill="#e9ebeb" d="M125 34h51v9h-51z"/><path fill="#fff" d="M-1.7-16L8.7 15.2 64.6 22l-44.1 1.4z"/><path fill="#f3f3f3" d="M38 0h11v27H38z"/><path fill="#c9d4a6" d="M165 47h37v3h-37z"/><path fill="#fefefe" d="M88.5 54.9l19.1-9.7-47.9-4.1 2.7 2.5z"/><path fill="#eaeaeb" d="M56 63h75v5H56z"/><path fill="#fff" d="M76 69h43v7H76z"/><path fill="#b4b4b5" d="M48.7 27.8l.6-5 12 1.4-.6 5z"/><path fill="#b4b6b7" d="M0 6h6v19H0z"/><path fill="#cbd3aa" d="M145.8 49.3l8.9-1.5 1.5 8.9-8.9 1.5z"/><path fill="#c8d2ac" d="M106.5 60.3l6.1-17 1 .4-6.2 17z"/><ellipse cx="47" cy="45" fill="#fff" rx="19" ry="3"/><ellipse cx="9" cy="24" fill="#adafb0" rx="28" ry="1"/><path fill="#c9c39d" d="M201 60l-14-1 12-6z"/><path fill="#bbb" d="M215 24h35v5h-35z"/><path fill="#f3f4f4" d="M76 11h38v13H76z"/><circle r="1" fill="#d4d3e0" transform="rotate(-151.7 100.4 4.8) scale(3.09454 7.14238)"/><path fill="#fff" d="M178 35h27v6h-27z"/><path fill="#f1f2f2" d="M130.6 10.6l-2.1 17.5 9.5-3.5 17.9-6.8z"/><path fill="#e4e5e5" d="M30 15h20v3H30z"/><ellipse cx="169" cy="27" fill="#d6d6d6" rx="19" ry="1"/><path fill="#fafafb" d="M94 43h15v10H94z"/><ellipse cx="140" cy="1" fill="#fff" rx="62" ry="13"/><ellipse cx="177" cy="24" fill="#fff" rx="37" ry="3"/><ellipse cx="107" cy="42" fill="#d8d7d8" rx="31" ry="1"/><path fill="#ebebec" d="M130 64l-8 8-16-23z"/><circle r="1" fill="#fffff5" transform="matrix(-2.04266 -.12853 .09932 -1.5785 163 50.3)"/><path fill="#f0f0f1" d="M129.3 56.4l-64 4.5.4-8.1L98.1 57z"/><ellipse cx="81" cy="62" fill="#e0dfdf" rx="52" ry="1"/><ellipse cx="215" cy="31" fill="#fff" rx="232" ry="1"/><path fill="#c3bca1" d="M146.1 61.3l-6 .4-.2-3 6-.4z"/><path fill="#bababa" d="M52 24h75v3H52z"/><path fill="#ededed" d="M33 53l-6-20-33 18z"/><path fill="#fefeff" d="M27 67.9l21.4-4.1-4.3-13.9 14.2 15.7z"/><path fill="#edeef0" d="M137 48h9v11h-9z"/><ellipse cx="79" cy="35" fill="#fff" rx="47" ry="2"/><path fill="#e9e9ea" d="M28 38h33v4H28z"/><path fill="#fff" d="M91.4-11.2L74.2 19.5 44.7 3.3 22-16z"/><circle cx="161" cy="50" r="3" fill="#ffffe7"/><path fill="#dfe1e1" d="M28.6 9.1l16.1-15 .7.8-16.1 15z"/></g></g></svg>