<svg xmlns="http://www.w3.org/2000/svg" viewBox="0 0 1200 842"><defs/><filter id="a"><feGaussianBlur stdDeviation="12"/></filter><rect width="100%" height="100%" fill="#5f5e5e"/><g filter="url(#a)"><g fill-opacity=".5" transform="translate(2.3 2.3) scale(4.6875)"><circle cx="123" cy="115" r="177" fill="#fff"/><circle r="1" fill="#fffffe" transform="matrix(114.42237 -154.70851 140.07987 103.60304 150.1 87.6)"/><circle r="1" fill="#92918c" transform="rotate(-68.3 104.7 -75.8) scale(37.12169 21.29811)"/><ellipse cx="135" cy="167" fill="#fff" rx="255" ry="16"/><path fill="#2e2f2f" d="M92 36h51v9H92z"/><ellipse cx="33" cy="61" fill="#b8b8b8" rx="36" ry="91"/><circle r="1" fill="#fff" transform="matrix(-102.20458 16.73664 -1.2028 -7.34508 173.3 82)"/><circle r="1" fill="#fff" transform="rotate(-89.9 153.1 23.2) scale(24.86284 239.19886)"/><path fill="#fff" d="M165.5 88.4l-9-101.6 14-1.2 9 101.6z"/><circle r="1" fill="#fff" transform="matrix(-2.04145 5.37414 -62.32793 -23.67616 53.8 85)"/><circle r="1" fill="#53534f" transform="matrix(8.49727 9.62908 -6.00328 5.29765 124.3 72.8)"/><path fill="#b7b6b4" d="M142 134l-91-13 150-38z"/><path fill="#a5a5a5" d="M177.6 49.3L172.5.6l17.9-2 5.1 48.8z"/><path fill="#fffacf" d="M87 45h30v64H87z"/><path fill="#ecede8" d="M129 44h22v25h-22z"/><circle r="1" fill="#b3b3b3" transform="matrix(-6.2792 17.8586 -30.41518 -10.69419 54.5 62.6)"/><path fill="#5b5c5d" d="M121 43h7v41h-7z"/><path fill="#a0a0a0" d="M208 83h48v8h-48z"/><path fill="#b5b5b6" d="M159 76l-27-92 28 1z"/><path fill="#e0e1e1" d="M64 7h80v28H64z"/><circle r="1" fill="#ebebeb" transform="matrix(-11.97468 -5.60935 13.9607 -29.80292 15.8 132.1)"/><path fill="#fff" d="M261.3 77.5l-101.6 9-1-12 101.6-9z"/><circle r="1" fill="#fff" transform="matrix(-59.03027 4.13208 -.35401 -5.05738 115 88.7)"/><path fill="#a8a8a8" d="M193 127.1l-.1-39.2-22.8 2.4 13.7 32.1z"/><path fill="#b4b4b3" d="M-16 100l8-38 121 62z"/><ellipse cx="166" cy="25" fill="#fff" rx="7" ry="42"/><circle r="1" fill="#aeaeae" transform="rotate(138.4 -3.8 20.3) scale(43.06188 12.6385)"/><ellipse cx="139" cy="176" fill="#fff" rx="255" ry="25"/><path fill="#a6a6a6" d="M208 103h11v29h-11z"/><circle cx="150" cy="65" r="13" fill="#adadaf"/><circle r="1" fill="#b0b0b0" transform="matrix(10.02895 21.8599 -9.32378 4.2776 255 46)"/><path fill="#fff" d="M80 99.4L15.7 77.2l2.3-6.6 64.3 22.2z"/><path fill="#b1b1b1" d="M89.9 82.7l-6.2 5.2-60.6-18L-16 26.6z"/><path fill="#fff" d="M162.6 56l-1.9-15.5L165-12l21.5 103.6z"/><path fill="#e2e2e2" d="M49.9 29.3L33.5 57 23.4 46.2l21.8-36.1z"/><path fill="#b1b1b1" d="M32 114h23v38H32z"/><path fill="#bbb" d="M271 171.4v-59.9l-44 6.2 4.2 3.3z"/><circle cx="167" cy="115" r="14" fill="#e5e5e6"/><path fill="#ededed" d="M120.7 142l1.6-23 15 1-1.6 23z"/><ellipse cx="100" cy="101" fill="#f3edc7" rx="36" ry="6"/><path fill="#fff" d="M4 57l29 19-49-16z"/><ellipse cx="114" cy="143" fill="#aaa" rx="6" ry="10"/><path fill="#b0b0b1" d="M141 120l-5-27 39 1z"/><path fill="#faf3ce" d="M94.5 82.7l25.1-24.5 1.4-2.3-2.4-13z"/><circle r="1" fill="#fff" transform="matrix(.28035 5.04669 -49.52711 2.75126 114.7 92.3)"/><path fill="#b5b5b5" d="M206.2 45.2l-28 7-4.4-17.4 28-7z"/><path fill="#fff" d="M111 194l160-43H-3z"/><path fill="#e7e7e7" d="M48-7l-64 39V10z"/><path fill="#62635d" d="M81 84.7l2.3-5.6 5.6 2.2-2.2 5.6z"/><path fill="#e4e4e4" d="M53 117h19v36H53z"/><path fill="#ebebeb" d="M68 52l5-29-18 26z"/><path fill="#eaeaea" d="M20 98h14v13H20z"/><path fill="#737474" d="M114 63l21 15-15 4z"/><path fill="#b1b1b0" d="M167.7 125.9l-15.4 9.5.2 8.1 7 1.6z"/><circle r="1" fill="#b2b2b2" transform="rotate(-70.7 54 -17) scale(28.82708 7.26756)"/><path fill="#fff" d="M121.6 94l-49.7 2.7 10.2 4.2-61.8-26.4z"/><circle r="1" fill="#c3c3c3" transform="matrix(16.40648 44.99748 -5.87823 2.14326 149.3 36.5)"/><path fill="#fff" d="M169.6 76.3L71.2 93l129.9-7.1-41.6-48.5z"/><circle r="1" fill="#b5b5b5" transform="matrix(-.63491 7.02632 -27.19757 -2.45763 255 86.9)"/><path fill="#dfdfdf" d="M216 146.7l-.2-28.3 31.7 6.9 7 8z"/><circle r="1" fill="#e2e2e2" transform="matrix(4.8191 13.39753 -27.63251 9.93943 216.4 56)"/><path fill="#afafae" d="M158.6-16L142.7 3.5 136 5.6l23 14.8z"/><circle r="1" fill="#abaca4" transform="rotate(-79.6 80.8 -21.7) scale(25.78753 1)"/><path fill="#e1e1e1" d="M186.3 16L271 26.8 223.9-16l-36.4 48z"/><path fill="#fff" d="M128 83.5l125.3-18.1 7.3 12.6-85.8 8z"/><path fill="#e2e2e2" d="M81.2-16L87 67.5l-10.3 7.9 3.8-15.9z"/><path fill="#b6b6b7" d="M196 108l-2-19-55 5z"/><path fill="#dbdbdb" d="M-16 150l43 1 8-42z"/><path fill="#b8b8b8" d="M-4 54l42 21-20-63z"/><path fill="#e3e3e5" d="M127.3 43.9l22 4.8-9 12.6-5.6 2.2z"/><path fill="#a6a6a6" d="M227 140h8v11h-8z"/><path fill="#b9b9b9" d="M87 112l58-8-62 32z"/><path fill="#ece9d3" d="M81 97l1 29 8-28z"/><path fill="#6d6d6d" d="M90 38h38v6H90z"/><path fill="#dcdcdc" d="M64 4h71v31H64z"/><path fill="#e1e1e1" d="M271 38.4l-81.9 13.1-8.2 30.4 29.6-47.3z"/><path fill="#b1b1b2" d="M145.4 113l-4.8 30.6-4-.6 4.8-30.6z"/><path fill="#b6b6b6" d="M14.7 72.9l-30.7-7v22.5l81.9 19.2z"/><path fill="#dcdcdc" d="M181.2 53.1L248 66.7l-70.8 8.8 5.8-1.1z"/><path fill="#787879" d="M113 35h29v7h-29z"/><path fill="#b8b8b8" d="M220.6 82.8l2.4 24.4 10.9-22.4 28.4-7.5z"/><circle r="1" fill="#fff" transform="matrix(-1.17204 2.40612 -51.7648 -25.21505 23.9 72.3)"/><path fill="#a7a7a7" d="M234 26h14v5h-14z"/><path fill="#dfdfde" d="M156.6 103.1l7.5-.4 46.1 49.1-47.5 1.1z"/><path fill="#b0b0b0" d="M230 116h26v7h-26z"/><path fill="#b5b5b5" d="M133 80l27-30 5 24z"/><path fill="#efe8c7" d="M96.2 44.2l22.6 44.9-1.2-15.4-29.8 6.7z"/><path fill="#b7b7b7" d="M39 75l34 9 2-38z"/><path fill="#adadad" d="M248 42h8v20h-8z"/><ellipse cx="45" cy="167" fill="#fff" rx="255" ry="15"/><circle cx="222" cy="26" r="4" fill="#a2a2a2"/><path fill="#747575" d="M115.5 59.9l10.4 20 4.8.5-15.8-8.2z"/><path fill="#b2b2b2" d="M62 10L43-3l3 22z"/><path fill="#f5efce" d="M119 47l2 14-30-7z"/><ellipse cx="169" cy="45" fill="#fff" rx="6" ry="32"/><circle r="1" fill="#aeaeae" transform="rotate(-90.3 199 -55) scale(8.90417 4.97904)"/><circle cx="106" r="4" fill="#9c9c9c"/><path fill="#797978" d="M124.3 33l3.9 47.9-12.7 4 7.1-10z"/><ellipse cx="94" cy="117" fill="#e2e1d6" rx="2" ry="21"/><path fill="#757576" d="M135.9 83.4l-20.5-15.8 3-1.1 16.7 5.5z"/></g></g></svg>