<svg xmlns="http://www.w3.org/2000/svg" viewBox="0 0 872 1200"><defs/><filter id="a"><feGaussianBlur stdDeviation="12"/></filter><rect width="100%" height="100%" fill="#333434"/><g filter="url(#a)"><g fill-opacity=".5" transform="translate(2.3 2.3) scale(4.6875)"><circle cx="115" cy="85" r="208" fill="#fff"/><circle cx="98" cy="133" r="169" fill="#fff"/><circle r="1" fill="#fff" transform="rotate(-44.7 231 -73.7) scale(185)"/><ellipse cx="166" cy="171" fill="#fff" rx="45" ry="255"/><circle cy="86" r="102" fill="#fefffe"/><circle r="1" fill="#fff" transform="matrix(-65.32872 -87.83834 26.8625 -19.97866 22.8 224.9)"/><path fill="#799e8b" d="M58 123l-40 6v-20z"/><path fill="#60686f" d="M79 215h19v15H79z"/><path fill="#d1b7a5" d="M45 142l71 45 11-40z"/><path fill="#85ad99" d="M117 14h8v76h-8z"/><ellipse cx="41" fill="#fff" rx="167" ry="19"/><ellipse cx="113" cy="168" fill="#747067" rx="7" ry="8"/><ellipse cx="101" cy="61" fill="#a7c6b7" rx="6" ry="28"/><circle cx="79" cy="108" r="6" fill="#767d82"/><ellipse cx="173" cy="202" fill="#fff" rx="17" ry="176"/><ellipse cx="96" cy="244" fill="#fff" rx="180" ry="13"/><path fill="#8c8985" d="M91 208h11v12H91z"/><circle r="1" fill="#7cc3ba" transform="rotate(143.3 36.3 75.1) scale(11.64279 4.89661)"/><path fill="#fff" d="M143 127l-116-1 46 22z"/><path fill="#413f39" d="M81.8 158l2.6 3-6.2 5-2.6-3z"/><circle cx="119" cy="22" r="6" fill="#5f7870"/><ellipse cx="34" cy="60" fill="#fff" rx="75" ry="11"/><path fill="#fcfcfc" d="M0 181h91v37H0z"/><path fill="#959ea5" d="M62 212h11v13H62z"/><path fill="#51595b" d="M134 181l-3 8 7 1z"/><path fill="#71797e" d="M49 174h6v8h-6z"/><path fill="#f7e2d3" d="M86 146h24v65H86z"/><circle r="1" fill="#fff" transform="matrix(.40424 6.8309 -133.0707 7.87487 106.5 96.4)"/><path fill="#bfcad0" d="M131 145l-35-4 45 30z"/><circle cx="23" cy="120" r="8" fill="#899d95"/><path fill="#5e5e5e" d="M167.5 92.1v1l-21 .8v-1z"/><circle cx="123" cy="46" r="5" fill="#70817c"/><path fill="#677c8c" d="M53 144h9v7h-9z"/><path fill="#d6ecde" d="M59 114l-20 9-27-16z"/><path fill="#f8fefa" d="M116.5 77.2l19.3 39.5L110.5 65l90.5 41.3z"/><circle cx="48" cy="122" r="4" fill="#61746f"/><circle r="1" fill="#fad4bd" transform="matrix(5.77812 -16.97312 7.8008 2.6556 111.2 194.3)"/><path fill="#99a9a9" d="M77 219h30v12H77z"/><circle r="1" fill="#fff" transform="rotate(98.2 -35 161) scale(20.15542 8.66563)"/><circle r="1" fill="#fff" transform="matrix(-5.1192 73.20788 -3.66766 -.25647 89.8 51.7)"/><path fill="#f5ceb6" d="M79.4 168l17 4.9-30.6-.7.7-22.6z"/><path fill="#add0bd" d="M99 14h5v42h-5z"/><ellipse cx="107" cy="8" fill="#fff" rx="160" ry="8"/><path fill="#fcfefd" d="M143 73.5l-24.6 86 17.8 7.8-29.3-30.7z"/><path fill="#fff" d="M50.1 146.6L-8 112.3l38.8-21.6-27.3 55.9z"/><path fill="#f9fbfc" d="M79.3 145.3l-19.1 13.1 5.8-35 46 32.1z"/><path fill="#99a8a3" d="M96 68l2 18 9-4z"/><path fill="#fff" d="M121.7 38.8l-57.6 4-75.4 16L30.3 70z"/><ellipse cx="81" cy="68" fill="#e3e3e3" rx="7" ry="30"/><circle cx="130" cy="203" r="3" fill="#889197"/><path fill="#c9cfd4" d="M48 195h12v14H48z"/><ellipse cx="58" cy="157" fill="#b9c0c6" rx="4" ry="6"/><circle cx="114" cy="170" r="7" fill="#86827b"/><path fill="#787878" d="M156 177h9v2h-9z"/><path fill="#fff" d="M150 69.4l3-33.9 35 3-3 34z"/><path fill="#e3fbed" d="M110 46L98 67l27-6z"/><ellipse cx="28" cy="89" fill="#e6e5e6" rx="60" ry="7"/><path fill="#46444a" d="M91.2 226l5.4-2.6 2.2 4.5-5.4 2.7z"/><path fill="#e1e1e1" d="M150 103h36v9h-36z"/><path fill="#ecf0f2" d="M61 175h44v27H61z"/><path fill="#a1b3a4" d="M113.2 99.4l-.9 11.4 3.2 4.5 7.1-2.1z"/><path fill="#828a93" d="M115 148h5v8h-5z"/><path fill="#fff" d="M56.2 143.2l65.3-4-67.1-17.3-25.1 35.7z"/><path fill="#f0d8c8" d="M84.3 155.8l27.6 45.8-5-58.2 16.7 24.5z"/><path fill="#f1f1f1" d="M58.6 240L83 206.8l-6.5 28.4L89.4 271z"/><path fill="#8b8a90" d="M78 224h11v8H78z"/><ellipse cx="131" cy="43" fill="#fff" rx="5" ry="69"/><path fill="#3c3b3c" d="M33 135h11v1H33z"/><ellipse cx="27" cy="33" fill="#eae9ea" rx="61" ry="13"/><path fill="#fff" d="M49 218l-26-44-39 43z"/><path fill="#e5e5e5" d="M136 72h50v10h-50z"/><path fill="#9d9d9d" d="M102 6h11v3h-11z"/><path fill="#98a4a2" d="M100.4 45.2L95 53l5.5 5.3 3.4-3.7z"/><path fill="#8b837a" d="M84.6 165.6l-5.6 2.1-3.6-9.3 5.6-2.1z"/><path fill="#b6b9bc" d="M137 169l-7.5-14.1 3.5-1.9 7.5 14.1z"/><path fill="#e2f7ea" d="M101.5 45.8l20.2-39.1-33.9 30.4 44.7-12.7z"/><path fill="#e9f9ed" d="M48 133l-16-7 8-23z"/><path fill="#b0cbbf" d="M123.2 77.2l.6 13-11 .6-.6-13z"/><path fill="#e6e6e6" d="M74 244h57v12H74z"/><path fill="#fff" d="M55 166l9-10-1 35z"/><path fill="#fdfdfb" d="M147.2 178l-32.4 15.1 18.1.2-14.1-35.6z"/><path fill="#eae9ea" d="M10 149h40v28H10z"/><circle r="1" fill="#fff" transform="matrix(-3.07505 4.56776 -6.11972 -4.11983 73 230.7)"/><circle r="1" fill="#fff" transform="matrix(2.45599 -12.47636 17.5739 3.45944 161.2 129.3)"/><ellipse cx="5" cy="183" fill="#fff" rx="5" ry="89"/><path fill="#c1d1cf" d="M113.8 229.8l-53.4-16.3 46.4 9 1.3-5.5z"/><path fill="#a9b4bc" d="M103 141l-6 7 18-1z"/><path fill="#efcdb7" d="M86 202h28v7H86z"/><circle r="1" fill="#fff" transform="rotate(-171 92.5 116.4) scale(14.61696 77.59572)"/><circle r="1" fill="#cbefe3" transform="matrix(-11.58284 .99074 -1.08829 -12.72332 104.9 121.6)"/><path fill="#fff" d="M84 111l17 38-35-21z"/><path fill="#fbfdfc" d="M86.4 230.1l23.4 11.7-11-22.3-1.3 21.4z"/><circle r="1" fill="#e8e8e8" transform="matrix(-16.30675 -26.41846 5.97552 -3.68838 145 147.1)"/><path fill="#fdfefe" d="M134.3 189.5l-16.7 19.9 36.8-39.4-28 62.4z"/><path fill="#e7e7e7" d="M137 20h16v46h-16z"/><path fill="#d4d8db" d="M63.7 126l-2.2-14 12.8-2 2.2 13.8z"/><path fill="#72767c" d="M79.3 112.2l-5-.4.4-6 5 .4z"/><path fill="#fff" d="M15 175h35v9H15z"/><path fill="#e9e9e9" d="M154.2 226.9l-23.8-5.2-19.8 7.3 43.4 12.6z"/><circle r="1" fill="#6c7075" transform="rotate(-129.1 111.8 61.5) scale(1 4.20121)"/></g></g></svg>