<svg xmlns="http://www.w3.org/2000/svg" viewBox="0 0 1200 900"><defs/><filter id="a"><feGaussianBlur stdDeviation="12"/></filter><rect width="100%" height="100%" fill="#474747"/><g filter="url(#a)"><g fill-opacity=".5" transform="translate(2.3 2.3) scale(4.6875)"><circle r="1" fill="#fff" transform="matrix(-2.6909 83.12347 -36.22657 -1.17274 78.5 136.5)"/><ellipse cx="220" cy="155" rx="75" ry="191"/><path fill="#fff" d="M35 58h56v29H35z"/><circle r="1" fill="#fff" transform="matrix(-8.33836 64.66269 -23.76136 -3.06407 70.8 191)"/><path d="M70.5 89l-2 28.9-41-2.9 2-28.9z"/><ellipse cx="107" cy="96" fill="#777" rx="15" ry="104"/><path fill="#fff" d="M78 59h14v75H78z"/><path fill="#a0a0a0" d="M30.8 21.7l81.8 5.7-1.4 19-81.8-5.8z"/><path d="M29 125h21v19H29z"/><ellipse cx="63" cy="89" fill="#050505" rx="3" ry="55"/><ellipse cx="174" cy="79" fill="#4d4d4d" rx="40" ry="38"/><ellipse cx="24" cy="88" fill="#c5c5c5" rx="3" ry="66"/><ellipse cx="95" cy="99" fill="#080808" rx="3" ry="54"/><circle r="1" fill="#181818" transform="matrix(-22.98715 9.10453 -14.26873 -36.02575 10.6 30.2)"/><circle r="1" fill="#101010" transform="matrix(3.98922 14.63065 -32.27989 8.8015 19.8 174.2)"/><circle r="1" fill="#fff" transform="matrix(-23.18988 28.9203 -16.04804 -12.8682 65.3 191)"/><path fill="#090909" d="M121 202l3-107 26 109z"/><path fill="#fff" d="M34 56h49v10H34z"/><path fill="#c6c6c6" d="M99 38h9v106h-9z"/><ellipse cx="15" cy="127" fill="#0d0d0d" rx="6" ry="139"/><circle r="1" fill="#010101" transform="matrix(24.43556 -2.1925 3.85374 42.95032 171.6 156)"/><ellipse cx="244" cy="86" fill="#0a0a0a" rx="29" ry="191"/><path fill="#dfdfdf" d="M51.2 139.5l-13.3-38.4-7.8 6.1L63 132z"/><path d="M24 44h75v11H24z"/><path fill="#f0f0f0" d="M40.9 140.9L81.3 207l9.8-64.4L27.7 159z"/><path fill="#fff" d="M71 77h21v32H71z"/><path fill="#222" d="M118 50h18v81h-18z"/><path d="M61 45h3v32h-3z"/><ellipse cx="27" cy="74" rx="2" ry="33"/><path fill="#747474" d="M22 20h107v22H22z"/><path fill="#0d0d0d" d="M49 137.4l-1.1-12.8-18.5 16.5 56.4.4z"/><circle r="1" fill="#2f2f2f" transform="matrix(-78.73524 -71.97556 20.30859 -22.2159 146 13.1)"/><path fill="#c3c3c3" d="M21 52h5v70h-5z"/><path fill="#fff" d="M74.3 173.8l.5-57.2 15.4-9.4-26.1 16.1z"/><path fill="#5d5d5d" d="M93.4 99.9l-6.8 57.2 15.7-51 1.2-24.4z"/><path fill="#1c1c1c" d="M69.3 114.2l-24.7-3.5 2-14.9 24.8 3.5z"/><path fill="#fefefe" d="M50 119h12v15H50z"/><path d="M27 86h22v11H27z"/><path fill="#3f3f3f" d="M33 197l17-19-1-36z"/><path fill="#898989" d="M109 41h10v117h-10z"/><path fill="#f2f2f2" d="M33 61h2v27h-2z"/><path fill="#fff" d="M32 201l76 6-27-46z"/><path fill="#f7f7f7" d="M65 57h10v31H65z"/><path fill="#a8a8a8" d="M33 113h24v11H33z"/><ellipse cy="142" fill="#444" rx="15" ry="117"/><path fill="#5e5e5e" d="M136 73h27v39h-27z"/><path fill="#dedede" d="M24 113h3v38h-3z"/><path fill="#6b6b6b" d="M70.8 132.6l53 19.8-22.9 54.6.3-74.2z"/><path fill="#dfdfdf" d="M98 153.3l-40.6 26.5-9.9-16.2L95.2 136z"/><path fill="#0f0f0f" d="M26.5 94.4l15 48.9 19-2.6-33.3-7.3z"/><path fill="#313131" d="M67.5 67.6l-33 1.8v-1l33-1.8z"/><path d="M29 44h4v54h-4z"/><ellipse cx="18" cy="159" fill="#060606" rx="4" ry="74"/><path fill="#6c6c6c" d="M75 79h3v52h-3z"/><circle r="1" fill="#969696" transform="matrix(29.53637 -.72011 .13842 5.67766 76.7 37)"/><path fill="#565656" d="M21 11h122v21H21z"/><path fill="#e2e2e2" d="M103 90h4v60h-4z"/><path fill="#626262" d="M136 67h8v105h-8z"/><path fill="#fff" d="M88.9 68.6l3.2 45.9-13 .9L76 69.5z"/><ellipse cx="63" cy="103" fill="#191919" rx="2" ry="45"/><path fill="#dadada" d="M64 54l22 2-22 28z"/><path fill="#393939" d="M99.3 118.6l.1 16.4-.2 5.4-11.4-16.1z"/><path fill="#0e0e0e" d="M64.1 43.8l-.2 13-30-.6.2-13z"/><path fill="#a7a7a7" d="M41.3 143l3 10.6-11.6 3.3-3-10.5z"/><path fill="#1e1e1e" d="M34.2 111.7L28 182.8 27.7 46l4.6-2.1z"/><path fill="#3e3e3e" d="M49.9 89.2l27.3 34.7L27.6 98l26.5 22.1z"/><path fill="#707070" d="M40 162.3l-15.2-9.5 3.2-5.1 15.2 9.5z"/><path fill="#fff" d="M66 124h9v14h-9zM34 57h25v8H34z"/><path fill="#020202" d="M31 125h16v19H31z"/><path fill="#919191" d="M109.9 144.9l-20.1-8.5 6.7 43.2-1.3 4z"/><path fill="#6c6c6c" d="M107 27h14v62h-14z"/><path fill="#222" d="M118 86h15v36h-15z"/><path fill="#eaeaea" d="M49 120h11v18H49z"/><circle r="1" fill="#2d2d2d" transform="matrix(-18.347 5.07549 -6.79384 -24.55854 204.8 107.1)"/><path fill="#cecece" d="M51 142h16v34H51z"/><path fill="#fafafa" d="M96 61h3v4h-3z"/><ellipse cx="17" cy="56" fill="#0a0a0a" rx="3" ry="84"/><path fill="#323232" d="M208.3 101l1.4 16.4-49 6-23.6-11.1z"/><path fill="#4c4c4c" d="M8 23h5v149H8z"/><circle cx="52" cy="78" r="8" fill="#cecece"/><path fill="#6e6e6e" d="M20 29h5v37h-5z"/><circle r="1" fill="#161616" transform="matrix(-50.71164 21.83988 -2.9829 -6.9262 192.8 23.4)"/><path fill="#0b0b0b" d="M123 132h10v34h-10z"/><path fill="#404040" d="M108 161h39v16h-39z"/><circle r="1" fill="#212121" transform="rotate(174.9 7.7 .4) scale(31.38103 14.31604)"/><path fill="#fff" d="M71 68h4v36h-4z"/><ellipse cx="183" cy="173" rx="6" ry="59"/><path d="M31 86h19v10H31z"/><path fill="#767676" d="M78.7 66l-2.9-1.4-42.5 5 26.8 1.1z"/><path fill="#919191" d="M110 124h11v28h-11z"/><path fill="#1e1e1e" d="M61 49h3v45h-3z"/><ellipse cx="76" cy="92" fill="#6e6e6e" rx="1" ry="41"/><path fill="#c3c3c3" d="M34 99h2v13h-2z"/><path fill="#5c5c5c" d="M143.9 34.2l-13.8 8.7-14.3 25.9-2-52.3z"/><ellipse cx="104" cy="127" fill="#ddd" rx="4" ry="13"/><circle r="1" fill="#313131" transform="matrix(9.95126 8.5297 -36.5197 42.60608 173.1 10.7)"/><path fill="#f0f0f0" d="M75 141h15v38H75z"/><circle r="1" fill="#909090" transform="rotate(2.8 -798.9 1887.6) scale(27.75895 3.98874)"/><path fill="#a8a8a8" d="M33.1 56.4l1.1 24.2L67 94.5 52.8 82.8z"/></g></g></svg>