<svg xmlns="http://www.w3.org/2000/svg" viewBox="0 0 1200 900"><defs/><filter id="a"><feGaussianBlur stdDeviation="12"/></filter><rect width="100%" height="100%" fill="#406037"/><g filter="url(#a)"><g fill-opacity=".5" transform="translate(2.3 2.3) scale(4.6875)"><circle r="1" fill="#b1acb0" transform="matrix(208.52724 -130.976 41.15124 65.517 166.6 151.6)"/><circle r="1" fill="#7e9e63" transform="matrix(-38.46749 50.67904 -67.11865 -50.94582 148.4 7.3)"/><path fill="#f6feff" d="M188 76h28v23h-28z"/><circle r="1" fill="#1a2105" transform="rotate(6.7 -313.8 1968.5) scale(8.00052 94.84102)"/><circle r="1" fill="#33402a" transform="rotate(-108.9 95.8 -1.6) scale(17.24777 33.39201)"/><path fill="#b5e5d2" d="M261.8 103.3l-32.5-5.7 12.9-72.9 32.5 5.7z"/><circle r="1" fill="#517e2a" transform="rotate(-179.9 124.8 66.7) scale(50.23499 33.82073)"/><path fill="#6c9941" d="M-7 187l2-58 122-28z"/><circle r="1" fill="#a99cb2" transform="matrix(71.00472 53.8465 -8.1405 10.73448 188.8 160.2)"/><path fill="#82a886" d="M28.2 94.5L-16 88.8V38.5l26.1 6.6z"/><ellipse cx="163" cy="83" fill="#e6faef" rx="4" ry="32"/><ellipse cx="127" cy="1" fill="#9ec38d" rx="25" ry="22"/><path fill="#394727" d="M173 91l-7-107 28 69z"/><circle cx="245" r="6" fill="#fff"/><circle r="1" fill="#556046" transform="matrix(-3.26515 33.30055 -67.57388 -6.62568 91.1 73)"/><circle r="1" fill="#090b06" transform="rotate(-114 35.6 54.8) scale(14.74446 25.59223)"/><circle r="1" fill="#9ac09a" transform="matrix(-23.68344 8.8078 -2.26983 -6.10338 203.9 6.1)"/><circle r="1" fill="#83ba55" transform="matrix(28.47846 5.50376 -3.01077 15.57881 186.9 121.2)"/><circle r="1" fill="#958f9b" transform="matrix(-10.05686 -22.58879 41.8914 -18.65067 116.3 134.8)"/><circle r="1" fill="#7c7389" transform="matrix(1.85308 41.87377 -82.7655 3.6627 108.5 178.3)"/><path fill="#b6bac9" d="M77 36h5v23h-5z"/><path fill="#130905" d="M-5.7 19.7L29 45l-5.3 7.3L-11 27z"/><circle r="1" fill="#5b634b" transform="matrix(-4.1737 12.32958 -21.33546 -7.2223 246.8 178.5)"/><circle r="1" fill="#4a443f" transform="matrix(6.01177 23.55393 -8.23547 2.10198 222.6 114.6)"/><circle r="1" fill="#babcca" transform="matrix(-5.4977 9.01625 -5.13874 -3.13337 164 61.8)"/><path fill="#d5e3dd" d="M188 101l24-2 6-41z"/><path fill="#293a2d" d="M145.7 99.7l-37.3 7.2-4-20.6 37.2-7.2z"/><path fill="#4a3e31" d="M180.8 122.8l-8 .4-1.6-30 8-.4z"/><path fill="#52735f" d="M246 74v39l25-73z"/><ellipse cx="248" cy="52" fill="#fff" rx="12" ry="4"/><path fill="#fff" d="M6 59l-22-1 7 16z"/><ellipse cx="82" cy="55" fill="#fff" rx="2" ry="5"/><path fill="#36372d" d="M173.3 32.2l-24 4.9-7.5 19 31.4-19.5z"/><path fill="#303d16" d="M78 66L23 47l4-34z"/><path fill="#4c4749" d="M34.9 179.2l-49.1 17.7 31.1-21.6 3.8-3.7z"/><path fill="#70a259" d="M27 19L-4 5l28 31z"/><path fill="#8fc077" d="M263-16l8 18-33 18z"/><path fill="#636e60" d="M94.2 100L89 57.3l26.8-3.3 5.2 42.7z"/><path fill="#649a42" d="M232-16l-55 57 31 38z"/><ellipse cx="245" cy="112" fill="#b1e899" rx="16" ry="3"/><circle r="1" fill="#9bd377" transform="matrix(3.1455 7.03185 -6.69435 2.99453 47.9 0)"/><path d="M263.3 100.3l.4 6-19 1.4-.4-6z"/><ellipse cx="207" cy="80" fill="#67786e" rx="2" ry="24"/><path fill="#2b3520" d="M239.6 37.6l1.6-50.5L223 45.6l.6 68.2z"/><path fill="#667969" d="M184 86l18 15-4-17z"/><path fill="#fff" d="M200 80h6v21h-6z"/><ellipse cx="214" cy="55" fill="#99c886" rx="6" ry="23"/><circle r="1" fill="#e6eceb" transform="rotate(147.3 75.3 79.7) scale(2.58217 4.35776)"/><path fill="#61623d" d="M25 58h18v79H25z"/><ellipse cx="71" cy="24" fill="#292b12" rx="4" ry="44"/><circle r="1" fill="#596a4e" transform="matrix(17.55026 15.76758 -2.45258 2.72987 159.2 73.1)"/><path fill="#659542" d="M78 47L34 4l16 34z"/><path fill="#3a472d" d="M186.2 59.8L164.5 67l16-11.1 49.6-51.1z"/><ellipse cx="253" cy="123" fill="#2c4c1c" rx="21" ry="6"/><circle r="1" fill="#262e17" transform="matrix(3.58657 2.6058 -15.65851 21.5521 180.3 0)"/><circle r="1" fill="#66a745" transform="matrix(-5.13055 1.67378 -4.18609 -12.83138 50 61.6)"/><path fill="#141f17" d="M65.6 98.2l-1.3 12-21.9-2.4 1.3-12z"/><path fill="#3f5234" d="M4 74h106v11H4z"/><path fill="#c1d3da" d="M188 65h7v12h-7z"/><path fill="#ced6e1" d="M191.1 11.9l7.9-1.3-5.3 9 4.4-25z"/><circle r="1" fill="#819d6a" transform="matrix(36.46615 6.03693 -.38608 2.33212 33.1 91.4)"/><path fill="#6a8e49" d="M-.8 173.8l69.5-66 1.4-34.9 16.4 56.4z"/><path fill="#a3a79b" d="M38.9 169l68.5-60 66.7-6-83.6 27.6z"/><path fill="#242f14" d="M43.1 26.5L38.8 32 4.9 5.5 9.2 0z"/><path fill="#4c4b3a" d="M224 137l9-53-27 56z"/><path fill="#2e3a19" d="M95-16h-3.9l-5.4 39.6-1.4 35z"/><path fill="#71ab54" d="M-1 58l-11-33 39 36z"/><ellipse cx="162" cy="84" fill="#fff" rx="4" ry="5"/><path fill="#a7a4a4" d="M204 177l22-14-83-47z"/><path fill="#679445" d="M271 187v-39l-100-19z"/><path fill="#e9ffff" d="M246 27l12-10 13 1z"/><circle r="1" fill="#71727c" transform="matrix(-.2118 8.65744 -148.87596 -3.64228 157 191)"/><path fill="#4a6f32" d="M184.7 27.1L207.8 14l-1.4-8.8 64.6.6z"/><path fill="#cecbd7" d="M99.5 69.5h-5v-5h5z"/><path fill="#454e32" d="M-16 124.3L48.9 140l-.5-7.7-29.9-21.1z"/><path fill="#b5cdcb" d="M251 57h-15l-4 49z"/><path fill="#586f45" d="M120.6 65.6L189.7 48l-36 2.9 8.2 60.8z"/><path fill="#699649" d="M118.1-16l-12.2 60.1 52.5-10.8-68.2-21.2z"/><circle r="1" fill="#82b657" transform="rotate(-63.2 178.2 -71.6) scale(4.47694 23.05301)"/><circle r="1" fill="#89898f" transform="matrix(45.5637 34.12548 -8.85397 11.82166 169.5 158.7)"/><path fill="#8aac86" d="M178 63h6v40h-6z"/><ellipse cx="193" cy="126" fill="#90c369" rx="17" ry="9"/><path fill="#29291b" d="M193.5 42.3l-.6-.8 43.6-31.8.6.8z"/><path fill="#bed0c5" d="M133.6-1.3l.6.7-23.8 20-.6-.8z"/><path fill="#86b278" d="M190 87l35-63-7 40z"/><path fill="#242915" d="M15 31L8 47-9 2z"/><path fill="#dadfef" d="M152.8 31.4l1.4-13 1 .2-1.4 13z"/><path fill="#a5a8ad" d="M140 53h5v10h-5z"/><ellipse cx="155" cy="50" fill="#36362b" rx="2" ry="29"/><path fill="#ecf7f5" d="M195.5 89.4l1.8 1-6.8 12.2-1.8-1z"/><path fill="#3c3a2f" d="M166.7-16l5.3 92.1 3.3 34.6 2.4-49.9z"/><path fill="#d7e0db" d="M147 29l-5-3 2 7z"/><path fill="#fff" d="M209 75h3v25h-3z"/><ellipse cx="33" cy="33" fill="#414b29" rx="5" ry="105"/><path fill="#a6d88c" d="M190.8 109.2l26.2-.9-7.6 4.8-51.3-8.8z"/><path fill="#5f7248" d="M26.5 86.1L15.4 47.2l32.4 31.7-28.1 81.8z"/><path fill="#55664c" d="M168 68h21v10h-21z"/><path fill="#9cd394" d="M20 5h7v5h-7z"/><path fill="#466331" d="M129.8 30.5l-2.9-2.4 18.5 16.5-8.7-30.2z"/><path fill="#39474b" d="M198 71h1v36h-1z"/></g></g></svg>