<svg xmlns="http://www.w3.org/2000/svg" viewBox="0 0 1200 772"><defs/><filter id="a"><feGaussianBlur stdDeviation="12"/></filter><rect width="100%" height="100%" fill="#324839"/><g filter="url(#a)"><g fill-opacity=".5" transform="translate(2.3 2.3) scale(4.6875)"><circle cx="130" cy="67" r="169" fill="#fff"/><circle cx="174" cy="101" r="208" fill="#fff"/><ellipse cx="144" cy="103" fill="#fff" rx="185" ry="163"/><circle r="1" fill="#faffff" transform="matrix(-9.55891 -111.92195 210.66673 -17.9924 126.3 85.4)"/><path fill="#99b9b2" d="M162 51.1L79.5 34.5l112.3 12.3L271 64.3z"/><ellipse cx="40" cy="92" fill="#cfe3db" rx="37" ry="36"/><circle r="1" fill="#c2d7d3" transform="matrix(-35.39332 -8.69343 2.52946 -10.29812 146.9 115.2)"/><ellipse cx="225" cy="15" fill="#fff" rx="129" ry="29"/><circle r="1" fill="#fff" transform="matrix(-33.64601 -55.75131 140.4054 -84.7349 250.6 163)"/><path fill="#a6b6af" d="M51.7 59.9l37-18.8 36.9-.6-30.2-7.7z"/><circle r="1" fill="#fff" transform="rotate(-72.3 34.4 -3.4) scale(40.68141 34.42445)"/><path fill="#bfcacd" d="M48 74l23-10 8-40z"/><path fill="#d0e2db" d="M38.6 142.7l118.5-39.4 4.6 31.6-58.2 6.6z"/><path fill="#c7dce4" d="M112.8 91.4L89.6 73.6 63.7 92.8l12.2 11.7z"/><ellipse cx="30" cy="163" fill="#fff" rx="110" ry="22"/><path fill="#c2ccca" d="M9.3 100.3L4.8 64.8 4 88l31.9-23.8z"/><path fill="#8b877e" d="M19.7 115.3L9.3 85l1-.3L20.7 115z"/><circle r="1" fill="#fff" transform="matrix(25.14626 -10.9339 4.4615 10.26074 81.3 115)"/><path fill="#c4d7d7" d="M85.3 133.3l-14.8 9-22.9-32.1-2.9 32.9z"/><ellipse cx="186" cy="83" fill="#fdfffc" rx="83" ry="12"/><circle r="1" fill="#b1c2c1" transform="matrix(-1.83709 -.06007 .71847 -21.9734 94.9 24.4)"/><ellipse cx="55" cy="68" fill="#8c848b" rx="5" ry="4"/><path fill="#fff" d="M13.7 125.3L30 172.7l-46-14.1 17.9-72z"/><ellipse cx="248" cy="60" fill="#91ada1" rx="5" ry="4"/><path fill="#f9ffff" d="M69 45L33 20l34 50z"/><path fill="#897e6f" d="M72.5 47.4L97 33.8l.5.8L73 48.2z"/><ellipse cx="210" cy="3" fill="#fff" rx="116" ry="20"/><circle r="1" fill="#c7cecd" transform="matrix(-.99385 -1.58812 24.65063 -15.4264 161.6 101)"/><path fill="#bfcac8" d="M199.1 101l18.3 7.2-13.2-11.3-6.6-4.8z"/><path fill="#b7c4ca" d="M87 148h40v2H87z"/><path fill="#a0a19b" d="M33 126h-6l-8-12z"/><path fill="#adb7ba" d="M136.7 105.4l17.9 4.5-12.1 7.4-1.3 5.5z"/><path fill="#c2cecf" d="M154 97l8-16-7-2z"/><path fill="#f0fbf7" d="M32 34h20v56H32z"/><path fill="#669581" d="M160 45h8v4h-8z"/><path fill="#dde5e1" d="M152.5 55.3l-42.2 27.9 59.9-31.6 55.6 38.2z"/><path fill="#d2e8d3" d="M136 53L92 75l6-15z"/><circle r="1" fill="#fff" transform="matrix(-18.86088 -7.6482 18.75845 -46.25932 233.7 137.1)"/><path fill="#b9c2c4" d="M69 51.2l4.1-5.1v9L69.7 99z"/><path fill="#88ad9f" d="M241 54l-7 7-2-6z"/><path fill="#b3cdc6" d="M139.9 46l-50.5-7 .7-5 50.5 7z"/><path fill="#f4fff7" d="M96 30h6v38h-6z"/><path fill="#a3bfb5" d="M208 59.1l-21-13.2 3.9 9.5 22.6-5.2z"/><path fill="#f2fbf7" d="M116.3 24.6l-15.9 42.7 24.1-42.4 12 36.5z"/><path fill="#fafffa" d="M175.2 116.6l-21.9-6.5 5.8-5.6 67.5-33z"/><circle r="1" fill="#ddebef" transform="matrix(-49.4001 -8.7142 .62425 -3.5388 189 44.9)"/><path fill="#fff" d="M270.3 48l-60.2 3.3 4 13.7 4.5-32.8z"/><circle r="1" fill="#eafbec" transform="matrix(-.0541 6.19836 -32.02566 -.27948 145.2 124.9)"/><path fill="#9d806c" d="M22.9 77.2l-11.2 8.4-.6-.8 11.2-8.4z"/><path fill="#fff" d="M139 101l-10-45-34 21z"/><circle r="1" fill="#dae0df" transform="matrix(-.15367 .98812 -91.29726 -14.1983 183.3 26.8)"/><path fill="#fff" d="M115.4 112.9l.8-10-32.4-5.3-31.8 30z"/><path fill="#f7fdf8" d="M235.5 68.2L222 40.8l14.9 119.5 8.9-125.8z"/><path fill="#d0e2e6" d="M78 92l53 11-43-31z"/><path fill="#f1fef1" d="M29 122l-4-47-12 13z"/><path fill="#fff" d="M89 141h101v6H89z"/><ellipse cx="162" cy="68" fill="#fff" rx="15" ry="9"/><path fill="#fff" d="M41 100h12v8H41z"/><path fill="#f7fcfe" d="M152 54l8-1-3-21z"/><ellipse cx="15" cy="16" fill="#fff" rx="72" ry="8"/><ellipse cx="142" cy="48" fill="#fcfffe" rx="3" ry="11"/><path fill="#eefeef" d="M188.6 54.4l-7.7-16.8 5.6 37.3 73.1-9.7z"/><path fill="#abb7be" d="M54 53h3v20h-3z"/><path fill="#7aa493" d="M223 57l-3 1-2-6z"/><ellipse cx="177" cy="48" fill="#8ca89e" rx="4" ry="3"/><circle cx="192" cy="52" r="3" fill="#6f9a87"/><path fill="#fff" d="M60.4 7.8l2.4-18.9 26.8 3.3-2.4 18.9z"/><path fill="#fefefe" d="M250.4 48l2.4 19.8-18.8 44.8 37-80.7z"/><path fill="#c8dcea" d="M4.7 69.1l19.8 64.2L-16 49.9l14.7 29.6z"/><path fill="#d5e1de" d="M30 39h4v49h-4z"/><path fill="#e0ede6" d="M167.4 113.8l49.5-5.4-12.6 11.8-23.3 12.6z"/><circle r="1" fill="#fff" transform="matrix(1.00003 -7.05787 58.21836 8.249 157.5 30.9)"/><path fill="#719d89" d="M153.3 47.1l-6 .7-.6-5 6-.6z"/><ellipse cx="130" cy="70" fill="#c0cac9" rx="5" ry="3"/><path fill="#c5d4da" d="M49 108h7v34h-7z"/><path fill="#b5bdc4" d="M87.6 147.8l1-.3 7.8 22.7-1 .3z"/><path fill="#c0ccd2" d="M132 104.3l22.6 5.2-46 8 4.5 5.3z"/><path fill="#dde9e6" d="M66 9h11v30H66z"/><circle r="1" fill="#dce0df" transform="matrix(.14488 -.98945 38.91936 5.69866 31 4.9)"/><path fill="#f8f9fc" d="M188.5 81.5l-14.8 11.2 24.1-43.1 9.8-10.7z"/><path fill="#e5f0f2" d="M151.5 41.9l27-4.1L168 55.9l-1.5-17.3z"/><path fill="#d2d9d7" d="M130 57h46v3h-46z"/><path fill="#d8edf2" d="M37.5 141.4l-16 1.1-1-16 16-1z"/><path fill="#b9c0c3" d="M140.7 133.5l-2.4-18.9h1l2.4 18.8z"/><path fill="#f4fff2" d="M135 131l-28-1 14-11z"/><path fill="#bcc9ca" d="M89 25h8v10h-8z"/><path fill="#fff" d="M143 141h43v17h-43z"/><path fill="#deebf1" d="M60.3 115.7l-4-6.9 27.4-16.5 4 6.9z"/><path fill="#9ba79b" d="M80 42l16-6-4-4z"/><circle r="1" fill="#fff" transform="matrix(-18.95305 1.69151 -.8513 -9.53856 76.6 120.8)"/><path fill="#d6e5e8" d="M264.1 54.7l-.3 2-84-13.4.4-2z"/><path fill="#fff" d="M-16 160l14-82 32 94z"/><path fill="#cbd9d6" d="M177 113h5v20h-5z"/><path fill="#e9faee" d="M69.1 10.7l-6.4 59.2-43 26.7L67 93z"/><path fill="#abc1ce" d="M53 126l-14-4 12-2z"/><path fill="#ecffed" d="M43 116l-16 5-11-27z"/><circle cx="120" cy="40" r="3" fill="#7ead99"/><path fill="#a4aead" d="M155 83h6v4h-6z"/><path fill="#fcffff" d="M77 13h11v26H77z"/><path fill="#a6b1b6" d="M214.4 107l-3.8-1.2 1-2.9 3.8 1.3z"/></g></g></svg>