<svg xmlns="http://www.w3.org/2000/svg" viewBox="0 0 1200 908"><defs/><filter id="a"><feGaussianBlur stdDeviation="12"/></filter><rect width="100%" height="100%" fill="#343c2c"/><g filter="url(#a)"><g fill-opacity=".5" transform="translate(2.3 2.3) scale(4.6875)"><circle cx="121" cy="32" r="228" fill="#fff"/><circle cx="112" cy="107" r="178" fill="#fff"/><circle r="1" fill="#fff" transform="rotate(43 -114.2 166.5) scale(184.38346 207.5976)"/><circle r="1" fill="#9a9f96" transform="rotate(-93.6 105 -5) scale(37.55036 23.86284)"/><circle r="1" fill="#b5b8b2" transform="matrix(-8.5519 -13.45856 47.23 -30.0111 155.4 79.7)"/><path fill="#6f7169" d="M234 46h16v19h-16z"/><circle r="1" fill="#fcfff4" transform="matrix(-201.83744 46.96904 -8.95029 -38.46156 172 161.9)"/><circle r="1" fill="#fff" transform="matrix(-.7034 -22.40395 44.89317 -1.40946 224.5 25.9)"/><path fill="#fff" d="M38 2h47v77H38z"/><path fill="#979a95" d="M207.3 61.5l-18.6-16.9-16.2 31.7-47.7-.8z"/><path fill="#8c8f88" d="M131.8 127l-12.7 12.8-26.9-26.9 12.7-12.7z"/><path fill="#fffff4" d="M102 37h68v31h-68z"/><path fill="#999a99" d="M63 33l8-27-13 4z"/><path fill="#706f6d" d="M96 62h7v17h-7z"/><ellipse cx="16" cy="144" fill="#f6feef" rx="30" ry="64"/><ellipse cx="77" cy="90" fill="#fff" rx="49" ry="3"/><ellipse cx="202" cy="69" fill="#fff" rx="31" ry="6"/><ellipse cx="47" cy="162" fill="#81867d" rx="2" ry="27"/><path fill="#f5fdef" d="M141.5 113.2l-44.2-25 16.8 16.8 54.2 31.4z"/><path fill="#8c9287" d="M71 127l-17-5 17-5z"/><ellipse cx="6" cy="14" fill="#fff" rx="8" ry="36"/><ellipse cx="208" cy="100" fill="#a2ac9c" rx="73" ry="2"/><ellipse cx="43" cy="189" fill="#fff" rx="214" ry="7"/><ellipse cx="133" cy="8" fill="#f9fff3" rx="39" ry="17"/><path fill="#f5ffeb" d="M124 137l108-30-92-1z"/><ellipse cx="178" cy="46" fill="#d9dddc" rx="7" ry="53"/><path fill="#fdfff9" d="M177 64h79v12h-79z"/><ellipse cx="37" cy="166" fill="#b4b9b2" rx="2" ry="74"/><path fill="#fff" d="M184 40l85-19-86-21z"/><path fill="#cdd0d1" d="M13 37h52v13H13z"/><ellipse cx="41" cy="156" fill="#fff" rx="4" ry="107"/><path fill="#fff" d="M36 49h49v29H36z"/><path fill="#80817d" d="M174 65l-7-4-7 13z"/><path fill="#fff" d="M125 65h16v10h-16z"/><path fill="#7b7a78" d="M93 70h33v5H93z"/><path fill="#6d7366" d="M32 21h6v6h-6z"/><circle r="1" fill="#f4feea" transform="rotate(91.8 -30 110.3) scale(20.34304 29.11932)"/><circle cx="192" cy="54" r="10" fill="#969a91"/><ellipse cx="13" cy="100" fill="#62625e" rx="13" ry="1"/><path fill="#9da299" d="M173.6 100.5l-8.8 1.8-60.9 21.6 27.4-5.9z"/><path fill="#fffffd" d="M191 94l-38-7 3 15z"/><ellipse cx="66" cy="188" fill="#fff" rx="157" ry="6"/><ellipse cx="114" fill="#afafb3" rx="139" ry="1"/><circle cx="16" cy="16" r="4" fill="#898e84"/><ellipse cx="148" cy="98" fill="#7d8079" rx="4" ry="6"/><ellipse cx="94" cy="83" fill="#cacace" rx="112" ry="5"/><path fill="#8c8c89" d="M142 69h28v6h-28z"/><ellipse cx="255" cy="138" fill="#b4b8b2" rx="1" ry="138"/><path fill="#bebdbe" d="M94 77h80v12H94z"/><path fill="#999f94" d="M66 106l13-8-10 13z"/><circle r="1" fill="#fff" transform="matrix(-19.77977 -50.8428 7.7995 -3.0343 255 47)"/><path fill="#d0f2f2" d="M75.2 99l3.5 7.9L96 123.5l-1.3-26.7z"/><path fill="#fff" d="M44 3l35 28L-3 4z"/><path fill="#eef0ea" d="M188.6 80.8l-20.5-20.3L44.2 30.4 184.4 51z"/><path fill="#666562" d="M248 57l-13 4 14 1z"/><path fill="#ccced0" d="M85 0h10v79H85z"/><path fill="#cfd2d4" d="M90 25h85v12H90z"/><ellipse cx="231" cy="93" fill="#a3a2a4" rx="52" ry="1"/><circle cx="53" cy="107" r="3" fill="#787e76"/><ellipse cx="212" cy="96" fill="#fff" rx="45" ry="3"/><path fill="#fff" d="M42 100L-4 87l84-1z"/><path fill="#ecf3e9" d="M192 34h3v50h-3z"/><path fill="#eff8e7" d="M181 101l76 74-212 7z"/><circle cx="189" cy="59" r="4" fill="#666664"/><path fill="#fff" d="M1 0h13v45H1zm24 37l42-5-18-19z"/><path fill="#f8f0e4" d="M204 34h29v32h-29z"/><ellipse cx="74" cy="6" fill="#fff" rx="6" ry="73"/><path fill="#bcbfbe" d="M83 122l-17 5 16-18z"/><path fill="#b8b9b9" d="M61 8h8v29h-8z"/><circle cx="115" cy="122" r="14" fill="#9fa19c"/><path fill="#d2d3d5" d="M173 0h10v85h-10z"/><path fill="#ced1d2" d="M205 13l3-14-14 6z"/><path fill="#f1f7eb" d="M185.3 100L129 139.7l-.9-14.3 6.4-8.4z"/><path fill="#fff" d="M43 55h2v118h-2z"/><ellipse cx="46" cy="123" fill="#a9a9a9" rx="1" ry="24"/><ellipse cx="47" cy="159" fill="#81827b" rx="1" ry="26"/><path fill="#f0f8e9" d="M172 102h83v62h-83z"/><path fill="#fff" d="M95 35h7v24h-7zm73 2h5v25h-5z"/><path fill="#cccfd0" d="M234 10h-13l-2-26z"/><path fill="#f1f6ec" d="M137.8 142.5l3.4-35.4-29.3-.3 63.7 17.1z"/><path fill="#fff" d="M255 13l-71-3 1 35z"/><path fill="#a4a29e" d="M57 9h13v9H57z"/><ellipse cx="207" cy="181" fill="#cfd7c8" rx="209" ry="1"/><path fill="#fff" d="M77 106l-17 7 16 2z"/><path fill="#a5af9f" d="M18 18l8 8-5-1z"/><ellipse cx="37" cy="143" fill="#9da39b" rx="1" ry="41"/><path fill="#f3feec" d="M141 90h37v4h-37z"/><path fill="#71736c" d="M198 58h5v6h-5z"/><path fill="#fff" d="M36 51h47v28H36z"/><path fill="#f1f1e6" d="M102 44h57v24h-57z"/><ellipse cx="16" cy="48" fill="#abadac" rx="47" ry="1"/><path fill="#fff" d="M255.2 75.6l-9.8-63.1 9.2 49.7-29.6 4.7z"/><path fill="#a6a4a7" d="M90 76h85v1H90z"/><path fill="#b4b7b9" d="M189 77h67v1h-67z"/><ellipse cx="210" cy="184" fill="#fff" rx="244" ry="2"/><ellipse cx="164" cy="59" fill="#efeee5" rx="2" ry="19"/><path fill="#d3d7d6" d="M48 109h11v26H48z"/><path fill="#eff5e9" d="M108.3 133.8l54.1 17.8-24.8 7.4-101.8-8.4z"/></g></g></svg>