<svg xmlns="http://www.w3.org/2000/svg" viewBox="0 0 1200 900"><defs/><filter id="a"><feGaussianBlur stdDeviation="12"/></filter><rect width="100%" height="100%" fill="#4c4c4c"/><g filter="url(#a)"><g fill-opacity=".5" transform="translate(2.3 2.3) scale(4.6875)"><circle cx="167" cy="111" r="201" fill="#fff"/><circle r="1" fill="#fff" transform="matrix(-216.58353 9.39275 -2.10191 -48.46718 128.1 191)"/><circle r="1" fill="#171717" transform="matrix(-95.43984 15.45702 -3.03412 -18.7343 104.2 123)"/><ellipse cx="130" cy="11" fill="#fcfcfc" rx="255" ry="22"/><circle r="1" fill="#4d4d4d" transform="rotate(5.4 -503.7 1765.6) scale(152.00523 18.73349)"/><circle r="1" fill="#fff" transform="matrix(-.18726 36.76288 -212.9094 -1.08452 161 183.3)"/><path fill="#d4d4d4" d="M0 57h138v53H0z"/><path fill="#1c1c1c" d="M179 83l63-27-121 16z"/><path fill="#232323" d="M28 110h55v35H28z"/><path fill="#686868" d="M166 18l-50 4 2-24z"/><circle r="1" fill="#f8f8f8" transform="matrix(8.91053 2.4969 -13.80695 49.27218 236.7 142.5)"/><path fill="#404040" d="M146 95h51v29h-51z"/><path fill="#646464" d="M209.4 19.5l-22.8 8 26.4 1.8 58-12.6z"/><path fill="#fff" d="M108-16L43 32h76z"/><circle r="1" fill="#040404" transform="matrix(67.31655 -11.6744 .4819 2.7787 219.4 61.4)"/><path fill="#cfcfcf" d="M82.2 124.2l24.5-4.2-.9-2-.9 49.2z"/><path fill="#111" d="M67 107h-8V87h8z"/><path fill="#424242" d="M138 68l-28.5 13.5 52.9-46.6-27.3-2.3z"/><path fill="#fff" d="M271 157l-165 50-122-47z"/><circle r="1" fill="#f0f0f0" transform="matrix(53.86696 1.41956 -.13503 5.12382 223 134.5)"/><path fill="#444" d="M107.2 142.6l-2.3-31.8 67.1 25.7-78.7 7.3z"/><path fill="silver" d="M71 73h83v38H71z"/><path fill="#989898" d="M156 73h100v13H156z"/><circle r="1" fill="#9d9d9d" transform="rotate(-85.6 28.8 -16) scale(7.11595 32.34734)"/><path fill="#bfbfbf" d="M180.2 48.3l-61.5 14.9 44.2-26.9 103.2-8.1z"/><path fill="#6c6c6c" d="M137 95h70v17h-70z"/><ellipse cx="39" cy="27" fill="#fafafa" rx="134" ry="6"/><path fill="#565656" d="M7.9 153.7l-2-12.8 54.2-8.6 2 12.8z"/><path fill="#f8f8f8" d="M41 79h19v26H41z"/><path fill="#c8c8c8" d="M62 55h59v32H62z"/><ellipse cx="72" cy="92" fill="#fff" rx="5" ry="15"/><ellipse cx="3" cy="92" fill="#cacaca" rx="16" ry="55"/><path fill="#686868" d="M166 57.4L312.6 18l3.4 12.5L169.3 70z"/><path fill="#909090" d="M11.1 114.9l-5.6 35.9 38.8-49-10.5-19z"/><path fill="#585858" d="M30 60L6 32h40z"/><ellipse cx="168" cy="117" fill="#222" rx="29" ry="6"/><circle r="1" fill="#262626" transform="matrix(-1.33494 -6.90942 29.74361 -5.74662 246 60.4)"/><path fill="#191919" d="M29 113h97v7H29z"/><path fill="#fff" d="M193 30h50v5h-50z"/><path fill="#686868" d="M237.6 125.2l-20.1 5.9 2-29.9 1 6z"/><path fill="#3a3a3a" d="M160 63l1.2 5.8L122 77l-1.3-5.9z"/><path fill="#b5b5b5" d="M196 40L115-2l53 8z"/><ellipse cx="214" cy="122" fill="#e7e7e7" rx="4" ry="22"/><ellipse cx="65" cy="124" fill="#939393" rx="63" ry="2"/><circle r="1" fill="#fcfcfc" transform="matrix(-1.46056 -24.06894 100.38727 -6.09172 230.7 178.9)"/><path fill="#323232" d="M253 105h3v20h-3z"/><circle r="1" fill="#ebebeb" transform="matrix(1.39368 -11.8072 61.71234 7.28432 200.9 0)"/><path fill="#1e1e1e" d="M142 44l28-11h-34z"/><path fill="#a4a4a4" d="M64 32h16v43H64z"/><circle cx="249" cy="85" r="17" fill="#b8b8b8"/><path fill="#858585" d="M121 48h35v22h-35z"/><ellipse cx="137" cy="87" fill="#dbdbdb" rx="23" ry="8"/><circle r="1" fill="#fefefe" transform="rotate(-52.2 41.4 -84.5) scale(16.31359 34.89262)"/><path d="M153.4 73l-32.9-3 .1-1 32.9 3z"/><circle r="1" fill="#fcfcfc" transform="matrix(15.89499 -17.69261 35.84802 32.20576 30.3 191)"/><path fill="#3f3f3f" d="M161 75h17v9h-17z"/><path fill="#a9a9a9" d="M80.7 110.1l34.2-1-23.8-50.8-13.4 6.4z"/><path fill="#f3f3f3" d="M236 100h13v26h-13z"/><circle r="1" fill="#7a7a7a" transform="matrix(18.33493 -4.3119 .44167 1.87805 235.2 24.4)"/><path fill="#4d4d4d" d="M138 98h80v3h-80z"/><path fill="gray" d="M228 141h28v5h-28z"/><path fill="#b8b8b8" d="M133 123l-14-33 22 11z"/><path fill="#858585" d="M129 5l22 16-41 1z"/><path fill="#fff" d="M52 80l17 4 10-7z"/><path fill="#b6b6b6" d="M150 128h93v4h-93z"/><path fill="#969696" d="M180 74h56v22h-56z"/><path fill="#dadada" d="M111 144h133v12H111z"/><path fill="#9a9a9a" d="M196 109h15v26h-15z"/><path fill="#737373" d="M182 65l-23-20 73 10z"/><circle r="1" fill="#595959" transform="rotate(10.7 -633.8 927.9) scale(38.03449 1)"/><path fill="#191919" d="M219 110h4v11h-4z"/><path fill="#a9a9a9" d="M83 121h38v5H83z"/><path fill="#767676" d="M154 101h54v6h-54z"/><path fill="#b1b1b1" d="M14.5 47.2l28.8 17.9-1.9 35.6-27.8 10.2z"/><ellipse cx="241" cy="19" fill="#7c7c7c" rx="12" ry="4"/><path fill="#cacaca" d="M249.3 97.2l-7.5 18.9-17.2-23.5-21.7 19.9z"/><path fill="#414141" d="M57.5 133.4l-36.1-16 17 3.8-36.8 31.4z"/><ellipse cx="84" cy="110" fill="#757575" rx="59" ry="2"/><path fill="#fff" d="M233 29l31-7.8 1 3.9-31 7.7z"/><circle r="1" fill="#878787" transform="matrix(-.19137 -1.87353 52.09516 -5.32133 71.4 145.6)"/><path fill="#cecece" d="M119 53H96l27 42z"/><path fill="#a2a2a2" d="M16 13h45v9H16z"/><circle r="1" fill="#dedede" transform="matrix(37.11133 -2.66017 .47542 6.63246 248.3 133)"/><path fill="#ababab" d="M219.1 71.8l-4.2 4.9-9.9 27.1 1.9-35.8z"/><ellipse cx="152" cy="141" fill="#cecece" rx="24" ry="4"/><path fill="#5d5d5d" d="M186.3 96.7l21.8 5.5-35.5 24.9 21.1.3z"/><path fill="#666" d="M38 34.5l6.4 21.3-13.9 1.5-28-22.6z"/><path fill="#fff" d="M65 78l8 26 4-26z"/><path fill="#ebebeb" d="M105 23h66v10h-66z"/><path fill="#868686" d="M27.4 125l10 1.2-29.1 4.4L35 106.4z"/><circle r="1" fill="#dedede" transform="matrix(-.2825 2.626 -27.18004 -2.92399 186.1 134.1)"/><circle r="1" fill="#9d9d9d" transform="matrix(.7115 4.06194 -50.57218 8.85834 221 40)"/><path fill="#060606" d="M144 74l12.3-5.1 18.2 4 9.1-4.1z"/><circle r="1" fill="#505050" transform="matrix(-3.37698 -5.27638 1.32973 -.85105 64.7 89.4)"/><path fill="#c3c3c3" d="M118 96l37 10-41 1z"/><ellipse cy="86" fill="#d2d2d2" rx="7" ry="52"/><path fill="#777" d="M121 73h41v5h-41z"/><path fill="#474747" d="M108 137l16-19 35 16z"/><path fill="#b4b4b4" d="M33 56h48v23H33z"/><path fill="#444" d="M64 108l5-15-10-1z"/></g></g></svg>