<svg xmlns="http://www.w3.org/2000/svg" viewBox="0 0 1200 900"><defs/><filter id="a"><feGaussianBlur stdDeviation="12"/></filter><rect width="100%" height="100%" fill="#656d32"/><g filter="url(#a)"><g fill-opacity=".5" transform="translate(2.3 2.3) scale(4.6875)"><circle cx="133" cy="21" r="219" fill="#9db0ed"/><circle r="1" transform="matrix(92.75056 94.9202 -16.39225 16.01757 55.4 118.7)"/><circle r="1" fill="#303400" transform="matrix(7.1618 22.2464 -112.87206 36.33703 161.3 101.2)"/><circle r="1" fill="#fff" transform="matrix(17.49746 -21.0011 82.63033 68.845 26.7 162.7)"/><ellipse cx="104" cy="31" fill="#9ac7ff" rx="171" ry="39"/><ellipse cx="92" cy="83" fill="#1c2800" rx="149" ry="13"/><ellipse cx="207" cy="184" fill="#fffcfb" rx="55" ry="33"/><path fill="#a19d4e" d="M157 86h99v67h-99z"/><circle r="1" fill="#bdc08e" transform="matrix(55.71248 -2.91977 .37516 7.15849 48.2 106.7)"/><path fill="#b9d2ff" d="M39 44h175v25H39z"/><path fill="#afa66c" d="M88.1 155.6l70.4 47.8 2.6-77.4-53.6 16.3z"/><circle r="1" fill="#101a34" transform="matrix(-58.4574 17.31587 -3.8445 -12.9788 114.7 127.4)"/><circle r="1" transform="matrix(65.11831 53.64746 -7.60096 9.2262 116 191)"/><ellipse cy="85" fill="#050d00" rx="95" ry="16"/><path fill="#e7e6fc" d="M242.4 116.8l-2.7 13.7-48-9.3 2.6-13.7z"/><circle r="1" fill="#515f00" transform="matrix(7.94676 21.43058 -50.9554 18.89499 252.6 72.3)"/><ellipse cx="55" cy="15" fill="#7d9de2" rx="209" ry="45"/><circle r="1" fill="#e3dee9" transform="matrix(-24.64995 26.85303 -43.66 -40.07804 8.8 155.7)"/><path fill="#acaf99" d="M93 98h76v8H93z"/><circle r="1" fill="#bad3f3" transform="matrix(-8.57486 -.61116 1.15355 -16.18472 88.7 61)"/><path fill="#53620d" d="M94 73h137v21H94z"/><path fill="#aec8f5" d="M265.2 38.1l-68.6 35-11.8-23.2 68.6-35z"/><path fill="#7a7b2f" d="M171 124h44v28h-44z"/><path fill="#bdc0ca" d="M164 123l65-5-24-18z"/><path fill="#283100" d="M-16 67.4V121l27.3-12.5 20-46.5z"/><ellipse cx="28" fill="#698ac3" rx="187" ry="22"/><ellipse cx="7" cy="54" fill="#acc5e5" rx="235" ry="8"/><ellipse cx="69" cy="123" fill="#1d242f" rx="41" ry="14"/><path fill="#c8c9ca" d="M144 132l-60 20 31 3z"/><path fill="#828a35" d="M148.2 107.8l29.8 6 4.7-46.2-16.2 2.5z"/><circle r="1" fill="#d6d2d1" transform="matrix(-2.25704 -9.69004 19.69166 -4.58665 177.4 162.8)"/><circle r="1" fill="#ddddf8" transform="rotate(85.3 -31 85.6) scale(1 100.65183)"/><path fill="#dbdeee" d="M187 100h39v3h-39z"/><path fill="#838145" d="M152.5 134.5l-36.6 17.2 48.7 10.2 26.6-39.7z"/><path fill="#3d4a1d" d="M100 74h30v27h-30z"/><path fill="#cdcdd3" d="M149.1 158.2l-51.8-9.7 48.2 15.8 74.9 7.7z"/><path fill="#494d4f" d="M217.5 199.4l-40.1-6.1 1.2-7.9 7 2.9z"/><path fill="#dad9e0" d="M122 139l46-18-18 15z"/><path fill="#66653c" d="M154.7 166.3l-6.5 24.2-32.9-8.8 6.5-24.2z"/><path fill="#283036" d="M101 143L81 91l-4 67z"/><path fill="#e7e5ed" d="M115 207l-88-83 31 62z"/><path fill="#838736" d="M228.1 95.3L271 54.9l-29.7 4.5L271 141z"/><path fill="#fff" d="M216 148h5v27h-5z"/><path fill="#0f1a0f" d="M200 97l16 2 18-26z"/><path fill="#070e01" d="M95 87L-6 103l-2-29z"/><path fill="#79853d" d="M53.7 81.8l33.5-7.9-22.1-4-20.2 1.4z"/><path fill="#172026" d="M20 115h35l30 62z"/><path fill="#080f00" d="M81.1 174.6l.9-16.5 60.1 33.6-36 8.1z"/><path fill="#697624" d="M-5 73.4l-11 .9V56.2l60.6 11.9z"/><circle r="1" fill="#98b3e0" transform="matrix(-.7306 -11.20028 160.52865 -10.47135 99 43.8)"/><path fill="#c1dbf6" d="M142 70.5l2.2-13.8 17.8 2.8-2.2 13.8z"/><path fill="#8b9929" d="M53 97.1l.7 6L-1 109l-.7-6z"/><circle r="1" fill="#293238" transform="rotate(-114.1 94.3 31.3) scale(15.10063 46.42898)"/><path fill="#bcd4ea" d="M72.1 68.8l59.1 1.4-12.3-12.3-28.6 17.5z"/><path fill="#1e2a3f" d="M221 161h4v9h-4z"/><path fill="#ebecfe" d="M181 95h18v2h-18z"/><path fill="#1a280f" d="M175 124h23v4h-23z"/><path fill="#fcfaff" d="M8 114l11-1 14 17z"/><path fill="#9da09a" d="M271 133.1l-20.4 4.5-64.3-46.1 84.7 36.8z"/><circle r="1" fill="#999a51" transform="matrix(-42.3052 -11.33564 2.6279 -9.80743 228.5 139.3)"/><path fill="#bbc29f" d="M130 97h31v6h-31z"/><ellipse cx="192" cy="103" fill="#606734" rx="25" ry="2"/><circle r="1" fill="#82a2da" transform="matrix(.16767 16.01106 -94.22176 .98672 235 15.4)"/><path fill="#666f17" d="M244 50h12v52h-12z"/><path fill="#4c5918" d="M184 93l26-29 59 16z"/><path fill="#e1dfde" d="M271 168l-24 9.1-18.2-29.3-1.8 11.1z"/><path fill="#0e1730" d="M179 111l-24 11h12z"/><path fill="#3a4b13" d="M200.6 72.7l-17.2-4.2-12.2-.5 10.9 14.5z"/><path fill="#3c3e3a" d="M115.9 106.1l-94.7 15.1 141.8.6-12.8-18.5z"/><path fill="#b9d2e5" d="M203.3 61l-9.5-1.3-48.7 5 61.3 6.7z"/><path fill="#c6bfaf" d="M98.5 98.7l-1 2.8-18-6.2 1-2.8z"/><path fill="#dbdbdc" d="M176 118h60v5h-60z"/><path fill="#1a2435" d="M99 98.1l16.5-4 1.5 5.8-16.5 4z"/><path fill="#302f42" d="M-23.4 112.7l50.8-4.4v1l-50.8 4.4z"/><path fill="#b4cdf5" d="M215 57l37-19-13 19z"/><path fill="#c2bec3" d="M65.2 95.8l9.9 2.3 8.7 11.1-16.4-.8z"/><ellipse cx="234" cy="106" fill="#61635b" rx="24" ry="3"/><ellipse cy="173" fill="#cccdd3" rx="61" ry="23"/><path fill="#4c5a17" d="M134 68l33 21-87 4z"/><path fill="#c6c6c8" d="M148.8 186l24.6-36.7 32.3 16.1-43.6 35.6z"/><circle r="1" fill="#535a32" transform="matrix(.0415 1.40486 -78.01676 2.30436 83.4 95.2)"/><path fill="#a2a894" d="M96.3 158.4L84 154.5l20.1-7.9 22.5 9.2z"/><path fill="#828752" d="M260.2 120.5l-39.2-3.7 39.3 8.6-29.7-61.7z"/><path fill="#737e34" d="M181.7 97.1l-10.1-29.8 2.4-.1-26 7.6z"/><path fill="#605f4b" d="M237.1 147.4l-11.9-3.6 29.7 19.9-17.2-5.5z"/><path fill="#2c2d23" d="M233.4 152.3l37.6 21.3-9.6-11.8-17.9-1.5z"/><circle r="1" fill="#bbb8c1" transform="rotate(52.2 -60.2 143.7) scale(3.60377 9.672)"/><path fill="#727c2d" d="M162 104h33v9h-33z"/><path fill="#556800" d="M42 102h22v3H42z"/><ellipse cx="246" cy="103" fill="#c5c5ae" rx="13" ry="2"/><path fill="#898e43" d="M252.6 96.1l7.3-9.3-32.2-1.8.3 11z"/><circle cx="83" cy="100" r="3" fill="#00000c"/><path fill="#1b252f" d="M81.6 152.9l38.8-12.6-78.7-5.3 27.5 27.8z"/><path fill="#93938f" d="M209.7 113.2l-.5-3.7-6.6-8.1-5 18.5z"/><path fill="#27310a" d="M228 57l8 24h-14z"/><circle r="1" fill="#cecbc3" transform="matrix(35.57992 -16.28976 .41628 .90924 148.4 134)"/><path fill="#a3bde5" d="M161.6 38.4l108.7 5.9L219.6 56l-3.7 11.8z"/><path fill="#a9aaa2" d="M105 96h18v1h-18z"/><circle r="1" fill="#323f16" transform="rotate(93.9 -18.7 50.1) scale(5.14192 14.98484)"/><path fill="#abae48" d="M103 88l4 6-8 2z"/></g></g></svg>