<svg xmlns="http://www.w3.org/2000/svg" viewBox="0 0 1200 900"><defs/><filter id="a"><feGaussianBlur stdDeviation="12"/></filter><rect width="100%" height="100%" fill="#5c4e3a"/><g filter="url(#a)"><g fill-opacity=".5" transform="translate(2.3 2.3) scale(4.6875)"><ellipse cx="66" cy="76" fill="#e6e4da" rx="255" ry="97"/><circle r="1" fill="#d6c9b6" transform="matrix(124.89221 -19.99139 4.047 25.28278 158.6 97)"/><circle r="1" fill="#0f1323" transform="rotate(-129.7 156.8 35.2) scale(37.51948 15.09282)"/><circle cx="141" cy="191" r="38" fill="#2b3038"/><circle r="1" fill="#807969" transform="rotate(-173.4 117.5 4.7) scale(59.59261 40.53279)"/><circle r="1" fill="#8c8385" transform="matrix(-7.97019 12.39415 -49.85268 -32.0583 237.2 146.5)"/><circle r="1" fill="#605c52" transform="matrix(21.64537 -27.9162 13.6893 10.61426 27.8 153.2)"/><path fill="#bab5ad" d="M42 152h56v29H42z"/><path fill="#fff" d="M44 72h7v51h-7z"/><path fill="#afa797" d="M183 67h21v113h-21z"/><circle r="1" fill="#091016" transform="matrix(18.4514 -15.05396 4.95813 6.0771 24.8 180.5)"/><ellipse cx="27" cy="29" fill="#807866" rx="20" ry="61"/><path fill="#b9ac9d" d="M128.7 70.5l6.9 104.7 25-3.9-3.1-3z"/><path fill="#12171f" d="M54 181h109v11H54z"/><circle cx="90" cy="120" r="40" fill="#b7b0a2"/><ellipse cx="140" fill="#9ba2ad" rx="255" ry="9"/><path d="M44 128h8v12h-8z"/><path fill="#beffed" d="M186.5 187.1l-9.1 4.6-19.7 15.3 47.3-14.5z"/><path fill="#191e25" d="M153 184l20-35 7 26z"/><circle r="1" fill="#ffdeb3" transform="matrix(-20.5223 4.51212 -2.47158 -11.24139 225 75.6)"/><ellipse cx="127" cy="164" fill="#15181b" rx="4" ry="24"/><ellipse cx="48" cy="164" fill="#f8ffff" rx="4" ry="14"/><path fill="#161312" d="M200.2 146.9l37.2 16.7 33.6 17.2-37 8.2z"/><circle r="1" fill="#94867e" transform="rotate(41.3 -60.4 384.8) scale(56.97461 22.19037)"/><circle r="1" fill="#8a8579" transform="rotate(-51.3 166 62.7) scale(38.21922 17.31755)"/><circle r="1" fill="#86899f" transform="matrix(-.89735 -5.86423 36.38577 -5.5678 254 191)"/><path fill="ivory" d="M37 77h3v57h-3z"/><ellipse cx="171" cy="59" fill="#61543b" rx="182" ry="2"/><circle cx="162" cy="105" r="26" fill="#c6c2bc"/><ellipse cx="209" cy="18" fill="#8a816e" rx="229" ry="11"/><ellipse cx="57" cy="115" fill="#958e77" rx="7" ry="65"/><path fill="#0f0d10" d="M204 154h10v38h-10z"/><circle r="1" fill="#796c54" transform="matrix(1.81866 -37.18512 4.92421 .24083 27.4 90.4)"/><circle r="1" fill="#849197" transform="rotate(149.6 -1 99) scale(6.38933 14.16446)"/><ellipse cx="90" cy="162" fill="#a59786" rx="29" ry="15"/><path fill="#fcffff" d="M187 99l-11 8 7-22z"/><circle r="1" fill="#202325" transform="matrix(7.69409 9.93205 -21.54954 16.69384 15 191)"/><path fill="#c0b6a6" d="M56 155.8l-3.4-24.7 63.3-9 3.5 24.8z"/><ellipse cx="47" cy="92" fill="#fffff9" rx="4" ry="17"/><path fill="#776e67" d="M204 129h26v21h-26z"/><ellipse cx="138" cy="76" fill="#ada493" rx="66" ry="14"/><path fill="#b4bec6" d="M215 173h3v13h-3z"/><path fill="#8c8476" d="M0 124h44v40H0z"/><path fill="#020b18" d="M190 181h16v7h-16z"/><ellipse cy="90" fill="#a1a7af" rx="14" ry="38"/><path fill="#070705" d="M160 160l10 12-15-7z"/><path fill="#141419" d="M137 132l-1-4 9-1z"/><path fill="#2c281f" d="M53.9 159.1l-9.7-33.6 2-.6 9.6 33.6z"/><path fill="#1a1c1b" d="M132 166l-6 13-12-15z"/><path fill="#00040c" d="M170 134l-1-5h11z"/><path fill="#918878" d="M129 130l-5 39-10-33z"/><circle r="1" fill="#7c7361" transform="rotate(108.1 115.7 105.2) scale(16.06597 36.90728)"/><path fill="#1d2024" d="M182 169l-14 23 2-36z"/><ellipse cx="157" cy="154" fill="#766c63" rx="28" ry="4"/><path d="M204 151h15v5h-15z"/><circle r="1" fill="#c0b8ae" transform="rotate(-93.1 156.8 -14.1) scale(9.40184 10.81004)"/><circle cx="158" cy="172" r="2" fill="#eaeef0"/><ellipse cx="53" cy="99" fill="#7e6a42" rx="2" ry="21"/><path fill="#a59d8f" d="M181 107h23v60h-23z"/><circle r="1" fill="#a19884" transform="rotate(160.5 26.8 24) scale(46.80443 16.16463)"/><path fill="#a9a28f" d="M70 39h160v19H70z"/><path fill="#a99e90" d="M169.6 162.5l-29-2 1.8-25 29 2z"/><ellipse cx="25" cy="155" fill="#524637" rx="2" ry="21"/><path fill="#b29d8d" d="M216.5 84.7l31.9 42.3L271 51.2l-81.7 95.6z"/><path fill="#00040d" d="M181.8 156.7l-10.1-6.5.5-.9 10.1 6.5z"/><path fill="#92ceab" d="M180 183l30 11-31 3z"/><path fill="#09090f" d="M232 160l35 39 4-17z"/><circle r="1" fill="#786b51" transform="matrix(11.4128 4.74427 -3.14408 7.56338 31.6 68)"/><ellipse cx="231" cy="77" fill="#f2ddbf" rx="8" ry="15"/><ellipse cx="17" cy="131" fill="#989998" rx="5" ry="43"/><path fill="#a2957f" d="M44.1 140.7l19.4-7.7-31.1 19 11.4-45z"/><circle r="1" fill="#8f8682" transform="rotate(-37.9 333.4 -285.4) scale(12.73962 47.68073)"/><path fill="#6c6856" d="M59 74h2v54h-2z"/><path fill="#312f2b" d="M40.9 205.6l-5.6-24 8.9-19.8L.4 188.9z"/><path fill="#beb7aa" d="M79 67h21v90H79z"/><path fill="#8c8773" d="M180 67h11v20h-11z"/><path fill="#8a7e70" d="M154.4 174l1 6-11.8 2-1-6z"/><path fill="#c1c5cd" d="M118 190h5v2h-5z"/><ellipse cx="101" cy="102" fill="#807665" rx="1" ry="49"/><path fill="#cab190" d="M190 64h31v38h-31z"/><path fill="#998972" d="M46.7 154l-.7 1.2L27.5 80l-1.4 96.4z"/><ellipse cx="199" cy="98" fill="#838177" rx="2" ry="34"/><ellipse cy="157" fill="#797d70" rx="15" ry="27"/><path fill="#bdb5ab" d="M132.3 127.2L106.2 114 178 59.9l4.4 64.9z"/><path fill="#8e815a" d="M33 85h21v2H33z"/><path fill="#988f82" d="M56 156l-7 22 70-7z"/><path fill="#596568" d="M133.8 181.4l.5 22 62.8-18.8-46.3 11.5z"/><path fill="#eaf0cb" d="M36 76h4v37h-4z"/><path fill="#b4af9f" d="M54 64h5v77h-5z"/><path fill="#272a30" d="M181.4 180.3l30.4 2.9 14 11.3.7 12.5z"/><path fill="#dcdfe6" d="M44.9 169.9l-2.5-17.5 5.7-.2 2.2 12.8z"/><path fill="#77654e" d="M218 160h19v3h-19z"/><path fill="#7b6c5e" d="M190 117h9v12h-9z"/><ellipse cx="161" cy="59" fill="#625644" rx="107" ry="1"/><path fill="#242424" d="M108.8 181.2l-56.6 1L80 207l24.4-33.4z"/><path fill="#6b6056" d="M146 155l-22 2-1-10z"/><path fill="#936e48" d="M203 59h53v4h-53z"/><circle r="1" fill="#9c9481" transform="matrix(-3.37785 14.27328 -73.03478 -17.2841 167.3 36.6)"/><path fill="#bdb1a2" d="M129 139h18v14h-18z"/><path fill="#100d07" d="M50 133l2-12-9 18z"/></g></g></svg>