<svg xmlns="http://www.w3.org/2000/svg" viewBox="0 0 1200 848"><defs/><filter id="a"><feGaussianBlur stdDeviation="12"/></filter><rect width="100%" height="100%" fill="#2f4a6c"/><g filter="url(#a)"><g fill-opacity=".5" transform="translate(2.3 2.3) scale(4.6875)"><circle cx="146" cy="67" r="194" fill="#fff"/><circle cx="108" cy="94" r="179" fill="#fff"/><ellipse cx="140" cy="95" fill="#fff" rx="215" ry="124"/><circle r="1" fill="#9cbae4" transform="matrix(-116.3598 56.17737 -7.2764 -15.07156 109 110.5)"/><circle r="1" fill="#fff" transform="matrix(-16.01791 -56.15023 245.21744 -69.9529 84.4 32)"/><path fill="#3f6bc8" d="M93.6 105.8l87.2 15-102.6-5.3 14.6-8z"/><path fill="#5a85d3" d="M117.5 87.3L-2.9 174.6-16 186.3l54.7-32.9z"/><circle r="1" fill="#fff" transform="matrix(-.69637 -33.24426 231.72777 -4.854 130 30.8)"/><circle cx="172" cy="85" r="38" fill="#bbd1e6"/><path fill="#fff" d="M45.5 145.3l55.4-32-29.2 26.2L2.6 195zm-21-4.7l20.9-7.5-61.4 51.7L10.9-16z"/><path fill="#fffffa" d="M84 105l59-6-15-12z"/><path fill="#bbc7ea" d="M121 133h29v41h-29z"/><ellipse cx="248" cy="164" fill="#fff" rx="22" ry="36"/><path fill="#a6c0e4" d="M205 120l-12-10-5 56z"/><path fill="#fff" d="M102 120h91v13h-91z"/><circle r="1" fill="#3157c4" transform="matrix(-.36964 2.86068 -17.01743 -2.19888 110.2 113.2)"/><circle r="1" fill="#fff" transform="matrix(-1.6207 -42.1879 11.53302 -.44305 243 53)"/><path fill="#396cca" d="M71 132l9-15-21 12z"/><path fill="#7ea4d8" d="M208 93l2-10-30-5z"/><circle r="1" fill="#fff" transform="rotate(90.1 -14.6 164.1) scale(5.25504 100.98722)"/><path fill="#235bcc" d="M204.2 85.2l-34.3-9.5L143 74l54.4 8z"/><path fill="#a3c0de" d="M60 104l-15 22-23-3z"/><path fill="#235ac5" d="M151.6 155.5l1.7 1-10.9 18-1.7-1z"/><circle r="1" fill="#abc8e1" transform="matrix(.31748 -3.68903 79.43648 6.83645 213.7 123)"/><path fill="#dde9ec" d="M251 93l-35-57-111 19z"/><ellipse cx="224" cy="152" fill="#5584d3" rx="2" ry="9"/><path fill="#f1f5f7" d="M187.5 95.2l-26.5-16-1.2-3.7L208 88.4z"/><path fill="#356dcb" d="M221.7 178l-1 .3-4.4-16.4 1-.2z"/><path fill="#fff" d="M180.9 127l13 5.2L157 223l-13-5.3z"/><path fill="#fffff7" d="M92 113l-21 12 42-8z"/><path fill="#87a3db" d="M172.9 83.8l-22.1.2 2.6 20.6 6.8-11z"/><path fill="#fff" d="M203 131h53v12h-53z"/><circle r="1" fill="#fff" transform="rotate(117.7 20.5 122) scale(42.71862 1.8776)"/><circle r="1" fill="#fcfdfa" transform="matrix(-1.32092 -1.7337 15.34103 -11.68847 60 123.8)"/><circle r="1" fill="#fcffff" transform="matrix(4.31917 4.56167 -16.8022 15.90899 109.8 158.5)"/><circle r="1" fill="#fff" transform="matrix(-3.1118 -4.07006 51.6117 -39.46013 22.2 170.4)"/><circle r="1" fill="#fff" transform="rotate(-92.5 50.5 -22.6) scale(24.84108 151.7572)"/><path fill="#4b76d0" d="M185.8 60.3l-41.2 18.3-.4-1 41.2-18.2z"/><path fill="#406cce" d="M60.6 132.5l-1.7-2.4 36.5-24.6 1.7 2.4z"/><path fill="#becee9" d="M72.9 158.8l-23.6-1.5-24.1 21.9 80.6-52.9z"/><path fill="#bad0e6" d="M173.8 140.6l-14.2-64.9 4.4 55.6.9 25.2z"/><path fill="#7a9cd7" d="M30 163l-12-6 29-18z"/><circle r="1" fill="#89abda" transform="rotate(82.6 16 134.5) scale(1 57.30036)"/><path fill="#7395d6" d="M204.5 148.7l-6.7-16.4-7 12.4 2.9-6.2z"/><path fill="#628fd0" d="M94.8 123.7l-23 19.3-.6-.7 23-19.3z"/><path fill="#a4bde2" d="M165.7 61.7l.4 1-117.8 47.6-.4-1z"/><path fill="#f8feff" d="M209 191l-9-66 24 9z"/><path fill="#f2f7f5" d="M192.2 107.4l-21.7 2.4 1.7-18.2-20-2.9z"/><path fill="#4a81d2" d="M123 129.6l3 12.6-1 .2-3-12.6z"/><path fill="#89a6da" d="M137.2 154.9l7.5-18.4-9.9-3.8 13.6-.1z"/><ellipse cx="214" cy="65" fill="#c5d7e6" rx="16" ry="12"/><path fill="#fcfcfc" d="M-16 145.3L-8.3 1.8l93.1 93.1-49.1 18.5z"/><path fill="#5e84d2" d="M82.3 107l41-20.9.4.9-41 20.9z"/><path fill="#f9fbf6" d="M128.7 75.6l55.1-31.7-1.2 22.3L196 50.4z"/><path fill="#fff" d="M158.3 170.8l11-20.2-17.5 8.6 9.3-39.1zm-60.7-49.2l19-4.6-58.4 76.4 64.2-70.5z"/><path fill="#98b6db" d="M4.3 137.2l-20.3 3.6v2.9l61.3-30.9z"/><path fill="#265ecb" d="M171 146h-2l1-7z"/><circle r="1" fill="#527ed2" transform="rotate(-126.1 60 59) scale(1 52.99656)"/><path fill="#81a0da" d="M165 85l19 10-5-8z"/><path fill="#dae7ea" d="M83.5 82.1l-40.6-5.8 35-10.9 6.9-12.5z"/><path fill="#fff" d="M38 139.5l-43.2 29.1-2.8-4.1 43.2-29.1z"/><path fill="#7197d6" d="M151 115h12v6h-12z"/><path fill="#0449be" d="M141 92h4l-2 4z"/><path fill="#fff" d="M3.2 175.3l66.9-32.9L3.2 195-16 100.1z"/><path fill="#9bbbde" d="M67.3 143.5l.7.7-75.3 70.3-.7-.7z"/><path fill="#dce7e7" d="M13.8 118.6l32.4-41.3-5.8-1.8-26 30z"/><path fill="#2c67cf" d="M178 78h12v3h-12z"/><path fill="#b9cfe7" d="M186 132l-6.3 38.9-18.6 24.1 13.5-17.1z"/><path fill="#f9fbfc" d="M101 90.2l89.9-34.6-68.2 31.2-27.8 11.1z"/><path fill="#cedaea" d="M119.3 112.3l-38.8-9.7.2-1 38.8 9.8z"/><circle r="1" fill="#a1bcd8" transform="matrix(44.57868 -28.80807 .54276 .83989 12 147.9)"/><path fill="#fff" d="M149 124h46v12h-46z"/><path fill="#d9e0ed" d="M131 188l-27-19 22-28z"/><circle r="1" fill="#fcfffc" transform="matrix(-.79508 -.6065 31.70914 -41.56772 129.6 142.6)"/><circle r="1" fill="#f1f4fa" transform="matrix(-1.15613 -2.36741 34.66706 -16.92973 54.5 113.2)"/><path fill="#c7d9ec" d="M123 121l5 12-35 22z"/><path fill="#e1eaf3" d="M179 89.7l-35-13.4 28.5 3.2 31.4 5.3z"/><ellipse cx="242" cy="61" fill="#fff" rx="13" ry="11"/><path fill="#fafefd" d="M153.3 151.5l-6.3 32.4 24.4-79.1-29.6 60.2z"/><path fill="#6b95d4" d="M188.2 80.5h1l-1.4 17h-1z"/><path fill="#fff" d="M246.6 181.7l-21.1-51.2 45.5-2.8-17.3-14.3zm15.1 6.9l-114.5-21.7-1.9 8.9-156.5 3z"/><path fill="#bad0e4" d="M231.4 142.8l9.2 40-2 .4-9.2-40z"/><path fill="#afc5e6" d="M200 143h4v26h-4z"/><path fill="#cddbed" d="M76 161l35-35-33 12z"/><path fill="#477bc5" d="M200 76h2v12h-2z"/><path fill="#dff0ed" d="M198 94h55v27h-55z"/><path fill="#b8cae4" d="M45.3 179.5l55.4-55-45.1 51.9-10.8 1z"/><path fill="#8aaadd" d="M139 111l9 8 3-5z"/><path fill="#bfd3e7" d="M146.1 186.5L154 163l16.9-39-7.9 26.9z"/><path fill="#fff" d="M257.3 191.3L216.6 157l5.8 16.1-9.1 21.9z"/><path fill="#b7d0e1" d="M238.1 129.5l16.8-17.7-34.4 23.8-4.2-13.8z"/><circle cx="5" cy="169" r="3" fill="#5585d1"/><path fill="#bfbdbc" d="M255.1-9l.8 42h-1L254-9z"/><path fill="#7a9eda" d="M39 139h5v14h-5z"/><path fill="#b1cae4" d="M160.3 178.6l1.2-12.9 2.7-6.8 10.7-24.6z"/><ellipse cx="146" cy="82" fill="#779cdb" rx="13" ry="2"/><path fill="#9bb8de" d="M194.5 84l-3.1-17.7 14.2-5-11.5 12.3z"/></g></g></svg>