<svg xmlns="http://www.w3.org/2000/svg" viewBox="0 0 1200 969"><defs/><filter id="a"><feGaussianBlur stdDeviation="12"/></filter><rect width="100%" height="100%" fill="#444"/><g filter="url(#a)"><g fill-opacity=".5" transform="translate(2.3 2.3) scale(4.6875)"><circle cx="97" cy="123" r="205" fill="#fff"/><circle cx="131" cy="101" r="169" fill="#fff"/><ellipse cx="129" cy="123" fill="#fff" rx="172" ry="205"/><circle cx="129" cy="116" r="194" fill="#fff"/><path fill="#848484" d="M99 0h44v11H99z"/><ellipse cx="98" cy="54" fill="#ddd" rx="95" ry="29"/><ellipse cx="228" cy="120" fill="#fff" rx="43" ry="205"/><circle cx="180" cy="103" r="42" fill="#e4e4e4"/><ellipse cx="162" cy="32" fill="#c3c3c3" rx="116" ry="4"/><ellipse cx="108" cy="130" fill="#b3b3b3" rx="81" ry="3"/><circle r="1" fill="#fff" transform="matrix(-88.00328 -137.3347 34.30402 -21.98182 0 143)"/><circle r="1" fill="#e4e4e4" transform="matrix(-3.84714 -25.43802 55.94577 -8.461 125.4 165.3)"/><path fill="#cacaca" d="M80 85.4l-9.7 121.3 1.2-133 98 4.2z"/><path fill="#979797" d="M163 85h4v43h-4z"/><ellipse cx="204" cy="16" fill="#fff" rx="180" ry="14"/><ellipse cx="108" cy="68" fill="#959595" rx="106" ry="1"/><ellipse cx="26" cy="98" fill="#b8b8b8" rx="3" ry="38"/><ellipse cx="98" cy="8" fill="#828282" rx="20" ry="2"/><ellipse cx="8" cy="27" fill="#bdbdbd" rx="56" ry="3"/><path fill="#bfbfbf" d="M164.5 12.6L100.1 10l58.5-5.9-7.2-.7z"/><ellipse cx="120" fill="#6c6c6c" rx="20" ry="4"/><ellipse cx="214" cy="98" fill="#bbb" rx="3" ry="38"/><ellipse cx="218" cy="176" fill="#fff" rx="49" ry="44"/><path fill="#fff" d="M77 81h82v46H77z"/><path fill="#c7c7c7" d="M59 141h104v5H59z"/><path fill="#fff" d="M90 38h62v26H90z"/><ellipse cx="57" cy="106" fill="#bebebe" rx="2" ry="40"/><ellipse cx="94" cy="73" fill="#fff" rx="80" ry="4"/><ellipse cx="33" cy="4" fill="#fff" rx="47" ry="22"/><path fill="#fff" d="M160.2-6.4l111 3.8-1.4 37-111-3.8z"/><path fill="#bebebe" d="M71 186h100v4H71z"/><path fill="#fff" d="M168 75h13v60h-13z"/><path fill="#a8a8a8" d="M73 75h4v47h-4z"/><path fill="#fff" d="M71.2 120l1-65.9-13.8 76.6 20.9 13.9z"/><ellipse cx="25" cy="169" fill="#fff" rx="45" ry="37"/><ellipse cx="145" cy="34" fill="#aaa" rx="39" ry="2"/><path fill="#969696" d="M85.6 62.4l1.8-34.9h1l-1.8 35z"/><ellipse cx="248" cy="91" fill="#fff" rx="32" ry="55"/><path fill="#fff" d="M108.1 176.1l.8-21 21 .8-.8 21zm78.4-120.8L271 92.5l-96.5-61.1.7 16.3z"/><ellipse cx="147" cy="78" fill="#b0b0b0" rx="22" ry="3"/><path fill="#fff" d="M75 133h95v8H75z"/><path fill="#aeaeae" d="M12.2 66.3L3.5 25.9l.2 13.8 7 28.5z"/><ellipse cx="248" cy="35" fill="#aaa" rx="11" ry="2"/><path fill="#c5c5c5" d="M181 67h4v65h-4z"/><path fill="#fff" d="M118-3l2 30-9-1z"/><path fill="#b0b0b0" d="M96 145h3v41h-3z"/><path fill="#7d7d7d" d="M143 143h1v44h-1z"/><ellipse cx="132" cy="203" fill="#fff" rx="255" ry="14"/><path fill="#d3d3d3" d="M77 64l-48 6 30 6z"/><path fill="#c1c1c1" d="M166 139h4v47h-4z"/><ellipse cx="153" cy="52" fill="#a9a9a9" rx="2" ry="17"/><ellipse cx="119" cy="66" fill="#c8c8c8" rx="52" ry="2"/><path fill="#fff" d="M22.5 82.1L24 71.4 23 221-16 37.7z"/><ellipse cx="138" cy="72" fill="#fff" rx="51" ry="4"/><path fill="#b6b6b6" d="M81 77h85v4H81z"/><path fill="#f1f1f1" d="M12 29h50v39H12z"/><ellipse cx="192" cy="70" fill="#9b9b9b" rx="19" ry="1"/><path fill="#fff" d="M197.2 75.2l11 .7-3.4 49-11-.8z"/><path fill="#c4c4c4" d="M184 130h34v4h-34z"/><path fill="#a9a9a9" d="M123 7h37v4h-37z"/><path fill="#515151" d="M77 31h1v15h-1z"/><path fill="#e8e8e8" d="M28 73h9v63h-9z"/><path fill="#c8c8c8" d="M44 27h55v4H44z"/><ellipse cx="171" cy="48" fill="#969696" rx="1" ry="18"/><path fill="#fff" d="M139 7.2l4.5-20.4 87.3 17.5-89.5 3z"/><ellipse cx="126" cy="18" fill="#fff" rx="184" ry="8"/><path fill="#4d4d4d" d="M130.2-3.7l10.6 5.6-1 1.8-10.6-5.6z"/><path fill="#dedede" d="M188 54l-4 25-12-11z"/><path fill="#c5c5c5" d="M55 63h2v82h-2z"/><path fill="#fff" d="M3 40l-19 169h57zm191 27l61-28-82-6z"/><path fill="#f4f4f4" d="M114.7-16L126.6.5l1.1 68-1-63.3z"/><path fill="#fff" d="M170 147h86v59h-86z"/><path fill="#9d9d9d" d="M68 29h1v38h-1z"/><path fill="#fefefe" d="M59.8 77.1l11.5 78.6 1.1-85.1 17.8 5z"/><ellipse cx="24" cy="116" fill="#a2a2a2" rx="1" ry="18"/><ellipse cx="108" cy="35" fill="#919191" rx="21" ry="1"/><path fill="#d4d4d4" d="M139.5 197l-17.5-7.3 41.7.4-28.6-4.1z"/><path fill="#9a9a9a" d="M174 31h1v25h-1z"/><path fill="#fff" d="M89 38h59v6H89z"/><path fill="#bdbdbd" d="M163 81h5v46h-5z"/><ellipse cx="113" fill="#111" rx="3" ry="1"/><ellipse cx="74" cy="117" fill="#bbb" rx="3" ry="16"/><path fill="#dfdfdf" d="M53 122l17 19-42-11z"/><path fill="#fff" d="M81 181l-5-21 8-10z"/><path fill="#b8b8b8" d="M83.1 11.3l-4.7-1.6 3.7-3.2 76.5 1.3z"/><path fill="#bbb" d="M73 128h95v4H73z"/><path fill="#fff" d="M271 141.3l-104.7-10.7 10.8-7.6 47.5 98z"/><path fill="#b8b8b8" d="M105 190h8v4h-8z"/><path fill="#d1d1d1" d="M82 101h38v2H82z"/><path fill="#fff" d="M217 37h39v169h-39z"/><path fill="#9f9f9f" d="M27.5 130h-1V70h1z"/><path fill="#b2b2b2" d="M53 54h2v17h-2z"/><ellipse cx="95" cy="34" fill="#f2f2f2" rx="57" ry="1"/><ellipse cx="231" cy="26" fill="#fff" rx="66" ry="6"/><path fill="#fff" d="M136.2 7l-25.1 21.3L119-7.2l-.1 25z"/><circle r="1" fill="#fff" transform="rotate(172.4 17.4 1.2) scale(73.74636 16.22656)"/><ellipse cx="136" cy="141" fill="#b1b1b1" rx="36" ry="1"/><ellipse cx="120" cy="143" fill="#f6f6f6" rx="61" ry="1"/></g></g></svg>