<svg xmlns="http://www.w3.org/2000/svg" viewBox="0 0 1200 738"><defs/><filter id="a"><feGaussianBlur stdDeviation="12"/></filter><rect width="100%" height="100%" fill="#322f2d"/><g filter="url(#a)"><g fill-opacity=".5" transform="translate(2.3 2.3) scale(4.6875)"><circle r="1" fill="#fff" transform="matrix(67.87914 143.6129 -157.7428 74.55768 147.8 85.3)"/><circle r="1" fill="#fcfdfb" transform="matrix(84.37515 33.91358 -14.19008 35.30416 161 81.2)"/><ellipse cx="17" cy="76" fill="#fff" rx="51" ry="41"/><path fill="#242627" d="M8 0h62v45H8z"/><ellipse cx="216" cy="50" fill="#fff" rx="238" ry="7"/><path fill="#fff" d="M0 94h190v15H0z"/><path fill="#554a41" d="M64 70h64v21H64z"/><ellipse cx="228" cy="4" fill="#eeebeb" rx="113" ry="9"/><path fill="#171300" d="M192 140h64v10h-64z"/><circle r="1" fill="#8e8381" transform="matrix(7.34773 21.09981 -35.18138 12.25145 232.6 76.7)"/><path fill="#f1f1f2" d="M67 65L36 22l-52 36z"/><path fill="#fff" d="M115.7 142l-46.9-.8 9.8-18.5 32.6 7.9z"/><path fill="#151107" d="M137 127.3l2 57-12 .4-2-57z"/><circle r="1" fill="#fdffff" transform="matrix(22.64022 -8.42064 13.57933 36.51017 155.6 80.1)"/><path fill="#fff" d="M206 33l-16 18 81-1z"/><path fill="#7f7660" d="M169 25L71 45l68-47z"/><path fill="#f9fbfa" d="M211 101h45v26h-45z"/><path fill="#4c4642" d="M7 116h122v8H7z"/><path fill="#fff" d="M0 101h256v7H0z"/><path fill="#0c0c0c" d="M50 0h20v36H50z"/><ellipse cx="95" cy="145" fill="#201d13" rx="35" ry="3"/><path fill="#151006" d="M-36 175.5l-1.6-3.6L60 130.5l1.6 3.6z"/><path fill="#ecf2f2" d="M74 88l-14 42 41-49z"/><path fill="#312818" d="M92 89h19v11H92z"/><path fill="#674244" d="M179 12h19v33h-19z"/><circle r="1" fill="#e7eaea" transform="matrix(-28.14966 7.0214 -1.83138 -7.34222 17.2 137.6)"/><circle r="1" fill="#e9e3bf" transform="matrix(-8.63917 -31.24109 8.74386 -2.41796 92.1 13.9)"/><path fill="#585246" d="M105 0h9v45h-9z"/><path fill="#7b7670" d="M128.4 109l21.2-2-19.3 38-11.6-22.5z"/><path fill="#7c5d56" d="M214.8 73l-15.4-1.2 16.8-18.9 50.4.7z"/><path fill="#8c8982" d="M219.5 144.3l-20.1-37.2-15.9 2.2-14.7 26.1z"/><path fill="#cbcbc9" d="M177 80l94 13-31-27z"/><path fill="#fff" d="M0 46h209v7H0z"/><path fill="#756e6f" d="M98.5 81.9l16.6-26.6 14.7-5.1-1.3 39.5z"/><circle r="1" fill="#dcdedb" transform="rotate(-32.2 292.1 -3.8) scale(20.75647 9.43179)"/><path fill="#fff" d="M63 125l1-79-15 42z"/><path fill="#605a55" d="M39.9 128.2l45.7 5.4-51.2-25-8.6 5.8z"/><path fill="#222119" d="M210 32.5l16.2 1.5-2.2-2.2-10.9-9.7z"/><ellipse cx="221" cy="97" fill="#585c5b" rx="30" ry="3"/><path fill="#e9dfd4" d="M194.7 19.2l-5.4 8.2L137-16l20.8 34z"/><path fill="#e7e9ec" d="M155.7 105.4l-83.3 11.3 38.4-18.3-14.7-19.2z"/><path fill="#484038" d="M167 21l-26 9-2-20z"/><path fill="#c9cacc" d="M153 151h98v6h-98z"/><circle r="1" fill="#e8eaea" transform="rotate(-174.8 1.8 40.2) scale(10.89921 57.36393)"/><circle r="1" fill="#d0d3d3" transform="matrix(29.48326 -.46658 .08502 5.37246 99.6 156)"/><path fill="#d2cdc5" d="M177 128l-1-21-52 13z"/><path fill="#3b352d" d="M129 80l-28-5 28 17z"/><path fill="#3f4040" d="M21 16L-8-4l35 47z"/><path fill="#7e7f7b" d="M0 40h139v5H0z"/><path fill="#dad9c7" d="M203.3 49.3l25.8-10.7L217 14.4l51-16.6z"/><path fill="#0c0600" d="M13 133l11-1-12 6z"/><ellipse cx="233" cy="47" fill="#fff" rx="39" ry="6"/><path fill="#dfe0da" d="M116 31h43v5h-43z"/><path fill="#e7e8e6" d="M130.4 141.2L96.1 122l-1.4 9.3-28.7 7.1z"/><path fill="#494744" d="M65 143h74v7H65z"/><path fill="#c9d2dc" d="M200.5 87.1l8.9-68.4L199.1-3l-.4 41.8z"/><path fill="#0b0b1d" d="M194 16h4v28h-4z"/><path fill="#2b2b2b" d="M58 0h13v45H58z"/><path fill="#c6be9e" d="M72 11h38v23H72z"/><path fill="#0d0000" d="M213 64h20v3h-20z"/><ellipse cx="236" cy="114" fill="#adb2c1" rx="74" ry="6"/><ellipse cx="95" cy="131" fill="#595650" rx="21" ry="2"/><path fill="#a2a2a3" d="M105 140h18v12h-18z"/><path fill="#c1c2c3" d="M72 54h136v17H72z"/><path fill="#877b5f" d="M271 146.2l-26.3-20.6-14.9 6.2 41.2 28.8z"/><path fill="#9ca1ae" d="M3 110h28v8H3z"/><path fill="#b6c2df" d="M143 136h46v7h-46z"/><path fill="#fafcfc" d="M163 70h28v32h-28z"/><path fill="#a5a7b3" d="M24 108h102v7H24z"/><path fill="#3a312a" d="M123.7 118.3l5.3 16.9-15.4-19.6-21.3 5.3z"/><circle cx="255" cy="71" r="5" fill="#550200"/><path fill="#e6e6e6" d="M33 10h3v26h-3z"/><ellipse cx="81" cy="105" fill="#fff" rx="243" ry="3"/><path fill="#fff" d="M23.3 51l-7.9-19.1-.6 23.8 112.4-9.8z"/><ellipse cx="186" cy="131" fill="#8e806e" rx="63" ry="5"/><path fill="#4e4b48" d="M245 14h7v19h-7z"/><path fill="#fff" d="M99.6 122.7l8.5 17.1-40.8-1.6 42.8-4.6z"/><path fill="#544c41" d="M95 88h13v12H95z"/><path fill="#7c7c7c" d="M52.4 8.1L20.3-16-16 20.5 18.8 6.1z"/><ellipse cx="171" fill="#a05157" rx="3" ry="19"/><path fill="#9a99ba" d="M183 44l-25-33 1 32z"/><circle r="1" fill="#2d1f14" transform="matrix(1.00232 -1.32318 10.18483 7.71504 49.6 121.9)"/><path fill="#f1f5fa" d="M-10.7 139.8l36.8-4.5.6 5-36.8 4.4z"/><path fill="#e1e4e7" d="M245.7 83l.8 20 4.2 1.2-1.1-26.4z"/><path fill="#383527" d="M67 90l22-9H66z"/><path fill="#a8a193" d="M115 4h25v28h-25z"/><path fill="#f2f3f2" d="M84 124h23v7H84z"/><path fill="#84774c" d="M76 30h14v15H76z"/><path fill="#23241b" d="M21 146l-14 4-2 22z"/><path fill="#b6abab" d="M247.3 58.4l-1.5 20.2-30.1-26.4-10.7 8.2z"/><path fill="#6c5f53" d="M127 109h21v8h-21z"/><path fill="#494949" d="M41.2 44.5L55.7-16l3.8 4.5-10.7 55.6z"/><path fill="#fff" d="M76 46h180v7H76z"/><path fill="#676f67" d="M174 53h4v17h-4z"/><circle r="1" fill="#cdcfce" transform="matrix(29.829 -9.04685 .6434 2.1214 14.2 130.4)"/><path fill="#e5e5e6" d="M50.7 41.4l-1.3-5.9 3.9-.9 1.3 5.9z"/><path fill="#fffffd" d="M146.4 83.1l-14.3-25.3-2.1 42.9 44.9 8.1z"/><path d="M190 109h2v4h-2z"/><path fill="#afb4bc" d="M121 114l7-6 7 27z"/><circle r="1" fill="#8d918c" transform="matrix(-15.84808 -.45487 .02869 -.99959 29.6 56.3)"/></g></g></svg>