<svg xmlns="http://www.w3.org/2000/svg" viewBox="0 0 1200 849"><defs/><filter id="a"><feGaussianBlur stdDeviation="12"/></filter><rect width="100%" height="100%" fill="#6d6d6d"/><g filter="url(#a)"><g fill-opacity=".5" transform="translate(2.3 2.3) scale(4.6875)"><circle r="1" fill="#fff" transform="matrix(-134.74913 -95.4077 90.89824 -128.38018 125.4 89.9)"/><circle cx="188" cy="109" r="221" fill="#fff"/><circle r="1" fill="#fff" transform="rotate(-8.4 730.6 -781.9) scale(169.83979 148.26426)"/><circle r="1" fill="silver" transform="matrix(62.591 -.874 .32628 23.36683 125.6 101.7)"/><circle r="1" fill="#fff" transform="matrix(-61.77047 .01298 -.05216 -248.14392 212.3 67.6)"/><ellipse cx="143" cy="18" fill="#fff" rx="182" ry="39"/><ellipse cx="91" cy="171" fill="#fff" rx="254" ry="24"/><path fill="#c5c5c5" d="M200 115L59 94l113-14z"/><path fill="#cecece" d="M75 62h45v65H75z"/><circle r="1" fill="#c7c7c7" transform="rotate(142.8 -.2 61.7) scale(30.06796 5.28846)"/><ellipse cx="90" cy="16" fill="#fff" rx="136" ry="16"/><circle r="1" fill="#e4e4e4" transform="matrix(10.42895 -36.54877 25.49107 7.2737 71.7 127.6)"/><ellipse cx="147" cy="152" fill="#fdfdfd" rx="36" ry="38"/><path fill="#eaeaea" d="M148.5 95.2L124.2 107l-16.7-34.2L131.8 61z"/><circle cx="109" cy="94" r="10" fill="#aaa"/><ellipse cx="77" cy="180" fill="#fff" rx="255" ry="16"/><path fill="#d1d1d1" d="M123.5 57.2l-1.7 14.3L36.9 81l86.8-28.3z"/><circle r="1" fill="#d2d2d2" transform="matrix(-.36346 -1.20795 61.03915 -18.36612 174.7 38)"/><path fill="#cdcdcd" d="M2.7 96.5l-2.3 5.1 105.4-42.3L-16 99.6z"/><circle r="1" fill="#fff" transform="matrix(-43.71308 5.00022 -2.50538 -21.90256 237.7 130.9)"/><path fill="#e5e5e5" d="M171.2 105.4l29.9 3.1-20.2 30.4 44.4 52.9z"/><circle cx="222" cy="100" r="9" fill="#dadada"/><ellipse cx="130" cy="90" fill="#c9c9c9" rx="37" ry="5"/><path fill="#fcfcfc" d="M20 196l35-64-71 1z"/><ellipse cx="184" fill="#cecece" rx="93" ry="1"/><path fill="#b5b5b5" d="M125 65l-13-2-19 15z"/><circle r="1" fill="#f9f9f9" transform="matrix(-1.57729 -3.3569 34.15392 -16.04773 67.2 81.9)"/><path fill="#aeaeae" d="M132 102h32v4h-32z"/><path fill="#dbdbdb" d="M177.6 94.4l-34 21.9 91.2-8.2-35.6 6.7z"/><path fill="#ececec" d="M135 158l-90-1 76-38z"/><ellipse cx="199" cy="83" fill="#fefefe" rx="19" ry="27"/><path fill="#f3f3f3" d="M120 55l11 23 76-49z"/><ellipse cy="57" fill="#fff" rx="3" ry="108"/><path fill="#b0b0b0" d="M117 114h12v6h-12z"/><path fill="#fbfbfb" d="M89.7 64.2L82 50 69 25.7l.8 42.8z"/><path fill="#f4f4f4" d="M137.2 98l-15.1.1-5.9 6.3 20.2-1.5z"/><path fill="#fdfdfd" d="M230 38h25v76h-25z"/><path fill="#e3e3e3" d="M33.8 51L19.3 76 .3 65l14.4-25z"/><path fill="#c1c1c1" d="M20.7 119.9l38.8-28.2 1.8 2.4-38.8 28.2z"/><path fill="#ececec" d="M114.1 83.3l44 2.7-72.6-17.4 13.2-.5z"/><path fill="#dadada" d="M196 143l-12-25-4 9z"/><path fill="#d6d6d6" d="M73 130l33-27-38 13z"/><path fill="#e4e4e4" d="M255 1h1v165h-1z"/><path fill="#9d9d9d" d="M97 94l13 9 13-5z"/><path fill="#fcfcfc" d="M195 110.4l47.8 85.6-72.5-90.3-4 36z"/><path fill="#efefef" d="M53 27L3 60l37-43z"/><path fill="#e9e9e9" d="M51 101l38-2-79 37z"/><path fill="#e4e4e4" d="M162 39l-11 4 7-22z"/><path fill="#adadad" d="M141.6 76.6l-2.9-4 1.7-1.2 2.9 4z"/><path fill="#b1b1b1" d="M157 89.1l.8-.5 9.2 14.3-.8.5z"/><path fill="#eaeaea" d="M238 66h10v18h-10z"/><path fill="#e5e5e5" d="M-16 168.3l29.5-41 21.8-31.6-22.5 40.6z"/><circle r="1" fill="#cdcdcd" transform="rotate(-93.7 17.4 4.5) scale(1 5.42596)"/><path fill="#ededed" d="M125.4 115.1l10.8-5.2 4.4 9-10.8 5.2z"/><path fill="#fafafa" d="M164 62h63v22h-63z"/><ellipse cx="116" cy="11" fill="#fff" rx="255" ry="8"/><path fill="#bdbdbd" d="M136 115l17-3-1-6z"/><ellipse cx="143" cy="78" fill="#bbb" rx="5" ry="3"/><path fill="#f6f6f6" d="M126 95l-14 12 22-7z"/><path fill="#d4d4d4" d="M57 40.2L69.8 46l-.8 1.9L56.2 42z"/><path fill="#f4f4f4" d="M4.7 102l71.8-29.3-18.1 21-17.6 9.2z"/><path fill="#d6d6d6" d="M197.1 115l-.2-5 18-1 .2 5z"/><path fill="#e3e3e3" d="M194.2 36.5l-18.8 1.9 62.4-22.9-49.4 25.9z"/><path fill="#c9c9c9" d="M116.9 58l15.7-8.8.5.9-15.7 8.7z"/><path fill="#bebebe" d="M106.4 86.6l7.6 2-21.4 8-24.2 4.1z"/><path fill="#cacaca" d="M191 105l-15-5 17 15z"/><path fill="#b6b6b6" d="M2 62h6v4H2z"/><path fill="#dadada" d="M115 91l39 1-1 11z"/><path fill="#f1f1f1" d="M31.5 131.3L6.8 160.6l49.9-8.2 30.6-18.6z"/><ellipse cx="72" cy="174" fill="#fff" rx="144" ry="9"/><path fill="#aeaeae" d="M139.4 100.8l1 4-9.8 2.4-1-4z"/><path fill="#adadad" d="M118.2 120.1l-16.6-3.2.2-1 16.6 3.2z"/><path fill="silver" d="M169.6 99.4l-27.8-10.1-40.5-2.4 47.5 1.1z"/><path fill="#d3d3d3" d="M106.3 136.4l.6.8-35.2 26.4-.6-.8z"/><path fill="#fefefe" d="M194.1 35l-54.9 23.2-22 5.1-2.6-3.9z"/><circle cx="219" cy="57" r="3" fill="#d1d1d1"/><path fill="#cfcfcf" d="M46 100l64-16-10-14z"/><path fill="#e2e2e2" d="M202.9 163.6l9.3 11.6-33.9-54.9 20.8 39.2z"/><path fill="#c3c3c3" d="M93.7 64.2L52.6 76.8l-.3-1 41.1-12.6z"/><path fill="#c2c2c2" d="M41 70h4v4h-4z"/><path fill="#dcdcdc" d="M154.6 55.6l34.4-16 .4.8-34.4 16z"/><path fill="#f8f8f8" d="M134 116h48v32h-48z"/><path fill="#fcfcfc" d="M139.3-16L84.7 34.4 61 44l54.5 1.5z"/><path fill="#c3c3c3" d="M121 118.8l-3.5-10.5 9.6-3 3.4 10.4z"/><path fill="#d8d8d8" d="M112 92l13 6-15-21z"/><path fill="#f8f8f8" d="M157.1 58.2l36.2-16.5 23.1 25.7-68.6 15.1z"/><path fill="#e3e3e3" d="M120 35h17v5h-17z"/><path fill="#c2c2c2" d="M87 47h7v2h-7z"/><path fill="#fdfdfd" d="M-16 115.8l33.9 8-33.9 30.8 33.9 17.3z"/><circle cx="241" cy="79" r="2" fill="#b3b3b3"/><path fill="#cecece" d="M42 .5v-1h16v1z"/><path fill="#f3f3f3" d="M124.8 78.4l-16.9-5.5 12.6 11.3 5.8 3z"/><path fill="#dcdcdc" d="M100 99l-28 14 48 1z"/><path fill="#ddd" d="M153 84h27v7h-27z"/><path fill="#fdfdfd" d="M153 40l-24 8 41-64z"/><path fill="#fafafa" d="M246 73l-53 38-15-70z"/><path fill="#d0d0d0" d="M188 134l-6-9v-10z"/><ellipse cx="251" cy="103" fill="#fff" rx="4" ry="98"/><path fill="#e8e8e8" d="M132.5 121.9l.2-1 52.8 11.2-.2 1z"/><path fill="#f1f1f1" d="M232 42h18v9h-18z"/></g></g></svg>