<svg xmlns="http://www.w3.org/2000/svg" viewBox="0 0 1200 673"><defs/><filter id="a"><feGaussianBlur stdDeviation="12"/></filter><rect width="100%" height="100%" fill="#394272"/><g filter="url(#a)"><g fill-opacity=".5" transform="translate(2.3 2.3) scale(4.6875)"><circle cx="161" cy="69" r="180" fill="#fff"/><circle cx="185" cy="94" r="226" fill="#fff"/><circle cx="109" cy="30" r="189" fill="#fff"/><circle cy="93" r="124" fill="#fff"/><path fill="#b1b1c6" d="M152 10l72 67-143 2z"/><circle r="1" fill="#fff" transform="matrix(175.42068 -181.39818 38.98018 37.69569 221.4 98)"/><circle r="1" fill="#fff" transform="matrix(21.0029 -22.82458 76.46791 70.36484 209.8 18.3)"/><circle r="1" fill="#fff" transform="matrix(-22.1704 -25.87033 136.60254 -117.06583 75.5 28)"/><circle r="1" fill="#a7b0c7" transform="matrix(26.3236 14.48055 -4.71571 8.5725 192 60.8)"/><path fill="#fcf4f7" d="M204 74l-56-25-40 22z"/><ellipse cx="37" cy="108" fill="#bcc0c2" rx="249" ry="2"/><path fill="#fff" d="M206.2 105l-168 3-.4-25 168-3z"/><path fill="#b2bdd4" d="M162.4 4.6l-65 76.5-11.6-6.9-1.2-8.2z"/><circle r="1" fill="#fff" transform="matrix(24.3325 60.529 -119.66712 48.10588 27.8 15.3)"/><ellipse cx="209" cy="137" fill="#fff" rx="221" ry="29"/><circle r="1" fill="#fff" transform="matrix(47.59498 24.04195 -18.6505 36.92172 208.4 .1)"/><path fill="#aaa6b5" d="M164 28h9v50h-9z"/><path fill="#898496" d="M116 59l24-13-1 10z"/><path fill="#b5a5b2" d="M149 5h4v112h-4z"/><path fill="#fdfcfd" d="M123 78h133v29H123z"/><path fill="#a6b6d1" d="M218 83l-13-4.1-45.2-53.7 5.1-5.6z"/><path fill="#a5a5b0" d="M90 75h122v3H90z"/><path fill="#fffefe" d="M155 36h7v43h-7z"/><path fill="#fefcfc" d="M141 36h8v41h-8z"/><path fill="#d6d5d4" d="M43 129l-8 29-7-31z"/><path fill="#e1dce4" d="M174.4 37.3l22 28.5 32.6 6.8-72.7-31.7z"/><ellipse cx="24" cy="108" fill="#808181" rx="45" ry="1"/><path fill="#a8a1aa" d="M136 19h3v55h-3z"/><ellipse cx="162" cy="110" fill="#edeeee" rx="192" ry="2"/><path fill="#ce938f" d="M151.5 13.3l22.7 44.5-1.7 1-22.7-44.6z"/><ellipse cx="89" cy="98" fill="#d2d3da" rx="3" ry="26"/><path fill="#e1e2ec" d="M211 79l-45-24 3 23z"/><path fill="#d0d1d7" d="M211 75h5v42h-5z"/><path fill="#95a5c1" d="M130 25h10v12h-10z"/><path fill="#999497" d="M161 47h11v10h-11z"/><path fill="#f1eff4" d="M106.7 54.9L94.5 73.2 50.7.4l23.6 64.9z"/><ellipse cx="24" cy="81" fill="#fff" rx="62" ry="25"/><ellipse cx="26" cy="111" fill="#b7b6b4" rx="40" ry="1"/><ellipse cx="191" cy="52" fill="#8393b2" rx="4" ry="5"/><path fill="#a5bbd9" d="M91.3 76.8l28-15.2 3-5.2 1.2-18.1z"/><circle r="1" fill="#fff" transform="matrix(-63.16982 41.27596 -10.20506 -15.6181 18.2 12.3)"/><circle r="1" fill="#fffeff" transform="rotate(-29.2 158.9 -412.3) scale(33.73296 54.6477)"/><path fill="#1f4ba0" d="M149.3 7.9l1-.4 2.4 6.6-1 .4z"/><path fill="#647eb1" d="M172 32.5h-34v-1h34z"/><path fill="#f1e5e8" d="M120.8 52.5l3-9.9 36.5-5.6-16 5.3z"/><ellipse cx="213" cy="136" fill="#fff" rx="70" ry="13"/><circle cx="88" cy="71" r="1" fill="#00007d"/><path fill="#dda29a" d="M127 55l11-8 4-14z"/><ellipse cx="64" cy="109" fill="#fff" rx="190" ry="1"/><path fill="#fafbfd" d="M153 23h2v72h-2z"/><path fill="#5f76a3" d="M169 28h3v10h-3z"/><path fill="#95b3d9" d="M112 65l16-8-5-5z"/><path fill="#eeeef2" d="M21.7 32.5l54.1 9.8 43.8 3.9L27.3 25z"/><ellipse cx="152" cy="79" fill="#d0cfd9" rx="65" ry="1"/><path fill="#ced2de" d="M178 33l-2 23-12-19z"/><path fill="#ceccce" d="M111.9 46.8l37.5-40.3.7.7-37.5 40.3z"/><path fill="#aca6b0" d="M129 75h61v2h-61z"/><path fill="#fdfdfd" d="M212 72h44v35h-44z"/><path fill="#695770" d="M129 54h6v3h-6z"/><path fill="#a2b5d6" d="M188.8 55.8L205 73.6 169.7 57l19.6-6.7z"/><path fill="#fff" d="M75 78h71v1H75z"/><path fill="#f7f6f6" d="M163 21l-6-5-1-15z"/><path fill="#fff" d="M39.2 131l35.9 27 68.2-35.8L-16 142.1z"/><path fill="#7793c1" d="M211.1 76.8l-63-63 .8-.6 63 63z"/><path fill="#b9b2b8" d="M133.2 54l22.9-9.1 7.9 10.9-12.3-13.6z"/><path fill="#f6cac6" d="M148.5 26.8l.5-7-8.7 10.9-1.6 17.3z"/><path fill="#7892c6" d="M140 34h30v1h-30z"/><circle cx="152" cy="17" r="3" fill="#916e7f"/><ellipse cx="233" cy="113" fill="#e2e4e4" rx="44" ry="2"/><circle cx="112" cy="51" r="3" fill="#7693c5"/><path fill="#d2d2d3" d="M212.5 66.2L152.8 8.5l.7-.7 59.7 57.7z"/><path fill="#fce5e6" d="M151 28l12 5-5-9z"/><ellipse cx="114" cy="3" fill="#fff" rx="32" ry="18"/><circle r="1" fill="#e9eff7" transform="rotate(137.8 81 32.4) scale(32.87081 1)"/><path fill="#c6cad1" d="M88 110h78v1H88z"/><path fill="#bec0c3" d="M143 137l-3 21h19z"/><ellipse cx="150" cy="62" fill="#f3bbb2" rx="2" ry="14"/><path fill="#fff" d="M152 58h11v15h-11z"/><path fill="#eaf0f3" d="M105 63l8-8 1 4z"/><path fill="#babcc2" d="M215 71h1v44h-1z"/><path fill="#ebecf8" d="M130.9 59l3.8 7.3-20.2 6-2-6.9z"/><circle r="1" fill="#fff" transform="rotate(8.1 69 1239.4) scale(23.70226 15.02447)"/><path fill="#786e77" d="M166 53h6v3h-6z"/><path fill="#e4e5f0" d="M169.7 76.3l-1.4-20 34.2 17.8-14.7-2.8z"/><circle r="1" fill="#9daed3" transform="matrix(.67255 -.74005 9.74213 8.85345 159 21)"/><ellipse cx="148" cy="56" fill="#828fad" rx="33" ry="1"/><path fill="#fff" d="M21 114.2l9.4 27.5-29.3 10-9.5-27.4z"/><path fill="#9cbeeb" d="M149 23h3v18h-3z"/><path fill="#babcbd" d="M38 137l-8-3 1 7z"/><path fill="#f7f6f9" d="M106.4 129.6L-16 121.1l167.7-9.1 30 12.6z"/><path fill="#d3d2df" d="M131.2 86l-6-1 1.6-9 6 1z"/><path fill="#798fb4" d="M201.5 70L172 55l.4-1L202 69z"/><ellipse cx="164" cy="47" fill="#a29ba6" rx="1" ry="29"/><circle cx="214" cy="71" r="1" fill="#002ea0"/><path fill="#3b5479" d="M90 76l5.9-1 .1 1-5.9 1z"/><path fill="#fff" d="M0 140h130v3H0z"/><path fill="#dbdadf" d="M75.1 79.8l45.2-46.9 35.4.3-27.9.7z"/><ellipse cx="211" cy="98" fill="#bbbec8" rx="1" ry="19"/><circle cx="150" cy="45" r="2" fill="#8f7a74"/><path fill="#f8f9fc" d="M148.1 61.8l-8.7 18.9 2.4 24-2.6-53.7z"/></g></g></svg>