<svg xmlns="http://www.w3.org/2000/svg" viewBox="0 0 1200 900"><defs/><filter id="a"><feGaussianBlur stdDeviation="12"/></filter><rect width="100%" height="100%" fill="#3e373a"/><g filter="url(#a)"><g fill-opacity=".5" transform="translate(2.3 2.3) scale(4.6875)"><circle r="1" fill="#fff" transform="matrix(22.23686 -143.64137 201.55919 31.20301 114.8 104)"/><circle r="1" fill="#fff8e4" transform="matrix(46.37273 -94.20448 154.65387 76.12931 97.3 104)"/><circle r="1" fill="#500f00" transform="matrix(.21144 -13.45929 47.0311 .73882 108.5 46.2)"/><ellipse cx="22" cy="44" fill="#fff" rx="36" ry="131"/><ellipse cx="121" cy="172" fill="#4e4740" rx="82" ry="6"/><circle r="1" fill="#9e3918" transform="rotate(-93.4 157.2 -82.6) scale(22.63059 26.8931)"/><circle r="1" fill="#fafaf6" transform="matrix(1.70278 -48.5233 29.55939 1.0373 124.4 116.5)"/><path fill="#d27a5b" d="M78 84l64-90-89 33z"/><path fill="#fff" d="M211 99h15v74h-15z"/><path d="M160 127h12v11h-12z"/><path fill="#8a7f74" d="M188 125h23v54h-23z"/><path fill="#ecdecc" d="M175 16l58 17-50 132z"/><path fill="#00000c" d="M138.7 54.9l-7.5-14.3 22.7-2.5.5 16.7z"/><ellipse cx="47" cy="191" fill="#7e7a72" rx="7" ry="77"/><path fill="#533125" d="M118.4 60.4l6.8-41.8-30.8 21.5 16.8 32z"/><circle r="1" fill="#7e6854" transform="matrix(-99.517 -31.17098 4.62438 -14.76387 219.5 2.3)"/><path fill="#a6a096" d="M21.2 170.5l-11.7-9 8.7-61.7L30 114.7z"/><path fill="#fff" d="M36 39l85-55-102 2zm56.4 44l-10-6.5L97.5 53l10 6.5z"/><ellipse cx="130" cy="191" fill="#a7a195" rx="208" ry="19"/><circle r="1" fill="#f5f6f3" transform="matrix(39.80029 24.08526 -12.5108 20.67378 44.8 87)"/><path fill="#6c3929" d="M88.2 54.6L83.4 75l-15.6-3.6L72.6 51z"/><path fill="#f5eee3" d="M239 88h17v86h-17z"/><ellipse cx="146" cy="106" fill="#8b7e72" rx="62" ry="2"/><path fill="#38281b" d="M89 141h9v13h-9z"/><circle r="1" fill="#ffcaa8" transform="matrix(17.62006 -24.85394 11.47247 8.13334 102.7 11.7)"/><path fill="#fffffc" d="M158 76.3l-8 48 13.8-68.9-41.7-.1z"/><path fill="#fcffff" d="M105.9 125.7l-14.2-16.4 85.5-.9 1.4 18.2z"/><path fill="#fff" d="M239 174l-26-4-6-86z"/><circle r="1" fill="#746961" transform="rotate(165.2 36.7 65.8) scale(10.93312 5.46638)"/><ellipse cx="142" cy="153" fill="#f3ece0" rx="46" ry="15"/><path fill="#d5c0ad" d="M125 38l58-7-44-47z"/><path fill="#e5d8c1" d="M121 45h15v25h-15z"/><path fill="#fff" d="M25.8 159.4L44.6 38l-2.1 134.9-15.3 2.2z"/><ellipse cx="132" cy="138" fill="#786f68" rx="26" ry="2"/><path fill="#585554" d="M21 175h23v7H21z"/><path fill="#5e5d5b" d="M206.4 144l-1.8 27.1 7.2 9.7-.6-36.4z"/><path fill="#4b4744" d="M97 174v-6h76v6z"/><path fill="#c0bbb3" d="M60 129l22 78-38-10z"/><path fill="#71675e" d="M79 123h5v32h-5z"/><path fill="#e9e8e1" d="M63.4 52.9l10.9-13.4-24.7 72.4 37.8-10.2z"/><path fill="#4c3d32" d="M159 137l11-9-18-2z"/><path fill="#0d151f" d="M102 39h54v5h-54z"/><path fill="#fff" d="M233.9 97.1l2.8 3.5 9.8 7.6.8 73.1z"/><path fill="#b2a498" d="M174 75l11-42-31 5z"/><path fill="#6d655e" d="M209 175h31v6h-31z"/><path fill="#a1988e" d="M230 166h12l-5-44z"/><path fill="#9f644e" d="M117.5 44.2l19.9-55.8-30 49.7-2.3 43.7z"/><path fill="#95897f" d="M227 108h10v23h-10z"/><path fill="#fff" d="M123 34h64v2h-64z"/><path fill="#af9b89" d="M168-4l-32 28 135 12z"/><ellipse cx="191" cy="85" fill="#f1e8db" rx="17" ry="29"/><path fill="#675f57" d="M70 106h52v2H70z"/><path fill="#fff" d="M0 168h41v7H0z"/><path fill="#a14a2f" d="M66.6 44.6l-8.2 4-2.2 9.9 9.8-5.1z"/><path fill="#fff" d="M147.4 58.8l-1.8 12.3 13.3 6.3 7.4-31.6z"/><path fill="#e9e8e4" d="M69.2 86.8l-4.6 54.8 142.1-21.5-124.9 11z"/><path fill="#eee7dd" d="M68 154h62v14H68z"/><path fill="#f0f2f1" d="M42.3 88l25.4-59.1-13.2 9.8L3.6 26.3z"/><path fill="#beb5aa" d="M186 107h18v85h-18z"/><ellipse cx="217" cy="138" fill="#fff" rx="8" ry="37"/><path fill="#f3fcfe" d="M90.7 52.7l14.4 11.4-3.1 8.4-21.7 10.3z"/><path fill="#d66644" d="M51.2 38.4l-2-3.4 25.6-15.4 2 3.4z"/><path fill="#f3e7d8" d="M143.6-16l-14 27.8 25.2-5.6 28.6-21.9z"/><ellipse cx="45" cy="159" fill="#6d6a67" rx="4" ry="21"/><ellipse cx="254" cy="167" fill="#c5b7a5" rx="6" ry="81"/><path fill="#635652" d="M99 39.2L79.3 81.7l-1.9-15.1 20.8-30.4z"/><path fill="#dc7b5c" d="M68.6 61.1L79 27.7l10.5 3.2L79 64.3z"/><path fill="#50433c" d="M235.9 88.7L225.2 64l7.6-12.6-9.4 26.6z"/><path fill="#ffc4a7" d="M117.4-14.4L77.1 15.4 56.6 26.8l57.9-8.3z"/><circle r="1" fill="#81746d" transform="matrix(58.0511 -9.81656 1.92 11.35407 230.6 0)"/><path fill="#edece7" d="M3 89h126v17H3z"/><path fill="#00000d" d="M118.3 38.5l1.7 2.6-.4 12.5-5.7 2.8z"/><path fill="#fafcff" d="M61-16h51L48 34z"/><path fill="#aca39a" d="M177.3 168.2l32.5-62.9-8.5 85.7-22.5-49.5z"/><path fill="#cebca6" d="M96.3 75.7L76.2 97.9l67-35.7-8.7-9.5z"/><path fill="#fff" d="M219 166h30v9h-30z"/><circle r="1" fill="#cbc6bc" transform="matrix(-.21455 -7.39922 106.192 -3.07922 115.5 191)"/><ellipse cx="37" cy="134" fill="#fff" rx="6" ry="41"/><path fill="#e9e7e1" d="M196 107h3v59h-3z"/><circle r="1" fill="#aea395" transform="matrix(21.13517 15.07557 -10.25471 14.37658 226 29.9)"/><path fill="#fafaf7" d="M136 102h112v3H136z"/><path fill="#fff" d="M6 130h6v45H6z"/><path fill="#b6a089" d="M166 91l-25-23 32 15z"/><path fill="#000a1c" d="M137 40h15v15h-15z"/><path fill="#bab6ad" d="M13 107h14v56H13z"/><path fill="#c7b9a8" d="M247.7 142l-4.4-36.7-21.6-20.8 31.5 6.9z"/><path fill="#f9f3e8" d="M147 139h31v20h-31z"/><ellipse cx="128" cy="106" fill="#685e57" rx="50" ry="1"/><path fill="#a59d94" d="M56 136h9v37h-9z"/><path fill="#6b6765" d="M64.7 166.3l21.2 10.6-5.5 2.2 22.5-9.3z"/><ellipse cx="72" cy="134" fill="#847d74" rx="1" ry="27"/><path fill="#eae9e4" d="M88 123h67v15H88z"/><path fill="#fff" d="M18 144h52v1H18z"/><path fill="#b7afa2" d="M152.6 44.6l25.7-4 1 6.8-25.6 4z"/><path fill="#756e67" d="M79 142h9v12h-9z"/><path fill="#948a7f" d="M99.1 117.6l-10.6-2.2 11.6 20.1-1.3-4z"/><path fill="#000103" d="M103 37h3v14h-3z"/><path fill="#6c6763" d="M204 146h7v30h-7z"/><path fill="#e7dbca" d="M146 88h84v15h-84z"/></g></g></svg>