<svg xmlns="http://www.w3.org/2000/svg" viewBox="0 0 1200 672"><defs/><filter id="a"><feGaussianBlur stdDeviation="12"/></filter><rect width="100%" height="100%" fill="#444"/><g filter="url(#a)"><g fill-opacity=".5" transform="translate(2.3 2.3) scale(4.6875)"><circle r="1" fill="#fff" transform="matrix(121.4684 -112.08781 103.82698 112.51623 134 79.5)"/><circle cx="180" cy="128" r="147" fill="#fdfef6"/><ellipse cx="120" cy="24" fill="#727276" rx="14" ry="108"/><ellipse cx="35" fill="#fff" rx="24" ry="43"/><circle r="1" fill="#fff" transform="rotate(51.4 21.5 307.1) scale(37.00185 91.47722)"/><path fill="#0e0f12" d="M84 70L45 91l35-39z"/><path fill="#3b3b3b" d="M29.9 112.5l10.2 16.6-1.7 28.9-35.3-49.6z"/><path fill="#fff" d="M-16.3 53l61 22.2L38.4 93l-61-22.2z"/><circle r="1" fill="#343436" transform="matrix(15.30951 -13.6213 5.36915 6.0346 129.3 27)"/><path d="M179 124l2-14-22-14z"/><circle r="1" fill="#fffff6" transform="rotate(52 13.3 189.7) scale(36.09761 19.37549)"/><path d="M160 27h13v13h-13z"/><path fill="#313133" d="M131.5 89.4l-22.7-33 15.1 39.1 24.4 36z"/><path fill="#323235" d="M102.5 101.7l2.5 5.2-9.7-47-3.7 17.2z"/><path fill="#1c1c1c" d="M22.5 73.9l.3-6.6L-16 1.1 5.2 50z"/><path fill="#484848" d="M44 54l21-44 37-10z"/><path fill="#fff" d="M3.1 141l55.5 17-74.6-18.8 39-48.9zm103.7-84.3l34.8 81.9-6.4 2.7-34.8-81.9z"/><path fill="#1c1c1c" d="M20 44l-4-28-14-5z"/><path fill="#1f1f1f" d="M55.7 37.4l-6-11.4-3-9.6-21.6-9.3z"/><path fill="#141515" d="M123-9.7l-21.4 22.8 6.3 11.3L121.5-16z"/><ellipse cx="151" cy="127" fill="#525256" rx="5" ry="23"/><path fill="#4e4e52" d="M190.8 73.6l15.7-10.5L185.8 85l11.8 22.7z"/><path fill="#fff" d="M15.6-16l20.8 46.5 14 56.8-26.3-51.2z"/><circle r="1" fill="#eee" transform="matrix(-7.5446 8.06234 -18.65092 -17.45322 50.6 12.5)"/><path fill="#3f3f43" d="M171 12l3-21 12 48z"/><path fill="#fdfdff" d="M164.3-9l17.5 44.4L123.1 8l.8-24z"/><path fill="#3f3f41" d="M123 40.2l29.7-39.1-8.1-.5-4.1 32.5z"/><path fill="#f1f1f4" d="M35.3 137.6l41-70.3L93.5 158l26.2-44z"/><path fill="#616163" d="M78.6 129L43.9 94.5l3.5-3.5 34.7 34.7z"/><path fill="#fff" d="M96 38l36-14-15-2z"/><path fill="#343434" d="M24.9 91.6l-11.7-7.8-13.3 37-15.9.6z"/><circle r="1" fill="#fff" transform="matrix(15.7674 30.54879 -2.21264 1.14203 14.9 47.6)"/><path fill="#fff" d="M162 75l59 44-29 16z"/><path fill="#0d0d0d" d="M127.7 132.9l-2.8 1-12.6-34.8 2.8-1z"/><path fill="#fff" d="M158 60l-39-16 42-25z"/><circle r="1" fill="#6d6d6f" transform="rotate(-112.3 159.4 -20.7) scale(2.38381 32.62542)"/><path fill="#464647" d="M127 69l-10-28 30 42z"/><circle r="1" fill="#505053" transform="matrix(.47307 2.3644 -21.11866 4.22542 231.8 55.2)"/><path d="M183 65.4l4.5 9-4.5 2.2-4.5-9z"/><path fill="#0b0b0b" d="M31 69L20 46l19 17z"/><path fill="#fff" d="M16.9-3.9L85.7.9l-.6 9-68.8-4.8z"/><path fill="#242424" d="M71 16L68 3l-12 9z"/><path fill="#000004" d="M98 105h6v9h-6z"/><path fill="#1b1b1b" d="M114 12l31 7-28 2z"/><circle r="1" fill="#fff" transform="matrix(-2.8006 -2.01244 17.92697 -24.94802 33 81.2)"/><path fill="#fefefe" d="M13.3 158l-27.1-37.9 56.7 37.3-49.8-51z"/><circle r="1" fill="#e3e6e2" transform="rotate(154.1 54.6 50.3) scale(3.96918 60.19896)"/><path fill="#fff" d="M245.4 52.7L269 87.5l-32.3 21.8L213 74.5z"/><path fill="#202020" d="M8.1 135.1L5.4 158l-2.9-6.9 25.8-34.2z"/><path fill="#000003" d="M66 136h-9l11 22z"/><ellipse cx="200" cy="29" fill="#f6ffce" rx="14" ry="38"/><path fill="#fff" d="M134 132.7l33.6-12.6-25 .7-62 37.2z"/><path fill="#38383a" d="M83.6 91l-6.2-35.5 3-.5 6.2 35.5z"/><path fill="#3d3c42" d="M222.6 40.8l-5.7 1.6-5.5-19.2 5.7-1.6z"/><path fill="#d7e49a" d="M166.1 69.2l24.7-10.9L224.7 25 118.5 73.6z"/><ellipse cx="157" cy="86" fill="#f6f9f1" rx="22" ry="19"/><path fill="#fff" d="M-7.8 80.4l-1.4-28 17-.8 1.4 28z"/><path fill="#262626" d="M46.8 55.4l-5-4.8 17.4-18 5 4.8z"/><path fill="#fff" d="M9.4 98.4l2.1-4.1-27.5-20 2.1 27.2z"/><circle r="1" fill="#fffffd" transform="matrix(-44.62353 10.22015 -.30976 -1.35246 152.5 20.8)"/><circle r="1" fill="#202020" transform="matrix(.4114 1.59759 -17.1079 4.40545 135.6 30)"/><circle r="1" fill="#343434" transform="matrix(-.96567 4.70436 -7.3255 -1.50371 128.4 98.5)"/><path fill="#fff" d="M7.4 16.7l-9-27.6 18.2-5.8 9 27.6z"/><path fill="#2d2d2d" d="M31 91l-18 22 22-14z"/><path fill="#fff" d="M251 11h5v132h-5z"/><path fill="#08080c" d="M207 89l-9-6 9-3z"/><path fill="#5b5b5f" d="M227.5 15.8L271 8.6V-6.1l-39 30z"/><path fill="#f9f9fa" d="M66 126l-5.1-51 36.2 54.7-6.4-48z"/><path fill="#4f4f52" d="M25.1 89.2l27.1 27-1.8.9-1.4.9z"/><path fill="#000001" d="M237 111h4v10h-4z"/><path fill="#3f3f3f" d="M46.8 38.4l-12.6-8.5-1.9-2.1 20.2 22.6z"/><path fill="#fff" d="M203 158l60.4-27.4-98.6 1.8-5.5-30.8zm34.1-139.1l-27 13 39.6-1.3L206.8-16z"/><path fill="#303031" d="M101.9-16h11.4L93.4 12.9l-13.7 7.7z"/><path fill="#fff" d="M13 19l43 21-24-24zm177.7-35h-22.2l-39.9 31.4-12.8-4.3z"/><path fill="#19191b" d="M151 114h9v6h-9z"/><path d="M-11 10L8 2 1 12z"/><path fill="#626264" d="M73 111.6l-1.6 4.5 9.7 18.9 8-2z"/><path fill="#242425" d="M38.6 129.5l-8.5 5.3-12.7-20.3 8.5-5.3z"/><path fill="#202020" d="M23 44h11v6H23z"/><ellipse cx="208" cy="49" fill="#f7f5ff" rx="6" ry="33"/><path fill="#222223" d="M60 92l-3-15-6 10z"/><path fill="#101012" d="M166 25h5v13h-5z"/><path d="M217.4 12.8l4 .5-.8 6-4-.6z"/><circle cx="110" cy="134" r="4" fill="#1c1c1f"/><path fill="#fff" d="M27.9 44.2L23 19.8 22 39l-6.7 8.5z"/><circle cx="101" cy="93" r="4" fill="#0b0b0e"/><path fill="#333336" d="M180.7 122.8l-13.6-21 4.2-2.6 13.6 21z"/><circle r="1" fill="#2c2c2c" transform="matrix(13.1263 28.1287 -2.0554 .95916 127.9 92.4)"/><path fill="#222224" d="M194.2 96.3l-1.9.8-12.5-29.4 1.9-.8z"/><path fill="#fff" d="M99 120l-36 36 49-15zm-84-15l27 5 8 13z"/><path fill="#fdfdff" d="M187.7 75.8l82.1-16.5-76.2 24.3-11.9-2.3z"/><path fill="#e5e6e8" d="M88 64l21 1 16-22z"/><path fill="#fff" d="M215.6 54.7l-3-10.5 51.8-15 3 10.6z"/><path fill="#fafafc" d="M50 150l-12.5-11.6L62.1 112l12.4 11.6z"/><path d="M111.3 87.6l-.9.5-5.7-11.7.9-.5z"/><path fill="#6b6b6e" d="M218.6 66.2l-1.8 4.9-5.1-9.7 14.1-13.3z"/></g></g></svg>