<svg xmlns="http://www.w3.org/2000/svg" viewBox="0 0 900 1200"><defs/><filter id="a"><feGaussianBlur stdDeviation="12"/></filter><rect width="100%" height="100%" fill="#4e433b"/><g filter="url(#a)"><g fill-opacity=".5" transform="translate(2.3 2.3) scale(4.6875)"><ellipse cx="88" cy="93" fill="#cad0cd" rx="97" ry="161"/><circle r="1" fill="#fff" transform="matrix(71.41623 -10.26142 3.46983 24.14893 21.5 49.2)"/><circle r="1" fill="#faffff" transform="matrix(-18.61548 -1.79612 10.41775 -107.9722 105 215)"/><circle r="1" fill="#241f16" transform="rotate(-90.7 120.4 60.5) scale(111.42321 16.80196)"/><path d="M179.9 193.8l-7.5 35.2-32.3-6.8 7.5-35.2z"/><ellipse cx="107" cy="176" rx="34" ry="5"/><ellipse cx="180" cy="43" fill="#6b6457" rx="92" ry="71"/><path fill="#feffff" d="M81 180h49v50H81z"/><circle r="1" fill="#a1adc4" transform="matrix(-1.72954 27.99272 -35.8851 -2.21718 111.8 243.6)"/><path fill="#fff" d="M79 74l-95-48 107-3z"/><ellipse cx="22" cy="214" fill="#495052" rx="57" ry="43"/><ellipse cx="42" cy="2" fill="#595c5e" rx="191" ry="23"/><ellipse cx="129" cy="145" fill="#1e1812" rx="5" ry="42"/><ellipse cx="94" cy="153" rx="4" ry="35"/><path fill="#ffffec" d="M98 110h27v56H98z"/><circle cx="172" cy="147" r="42" fill="#a5a598"/><path d="M110 111h3v69h-3z"/><ellipse cx="69" cy="98" fill="#5b5347" rx="34" ry="29"/><path fill="#dcdfdd" d="M0 182h47v9H0z"/><circle r="1" fill="#cac6c1" transform="matrix(34.0862 -45.8971 25.42553 18.88266 0 96.4)"/><circle r="1" fill="#15110d" transform="matrix(8.91926 -4.96965 38.51337 69.12166 172.1 242.2)"/><path fill="#fff" d="M111 22l-14 5 8 23z"/><path fill="#a2a8ac" d="M0 202h54v13H0z"/><path fill="#020607" d="M8 157h36v6H8z"/><path fill="#000004" d="M91 104h40v5H91z"/><path fill="#c0bfb7" d="M173 110h-30l-1 92z"/><path fill="#b3b4b5" d="M139 85l-18-26-28 28z"/><ellipse cx="191" cy="46" fill="#6f695c" rx="48" ry="71"/><circle r="1" fill="#37332d" transform="matrix(-2.90344 -13.0095 6.88774 -1.5372 169.2 177.3)"/><path fill="#242423" d="M0 214h64v14H0z"/><path fill="#785f47" d="M45.3 173.9l61.3-110.2-7.2-46.6-17.9 55.1z"/><path d="M14 143h44v4H14z"/><path fill="#f7f9ff" d="M83 182h46v29H83z"/><ellipse cx="61" cy="220" fill="#352a1e" rx="6" ry="121"/><path fill="#dcd9d0" d="M26 73h54v4H26z"/><path fill="#040200" d="M0 176h65v4H0z"/><path fill="#010000" d="M58 201.5H4v-5h54z"/><path fill="#fff" d="M17 26h36v31H17z"/><path fill="#5e5f57" d="M182 51h10v194h-10z"/><path fill="#827a5f" d="M78.1 209.9l-13.4-27.7L94.5 43.5 83.9 179.9z"/><path fill="#c3c9c2" d="M35 147h24v9H35z"/><path fill="#282a24" d="M28 128.5l-13 4.6 2-.3 63.6 1.3z"/><path fill="#190200" d="M143 226l3-36 29-2z"/><path fill="#d1d8d7" d="M19 163h27v9H19z"/><path fill="#151117" d="M91 108h6v71h-6z"/><path fill="#fdfefa" d="M90.7 24l4.6 1.8-8.9 21.3-27.1-27z"/><path fill="#d8dae8" d="M80 200h53v23H80z"/><path fill="#aaadb0" d="M50 62l9-45 8 54z"/><path fill="#8c959f" d="M76 240h61v16H76z"/><ellipse cx="39" cy="119" fill="#171b1a" rx="14" ry="3"/><path fill="#9f9b8f" d="M21 127L1 57l-2 123z"/><ellipse cx="29" cy="8" fill="#5f5d5a" rx="35" ry="18"/><ellipse cx="88" cy="141" fill="#cfcebc" rx="3" ry="32"/><path fill="#fffffb" d="M113 110h13v63h-13z"/><path fill="#0c060a" d="M92.5 178.7v-6l37 .6v6z"/><path fill="#221d1a" d="M125 111h5v63h-5z"/><circle cx="151" cy="181" r="8" fill="#d4cfdc"/><circle r="1" fill="#4d514d" transform="rotate(-154.2 33.3 42.3) scale(9.45948 19.95306)"/><path fill="#a0a7a6" d="M1 240l15-13h-32z"/><path fill="#fff" d="M99 109h11v14H99z"/><path fill="#bdbfc0" d="M16 181h35v10H16z"/><path fill="#7d7f79" d="M44 134l26-26-10 38z"/><path fill="#fff" d="M99 172h12l-3-37z"/><circle cx="153" r="51" fill="#6c6c6a"/><circle r="1" fill="#96958a" transform="matrix(-3.1793 .16447 -1.83864 -35.54117 180 173.3)"/><path fill="#b9bbc4" d="M107.5 249l29-20.3-57.4-9.5-4.8 19.4z"/><circle r="1" fill="#71654a" transform="matrix(10.43966 13.24205 -58.16486 45.85556 189.2 63)"/><path fill="#413528" d="M55.3 271l-3.6-99.4 30.1-88.3-14.7 93.2z"/><circle r="1" fill="#bcb09c" transform="matrix(-15.3936 54.32424 -.96212 -.27263 75.9 86)"/><path fill="#0b2000" d="M143 168h7v5h-7z"/><circle r="1" fill="#323a45" transform="rotate(145.5 39.5 133.8) scale(7.27848 17.82642)"/><path fill="#fff" d="M103 25h4v27h-4z"/><path fill="#d4d6d8" d="M32.9 54.1l-2.1 46.8 14.7-30.6 26.6-1.2z"/><path fill="#737065" d="M131 86h4v120h-4z"/><ellipse cx="2" cy="186" fill="#797c74" rx="27" ry="6"/><path fill="#989eab" d="M147.5 194l-25.3 65.3 12.2-68.4 8.3 5.3z"/><path fill="#272528" d="M57 102h6v43h-6z"/><path fill="#71756a" d="M80 49l-4-12-2 14z"/><path fill="#fff" d="M62 26h12v22H62z"/><path fill="#2a2823" d="M111 108h2v66h-2z"/><path fill="#000001" d="M2 224h52v4H2z"/><path fill="#d3d7db" d="M140 112h17v14h-17z"/><path fill="#d7dfcf" d="M30 134h14v7H30z"/><ellipse cx="33" cy="115" fill="#afb0a1" rx="25" ry="3"/><path fill="#5e6c7c" d="M136 206l24 53-17-3z"/><ellipse cx="52" cy="97" fill="#a6a599" rx="23" ry="2"/><circle r="1" fill="#634734" transform="matrix(1.99383 14.97236 -6.48928 .86416 95.9 66.7)"/><path fill="#565959" d="M21.2 224.4l40.3-1.6L37 210.1l-48.9 10.8z"/><path fill="#0f171a" d="M151.8 236.7l18-10.8 16.4 27.4-18 10.8z"/><path fill="#969085" d="M148 153l33 22V97z"/><path fill="#0b0000" d="M141 197l-1-19-5 4z"/><path fill="#8c8872" d="M94.7 103.9L121 42.5l-45.7 83-4.7 59z"/><path fill="#5c636c" d="M32 228h21v28H32z"/><path fill="#959697" d="M59 14h32v11H59z"/><ellipse cx="14" cy="194" fill="#52524e" rx="68" ry="4"/><ellipse cx="36" cy="160" fill="#191918" rx="30" ry="2"/><circle r="1" fill="#363937" transform="matrix(-.1401 5.81725 -54.44893 -1.3114 21.7 246.7)"/><path fill="#200d00" d="M175 212l-39 1 38-31z"/><ellipse cx="21" cy="125" fill="#adaea0" rx="37" ry="4"/><ellipse cx="191" cy="158" fill="#595a55" rx="9" ry="86"/></g></g></svg>