<svg xmlns="http://www.w3.org/2000/svg" viewBox="0 0 1200 731"><defs/><filter id="a"><feGaussianBlur stdDeviation="12"/></filter><rect width="100%" height="100%" fill="#565656"/><g filter="url(#a)"><g fill-opacity=".5" transform="translate(2.3 2.3) scale(4.6875)"><circle cx="127" cy="73" r="154" fill="#fff"/><circle r="1" fill="#fff" transform="rotate(-179.7 70.8 42) scale(207.65966 108.49124)"/><circle r="1" fill="#fff" transform="matrix(-245.01117 70.67196 -30.90464 -107.14268 104.1 108.5)"/><circle r="1" fill="#fff" transform="matrix(-4.24215 64.33193 -185.67375 -12.24362 97.4 103.1)"/><ellipse cx="144" cy="114" fill="#dcdcdc" rx="105" ry="24"/><path fill="#fff" d="M0 21h41v132H0z"/><path fill="#b2b2b2" d="M-.6-.2l42 1.4-.8 21-42-1.4z"/><ellipse cx="248" cy="73" fill="#fff" rx="19" ry="132"/><path fill="#a3a3a3" d="M251.5 66h-49v-6h49z"/><ellipse cx="120" cy="77" fill="#fff" rx="228" ry="14"/><ellipse cx="147" cy="137" fill="#fff" rx="7" ry="154"/><ellipse cx="120" cy="148" fill="#fff" rx="255" ry="13"/><path fill="#e2e2e2" d="M237.6 90.2l1.8 52-45 1.6-1.8-52z"/><ellipse cx="72" cy="112" fill="#e3e3e3" rx="37" ry="24"/><circle r="1" fill="#ededed" transform="matrix(-22.89205 -24.06203 19.09713 -18.16856 72.5 15.3)"/><ellipse cy="61" fill="#d0d0d0" rx="187" ry="2"/><ellipse cx="177" fill="#c5c5c5" rx="84" ry="3"/><ellipse cx="214" cy="93" fill="#b9b9b9" rx="170" ry="1"/><ellipse cx="182" cy="46" fill="#fff" rx="238" ry="3"/><path fill="#a2a2a2" d="M148 134h80v1h-80z"/><ellipse cx="115" cy="77" fill="#fff" rx="134" ry="16"/><path fill="#b1b1b1" d="M155 12h2v32h-2z"/><ellipse cx="83" cy="37" fill="#cacaca" rx="47" ry="2"/><ellipse cx="205" cy="143" fill="#fff" rx="243" ry="9"/><path fill="#fff" d="M0 21h40v28H0z"/><path fill="#a4a4a4" d="M78 97h3v32h-3z"/><path fill="#d6d6d6" d="M151 142h50v3h-50z"/><path fill="#fff" d="M141 2h13v29h-13z"/><ellipse cx="92" cy="52" fill="#fff" rx="52" ry="7"/><path fill="#cacaca" d="M90 127h64v3H90z"/><path fill="#cbcbcb" d="M154 92h3v56h-3z"/><path fill="#fff" d="M211.1 57.8l9.3 1.3 50.6-1.8-.2-73.3z"/><path fill="#d1d1d1" d="M162 16h13v19h-13z"/><ellipse cx="15" cy="106" fill="#fff" rx="26" ry="43"/><ellipse cx="189" cy="42" fill="#b6b6b6" rx="36" ry="1"/><path fill="#fff" d="M141 95.5h10v53h-10zm98.7 49.7l-1.4-80 28-.4 1.4 80z"/><path fill="#b0b0b0" d="M178 93.2v-1l50 2.6v1z"/><path fill="#d2d2d2" d="M113 93h7v37h-7z"/><path fill="#d4d4d4" d="M140.3 16.5l.4 10-27 1-.4-10z"/><path fill="#fff" d="M75 131h62v3H75z"/><ellipse cx="188" cy="60" fill="#d6d6d6" rx="104" ry="2"/><path fill="#c2c2c2" d="M0 0h42v20H0z"/><path fill="#d1d1d1" d="M224 0h4v48h-4z"/><path fill="#dadada" d="M154 114l62 3-51 12zM42 91h135v4H42z"/><ellipse cx="225" cy="117" fill="#d4d4d4" rx="2" ry="29"/><ellipse cx="138" cy="110" fill="#adadad" rx="1" ry="14"/><path fill="#dbdbdb" d="M200 142h29v3h-29z"/><path fill="#d2d2d2" d="M233 7h5v13h-5z"/><ellipse cx="192" cy="51" fill="#dedede" rx="41" ry="2"/><path fill="#ccc" d="M41 127h62v3H41z"/><path fill="#eee" d="M43 1h69v25H43z"/><path fill="#fff" d="M188 53h68v5h-68z"/><ellipse cx="235" cy="151" fill="#e4e4e4" rx="102" ry="1"/><path fill="#d3d3d3" d="M40.6 129.2l4.8-34.7 2 .3-4.8 34.7z"/><ellipse cx="87" cy="154" fill="#ededed" rx="93" ry="3"/><path fill="#fff" d="M48 45h86v15H48z"/><path fill="#bcbcbc" d="M138 0h1v40h-1z"/><path fill="#fff" d="M194.3 52.7l11.5-6.6-11.9-2.3-47.2 1.6zM96 62h108v27H96zM33 23l-49-1 53 27z"/><path fill="#c2c2c2" d="M205 106h25v2h-25z"/><path fill="#ababab" d="M186 2h34v1h-34z"/><path fill="#dedede" d="M202 50l-1-36 12 32z"/><circle r="1" fill="#fff" transform="matrix(2.63014 -5.04289 39.80022 20.75797 218.1 82)"/><path fill="#bfbfbf" d="M119 99h20v2h-20z"/><path fill="#fff" d="M245 27.3l-6 23.5.3-47.3 23.3-1.8z"/><path fill="#cdcdcd" d="M116 39V-5h2v44z"/><path fill="#eee" d="M117.3 26.1l11.5-9.3 4.1 37.9L167 41.5z"/><path fill="#f4f4f4" d="M214 112h23v17h-23z"/><path fill="#fff" d="M142 93h11v27h-11z"/><path fill="#ededed" d="M46 96h32v29H46z"/><ellipse cx="183" cy="138" fill="#fff" rx="255" ry="3"/><ellipse cx="25" cy="59" fill="#fbfbfb" rx="44" ry="2"/><path fill="#bfbfbf" d="M204 61h46v5h-46z"/><path fill="#ccc" d="M189 43h46v1h-46z"/><ellipse cx="59" cy="134" fill="#c6c6c6" rx="24" ry="1"/><path fill="#cacaca" d="M31.3-16l13.4 50-.9-27 1 11.7z"/><ellipse cx="107" cy="134" fill="#cfcfcf" rx="32" ry="1"/><path fill="#eee" d="M82 100h28v26H82z"/><path fill="#dcdcdc" d="M67 1l50 1-1-18z"/><path fill="#f0f0f0" d="M175 95h33v16h-33z"/><path fill="#d3d3d3" d="M99 31h10v10H99z"/><path fill="#fff" d="M44 144h144v7H44zM228 20h5v39h-5z"/><ellipse cx="139" cy="37" fill="#d4d4d4" rx="18" ry="2"/><path fill="#fff" d="M153 24l-11 33-1-64z"/><path fill="#a5a5a5" d="M169.6 134.5h-1l-.2-15h1z"/><path fill="#e8e8e8" d="M0 112h54v2H0z"/><path fill="#fff" d="M0 64h116v27H0z"/><path fill="#dcdcdc" d="M254 15h1v38h-1z"/><path fill="#e6e6e6" d="M153 110h2v33h-2z"/><path fill="#eee" d="M19 50h29v9H19z"/><path fill="#f0f0f0" d="M228.1 36l-14.5 7-8.6-13.3 19.6-11.4z"/><path fill="#e2e2e2" d="M0 21h42v2H0z"/><circle cx="164" cy="20" r="4" fill="#fafafa"/><path fill="#d0d0d0" d="M163 36l-5-14 9 1z"/><path fill="#d1d1d1" d="M157 108.7l-1.2 13.4-2.6-17 17.2 1.9z"/><ellipse cx="226" cy="128" fill="#d8d8d8" rx="2" ry="17"/></g></g></svg>