<svg xmlns="http://www.w3.org/2000/svg" viewBox="0 0 914 1200"><defs/><filter id="a"><feGaussianBlur stdDeviation="12"/></filter><rect width="100%" height="100%" fill="#2c5454"/><g filter="url(#a)"><g fill-opacity=".5" transform="translate(2.3 2.3) scale(4.6875)"><circle r="1" fill="#c0968c" transform="rotate(-137.9 37.8 66.5) scale(194 144.69788)"/><path d="M81.2 189.4l-2.4-138 50-.8 2.4 138z"/><circle r="1" fill="#fff7ef" transform="rotate(-175 32.7 69.3) scale(17.09062 111.18871)"/><ellipse cx="92" cy="213" fill="#a5a8a0" rx="132" ry="36"/><ellipse cx="170" cy="74" fill="#22213f" rx="34" ry="101"/><ellipse cx="105" cy="137" fill="#090000" rx="26" ry="43"/><circle r="1" fill="#4f2c12" transform="rotate(170 24 113.7) scale(9.40818 32.38724)"/><circle cx="90" cy="17" r="34" fill="#bd8965"/><circle r="1" fill="#393f3f" transform="matrix(26.27732 -65.36688 22.49483 9.04286 14 24)"/><ellipse cx="133" cy="106" fill="#ffed46" rx="4" ry="69"/><circle r="1" fill="#fffffd" transform="rotate(91.1 -17.2 81.8) scale(49.76087 9.05643)"/><ellipse cx="104" cy="77" fill="#0a0000" rx="26" ry="28"/><circle cx="176" cy="152" r="39" fill="#3e6086"/><ellipse cx="106" cy="183" fill="#e39a06" rx="33" ry="8"/><ellipse cx="140" cy="198" fill="#b1c0bb" rx="101" ry="10"/><path fill="#3b0a00" d="M113 19l27 45-2-76z"/><circle r="1" fill="#859099" transform="matrix(24.21142 -108.31564 17.31095 3.86946 28.1 151.5)"/><ellipse cx="68" cy="164" fill="#dea477" rx="12" ry="30"/><path fill="#6f6a7e" d="M124 222h71v34h-71z"/><path fill="#b1c0cb" d="M41 77h16v179H41z"/><circle r="1" fill="#29302e" transform="matrix(2.29158 .13749 -4.77247 79.54572 141.6 118.8)"/><circle r="1" fill="#ffffe4" transform="rotate(179.4 67.5 47.5) scale(1 60.08742)"/><ellipse cx="104" cy="237" fill="#adc0bf" rx="27" ry="11"/><path fill="#b4c6c5" d="M121 202h74v14h-74z"/><circle r="1" fill="#333841" transform="rotate(-83.4 122.2 -63) scale(69.43175 33.09197)"/><path fill="#714e33" d="M76 249H57l2-68z"/><ellipse cx="12" cy="211" fill="#788289" rx="32" ry="97"/><path fill="#301b00" d="M130.4 31.2L87.5 144.3l58.5 47.9-15.6-24.7z"/><path fill="#37240f" d="M82.7 205l-.3-.5-6.3 32.2-8.6-26.1z"/><circle r="1" fill="#1b191d" transform="rotate(-13.2 91.8 -792.7) scale(54.24219 21.88021)"/><path fill="#100e05" d="M80 130h48v47H80z"/><path fill="#c5b097" d="M130 48l-77-2 9-23z"/><path fill="#765c40" d="M91 18l37-34-2 71z"/><path fill="#000c1f" d="M143 187h52v2h-52z"/><path fill="#fffff8" d="M135 69h2v102h-2z"/><path fill="#150e00" d="M137 95h3v47h-3z"/><path fill="#ffa014" d="M130 45h4v88h-4z"/><path fill="#fff" d="M71 177l-6 10 5 3z"/><path fill="#ba7b48" d="M57 159h12v26H57z"/><path fill="#696c6c" d="M45 47.7l-10.5 66.1-47.4-7.5 10.4-66.1z"/><circle r="1" fill="#0b0800" transform="rotate(98.6 57.6 68.3) scale(29.34801 4.26248)"/><ellipse cx="76" cy="138" fill="#c5b8b6" rx="3" ry="38"/><circle r="1" fill="#567599" transform="rotate(-142.4 106.3 60.4) scale(10.59093 20.04558)"/><circle r="1" fill="#343734" transform="matrix(-8.72686 -16.09815 29.50956 -15.99723 6.3 0)"/><path fill="#1c170d" d="M82 51h47v126H82z"/><ellipse cx="82" cy="3" fill="#88705e" rx="29" ry="20"/><ellipse cx="76" cy="84" fill="#b8a397" rx="4" ry="63"/><path fill="#d97705" d="M138.1 178.3l-6.8-4.9-1.1-27.6.9-32.2z"/><path fill="#fafbfc" d="M58 96h13v43H58z"/><circle r="1" fill="#3e444f" transform="rotate(-171.6 88.8 23.5) scale(40.11931 15.08245)"/><path fill="#b8c7d4" d="M43 184h13v72H43z"/><path fill="#848791" d="M56 247h67v9H56z"/><ellipse cx="178" cy="238" fill="#74737b" rx="56" ry="14"/><path fill="#b08949" d="M96 50l16-15 13 13z"/><path d="M138 112h1v74h-1z"/><path fill="#959591" d="M41 36h15v65H41z"/><path fill="#98a5a4" d="M133 189h62v16h-62z"/><ellipse cx="64" cy="106" fill="#8eadb3" rx="2" ry="17"/><path fill="#af9971" d="M79 226l43-19-40-3z"/><ellipse cx="137" cy="57" fill="#0c0300" rx="1" ry="38"/><path fill="#3f4e5f" d="M141 98h54v49h-54z"/><path fill="#feffff" d="M55.1 76.4l16.6 1.4-16.4 20.6 15.3 10.8z"/><path fill="#0d0d05" d="M80 53h40v16H80z"/><ellipse cx="122" cy="108" fill="#37220a" rx="8" ry="59"/><path fill="#906746" d="M57 176h7v63h-7z"/><ellipse cx="68" cy="199" fill="#9dabab" rx="6" ry="10"/><path fill="#82898e" d="M14 155h28v101H14z"/><path fill="#e8dfdf" d="M56 37l13 8v34z"/><path fill="#343d49" d="M139 9h34v112h-34z"/><path fill="#522f04" d="M107.9 162.7l26.1 20.9-9.3-40.4 15.7 45.8z"/><path fill="#4c3a29" d="M82 206l-20 5 11 27z"/><path fill="#ce981e" d="M103 177h30v10h-30z"/><path fill="#b1a88f" d="M79.1 76.1l2.2-4.3-19.2 26.3 7.7-2.3z"/><circle r="1" fill="#4b5c71" transform="rotate(97.1 24.5 149.4) scale(21.09994 32.68358)"/><circle cx="68" cy="186" r="4" fill="#fff"/><path fill="#7b5d3d" d="M60.7-16.4l9.9 30.5-13.3 4.3-9.9-30.5z"/><path fill="#a2aea9" d="M79 226h45v22H79z"/><path fill="#2f2b24" d="M74 19.8v-1l76 1.4v1z"/><path fill="#998c83" d="M52 21h49v14H52z"/><ellipse cx="134" cy="121" fill="#ffcf4d" rx="1" ry="49"/><circle r="1" fill="#56636a" transform="matrix(-4.44134 -21.41299 9.58946 -1.98898 0 255)"/><path fill="#eec4ab" d="M56 131h16v20H56z"/><path fill="#59769d" d="M142 176h48v11h-48z"/><circle r="1" fill="#93806f" transform="matrix(-16.20423 -10.44385 8.32242 -12.9127 85.6 3.4)"/><path fill="#e98c03" d="M134 38h2v13h-2z"/><circle r="1" fill="#202429" transform="matrix(-2.9773 27.95425 -7.40874 -.78908 87.5 102.1)"/><path fill="#fff" d="M57 96h6v34h-6z"/><path fill="#b2b3b3" d="M42 93h15v60H42z"/><path fill="#677a91" d="M141 140l19 13 3 17z"/><path fill="#ce8b22" d="M129 83.4l5.7-27.6-1.4-13.2-4.3 11.3z"/><circle r="1" fill="#7a7a77" transform="matrix(12.30313 -1.09803 2.93467 32.88235 20.2 131.7)"/><path fill="#859191" d="M139 193h42v9h-42z"/><ellipse cx="165" cy="197" fill="#b4bfba" rx="44" ry="2"/><ellipse cx="47" cy="27" fill="#717475" rx="10" ry="32"/><circle r="1" fill="#040401" transform="matrix(-1.149 -10.86005 3.91344 -.41405 131.5 26.2)"/><ellipse cx="73" cy="114" fill="#c7b8ac" rx="3" ry="63"/><path fill="#c8baae" d="M57.7 70l-1.4-37.9 6-.2 1.4 38z"/><path fill="#293642" d="M152 147.9l-11.4-7.1-3.4-21.4 8.6 9.1z"/><path fill="#adb7b2" d="M120 190h18v27h-18z"/><path fill="#785310" d="M76 177h22v3H76z"/></g></g></svg>