<svg xmlns="http://www.w3.org/2000/svg" viewBox="0 0 1200 900"><defs/><filter id="prefix__a"><feGaussianBlur stdDeviation="12"/></filter><rect width="100%" height="100%" fill="#496233"/><g filter="url(#prefix__a)"><g transform="translate(2.3 2.3) scale(4.6875)"><circle r="1" fill="#fff" fill-opacity=".5" transform="rotate(-48 231.3 -131.9) scale(52.65469 107.44501)"/><circle r="1" fill-opacity=".5" transform="matrix(67.18336 71.37037 -27.06433 25.47657 99.1 169.7)"/><ellipse cx="46" cy="25" fill-opacity=".5" rx="95" ry="45"/><path fill="#fef2ff" fill-opacity=".5" d="M232.3 117.6l-61.2 59-83.4-86.2 61.2-59z"/><path fill="#000009" fill-opacity=".5" d="M134 2l123-18 14 176z"/><path fill="#e8e1ee" fill-opacity=".5" d="M118 64L58 75l131 130z"/><circle r="1" fill="#ede4f4" fill-opacity=".5" transform="rotate(118.4 58.7 149.8) scale(47.97499 41.45787)"/><circle r="1" fill="#03000d" fill-opacity=".5" transform="matrix(-33.34474 58.31163 -104.49555 -59.7544 57 179)"/><circle r="1" fill="#0e1206" fill-opacity=".5" transform="rotate(-110.8 51.3 -27.5) scale(46.24264 184.81455)"/><circle r="1" fill-opacity=".5" transform="matrix(33.776 13.50502 -9.23216 23.08958 247 64)"/><path fill="#5e4938" fill-opacity=".5" d="M22 104.2L14.5 90 124 31.8l7.5 14.2z"/><ellipse cx="63" cy="122" fill-opacity=".5" rx="30" ry="29"/><path fill="#d4d4d6" fill-opacity=".5" d="M67 80l86-43 19 156z"/><path fill="#6b6b40" fill-opacity=".5" d="M68.1 186.5l-21.8-48.2L102 207l-28.2-4.8z"/><path fill="#878a83" fill-opacity=".5" d="M172.3 116.6l-45.7 17.5 11.8-9.6 66.3-39.7z"/><circle r="1" fill-opacity=".5" transform="matrix(17.30578 -13.02272 48.13837 63.97064 106 158.1)"/><path fill="#7a7353" fill-opacity=".5" d="M36.8 110.4l46.2-41-47 17.8-6.4 4.6z"/><path fill="#3e4238" fill-opacity=".5" d="M100 75.1l2.3 4.5L88 86.9l-2.3-4.5z"/><circle r="1" fill="#4a3936" fill-opacity=".5" transform="rotate(173.6 99.7 21.8) scale(44.89786 15.89666)"/><path fill="#e5e5e8" fill-opacity=".5" d="M122 120l70-46-35-32z"/><ellipse cx="16" cy="168" fill="#353236" fill-opacity=".5" rx="22" ry="94"/><path fill="#7c806f" fill-opacity=".5" d="M107.9 75l-1.4-2.6L154 47l1.4 2.6z"/><circle r="1" fill-opacity=".5" transform="rotate(110.7 105.4 120) scale(30.35284 31.38291)"/><path fill="#3b3342" fill-opacity=".5" d="M267.5 109.6l-123.7-90L219 104l10.5 12.6z"/><path fill="#040304" fill-opacity=".5" d="M121.6 142.5l46.1 49.1-64.8 15.4-48.5-92.5z"/><path fill="#f0eff3" fill-opacity=".5" d="M109 120L71 85l9-12z"/><path fill="#584834" fill-opacity=".5" d="M106.3 59.2l-46.2-.1L-16 97.9 85 72.2z"/><circle r="1" fill="#cecfce" fill-opacity=".5" transform="matrix(16.62766 -32.078 39.11331 20.27441 205 142.1)"/><path fill="#110f11" fill-opacity=".5" d="M70 86l-45 27 93 26z"/><circle r="1" fill="#090f07" fill-opacity=".5" transform="matrix(13.27164 14.33207 -21.68014 20.07603 139.5 13.2)"/><path fill="#090d05" fill-opacity=".5" d="M-13.8 100.5l60.1-40.6 4.8 6.8-67.1-5.6z"/><path fill="#dedbdf" fill-opacity=".5" d="M85.3 80.8L153.6 41l-28.8 9.7-50.3 26.1z"/><circle r="1" fill="#c5c7c2" fill-opacity=".5" transform="matrix(4.17485 12.23901 -24.3261 8.29788 170.2 160.4)"/><circle r="1" fill="#493e2a" fill-opacity=".5" transform="matrix(129.05488 -38.71832 1.10088 3.66944 205.7 18.9)"/><path fill="#36363a" fill-opacity=".5" d="M219.6 105.6l5.9-32.3 43.4 45.4 1.1 34.7z"/><path fill-opacity=".5" d="M201 55l70 55V27z"/><path fill="#6e6e48" fill-opacity=".5" d="M65 174l21 6-14 14z"/><circle cx="204" cy="109" r="17" fill="#cbcccb" fill-opacity=".5"/><path fill="#040100" fill-opacity=".5" d="M220.4 12.9L199 9.5 177.2-16l93.8 1.9z"/><path fill="#95998e" fill-opacity=".5" d="M240.9 153.1L184 202.2l7.2-10.6 73.9-60.6z"/><path fill="#d7d7da" fill-opacity=".5" d="M165.1 48.1L150.6 37l-15.9 10.4 73.9 45z"/><path fill="#878a81" fill-opacity=".5" d="M165.7 104.7l-2.4 1.3 3.7 12.4-31.7 8.4z"/><path fill="#dadbda" fill-opacity=".5" d="M170.8 108.6l-89.1-18 60.9-33.4 58.8 31.1z"/><path fill="#46493a" fill-opacity=".5" d="M180 101l-8 9 18-11z"/><circle r="1" fill="#333636" fill-opacity=".5" transform="matrix(-13.7986 1.23445 -2.84818 -31.83682 38.3 175.4)"/><path fill="#d0d1cf" fill-opacity=".5" d="M162 207l38-119 52 49z"/><ellipse cx="57" cy="26" fill="#11230c" fill-opacity=".5" rx="65" ry="30"/><circle r="1" fill="#2b2b2d" fill-opacity=".5" transform="matrix(5.21635 10.95154 -47.6385 22.6908 227.7 31.8)"/><path fill="#8a8c7a" fill-opacity=".5" d="M133.5 55l17.4-7.7 1.6 3.7-17.4 7.7z"/><path fill="#49402c" fill-opacity=".5" d="M145.2 26.2L166.9 51l95.5-41-122.2 25.3z"/><path fill="#797754" fill-opacity=".5" d="M58 93l-28-5 3 17z"/><path fill="#5a533b" fill-opacity=".5" d="M64.5 78.9l8.6 12.7-36.7-23.2 106.5-25.6z"/><path fill="#8c8d81" fill-opacity=".5" d="M141.3 170.4l22.9-13.7-32.7 45.6 41.2-57.4z"/><path fill="#2a3a1b" fill-opacity=".5" d="M121 43l-3-25-55 31z"/><circle r="1" fill="#d7d8d6" fill-opacity=".5" transform="matrix(.64403 .765 -25.51776 21.48244 151.5 123.5)"/><path fill="#d4d5d3" fill-opacity=".5" d="M64.6 80.7l34 35.1 58.5 60.5-30.2-72.4z"/><path fill="#2f3323" fill-opacity=".5" d="M41.4 107.4L7.8 95.1 59 66.5 17.9 103z"/><path fill="#cccccd" fill-opacity=".5" d="M159.9 89.5l-22.6-7 83.2 19.6-33.6-32.3z"/><path fill-opacity=".5" d="M31 132l13-10 15 45z"/><path fill="#75786f" fill-opacity=".5" d="M96 83.4L93.7 80 110 68.6l2.3 3.3z"/><path fill="#3c3e37" fill-opacity=".5" d="M38.2 121.9l-54.2 18v30.7L.4 83.2z"/><circle r="1" fill="#acafa9" fill-opacity=".5" transform="matrix(4.73 -.9806 3.02801 14.60585 251.6 174.4)"/><path fill="#1d1d18" fill-opacity=".5" d="M36 119l35-32 8 13z"/><path fill="#a7aa9b" fill-opacity=".5" d="M169.3 148.8l54.8-48.7-27.9 32.6 11.4-14.2z"/><path fill="#81847c" fill-opacity=".5" d="M153.7 121.3l11.2-1.5-13.7 7.5 64.6-47.2z"/><path fill="#dbdbdb" fill-opacity=".5" d="M133.5 44.8l13.3 35.5-34.4-20.2L136 92.2z"/><path fill="#000002" fill-opacity=".5" d="M58 49h14v12H58z"/><path fill="#2e2f30" fill-opacity=".5" d="M197.6 52.1l71.5 60.5-11-15.3 12.9 69.6z"/><path fill="#5e5f54" fill-opacity=".5" d="M151.8 116.4l.7.7-14.3 12.5-.7-.7z"/><path fill="#1f2a0f" fill-opacity=".5" d="M83.5 199.2l13.9-15-38.3-20 20.6-9.8z"/><circle cx="58" cy="73" r="3" fill="#a7a183" fill-opacity=".5"/><path fill="#cdcdce" fill-opacity=".5" d="M88.6 71.3L145.3 40 94.4 72.4l-1.1 25.1z"/><path fill="#d3d2d5" fill-opacity=".5" d="M219.2 112.1l24.7 16.7 22.5 31.3-3.7-2z"/><path fill="#d4d5d4" fill-opacity=".5" d="M129.5 147.7l-17.1-16L92.5 110l57.1-24.7z"/><path fill="#dad9db" fill-opacity=".5" d="M151 129l38-1 7-33z"/><path fill="#313135" fill-opacity=".5" d="M229.5 78.1l-77.6-42.9-3.6-3.7L215.9 97z"/><path fill-opacity=".5" d="M29 97.7l63 148.2-1 .4L28 98.1z"/><path fill="#717c6c" fill-opacity=".5" d="M241 153l-3-2-7 9z"/><circle r="1" fill-opacity=".5" transform="rotate(-24.2 478.6 -59) scale(2.0181 64.19672)"/><path fill="#514938" fill-opacity=".5" d="M99.9 57.8l48-17.6-45.7-7.6 27.8 4.9z"/><circle r="1" fill="#d9dada" fill-opacity=".5" transform="matrix(-4.60102 2.2521 -13.09215 -26.74722 217.2 180.2)"/><path fill="#191914" fill-opacity=".5" d="M-16 136l51-5-40 20z"/><circle r="1" fill="#dcdbdc" fill-opacity=".5" transform="rotate(50.1 24.4 202.1) scale(14.72331 4.56684)"/><circle r="1" fill="#0e1809" fill-opacity=".5" transform="matrix(9.82587 -17.55619 40.46795 22.64915 14.3 15)"/><circle r="1" fill="#0c0b0d" fill-opacity=".5" transform="matrix(5.32357 -5.62026 33.03433 31.29047 138.8 173)"/><path fill="#070606" fill-opacity=".5" d="M132.2 26.7l60.8-9.3-70.3 20.7-2.5-8.2z"/><path fill="#181817" fill-opacity=".5" d="M122 142l25 24h-17z"/><path fill="#d8d8d8" fill-opacity=".5" d="M144.7 123.5l23.4 37L118 86.4l52.3 8.6z"/><path fill="#d0d1ce" fill-opacity=".5" d="M222 103l-45-43 19 42z"/><path fill="#323530" fill-opacity=".5" d="M41.4 142.1L70 207 2.7 148.3l9.8-4.6z"/><path fill="#000101" fill-opacity=".5" d="M121.3 11.3l13-22.6 10.4 6-13 22.6z"/><path fill="#bdbeb6" fill-opacity=".5" d="M184.8 136.8l-18.2 9.8 17.4 53.3-25-41.9z"/><path fill="#181811" fill-opacity=".5" d="M56.4 79.3L49 76.6l.7-2 7.5 2.8z"/><path fill="#cccdcc" fill-opacity=".5" d="M254.1 139.2l-18.2-16.3-15.1-12.5 5.3 50.6z"/><path fill="none" stroke="#86887b" stroke-opacity=".5" stroke-width=".5" d="M237.1 93q-41.6 31.5-73.4 61.3"/><path fill="#d6dade" fill-opacity=".5" d="M74.4 77.5l3.6 8.2-6.4 2.8-3.6-8.2z"/><path fill="#515528" fill-opacity=".5" d="M137 54h5v3h-5z"/><path fill="#d3d3d2" fill-opacity=".5" d="M235.9 149.1l-78.4 17.6 8.6 25 2.3-7.1z"/><path fill="#373939" fill-opacity=".5" d="M252.1 141.3l15.4 11.3-59.9-64.7 63.4 42.5z"/><circle r="1" fill="#76796f" fill-opacity=".5" transform="matrix(.7883 .98373 -17.19563 13.77935 174.3 108.8)"/></g></g></svg>