<svg xmlns="http://www.w3.org/2000/svg" viewBox="0 0 1200 673"><defs/><filter id="a"><feGaussianBlur stdDeviation="12"/></filter><rect width="100%" height="100%" fill="#345850"/><g filter="url(#a)"><g fill-opacity=".5" transform="translate(2.3 2.3) scale(4.6875)"><circle cx="134" cy="49" r="179" fill="#c9c7a7"/><ellipse cx="63" cy="106" fill="#2e554a" rx="48" ry="22"/><path fill="#fae7c9" d="M19.8 180.6l-64.3-60 32.7-35.2 64.3 60z"/><circle r="1" fill="#e4d3b2" transform="matrix(-4.6522 -11.6313 25.64192 -10.25604 25.8 81.3)"/><circle r="1" fill="#4e6d66" transform="matrix(-2.62269 34.72394 -48.22578 -3.64248 139.3 53.8)"/><circle r="1" fill="#cdc4be" transform="matrix(-33.04646 -19.58605 9.70994 -16.38305 120.1 142)"/><circle r="1" fill="#375b41" transform="matrix(24.55063 -11.64896 5.19916 10.95742 166.5 121)"/><ellipse cx="74" fill="#a7ab95" rx="105" ry="30"/><circle r="1" fill="#527166" transform="rotate(41.7 77.2 320.2) scale(12.58029 66.76476)"/><path fill="#375d3f" d="M194 87l51 16-9 18z"/><path fill="#bfbdb6" d="M172.3 96.4l-49.8 14.1 64.4-39.3-.5 14.2z"/><circle r="1" fill="#a4ab8c" transform="matrix(25.57642 8.86952 -5.8171 16.7744 196.6 25.1)"/><path fill="#b4b3a1" d="M-16 73l13 39 78-86z"/><path fill="#dad1ca" d="M25.6 148.7l61.5-21.2 1.3 3.8-61.5 21.2z"/><circle r="1" fill="#aac178" transform="rotate(-60.7 96.5 -34.7) scale(11.65117 18.53512)"/><circle r="1" fill="#8ea255" transform="matrix(-56.2471 78.10138 -13.00326 -9.3647 255 114.4)"/><ellipse cx="54" cy="124" fill="#355852" rx="19" ry="10"/><path fill="#b8b0a5" d="M90.4 73.8l6.7 2.9 11-.1L133 121z"/><path fill="#c1af9d" d="M141-13l52 21-75 10z"/><circle r="1" fill="#afacac" transform="matrix(-1.96835 -6.129 31.32416 -10.05986 166 142)"/><circle r="1" fill="#42725a" transform="matrix(-22.15157 -6.65773 2.50814 -8.34507 236.4 20.2)"/><path fill="#4a6856" d="M186 118l-65 8 11-17z"/><path fill="#9ca092" d="M160 69.2l9.2-24.1-33.6 17.5 55 25z"/><path fill="#46664e" d="M181 88h34v11h-34z"/><path fill="#a5a78e" d="M170 91l44 42 5-28z"/><path fill="#587164" d="M39.2 59.4l47.7 47.3-35.8-58.2-60.4 38.6z"/><path fill="#3f5e69" d="M198.7 43l15.7 24.3-15 9.8-15.8-24.4z"/><ellipse cx="244" cy="56" fill="#939992" rx="36" ry="15"/><circle r="1" fill="#355e60" transform="matrix(1.7168 5.13098 -27.36091 9.15483 122 50.7)"/><path fill="#4d6c5f" d="M123 111l-32 8-6-45z"/><path fill="#5d6e65" d="M203.6 37.3l-1.5-8.3 43.5 27.5-5.1 8.6z"/><path fill="#bdbdb1" d="M106 115l29-11-34 45z"/><ellipse cx="52" cy="35" fill="#9da693" rx="34" ry="12"/><path fill="#91a17c" d="M270-16l-28 40-12-14z"/><path fill="#70847a" d="M63 52l55-58 2 38z"/><path fill="#6d8264" d="M42.1 84.6L26 90.9 7.9 102.8l6.1 9.4z"/><path fill="#245446" d="M211 139l15-9-5-6z"/><path fill="#637a65" d="M39.9 135.8l-27 9.2 10.5 13 72.8-71.5z"/><circle r="1" fill="#bcbbaf" transform="rotate(158.9 91.7 59) scale(70.28606 1.7256)"/><circle r="1" fill="#8a9771" transform="rotate(-21.1 313 -106.2) scale(23.61179 4.07886)"/><path fill="#4a7254" d="M146.3 64.5l9.3 12.2-7.4 14.2-27.6-1.1z"/><path fill="#a8b393" d="M178.2 103.2l-42-4.9-16.6-26.2 20.1 19.5z"/><circle r="1" fill="#4c6c68" transform="matrix(.3613 .93245 -106.27563 41.17966 139.6 98.8)"/><ellipse cx="238" cy="87" fill="#7a9d60" rx="31" ry="13"/><path fill="#cbc9b6" d="M265 56.7l-1.8 4.7-26.2-10 1.8-4.8z"/><ellipse cx="224" cy="111" fill="#2e4d42" rx="5" ry="9"/><path fill="#436550" d="M157 98l-4 39 32-18z"/><path fill="#d4cfb7" d="M37.7 85.6L-16 99.3l26.4 4.1-1.8-22.7z"/><circle r="1" fill="#84965d" transform="rotate(154.4 86.8 94.8) scale(8.72606 47.06157)"/><path fill="#c5bd9e" d="M59 80.4L40.1 60.7l-16 12.4-34.3 25.5z"/><circle r="1" fill="#345e5c" transform="matrix(-2.02032 -4.8923 24.406 -10.0787 52.5 94.4)"/><path fill="#768668" d="M138.3 131.4l1.5-24.6 34.8 8.4-43.9 25.2z"/><path fill="#52706a" d="M122.1 20.6l56.8 16.7-55.5 25.5 37.9-44.5z"/><path fill="#2e6757" d="M237.4 28.5L256.5 8l8 7.5-19 20.5z"/><path fill="#b3b3a5" d="M194 103l21 22h19z"/><circle r="1" fill="#2c5151" transform="matrix(-5.62004 -4.54066 3.61917 -4.4795 155.9 133.4)"/><circle r="1" fill="#a7b57f" transform="matrix(21.18412 3.43108 -1.10268 6.80818 204.7 23.3)"/><path fill="#879480" d="M16.9 77.9l-11.8 8L-8 59.5l45.2 2.6z"/><path fill="#b4b6ac" d="M71.1 137.9l-23.4 14.4-47.8 2.5 49.6-20z"/><path fill="#a5a7a1" d="M199 132l-24-9-16 30z"/><path fill="#b2bba8" d="M271 22.3l-23.4 11L271 51.9 244 42z"/><path fill="#5f7a76" d="M8 36h22v16H8z"/><path fill="#446759" d="M59 112l39-18 25 19z"/><path fill="#3b5958" d="M93 142.4l-8.5 5.2-3.6-6 8.6-5.2z"/><path fill="#6c8661" d="M126.1 100.1l34.8-28-6.4 16.8-51 1.3z"/><path fill="#a99b7f" d="M232.3 165.8l-12.9-19 42.3-28.6 12.9 19z"/><path fill="#67847e" d="M174.5 16l28.1-5.8 47.7-12.9L195.4 2z"/><path fill="#376365" d="M56 47l3 15-12-5z"/><path fill="#83946b" d="M97.6 103.7l-2.8 8.6-12.4-4 2.8-8.6z"/><ellipse cx="157" cy="95" fill="#b3b4aa" rx="23" ry="5"/><path fill="#e0e2d5" d="M133.5 133.5l-8.8-6.5 5.1.5 7.7 3.1z"/><path fill="#859a7d" d="M40.5-11.7l29 37-26 20.4-29-37z"/><path fill="#8c9288" d="M177.1 53.4l-48.4 6 13 3.7 8.4-21.5z"/><path fill="#f2f2f0" d="M214 105h4v5h-4z"/><path fill="#517267" d="M118 41.1l-4.4 18.2-13.8 16.2-14.1-23.2z"/><path fill="#b4afa5" d="M192 35l6 6-24 10z"/><path fill="#506f59" d="M222.9 113.3l29.1 10.3-51.6-41.7 43.8 24.7z"/><path fill="#cfc8b0" d="M-.1 139.1L-16 73.4l27.2 46.7 32.6 11.6z"/><path fill="#365547" d="M188 92h8v8h-8z"/><path fill="#7a7f7f" d="M201.7 48.8l6.3 17.3 3.2-22.2-16.1-17.4z"/><path fill="#8d9690" d="M121.2 123.4l-56.4 11.3 28-18.4-12 22.8z"/><path fill="#abae96" d="M125.5 94.8L99.8 70.9l14.2-4.6-17.4 13.4z"/><path fill="#a0b47b" d="M87.5 75.3L78 53.2l-21.3 14 12.9 8z"/><path fill="#68805e" d="M132 120h71v7h-71z"/><path fill="#b6b6aa" d="M75.9 41.5l-9.1-12.2-24.9 17.6 38.8-16z"/><path fill="#6e806a" d="M253.2 124.6l-81.4-22.7 32.3 15.2 17.7-11.1z"/><path fill="#466767" d="M103 118l-5 4-14-8z"/><path fill="#3f6461" d="M168 48l9-15-21 4z"/><circle r="1" fill="#babea9" transform="rotate(57.3 -16.5 66.1) scale(1 40.08192)"/><path fill="#6e8364" d="M10.8 110.3l57.5 5.1-57.7-15.6 31.6 32.6z"/><path fill="#4a7063" d="M251.7 39.8l13 4.6-37.2-22.1-20.1-10.8z"/><path fill="#b6b1a3" d="M108 139.1l55.6 18.9-9.7-8.6-5.3-14.5z"/><path fill="#c6c4b7" d="M126 112l-6-13 9 7z"/><path fill="#72856b" d="M21.3 98.6l74.4-24.8-81.6 21.1 16.1 18.3z"/><path fill="#889676" d="M110.1 87.1L82.6 99l-25.2 6 11.8-6.6z"/><path fill="#727e7d" d="M157.7 51.2l36.5 11.6 15.4 23.4-64.2-29.8z"/><path fill="#315c4c" d="M156 116h32v6h-32z"/><ellipse cx="245" cy="65" fill="#bbbca9" rx="11" ry="3"/><path fill="#315f5a" d="M132 78l18-9 8 10z"/><circle r="1" fill="#809e52" transform="matrix(-.65352 -6.3904 19.59954 -2.00435 203.6 142)"/></g></g></svg>