<svg xmlns="http://www.w3.org/2000/svg" viewBox="0 0 849 1200"><defs/><filter id="a"><feGaussianBlur stdDeviation="12"/></filter><rect width="100%" height="100%" fill="#0f1f89"/><g filter="url(#a)"><g fill-opacity=".5" transform="translate(2.3 2.3) scale(4.6875)"><circle cx="121" cy="130" r="188" fill="#fff"/><circle cx="93" cy="167" r="215" fill="#fff"/><circle r="1" fill="#fff" transform="matrix(145.05929 26.36174 -32.1844 177.0993 81.6 131.1)"/><circle cy="183" r="241" fill="#fcfff7"/><path fill="#5e84cb" d="M116 209h45v7h-45z"/><path fill="#86a2d1" d="M30.6 130.5l-14-4.8 9.2-56.6L6.6 55.2z"/><path fill="#6386ca" d="M128 163h32v4h-32z"/><circle r="1" fill="#d3e1eb" transform="rotate(85.8 -9.3 109.8) scale(78.3661 10.99234)"/><ellipse cx="23" cy="65" fill="#2146b5" rx="15" ry="2"/><path fill="#819ecc" d="M156.3 136l11.4-1.3 19.1 6.6-7-15.9z"/><circle r="1" fill="#fcfff8" transform="rotate(112.2 -47.2 135.8) scale(36.38091 162.64091)"/><circle cx="49" cy="6" r="61" fill="#f9fff9"/><path fill="#9db5d6" d="M165 90h30l-35-17z"/><ellipse cx="91" cy="183" fill="#9ab3d7" rx="58" ry="2"/><path fill="#849fd3" d="M154 140h4v29h-4z"/><path fill="#7290ce" d="M96 133h24v4H96z"/><path fill="#9eb4d8" d="M92 79l15 16-23 2z"/><path fill="#93add7" d="M80 165h64v3H80z"/><path fill="#abbfdb" d="M75 172h71v4H75z"/><ellipse cx="18" cy="50" fill="#9cb2d5" rx="11" ry="3"/><path fill="#c0d1e3" d="M157.1 59.9l20.5-26.2-16.9-4.9L171 151.3z"/><path fill="#668dc9" d="M180 40h1v51h-1z"/><path fill="#8ba8d3" d="M9 95h28v4H9z"/><ellipse cx="58" cy="124" fill="#f9fff9" rx="29" ry="46"/><circle r="1" fill="#f7fdf6" transform="matrix(-2.8616 -18.27385 115.78734 -18.13181 157 231.8)"/><path fill="#fbfff7" d="M68 184h64v27H68z"/><path fill="#81a3ce" d="M165 4h9v9h-9z"/><path fill="#809bd1" d="M88 54h22v3H88z"/><path fill="#fafffa" d="M82-16l78 116-2-109z"/><path fill="#5278ca" d="M113 212h8v5h-8z"/><path fill="#a2b9d8" d="M116 73l22-11-18 16z"/><path fill="#fdfff9" d="M85.4 165.1l42.3-4.7-5.6 27.4-12.9-42.9z"/><path fill="#a3b7db" d="M21 100l10 28H11z"/><path fill="#f9fff6" d="M157 145h24v61h-24z"/><path fill="#f5fcf7" d="M121 138L86 52l101 63z"/><path fill="#f7fcf6" d="M34.6 50.8l.7 11-49.9 3.4-.7-11z"/><path fill="#adc0dc" d="M166.7 114.5l-6 41.2-.3-23.8 1.5-6.2z"/><path fill="#819dcd" d="M66 69l3-6 5 7z"/><path fill="#839fd1" d="M157.3 41.2l-.7 8-4-.4.8-8z"/><circle r="1" fill="#f8fef7" transform="matrix(-20.10617 7.41405 -27.43414 -74.39865 11.9 167.2)"/><path fill="#fdfff8" d="M145 112h7v93h-7z"/><path fill="#859dcc" d="M167 38h13v4h-13z"/><path fill="#8ca4d1" d="M89 125h18v4H89z"/><path fill="#fcfff7" d="M184.7-10l-3.6 36.4-13.2-33-43.8 54.4z"/><path fill="#cad8e6" d="M134.5 78.3l12.2 16.4-5.8 44.6.9-30.9z"/><path fill="#b9cce2" d="M99.5 158.7l-23.1-4.1-2.6 4.7 15.8 1.1z"/><path fill="#7491cc" d="M20 54h2v11h-2z"/><path fill="#bbcee0" d="M47 65l11-1-17 23z"/><ellipse cx="20" cy="101" fill="#5576c7" rx="1" ry="23"/><ellipse cx="67" cy="182" fill="#a1b5d8" rx="27" ry="2"/><path fill="#f8fef7" d="M34.8 82l-4.2-29.4 18.2 24.6-61.3.4z"/><path fill="#8ba3d6" d="M132.6 211.2l25.1-4.2 7.5 2.9-55.2 9z"/><path fill="#fafef8" d="M81 109h42v16H81z"/><path fill="#839ed1" d="M161 12h1v67h-1z"/><path fill="#fbfff9" d="M86 136l71-2-28 14z"/><path fill="#0f32b6" d="M28.5 121.7v1l-13-.4v-1z"/><path fill="#f4fbf6" d="M162.9 108.1l18.2-51.3-17.8 24.4 32.7 45.3z"/><path fill="#c8d7e4" d="M124 4h32v4h-32z"/><path fill="#7591cc" d="M99.7 71.9l-.7 2.9L88.3 72l.7-2.9z"/><path fill="#7a93ce" d="M7 71v-7l20-2z"/><path fill="#fafff9" d="M11 19.9l-27 90.8 40.6 6.7L4.8 94.5z"/><path fill="#d0dce9" d="M108 42L85 56l-6-17z"/><ellipse cx="119" cy="149" fill="#97b0e0" rx="23" ry="1"/><circle cx="171" cy="134" r="3" fill="#5373bf"/><path fill="#c3d1e3" d="M123.7 75.3L97.4 41.4l23.9 38.7-23.1 14.7z"/><circle r="1" fill="#a2b7db" transform="matrix(-10.86103 .79758 -.1056 -1.43806 100.7 144.7)"/><path fill="#fff" d="M160 35h3v17h-3z"/><path fill="#f7fdf6" d="M90 185l16 35-11-75z"/><path fill="#acbfde" d="M101 84l-19-4 12 16z"/><path fill="#aec1de" d="M163 39h2v72h-2z"/><path fill="#aec0dd" d="M84 105h20v4H84z"/><path fill="#eef5ef" d="M6 67h37v2H6z"/><ellipse cx="34" cy="96" fill="#2452bf" rx="1" ry="4"/><path fill="#c6cfbe" d="M180 193h1v63h-1z"/><ellipse cx="109" cy="170" fill="#f9fef6" rx="88" ry="3"/><ellipse cy="150" fill="#aec3e4" rx="99" ry="1"/><ellipse cx="138" cy="182" fill="#94acd6" rx="7" ry="2"/><path fill="#fffff8" d="M173 10h8v28h-8z"/><path fill="#5c7bba" d="M167 59h4v2h-4z"/><path fill="#7a99ce" d="M93.3 132.1l.3 3-7 .8-.2-3z"/><path fill="#fffffc" d="M94 151h45v11H94z"/><path fill="#fffff9" d="M-49.7 128.6l99.3-12.2v1l-99.2 12.2z"/><path fill="#7490cb" d="M151.4 170.1l4.2-18.5 1 .3-4.2 18.5z"/><path fill="#f6fcf5" d="M174 159l-67 53 78-12z"/><path fill="#7e98d5" d="M122 210h24v5h-24z"/><circle r="1" fill="#8aa1d5" transform="matrix(-1.40397 -4.57448 .95599 -.2934 92.2 99.4)"/><path fill="#869ed5" d="M90 94h23v2H90z"/><path fill="#9cb4d7" d="M41.2 175l-1.4-11.9 1-.1 1.4 11.9z"/><path fill="#5273bf" d="M171.5 89.4l1-9 2 .2-1 9z"/><path fill="#9eb2da" d="M10 117h18v3H10z"/><ellipse cx="171" cy="163" fill="#8fabde" rx="16" ry="1"/><path fill="#c3d4e2" d="M119.6 78.6l14.1-15-17.8-25.4 15 26.8z"/><path fill="#8ca2cc" d="M160 34v-1l12 1v1z"/><path fill="#f6faf6" d="M161.8 212l-68.3 14.9 86.1 36.2L154.2 104z"/><path fill="#fffffa" d="M164 43h10v16h-10z"/><path fill="#fbfdf8" d="M44 103l24 9-50 4z"/><path fill="#f6fcf7" d="M1.5 99l68.7-23-54 20.8 2-25.5z"/><path fill="#7492d3" d="M142 147h1v17h-1z"/><circle cx="169" cy="9" r="4" fill="#7b98cf"/><path fill="#b0c1de" d="M17 47h17v4H17z"/></g></g></svg>