<svg xmlns="http://www.w3.org/2000/svg" viewBox="0 0 900 1200"><defs/><filter id="a"><feGaussianBlur stdDeviation="12"/></filter><rect width="100%" height="100%" fill="#444"/><g filter="url(#a)"><g fill-opacity=".5" transform="translate(2.3 2.3) scale(4.6875)"><circle r="1" fill="#fff" transform="matrix(2.55718 174.1244 -49.49926 .72694 177.8 88.2)"/><ellipse cx="109" cy="19" fill="#e6e6e6" rx="188" ry="36"/><circle r="1" fill="#fff" transform="matrix(16.2392 51.4878 -18.64151 5.87952 67.3 0)"/><ellipse cx="171" cy="128" rx="8" ry="29"/><path fill="#050505" d="M44 30h20v109H44z"/><circle r="1" fill="#4c4c4c" transform="rotate(-175.4 61.5 -2.5) scale(23.15568 71.86716)"/><circle r="1" fill="#727272" transform="matrix(30.9914 -.32455 .927 88.51937 10.3 74.5)"/><path fill="#fff" d="M98-16L65 103 64-16z"/><ellipse cx="102" cy="145" fill="#0d0d0d" rx="27" ry="54"/><path fill="gray" d="M152.3 153.6l-22.6-25.7-.2 78.8 35.4 61.7z"/><ellipse cx="185" cy="67" fill="#fff" rx="5" ry="96"/><ellipse cx="160" cy="49" fill="#fff" rx="5" ry="154"/><circle r="1" fill="#202020" transform="matrix(-14.31696 -16.069 71.72165 -63.90166 55.5 200.9)"/><path fill="#363636" d="M107 211h52v45h-52z"/><path fill="#191919" d="M183 193h9v19h-9z"/><path fill="#626262" d="M178.4 62.8L162.8-9.8l3.1 60.2 10.4 53z"/><path fill="#b2b2b2" d="M24 0h9v86h-9z"/><circle r="1" fill="#fff" transform="rotate(77.4 70.4 125.5) scale(52.06318 4.37899)"/><path fill="#5d5d5d" d="M70 54h11v69H70z"/><ellipse cx="47" fill="#e0e0e0" rx="12" ry="31"/><ellipse cx="124" cy="106" fill="#232323" rx="6" ry="150"/><ellipse cx="136" cy="161" fill="#999" rx="8" ry="63"/><path fill="#161616" d="M82 48h9v87h-9z"/><ellipse cx="8" cy="91" fill="#080808" rx="2" ry="144"/><path fill="#fff" d="M89.5 10l2 39-21 1-2-39z"/><path fill="#e5e5e5" d="M184 152.2l2 18.9-26 2.7-2-18.9z"/><path fill="#848484" d="M90-.6l-.3 66 31.8 4.8 1.4-20.4z"/><path fill="#3b3b3b" d="M168 183h5v37h-5z"/><circle r="1" fill="#6b6b6b" transform="matrix(-5.14837 .1438 -3.56583 -127.65854 70.7 205)"/><path fill="#989898" d="M9 20h12v73H9z"/><path fill="#a2a2a2" d="M129 0h25v67h-25z"/><path fill="#090909" d="M45 172h19v57H45z"/><path fill="#303030" d="M45 32l16.8-3.7-16.1 147.6L40.3 30z"/><ellipse cx="101" cy="81" fill="#f4f4f4" rx="1" ry="27"/><path d="M22 0h1v129h-1z"/><circle r="1" fill="#fff" transform="rotate(-6.4 406.8 -1417) scale(3.14039 56.8984)"/><path fill="#d0d0d0" d="M91 36h2v58h-2z"/><path d="M170.9 249.4l8 4.2-3.8 7-8-4.2z"/><circle r="1" fill="#cacaca" transform="rotate(18.1 -621 653.7) scale(2.4425 102.72295)"/><ellipse cx="62" cy="26" fill="#070707" rx="1" ry="29"/><path fill="#1e1e1e" d="M44 0h2v52h-2z"/><path fill="#fff" d="M80.1 61.9l14.1-75.3-30.3 2.9.2 37.6z"/><circle r="1" fill="#fff" transform="matrix(-2.82939 .66363 -20.47874 -87.31155 169.5 2.8)"/><path fill="#505050" d="M164 96h15v20h-15z"/><ellipse cx="34" cy="122" fill="#020202" rx="1" ry="125"/><ellipse cx="31" cy="226" fill="#595959" rx="4" ry="103"/><path fill="#595959" d="M153.9 251.3l-25 .4-.8-45 25-.4z"/><path fill="#151515" d="M93 56h7v136h-7z"/><path fill="#939393" d="M130 98h28v109h-28z"/><ellipse cx="54" cy="144" fill="#1e1e1e" rx="1" ry="168"/><path fill="#4e4e4e" d="M88.7 203.6L38 236.3l67.1 6 21.2-63.5z"/><path fill="#e9e9e9" d="M187 179h5v19h-5z"/><ellipse cx="92" cy="92" fill="#8e8e8e" rx="1" ry="98"/><ellipse cx="22" cy="146" fill="#1a1a1a" rx="2" ry="65"/><path fill="#3b3b3b" d="M166 113h14v42h-14z"/><path fill="#323232" d="M70 51h3v35h-3z"/><ellipse cx="113" cy="38" fill="#3a3a3a" rx="3" ry="62"/><path d="M124 167h4v89h-4z"/><ellipse cx="17" cy="171" fill="#5d5d5d" rx="5" ry="72"/><ellipse cx="1" cy="45" fill="#7d7d7d" rx="6" ry="53"/><path fill="#fff" d="M55.6 8.5L59.3-16l3 32.2-3.4 10.2z"/><ellipse cx="162" cy="210" fill="#c9c9c9" rx="3" ry="92"/><path fill="#fff" d="M85-12L64-5l1 72z"/><ellipse cx="102" cy="118" fill="#797979" rx="1" ry="79"/><path fill="#505050" d="M173.1 189.4l-.8-1.2 4.8-16.1-9.7 8.3z"/><path fill="#fff" d="M47 0h6v25h-6z"/><path fill="#bcbcbc" d="M149 68h24v21h-24z"/><path fill="#0f0f0f" d="M81 158h11v47H81z"/><path fill="#414141" d="M165 208h7v12h-7z"/><path fill="#787878" d="M183.1-13.2l10.8 38.8 13.1-24L183.9-1z"/><circle cx="20" cy="242" r="38" fill="#353535"/><ellipse cx="67" cy="117" fill="#898989" rx="3" ry="39"/><path d="M60 138h4v30h-4z"/><path fill="#818181" d="M168.4 248.9l13.6 10.5 24.9 6.7-31.1-40.5z"/><ellipse cx="109" cy="73" fill="#8c8c8c" rx="1" ry="49"/><ellipse cx="63" cy="20" fill="#5b5b5b" rx="1" ry="103"/><path fill="#fff" d="M155.6 59.3L154-16l10.7 9.9-3 71.7zM66 0h24v48H66z"/><path fill="#787878" d="M176.5 74.7l4.5-12.1-16.5-31.1.1 28.8z"/><ellipse cx="72" cy="205" fill="#333" rx="2" ry="107"/><ellipse cx="110" cy="139" fill="#777" rx="1" ry="49"/><path fill="#a7a7a7" d="M170.1 191.4l25.1-59.1-34.4 28.6 46.2-16z"/><path fill="#373737" d="M181 200h11v11h-11z"/><path fill="#1d1d1d" d="M102 62h7v32h-7z"/><path d="M85 240h4v16h-4z"/><ellipse cx="4" cy="181" fill="#545454" rx="4" ry="52"/><path fill="#e9e9e9" d="M174.2 171.5l15.6-23.5-22.3 18.9-3 6.4z"/><path fill="#747474" d="M112 66L90 0l22-12z"/><ellipse cx="39" cy="122" fill="#5d5d5d" rx="4" ry="89"/><circle r="1" fill="#131313" transform="matrix(-2.00524 -57.42257 .9994 -.0349 64.1 218)"/><path fill="#ddd" d="M191.9 37.4l-14.5 60.2 8.8 14.8 5.1-30z"/><ellipse cx="8" cy="47" rx="1" ry="136"/><ellipse cx="10" cy="231" rx="1" ry="38"/><path fill="#888" d="M129 182h30v28h-30z"/><ellipse cx="122" cy="94" fill="#5f5f5f" rx="1" ry="63"/><path fill="#a9a9a9" d="M140 40h17v83h-17z"/><path fill="#7f7f7f" d="M167 172h4v39h-4z"/><ellipse cx="35" cy="167" fill="#030303" rx="1" ry="55"/><path fill="#151515" d="M126 37h3v38h-3z"/><ellipse cx="29" cy="147" fill="#5f5f5f" rx="5" ry="82"/></g></g></svg>