<svg xmlns="http://www.w3.org/2000/svg" viewBox="0 0 1200 900"><defs/><filter id="a"><feGaussianBlur stdDeviation="12"/></filter><rect width="100%" height="100%" fill="#394525"/><g filter="url(#a)"><g fill-opacity=".5" transform="translate(2.3 2.3) scale(4.6875)"><circle r="1" fill="#d7ebff" transform="rotate(75.6 35.6 97) scale(114.17377 219.43168)"/><circle r="1" fill="#0d1000" transform="matrix(-183.63101 -1.282 .11595 -16.60835 114.5 92.4)"/><circle r="1" fill="#bfe2ff" transform="matrix(-4.90195 51.85722 -243.64284 -23.03103 174.4 23.3)"/><circle r="1" fill="#a09c38" transform="matrix(9.63084 57.5516 -187.17598 31.32252 143.3 161.3)"/><path fill="#161e00" d="M62 66h68v43H62z"/><circle cx="223" cy="33" r="46" fill="#d6e3ff"/><path fill="#84a5f8" d="M-16-9l282-7L33 84z"/><circle r="1" fill="#1e2c00" transform="rotate(154.3 -7.6 34.3) scale(18.75949 28.71371)"/><circle r="1" fill="#eff2bd" transform="matrix(-.10112 -4.45593 29.04176 -.65905 18.7 102.4)"/><path fill="#565c16" d="M108 132l-82 35 158-22z"/><path fill="#b8bbc5" d="M155 97h27v45h-27z"/><circle r="1" fill="#bcd4ee" transform="matrix(-8.72971 20.56592 -19.67802 -8.35282 43.2 62.2)"/><circle r="1" fill="#cccbe4" transform="rotate(-100.4 86.7 49.6) scale(5.88043 66.48709)"/><ellipse cx="196" cy="50" fill="#c3d6fc" rx="93" ry="29"/><path fill="#737b2c" d="M204 99l-61 22 128 34z"/><path fill="#00000b" d="M98 96h58v14H98z"/><circle r="1" fill="#898c40" transform="matrix(.62828 19.63416 -59.36594 1.89966 24.6 124.7)"/><path fill="#040d00" d="M79 60l7 49-50-15z"/><ellipse cx="225" cy="90" fill="#010f00" rx="55" ry="7"/><path fill="#dfdefe" d="M154.8 112l1.8 5.7L77.2 142l-1.8-5.7z"/><path fill="#606921" d="M86 60v38l83-14z"/><path fill="#feffff" d="M150 132h31v9h-31z"/><path fill="#dad8e0" d="M155 94l36 1-32 12z"/><path fill="#def0fa" d="M169.5 68.6l7.8-15.1 31.2 15.9-7.8 15.1z"/><path fill="#cacff7" d="M61 132.7l-77.4 9.5-.6-5 77.4-9.4z"/><path fill="#7698d6" d="M-12.5 48.4L-25-2.1l145.6-36.3L133 12.1z"/><path fill="#ddddfc" d="M175 147l20-31-25 21z"/><path fill="#475119" d="M135.4 90.4l13.2-18 47.5 7.8-44.2 17.6z"/><path fill="#1c1b4d" d="M186.4 108.4l-9.4 22.7 29.2-28.7-12.3 4.5z"/><path fill="#737822" d="M-6.4 162l127.6-24.7 3.2 16.6-127.6 24.8z"/><path fill="#9ab6e5" d="M112 66L-16 40 271-5z"/><path fill="#515d07" d="M-11.6 150.1l-.8-5 84-13.2.8 5z"/><path fill="#3b4900" d="M-15.1 82l2.3-34 30 2-2.4 34z"/><path fill="#0e1d31" d="M149 148l21-7-30-2z"/><ellipse cx="40" cy="76" fill="#c8daed" rx="19" ry="6"/><path fill="#f4fbfe" d="M233.1 82.9L226 64.2l29-11 7.2 18.6z"/><circle r="1" fill="#888f30" transform="matrix(-4.26444 -15.17124 68.20468 -19.17147 245 127.2)"/><path fill="#fff" d="M220 111h15v4h-15z"/><circle r="1" fill="#64741a" transform="matrix(42.53739 -10.01141 .6325 2.68746 98.4 124.5)"/><path fill="#313d13" d="M13.1 95l16.8-27.9-22.2 4.3 74.9 32.2z"/><path fill="#797c34" d="M95.6 140.2l70.1-27.6L82.1 207-16 171.4z"/><path fill="#37441a" d="M53.9 89l41.4-14.9 13.9-10.3-43.2-.5z"/><path fill="#091217" d="M101.3 106.6L62.4 67.5l-2.8 18-15 22.3z"/><path fill="#333f29" d="M239.5 77l15 20 16.5-1-8.1-16.6z"/><path fill="#e6e8ee" d="M189 121l17-19-8 16z"/><ellipse cx="103" cy="109" fill="#808d26" rx="57" ry="2"/><path fill="#212d1e" d="M134.8 86.8l66.2-2.5 30.5-9.3-15.2 21z"/><path fill="#4f566a" d="M187.4 123.3L174.2 134l-7.6-9.3 13.2-10.7z"/><circle r="1" fill="#c8cceb" transform="matrix(82.74874 -7.33684 .08832 .9961 38.5 123)"/><ellipse cx="226" cy="65" fill="#cfe1f0" rx="105" ry="12"/><path fill="#6c751f" d="M12 125h55v5H12z"/><path fill="#58612c" d="M93.7 96.1L79.3 64.6l57.2 8.3 33 21.9z"/><path fill="#afc7e9" d="M208.1 63.5L75.8 45.3 22.1 75.4l57.2-12.7z"/><circle r="1" fill="#d2d4d9" transform="matrix(-28.2744 8.99964 -.4699 -1.47632 159 112.5)"/><ellipse cx="140" cy="190" fill="#515f09" rx="26" ry="12"/><path fill="#cccdd8" d="M33.8 153l-36.6 6.9 1.4-10.9 91.2-10.7z"/><path fill="#71790b" d="M-20 136.6l-.7-6 50.7-5.2.7 6z"/><path fill="#13210c" d="M179.3 93.5l-5.2-16.2 8.6-2.8 5.2 16.2z"/><path fill="#e3e7e4" d="M5 99.8v-1l42 1.4v1z"/><circle r="1" fill="#adc4e9" transform="rotate(-44.8 124.8 -219) scale(72.02491 18.82659)"/><path fill="#7e8148" d="M111 142l80.7 6.8-55.7 4.4-21.8-11.6z"/><path fill="#404c0e" d="M0 84h35v15H0z"/><path fill="#e0e4fc" d="M158 129h17v8h-17z"/><path fill="#000617" d="M156 107l-31-1 30-8z"/><ellipse cx="250" cy="135" fill="#828927" rx="15" ry="40"/><path fill="#dbe9f2" d="M188.9 78.7l75.7-6.6-65.7-9.5 3.7 20.4z"/><path fill="#7a8f62" d="M11.5 65.4l6.6-16.3 2.1 18.6 7.7 20.4z"/><path fill="#030314" d="M165 125h8v4h-8z"/><ellipse cx="49" cy="95" fill="#5f6452" rx="95" ry="1"/><circle r="1" fill="#898e3f" transform="rotate(-118.6 118.6 10) scale(4.782 21.57948)"/><path fill="#7e8136" d="M177 145l37-49 5 80z"/><circle r="1" fill="#686e0c" transform="matrix(-33.72081 -6.35214 2.1879 -11.61467 242.7 191)"/><path fill="#d2d7e1" d="M6 103h32v3H6z"/><circle r="1" fill="#6d763d" transform="matrix(-.28703 5.10126 -8.80352 -.49535 157.2 78.2)"/><path fill="#aec4e4" d="M55 45l1 37-33-4z"/><path fill="#d8e6f7" d="M211 49l25 33 35-36z"/><ellipse cx="177" cy="130" fill="#000002" rx="3" ry="2"/><circle r="1" fill="#8faddf" transform="matrix(77.52197 -17.5151 4.1287 18.27362 87 28.4)"/><path fill="#5a650e" d="M47.3 104l.3 3.9-24.9 2.2-.3-4z"/><path fill="#d6d8e2" d="M-23.1 140.6l-.2-2 74.4-9.2.2 2z"/><circle r="1" fill="#c0c1c4" transform="matrix(35.45303 -7.92469 .57502 2.5725 93.1 133)"/><path fill="#b1b4ae" d="M-16 120v-1.5l88-3.5-75.7 6.2z"/><path fill="#dbdef2" d="M154.8 131.7l20.2 7.2-24.6.7-7.3.1z"/><path fill="#737a62" d="M233.2 112.1l5.1 10.6 4.3-21.7-42.3 1.8z"/><path fill="#828503" d="M74 111h19v2H74z"/><ellipse cy="121" fill="#787e13" rx="30" ry="2"/><path fill="#727c2d" d="M69.1 123.1L132 117l-74.5 23.4-3.1-.4z"/><path fill="#57652d" d="M200.3 88.6l-9.8 6 71.7 8.1-80.4-3.1z"/><path fill="#6e7b1f" d="M127 110h27v4h-27z"/><path fill="#a8c1e5" d="M14.2 65.7l144.9-9.2-144.4-.4 21.4-12.3z"/><path fill="#cbcec3" d="M172.9 139.1l36.4-38.4-23.1 31.4-12.4 14.7z"/><path fill="#b2cbe5" d="M136.4 52.8L109 69.9l-6.4-14.3 38.1 19.7z"/><circle r="1" fill="#bacdef" transform="rotate(136.4 113.2 56) scale(73.87608 15.91217)"/><path fill="#4b5a40" d="M215.4 78.1l27.1 9.5-17.9-12.9-6.7 11.9z"/><path fill="#06080a" d="M184 110h11v5h-11z"/><ellipse cy="1" fill="#7799d3" rx="93" ry="15"/><path fill="#4b5c42" d="M78 63.8L59.6 83.6 56 80.2l18.4-19.8z"/><ellipse cx="98" cy="101" fill="#121c22" rx="50" ry="6"/><path fill="#1e2a10" d="M25 86h33v12H25z"/><circle r="1" fill="#787b37" transform="matrix(-12.58526 -2.40077 .92437 -4.8457 112.4 90.6)"/></g></g></svg>