<svg xmlns="http://www.w3.org/2000/svg" viewBox="0 0 1200 454"><defs/><filter id="prefix__a"><feGaussianBlur stdDeviation="12"/></filter><rect width="100%" height="100%" fill="#605f64"/><g filter="url(#prefix__a)"><g transform="translate(2.3 2.3) scale(4.6875)"><circle cx="122" cy="62" r="150" fill="#fff" fill-opacity=".5"/><circle cx="130" cy="29" r="145" fill="#fff" fill-opacity=".5"/><circle r="1" fill="#fff" fill-opacity=".5" transform="matrix(-62.92848 -160.02698 183.33192 -72.09283 71.5 44.8)"/><path fill="#aaaeb8" fill-opacity=".5" d="M129 22h46v32h-46z"/><circle r="1" fill="#fff" fill-opacity=".5" transform="matrix(-51.4523 6.92092 -3.55056 -26.39593 169.6 86.4)"/><circle r="1" fill="#fbfdfe" fill-opacity=".5" transform="matrix(-7.8348 51.39197 -110.5665 -16.85607 18.3 7.8)"/><path fill="#aeafba" fill-opacity=".5" d="M125.8 78.7l-4.9-3-17-11 59-38.6z"/><path fill="#b6bac2" fill-opacity=".5" d="M232.4-.5l-.6 71L132.7 39l91.4 12.1z"/><path fill="#808183" fill-opacity=".5" d="M143 23l-6-16-9 2z"/><circle r="1" fill="#fbffff" fill-opacity=".5" transform="matrix(18.64607 -13.8478 11.40804 15.36094 207 28.8)"/><circle r="1" fill="#d4d4dc" fill-opacity=".5" transform="matrix(-34.07057 -5.78807 .96408 -5.67491 74.2 25.7)"/><ellipse cy="90" fill="#fff" fill-opacity=".5" rx="62" ry="11"/><ellipse cx="132" cy="29" fill="#908f92" fill-opacity=".5" rx="2" ry="22"/><path fill="#f8ffff" fill-opacity=".5" d="M97.2 111h122.2l.1-28.9-68.8-35.9z"/><circle r="1" fill="#959498" fill-opacity=".5" transform="rotate(100 73 102.9) scale(1 45.89641)"/><circle r="1" fill="#f8fbfa" fill-opacity=".5" transform="rotate(-133.7 75.9 -29.7) scale(27.88174 13.05345)"/><path fill="#cacbd2" fill-opacity=".5" d="M237.4 6.7l13.2 77 7.5-20.3L245 35.7z"/><path fill="#fff" fill-opacity=".5" d="M139.4 24.5l.2 17h-5l-.2-17z"/><ellipse cx="61" cy="70" fill="#dcdcec" fill-opacity=".5" rx="64" ry="9"/><path fill="#eef2f8" fill-opacity=".5" d="M174 48l46 8-54 5z"/><path fill="#d6d8da" fill-opacity=".5" d="M225-8l-61 49 1-24z"/><path fill="#b8b7bd" fill-opacity=".5" d="M224 55h7v28h-7z"/><ellipse cx="23" cy="48" fill="#fdffff" fill-opacity=".5" rx="31" ry="18"/><path fill="#f4ffff" fill-opacity=".5" d="M74 96l41-26 28 41z"/><circle r="1" fill="#fff" fill-opacity=".5" transform="matrix(-4.02204 .49384 -4.37366 -35.62062 244.3 77.3)"/><path fill="#dedee2" fill-opacity=".5" d="M88 14h48v11H88z"/><path fill="#babac3" fill-opacity=".5" d="M120 70l-9-18 21-8z"/><circle r="1" fill="#959594" fill-opacity=".5" transform="matrix(1.18066 -.4749 6.07317 15.0988 143 28.4)"/><path fill="#d1d3de" fill-opacity=".5" d="M206.7 62.7l-29.8-13.5-29.3-5.2-8 4.9z"/><path fill="#fbffff" fill-opacity=".5" d="M209 3h16v48h-16z"/><circle r="1" fill="#fff" fill-opacity=".5" transform="matrix(-6.66175 -32.28008 8.7571 -1.80723 255 7)"/><path fill="#bcc1cd" fill-opacity=".5" d="M181.5 44.7l-47.2-31.9 63.8 35.3 18.7 6.1z"/><path fill="#fdfefc" fill-opacity=".5" d="M200.7 3l-55.3.8-87 19.1L17.3-16z"/><path fill="#f6fefe" fill-opacity=".5" d="M240.5-14.6l-39.3 47.2-41.8 7.3 5.2-3z"/><path fill="#c0c0c9" fill-opacity=".5" d="M59 77l11-14-7 24z"/><path fill="#a1a1a5" fill-opacity=".5" d="M132 14l-1 9-3-13z"/><path fill="#dbdfe3" fill-opacity=".5" d="M219 66h20v30h-20z"/><path fill="#fafaff" fill-opacity=".5" d="M143.6 38l-4.7 1.8-6.5-17.9 4.7-1.7z"/><ellipse cx="133" cy="39" fill="#8d8e8f" fill-opacity=".5" rx="2" ry="11"/><path fill="#e7ebf4" fill-opacity=".5" d="M108.5 90.2L141 51l-33.9 28.5 16.8-11.3z"/><path fill="#a3a3a4" fill-opacity=".5" d="M125 54l12-4 10-17z"/><path fill="#dcdce1" fill-opacity=".5" d="M24.6 10.5l69.6 16.7-76.5-3.1L37.2 16z"/><path fill="#b0aeb8" fill-opacity=".5" d="M222.3 65.8l-31-7.7.4-2 31 7.8z"/><circle r="1" fill="#f0f7fe" fill-opacity=".5" transform="matrix(.25227 -1.24267 41.04278 8.33192 189.1 53.1)"/><path fill="#b5b7bd" fill-opacity=".5" d="M237-32.5L222 88.6l-1-.1 15-121.1z"/><path fill="#fdfefc" fill-opacity=".5" d="M192-16l-45 41 92-41z"/><path fill="#f5fbf9" fill-opacity=".5" d="M236 65.2l-1.1-10.3-40.9-7.7 26-21z"/><path fill="#9c9ba0" fill-opacity=".5" d="M226.6 55.2l5.3 2.7-4.5 9-5.3-2.8z"/><path fill="#c5c7cb" fill-opacity=".5" d="M271 83.3l-19.9 9.5-3.7-18.7 14.6 26.4z"/><path fill="#fbfefb" fill-opacity=".5" d="M174.8 111l26.7-48.7-64.3-12 3.8-2z"/><path fill="#f6f9f8" fill-opacity=".5" d="M101 37l32 5-7-31z"/><path fill="#eaebf3" fill-opacity=".5" d="M106.5 61.5h-69v-13h69z"/><path fill="#a1a1a6" fill-opacity=".5" d="M231 42l-1-11-3 11z"/><path fill="#fff" fill-opacity=".5" d="M252.9 94L271 82.6 239.8 111V67zM-14 84l55 27-7-30z"/><path fill="#c5c5ca" fill-opacity=".5" d="M136.9 56.2l78.4-54.5-81.5 48.9 32-22.5z"/><circle r="1" fill="#f4f4f4" fill-opacity=".5" transform="rotate(151.5 80.8 33) scale(16.26162 1)"/><path fill="#9fa0a0" fill-opacity=".5" d="M144 34h16v4h-16z"/><path fill="#e3ecf7" fill-opacity=".5" d="M183.5 38.3v2l-35-.6v-2z"/><path fill="#fdfffd" fill-opacity=".5" d="M101.9 6.4l-95.1 7-22 6.3L18.5-16z"/><path fill="#d6d6df" fill-opacity=".5" d="M118 65l-28 9 36-35z"/><path fill="#fbfefd" fill-opacity=".5" d="M82.4 36.3l38.3-7.9-24.4 26.1-37.9-14.7z"/><circle cx="173" cy="39" r="6" fill="#d3dceb" fill-opacity=".5"/><path fill="#c8c7ce" fill-opacity=".5" d="M256 58l-11-23v20z"/><path fill="#b9bbc5" fill-opacity=".5" d="M119.5 66.5l9.4 7.6-4.4 5.4-9.4-7.6z"/><path fill="#d9dae1" fill-opacity=".5" d="M43.5 64.8l-3.7 38.1-2.5-22.6-8.5-1.5z"/><circle r="1" fill="#ebecf5" fill-opacity=".5" transform="matrix(2.16874 1.4409 -4.35074 6.5484 126.2 65.5)"/><circle r="1" fill="#b8b6ba" fill-opacity=".5" transform="matrix(-.5086 .861 -20.49532 -12.10678 150.5 23)"/><path fill="#e0e0e5" fill-opacity=".5" d="M135.4 6.8L90.6 35.2l31.1-8.8-61.3.7z"/><path fill="#edeef2" fill-opacity=".5" d="M95.7 67.6l31.9-36.8-64.3 47.6 1.9 21.4z"/><path fill="#fff" fill-opacity=".5" d="M231.5 17.4l11.3 43.5-5.2-39.9-3.6-5.5z"/><path fill="#acadb1" fill-opacity=".5" d="M142.6 39.8l12.9 11.3-22.2-6.7 34.7.3z"/><path fill="#9b9aa0" fill-opacity=".5" d="M181.6 47.5l.6-2 16.2 5-.6 2z"/><path fill="#dff1f6" fill-opacity=".5" d="M230.1 20.5L225.5 51l-4-67h7.6z"/><path fill="#d6d9e0" fill-opacity=".5" d="M73.8 92.3l51.1-29.5L50.4 111h-63.9z"/><path fill="#afafb4" fill-opacity=".5" d="M155.1 32.2l16.3-7.3-71.5 41.3 34.2-15.4z"/><path fill="#f2f5fc" fill-opacity=".5" d="M211 57h15v4h-15z"/><path fill="#bfc1c8" fill-opacity=".5" d="M239 31h9v4h-9z"/><path fill="#fff" fill-opacity=".5" d="M-16 25l50 46-6-31z"/><path fill="#f1f1f2" fill-opacity=".5" d="M226 68v16l10-31z"/><path fill="#f4f5f5" fill-opacity=".5" d="M103.8 16.3l-49.7 8.6L134.7-16l-30.5 45.9z"/><path fill="#d2d1da" fill-opacity=".5" d="M56.7 72.3l7.1 3.9 13.7-8.8-11.8-5.5z"/><path fill="#bfbec8" fill-opacity=".5" d="M223 64.4l-74.3-15.8.2-1 74.4 15.8z"/><path fill="#9e9da2" fill-opacity=".5" d="M230.8 57.1l-.6 2-19-6.2.6-2z"/><path fill="#d2d2d5" fill-opacity=".5" d="M39 20l10 1L28 8z"/><circle cx="140" cy="48" r="2" fill="#fff" fill-opacity=".5"/><path fill="#e6ebf2" fill-opacity=".5" d="M122.4 80.9l-16-17.3L131 86.7 151.4 44z"/><path fill="#cccacf" fill-opacity=".5" d="M157.9 26.1l17.3-11.3-.7 5.1-26.5 8.4z"/><path fill="#e9ebf2" fill-opacity=".5" d="M172.7 44l-30-23.3.6-.8 30 23.4z"/><path fill="#cbccd0" fill-opacity=".5" d="M117 9h2v16h-2z"/><path fill="none" stroke="#bcbbbf" stroke-opacity=".5" stroke-width=".5" d="M226 60.3q4.7 29.7 3.3 45"/><path fill="#cdcbd4" fill-opacity=".5" d="M77.3 27.8l-11-.6.4-7 11 .6z"/><path fill="#a4a4a7" fill-opacity=".5" d="M134.6 45.8l-2 .2-3.2-35.8 2-.2z"/><path fill="#8f8e92" fill-opacity=".5" d="M220 62h6v3h-6z"/><circle cx="152" cy="38" r="3" fill="#f0f0f3" fill-opacity=".5"/><path fill="#ededf4" fill-opacity=".5" d="M42.3 55.4L34 73.6-6.6 60l73.5 5.7z"/><path fill="#efeff1" fill-opacity=".5" d="M12.9 33.8l59-5.6-78.3-11.6 3.9 14.6z"/><circle r="1" fill="#d1d2d1" fill-opacity=".5" transform="rotate(-5.8 160.5 -2325.7) scale(1 14.82787)"/><circle r="1" fill="#a8a8aa" fill-opacity=".5" transform="matrix(.8789 1.5265 -7.01205 4.03727 157.7 32.8)"/><path fill="#fff" fill-opacity=".5" d="M175 6l-27 10 9 8z"/></g></g></svg>