<svg xmlns="http://www.w3.org/2000/svg" viewBox="0 0 951 1200"><defs/><filter id="a"><feGaussianBlur stdDeviation="12"/></filter><rect width="100%" height="100%" fill="#444"/><g filter="url(#a)"><g fill-opacity=".5" transform="translate(2.3 2.3) scale(4.6875)"><circle r="1" fill="#fff" transform="rotate(-20.6 265.4 -435.6) scale(188.02106 71.63503)"/><path fill="#ececec" d="M61 40l69 187-49 44z"/><circle r="1" fill="#fff" transform="matrix(-48.7727 -21.20697 27.51018 -63.2691 175.5 16)"/><ellipse cx="31" cy="226" fill="#0d0d0d" rx="31" ry="95"/><circle r="1" fill="#e3e3e3" transform="matrix(-57.34912 -8.36128 4.47829 -30.7161 50.5 96)"/><ellipse cx="161" cy="155" fill="#717171" rx="75" ry="31"/><circle r="1" transform="matrix(19.95889 -18.87418 51.89635 54.87885 194.7 247.8)"/><path fill="#dbdbdb" d="M159 190l4-45-38-8z"/><circle r="1" fill="#626262" transform="matrix(-9.76293 -2.44205 12.4378 -49.7243 26.6 152.5)"/><ellipse cx="115" cy="60" fill="#4f4f4f" rx="8" ry="141"/><circle r="1" fill="#b8b8b8" transform="matrix(10.06463 18.22914 -32.15837 17.7552 86.8 209.7)"/><path fill="#fff" d="M139 93h13v41h-13z"/><path fill="#2d2d2d" d="M188 148l-39 62 35-132z"/><path fill="#e9e9e9" d="M48 162l-9-98 69-52z"/><circle r="1" transform="rotate(-125.3 40.4 8.5) scale(2.19093 53.97618)"/><circle r="1" transform="rotate(85.5 -118.2 123) scale(40.20198 23.865)"/><path fill="#fff" d="M24 155h7v23h-7z"/><circle r="1" fill="#fff" transform="rotate(57.2 13.6 226.3) scale(10.8564 12.71438)"/><ellipse cx="162" cy="137" fill="#010101" rx="29" ry="4"/><path fill="#1f1f1f" d="M173 92l27-16-63 12z"/><path fill="#fff" d="M160 89h19v18h-19z"/><ellipse cx="104" cy="240" fill="#686868" rx="57" ry="18"/><path fill="#191919" d="M31 108h12v148H31z"/><path fill="#d6d6d6" d="M85 175h22v58H85z"/><path fill="#ddd" d="M120 23l97 35-90 34z"/><path d="M-8 30.5L-30.7.2 9.9-30.5 32.8-.2z"/><path fill="#dfdfdf" d="M77.1 97.1l24.1 49 5.9-1.2 2.7-51.7z"/><path fill="#c1c1c1" d="M0 76h32v65H0z"/><path fill="#696969" d="M142 224l-21 21-15-82z"/><path fill="#e8e8e8" d="M48 135h5v35h-5z"/><path fill="#0d0d0d" d="M154 107h4v33h-4z"/><path fill="#020202" d="M135 88h3v45h-3z"/><ellipse cx="128" cy="104" fill="#ddd" rx="5" ry="42"/><circle r="1" transform="matrix(-12.70269 -3.32893 12.5708 -47.96825 201 225)"/><path fill="#282828" d="M18 145.1l6.7-15.5-1.5 26.2-31-18z"/><path fill="#cdcdcd" d="M72.2 37.4L-16 106.7 106.9 73l-2.5-54z"/><path fill="#525252" d="M68.5 164l16 5.5-27 78.5-16-5.5z"/><path fill="#616161" d="M132 25l9-4-9-29z"/><path fill="#1a1a1a" d="M114.5 165.9l32.6 2.8-19.1 36.4-.2-34.9z"/><path fill="#303030" d="M182.2 112.1l-8.3-33.5L217 75l-30.1 8.6z"/><path fill="#aaa" d="M156 105h24v31h-24z"/><path fill="#a6a6a6" d="M115 105h7v73h-7z"/><path fill="#2e2e2e" d="M79.4 86.4l26.6-8.7.6 2L80 88.2z"/><circle r="1" fill="#525252" transform="matrix(8.5939 16.50872 -58.89222 30.65735 18.4 50.9)"/><ellipse cx="111" cy="50" fill="#343434" rx="3" ry="64"/><path fill="#bababa" d="M-3 156l1 23 12-21z"/><path fill="#1b1b1b" d="M11.3 80.6L136.8-8.7l-5.1-2.1-22 12.5z"/><path fill="#404040" d="M8 98l3 20 5-20z"/><path fill="#4e4e4e" d="M67 122l9 70-15-33z"/><path fill="#aeaeae" d="M160.4 142.6l-36.5-4.5 6.9 30.3 30.9-5z"/><path fill="#fff" d="M160 115l14-29-18 6z"/><path fill="#4a4a4a" d="M103 143h32v26h-32z"/><path fill="#161616" d="M197.3 139.3l-.7 13-32-1.6.8-13z"/><path fill="#141414" d="M52 156l21 11-15 29z"/><path fill="#757575" d="M186 139.6l5.5-31.5 24.6 4.3-5.6 31.5z"/><circle r="1" fill="#212121" transform="matrix(1.41114 26.60408 -1.48961 .07901 124 151.4)"/><path fill="#fff" d="M138 92h15v24h-15z"/><path d="M32 110h3v96h-3z"/><path fill="#585858" d="M35 139h13v36H35z"/><ellipse cx="153" cy="4" fill="#4d4d4d" rx="2" ry="12"/><circle r="1" fill="#dfdfdf" transform="matrix(-40.61779 -18.78553 26.13793 -56.51505 201 17)"/><path fill="#727272" d="M182 151h10v59h-10z"/><path d="M1 198h22v58H1z"/><path fill="#888" d="M65.7 191l-.6 20.2 11.8 33.6 18.7-100.9z"/><path fill="#b8b8b8" d="M1.8 67.9l-17.2 92.7L20 133.2l-.7 13.6z"/><circle r="1" fill="#fff" transform="matrix(4.86752 -9.11579 5.14319 2.74629 143.4 8.8)"/><ellipse cx="29" cy="151" fill="#b0b0b0" rx="3" ry="21"/><path fill="#919191" d="M80 70l21 21-21 4z"/><path fill="#d7d7d7" d="M84.5 80.7l-26.1 37-51-23.9 40.2-38.5z"/><ellipse cx="122" cy="25" fill="#9d9d9d" rx="2" ry="85"/><path fill="#050505" d="M35 168l-18 54 41-35z"/><path d="M142 170h4v23h-4z"/><path fill="#575757" d="M135.4 24.8l-2.3-2.4 20.7-9.9-2.1 3.8z"/><path fill="#979797" d="M111 259l7-37-48-13z"/><path fill="#fff" d="M106.6 112.2l-18.7 3.3-2.5-13.7 18.7-3.3z"/><path fill="#e5e5e5" d="M48 123h13v32H48z"/><path fill="#fff" d="M186.8 85.5l18.5-4.6 3.9 15.6-18.5 4.6z"/><path fill="#303030" d="M120.1 11.8L-16 16.3 97.4-16l11.1 43.3z"/><path fill="#8e8e8e" d="M147 156h14v32h-14z"/><path fill="#d4d4d4" d="M126 90l-1-58 92 38z"/><path fill="#6e6e6e" d="M191.9 175.9l14.4-5.3-32.5-28.9-2.5 14.3z"/><path fill="#4a4a4a" d="M39.3 202.1L57.9 271l106.7-20.1-72 2.3z"/><path fill="#fff" d="M84 104h2v66h-2z"/><path fill="gray" d="M15.9 171.3l6.5 32.8-5.6-47 3.5-.5z"/><path fill="#202020" d="M119.7 94.3L174 80.7l.3 1L120 95.3z"/><circle r="1" fill="#6d6d6d" transform="matrix(1.99774 .15021 -1.68962 22.47127 90.6 154.8)"/><path fill="#cfcfcf" d="M133.2 4.5l6.9-18.7-26 24.4 89-26.2z"/><path fill="#9b9b9b" d="M115 84h6v94h-6z"/><path fill="#373737" d="M152 196.4l9.5.6 12-28.7 24.4 33.9z"/><path fill="#0d0d0d" d="M181 121h5v29h-5z"/><path fill="#8a8a8a" d="M135 183l8-11-5 23z"/><path fill="#030303" d="M176.8 224.4L150.2 271H174l-19.7-48.9z"/><path fill="#b3b3b3" d="M137.5 166.8l25-24.8-33.7 15.6-5.1-29.4z"/><path fill="#2a2a2a" d="M104 152l17 17-21-7z"/><path fill="#cbcbcb" d="M207.7 132.7l-11.7 2.5-1.7-7.9 11.7-2.5z"/><path fill="#4a4a4a" d="M154 91h4v44h-4z"/><path fill="#3a3a3a" d="M5.2 147.1l1.5-5.2L44 153.3l-60 3z"/><path fill="#cbcbcb" d="M125 35h8v106h-8z"/><path fill="#adadad" d="M99.7 134.9l-19.1 63 24.3-30.9L88 135.6z"/><path fill="#414141" d="M140.8 271l-2.2-77.8 17.9 18.4-50.4 56.7z"/></g></g></svg>