<svg xmlns="http://www.w3.org/2000/svg" viewBox="0 0 1200 459"><defs/><filter id="prefix__a"><feGaussianBlur stdDeviation="12"/></filter><rect width="100%" height="100%" fill="#504037"/><g filter="url(#prefix__a)"><g transform="translate(2.3 2.3) scale(4.6875)"><circle cx="126" cy="83" r="173" fill="#fff" fill-opacity=".5"/><ellipse cx="37" cy="13" fill="#fff" fill-opacity=".5" rx="252" ry="61"/><circle r="1" fill="#fff" fill-opacity=".5" transform="matrix(-3.00542 -26.25435 251.70777 -28.81378 125 10)"/><ellipse cx="27" cy="65" fill="#8f8055" fill-opacity=".5" rx="16" ry="30"/><path fill="#fff" fill-opacity=".5" d="M247 0h9v95h-9z"/><circle r="1" fill="#ac9778" fill-opacity=".5" transform="rotate(-18.7 295.3 -509.6) scale(46.82931 43.0227)"/><path fill="#fff" fill-opacity=".5" d="M154.2 52.4l-103 8.8-66.4-73.3 157.7-.4z"/><path fill="#fff" fill-opacity=".5" d="M0 0h9v97H0z"/><ellipse cx="188" cy="8" fill="#fff" fill-opacity=".5" rx="255" ry="18"/><ellipse cx="98" cy="96" fill="#ffe6ab" fill-opacity=".5" rx="67" ry="6"/><path fill="#71624f" fill-opacity=".5" d="M158.5 52.5l1.9 20.9-25 2.1-1.8-20.9z"/><ellipse cx="67" cy="67" fill="#fffffe" fill-opacity=".5" rx="23" ry="10"/><path fill="#c5b9a7" fill-opacity=".5" d="M153 28h94v38h-94z"/><path fill="#fff" fill-opacity=".5" d="M247 17h9v70h-9z"/><path fill="#807560" fill-opacity=".5" d="M206 49h19v46h-19z"/><path fill="#7c684a" fill-opacity=".5" d="M153 25h12v16h-12z"/><circle r="1" fill="#dfd5ca" fill-opacity=".5" transform="rotate(-63 132.8 -127.5) scale(13.58422 25.71601)"/><path fill="#634117" fill-opacity=".5" d="M58 55h2v35h-2z"/><path fill="#938673" fill-opacity=".5" d="M111.1 87.7L109.5 63l.3-12.4L90 77.5z"/><ellipse cx="28" cy="45" fill="#a3977d" fill-opacity=".5" rx="7" ry="16"/><path fill="#8e816f" fill-opacity=".5" d="M112.9 84.5l40.8 12.7 9.4-23.1-4.1-23.8z"/><path fill="#9e9077" fill-opacity=".5" d="M193 28h51v7h-51z"/><circle r="1" fill="#dad0bc" fill-opacity=".5" transform="rotate(-69.1 108.8 -8.8) scale(59.13173 6.96023)"/><ellipse cx="1" cy="67" fill="#fff" fill-opacity=".5" rx="8" ry="26"/><circle r="1" fill="#a99d83" fill-opacity=".5" transform="rotate(166.7 8.4 41.7) scale(16.43905 34.6939)"/><ellipse cx="240" cy="7" fill="#fff" fill-opacity=".5" rx="91" ry="21"/><path fill="#fff" fill-opacity=".5" d="M8.7 56.3L37 17.1 1.5-16l-3.8 121.6z"/><path fill="#85755f" fill-opacity=".5" d="M114.1 48.6L125 11.1l1 .3-11 37.5z"/><path fill="#fff" fill-opacity=".5" d="M137 35h15v18h-15z"/><path fill="none" stroke="#927e68" stroke-opacity=".5" stroke-width=".5" d="M142.7 27.3q-28.3 52.3-57 84.7"/><path fill="#cbb6a1" fill-opacity=".5" d="M164 74h33v23h-33z"/><path fill="#fff" fill-opacity=".5" d="M45 0h11v75H45z"/><path fill="#f7f7f2" fill-opacity=".5" d="M122 68l-4-27 26 31z"/><ellipse cx="74" cy="77" fill="#65472f" fill-opacity=".5" rx="1" ry="16"/><path fill="#807864" fill-opacity=".5" d="M81.7 78.1l17.7-34.7.9.5-17.7 34.7z"/><path fill="#6d5633" fill-opacity=".5" d="M38 77h6v17h-6z"/><path fill="#958269" fill-opacity=".5" d="M135 66h103v10H135z"/><circle r="1" fill="#fff" fill-opacity=".5" transform="rotate(96.9 102 142) scale(29.24272 7.99836)"/><ellipse cx="209" cy="95" fill="#eac899" fill-opacity=".5" rx="204" ry="2"/><ellipse cx="208" cy="63" fill="#d0c9bc" fill-opacity=".5" rx="41" ry="3"/><path fill="#ada698" fill-opacity=".5" d="M53 53l13-7-5 16z"/><path fill="#a49583" fill-opacity=".5" d="M151.1-1.4l-7.2 27-1-.2 7.2-27z"/><path fill="#6d655a" fill-opacity=".5" d="M146 53h8v39h-8z"/><path fill="#a39275" fill-opacity=".5" d="M157 26h57v4h-57z"/><path fill="#726151" fill-opacity=".5" d="M201.8 75.5l19 1-.6 12-19-1z"/><path fill="#c3bdae" fill-opacity=".5" d="M116 58l5-13-38 11z"/><path fill="#ded4c7" fill-opacity=".5" d="M176 34h43v15h-43z"/><circle r="1" fill="#fff" fill-opacity=".5" transform="matrix(9.4641 -17.65048 35.03187 18.78393 64.2 23.8)"/><path fill="#afa58f" fill-opacity=".5" d="M46 67L30 27 1 112z"/><path fill="#91897e" fill-opacity=".5" d="M137.8 37.8l-21.6 29.9 27.2 14.7-34 1.5z"/><path fill="#fff" fill-opacity=".5" d="M46 72h36v4H46z"/><circle r="1" fill="#fff" fill-opacity=".5" transform="rotate(125.7 65.9 53.6) scale(49.12359 3.14086)"/><path fill="#e6e5db" fill-opacity=".5" d="M82.6 66.9l11 37.5-10.1-77.2-14.6 30.2z"/><path fill="#a58f69" fill-opacity=".5" d="M46 95l31-19-53-1z"/><path fill="#afa295" fill-opacity=".5" d="M133 72l16-13-3 36z"/><path fill="#a29587" fill-opacity=".5" d="M125.5 60l-17.7 18.3.4 10.8 44.1-81.5z"/><path fill="#fff" fill-opacity=".5" d="M51 69l12-85L16-4z"/><path fill="#bfb8af" fill-opacity=".5" d="M106.7 39.2l-1 .5-16.4-31 1-.4z"/><path fill="#bdab88" fill-opacity=".5" d="M219 68l8 34h44z"/><path fill="#fff" fill-opacity=".5" d="M151-16l120 44-112-5z"/><path fill="#e5c9a9" fill-opacity=".5" d="M68 87h41v10H68z"/><path fill="#beb9ad" fill-opacity=".5" d="M114 11l-3 8 5 12z"/><path fill="#fff" fill-opacity=".5" d="M76 29.3L70 74l-10.7-2.3 5.6-15.4z"/><path fill="#91887b" fill-opacity=".5" d="M104.8 81.5l-4-25.3 7.3 5.4-22.2 26z"/><path fill="#fff" fill-opacity=".5" d="M141.7 25.9l-16.6-8.2-8.1 47.5-1.1 3.7z"/><path fill="#938469" fill-opacity=".5" d="M75 57.5l-1 31h-1l1-31z"/><path fill="#5b5750" fill-opacity=".5" d="M128.9 86l-4.6-7.8 6.8-4.1 4.6 7.7z"/><path fill="#fff" fill-opacity=".5" d="M111 8L99 53l16-8z"/><path fill="#988774" fill-opacity=".5" d="M212.9 78.7l-14 12.5-30.3 4.2 54.3-3.1z"/><ellipse cx="58" cy="60" fill="#816a53" fill-opacity=".5" rx="2" ry="5"/><path fill="#c6c0ac" fill-opacity=".5" d="M247 67l-1-41-23 37z"/><path fill="#ada292" fill-opacity=".5" d="M115 32h3v21h-3z"/><circle cx="107" cy="67" r="4" fill="#f2f1ea" fill-opacity=".5"/><path fill="#a89e85" fill-opacity=".5" d="M9 56h35v20H9z"/><ellipse cx="180" cy="51" fill="#ae9c87" fill-opacity=".5" rx="26" ry="2"/><circle cx="152" cy="32" r="2" fill="#745a43" fill-opacity=".5"/><path fill="#786253" fill-opacity=".5" d="M110.3 85.8l-1 .1-3.6-29.7 1-.1z"/><path fill="#fff" fill-opacity=".5" d="M49.9 2L2.7 60.3-20 42l47.2-58.3z"/><path fill="#c3b199" fill-opacity=".5" d="M131.1 98.9l-7.5-17.6L87.7 112l14.2-33.4z"/><ellipse cx="216" cy="53" fill="#786f60" fill-opacity=".5" rx="8" ry="4"/><path fill="#9c958e" fill-opacity=".5" d="M94 70h43v8H94z"/><path fill="#d1c6ba" fill-opacity=".5" d="M174 49l-22 16 62-1z"/><path fill="#d8d6cb" fill-opacity=".5" d="M51.2 49.2l12.5-5.6 8.2-9.7-11.1 27.3z"/><path fill="#fff" fill-opacity=".5" d="M150 49l1-37-20 40z"/><path fill="#d5c099" fill-opacity=".5" d="M52.5 112L2 87.5l-18 17.3 62.9-13.4z"/><path fill="#8e7f70" fill-opacity=".5" d="M118.8 48l1 .2-4.6 43.7h-1z"/><path fill="#715c44" fill-opacity=".5" d="M133 55h21v4h-21z"/><path fill="#8f7f60" fill-opacity=".5" d="M243 66h-33l30 10z"/><path fill="#b3a590" fill-opacity=".5" d="M165 27h66v6h-66z"/><path fill="#f8fbf9" fill-opacity=".5" d="M83 77l9-3 7-16z"/><path fill="#feffff" fill-opacity=".5" d="M89 66l-13 5 4-27z"/><path fill="#fff" fill-opacity=".5" d="M137 33l-19 33V49z"/><path fill="#867764" fill-opacity=".5" d="M151 30l2.9-1 5 13-2.8 1z"/><path fill="#c6c2b5" fill-opacity=".5" d="M96.2 46.2l4.1.5-27.1 21.9 7.3-10.3z"/><path fill="#fff" fill-opacity=".5" d="M248 47h8v39h-8z"/><path fill="#785e44" fill-opacity=".5" d="M56.4 56.2l4 9.2-.8.4-4-9.2z"/><path fill="#9c907d" fill-opacity=".5" d="M116 55.5l-25.8 8-.3-1 25.9-8z"/><path fill="#bcb3a1" fill-opacity=".5" d="M244.6 44.5l-9.9-6-55.7-9.9 71.6 4.4z"/><path fill="none" stroke="#a59a8f" stroke-opacity=".5" stroke-width=".5" d="M101.2 33.5q7.8 19.2 1.1 33.6"/><path fill="#c0bdb1" fill-opacity=".5" d="M132.9 2.5l-13.2 22.3 19-40.8h-4.9z"/></g></g></svg>