<svg xmlns="http://www.w3.org/2000/svg" viewBox="0 0 1200 848"><defs/><filter id="a"><feGaussianBlur stdDeviation="12"/></filter><rect width="100%" height="100%" fill="#4c4c4c"/><g filter="url(#a)"><g fill-opacity=".5" transform="translate(2.3 2.3) scale(4.6875)"><ellipse cx="138" cy="88" fill="#fff" rx="100" ry="179"/><ellipse cx="118" cy="118" fill="#fff" rx="75" ry="179"/><path d="M92.8 7.5l1.4 42-31 1-1.4-42zM185 10h30v98h-30z"/><path fill="#fff" d="M0 91h182v15H0z"/><ellipse cx="221" cy="132" fill="#fff" rx="8" ry="179"/><circle r="1" fill="#fff" transform="matrix(-47.28402 -14.00617 25.34889 -85.5764 131.9 90.5)"/><path d="M61 157h24v23H61z"/><ellipse cx="186" cy="133" fill="#fff" rx="43" ry="24"/><path fill="#fff" d="M287 61.5h-72v-11h72z"/><path fill="#040404" d="M230 62h8v86h-8z"/><ellipse cx="43" cy="55" fill="#2d2d2d" rx="4" ry="172"/><ellipse cx="53" cy="55" fill="#fff" rx="7" ry="179"/><path fill="#070707" d="M188.4 189.1l27 5.9-.4-38.9-20.3 3.3z"/><path fill="#fff" d="M0 91h129v14H0z"/><path d="M72 177h120v3H72z"/><ellipse cx="222" cy="27" fill="#fff" rx="7" ry="179"/><ellipse cx="143" cy="41" fill="#fff" rx="43" ry="136"/><path fill="#fff" d="M50 49h69v106H50z"/><path fill="#0d0d0d" d="M113 8h103v2H113z"/><path fill="#fff" d="M212.3 7l17.1 16.9-1.2-30.2-72.8 11.7zM0 178h56v2H0zm188-64h41v41h-41z"/><path fill="#393939" d="M100.9 47.7L62 44.2l-2.2-32 25.4-4.6z"/><path fill="#fff" d="M250 62l-33-10 48-1zM57.2 9.9l-7.3 95.9L46-13.3l78.2 20.1z"/><path fill="#494949" d="M183 108l34.6 6.8-7.8-77.8 6 21.3z"/><ellipse cx="110" fill="#151515" rx="75" ry="1"/><path fill="#282828" d="M229 16h7v36h-7z"/><path fill="#fff" d="M0 92h40v13H0z"/><path fill="#636363" d="M127.8 167l3.4 28-9.2-39.9 9.6-.4z"/><ellipse cx="105" cy="170" fill="#1f1f1f" rx="2" ry="17"/><path d="M185 107h2v24h-2z"/><path fill="#464646" d="M197.2 25.4l-18.3 25.8 6.1 2.2 4.8 60.8z"/><path d="M149.5 155h1l-2 30h-1z"/><ellipse cx="153" cy="129" fill="#3d3d3d" rx="4" ry="5"/><path fill="#fff" d="M151 138h40v39h-40z"/><path fill="#0f0f0f" d="M87 83l2 6 9 1z"/><ellipse cx="222" cy="170" fill="#fff" rx="7" ry="179"/><path fill="#101010" d="M169 156h3v24h-3z"/><path fill="#454545" d="M39 99h7v71h-7z"/><path fill="#272727" d="M94 135l-5-9 5-1z"/><path fill="#727272" d="M166 71L-6 68v-1l172 3z"/><ellipse cx="54" cy="69" fill="#fff" rx="7" ry="179"/><path fill="#505050" d="M0 0h46v91H0z"/><path fill="#fff" d="M50 137h176v19H50z"/><path fill="#393939" d="M61 156h23v24H61z"/><circle r="1" fill="#fff" transform="matrix(7.53515 -14.61612 41.13651 21.20741 134.7 40)"/><ellipse cx="61" cy="67" fill="#383838" rx="1" ry="60"/><path d="M120 125h5v5h-5z"/><path fill="#4d4d4d" d="M202.2 89.9l-26.9-6.3 41.9 31.9.7-9.4z"/><path fill="#434343" d="M88 33h11v18H88z"/><ellipse cx="107" cy="9" fill="#1f1f1f" rx="46" ry="1"/><path fill="#3a3a3a" d="M203 175l7-20-22 1z"/><path fill="#525252" d="M229 107h27v73h-27z"/><path d="M181 126h7v4h-7z"/><path fill="#fff" d="M104 177l-19-4 7-44z"/><ellipse cx="240" cy="57" fill="#fff" rx="25" ry="4"/><path fill="#fff" d="M183.6 65.5L121.4 6.8 87.5 62.1l3.4 7.7z"/><path fill="#c9c9c9" d="M178.6 119.8l-15 1.3-2.2-24.9 15-1.3z"/><path fill="#fff" d="M212 4.3l16.4 39.9 1.7-60.2-78.7 24.9z"/><ellipse cx="136" cy="133" fill="#d3d3d3" rx="81" ry="4"/><path fill="#fff" d="M0 179h59v1H0z"/><path fill="#3a3a3a" d="M181 7h32v6h-32z"/><path fill="#fff" d="M226.5 173.8L192.8 128l-3.4-12.8 13.7-8.7zM25 104l-41-12 74-1zm68-93h65v22H93z"/><path fill="#fff" d="M155 12h30v34h-30z"/><path fill="#fcfcfc" d="M62 90h96v36H62z"/><path fill="#757575" d="M175 134h38v2h-38z"/><path fill="#515151" d="M214.5 6.3L190.4 80l-13.5 12.2 38.5-8.6z"/><ellipse cx="53" cy="178" fill="#fff" rx="7" ry="178"/><circle r="1" fill="#4b4b4b" transform="matrix(-7.4995 -.44558 .05931 -.99824 151.6 157.9)"/><path fill="#4c4c4c" d="M194 53l23 49-12 13z"/><path fill="#4a4a4a" d="M61 13h32v36H61z"/><circle cx="173" cy="157" r="2"/><path fill="#fff" d="M106 159h20v15h-20zM66 49h19v19H66z"/><path fill="#505050" d="M229 62h27v96h-27z"/><path fill="#fff" d="M191.7 107.9l34.8 14.6-58.5 17.4 14.1 35.9z"/><path fill="#141414" d="M128 200h-2v-42h2z"/><circle r="1" fill="#fff" transform="matrix(6.57198 -.15233 2.8967 124.97535 222.3 104.6)"/><path fill="#131313" d="M103 159l5-2-9-2z"/><path fill="#fbfbfb" d="M58 70h120v15H58z"/><path fill="#fff" d="M61 1h107v7H61z"/><path fill="#030303" d="M180 46h6v5h-6z"/><path fill="#4f4f4f" d="M0 0h47v90H0z"/><path fill="#6b6b6b" d="M165 118h20v2h-20z"/><path fill="#fff" d="M166 97h19v20h-19z"/><path fill="#494949" d="M206 98h11v17h-11z"/><path fill="#fff" d="M221 51h35v10h-35z"/><path d="M87.5 130.7l-.4-1 5.4-2.4.4 1z"/><path fill="#404040" d="M71 178h144v2H71z"/><path fill="#fff" d="M154 142h16v33h-16z"/><path fill="#505050" d="M230 0h21v51h-21z"/><ellipse cx="163" cy="95" fill="#afafaf" rx="2" ry="27"/><path fill="#fff" d="M95 46h85v21H95z"/><path fill="#5b5b5b" d="M65 135h29v1H65z"/><ellipse cx="133" cy="8" fill="#bbb" rx="47" ry="1"/><circle cx="168" cy="157" r="2"/></g></g></svg>