<svg xmlns="http://www.w3.org/2000/svg" viewBox="0 0 1200 816"><defs/><filter id="a"><feGaussianBlur stdDeviation="12"/></filter><rect width="100%" height="100%" fill="#343434"/><g filter="url(#a)"><g fill-opacity=".5" transform="translate(2.3 2.3) scale(4.6875)"><circle cx="156" cy="109" r="200" fill="#fff"/><circle cx="114" cy="102" r="176" fill="#fff"/><circle r="1" fill="#fff" transform="rotate(28.7 26.3 261.7) scale(253.58562 134.95121)"/><ellipse cx="53" cy="31" fill="#acb3a4" rx="50" ry="10"/><path fill="#fff" d="M121 33L-16-16 230 1z"/><path fill="#b7bdaf" d="M250 2l1 35-108 3z"/><circle r="1" fill="#fefffb" transform="rotate(17.5 -146.4 774.8) scale(64.81011 33.38088)"/><ellipse cx="27" cy="68" fill="#fefffd" rx="69" ry="26"/><ellipse cy="160" fill="#fefff8" rx="9" ry="164"/><circle cx="173" cy="112" r="15" fill="#aeb8a4"/><circle r="1" fill="#faffee" transform="rotate(165.6 102 99.5) scale(123.05026 35.53764)"/><circle r="1" fill="#b6bab2" transform="matrix(-11.71564 1.27384 -3.02845 -27.8531 17.8 18.7)"/><ellipse cx="162" cy="28" fill="#b0b7a7" rx="13" ry="15"/><path fill="#817f82" d="M248 0h2v78h-2z"/><ellipse cx="7" cy="54" fill="#959496" rx="2" ry="32"/><circle r="1" fill="#d0d9c7" transform="matrix(-37.32615 -27.9728 8.23455 -10.98797 84 108.6)"/><path fill="#fffffd" d="M101 0h51v44h-51z"/><path fill="#747375" d="M108 51h2v79h-2z"/><path fill="#fefeff" d="M111 58h34v65h-34z"/><ellipse cx="147" cy="112" fill="#afb2ac" rx="2" ry="67"/><path fill="#b6bbae" d="M102.6 33.4l-3.4-15.9-20-.4 10.9 32.5z"/><path fill="#fff" d="M85 9l141 11-7-36z"/><ellipse cx="75" cy="80" fill="#a5a4a5" rx="184" ry="1"/><ellipse cx="137" cy="97" fill="#b7b8b6" rx="2" ry="49"/><circle r="1" fill="#fff" transform="matrix(-11.15392 -3.7537 7.90904 -23.50124 255 27.8)"/><path fill="#fafff5" d="M219 92l43 13-128 50z"/><ellipse cx="14" cy="66" fill="#201f20" rx="1" ry="13"/><path fill="#5a5a5a" d="M157.3 74.4l2.4-22.9 1 .1-2.4 22.9z"/><path fill="#888" d="M112 45h29v3h-29z"/><path fill="#7c7c7c" d="M15 53h78v1H15z"/><path fill="#fff" d="M31.1-16L152.8-4 71.6 17.4l-38.7 1.2z"/><ellipse cx="242" cy="65" fill="#49484a" rx="1" ry="13"/><path fill="#fff" d="M15 44h90v9H15z"/><path fill="#ccd6c1" d="M33 95l27 94 21-41z"/><path fill="#fffff9" d="M56 117l32 33 62 7z"/><path fill="#cad4bf" d="M209.3 125.5l-43.5 24.7 87.3-29.1-10.1-2.6z"/><path fill="#7a797b" d="M165 53h78v1h-78z"/><ellipse cx="249" cy="33" fill="#686968" rx="1" ry="47"/><circle cx="3" cy="99" r="5" fill="#9aa194"/><path fill="#0a0a0a" d="M97 53h1v25h-1z"/><ellipse cx="76" cy="68" fill="#6c6b6c" rx="1" ry="12"/><path fill="#fff" d="M40.1 90.3L8 75.6l.8 13 57.1 25z"/><ellipse cx="123" cy="85" fill="#5d5d5c" rx="16" ry="1"/><ellipse cx="153" cy="155" fill="#a3ab9b" rx="5" ry="6"/><path fill="#fff" d="M160 57h75v19h-75z"/><path fill="#c0c4bc" d="M225 0h15v42h-15z"/><path fill="#fffff8" d="M140 137h9v37h-9z"/><path fill="#fff" d="M129 44l-21 11h38zm22 0h105v9H151z"/><path fill="#adb3a5" d="M174.6 152.7l-8.1-2.4.9-7.7 6-3.3z"/><path fill="#fff" d="M162.5 80.4l-65 2.2v-3l65-2.2z"/><ellipse cx="141" cy="124" fill="#7c7c7d" rx="8" ry="2"/><path fill="#535253" d="M35 54h1v27h-1z"/><ellipse cx="116" cy="57" fill="#818181" rx="22" ry="1"/><circle r="1" fill="#f7ffec" transform="matrix(19.83764 8.37975 -1.58163 3.74423 27.3 113.5)"/><path fill="#676768" d="M221.7 52l-.4 28h-1l.4-28z"/><circle cx="21" cy="99" r="5" fill="#a3aa9a"/><ellipse cx="7" cy="26" fill="#7e7e7e" rx="1" ry="54"/><path fill="#a5ae9c" d="M127.7 159.9l6-5.3 6.6 7.5-6 5.3z"/><path fill="#f4fdee" d="M81.1 160.2l4.6-31.1 26.1 54-8.3-42.2z"/><ellipse cx="200" cy="63" fill="#7d7d7e" rx="1" ry="17"/><path fill="#b5b6b3" d="M139.4 114.5l18.8-.3-53.6-1.2 12.2 3.2z"/><path fill="#fff" d="M39 55h57v24H39z"/><path fill="#969696" d="M55 53h2v25h-2z"/><path fill="#f8ffef" d="M16.7 214l-10 1.2L-6.7 106l10-1.2z"/><path fill="#bdc4b5" d="M81 103l3-13 28 15z"/><circle r="1" fill="#a9a9aa" transform="matrix(-.31227 -16.2631 .99982 -.0192 180 69.6)"/><path fill="#929193" d="M147 47h2v91h-2z"/><path fill="#a0a09f" d="M139.5 75l-26.9 3v-1l26.8-3z"/><path fill="#b1b5ab" d="M204 24h13v17h-13z"/><path fill="#fafff5" d="M211.6 109.7l15.1 25.5-38.6-16.7 10.2 29.3z"/><circle cx="188" cy="138" r="5" fill="#a8aca1"/><path fill="#fffffe" d="M54.3 48.8l-2-13.8 29.1 13.4-2.6-13.9z"/><ellipse cx="244" cy="85" fill="#bbc0b8" rx="95" ry="1"/><path fill="#fff" d="M140 55h7v68h-7z"/><ellipse cx="155" cy="119" fill="#f6ffec" rx="6" ry="34"/><path fill="#fff" d="M100 39l23-21 41 28z"/><circle cx="118" cy="124" r="2" fill="#47454a"/><path fill="#dfe9d6" d="M25 15h99v12H25z"/><ellipse cx="1" fill="#fff" rx="5" ry="77"/><path fill="#a8aca0" d="M36.9 111.2l-3.1-7.3 7.3-3.1 3.1 7.3z"/><circle cx="113" cy="160" r="5" fill="#a9b09f"/><circle r="1" fill="#bec0b9" transform="matrix(5.30154 13.2548 -5.94762 2.37888 41.8 32)"/><path fill="#b3b4ae" d="M88.7 44.7l11.3-6.4-7.6-19.9-10.4 22z"/><ellipse cx="255" cy="24" fill="#fff" rx="5" ry="55"/><path fill="#f9fff4" d="M78.7 130.3L60 145.6l-11.8-22.9L69.4 147z"/><ellipse cx="143" cy="50" fill="#fff" rx="104" ry="2"/><path fill="#fff" d="M127 64h10v49h-10z"/><path fill="#dee8d5" d="M132 15h94v10h-94z"/><path fill="#fff" d="M36 27l-5 47-16-3z"/><circle r="1" fill="#d3ddc9" transform="matrix(11.45096 -10.36803 23.85722 26.34908 32 145)"/><circle cx="226" cy="124" r="5" fill="#a9aca3"/><path fill="#6f6f6f" d="M136.5 135.2l11-.4v2l-11 .4z"/><circle cx="109" cy="47" r="2" fill="#505050"/><path fill="#b6bbb0" d="M180.6 109.2l7.5 8-14.7 13.6-7.5-8z"/><ellipse cx="241" cy="64" fill="#939294" rx="1" ry="13"/><path fill="#fff" d="M34 81h130v3H34z"/><path fill="#eff8e7" d="M197.7 117.2l-74 34.8L271 93.4 149 80.8z"/><ellipse cx="207" cy="79" fill="#bfbec0" rx="48" ry="1"/><circle cx="244" cy="120" r="5" fill="#aeb3a8"/></g></g></svg>