<svg xmlns="http://www.w3.org/2000/svg" viewBox="0 0 876 1200"><defs/><filter id="a"><feGaussianBlur stdDeviation="12"/></filter><rect width="100%" height="100%" fill="#3c5639"/><g filter="url(#a)"><g fill-opacity=".5" transform="translate(2.3 2.3) scale(4.6875)"><circle cx="35" cy="89" r="226" fill="#fff"/><circle cx="114" cy="121" r="186" fill="#fff"/><circle cx="87" cy="197" r="221" fill="#fff"/><circle r="1" fill="#fff" transform="matrix(184.46212 23.86896 -3.72306 28.77221 125.3 230)"/><circle r="1" fill="#fff" transform="matrix(-17.5719 -47.32684 174.3691 -64.74117 40.3 16.5)"/><path fill="#2d3228" d="M124 86h3v44h-3z"/><ellipse cx="182" cy="92" fill="#fff" rx="20" ry="255"/><circle r="1" fill="#c6f0b4" transform="matrix(-18.67528 44.1916 -20.06834 -8.48083 143.4 131.3)"/><path fill="#9db194" d="M104 206l-47-26 4-27z"/><path fill="#333e29" d="M63 81h3v49h-3z"/><path fill="#8ab780" d="M100.8 212l3.5-12.8-7.2-6.6 44.2-25.8z"/><circle r="1" fill="#aeabab" transform="matrix(-75.28587 44.6483 -1.69524 -2.85851 85.3 17.5)"/><path fill="#b9dba7" d="M46 78l78-42-46 52z"/><path fill="#fff" d="M66 89h58v36H66z"/><ellipse cx="10" cy="114" fill="#fff" rx="17" ry="171"/><circle r="1" fill="#b0afae" transform="matrix(61.3654 52.5432 -1.99801 2.33348 0 220.7)"/><ellipse cx="126" cy="245" fill="#fff" rx="74" ry="41"/><ellipse cx="47" cy="133" fill="#e4ffcd" rx="17" ry="58"/><circle r="1" fill="#a7c1ab" transform="rotate(-112.8 112.8 17.6) scale(4.94086 36.74739)"/><circle r="1" fill="#d7eec6" transform="matrix(-14.0379 -18.07823 25.8483 -20.07141 128 54.7)"/><path fill="#b9b3b3" d="M141 176.6l51.5-15.3-20.1 17.7.6.5z"/><ellipse cx="73" cy="154" fill="#888a89" rx="2" ry="33"/><path fill="#a5a3a3" d="M177 104l25 3-22 17z"/><path fill="#fff" d="M150 181h37v75h-37z"/><path fill="#100b10" d="M60 186l1-20h1l-1 20z"/><path fill="#9d9e9b" d="M111.7 63.6l-4 54.6-.8-46-21.7-5.5z"/><path fill="#fff" d="M85 72h20v56H85zM17 238l136 33L-7 159z"/><path fill="#445b49" d="M109 126h31v2h-31z"/><ellipse cx="178" cy="8" fill="#fff" rx="21" ry="98"/><path fill="#282326" d="M61 85h22v2H61z"/><path fill="#75a37b" d="M158 124h5v21h-5z"/><path fill="#5b5a59" d="M61 126h23v3H61z"/><path fill="#d5f3c1" d="M11 159.8l41.4 38 41 15.3-19.7-26.7z"/><path fill="#5da564" d="M161.1 144l-33.5 38.6-.7-.7 33.5-38.5z"/><circle r="1" fill="#fff" transform="rotate(61.8 4.3 31.7) scale(21.93759 132.13324)"/><ellipse cx="118" cy="86" fill="#757275" rx="13" ry="2"/><path fill="#b2b1b1" d="M82 22L36 47l36-35z"/><path fill="#b1a8a8" d="M150.1 175l-17 17.4 23.7 14.4-20.6-1.8z"/><path fill="#0d0010" d="M109 181h2v15h-2z"/><path fill="#e7fdd6" d="M126 46h32v74h-32z"/><path fill="#150d17" d="M63 167h13v2H63z"/><path fill="#4e484f" d="M81.6 76l14.9-14.5-12.2 8.9-3.2 21.7z"/><path fill="#f6f7f4" d="M62 170h73v10H62z"/><path fill="#fff" d="M129.8 180.2l54.3-55 17.9.1L76.8 243z"/><path fill="#b0a5ae" d="M141.5 22.8l20.3.6-12.3-3.5 8.5 32.6z"/><path fill="#120a13" d="M79.1 196.8L82 181l1 .2-3 15.8z"/><ellipse cx="103" cy="193" fill="#687261" rx="14" ry="2"/><path fill="#9a9b99" d="M18 46l3 7 14-2z"/><ellipse cx="95" cy="81" fill="#fff" rx="12" ry="14"/><path fill="#bfbdbf" d="M87 146h16v18H87z"/><path fill="#e0f8d2" d="M25 77h39v42H25z"/><path fill="#504d53" d="M108.4 81.2l-6.6-13.5 1.8-.9 6.6 13.5z"/><path fill="#fff" d="M-15.6 62.6L87.2-16l9.2 77.8-19.2-50z"/><path fill="#201523" d="M60 180h11v2H60z"/><path fill="#8d868b" d="M116 128h2v57h-2z"/><circle cx="80" cy="98" r="2" fill="#161416"/><path fill="#f0ffdf" d="M125.6 168l-11.4-23.4 34.2-16.6 11.4 23.4z"/><path fill="#fff" d="M165 0h11v172h-11z"/><path fill="#f5f1f6" d="M83 118h6v104h-6z"/><circle cx="52" cy="32" r="6" fill="#a4a4a5"/><ellipse cx="131" cy="84" fill="#6e6c70" rx="1" ry="18"/><path fill="#b5cfb3" d="M145.7 87.8l2.2-8.4L126.2 97l36.8-8.9z"/><path fill="#f1eef3" d="M-2.1 91.4L-16 173.5l75-29.7-48-48z"/><path fill="#e5fdd5" d="M58.7 141.3l-63.4 27.8 75.9-3.5 17.9 12.9z"/><path fill="#9fa09e" d="M17 235l-5-12-3 18z"/><circle r="1" fill="#fff" transform="matrix(-4.94081 -8.55774 88.84051 -51.2921 74 39.8)"/><path fill="#9d9a9d" d="M155 40h10v6h-10z"/><path fill="#fff" d="M68 100h55v26H68z"/><path fill="#fffcff" d="M85 174h24v18H85z"/><path fill="#fff" d="M177.4 194.7L160 211.4l-19.5-20.1 17.3-16.7z"/><path fill="#b2bbab" d="M33 179.3l-4-3.4 43.3 28.6-8.1-1.7z"/><ellipse cx="125" cy="114" fill="#29232d" rx="1" ry="17"/><path fill="#f4ffe3" d="M55 81l22-19 3 23z"/><circle r="1" fill="#c6c4c7" transform="matrix(.33595 -24.81356 2.5311 .03427 82.5 158.5)"/><path fill="#fff" d="M57 30v-42l10 35z"/><circle r="1" fill="#aed5ae" transform="rotate(-120.4 55.3 12) scale(1.05482 78.06733)"/><path fill="#fff" d="M107.6 76.2l2.6-6.5 10.2 4.1-2.6 6.5z"/><ellipse cx="120" cy="60" fill="#ecffda" rx="30" ry="7"/><path fill="#eeecef" d="M130.4 134l-96.5 10.8 1.2 9.5 63.1-35z"/><path fill="#92c094" d="M158.9 122.3l4.5-6.3-19.4 5.2 21.5 13.5z"/><path fill="#fff" d="M55 255l147-3-74-60zM78 88l2 52-14-40z"/><path fill="#b4b1b0" d="M202 152.8l-14.8 3.5-29.5 36.1 5.6-6.9z"/><path fill="#7ec084" d="M106.5 199l27.5-23.8-33.5 35.2 11.1-18.4z"/><path fill="#edffd9" d="M128 94h32v24h-32z"/><ellipse cx="164" cy="111" fill="#17a92c" rx="1" ry="6"/><path fill="#333334" d="M91.9 64.7l12.5 3.6-.3 1-12.5-3.6z"/><path fill="#586c58" d="M73 169h2v18h-2z"/><path fill="#878783" d="M85.4 71.8l2.6-8.9-8.5 29.9 1.3-23.1z"/><path fill="#e6c6c3" d="M38 236.7L58.6 249l-2.6 4.3L35.4 241z"/><path fill="#afabaa" d="M141 179l15-5-23 22z"/><path fill="#5e5a60" d="M144.5 66.8v1l-29-.6v-1z"/><path fill="#f6ffda" d="M108 193l-5 10-10-10z"/><path fill="#fff" d="M113.5 90.8l10.1-41.1-.9 25-27.1 27.9z"/><path fill="#aaa9a9" d="M144 28l10-12 10 1z"/><path fill="#7c8e70" d="M29 154h1v22h-1z"/><path fill="#a49f9e" d="M132 191.6l19.5 12.2-1.5 2.6-19.5-12.2z"/><path fill="#40bd4e" d="M145 88h15v2h-15z"/><path fill="#fff5ff" d="M132 68h11v24h-11z"/></g></g></svg>