<svg xmlns="http://www.w3.org/2000/svg" viewBox="0 0 1200 702"><defs/><filter id="a"><feGaussianBlur stdDeviation="12"/></filter><rect width="100%" height="100%" fill="#463629"/><g filter="url(#a)"><g fill-opacity=".5" transform="translate(2.3 2.3) scale(4.6875)"><circle r="1" fill="#fff" transform="rotate(-88.8 102.1 -17.1) scale(95.2974 254.99999)"/><circle r="1" fill="#fff" transform="rotate(-79.7 122.7 6.7) scale(56.8285 162.946)"/><circle r="1" fill="#040000" transform="matrix(1.92444 -9.0538 173.85177 36.95333 240.5 94.5)"/><circle r="1" fill="#fff" transform="matrix(-93.45363 -7.35496 1.04977 -13.3386 203 61.8)"/><ellipse cx="164" cy="135" fill="#fff" rx="95" ry="43"/><circle r="1" fill="#51575c" transform="matrix(8.95917 -5.16794 44.32814 76.84761 64.4 148)"/><path fill="#636748" d="M166.5-19.8L278.1 4l-10.6 49.9L155.9 30z"/><circle r="1" fill="#f7fdff" transform="matrix(11.65118 -14.42818 42.63894 34.4322 69.8 94.6)"/><circle r="1" fill="#f8feff" transform="matrix(-23.07937 1.49011 -4.79286 -74.23357 6.4 126.5)"/><ellipse cx="64" cy="23" fill="#82886c" rx="74" ry="33"/><path fill="#371f07" d="M271 121l-12-36-106-16z"/><path fill="#f7fdff" d="M218.9 75.4l-95.2-13 147.3-16v44.4z"/><circle r="1" fill="#eef1ff" transform="matrix(50.7666 1.52483 -1.0181 33.8957 108.3 106.5)"/><path fill="#898c8b" d="M38 138.1l13.7 23.7 36.7 2.2L10.5 43.2z"/><circle r="1" fill="#c4c9d0" transform="matrix(1.83529 -5.9657 89.59654 27.5635 90.7 72.2)"/><circle r="1" fill="#2d1400" transform="matrix(17.47926 -2.104 .3469 2.88186 76.3 53.2)"/><circle r="1" fill="#f9f9ff" transform="matrix(71.44054 11.31507 -5.22155 32.9676 151.7 148.7)"/><circle r="1" fill="#dbdbe7" transform="rotate(-66.7 224.4 -124.4) scale(18.77422 62.81882)"/><path fill="#777a75" d="M88.2 79.3l4.6 4 31 8L-16 30.9z"/><path fill="#eff0ff" d="M95.7 150.3l123.6-54.9-17.2-1.3-44.8 69.9z"/><circle r="1" fill="#402911" transform="matrix(-1.89753 6.7674 -30.81814 -8.64117 154.3 76.3)"/><path fill="#e5eaf7" d="M93 52h114v7H93z"/><path fill="#1e1308" d="M201 75h15v18h-15z"/><path fill="#f4f6ff" d="M16 154.4L5.8 113.6l24.2-6 10.2 40.8z"/><circle r="1" fill="#706e5b" transform="rotate(12 67 1144.6) scale(45.62465 19.97596)"/><path fill="#979980" d="M260 50L114-7l2 51z"/><path fill="#c2c9c9" d="M24 59l-40-12 81 2z"/><path fill="#826f42" d="M82 14h32v13H82z"/><path fill="#36281b" d="M266 110.6l-53.7-11.4 1.6-7.8 53.8 11.4z"/><path fill="#d7dae0" d="M116 44l-7.2 17 26.8 4.8L208 52z"/><path fill="#55493a" d="M106 48L73 59l-2-14z"/><circle r="1" fill="#858883" transform="matrix(-2.098 1.27719 -30.39527 -49.92921 23.1 67.5)"/><path fill="#dde0e9" d="M84 72l11-6-38-8z"/><circle r="1" fill="#ececf6" transform="rotate(.6 -11075.2 13347) scale(56.51222 22.06626)"/><path fill="#dbdbe3" d="M168 95h47v26h-47z"/><path fill="#eaebf5" d="M269.8 87l-21.7-24.3-134.3-4.8L184 70.6z"/><path fill="#54402b" d="M222.2 103.6l-.4-25 16-.2.4 25z"/><path fill="#3f2f20" d="M196.6 96.6l23.8-21.8-8.3 14.8-81.9-17.1z"/><ellipse cx="89" cy="60" fill="#432f12" rx="10" ry="4"/><circle r="1" fill="#eeeff8" transform="matrix(7.34425 -24.16255 28.78665 8.74975 81.3 105.2)"/><ellipse cx="15" cy="18" fill="#929587" rx="73" ry="31"/><path fill="#6b6c68" d="M18 74l17 8-17-26z"/><path fill="#7f8186" d="M142.6 83.8l-3-5.3 41 12.2-9.4 1.7z"/><path fill="#d5d8e0" d="M13 49L0 64l24 27z"/><path fill="#7d7d69" d="M161 42l16-41-39 44z"/><path fill="#453520" d="M107.9 63L57.5 49.8l2.1 5.3 86 26z"/><circle r="1" fill="#777978" transform="rotate(107.9 20.1 77.6) scale(1.64073 11.71076)"/><circle r="1" fill="#dadee9" transform="rotate(115.6 -2 45.4) scale(4.94898 18.66872)"/><path fill="#d8dcdd" d="M101.9 49.5l15 1-.8 10-15-1z"/><circle r="1" fill="#7a7764" transform="matrix(29.88605 23.51005 -16.9033 21.48753 227.9 13.7)"/><path fill="#838584" d="M70 72.1l-.6-4.6L87.7 81l12.4-2z"/><path fill="#e6e6ec" d="M181.9 75.6l30.7-24.2 37 31.3-39.4-8.3z"/><path fill="#dadae0" d="M174.7 90.4l-65.2-1.1 43.9 21.4 60.9-10.5z"/><path fill="#929394" d="M46 162.6l-2.7-22.8-12.7-26.3 73.7 50.5z"/><ellipse cx="11" cy="13" fill="#8a8c7a" rx="22" ry="36"/><circle r="1" fill="#2e2319" transform="rotate(81.2 70.2 197.7) scale(10.53941 16.80565)"/><path fill="#656861" d="M16.4 58l-.4-.9L33.6 50l.4.9z"/><path fill="#95989b" d="M257.2 116l-23.5-5 1-5 23.6 5z"/><path fill="#342c21" d="M87.1 53l1.9-8.8 3.9.8-1.9 8.8z"/><path fill="#55574f" d="M44.7 51.4l1.8 1-3.2 6.2-1.8-1z"/><circle r="1" fill="#969887" transform="matrix(8.03027 1.25679 -4.61262 29.4724 180.6 19)"/><path fill="#dbdee7" d="M20 57l21-6 14 60z"/><path fill="#e3e3ea" d="M271 122L113 75l113 73z"/><circle r="1" fill="#9d9f8a" transform="rotate(-173.3 69.9 -1.2) scale(23.44584 37.56126)"/><circle r="1" fill="#e9eaf3" transform="rotate(66.1 -86.1 79.3) scale(31.42112 13.96436)"/><path fill="#9d9e91" d="M23.3 27.9l-4.4-3.4L79.4-1.8l3.3 31.1z"/><path fill="#625038" d="M127.5 72.7l68.6 2.5L109.9 62 63.2 50.6z"/><circle r="1" fill="#6a6153" transform="matrix(.20938 2.13016 -27.81352 2.7339 86.5 50.4)"/><path fill="#777776" d="M56.2 63l52 23.1-.4 1-52-23.2z"/><path fill="#887f61" d="M86 11l35 33-27-5z"/><path fill="#d4d5d6" d="M84.9 54.9l-1.4.7 54.4 9.7L124 50.9z"/><path fill="#9a9ca5" d="M82.4 157.7L72.3 134l-11 7.2-24.7-57.6z"/><path fill="#403726" d="M61.7 51.5l1.8 7.1 12.4-1-1.9-2.5z"/><path fill="#f3f3fd" d="M271 161L88 144l17-53z"/><path fill="#999a9d" d="M97.4 53.6l9-8.3-74.5 1.8 59.5-5.5z"/><path fill="#c2c4c5" d="M41 61.9L63.5 46 52.4 59.6l-.2-10.7z"/><path fill="#392b1e" d="M140.6 79.5l62.7 15.1-50-24-6.1 5.5z"/><path fill="#473423" d="M157.4 71.2l-.8 5-64-11.4.8-5z"/><ellipse cx="116" cy="52" fill="#c1c3c4" rx="21" ry="2"/><path fill="#d8d9df" d="M235.4 48.9l-82.5 3 40.2 6.1 77.9 5.9z"/><path fill="#e1e3ea" d="M218.3 49.6l-22.4 28.5-5.1-3.4-49.8-9.2z"/><path fill="#574531" d="M126.3 74.1l77 1.9 23.6 3.8-49.8-2.7z"/><path fill="#eeeff7" d="M94 164L36 82l96 40z"/><circle r="1" fill="#e5e5e2" transform="matrix(2.25007 4.214 -5.12772 2.73794 245 79.2)"/><path fill="#92855c" d="M123 14l-14 11 3-21z"/><path fill="#e7e7e9" d="M225.8 76l45.2 9.5-45.8-23.4-7.4 20.2z"/><path fill="#c7cac8" d="M9 59l-25-8 39-1z"/><path fill="#523e2c" d="M211.1 79.2l7.1-2.3 7.4 21.5-10.7-.7z"/><path fill="#4a3829" d="M247.9 104l-12.6-19-19.7 4.5.7 13z"/><circle r="1" fill="#dee0e5" transform="matrix(1.3586 -4.20633 38.43504 12.41418 119 81.8)"/><path fill="#a5a6a7" d="M148.8 89.6l-6.6-8 22.6 6.1-31.1-9.4z"/><circle r="1" fill="#251a11" transform="matrix(-4.11001 -5.76202 4.6511 -3.3176 208.8 82.7)"/><path fill="#cfd1d3" d="M31 73L21 56l22-10z"/><path fill="#867a64" d="M182.5 72.2l13.6 5.8-35.4-6.7-21.2-3.8z"/><path fill="#6e6a58" d="M232-9l24 57-8-64z"/><path fill="#787b75" d="M34.9 97.8L18 58l-3 2.7 9.8 22.9z"/><circle r="1" fill="#c4bfc2" transform="matrix(-28.10197 -12.75544 .41331 -.91059 227 106.5)"/><ellipse cx="63" cy="88" fill="#e7e8f2" rx="21" ry="17"/><circle r="1" fill="#8b8e8c" transform="matrix(.50451 -1.00311 34.71038 17.4575 73.5 71.3)"/><path fill="#a4a18c" d="M141.1-3.5l-40.5 43.3 19.5-12.1 8.7 7.1z"/></g></g></svg>