<svg xmlns="http://www.w3.org/2000/svg" viewBox="0 0 1200 900"><defs/><filter id="a"><feGaussianBlur stdDeviation="12"/></filter><rect width="100%" height="100%" fill="#334f24"/><g filter="url(#a)"><g fill-opacity=".5" transform="translate(2.3 2.3) scale(4.6875)"><circle r="1" fill="#beadd0" transform="matrix(-112.10871 31.33634 -16.594 -59.36658 209.2 140.4)"/><ellipse cx="208" cy="107" fill="#fff" rx="17" ry="27"/><circle r="1" fill="#f5ffb9" transform="matrix(-52.16766 9.01092 -1.99026 -11.52238 0 119.8)"/><ellipse cx="254" cy="104" fill="#fff" rx="17" ry="36"/><circle r="1" fill="#5c4f64" transform="matrix(-28.19908 -57.11156 78.40168 -38.71117 84.5 164.6)"/><ellipse cx="229" cy="89" fill="#111306" rx="7" ry="55"/><circle r="1" fill="#141411" transform="rotate(52.5 -12.3 88.6) scale(76.06206 27.17542)"/><path fill="#b5b2a9" d="M115 98h68v22h-68z"/><circle r="1" fill="#f8ffe3" transform="matrix(11.92938 5.99985 -11.17245 22.21395 207.5 103.2)"/><ellipse cx="133" cy="10" fill="#5b7b46" rx="20" ry="81"/><circle r="1" fill="#21221e" transform="rotate(-56.3 270.9 -134.6) scale(3.20334 83.48458)"/><path fill="#fffff9" d="M269 84v44h-28V84z"/><circle r="1" fill="#495052" transform="rotate(64.8 -62.2 156.2) scale(28.12748 52.0446)"/><path fill="#68816e" d="M40 55l-21 49L4 52z"/><path fill="#264805" d="M187.5 99.4l-34.3-10.7 45.8-8.4-14 27.8z"/><path fill="#fff" d="M169 106l13-13v23z"/><path fill="#486d34" d="M156 85l96-8-9-25z"/><path fill="#2b2c20" d="M251.3 135l-27.6 7.9-11.4-2.5 20.7-18.9z"/><path fill="#b1ce71" d="M59 100h17v14H59z"/><path fill="#7e897c" d="M227.7 22L212.1.4 208.5 14l4.2 19.3z"/><circle r="1" fill="#827d79" transform="matrix(60.0387 -45.57186 1.8315 2.4129 49.3 158.2)"/><path fill="#0d000a" d="M50 65h10v64H50z"/><path fill="#fffff3" d="M222 130l-33-30 34 1z"/><circle r="1" fill="#2b3915" transform="matrix(-3.09633 -.43516 3.48907 -24.82605 169.7 90.3)"/><circle r="1" fill="#5f6874" transform="matrix(2.17465 24.13325 -96.58648 8.70341 149.7 189.6)"/><circle r="1" fill="#493932" transform="matrix(2.59296 18.21907 -42.2531 6.0135 18.7 143.6)"/><path fill="#211520" d="M224.1 62.8l4.6-6.3L196.1 3l-20 9.7z"/><path fill="#b1e78f" d="M31.6 115.8L57 104.3l-63.1 6L3 121.7z"/><path fill="#a8d76d" d="M256.1 21.9l-13.6 8.5L240 26l13.6-8.5z"/><path fill="#232315" d="M183 67h5v54h-5z"/><circle r="1" fill="#2c2f2b" transform="matrix(32.02572 19.28767 -1.63865 2.72085 237.4 166)"/><path fill="#fffff9" d="M159.9 93l6.8 8-8.6 14.7 2.5-6z"/><path fill="#a18f95" d="M201 140l16-17-70-15z"/><circle r="1" fill="#1b1c18" transform="rotate(-69.8 55.4 -34.7) scale(76.80571 12.4272)"/><path fill="#71876f" d="M155-15l-43 31 9 16z"/><path fill="#fffff4" d="M239.7 130.2l2.6-30 18 1.6-2.6 30z"/><path fill="#7b7d7e" d="M187 155l-33-58-50 12z"/><path fill="#63864f" d="M187 88l33-44-7 36z"/><path fill="#20251b" d="M208 49l51-65-27 74z"/><circle r="1" fill="#3e4341" transform="rotate(79 -36.7 133.6) scale(19.98195 23.39758)"/><path fill="#363423" d="M117.9 88.6l3.2 5 1 8.2L3.4 154z"/><path fill="#d8f6cc" d="M237 79h10v26h-10z"/><path fill="#3b3f33" d="M209.1 139.3l31.6-21.2-21.6-99.9 6 116.3z"/><circle r="1" fill="#918c55" transform="matrix(-49.41117 8.71004 -1.03635 -5.87912 0 128.2)"/><path fill="#4a683c" d="M69 65l7.7 31L65 99l-7.7-31z"/><path fill="#859d83" d="M22 56l8 14-32-16z"/><circle r="1" fill="#f6ffdc" transform="matrix(5.59501 -1.3523 2.05475 8.50138 175.6 105.1)"/><path fill="#42522f" d="M196.8 56.6l-41 65.2 18.6-7.7L159 81.9z"/><path fill="#f3ffe3" d="M205 103h19v22h-19z"/><path fill="#133208" d="M23 75L7 59 6 75z"/><path fill="#9fbe93" d="M195 84l-7 19 31-26z"/><ellipse cx="43" cy="98" fill="#202925" rx="78" ry="4"/><path fill="#213712" d="M70 22l56 28-3-20z"/><path fill="#4b6f2c" d="M124 17h55v27h-55z"/><path fill="#0e0a0e" d="M64 66L23 17l-5 17z"/><ellipse cx="131" cy="110" fill="#aaa1a0" rx="33" ry="3"/><path fill="#0b0904" d="M78 86h5v31h-5z"/><circle r="1" fill="#2e3421" transform="rotate(-31.3 189.2 -277.5) scale(43.98634 8.55302)"/><path fill="#d3c8d6" d="M247 131h9v14h-9z"/><path fill="#383631" d="M-15.5 207l34.6-32.2 35.3-54.3-70.4 28.6z"/><path fill="#111112" d="M215.9 136.8l9.9-10 6.3 6.4-9.9 10z"/><path fill="#496d38" d="M243.2 59.2l-8.5 6.1 1.9 16.5 34.4-23z"/><path fill="#5e7365" d="M34 80L1 79l27 18z"/><path fill="#a9cb98" d="M238 89h18v10h-18z"/><path fill="#5b765d" d="M14 27L6.3 4.3l15.3 16.2-6.7 10.7z"/><path fill="#1b1619" d="M193 0h15v34h-15z"/><path fill="#414037" d="M161.4 121.8l49.6 26.9-68.8-42 20.6 17.5z"/><path fill="#dadfeb" d="M251 8h5v3h-5z"/><ellipse cx="124" cy="79" fill="#708f66" rx="5" ry="8"/><path fill="#98a7a2" d="M213.3 30.7l-2.6-20.9 4-.5 2.6 20.9z"/><path fill="#55613d" d="M155 97.7l-4 10.3-16.9-9.1 37.6-15.1z"/><path fill="#f5ffff" d="M215 82h7v11h-7z"/><ellipse cx="186" cy="77" fill="#354126" rx="5" ry="34"/><path fill="#6c7157" d="M235.8 140.3l-2.8-1.1-2.4-59.2 11.2 34.7z"/><path fill="#3e5932" d="M27 52h18v29H27z"/><path fill="#231d22" d="M155.9 16.9l23.8-.3-26.9-21 4.1 18.6z"/><path fill="#e8ffcb" d="M187.9 97.1l31.3 11-2.3 8.4-19.5-1.1z"/><path fill="#2d4b1f" d="M46.4 25.7L-16-1.3 17.4-16 61.9-3.4z"/><path fill="#8f9d93" d="M124.6 15.1l14-11-14.8 1.7 1.4.8z"/><path fill="#f9ffef" d="M160 94h5v16h-5z"/><path fill="#6e9257" d="M123 18.9l-28.3 3 57.8 7.7-30.8 1.4z"/><circle cx="160" cy="175" r="36" fill="#666d71"/><path fill="#425e2e" d="M203.3 89.1l-29.8-49.9 81.8 40.4-86.5-6.6z"/><circle r="1" fill="#6f706e" transform="matrix(-28.11698 22.75228 -2.87493 -3.5528 32.6 172.3)"/><path fill="#bbcfb5" d="M220 97l-11-19-18 19z"/><circle cx="69" cy="108" r="8" fill="#99ab63"/><path fill="#1d1e1b" d="M221 43l-1 21 51-43z"/><path fill="#646768" d="M97 110.7l95.7 60.4-76.6-65.7.2-3.6z"/><ellipse cx="157" cy="91" fill="#2a3610" rx="1" ry="19"/><path fill="#0f1211" d="M233.3 6.6l.4-10 21 .8-.4 10z"/><circle r="1" fill="#1e251f" transform="rotate(-141.4 39.7 38.9) scale(17.01027 8.16519)"/><path fill="#0f161d" d="M-8.4 92.8L8.7 82.7 7.2 94.2-16 138.8z"/><path fill="#728e4e" d="M84 91h5v19h-5z"/><path fill="#638e29" d="M260 22.4l-25 15-1-1.8 25-15z"/><circle r="1" fill="#4e535b" transform="rotate(81.4 -67.6 131.5) scale(13.19077 50.68631)"/><path fill="#314725" d="M133.9 19.2L157.5 5 76.9 18.5l25.3-26.1z"/><path fill="#5f7455" d="M220.3 35.9l-13.1-9.2 4.5-6.6 13.1 9.2z"/><path fill="#b1a6a8" d="M216.4 136l-32-11.6 3.2-8.4 32 11.6z"/><path fill="#233815" d="M-16 41.8V4.7l46.1 56.9L109.4 78z"/><circle r="1" fill="#181f25" transform="rotate(121.7 77.1 156.3) scale(1 23.79079)"/></g></g></svg>