<svg xmlns="http://www.w3.org/2000/svg" viewBox="0 0 1200 914"><defs/><filter id="a"><feGaussianBlur stdDeviation="12"/></filter><rect width="100%" height="100%" fill="#3a3a3a"/><g filter="url(#a)"><g fill-opacity=".5" transform="translate(2.3 2.3) scale(4.6875)"><circle cx="127" cy="112" r="184" fill="#fff"/><circle cx="98" cy="107" r="191" fill="#fff"/><circle cx="55" cy="90" r="221" fill="#fff"/><circle r="1" fill="#fff" transform="matrix(64.88969 -212.24461 146.90395 44.91304 116.4 111.5)"/><circle r="1" fill="#fff" transform="rotate(-122.4 62.6 4.8) scale(95.94261 255.00001)"/><path fill="#c2c2c2" d="M147.2 189.2l-28 2.4-4.4-50.8 28-2.4z"/><path fill="#c1c1c1" d="M140.6 77.3l26 1.4-1.2 22-26-1.4z"/><circle r="1" fill="#fff" transform="rotate(132.5 91.1 108) scale(76.19785 30.2339)"/><path fill="#d9d9d9" d="M117 192v-24h80v24z"/><path fill="#fff" d="M95.8 201.2l-176-53.8 56.4-184.6 176 53.8z"/><path fill="#cacaca" d="M119.7 121.3l76.6-3.2-85.1-2.8L124.3 92z"/><ellipse cx="150" cy="22" fill="#fff" rx="255" ry="58"/><path fill="#b9b9b9" d="M115 95h44v5h-44z"/><path fill="#575757" d="M222 125h14v2h-14z"/><path fill="#d2d2d2" d="M172.5 41.5l3 .1-4 77-3-.2z"/><path fill="#a9a9a9" d="M117 183l6-21-6-21z"/><ellipse cx="156" cy="130" fill="#fff" rx="70" ry="10"/><path fill="#9b9b9b" d="M140 141h25v2h-25z"/><path fill="#fff" d="M4 149h113v42H4zm234.1-28l-13 15.9 45.9 3.4L240.1-16z"/><path fill="#ccc" d="M175 81h61v2h-61z"/><path fill="#9a9a9a" d="M122 143l-9 5-2-4z"/><path fill="#d1d1d1" d="M174 59h59v3h-59z"/><ellipse cx="234" cy="73" fill="#d7d7d7" rx="2" ry="40"/><ellipse cx="51" cy="118" fill="#cbcbcb" rx="158" ry="1"/><path fill="#ccc" d="M236 139h3v55h-3z"/><path fill="#fff" d="M163 142.8l-1 25-19-.6 1-25z"/><path fill="#ededed" d="M159.9 97.3l-2.8-13.4 48.1 3.6 37.9-2.2z"/><path fill="#fff" d="M176 170h59v10h-59z"/><path fill="#d2d2d2" d="M147 169h20v23h-20z"/><path fill="#ddd" d="M173 106h65v3h-65z"/><path fill="#c3c3c3" d="M164 140h3v36h-3z"/><path fill="#fff" d="M240 70h13v124h-13zM-16 83l132 33 4-132z"/><ellipse cx="254" cy="187" fill="#737373" rx="1" ry="8"/><ellipse cx="50" cy="101" fill="#cdcdcd" rx="71" ry="1"/><ellipse cx="69" cy="140" fill="#e9e9e9" rx="84" ry="2"/><ellipse cx="203" cy="168" fill="#d7d7d7" rx="33" ry="2"/><path fill="#fff" d="M168 145h4v49h-4zm12 4h55v19h-55z"/><path fill="#b9b9b9" d="M164 102l-1-5 15 6z"/><path fill="#bababa" d="M129 118h46v2h-46z"/><path fill="#fff" d="M98 192h158v2H98zm-68-9h92v8H30zM0 120h218v20H0z"/><path fill="#dbdbdb" d="M176 42h60v2h-60z"/><path fill="#fff" d="M157 0h7v95h-7z"/><circle r="1" fill="#9f9f9f" transform="rotate(-156.1 140.4 52) scale(2.46451 1)"/><path fill="#9e9e9e" d="M106 156l-2-3-2 4z"/><path fill="#d8d8d8" d="M195 180h41v4h-41z"/><path fill="#cdcdcd" d="M2 100h2v18H2z"/><path fill="#fff" d="M125 102h39v15h-39z"/><ellipse cx="154" cy="73" fill="#e3e3e3" rx="20" ry="2"/><path fill="#d8d8d8" d="M171 87h52v3h-52zm1 52h4v30h-4z"/><path fill="#fff" d="M172 100h8v33h-8z"/><ellipse cx="209" cy="191" fill="#c2c2c2" rx="26" ry="1"/><path fill="#d7d7d7" d="M180 117l13-13 14-1z"/><path fill="#e2e2e2" d="M122 142h18v50h-18z"/><path fill="#ebebeb" d="M176 139h80v5h-80z"/><path fill="#d3d3d3" d="M120.5 116.8l-3.8-16.5 4.8-1.1 3.8 16.5z"/><path fill="#e2e2e2" d="M1.5 194v-1l85-3v1z"/><ellipse cx="138" cy="21" fill="#fff" rx="33" ry="51"/><path fill="#cecece" d="M163 80l-18 10V79z"/><path fill="#fff" d="M112.2 111.2l35.8 5.7-144.7-1.5 14.8-11.8z"/><path fill="#e0e0e0" d="M183 175h18v14h-18z"/><circle cx="105" cy="178" r="2" fill="#a9a9a9"/><ellipse cx="119" cy="163" fill="#b9b9b9" rx="3" ry="20"/><path fill="#fff" d="M234 107h21v33h-21z"/><path fill="#b4b4b4" d="M171 37h1v41h-1z"/><path fill="#fff" d="M162.2 170.1l5.7-23.4-25.2 10-.1 7.3z"/><path fill="#c3c3c3" d="M246 180h3v7h-3z"/><path fill="#dadada" d="M222.6 19.7l-18.9 16.9-5.2 4.2 15.4-15.6z"/><path fill="#9c9c9c" d="M142 170h26v1h-26z"/><ellipse cx="47" cy="100" fill="#e1e1e1" rx="71" ry="1"/><path fill="#fbfbfb" d="M172 181.6l36.2 3.3-24.7-.1-2.5 8.8z"/><path fill="#fefefe" d="M191.9 103.1l-16.5-22.2L179 114l45.3-22.8z"/><path fill="#fff" d="M248 145h4v49h-4zM166 42h5v58h-5zm6-2h1v39h-1z"/><path fill="#c8c8c8" d="M169.5 39.8l31-.6v1l-31 .6z"/><path fill="#fff" d="M123 195l-17-43 1 26z"/><path fill="#e9e9e9" d="M63 191h117v2H63z"/><path fill="#c6c6c6" d="M234 35h1l1 50h-1z"/><ellipse cx="151" cy="95" fill="#b0b0b0" rx="15" ry="1"/><path fill="#d8d8d8" d="M219.1 21l20.5 19.2-.7.7-20.5-19z"/><path fill="#d7d7d7" d="M186 9l1 13-3-4z"/><path fill="#b9b9b9" d="M106 179h21v1h-21z"/><path fill="#c5c5c5" d="M170 117h27v1h-27z"/><path fill="#fff" d="M3 145h99v46H3z"/><ellipse cx="168" cy="168" fill="#fff" rx="2" ry="31"/><path fill="#e5e5e5" d="M0 140h121v2H0z"/><path fill="#b0b0b0" d="M121 95h1v21h-1z"/><path fill="#fff" d="M234 0h1v83h-1zM0 0h135v95H0zm255 173h1v21h-1z"/><ellipse cx="155" cy="176" fill="#e0e0e0" rx="17" ry="6"/><path fill="#d8d8d8" d="M198.9 89h1l1.2 18h-1z"/><ellipse cx="208" cy="114" fill="#d5d5d5" rx="2" ry="7"/><path fill="#e7e7e7" d="M206.8 155.1l-4.9 8.9-16.1 4.4 21.2 2.4z"/></g></g></svg>