<svg xmlns="http://www.w3.org/2000/svg" viewBox="0 0 1200 615"><defs/><filter id="a"><feGaussianBlur stdDeviation="12"/></filter><rect width="100%" height="100%" fill="#39322d"/><g filter="url(#a)"><g fill-opacity=".5" transform="translate(2.3 2.3) scale(4.6875)"><circle cx="71" cy="41" r="223" fill="#f2eae4"/><circle r="1" fill="#5b554f" transform="rotate(101.1 91.8 109.8) scale(29.82733 71.71765)"/><ellipse cx="132" fill="#fffbf4" rx="255" ry="8"/><ellipse cx="79" cy="75" fill="#6d6660" rx="48" ry="35"/><circle r="1" fill="#c8c2bb" transform="rotate(46 -5.8 34.6) scale(37.62651 29.69323)"/><path fill="#bdb7b0" d="M96-16l67 49-12 77z"/><circle r="1" fill="#c7c1ba" transform="matrix(25.36811 6.09034 -4.26387 17.7603 200 100.5)"/><ellipse cx="207" fill="#c2bbb5" rx="27" ry="20"/><ellipse cx="22" cy="126" fill="#b9b2ac" rx="139" ry="15"/><path fill="#5e5752" d="M200 83l-42 3 12-32z"/><path d="M184 120h54v2h-54z"/><path fill="#39332d" d="M246.4 23.9l-30.5-6.2 21 62.2-8.2-36.1z"/><path fill="#463f3a" d="M164.4 11.4l-22 8.2 24.7 10.5 48.2-6.1z"/><path fill="#a09993" d="M152.7 40.3l19.5-8.1 31.2 44.7 20.5-51.6z"/><path fill="#d8d2cb" d="M250 70h6v61h-6z"/><path fill="#b3aca6" d="M71 94l19-47 8 36z"/><path fill="#68615c" d="M62 19.8l70.5 81.5L108.2 30l-51.9 9z"/><path fill="#d0cac3" d="M190 123h51v8h-51z"/><path fill="#c4beb7" d="M100.5 112.2l-14.7 10.3-10.3-14.7 14.7-10.3z"/><path fill="#726b65" d="M44 118.4l66.3-25.5-91.8 16.7 1 15.6z"/><path fill="#d1cbc4" d="M29.6 128.2L2.4 108.1 11 146l135-15.3z"/><circle r="1" fill="#5c5650" transform="rotate(103.7 -22 46.4) scale(32.26656 2.30313)"/><path fill="#48413b" d="M245 65l-42-2 55-14z"/><circle r="1" fill="#766f69" transform="matrix(.52098 3.3311 -46.90382 7.33579 155.8 66.3)"/><circle r="1" fill="#c9c2bc" transform="matrix(-22.75715 -32.98837 2.93693 -2.02605 157.6 106.3)"/><path fill="#2d2721" d="M195 136l-22-22 18 32z"/><path fill="#3d3531" d="M58.5 48.3l7 .5-2 27-7-.6z"/><path fill="#100e0a" d="M247 87h3v21h-3z"/><path fill="#7c756f" d="M60 7h55v12H60z"/><path fill="#bbb5ae" d="M184 95h56v25h-56z"/><circle r="1" fill="#c6bfb9" transform="matrix(-7.56043 10.87803 -15.4613 -10.74588 135.5 47)"/><path fill="#c5beb8" d="M254 0h2v113h-2z"/><path fill="#f8f1eb" d="M0 130h191v1H0z"/><path fill="#413b36" d="M252.4 12.8l-25.3 5.8-5.4 37.7 6.3-13.7z"/><path fill="#ded7d1" d="M202 33l15-9-13 15z"/><path fill="#221c17" d="M165 105l-.7.7L141 76.9l.7-.6z"/><path fill="#201d18" d="M240 108h3v16h-3z"/><path fill="#c0b8b3" d="M58.5 95l-7.1-2.8-3.6 4.4-12.6-21.3z"/><path fill="#e3ddd6" d="M191.8 68.4l-51.4 8.2-.2-1 51.4-8.2z"/><path fill="#463f3b" d="M112 79l-7 15-23 2z"/><path fill="#615a55" d="M99.7 66.3L82.6 78.1l-2.9.6 32 3.3z"/><path fill="#060100" d="M175.8 111.5l1.7-4.7 4.7 1.7-1.7 4.7z"/><path fill="#a19a95" d="M58 61l21-22-8 28z"/><path fill="#554e49" d="M21.1 101.9l11.1-21.1-11.9 4.1 3.4-14.7z"/><path fill="#98918b" d="M144.6 126.9l-10.6 3.9-57.3-2.6 37.7-44.7z"/><path fill="#d8d2cb" d="M180.3 119l-.8.6L141.7 73l.8-.6z"/><path fill="#27201b" d="M173.5 98.3l-1 8-4-.6 1-8z"/><path fill="#6d6660" d="M157.6 124.3L94.5 24.2l29.2 80.1 14.6-15z"/><circle r="1" fill="#716b65" transform="rotate(-125.4 120.6 -23.1) scale(27.14327 5.10029)"/><path fill="#afa8a2" d="M29.8 47.2l13.8-22 18.6 11.6-13.8 22z"/><circle r="1" fill="#bab4ad" transform="rotate(-110.5 129.5 -48.6) scale(1 50.83578)"/><path fill="#6e6762" d="M174.5 39.3L152.4 51 183 72.5l-34.9-34z"/><path fill="#918a84" d="M14 16l9.2 25.3L10 46 .8 20.7z"/><path fill="#2e2824" d="M208.6 44.4l10.9 9.1 36-13.6L230.7 50z"/><path fill="#e2dcd5" d="M20 99L9 116l20-14z"/><path fill="#d0c9c2" d="M187 14h27v5h-27z"/><path fill="#b0a9a2" d="M177 34h20l-27-8z"/><path fill="#28211d" d="M210 21l19 3 2-8z"/><path fill="#5a534e" d="M147 98.1l11.4 17.6-3.4 2.2-11.4-17.6z"/><path fill="#4b443f" d="M159 12l-7 15 49-17z"/><path fill="#d3cdc6" d="M137 117h20v6h-20z"/><circle r="1" fill="#dad3cd" transform="matrix(-1.16981 5.70076 -29.91653 -6.13896 121.2 2.2)"/><path fill="#8b847e" d="M17 127h76v3H17z"/><path fill="#cdc6c0" d="M4 30l46.5 5.3L-16-13l127-3z"/><path fill="#8a837d" d="M148 17l11 23-35-13z"/><path fill="#c2bab5" d="M71.7 81.6l4.2-5.9 14.2 36.8 41.2 32z"/><path fill="#12110c" d="M164.4 125.6l2-.7 3.2 9.5-2 .7z"/><path fill="#b4ada7" d="M152.8 42.2L98.7 59l-12 10.1-3.9-9.4z"/><path fill="#cec8c1" d="M7.8 88.5l8.6-11.4L-4 140.8 5.8 104z"/><path fill="#b5afa8" d="M45 98l-16 16 24-7z"/><path fill="#5a534e" d="M184 75h-26l6 16z"/><path fill="#49423d" d="M35 96h27v3H35z"/><path fill="#322d28" d="M168 47h3v22h-3z"/><ellipse cy="95" fill="#dbd4ce" rx="1" ry="96"/><path fill="#a69f99" d="M112.2 88.1l-10-8.7 3.8 9.3 69.3 57.3z"/><path fill="#6c655f" d="M104.8 36.6L57.1 65l59-19.3-6.9-19.4z"/><path fill="#ada6a0" d="M173 85h75v20h-75z"/><path fill="#948e87" d="M105.1 39.3L83.5 19.4l-46.3-1.9 53.3 30.4z"/><path fill="#948d87" d="M171 7h60v6h-60z"/><circle cx="243" cy="108" r="2"/><path fill="#b5aea8" d="M175.8 57.5l29 26-2.6 3-29-26z"/><path fill="#635c57" d="M19.7 102.4l-.9-.2-.9-28.6-11.1 36.6z"/><path fill="#b1aaa4" d="M52 76l16 10-40-8z"/><path fill="#d3ccc6" d="M85.9 57.5l-15.9-2 .1-1 15.9 2z"/><path fill="#a7a09a" d="M111.5 48l58.9-3.7-21.1 20.4-25.8 6.2z"/><path fill="#d4cdc7" d="M156 33h13v5h-13z"/><path fill="#423a36" d="M74.8 98.7l4.4-4 6 6.6-4.4 4z"/><path fill="#b7b1aa" d="M42.2 127l-2.5-6.5 56-21.5 2.6 6.5z"/><path fill="#aca59f" d="M135.4 72.7l-39 20.2 10.7-7.5.2 11.8z"/><path fill="#bcb5af" d="M182 111h59v9h-59z"/><path fill="#3a332e" d="M246.5 46.9l11.1-3.2-14.3 14.8 10.6-3z"/><path fill="#443d38" d="M150.4 131l-2.5-6.6 3.7-1.4 2.5 6.6z"/><path fill="#7b736e" d="M105.1 122l17.6-16.3-5.3-15.3-7 8.5z"/><path fill="#dfd8d2" d="M-3.6-.1L9.8 7.6l48.5-4 122-3.8z"/><path fill="#bab3ad" d="M123.4 79.5L192.5 68l48.1-20.6-81.9 29.3z"/><path fill="#bbb4ae" d="M97 70H84l21 8z"/><path fill="#beb7b1" d="M131.7 99.8l-8.7 12-16.1 9.7 35-32.6z"/><path fill="#c5beb7" d="M244 111h12v13h-12z"/><path fill="#58514c" d="M31 103l-13 7 20-1z"/><path fill="#19120e" d="M112.3 84.8l-.8.6-11.8-16.2.8-.6z"/></g></g></svg>