<svg xmlns="http://www.w3.org/2000/svg" viewBox="0 0 900 1200"><defs/><filter id="a"><feGaussianBlur stdDeviation="12"/></filter><rect width="100%" height="100%" fill="#544339"/><g filter="url(#a)"><g fill-opacity=".5" transform="translate(2.3 2.3) scale(4.6875)"><circle r="1" fill="#e3e2c9" transform="matrix(-151.32732 116.53773 -101.27746 -131.51146 122.4 171.5)"/><circle cx="69" cy="232" r="55" fill="#363c46"/><path d="M48 15h59v30H48z"/><circle r="1" fill="#fffff7" transform="rotate(-100.4 107.1 20.8) scale(75.5315 14.65794)"/><circle r="1" fill="#dfcfac" transform="rotate(-11.3 465.9 -211.7) scale(159.51115 37.69247)"/><circle r="1" fill="#89958f" transform="matrix(-28.16289 -17.80486 31.6054 -49.99194 17 7.5)"/><circle r="1" fill="#161206" transform="matrix(13.2115 -3.40031 15.9005 61.77943 110.7 255)"/><ellipse cx="114" cy="7" fill="#fff" rx="9" ry="18"/><path d="M49 26h74v14H49z"/><circle r="1" fill="#6b7481" transform="rotate(-178.1 24.8 114.4) scale(42.82959 104.88093)"/><path fill="#fff" d="M122.7 192.2l.4-67.1-25.2 28.4 15.7 60z"/><path fill="#9a7f56" d="M190.6 126.5l67.6 65.3-84.8 87.7-67.6-65.3z"/><ellipse cx="155" cy="83" fill="#baa27d" rx="72" ry="54"/><path fill="#20232b" d="M66.4 129.1L48.3 124l21.8 48.8 5.3-17.2z"/><ellipse cx="39" cy="90" fill="#ccc7b4" rx="87" ry="39"/><path fill="#0a0803" d="M98 170h7v51h-7z"/><circle r="1" fill="#d9c093" transform="matrix(9.98778 2.69647 -5.43038 20.11424 75 244.9)"/><path fill="#5d5c55" d="M100.5-18.7l7.4 46.4-44.4 7L56-11.7z"/><ellipse cx="159" cy="36" fill="#b9a079" rx="38" ry="136"/><path fill="#020000" d="M50 10h12v37H50z"/><path fill="#3b3f38" d="M110.8 125.4L107 146l-7.9-1.4L103 124z"/><path fill="#fff" d="M110-16l13 39-17-1z"/><circle r="1" fill="#8496a9" transform="matrix(56.19951 -8.77603 3.60382 23.07796 0 151.9)"/><circle r="1" fill="#383a42" transform="rotate(65.2 -95.2 145.2) scale(36.52097 5.392)"/><circle r="1" fill="#707069" transform="matrix(23.70997 13.82783 -15.6838 26.89232 22.3 23.6)"/><path fill="#fff" d="M110 129h12v69h-12z"/><path fill="#111211" d="M104 222h18v34h-18z"/><path fill="#c2cdd8" d="M85 119l-17 12 16 38z"/><circle r="1" fill="#fff" transform="matrix(11.77627 29.84648 -3.92657 1.54927 102.9 157.8)"/><circle cx="101" cy="91" r="38" fill="#beb199"/><path fill="#1b0f00" d="M48.1 48.4l36.7-5.5L126.3 26l-73.5 7.9z"/><path fill="#b6aa90" d="M105.2 221.9l.9-39.8 5.9 15.5 34.2 5z"/><ellipse cx="130" cy="154" fill="#b2a184" rx="8" ry="214"/><path d="M82 131h1v34h-1z"/><path fill="#180e04" d="M105-10l1 36-7-14z"/><path d="M84.5 126.3l1-.4 18 49.8-1 .4z"/><path fill="#fff" d="M91 0h2v29h-2z"/><ellipse cx="77" cy="147" rx="1" ry="20"/><path fill="#fff" d="M84.5 29h-2l-1-58h2z"/><path fill="#adb0af" d="M97 0h5v23h-5z"/><circle r="1" fill="#787f8a" transform="matrix(-22.13818 1.27453 -4.22654 -73.41392 16 221.3)"/><path fill="#b2a687" d="M93 228h5v22h-5z"/><path d="M93 3h4v17h-4z"/><path fill="#0b0200" d="M52 9L69-4 51 29z"/><path fill="#171105" d="M110 25L73 42l53-6z"/><circle r="1" fill="#d6d4c5" transform="rotate(-164.4 7.4 53.5) scale(36.09885 19.31865)"/><circle r="1" fill="#8b7557" transform="matrix(-25.40245 -11.10214 18.23683 -41.7271 181.4 240.5)"/><path fill="#a3a9ab" d="M64 3h4v33h-4z"/><path fill="#57564d" d="M104 231l-63-19 42-19z"/><path d="M79 0h2v31h-2z"/><ellipse cx="173" cy="34" fill="#b7a17a" rx="51" ry="60"/><ellipse cx="86" cy="165" fill="#222833" rx="1" ry="35"/><path fill="#f6ffff" d="M106-16v41l17-14z"/><path fill="#848682" d="M35 0h14v50H35z"/><path fill="#fff" d="M120 199l1-73-20 28z"/><path fill="#3d321f" d="M86.9 237.9l11.5-40.2L87 253.2 79.5 271z"/><ellipse cx="91" cy="166" fill="#feffff" rx="1" ry="20"/><path fill="#fff" d="M94 158h1v34h-1z"/><ellipse cx="72" cy="11" fill="#2e2617" rx="4" ry="34"/><circle r="1" fill="#978c74" transform="matrix(-7.86757 -3.83727 8.03205 -16.46814 65.2 240.7)"/><ellipse cx="72" cy="139" fill="#090a09" rx="1" ry="13"/><circle r="1" fill="#c0b295" transform="matrix(45.31975 -7.5082 3.347 20.20266 88.6 63)"/><ellipse cx="99" cy="16" fill="#090200" rx="1" ry="17"/><path fill="#292215" d="M117.9 37.8l-48.2-6.2 61-8.9-63 22.6z"/><path fill="#fff" d="M81.1 161.8L79 161l.2-52.2 1.3 28.5z"/><ellipse cx="87" cy="13" fill="#2a251c" rx="3" ry="11"/><path fill="#c2b8a2" d="M78.2 127.5l-31.7-.7 52.7-50.2 47.8 51.1z"/><path fill="#d8ddde" d="M97 20h5v6h-5z"/><path fill="#8c8d8c" d="M71.8-5h1l-2.6 36h-1z"/><circle r="1" fill="#a39175" transform="matrix(-38.10382 54.82422 -14.43129 -10.03 163.4 153.4)"/><ellipse cx="27" cy="141" fill="#929a9f" rx="27" ry="15"/><path fill="#70757b" d="M97 188l-81 4 9-34z"/><path fill="#2b2d30" d="M59 145l8-18H49z"/><path fill="#fff" d="M73 129h3v20h-3z"/><path fill="#b3a387" d="M177 45l-54-25v181z"/><path fill="#363f45" d="M89.6 137l1.8 54h-1l-1.8-54z"/><path fill="#221300" d="M53 7h10v37H53z"/><ellipse cx="100" cy="132" fill="#a3a599" rx="4" ry="14"/><ellipse cx="88" cy="10" fill="#bbbec0" rx="1" ry="18"/><path fill="#737268" d="M34.7 26.6L40.9-16 3.2 55.1l44.6-6.6z"/><path fill="#c9bda9" d="M78 268l9-36-24 30z"/><path fill="#f1ffff" d="M87.5 136.5l2 23h-1l-2-23z"/><path fill="#1e1100" d="M103.2 16.2l-30.8 7.6.5-1.1.5-1.8z"/><path fill="#24231e" d="M110.3 129.8l-1.6 10.9-3-.5 1.6-10.9z"/><path fill="#89909a" d="M56 143l-18 25 37 7z"/><path fill="#3a3933" d="M86 196l17-11-1 42z"/><path fill="#aaafa8" d="M78 29L75 1h1l3 27.8z"/><path fill="#fff" d="M122 135l-24 20 14 33z"/><path fill="#faffff" d="M88.3 126.5l12.3 30.6-.9.4-12.3-30.6z"/><path fill="#848787" d="M100.9-16L57.5 3 40 24.5 51.2-16z"/><path fill="#cfcebd" d="M105 198v-13l9 17z"/><path fill="#f5fbff" d="M106 15h5v11h-5z"/><path fill="#cbc4ab" d="M19 111l-35-52 57-10z"/><ellipse cx="84" cy="151" fill="#fff" rx="1" ry="21"/><ellipse cx="93" cy="160" fill="#303437" rx="1" ry="17"/><path fill="#45474e" d="M82 165l2 28-19-40z"/><path fill="#decea8" d="M92 234h2v22h-2z"/><path fill="#dce6ee" d="M87 140h2v41h-2z"/><path fill="#6a6c71" d="M80.6 183.9l33.4 17.2L92.6 188 73 147.7z"/><path fill="#a09177" d="M123 160h24v96h-24z"/></g></g></svg>