<svg xmlns="http://www.w3.org/2000/svg" viewBox="0 0 1200 841"><defs/><filter id="prefix__a"><feGaussianBlur stdDeviation="12"/></filter><rect width="100%" height="100%" fill="#474648"/><g filter="url(#prefix__a)"><g transform="translate(2.3 2.3) scale(4.6875)"><circle cx="129" cy="109" r="178" fill="#fff" fill-opacity=".5"/><circle cx="135" cy="83" r="187" fill="#fff" fill-opacity=".5"/><circle cx="81" cy="119" r="215" fill="#fff" fill-opacity=".5"/><circle cx="172" cy="76" r="202" fill="#fff" fill-opacity=".5"/><path fill="#92acd7" fill-opacity=".5" d="M160 58l-22 40-49 2z"/><path fill="#e60000" fill-opacity=".5" d="M169 73l-.3.9L112.9 49l.4-1z"/><circle r="1" fill="#fff" fill-opacity=".5" transform="rotate(113.4 75.2 123.6) scale(255 66.24854)"/><path fill="#f33a33" fill-opacity=".5" d="M89.1 154.1l8.8-16.4 10.8-44.5-19.4 58.1z"/><path fill="#ee352c" fill-opacity=".5" d="M150.9 123.3l2.2 1.2-52.2-76.8 49.8 67.6z"/><circle r="1" fill="#fff" fill-opacity=".5" transform="rotate(-172.8 25.2 31.5) scale(55.04863 255.00001)"/><circle r="1" fill="#fff" fill-opacity=".5" transform="rotate(93.6 65.1 74.8) scale(31.35926 226.96719)"/><circle r="1" fill="#fff" fill-opacity=".5" transform="matrix(-111.83435 11.81015 -5.75152 -54.4631 191.3 168.4)"/><path fill="#ec534d" fill-opacity=".5" d="M106 50l-1 7 12 10z"/><path fill="#f4635c" fill-opacity=".5" d="M114 49l-14-3 13-1z"/><path fill="#94c2ee" fill-opacity=".5" d="M126 94l-39-3 6 11z"/><path fill="#6db2f2" fill-opacity=".5" d="M150.3 65l-5.7-4.2 7.1-9.7 5.7 4.1z"/><path fill="#f71307" fill-opacity=".5" d="M102.2 111.6L114.9 80l1 .3L103 112z"/><circle r="1" fill="#fff" fill-opacity=".5" transform="rotate(36.8 -140.6 237.5) scale(14.53223 23.97119)"/><path fill="#ebffff" fill-opacity=".5" d="M116 75l-8 26 15-19z"/><circle r="1" fill="#fff" fill-opacity=".5" transform="matrix(-56.37308 37.99377 -142.51594 -211.45734 0 165.4)"/><path fill="#fff" fill-opacity=".5" d="M89.2 46.6l170-42.5-222-9.2 83 64.6z"/><path fill="#b6e3ff" fill-opacity=".5" d="M138.1 93.6l22.5-23.9-18.1-7.9-11.2 26.9z"/><path fill="#ea1f16" fill-opacity=".5" d="M167 70h4v3h-4z"/><path fill="#fff" fill-opacity=".5" d="M143 62l-16-6 7 22z"/><path fill="#fefefe" fill-opacity=".5" d="M189 80.3l-30.6-11.1-24.7 25.2L271 145.3z"/><circle r="1" fill="#fff" fill-opacity=".5" transform="matrix(-151.8475 80.73875 -21.03955 -39.56963 217 141.9)"/><circle r="1" fill="#f9f9f8" fill-opacity=".5" transform="matrix(16.69364 4.80379 -1.4641 5.08792 122.3 46.2)"/><path fill="#f4f5f4" fill-opacity=".5" d="M142.5 111.3l-10.1-17.5-20.2 5.6 49.8 58.1z"/><path fill="#f9fafa" fill-opacity=".5" d="M123 84L96 39 68 80z"/><path fill="none" stroke="#ed0a03" stroke-opacity=".5" stroke-width=".5" d="M104.5 52.3Q131 90 149.8 118"/><path fill="none" stroke="#ef3932" stroke-opacity=".5" stroke-width=".5" d="M98.9 42.4q25.8 14.2 57 23.1"/><circle r="1" fill="#fff" fill-opacity=".5" transform="matrix(-8.03525 -15.70226 45.87417 -23.475 10.2 43.8)"/><path fill="#94d1f6" fill-opacity=".5" d="M125.1 95.2l-11 4.9-3.2-7.3 11-4.9z"/><path fill="#9fd3fb" fill-opacity=".5" d="M127.4 80.8l-.6.6 11.8 9.8 15.9-24.6z"/><path fill="#fff" fill-opacity=".5" d="M102.9 149.9l-9.9-3.1 19.8-51.1 10 8.1z"/><circle r="1" fill="#e8e8e8" fill-opacity=".5" transform="rotate(63.6 -64.3 166) scale(1.97287 26.74064)"/><path fill="#f6f5f3" fill-opacity=".5" d="M145.3 83.8l-9.7 9.5 6.7 11.1 21.3 31.9z"/><path fill="#eaeaea" fill-opacity=".5" d="M78.1 150.9L28.7 86.7l3.8 9.8 48.2 62.1z"/><path fill="#f1706a" fill-opacity=".5" d="M154.4 65.8l13.3 7h-1.8l5.8-3.1z"/><circle r="1" fill="#fdfdfd" fill-opacity=".5" transform="matrix(1.9698 -8.20473 28.8333 6.9223 186.8 68)"/><path fill="#fcfcfa" fill-opacity=".5" d="M130.1 78.8l-3.1 5.1-7.1-28.9 24.7 12.4z"/><path fill="#e44140" fill-opacity=".5" d="M113.2 64.6l8.1 11.4 5.7 6.9.9 6.2z"/><path fill="none" stroke="#f45a58" stroke-opacity=".5" stroke-width=".5" d="M74.1 194q5.6-6.5 29.3-82.3"/><path fill="#ededed" fill-opacity=".5" d="M39.8 56l23.8-13.5L6.8 68.9l69.8-45.8z"/><ellipse cx="105" cy="176" fill="#fff" fill-opacity=".5" rx="255" ry="17"/><path fill="none" stroke="#ed1d18" stroke-opacity=".5" stroke-width=".5" d="M130.8 57.6q8.8 1.8 34.8 13.2"/><path fill="#f5f5f5" fill-opacity=".5" d="M99.6 41.6l-40-3.8 17-12.7 41.3 39.6z"/><path fill="none" stroke="#ea413e" stroke-opacity=".5" stroke-width=".5" d="M154.4 128q2.7-3.1-29.4-45.1"/><path fill="#ee1610" fill-opacity=".5" d="M100.9 122.3l-3 4-.8-.6 3-4z"/><path fill="#fff" fill-opacity=".5" d="M271-7l-14 79L88 18z"/><path fill="#fffefe" fill-opacity=".5" d="M36 84h74v8H36z"/><path fill="#ebebeb" fill-opacity=".5" d="M190.5 96.5L237 82l-5.2 3-51.6 21.2z"/><path fill="#fff" fill-opacity=".5" d="M78 101h24v14H78z"/><path fill="#adadad" fill-opacity=".5" d="M162.4 143.9l-9-.8.2-1 9 .8z"/><path fill="#fff" fill-opacity=".5" d="M271 56.5l-94.7 75.1-37.1-16.2 93.2 78.6z"/><path fill="none" stroke="#e63738" stroke-opacity=".5" stroke-width=".5" d="M111.2 94.5Q97.9 121.1 91.7 150"/><path fill="#9fd6ff" fill-opacity=".5" d="M107 101L95 91l-7 6z"/><path fill="#ebeced" fill-opacity=".5" d="M108.7 83.7L82.4 41.1 76.5 47 123 88.2z"/><path fill="none" stroke="#ec2c26" stroke-opacity=".5" stroke-width=".5" d="M103.7 53.7q6.4 5.6 33.2 44.7"/><path fill="none" stroke="#eb2c27" stroke-opacity=".5" stroke-width=".5" d="M115 67.4q22.8 34.4 37.5 52.4"/><circle cx="165" cy="70" r="1" fill="#f40000" fill-opacity=".5"/><path fill="#f41f17" fill-opacity=".5" d="M141 62l-14.4-7 .4-1 14.4 7z"/><circle cx="115" cy="57" r="5" fill="#e0e2e1" fill-opacity=".5"/><circle cx="153" cy="59" r="4" fill="#9cd4ff" fill-opacity=".5"/><path fill="none" stroke="#f24c48" stroke-opacity=".5" stroke-width=".5" d="M84.5 163q7-11.3 17.8-48.2"/><ellipse cx="82" cy="158" fill="#fcfdfd" fill-opacity=".5" rx="8" ry="92"/><path fill="#fafbfb" fill-opacity=".5" d="M202.7 85.3L191.9 56l-30.6-9-5.7 17.6z"/><circle cx="123" cy="91" r="6" fill="#9fd6fa" fill-opacity=".5"/><path fill="none" stroke="#f2ddda" stroke-opacity=".5" stroke-width=".5" d="M69.6 36.6q33.8 9.7 73.6 26.2"/><path fill="#fefefe" fill-opacity=".5" d="M99.6 111.6l-.7 11.9-12.7 24.7-65.7-81.6z"/><path fill="#a8d3f9" fill-opacity=".5" d="M150.4 77L139 89.7l-7.4-6.7L143 70.3z"/><path fill="#e7e9ea" fill-opacity=".5" d="M134.7 136.6l-3.6-43.1-11.5 5.2 18.3 27.3z"/><path fill="#fff" fill-opacity=".5" d="M103 89h6v4h-6z"/><path fill="#fbf9f9" fill-opacity=".5" d="M102.2 28.5L45.7 51.4l45.2-11.1 30.3 10.8z"/><circle cx="104" cy="46" r="1" fill="#ef0000" fill-opacity=".5"/><path fill="none" stroke="#ef1e18" stroke-opacity=".5" stroke-width=".5" d="M106.4 55.4q2.6 3.3 16.7 24"/><path fill="#e9e9e9" fill-opacity=".5" d="M15 63l15 24-8-28z"/><path fill="#fdfbfa" fill-opacity=".5" d="M147.1 49.6l38.7-25.1-47.9 33.7-28.8-12z"/><circle cx="112" cy="96" r="3" fill="#90c9fb" fill-opacity=".5"/><path fill="#e2e2e2" fill-opacity=".5" d="M234.5 71.5l-2.6-3.4-21.3-7.8-23.6-8.7z"/><path fill="#d4d7d7" fill-opacity=".5" d="M96.1 161.7l-14.6-6.5.4-1 14.6 6.6z"/><path fill="#fff" fill-opacity=".5" d="M107 144H95l7-23z"/><circle r="1" fill="#fff" fill-opacity=".5" transform="rotate(-104.7 52.2 49.1) scale(60.53407 15.80871)"/><path fill="#f10000" fill-opacity=".5" d="M107.9 46.3l.2 1-2 .4-.2-1z"/><circle r="1" fill="#e5e1e0" fill-opacity=".5" transform="rotate(-39 135.6 -102) scale(1 32.95286)"/><path fill="#a1d2fb" fill-opacity=".5" d="M143 66h9v9h-9z"/><path fill="#f23531" fill-opacity=".5" d="M96.7 130l8.6-22.1-4.8 14-7.6 24.7z"/><path fill="#f4f6f4" fill-opacity=".5" d="M86.2 40.4l50 20.3-.4.9-50-20.3z"/><path fill="#f4f7f6" fill-opacity=".5" d="M102 51l16 24-6 6z"/><path fill="#fefdfd" fill-opacity=".5" d="M113.8 54.2l-18.9-4.3-88-56.2 87 45.3z"/><path fill="none" stroke="#ec322d" stroke-opacity=".5" stroke-width=".5" d="M107.8 57.2q11 17 31 43.4"/><path fill="#fffef9" fill-opacity=".5" d="M116.3 87.7l-2.7-5.4 8.1-4 2.7 5.4z"/><path fill="#e2e2e2" fill-opacity=".5" d="M124 46h39v2h-39z"/><path fill="#ec3c39" fill-opacity=".5" d="M171.8 72.7l-.4 1-43.2-18.4.4-1z"/><path fill="#b2dbfa" fill-opacity=".5" d="M145 52h10v10h-10z"/><path fill="#badaf1" fill-opacity=".5" d="M140 58.2l.5-1 13.5 6.6-.5 1z"/><path fill="#fbfaf9" fill-opacity=".5" d="M143.9 92l34.5-14.4-20-8.9-3.2 1.5z"/><path fill="#feffff" fill-opacity=".5" d="M182 65l-27-2 25 11z"/><ellipse cx="105" cy="45" fill="#ee6b61" fill-opacity=".5" rx="2" ry="1"/><path fill="#d9d8d8" fill-opacity=".5" d="M116 56.7l.8-.6L130 77.3l-.8.6z"/></g></g></svg>