<svg xmlns="http://www.w3.org/2000/svg" viewBox="0 0 1200 910"><defs/><filter id="a"><feGaussianBlur stdDeviation="12"/></filter><rect width="100%" height="100%" fill="#444"/><g filter="url(#a)"><g fill-opacity=".5" transform="translate(2.3 2.3) scale(4.6875)"><circle r="1" fill="#e9e9e9" transform="matrix(-7.01027 244.05273 -125.81231 -3.61388 104.8 116.7)"/><circle cx="84" r="84" fill="#efefef"/><circle r="1" fill="#666" transform="matrix(-56.86424 -1.3083 2.95616 -128.48708 220.1 102)"/><circle cx="39" cy="109" r="57" fill="#5d5d5d"/><ellipse cx="139" cy="22" fill="#fff" rx="17" ry="87"/><circle r="1" fill="#bdbdbd" transform="matrix(3.68356 -16.16514 49.85671 11.3609 241 179.1)"/><circle r="1" fill="#363636" transform="rotate(75.2 32.5 209.1) scale(27.80212 54.99545)"/><ellipse cx="70" cy="69" fill="#9b9b9b" rx="67" ry="48"/><circle r="1" fill="#9d9d9d" transform="matrix(25.42518 6.33921 -15.13342 60.69682 239.7 10.3)"/><circle r="1" fill="#1f1f1f" transform="matrix(-18.10406 12.91867 -6.91258 -9.68721 18.1 142.6)"/><circle r="1" fill="#fdfdfd" transform="matrix(14.2 -24.50172 30.25348 17.53345 23 7.7)"/><path fill="#f6f6f6" d="M128 124h37v23h-37z"/><ellipse cx="126" cy="11" fill="#fff" rx="34" ry="33"/><circle r="1" fill="#444" transform="matrix(-3.65083 -.07045 1.76827 -91.6294 58.5 81.1)"/><path fill="#4a4a4a" d="M210 28l3 103-42-57z"/><ellipse cx="27" cy="76" fill="#4f4f4f" rx="3" ry="91"/><ellipse cx="88" cy="49" fill="#555" rx="3" ry="118"/><path fill="#5b5b5b" d="M98.2 146.2l3.9-31.8 27.7 3.4-3.9 31.8z"/><path fill="silver" d="M76 69l87 40-98-12z"/><path fill="#343434" d="M-12 159l99-12-47-9z"/><path d="M242 111h14v37h-14z"/><path fill="#b3b3b3" d="M31 153h95v29H31z"/><path fill="#5e5e5e" d="M83.2 181.9l1.3-90.7 19.3-47.5-8.6 46.6z"/><path fill="#ececec" d="M205 153l-6-13 5-14z"/><circle r="1" fill="#e5e5e5" transform="matrix(-8.4997 -27.94773 9.70796 -2.95247 43.6 38.6)"/><path fill="#f1f1f1" d="M107 102L97 74v56z"/><path fill="#2c2c2c" d="M52 149h9v23h-9z"/><path fill="#c2c2c2" d="M38 143l-4-48 19 24z"/><circle r="1" fill="#858585" transform="rotate(66.9 -56.8 205) scale(23.65315 42.64021)"/><path fill="#fff" d="M220 48v16l-6-1z"/><path fill="#6d6d6d" d="M147 64l30 92 21-130z"/><path fill="#f6f6f6" d="M50-16l19 30 59-28z"/><path fill="#c1c1c1" d="M-16.7 13.7l47 34-13.6 18.6-47-34z"/><ellipse cx="201" cy="96" fill="#9a9a9a" rx="3" ry="45"/><path fill="#b2b2b2" d="M188 94h4v78h-4z"/><path fill="#747474" d="M273.5 168.4l-74-3.8 1-19 74 3.8z"/><path fill="#b2b2b2" d="M182.4 82.6l-18.9 12.9 1.3 6.3 16.8-1.9z"/><path fill="#5a5a5a" d="M224 26h16v96h-16z"/><path fill="#ccc" d="M90 45l60 24-50-74z"/><path fill="#dbdbdb" d="M85 97l-13-4 14-33z"/><path fill="#bababa" d="M150.4 127.8l10.8-98.5-20.8 47.2-21.2 101z"/><path fill="gray" d="M76.2 82.1L61.1 94.3l.1-63.6 8.3-18.2z"/><path fill="#333" d="M27 82h5v48h-5z"/><path fill="#121212" d="M183 105h3v47h-3z"/><ellipse cx="208" cy="95" fill="#1f1f1f" rx="2" ry="63"/><path fill="#9e9e9e" d="M177 25l58-15-88-26z"/><path fill="#525252" d="M99 26H85l1-12z"/><ellipse cx="113" cy="123" fill="#d2d2d2" rx="2" ry="28"/><path fill="#0b0b0b" d="M94 122h2v21h-2z"/><path fill="#c9c9c9" d="M211.4 79l-3-.7L220.7 33l3 .8z"/><ellipse cx="196" cy="125" fill="#2f2f2f" rx="4" ry="25"/><path fill="#404040" d="M109 116h4v36h-4z"/><circle r="1" fill="#dadada" transform="matrix(-.99976 -.0218 .81553 -37.40067 119.4 108.7)"/><path fill="#272727" d="M218 126h16v20h-16z"/><path fill="#8b8b8b" d="M126.6 64.7L106 125l6-48.3-26.1-26.1z"/><ellipse cx="213" cy="121" fill="#a3a3a3" rx="2" ry="35"/><path fill="#f2f2f2" d="M56.6 38.4L21.1 2.5 34.3-16l19.1 8.4z"/><path fill="#fff" d="M137.8-16l16.9 54.5-12 11L108.9 16z"/><path fill="#444" d="M65.7 79l-7.5 47.3-8-1.2 7.6-47.4z"/><path fill="#fff" d="M158.8 140.2l.3 6-30 1.6-.2-6z"/><path fill="#515151" d="M45.5 107.4l-34.7-36-8.7 3.8 20.2 12.5z"/><path fill="#cbcbcb" d="M207 75.3l1.9 9.8-7.9 1.6-1.9-9.8z"/><circle cx="201" cy="104" r="3" fill="#fff"/><path fill="#f7f7f7" d="M16.7 9.5l12.7 23.1-35.1-2.7L-9.4-16z"/><path fill="#3c3c3c" d="M183.2 78.2l15.2 8.2h17.2l-11.7 13.4z"/><path fill="#9f9f9f" d="M240 31l18 6-28-53z"/><circle r="1" fill="#b2b2b2" transform="matrix(10.10742 6.83688 -15.933 23.55482 89.5 179.2)"/><path fill="#7d7d7d" d="M234 196.5l-76.2-45.1-11.4 42.5 63.7 1.4z"/><path fill="#3a3a3a" d="M56 150l-72 1 54-17z"/><path fill="#c7c7c7" d="M13.1 101.6l-1-6.9 14.8-2.3 1 6.9z"/><path fill="#757575" d="M25 134l-41 13 30-67z"/><path fill="#7b7b7b" d="M252 98l-28 11 47-4z"/><path fill="#404040" d="M71 107h4v45h-4z"/><path fill="#3c3c3c" d="M271 83l-39.3-22.8 12.4 35.9.3 11.7z"/><path fill="#686868" d="M121.8 119.3l1-26.5 10.4 27.4-13.6 19.1z"/><path fill="#aeaeae" d="M163.1 148.4l-2.2 1.5 88.6 59.1-100.2-78.2z"/><path fill="#acacac" d="M76 93h7v46h-7z"/><path fill="#434343" d="M175 64h2v87h-2z"/><path fill="#494949" d="M84 154.7l-2 8.6 7.2-4.2-1.6-63.6z"/><path fill="#7f7f7f" d="M222 112.4l-14.6-39.8L245.2 41l-5.7-4.1z"/><circle r="1" fill="#a1a1a1" transform="rotate(-111.1 74.1 88.9) scale(33.03464 26.42243)"/><path fill="#dedede" d="M91 35L66 1l-5 16z"/><path fill="#404040" d="M193 29h4v67h-4z"/><path fill="#333" d="M236 146h6v21h-6z"/><path fill="#606060" d="M195.8 5.8L232.6-16l-41.4 31.4-16.8 7.5z"/><path fill="#393939" d="M218 24l7-6 2 15z"/><path fill="#fff" d="M97 137h4v10h-4z"/><path fill="#bfbfbf" d="M40 126h6v17h-6z"/><path fill="#989898" d="M20 14l14-5.8.6 2.1-5.7 17z"/><path fill="#4c4c4c" d="M207.5 159l15.5-28.3-19.5 20.3-20.4.1z"/><path fill="#c7c7c7" d="M59 163.3l3.4-12.5 14.5 3.9-3.3 12.5z"/><path fill="#bdbdbd" d="M178 121h3v26h-3z"/><path fill="#8e8e8e" d="M101.3 16.5l-8.4 11.4L82.3-16l1.1 39.7z"/><path fill="#595959" d="M87.8 141.1l.9-1.2-33.9 16-11.1-22.8z"/><path fill="#f2f2f2" d="M211 2l2 7 9 2z"/><path fill="#fcfcfc" d="M208 145l-7-2-1-6z"/><path fill="#e7e7e7" d="M87.8 12.2l43.1 10.5L61.4-16 88.3 1.2z"/><path fill="#a0a0a0" d="M215.6 167.5l44 9.1-12.2-21.6-18.3 54z"/><path fill="#c3c3c3" d="M48.8 59.1l-1.9-40.9 24.9 41.7-7.9-22.1z"/><ellipse cx="14" cy="50" fill="#aaa" rx="12" ry="21"/></g></g></svg>