<svg xmlns="http://www.w3.org/2000/svg" viewBox="0 0 1200 1082"><defs/><filter id="a"><feGaussianBlur stdDeviation="12"/></filter><rect width="100%" height="100%" fill="#473c3c"/><g filter="url(#a)"><g fill-opacity=".5" transform="translate(2.3 2.3) scale(4.6875)"><circle r="1" fill="#fff" transform="rotate(-160.5 73.8 44.1) scale(177.30303 172.86487)"/><ellipse cx="132" cy="111" fill="#fff" rx="224" ry="140"/><circle cx="152" cy="101" r="192" fill="#fff"/><circle r="1" fill="#fff" transform="matrix(251.97493 29.03135 -15.8099 137.22054 127.7 100.4)"/><path fill="#3a3b3b" d="M11 226h49v4H11z"/><circle cy="155" r="71" fill="#fff"/><circle r="1" fill="#c4c4c3" transform="matrix(6.4144 29.75616 -10.71072 2.30886 65 126)"/><circle cx="167" cy="135" r="75" fill="#e8eae9"/><circle r="1" fill="#fff" transform="matrix(156.1507 48.35231 -8.38498 27.07877 90.8 206.5)"/><ellipse cx="232" cy="198" fill="#a1a1a1" rx="86" ry="2"/><ellipse cx="242" cy="152" fill="#8e8e8e" rx="99" ry="2"/><path fill="#d2d3d3" d="M32 3h55v29H32z"/><ellipse cx="197" cy="141" fill="#adacad" rx="54" ry="3"/><ellipse cx="17" cy="102" fill="#fff" rx="34" ry="123"/><ellipse cx="177" cy="207" fill="#7b7b7b" rx="22" ry="2"/><circle r="1" fill="#fff" transform="matrix(-21.63652 -4.876 15.90617 -70.58125 241.4 70.3)"/><path fill="#fff" d="M184 144h29v51h-29z"/><ellipse cx="173" cy="189" fill="#8e8e8e" rx="22" ry="2"/><ellipse cx="53" cy="25" fill="#b4b5b5" rx="2" ry="84"/><ellipse cx="249" cy="194" fill="#fff" rx="12" ry="41"/><ellipse cx="74" cy="65" fill="#fff" rx="21" ry="35"/><path fill="#787778" d="M153 160h30v3h-30z"/><path fill="#c0c1c1" d="M105 169l-2 14-34-26z"/><ellipse cx="96" cy="27" fill="#b8b9b9" rx="2" ry="86"/><path fill="#cacbcb" d="M204.4 51.1l27.3 47.8-17.4-41.7L230.9 30z"/><path fill="#d9d9d7" d="M120 77l55 50-18-63z"/><ellipse cx="130" cy="185" fill="#a6a5a6" rx="15" ry="3"/><path fill="#7b7a7b" d="M213 160h26v3h-26z"/><path fill="#8b8a8b" d="M153 169h34v3h-34z"/><path fill="#dcdddc" d="M56 93h44v49H56z"/><ellipse cx="227" cy="216" fill="#818282" rx="14" ry="2"/><circle r="1" fill="#fff" transform="matrix(3.14015 -18.10845 117.76461 20.42133 191.8 0)"/><path fill="#b5b5b5" d="M230 103h4v43h-4z"/><path fill="#838484" d="M163 218l9-3-17-1z"/><path fill="#d5d6d6" d="M173.3 21.3L215.8 10l-18.6 20 13.7 26.3z"/><ellipse cx="192" cy="141" fill="#6b6b6b" rx="27" ry="1"/><circle r="1" fill="#c3c3c3" transform="matrix(-20.90528 -18.95447 1.51035 -1.6658 182.7 57.6)"/><path fill="#565757" d="M215 188h19v2h-19z"/><path fill="#acabab" d="M55 116.3l15.5 36.6-11.8-14.7-3-11.8z"/><path fill="#fff" d="M28 220l17-70 170 95z"/><path fill="#aaa" d="M143 137h3v51h-3z"/><path fill="#c4c4c4" d="M33 4h3v88h-3z"/><path fill="#fff" d="M146 91h8v139h-8z"/><circle r="1" fill="#fff" transform="matrix(-.13525 -5.92764 48.7775 -1.11292 172.8 130.5)"/><path fill="#c6c7c7" d="M109 27.8l1-3.8 53 14.2-1 3.8z"/><path fill="#fff" d="M63 10h59v14H63zm167.6 54.6l5.4 83.2 27.7 4.2-11.8-168zM140 190h116v6H140z"/><path fill="#cbcccc" d="M101.1 6l.8-4 51 10-.8 4z"/><path fill="#8d8e8e" d="M217 206h15v3h-15z"/><path fill="#fff" d="M128 34l-19 94-7-61z"/><path fill="#bebebe" d="M148.9 137.9l-28.7 13.8-13.7-11.4 36.6 15.4z"/><path fill="#fff" d="M211 58.4l14.8 35-14.7 6.2-14.9-35zm-17 151.1l-49-2.5 74.1 14.3-.6-36.5z"/><ellipse cx="3" cy="24" fill="#fff" rx="30" ry="202"/><path fill="#d7d7d7" d="M20 177L8 190l29 3z"/><path fill="#878787" d="M192 197h47v2h-47z"/><circle r="1" fill="#fdfdfe" transform="rotate(125 5.8 107.4) scale(7.18932 34.85256)"/><path fill="#dbdbd9" d="M183 120.9l-14.7-35.8-18.6 15.2 9.5 29.2z"/><path fill="#fff" d="M125.3 140.2l84.5 60.2 55.7-3.8-17.8 22.6z"/><path fill="#706f70" d="M166.9 178.6l.2 2-8 .8-.2-2z"/><path fill="#7b7a7b" d="M219 169h11v3h-11z"/><ellipse cx="184" cy="157" fill="#fff" rx="70" ry="3"/><path fill="#fff" d="M177.6 28.6l-6.3 14.7-46.9-19.9 6.3-14.7zM178 60l-38 42 51-30z"/><ellipse cx="61" cy="3" fill="#fff" rx="226" ry="2"/><path fill="#b3b3b3" d="M71.4 158.6l15.1 13.3-22.9-30.8 4.6-4.6z"/><path fill="#fff" d="M150 186l70-28-10 27z"/><path fill="#a09fa0" d="M226 180l3-4-16 3z"/><path fill="#bababa" d="M43 5h64v3H43z"/><path fill="#fff" d="M42.8 218.8l194.8-1.1 13.9-59.9L271 245z"/><path fill="#c3c3c3" d="M35 93h68v3H35z"/><path fill="#fff" d="M121 199h112v6H121zm7 31L2 170l17-82z"/><path fill="#c9c9c9" d="M94.1 176.9l49.9 14.2-39-7-4-24.7z"/><path fill="#fff" d="M66 99l77 40-32-31z"/><ellipse cx="176" cy="152" fill="#626162" rx="18" ry="1"/><path fill="#fff" d="M260.4 186.8l-10.7 11.9-26-23.5 10.6-11.9z"/><circle r="1" fill="#cbcbcc" transform="matrix(12.66194 21.098 -2.02208 1.21355 196.3 74.8)"/><path fill="#fff" d="M56 32h38v58H56z"/><path fill="#b8b8b8" d="M61 24h25v7H61z"/><path fill="#b7b6b3" d="M72 132l22 3-21 5z"/><path fill="#fff" d="M21.6 226.9l1.8-27.3L49.8 243l-9.4-20.7zM182 29L166 1l46-5z"/><path fill="#d9d9d6" d="M120.1 88.6l19.2-26.3-12.4-2.6-4.7 2.7z"/><path fill="#afafae" d="M98.2 134.4l18.2 12.3-.6.9-18.2-12.3z"/><path fill="#fff" d="M189.9 146.5l21.2 11.2 2.4 53.7-31-54.7z"/><circle cx="127" cy="10" r="5" fill="#b8b9b9"/><path fill="#a1a1a1" d="M230 137l3 3 1-10z"/><path fill="#a4a4a4" d="M86 98.4l1-.2 5 21.4-1 .2z"/><path fill="#fff" d="M110 173h146v5H110z"/><ellipse cx="253" cy="152" fill="#828282" rx="58" ry="1"/><path fill="#d5d5d5" d="M173.3 17.5l-23.9-5.8-22.1-7.1 57.4 24.7z"/><path fill="#979797" d="M230 205h-17l6 3z"/><ellipse cx="175" cy="188" fill="#9b9b9b" rx="18" ry="2"/><path fill="#fff" d="M225.1 140.7l-76.3-7.5 43.4-9.3 30.7-5.8z"/><path fill="#f9f9f9" d="M108.1 201.6l-26-103.8-29.1 7.7 28.4 4.9z"/><path fill="#d6d6d6" d="M33 9v23l37-12z"/><path fill="#fff" d="M25.1 230l14.5-76.7 131.7 60.8L23.2 224z"/><path fill="#717171" d="M157.7 217.6l-.2-1 12.8-2.2.2 1z"/></g></g></svg>