<svg xmlns="http://www.w3.org/2000/svg" viewBox="0 0 1200 929"><defs/><filter id="a"><feGaussianBlur stdDeviation="12"/></filter><rect width="100%" height="100%" fill="#514233"/><g filter="url(#a)"><g fill-opacity=".5" transform="translate(2.3 2.3) scale(4.6875)"><circle r="1" fill="#95947e" transform="rotate(-166 77.8 11.6) scale(222.19273 99.1311)"/><ellipse cx="175" cy="146" fill="#5f5f41" rx="156" ry="49"/><circle r="1" fill="#9c8770" transform="matrix(34.6307 52.7202 -32.61882 21.42656 191.8 59.9)"/><ellipse cx="31" cy="114" fill="#585442" rx="95" ry="29"/><circle r="1" fill="#18261a" transform="matrix(-24.77171 8.75511 -46.34978 -131.14203 0 186.2)"/><path fill="#324e67" d="M209.4-8.7l10.8 31.2-23.6 8.2L185.8-.5z"/><circle r="1" fill="#7e673e" transform="matrix(1.32753 44.72904 -30.5653 .90716 198.1 134.9)"/><ellipse cx="130" cy="39" fill="#454f4b" rx="16" ry="31"/><circle r="1" fill="#547076" transform="rotate(-78.6 231.8 -67.6) scale(102.43055 8.2963)"/><ellipse cx="157" cy="149" fill="#2e3f39" rx="15" ry="25"/><circle r="1" fill="#767b7a" transform="matrix(-33.63984 -25.90617 21.36766 -27.74647 245.6 14.2)"/><circle r="1" fill="#415046" transform="matrix(25.64536 -.38242 1.12355 75.34712 108.5 175.7)"/><circle r="1" fill="#7f6945" transform="matrix(-14.94088 -2.00013 5.34183 -39.9031 76.3 129)"/><circle r="1" fill="#978266" transform="matrix(5.55672 -24.96554 13.56272 3.01873 102.3 35.5)"/><circle r="1" fill="#93877d" transform="rotate(57.9 81 146.6) scale(70.53574 18.21877)"/><path fill="#1f2e1f" d="M31 187h57v11H31z"/><ellipse cx="78" cy="34" fill="#486166" rx="6" ry="52"/><path fill="#363326" d="M0 43h57v4H0z"/><circle r="1" fill="#615a4d" transform="matrix(-38.25328 -12.6021 7.77284 -23.5942 35 94.6)"/><path fill="#88775f" d="M146 48h49v61h-49z"/><ellipse cx="57" cy="22" fill="#897564" rx="17" ry="60"/><circle r="1" fill="#383c34" transform="matrix(-.40686 -43.10109 1.73121 -.01634 117.7 80.4)"/><ellipse cx="49" cy="156" fill="#64512b" rx="25" ry="31"/><path fill="#5e6453" d="M112.5 122l23-6.5 18 62.4-23 6.6z"/><path fill="#39412d" d="M211 169l-2 44 39-58z"/><path fill="#14231b" d="M163.8 196.2l-94 2.9 113 10.3-8-23.3z"/><circle r="1" fill="#5a6a72" transform="matrix(1.31566 8.91414 -53.04781 7.82947 129.8 1.9)"/><circle r="1" fill="#705c35" transform="matrix(-9.67119 -11.18807 35.61606 -30.78723 216 153.9)"/><path fill="#58615e" d="M271 79l-19 52L222 8z"/><path fill="#8a754f" d="M80 62h32v38H80z"/><circle r="1" fill="#95856c" transform="rotate(19.2 -30.9 659.1) scale(18.13264 23.38207)"/><ellipse cx="141" cy="70" fill="#4d4d3e" rx="4" ry="30"/><path fill="#445e69" d="M6 36l4-52-26 33z"/><path fill="#817153" d="M167 85h79v37h-79z"/><path fill="#8e8677" d="M130.7 65.4l2.9-61.6L86.2-16h43.4z"/><path fill="#394132" d="M91 105h31v17H91z"/><path fill="#182924" d="M-1.5 126l-.7-.7L31.5 94l.7.8z"/><circle r="1" fill="#526358" transform="rotate(-41.3 370.6 -236.2) scale(21.46242 18.25728)"/><path fill="#897a68" d="M9 2h13v43H9z"/><path fill="#715c3e" d="M26 101h35v31H26z"/><path fill="#5a5848" d="M20 0h10v44H20z"/><path fill="#3f453b" d="M167 104l-28 98 30-26z"/><path fill="#483f2a" d="M25 120l7 87-29-66z"/><circle r="1" fill="#3a4951" transform="matrix(-6.91468 .02526 -.0555 -15.1887 198.3 8.4)"/><circle r="1" fill="#898176" transform="matrix(-16.69951 19.0185 -7.4573 -6.548 251 13.6)"/><path fill="#6d6c5f" d="M118 127h26v17h-26z"/><path fill="#7a6740" d="M178 133h11v65h-11z"/><path fill="#797562" d="M139 105l2-41-21-1z"/><path fill="#77593f" d="M181 131l-58-14 26-8z"/><path fill="#4e5a54" d="M0 86h77v11H0z"/><path fill="#464e4b" d="M148 8.3l-3 33.9-5-.5 3-33.9z"/><circle r="1" fill="#3c4a3c" transform="matrix(11.4178 -3.8712 9.64652 28.45158 114.2 157.5)"/><path fill="#33484c" d="M81 66l-7-2 1 24z"/><path fill="#4b4d41" d="M268.6 117.7l-11.6 7.8-15.6-23.2 11.6-7.8z"/><path fill="#4c5961" d="M201 98h7v15h-7z"/><path fill="#7a6a4d" d="M98 125L70 88l6 56z"/><path fill="#706b62" d="M101 103l64 5-27-12z"/><path fill="#907b68" d="M31 8.1L41.9 3l-3.4 11.3-.9 38.4z"/><path fill="#958c80" d="M118 5h60v3h-60z"/><path fill="#917f62" d="M116 49l-1-41-31 14z"/><path fill="#494f41" d="M179.8 172.8L107.5 213l41.3-40.3-40.6-35.3z"/><path fill="#928270" d="M154.8 44.4L129.1 3.8 180 62.1l6.3-68.7z"/><ellipse cx="68" cy="56" fill="#8b7b69" rx="6" ry="22"/><path fill="#414847" d="M130.3 50.8l-9 9.2-29.8-2 36.6 5.7z"/><path fill="#544e3f" d="M0 40h59v8H0z"/><circle r="1" fill="#212923" transform="matrix(8.9461 -1.89936 12.49388 58.84688 0 165)"/><path fill="#62532e" d="M56 127l22 45-15 41z"/><path fill="#5b6362" d="M248 121h8v77h-8z"/><path fill="#2a3624" d="M79.3 175l-13.9 38 30-44.4-7.2 8.9z"/><ellipse cx="60" cy="26" fill="#968774" rx="2" ry="37"/><path fill="#0d1c1a" d="M62 117h6v4h-6z"/><path fill="#9b8c73" d="M130 27h2v40h-2z"/><path fill="#5b635d" d="M73 30l2-33 62-8z"/><path fill="#635a48" d="M63 9h5v29h-5z"/><path fill="#63736d" d="M86.9 49.7l-11-.4 1.2-35 11 .4z"/><path fill="#504f3b" d="M12.3-.9L-16-1.3 7.8 8.4l4-24.4z"/><ellipse cx="121" cy="193" fill="#615c52" rx="27" ry="3"/><path fill="#a59583" d="M62.8-8.2l7-1.3 3.4 17.7-7 1.3z"/><path fill="#58503d" d="M38 29h21v3H38z"/><ellipse cx="143" cy="85" fill="#4b4a3c" rx="2" ry="38"/><path fill="#454631" d="M254 145l-61 43 22 25z"/><path fill="#565851" d="M89.7 43.4l39.9-6.7 1.7-26.1-20.4 36.1z"/><circle r="1" fill="#655740" transform="rotate(-177.1 110 65) scale(4.29455 32.11331)"/><path fill="#7b6b3f" d="M213.1 106.5L195.5 141l-.7 29.2 17.5-9.1z"/><path fill="#867865" d="M11 16h12v28H11z"/><path fill="#1e2720" d="M-.1 131.3l10.5-9.1-26.4-11.9 4.4 55.8z"/><path fill="#958578" d="M147 4h40v24h-40z"/><path fill="#5a5844" d="M139 131l-27-20-24 1z"/><ellipse cx="128" cy="29" fill="#9e9082" rx="13" ry="1"/><path fill="#8a7b5c" d="M135 102l105-41v30z"/><path fill="#2d3733" d="M133 53h5v10h-5z"/><ellipse cx="1" cy="28" fill="#65727b" rx="5" ry="16"/><path fill="#5c6465" d="M203 11h29v14h-29z"/><path fill="#616244" d="M117 168l29 18-16-39z"/><circle r="1" fill="#384035" transform="matrix(3.95744 28.15863 -4.20527 .59101 168 156.1)"/><ellipse cx="24" cy="136" fill="#554834" rx="21" ry="20"/><path fill="#32443a" d="M96 128h20v14H96z"/><ellipse cx="146" cy="50" fill="#90826f" rx="41" ry="1"/><path fill="#70654c" d="M89 143h67v2H89z"/><path fill="#1d2f2b" d="M92 100h2v23h-2z"/></g></g></svg>