<svg xmlns="http://www.w3.org/2000/svg" viewBox="0 0 1200 900"><defs/><filter id="a"><feGaussianBlur stdDeviation="12"/></filter><rect width="100%" height="100%" fill="#443c3b"/><g filter="url(#a)"><g fill-opacity=".5" transform="translate(2.3 2.3) scale(4.6875)"><circle r="1" fill="#e2e3d9" transform="rotate(164.3 11.8 51.8) scale(64.2977 255)"/><circle cx="103" cy="191" r="88" fill="#836f5f"/><circle r="1" fill="#fff" transform="matrix(-22.10608 .52723 -.82363 -34.534 11.2 81.6)"/><circle r="1" fill="#a9afb8" transform="matrix(7.028 22.38552 -96.81599 30.39562 86.5 13.1)"/><circle cx="229" cy="70" r="95" fill="#1f1c1d"/><circle r="1" fill="#270800" transform="matrix(14.52962 41.95904 -7.71762 2.67247 68 161.4)"/><path fill="#bba189" d="M61 207l54-72 78 18z"/><path d="M78 42h6v74h-6z"/><path fill="#000009" d="M-14 161l57-7-36 23z"/><path fill="#262d2f" d="M128.1 54.8l-1.2 73-33-.6 1.2-73z"/><circle r="1" fill="#fffff4" transform="rotate(161.7 -5.8 36.4) scale(33.11257 22.58562)"/><ellipse cx="89" cy="94" fill="#e8f8db" rx="5" ry="39"/><path fill="#1f1b18" d="M253.4 43.3L224.1-16 77.6 44.2l-8.5 14z"/><circle r="1" fill="#b2b2bc" transform="rotate(-164.9 19 65.5) scale(31.67453 19.9471)"/><circle r="1" fill="#45464a" transform="rotate(-118.6 106.3 12.4) scale(45.79465 28.3615)"/><path fill="#aaafc0" d="M36 66h36v52H36z"/><ellipse cx="153" cy="179" fill="#9f8a77" rx="36" ry="25"/><path fill="#312d2d" d="M35.6 61l-9.1-17.7 1.7-7.2 6.6 78.6z"/><path fill="#3e3f49" d="M45.2 175.2l3.4 14.6-47.8 11-3.4-14.6z"/><circle r="1" fill="#c0c4c9" transform="matrix(3.09218 -11.65677 46.3175 12.2866 6 18)"/><ellipse cx="221" cy="185" fill="#1f1c21" rx="33" ry="30"/><path fill="#f0fcab" d="M31 91.5v25h-56v-25z"/><path fill="#bab2ac" d="M58.9 118.3l14.1 23 26.3-4.8-35.9-27.8z"/><path fill="#4c3418" d="M62.6 196l-52.2 11L91 182.1l-38.7-73.2z"/><circle r="1" fill="#d3c2ba" transform="rotate(-106.9 115 57.8) scale(3.08944 55.45614)"/><path fill="#3e4957" d="M-16 181l58-13 2-21z"/><path fill="#39393f" d="M202 156L94 73l1 52z"/><circle r="1" fill="#1c1112" transform="matrix(-.85756 33.16422 -.99967 -.02585 33.6 87.7)"/><path fill="#91939c" d="M94-16L16 51l53 31z"/><circle r="1" fill="#857462" transform="matrix(20.56524 -19.3797 10.86829 11.53315 111 156)"/><path fill="#fffff6" d="M0 58h32v15H0z"/><path fill="#6d6d6b" d="M76 43L190-5l-59 5z"/><circle r="1" fill="#a39b9e" transform="rotate(73.3 -120.7 105.5) scale(3.82781 26.83902)"/><path fill="#72757e" d="M79 112L58 43l20-7z"/><ellipse cx="92" cy="80" fill="#e6eccc" rx="2" ry="29"/><path fill="#190b17" d="M-17.3 122.3l-.1-1 52.7-5.6.1 1z"/><path fill="#ddd2c6" d="M47.5 155h-5v-38h5z"/><path fill="#2f2527" d="M32 62h4v55h-4z"/><path fill="#b5c673" d="M15 80h10v29H15z"/><circle cx="89" cy="48" r="8" fill="#0b0a0c"/><circle r="1" fill="#929393" transform="rotate(-123.3 38.7 -16.6) scale(37.26066 22.78119)"/><path fill="#fff" d="M36 50h2v65h-2z"/><circle r="1" fill="#515056" transform="matrix(15.0372 -9.28225 12.6267 20.45521 132.7 108.3)"/><path fill="#7e8ead" d="M49 171l-43-1-22 19z"/><circle r="1" fill="#413f46" transform="matrix(4.85004 1.0882 -.55286 2.46407 3.9 46.7)"/><ellipse cx="255" cy="116" fill="#363031" rx="75" ry="87"/><path fill="#fefff1" d="M-3.7 47.5l14.1 1.7 6 55.5L2 104z"/><circle r="1" fill="#b4b6c8" transform="matrix(-10.34402 .0361 -.01802 -5.16166 53 50.7)"/><ellipse cx="99" cy="103" fill="#c7c8c7" rx="2" ry="5"/><path fill="#866f57" d="M185.8 153.5l-60.9-20.2-45.3-6.4L192.3 166z"/><path fill="#3b3b39" d="M31.2 3.6l-7.3 1.5 3.3 5-.3 10.2z"/><path fill="#4e4f4f" d="M52 0h2v45h-2z"/><circle r="1" fill="#311b04" transform="matrix(5.88921 28.90632 -3.48099 .7092 64.2 156.3)"/><path fill="#23211d" d="M95 53h4v67h-4z"/><circle r="1" fill="#afb2b9" transform="matrix(-32.71214 -1.9212 .47104 -8.02045 56.4 28.5)"/><path fill="#00050d" d="M79.3 123.5l.4-19h3l-.4 19z"/><circle r="1" fill="#4e3e26" transform="matrix(-2.99084 -3.3025 3.94096 -3.56905 52.2 121)"/><path fill="#cdc9c7" d="M61 122h33v5H61z"/><path fill="#272624" d="M43 160.4l-56 15-2-7.8 56-15z"/><ellipse cx="14" cy="6" fill="#a9acb0" rx="10" ry="49"/><circle r="1" fill="#c9b9b1" transform="rotate(-19.2 605.7 -144.5) scale(29.22447 4.95399)"/><path fill="#8e9187" d="M91.6 81.1l4.5 4.8-12 20.1 1.1-16.7z"/><path fill="#050506" d="M80 50h3v57h-3z"/><path fill="#a2a6ae" d="M76.5 130.6l-19.8-15.2-19.7 8.2 36.4-43.5z"/><path fill="#725d4e" d="M189 162l-67 45-55-5z"/><ellipse cx="27" cy="19" fill="#4d4e4d" rx="1" ry="26"/><path fill="#927e6c" d="M69.4 130.8l88.9 22.4-68.1 31.2-36.3-66.6z"/><path fill="#b2a191" d="M101 128l70.3 23-.3 1-70.3-23z"/><path fill="#e7eccd" d="M85 57h9v23h-9z"/><path fill="#31271e" d="M82.8 166.8l.3 1-102 25.4-.2-1z"/><path fill="#9b8b80" d="M18.8 185.7l45.6-11-17.6-34.6-2.2 46.5z"/><path fill="#9a8a7c" d="M105.3 129.4l-38.8-8.1L180.2 165 68.1 141.5z"/><path fill="#6d7071" d="M13 23h4v20h-4z"/><path fill="#f7fdc3" d="M23 62h8v32h-8z"/><circle cx="89" cy="114" r="6" fill="#7a9271"/><path fill="#676565" d="M123-10l94-6-87 36z"/><path fill="#393736" d="M15 207l38.9-17.4-14.6-2.4L-8.5 207z"/><path fill="#fff" d="M-5 124l14-4H-7z"/><path fill="#e5f5ff" d="M83 124l3-2-2-10z"/><path fill="#363635" d="M32 53h4v12h-4z"/><circle r="1" fill="#221b18" transform="rotate(162.4 109.6 18.2) scale(61.85699 16.25244)"/><ellipse cx="205" cy="176" fill="#2b2629" rx="16" ry="49"/><path fill="#75777b" d="M75 52h5v76h-5z"/><circle r="1" fill="#90919d" transform="matrix(-22.12473 1.81898 -.36517 -4.44165 20.2 152.2)"/><path fill="#684d2f" d="M118.7 140.5l1-2.8 51.6 15.8-1 2.8z"/><path fill="#b49d8e" d="M164 162.2l-49.7 21.1-2.3-5.5 49.7-21.1z"/><path fill="#2f2e31" d="M184.7 151.4L135 136.2l2.3-7.6 49.7 15.2z"/><ellipse cx="23" cy="118" fill="#333239" rx="11" ry="1"/><path fill="#959699" d="M47.1 51L25 60l-6-15 22-9z"/><path fill="#513f25" d="M51 117h8v17h-8z"/><path fill="#c9cbcf" d="M-16 13.5L12 16l-.4 13.8-27.6-5z"/><circle r="1" fill="#3d3637" transform="matrix(20.84545 31.77455 -24.38955 16.00058 255 101)"/><path fill="#929499" d="M43 102.4L37.4 67 71 61.6 76.6 97z"/><circle cx="90" cy="105" r="3" fill="#fff"/><path fill="#35332f" d="M87 43l71-2 17 66z"/><path fill="#7d6854" d="M67.6 145.1L80 177.4l14.2 4.9 7.9-9.5z"/><circle r="1" fill="#7e6951" transform="matrix(-2.69518 .27866 -2.92707 -28.31012 58.8 173)"/><path fill="#7a6957" d="M190.2 207l-12.8-26.1L159 170l30.2-14.6z"/><ellipse cx="37" cy="93" fill="#fff" rx="1" ry="26"/><circle r="1" fill="#2c2524" transform="matrix(5.41318 24.02017 -37.39721 8.42783 193 53.9)"/></g></g></svg>