<svg xmlns="http://www.w3.org/2000/svg" viewBox="0 0 1200 958"><defs/><filter id="a"><feGaussianBlur stdDeviation="12"/></filter><rect width="100%" height="100%" fill="#444345"/><g filter="url(#a)"><g fill-opacity=".5" transform="translate(2.3 2.3) scale(4.6875)"><circle r="1" fill="#dadee0" transform="matrix(207.59946 -148.07925 68.13784 95.52573 88.4 43.2)"/><path fill="#100e0f" d="M151 68h42v82h-42z"/><circle cx="73" cy="203" r="74" fill="#76787a"/><circle r="1" fill="#bbbcbe" transform="matrix(-52.96343 37.28666 -31.93619 -45.3634 38.1 66)"/><circle r="1" fill="#100e0e" transform="rotate(170.6 112.8 94.9) scale(61.66721 46.32555)"/><circle r="1" fill="#0d0c0c" transform="matrix(-27.06044 6.67604 -1.97586 -8.0089 149.2 84.4)"/><circle r="1" fill="#9ea1a4" transform="rotate(119.2 106 111.3) scale(29.82348 21.41061)"/><circle r="1" fill="#bdbec1" transform="matrix(6.44775 -26.36076 51.00076 12.4746 159.7 41.2)"/><circle r="1" fill="#4a4a4c" transform="matrix(19.17832 6.7698 -14.27229 40.43228 24.9 188)"/><ellipse cx="164" cy="124" fill="#fff" rx="3" ry="31"/><ellipse cx="109" cy="148" fill="#939396" rx="41" ry="55"/><path fill="#cfd2d4" d="M190 113l21-18-17 29z"/><ellipse cx="7" cy="128" fill="#c4c6c7" rx="20" ry="36"/><path fill="#cbcdcd" d="M90.7 33.7L21.5 69.2l18.7 5.3 60.1-4.3z"/><path fill="#464748" d="M68.4 134.6l-4.1-5.7 87.3-63.5 4.1 5.7z"/><path fill="#171514" d="M149 87h12v53h-12z"/><path fill="#66666a" d="M8.7 89.3l10.6-35.5 17 9.7-52.3-8.2z"/><path fill="#4d4e50" d="M54 1h12v22H54z"/><path fill="#403f41" d="M221 219l-50-75-59 39z"/><circle r="1" fill="#a7a9aa" transform="rotate(139.9 32.4 85.1) scale(48.22899 19.60569)"/><path d="M190 84h32v3h-32z"/><path fill="#cccdcf" d="M156 0h13v69h-13z"/><path fill="#bcbebf" d="M143 101h7v61h-7z"/><path fill="#212020" d="M169 96h16v69h-16z"/><path fill="#67676a" d="M96.1 45.7l8 34-3.2-10.8 36.2-22.1z"/><path fill="#5f6062" d="M105 188L-2 159v60z"/><path fill="#b3b7b9" d="M162 86h6v64h-6z"/><path fill="#2b2b2a" d="M133 74l20 19 54-24z"/><path fill="#79797d" d="M135 0h21v41h-21z"/><path fill="#b3b3b9" d="M158 14h59v23h-59z"/><path fill="#87888b" d="M48.6 195L20.9 91.7l108.9 79.4h26z"/><circle r="1" fill="#828386" transform="matrix(-42.0614 1.46882 -.75833 -21.71565 246.4 58.5)"/><path fill="#4f5152" d="M136.9 149.2l12.4-18.7-8.9 37.1-16.7 2.3z"/><path fill="#5d5d61" d="M99.2-11.6l16 .2-.4 27-16-.2z"/><ellipse cx="219" cy="126" fill="#373837" rx="24" ry="20"/><path fill="#646566" d="M28 134l24-20-25 75z"/><ellipse cx="23" cy="10" fill="#a4a5aa" rx="30" ry="49"/><path fill="#c0c1c3" d="M46 122h8v26h-8z"/><circle r="1" fill="#1c191a" transform="matrix(23.43175 13.14929 -19.5702 34.8737 244.6 178.1)"/><path fill="#fff" d="M41 69l13 1-12-11z"/><ellipse cx="17" cy="16" fill="#eff2f0" rx="23" ry="2"/><path fill="#b8b9bd" d="M78.5 13.9l18.5 18L66.5-9.2l3.5 67z"/><path fill="#c1c3c3" d="M49 38h94v8H49z"/><ellipse cx="42" cy="74" fill="#7f8082" rx="99" ry="2"/><ellipse cx="194" cy="110" fill="#d0d2d4" rx="2" ry="20"/><path fill="#737476" d="M151 1h5v69h-5z"/><path fill="#77797b" d="M146 86h50v4h-50z"/><path fill="#454546" d="M191.7 155.6l7.7-11.9-10.8-43.3-25.2-16.7z"/><ellipse cx="8" cy="60" fill="#454648" rx="24" ry="2"/><circle r="1" fill="#727276" transform="matrix(18.19492 50.0918 -13.41524 4.87284 255 8.4)"/><ellipse cx="97" cy="33" fill="#6e6f73" rx="17" ry="4"/><path fill="#bbbdbe" d="M168.6 41.2l48.8 30.5-50.4-9.4L137.6 38z"/><path fill="#c7c9ca" d="M141 41l6 26-12 5z"/><ellipse cx="57" cy="191" fill="#646668" rx="35" ry="16"/><circle r="1" fill="#424142" transform="matrix(6.01026 32.73511 -13.34982 2.45107 233 107.9)"/><path fill="#7f8183" d="M106 179l-8 35 55-13z"/><path fill="#888a8b" d="M82 127l-31-12 90-71z"/><ellipse cx="218" cy="24" fill="#606163" rx="2" ry="49"/><path fill="#b5b7b9" d="M200 81l-16 2 15-8z"/><path fill="#6a6b6b" d="M0 12h46v3H0z"/><path fill="#aeaeb4" d="M116 0h20v40h-20z"/><path fill="#d9dbdc" d="M83 75h3v35h-3z"/><path fill="#555557" d="M85 163h47v4H85z"/><path fill="#5d5e5e" d="M7 25h9v9H7z"/><circle r="1" fill="#747477" transform="matrix(-.91212 -.40992 13.43363 -29.89118 19.4 137)"/><circle r="1" fill="#e1e4e3" transform="matrix(-2.758 -.21195 .64762 -8.42738 4.5 29)"/><path fill="#fff" d="M202 41h3v15h-3z"/><path fill="#242223" d="M200 153l29-55-1 83z"/><path fill="#4d4c50" d="M159.2 201.4l-27.4-14.5 15-28.3 27.4 14.5z"/><path fill="#abacb2" d="M68 35l67-14-52-6z"/><circle r="1" fill="#b5b6b8" transform="matrix(-1.38647 2.88085 -8.2796 -3.98471 55.7 152.9)"/><path fill="#e9ebeb" d="M12 64l6 4-5 8z"/><path fill="#828386" d="M182.8 48.3l1.6-13 18.8 2.4-1.6 13z"/><ellipse cx="21" cy="73" fill="#404143" rx="5" ry="3"/><path fill="#4e4f51" d="M139.5 46.1L111.6 49l-17-1.9-3.5-.4z"/><path fill="#252324" d="M150 95h12v50h-12z"/><ellipse cx="78" cy="105" fill="#d1d3d4" rx="2" ry="15"/><ellipse cx="35" cy="37" fill="#767678" rx="119" ry="1"/><path fill="#3c3d3d" d="M3.1 169.9l23.2 12.7-6.4-18.8-6 16.6z"/><ellipse cx="59" cy="17" fill="#fff" rx="1" ry="8"/><path fill="#a4a5ac" d="M220 23h31v17h-31z"/><path fill="#e5e7e8" d="M8 105l3-13H-9z"/><path fill="#4b4d4f" d="M80 100h3v25h-3z"/><ellipse cx="97" cy="76" fill="#c4c6c8" rx="2" ry="28"/><ellipse cx="85" cy="121" fill="#d3d5d6" rx="1" ry="45"/><path fill="#626365" d="M12.5 86.8L9.4 64.9 4 87l6.4 3z"/><path fill="#fff" d="M179 42h2v14h-2z"/><path fill="#474749" d="M41 157l-21-3 25-8z"/><path fill="#a9a9b0" d="M196.6 6.2L178-16l.2 25.4 7.7 28.8z"/><path fill="#9fa0a3" d="M16 171.6l14.2-29.2-46.2 28.7 23.5-9.6z"/><path fill="#e3e5e6" d="M16.2 151.6l9.8-22 1.8.8-9.8 22z"/><path fill="#edeff0" d="M91 114h-1l1-28h1z"/><path fill="#2c2b2c" d="M142 72h43v15h-43z"/><path fill="#5b5c5d" d="M232.8 73.2l-10 1.8 9.6-7.4 31.5-12.5z"/><path fill="#93959b" d="M97 170h43v7H97z"/><path fill="#434346" d="M68 101h2v32h-2z"/><path fill="#4f4f52" d="M74 99h3v25h-3z"/><path fill="#808184" d="M33 157h25v18H33z"/><path fill="#bcbec3" d="M176 87h17v2h-17z"/><ellipse cx="13" cy="114" fill="#999a9c" rx="9" ry="10"/></g></g></svg>