<svg xmlns="http://www.w3.org/2000/svg" viewBox="0 0 1200 809"><defs/><filter id="a"><feGaussianBlur stdDeviation="12"/></filter><rect width="100%" height="100%" fill="#306832"/><g filter="url(#a)"><g fill-opacity=".5" transform="translate(2.3 2.3) scale(4.6875)"><circle cx="157" cy="90" r="183" fill="#fff"/><circle cx="169" cy="140" r="221" fill="#ffffd3"/><circle r="1" fill="#94b559" transform="rotate(91.9 17.8 82) scale(49.04774 145.35289)"/><path fill="#fff" d="M257 187l-273-18 287-73z"/><circle r="1" fill="#fff" transform="matrix(185.82895 24.0146 -2.25124 17.42046 176 8.9)"/><circle r="1" fill="#fff" transform="matrix(-13.77641 2.31642 -28.14654 -167.39533 0 95.5)"/><circle r="1" fill="#aeb1ba" transform="matrix(5.281 -41.22463 55.8899 7.15966 154.5 111.9)"/><circle r="1" fill="#fff" transform="matrix(-3.80604 -21.98232 61.50438 -10.64892 10.2 4.9)"/><ellipse cx="250" cy="74" fill="#fff" rx="10" ry="171"/><path fill="#d96a4c" d="M117 26h52v43h-52z"/><circle r="1" fill="#8ad74f" transform="matrix(38.2361 1.8741 -2.14983 43.86168 76 59.5)"/><circle r="1" fill="#88d247" transform="matrix(-30.48733 6.101 -3.08548 -15.41845 70.3 125.3)"/><path fill="#f4e6ff" d="M34 87h21v36H34z"/><circle r="1" fill="#fff" transform="matrix(2.79737 -18.49674 175.9717 26.61322 186.4 9.8)"/><ellipse cx="72" cy="166" fill="#fff" rx="212" ry="17"/><path fill="#93df59" d="M204 35h39v70h-39z"/><ellipse cx="180" cy="49" fill="#cec4fc" rx="13" ry="27"/><ellipse cx="129" cy="135" fill="#abc19b" rx="84" ry="17"/><circle r="1" fill="#fff" transform="matrix(-12.27329 -32.5641 23.16549 -8.73099 237.5 138.1)"/><circle r="1" fill="#94e05a" transform="rotate(-179.2 11.5 33.2) scale(17.644 35.33238)"/><ellipse cx="252" cy="61" fill="#fff" rx="12" ry="52"/><path fill="#fff" d="M-1 51l-15 136h50z"/><path fill="#d2d3e4" d="M128.8 125.2L104 153.1 96.9 102l34.3-16.7z"/><path fill="#fff" d="M-9 34l-7-38 139-9z"/><path fill="#88b284" d="M58 148L13 91l13 58z"/><ellipse cx="59" cy="164" fill="#fff" rx="255" ry="14"/><path fill="#b6beae" d="M127 70h83v82h-83z"/><circle r="1" fill="#fff" transform="matrix(96.75243 4.3935 -.91697 20.19316 193 6.5)"/><path fill="#ebae4d" d="M189.2 77.9l.6 30-15 .2-.6-30z"/><ellipse cx="2" cy="74" fill="#fff" rx="4" ry="107"/><ellipse cx="81" cy="131" fill="#94da4d" rx="21" ry="9"/><circle r="1" fill="#fff" transform="matrix(9.22235 -12.9189 23.7024 16.9203 233 124.4)"/><circle r="1" fill="#d8d9e6" transform="matrix(.99966 -.02618 1.88354 71.92933 52.5 48.5)"/><path fill="#fff" d="M236 14l15 115 20-145z"/><path fill="#b9dd63" d="M135 123h29v16h-29z"/><ellipse cx="72" cy="46" fill="#6aab29" rx="3" ry="33"/><path fill="#db7b61" d="M113.3 22.2l1-4.9 36.4 6.5-1 4.9z"/><path fill="#f3edfc" d="M188.7 146.1l-.4-18 13-.2.4 18z"/><path fill="#99d063" d="M73 21h41v74H73z"/><path fill="#558752" d="M56 148h34v2H56z"/><ellipse cx="96" cy="149" fill="#316f20" rx="23" ry="1"/><path fill="#034c00" d="M41 144h10v4H41z"/><ellipse cx="113" cy="122" fill="#005700" rx="1" ry="13"/><path fill="#9fd46f" d="M5 76h108v13H5z"/><path fill="#d8cce2" d="M52 140h71v8H52z"/><path fill="#fff" d="M101.2-39.6l9.5 37.8-166 41.4-9.4-37.8z"/><circle r="1" fill="#fff" transform="matrix(11.57475 -27.41196 19.76377 8.34529 233.8 132)"/><path fill="#f0e3ff" d="M115 21h2v42h-2z"/><path fill="#98da5f" d="M56 101h42v19H56z"/><path fill="#a3c5b8" d="M202 66l11 88-23-52z"/><path fill="#ddd6e1" d="M34 85h6v65h-6z"/><path fill="#9dd566" d="M204 70h36v34h-36z"/><ellipse cx="34" cy="165" fill="#fff" rx="88" ry="17"/><path fill="#fff" d="M0 90h13v71H0z"/><path fill="#9fd76c" d="M6 28h43v60H6z"/><ellipse cx="94" cy="47" fill="#749934" rx="46" ry="2"/><path fill="#9bd167" d="M207 31l36 71-4-65z"/><circle r="1" fill="#fff" transform="matrix(2.96479 -9.37952 84.57604 26.73378 215.7 20.6)"/><path fill="#94d854" d="M16 93h17v19H16z"/><path fill="#bf9b99" d="M192 31h12v41h-12z"/><path fill="#bdcde8" d="M73.2 12.7l-15.3 4.9-3.3 8.5-28.4.9z"/><path fill="#d19d77" d="M112 75l54-3-9-35z"/><path fill="#9fd865" d="M40 124h60v16H40z"/><ellipse cx="84" cy="71" fill="#5da01b" rx="29" ry="2"/><ellipse cx="133" cy="50" fill="#736730" rx="2" ry="21"/><ellipse cx="203" cy="164" fill="#fff" rx="255" ry="13"/><path fill="#bad1e5" d="M168 56h4v66h-4z"/><path fill="#b1c3d0" d="M128 111h73v12h-73z"/><path fill="#dfdad9" d="M53 121h115v2H53z"/><path fill="#ddd9e3" d="M97 124l3-35 9 22z"/><path fill="#fff" d="M109.7 16.2L9.1-.9 271-2.7v44z"/><ellipse cx="148" cy="133" fill="#f4e6ff" rx="2" ry="9"/><path fill="#a2c197" d="M161.9 151.7l51.5-.5-8.3-47.5-2.5 42.9z"/><path fill="#3d823d" d="M45.6 81.5l6.8 7v2.1L44.7 86z"/><path fill="#9aa194" d="M87.3 13.2L55.4 9.9l43.4 6.4 27.7 3.7z"/><path fill="#97d955" d="M211.3 149.8h-1l-7.6-87.6h1z"/><path fill="#cc986b" d="M117 59l1-37h41z"/><path fill="#fff" d="M269 103l-48 84-14-84z"/><circle cx="149" cy="47" r="3" fill="#edffff"/><path fill="#9bd667" d="M6 28.8v41.9l9-36.9 33-16.5z"/><path fill="#935f31" d="M129 29h32v3h-32z"/><path fill="#fff" d="M32.7 171.8l-48.7-32L5.4-4.7l-.7 98.8z"/><path fill="#acc2cd" d="M132.6 151.5l-.8-71.8-12.8-5.1 1.2 29.9z"/><path fill="#e5e2f2" d="M38 90h14v23H38z"/><circle r="1" fill="#fff" transform="matrix(3.51583 60.97556 -10.77623 .62135 251.5 60.2)"/><path fill="#b1c3d5" d="M21.8 112.2l-10.5 4.3 1 6.2 19.1-8.7z"/><path fill="#b3c0ce" d="M163.6 146l5.2-26.5 23.6 4.5-5.2 26.5z"/><path fill="#b2c5d6" d="M190 84h13v29h-13z"/><path fill="#687f3f" d="M51 148H38l3-8z"/><path fill="#81c642" d="M52 85h2v20h-2z"/><path fill="#a4d675" d="M120.4 48.6l-12.7-29.3L71.6 13l22.6 29.8z"/><path fill="#dcd8f5" d="M115 39h2v42h-2z"/><path fill="#b7bdbe" d="M207 98.3l-43.4-73.5 41.4 6.3-32.4 32z"/><path fill="#825628" d="M165 37h2v34h-2z"/><ellipse cx="158" cy="150" fill="#948f6e" rx="47" ry="1"/><circle r="1" fill="#fff" transform="matrix(27.26194 -1.91528 1.10366 15.70949 30.4 6)"/><path fill="#e4dfde" d="M121 94.7l-4 54.9-4-.3 4-54.9z"/><path fill="#a1d66c" d="M41 122h32v19H41z"/><path fill="#628e47" d="M122 57h6v8h-6z"/><path fill="#dadddd" d="M191 51l-22 19-1-18z"/></g></g></svg>