<svg xmlns="http://www.w3.org/2000/svg" viewBox="0 0 1200 900"><defs/><filter id="a"><feGaussianBlur stdDeviation="12"/></filter><rect width="100%" height="100%" fill="#444"/><g filter="url(#a)"><g fill-opacity=".5" transform="translate(2.3 2.3) scale(4.6875)"><circle r="1" fill="#fff" transform="matrix(-15.60458 55.35876 -145.30869 -40.95975 168.7 12.4)"/><circle r="1" fill="#bdbdbd" transform="matrix(56.82081 -4.62113 2.37538 29.20738 214 141.8)"/><circle r="1" fill="#fff" transform="rotate(-5.3 209.7 -2366) scale(59.75881 23.01676)"/><ellipse cx="2" cy="31" fill="#b1b1b1" rx="28" ry="103"/><circle r="1" fill="#767676" transform="matrix(6.14104 -31.7304 94.48513 18.28648 168.8 73.4)"/><circle r="1" fill="#070707" transform="matrix(24.69752 2.23498 -6.70383 74.08041 53.8 101)"/><ellipse cx="233" cy="8" fill="#fff" rx="77" ry="21"/><ellipse cx="174" cy="183" rx="71" ry="15"/><ellipse cx="204" cy="164" fill="#fff" rx="37" ry="5"/><path fill="#292929" d="M133 139h111v20H133z"/><path fill="#d9d9d9" d="M203.9 116.5l1.2 23-39 2-1.2-23z"/><path fill="#fff" d="M271 1L148-13l30 56z"/><circle r="1" fill="#d8d8d8" transform="matrix(24.8636 32.9951 -8.96251 6.75374 117.1 33.5)"/><path fill="#4f4f4f" d="M143 60.2l15.5-26.9L201 57.8l-15.5 26.9z"/><path fill="#8d8d8d" d="M61.1 211l-9.9-27.2 51.7-18.8 9.9 27.2z"/><path fill="#5f5f5f" d="M197 28h49v21h-49z"/><circle r="1" fill="#a8a8a8" transform="rotate(89.7 8 77.6) scale(67.51015 5.67291)"/><path d="M90.7 85.3l31-1.6 1.6 33-31 1.6z"/><path fill="#060606" d="M134 132h31v27h-31z"/><ellipse cx="248" cy="176" fill="#272727" rx="18" ry="26"/><path fill="#c5c5c5" d="M217.5 120.7l10.7-13.2 44.3 35.8-10.7 13.2z"/><path fill="#111" d="M231.3 130.2l-20-6.9 5.7 13.1 7.7 22.4z"/><circle r="1" fill="#222" transform="matrix(10.50653 18.47051 -85.99128 48.91416 17.2 180.6)"/><path fill="#8e8e8e" d="M125 59h21v66h-21z"/><path fill="#fff" d="M166 161h19v8h-19z"/><circle r="1" fill="#4f4f4f" transform="matrix(12.04009 24.94311 -3.3178 1.6015 158.5 17.9)"/><path fill="#040404" d="M32.3 11l51.1 26.6-50 1.7L29 19.6z"/><path fill="#fff" d="M170.7 43.2l-1.3-25 28-1.4 1.2 25zm74.8-7.8l25.5 3.3L254.1-16h-52.5z"/><path fill="#1a1a1a" d="M157 44h7v117h-7z"/><path fill="#727272" d="M56.7 80.6l2.1-24.4-2.3-21.8-11.9 30.4z"/><circle cx="130" cy="185" r="21"/><path fill="#727272" d="M0 83h30v51H0z"/><circle r="1" fill="#7f7f7f" transform="matrix(-1.58977 -11.92979 26.65916 -3.55262 191.2 143.5)"/><path fill="#0a0a0a" d="M116 169h122v17H116z"/><path fill="#101010" d="M128.7 46.7l-70-56.6.6-.8 70 56.6z"/><path fill="#9b9b9b" d="M219 83l10-32-68 34z"/><path fill="#b5b5b5" d="M123 57L21 2l62 8z"/><path fill="#121212" d="M121 58l1 19-35-37z"/><path fill="#0d0d0d" d="M31 79h40v78H31z"/><path d="M138 65h3v43h-3z"/><path fill="#696969" d="M129 146l-51-6 26 41z"/><path fill="#757575" d="M74 162l-41 20 18-23z"/><path fill="#4e4e4e" d="M107.1 6L89.2-16 120.3-.5l4.5 24.1z"/><ellipse cx="200" cy="165" fill="#f9f9f9" rx="32" ry="4"/><path fill="#dcdcdc" d="M58.8-15.4l65.3 10.6-26.3 3.2L170 79.5z"/><path fill="#fff" d="M156.1 123.9v-1l53.8-4.8v1z"/><path fill="#585858" d="M72 53h9v72h-9z"/><path fill="#dadada" d="M100 56h3v28h-3z"/><ellipse cx="130" cy="10" fill="#d4d4d4" rx="9" ry="14"/><ellipse cx="216" cy="116" fill="#0e0e0e" rx="3" ry="11"/><ellipse cx="139" fill="#3d3d3d" rx="2" ry="39"/><path fill="#595959" d="M213 75h35v37h-35z"/><path fill="#888" d="M1.7-6.9l9.4-17.7L70.3 7l-9.4 17.7z"/><path fill="#bebebe" d="M199 51h55v11h-55z"/><ellipse cx="180" cy="114" rx="24" ry="2"/><path fill="#6c6c6c" d="M201 70l-56-19 1-39z"/><path fill="#a2a2a2" d="M18 78l-34 38L7 51z"/><ellipse cx="143" cy="46" fill="#d5d5d5" rx="2" ry="53"/><ellipse cx="131" cy="89" fill="#1d1d1d" rx="2" ry="29"/><path fill="#f7f7f7" d="M215 158h18v5h-18z"/><path fill="#666" d="M229.7 39.2l9.8 3.3L271 25.6l-31.3 30.1z"/><path fill="#555" d="M270.5 207l-15.9-55.3-37.6-26.3 14.7 36.7z"/><path fill="#383838" d="M139.7 139.2l-17.3-29.1-30.2 19.1 86.6-15.1z"/><path fill="#bbb" d="M244.9 55l1.9 26.2 17.6 19.5.2 1.1z"/><circle r="1" fill="#fff" transform="matrix(-11.5434 -13.46792 22.56535 -19.34085 192.2 13.8)"/><path fill="#2f2f2f" d="M249.7 119.5l21.3-7-19.7-7.1h-39.8z"/><path fill="#535353" d="M147 185h41v7h-41z"/><path fill="#d3d3d3" d="M108.5 49.5L90.8 38.2l-8.7-14.5 24 4.5z"/><path d="M153 70.5l2 37h-2l-2-37z"/><path fill="#696969" d="M231 88l11 27 1-69z"/><path fill="#c3c3c3" d="M134 3h3v105h-3z"/><path fill="#565656" d="M186 44h11v35h-11z"/><path fill="#cacaca" d="M232.7 112.1l1.5 12-15 1.8-1.4-12z"/><path fill="#f6f6f6" d="M128.3 29.1l-7.7 8-20.9-20.2 7.7-8z"/><path fill="#d3d3d3" d="M118.7 166.2l12-7.2.6.8-12 7.2z"/><path fill="#b1b1b1" d="M81 39h10v29H81z"/><path fill="#202020" d="M88.5 90.4l8 67.3 4.2-34.3 23.7-49z"/><path fill="#161616" d="M110.3 145.9L-5.8 207l-2.5-30 62.2 6.8z"/><ellipse cx="113" cy="68" fill="#9e9e9e" rx="3" ry="8"/><ellipse cx="127" cy="81" fill="#a4a4a4" rx="3" ry="36"/><path fill="#6f6f6f" d="M171 107h42v7h-42z"/><path fill="#333" d="M29 29h18v52H29z"/><path fill="#fff" d="M245 0h11v36h-11z"/><path fill="#6b6b6b" d="M30 148l-2-89-25 59z"/><path fill="#fff" d="M171 119h32v3h-32zM146.9-16l52.3 13.9-2.1 43.1-21.8.8z"/><ellipse cx="216" cy="188" fill="#141414" rx="30" ry="21"/><path d="M125 157l10-18 1 20z"/><ellipse cx="255" cy="65" fill="#464646" rx="3" ry="11"/><path fill="#1c1c1c" d="M30.1 154.6l1-99.7 54.1 92.3-53.8 30.5z"/><path fill="#686868" d="M144.9 112.6l-23.7 57.5 7.4-43.4 35.9-5.8z"/><circle r="1" fill="#383838" transform="matrix(-3.75103 10.28927 -7.5839 -2.76476 180.1 95)"/><circle r="1" fill="#878787" transform="matrix(-22.39639 -33.8332 1.6355 -1.08265 137.8 42.8)"/><path fill="#fbfbfb" d="M121.6 16.9l-24-33.2.8-.6 24 33.2z"/><path fill="#0d0d0d" d="M29.3 10l5.4 17.1L70.5 48l8.9-11.2z"/><path fill="#797979" d="M154.6 65.7l-40-26.1 49.1 26.3 11.9 35.6z"/><ellipse cx="232" cy="3" fill="#fff" rx="75" ry="23"/><ellipse cx="187" cy="123" fill="#292929" rx="23" ry="1"/><path fill="#797979" d="M216.5 104.5l-10.8-22.9 4.6-33.4 4.1 23.4z"/></g></g></svg>