<svg xmlns="http://www.w3.org/2000/svg" viewBox="0 0 1200 912"><defs/><filter id="a"><feGaussianBlur stdDeviation="12"/></filter><rect width="100%" height="100%" fill="#393939"/><g filter="url(#a)"><g fill-opacity=".5" transform="translate(2.3 2.3) scale(4.6875)"><circle cx="126" cy="110" r="171" fill="#fff"/><circle r="1" fill="#fff" transform="matrix(19.41319 -139.9033 211.5608 29.35649 111 81)"/><circle r="1" fill="#fff" transform="matrix(254.14253 20.89432 -8.68761 105.66947 99.1 71)"/><ellipse cx="72" cy="64" fill="#fff" rx="254" ry="110"/><circle r="1" fill="#fff" transform="matrix(171.91005 2.00152 -.3847 33.04166 123.9 24.9)"/><ellipse cx="113" cy="63" fill="#bbb" rx="54" ry="6"/><ellipse cx="157" cy="112" fill="#fff" rx="255" ry="33"/><path fill="#afafaf" d="M167 172l-136 1 134 36z"/><circle r="1" fill="#cfcfcf" transform="rotate(-39.9 226.7 -23) scale(10.05066 35.46604)"/><path fill="#fff" d="M212 150h44v23h-44z"/><path fill="#5b5b5b" d="M200.4 167.5l6.2 44.6-3 .4-6.2-44.6z"/><path fill="#fff" d="M198.5 170v12h-27v-12z"/><path fill="#cdcdcd" d="M215 21l-18 52-4-52z"/><ellipse cx="203" cy="147" fill="#8a8a8a" rx="48" ry="2"/><path fill="#070707" d="M163 169l2 11 1-12z"/><path d="M210 146h1v28h-1z"/><path fill="#4a4a4a" d="M12 147h2v33h-2z"/><ellipse cx="15" cy="165" fill="#fff" rx="44" ry="8"/><path fill="#fff" d="M87 81h77v91H87z"/><path fill="#5a5a5a" d="M240.8 180.7l7-5.1-4.6-7.9-.4-2.5z"/><ellipse cx="205" cy="191" fill="silver" rx="227" ry="9"/><path fill="#c2c2c2" d="M32 141l13-25-38 34z"/><path fill="#b7b7b7" d="M162.4 141.6l10-8.7 36-29.2-41.4 38.5z"/><path fill="#fff" d="M41.3 62.3L37.9-1.6l128.8-6.7 3.4 63.9z"/><path fill="#dcdcdc" d="M54 64h110v16H54z"/><path fill="#fff" d="M271 176L253-16l-34 127z"/><path fill="#949494" d="M202 105.2l.8-.7 43.1 40.3-.7.7z"/><path fill="#d2d2d2" d="M56 173l-1-56 36 33z"/><path fill="#a2a2a2" d="M141 68l24-8-54-1z"/><circle r="1" fill="#fff" transform="matrix(167.20219 -.55033 .05324 16.17583 89 95.8)"/><path fill="#fff" d="M167.2 182.6l-3.2-29.8 32.8-3.4 3.2 29.8z"/><path fill="#8b8b8b" d="M10 174h73v2H10z"/><path fill="#343434" d="M164 163h2v25h-2z"/><ellipse cy="56" fill="#fff" rx="17" ry="119"/><circle r="1" fill="#fbfbfb" transform="rotate(43.8 -157.2 123.9) scale(14.99713 23.44184)"/><path fill="#fff" d="M245 0h11v174h-11z"/><ellipse cx="118" cy="163" fill="#fdfdfd" rx="48" ry="11"/><path fill="#444" d="M86.2 175l2.6 9.7-1 .3-2.6-9.7z"/><path fill="#cfcfcf" d="M176 39h6v34h-6z"/><path fill="#fff" d="M211.3 149.3l29-.6.4 24-29 .6z"/><path fill="#cecece" d="M45.3 53.2l.4-9 13 .6-.4 9z"/><ellipse cx="78" cy="193" fill="#c4c4c4" rx="134" ry="13"/><path fill="#fff" d="M154 70l79-37-47 4z"/><path fill="#696969" d="M166 138l-2 8 3 2z"/><path fill="#fff" d="M249.3 6.2L-16-16 86.9 73.6l3-19.9z"/><path fill="#d4d4d4" d="M197 52h16v25h-16z"/><path fill="#4e4e4e" d="M199 165v18l5-9z"/><path fill="#aaa" d="M91 152l-10.7-10.9 3.4 8.5-6.9 6.2z"/><path fill="#cfcfcf" d="M225 38h5v35h-5z"/><circle cx="136" cy="125" r="34" fill="#fff"/><path fill="#6d6d6d" d="M15.9 169.6l-6.7 12.8 9.8-5.2-8.3-4.5z"/><path fill="silver" d="M198.9 210l3.4-38.9 32.8 3-3.4 38.8z"/><circle r="1" fill="#c8c8c8" transform="matrix(-15.21058 -16.10195 1.88087 -1.77675 62.3 126.6)"/><path fill="#fff" d="M7.1 175.4l-24.5-20.6 10.3-12.2 24.5 20.6zm83-27.4L48 109.9l106.1-29.5 10.1 93.8z"/><ellipse cx="13" cy="174" fill="#484848" rx="2" ry="5"/><path fill="#2e2e2e" d="M242 169h2v13h-2z"/><path fill="#9a9a9a" d="M18 64h2v16h-2z"/><path fill="#fff" d="M224.9 166.9l-15.2-1.5-.6-17.3-49.1 16.4z"/><path fill="#b7b7b7" d="M15 173h41v10H15z"/><path fill="#696969" d="M10 147l5 3-1 8z"/><ellipse cx="218" cy="53" fill="#fff" rx="6" ry="64"/><path fill="#fff" d="M-9 163l92-83-87-1z"/><path fill="#e6e6e6" d="M62 127l-3 39 35 8z"/><ellipse cx="66" cy="153" fill="#b0b0b0" rx="13" ry="2"/><path fill="#3c3c3c" d="M244.7 167.5l.6 11h-2l-.6-11z"/><ellipse cx="89" cy="69" fill="#eaeaea" rx="41" ry="8"/><path fill="#575757" d="M245 146l-3-2v7z"/><path fill="#c1c1c1" d="M256.3 176.3l5 28.5-27.6 5-5-28.6z"/><path fill="#fff" d="M271 55.6l-61.2 52.8L247 39.9l-43.1 12.9z"/><circle r="1" fill="#fff" transform="matrix(-.15786 -45.22397 33.21425 -.11594 3.7 23)"/><path fill="#a4a4a4" d="M163 166h25v2h-25z"/><path fill="#fff" d="M195 105l-1-69-59 136z"/><ellipse cx="210" cy="131" fill="#b4b4b4" rx="1" ry="16"/><path fill="#fff" d="M32.8 81.2L-1.1 163l66.6-79.1-28.7-25.4z"/><ellipse cx="204" cy="146" fill="#c1c1c1" rx="37" ry="2"/><path fill="#b6b6b6" d="M47.9 117.8l12.2-10.5-50 43.3 42-40.8z"/><path fill="#979797" d="M86 148h6v4h-6z"/><path fill="#bfbfbf" d="M194.5 114.5v53h-1v-53z"/><ellipse cx="34" cy="163" fill="#fff" rx="26" ry="9"/><path fill="#f0f0f0" d="M54.9 120.6l-7.2-4.8-35.2 35.8 15.6 5.8z"/><path fill="#fff" d="M167 167h30v15h-30z"/><path fill="#b1b1b1" d="M197 44h2v28h-2z"/><path fill="#b6b6b6" d="M60 64h2v20h-2z"/><ellipse cx="68" cy="190" fill="#c4c4c4" rx="117" ry="10"/><path fill="#cacaca" d="M182 54l-7 16 1-14z"/><path fill="#dadada" d="M29 48h11v9H29z"/><path fill="#fff" d="M222.2 149.4l22.4-.4-7.9 23.1-24.2-.2z"/><circle r="1" fill="#fff" transform="matrix(-4.6293 -.12015 .68732 -26.48273 169.5 63)"/><circle cx="200" cy="183" r="2" fill="#474747"/><path fill="#fff" d="M245 93h11v80h-11z"/><path fill="#989898" d="M89 60h1v17h-1z"/><path fill="#b2b2b2" d="M188 166h23v2h-23z"/><ellipse cx="202" cy="27" fill="#d3d3d3" rx="9" ry="8"/><circle r="1" fill="#fff" transform="matrix(21.07016 -14.36915 16.40224 24.05136 245.6 4.4)"/><path fill="#fbfbfb" d="M202.6 163.3l-1.6-54.7 4.6 59.6-3.4 14.4z"/><path fill="silver" d="M189 119l9-12 9-2z"/><ellipse cx="68" cy="62" fill="#bcbcbc" rx="10" ry="2"/><path fill="#fcfcfc" d="M229.8 45.9l-38 11.7 12.7-21.5L138 60.6z"/><path fill="#fff" d="M130 105l62 9 52-46z"/></g></g></svg>