<svg xmlns="http://www.w3.org/2000/svg" viewBox="0 0 869 1200"><defs/><filter id="a"><feGaussianBlur stdDeviation="12"/></filter><rect width="100%" height="100%" fill="#2c281b"/><g filter="url(#a)"><g fill-opacity=".5" transform="translate(2.3 2.3) scale(4.6875)"><circle cx="84" cy="128" r="164" fill="#fff"/><circle cx="60" cy="116" r="209" fill="#fff"/><circle cx="134" cy="112" r="197" fill="#fff"/><circle cx="108" cy="139" r="189" fill="#fff"/><circle r="1" fill="#fff" transform="matrix(-140.59935 -65.26405 33.8239 -72.86735 91 131.7)"/><path fill="#aaaca8" d="M34 11h42v12H34z"/><path fill="#c9cac8" d="M33 197h33v43H33z"/><ellipse cx="14" cy="183" fill="#fff" rx="21" ry="255"/><path fill="#b5b6b3" d="M80 5h8v44h-8z"/><ellipse cx="83" cy="230" fill="#2e2c29" rx="5" ry="2"/><path fill="#fff" d="M68 12h10v208H68z"/><path fill="#7f807b" d="M37 237h23v3H37z"/><ellipse cx="87" cy="180" fill="#959594" rx="1" ry="169"/><circle r="1" fill="#fffffe" transform="matrix(99.28021 -13.58542 2.6973 19.71144 98.6 255.8)"/><path fill="#b0b1af" d="M34 198l1 16 22-16z"/><ellipse cx="95" cy="179" fill="#b1b1b1" rx="1" ry="168"/><path fill="#91928d" d="M131 240l8 4h-19z"/><path fill="#fff" d="M25 214l54 1-6 13z"/><path fill="#b0b1ae" d="M71.8 9.8l.4-8.2-4.8-.1 30.2 16.3z"/><ellipse cx="174" cy="218" fill="#c5c6c4" rx="1" ry="216"/><path fill="#fff" d="M93.9 24.5l-10.4-9.7.1 44.4 6.3-28.6z"/><path fill="#9c9f99" d="M179 190h6v7h-6z"/><path fill="#b7b9b6" d="M73.5 230.6v-1l101 1.8v1z"/><path fill="#bec0bc" d="M30.9 220.8l-.1 10.1 19.5-1.8 10.3-4.7z"/><path fill="#a2a5a2" d="M44 30l-5 5h14z"/><ellipse cx="159" cy="40" fill="#999e9a" rx="63" ry="1"/><circle r="1" fill="#959592" transform="rotate(-88.9 35.5 -14) scale(1 18.44797)"/><path fill="#dadbd9" d="M164 7h3v184h-3z"/><path fill="#a4a6a2" d="M120-1l-2 9 8-3z"/><path fill="#fff" d="M98 50h67v64H98zM0 230h75v5H0z"/><ellipse cx="102" cy="31" fill="#bec1bd" rx="63" ry="1"/><path fill="#9c9e99" d="M179 126l1-6 20 6z"/><ellipse cx="175" cy="146" fill="#cbcdcb" rx="1" ry="144"/><path fill="#c0c2be" d="M96 22h54v2H96z"/><ellipse cx="165" cy="198" fill="#c0c1c0" rx="1" ry="187"/><ellipse cx="104" cy="13" fill="#b7b8b4" rx="72" ry="1"/><circle cx="80" cy="231" r="6" fill="#a8aaa8"/><path fill="#fff" d="M36 14h39v2H36z"/><path fill="#fbfcfa" d="M51 239h71v17H51z"/><path fill="#fefffe" d="M165.9 15.9L176 37.5 200-.9l-32.1 86.7z"/><path fill="#9c9f97" d="M184 56l-9 2 8-7z"/><ellipse cx="168" cy="255" fill="#fdfdfe" rx="38" ry="23"/><path fill="#fdfefe" d="M97 49l3 180 59 1z"/><path fill="#676863" d="M87.2 5.3l-.2-1 5.8-1.6.2 1z"/><ellipse cx="130" cy="14" fill="#b0b3ad" rx="45" ry="1"/><path fill="#615e59" d="M34 10h3v4h-3z"/><path fill="#fdfdfe" d="M2.5 4l65.9-20 7.2 45.7-7.7-16.6z"/><ellipse cx="146" cy="48" fill="#a4a8a7" rx="22" ry="1"/><circle r="1" fill="#6f716a" transform="rotate(-168.7 86.5 -5.7) scale(3.11265 1)"/><path fill="#fdfdfd" d="M55 203.1l31.2 26.5L85 192l-31.3 23.8z"/><ellipse cx="96" cy="69" fill="#d0d0d0" rx="1" ry="150"/><path fill="#fdfefe" d="M82.5 193.8l-98.5 9V-6.3l48.5 18z"/><path d="M86.3 12.3l2 .4-.6 3-2-.4z"/><path fill="#fff" d="M76 225.8l-42 1.4v-1l42-1.4z"/><ellipse cx="141" cy="9" fill="#fff" rx="61" ry="3"/><path fill="#737471" d="M55 31h3v5h-3z"/><path fill="#6f6e6a" d="M36 238l26-1v1l-26 1z"/><path fill="#fff" d="M103 32h62v7h-62z"/><ellipse cx="44" cy="12" fill="#6b6d66" rx="10" ry="1"/><path fill="#9f9f9c" d="M36 227h32v2H36z"/><path fill="#a3a4a0" d="M33 218l-2 5 17-1z"/><path fill="#767772" d="M83.4 10.2l-11-1.4.2-1 11 1.4z"/><path fill="#fcfcfc" d="M105 50h60v158h-60z"/><path fill="#bec3c0" d="M132.5 47.9v1l-37 1.2v-1z"/><path fill="#6b6d6a" d="M96 83v1l-10-1v-1z"/><path fill="#b3b5b2" d="M80 4h3v46h-3z"/><path fill="#fff" d="M193.6 73.1l6.4 106-23.6-77.7.6-46.7z"/><path fill="#81847f" d="M53 212.2l-7.6 2.6-.3-1 7.5-2.6z"/><path fill="#fff" d="M37 19h30v1H37z"/><path fill="#feffff" d="M49.9 242.2l5-20.1L-16 214l68.8 2.7z"/><path fill="#fefffe" d="M71 54l11-15-29-16z"/><path fill="#fbfbfb" d="M63.4 15.4l18.7 7.9-95.9 95.8L86.6 7.6z"/><path fill="#fefefe" d="M83 232h102v7H83z"/><path fill="#fdfdfd" d="M135 21l61.6-32.2L84-16l81.5 38.7z"/><ellipse cx="130" cy="44" fill="#fff" rx="40" ry="4"/><path fill="#aaada5" d="M163 152h12v2h-12z"/><ellipse cx="55" cy="208" fill="#fff" rx="12" ry="3"/><path fill="#fff" d="M105 24h67v6h-67z"/><ellipse cx="119" cy="18" fill="#fff" rx="31" ry="4"/><ellipse cx="56" cy="22" fill="#7b7b78" rx="14" ry="1"/><path fill="#fcfcfc" d="M74.2 39.1l-20.8 166-36-152.2 75.2-27.6z"/><path fill="#fff" d="M49 17h3v13h-3z"/><path fill="#92938e" d="M32 16h13v2H32z"/><path fill="#fbfbfb" d="M7 15h28v182H7z"/><path fill="#a0a09e" d="M86 224h1v18h-1z"/><path fill="#666661" d="M36 235h1v5h-1z"/><path fill="#c4c8bf" d="M144 22h25v2h-25z"/><path fill="#fbfcfb" d="M51 225l1 10 15 2zm129.6-33.6l19.4 24.9-43.7 43.6L200 193z"/><path fill="#4f4f4b" d="M56 13h8v1h-8z"/><path fill="#9b9d98" d="M67.3 23.9l-3.5-11.5 1-.3 3.4 11.5z"/><path fill="#a8aaa6" d="M81.5 3L81 4 64.5-3l.4-1z"/><circle cx="59" cy="212" r="1" fill="#20201a"/><ellipse cx="174" cy="191" fill="#c0c1bf" rx="1" ry="40"/><path fill="#858580" d="M43.5 228.6l.2-1 8.8 1.8-.2 1z"/><path fill="#575652" d="M54 21h12v1H54z"/><ellipse cx="87" cy="49" fill="#b2b3b2" rx="1" ry="34"/><circle r="1" fill="#a4a4a3" transform="matrix(7.26472 -5.38445 .59545 .80339 39.4 209.5)"/><path fill="#868683" d="M64.1 197l.7 10h-1l-.6-10z"/></g></g></svg>