<svg xmlns="http://www.w3.org/2000/svg" viewBox="0 0 1200 900"><defs/><filter id="a"><feGaussianBlur stdDeviation="12"/></filter><rect width="100%" height="100%" fill="#55522b"/><g filter="url(#a)"><g fill-opacity=".5" transform="translate(2.3 2.3) scale(4.6875)"><ellipse cx="120" cy="89" fill="#b0b0c5" rx="153" ry="190"/><circle r="1" transform="matrix(-12.7016 45.66084 -23.13255 -6.43484 69.3 172.6)"/><path fill="#ffffed" d="M82.8 125.8l-53-2.7 3.4-63 53 2.8z"/><circle r="1" fill="#dce0dd" transform="matrix(-1.88767 -38.59613 26.58537 -1.30024 183 74.6)"/><path fill="#fff" d="M242 62h12v80h-12z"/><circle cx="118" cy="116" r="43" fill="#5f5138"/><path fill="#d6deff" d="M0 163h43v29H0z"/><path fill="#111b00" d="M197 167l-36-29 7 69z"/><ellipse cx="129" cy="93" fill="#37260b" rx="8" ry="191"/><circle r="1" fill="#fffff4" transform="rotate(-74.9 87.8 5.2) scale(29.98395 14.73061)"/><path d="M43 158h47v34H43z"/><circle r="1" fill="#302d11" transform="matrix(7.53816 -.17567 .72868 31.26888 11.5 111.1)"/><circle r="1" fill="#c9cad4" transform="rotate(30 -236 152.5) scale(22.70018 7.81999)"/><path fill="#1f1a1b" d="M57 138l-20 22-32-23z"/><path fill="#f9ffff" d="M234 108h19v27h-19z"/><path fill="#f1f6ff" d="M173 75l-5 45 20 27z"/><path fill="#ffffed" d="M20 62h55v19H20z"/><path fill="#ffffef" d="M202 44h6v85h-6z"/><circle r="1" fill="#48517c" transform="matrix(-19.20075 5.57833 -14.6191 -50.31926 231.4 167)"/><ellipse cx="206" cy="60" rx="43" ry="2"/><path fill="#050000" d="M74 132l15-28 1 74z"/><path fill="#908977" d="M91 75h31v107H91z"/><path fill="#6b5c14" d="M250 33.3l1 28-43 1.4-1-28z"/><circle r="1" fill="#91ac3b" transform="rotate(-4.6 1190.2 -368.6) scale(13.07548 16.58344)"/><ellipse cx="188" cy="97" fill="#28241b" rx="2" ry="73"/><path fill="#a4a6a1" d="M150 3h92v29h-92z"/><ellipse cx="178" cy="46" fill="#fff" rx="10" ry="11"/><path fill="#777466" d="M131 43h38v149h-38z"/><ellipse cx="77" cy="102" fill="#3a3017" rx="2" ry="48"/><path fill="#e3dfc7" d="M217.9 67.9l31.5-5.6 2.7 15.8-31.5 5.6z"/><path fill="#d6dcf0" d="M171 134h37v11h-37z"/><ellipse cx="209" cy="93" fill="#1c150a" rx="2" ry="57"/><ellipse cx="49" cy="60" fill="#211b15" rx="51" ry="2"/><path fill="#bac6a3" d="M2 138l81-12-39-22z"/><path fill="#fff" d="M170 49h6v69h-6z"/><path fill="#1e2538" d="M244.3 110.9l-14-1.9 6.7-9 6.1-8.2z"/><ellipse cx="207" cy="34" fill="#040000" rx="44" ry="2"/><path fill="#474a37" d="M187.3 124.7l-47-8 22.9-26.1-6.6 50.6z"/><ellipse cx="83" cy="79" fill="#fff" rx="4" ry="17"/><path fill="#110a07" d="M16 61h4v58h-4z"/><path fill="#fff" d="M195 72h3v52h-3zM61.4 141.3l.2 7-13 .4-.2-7z"/><path fill="#120907" d="M9.5 117h-4l-1-58h4z"/><ellipse cx="248" cy="94" fill="#f9ffff" rx="5" ry="32"/><path fill="#c2c7c2" d="M154 13h4v85h-4z"/><path fill="#8c9cc4" d="M209.3 164.5l-37.2-14.8 28.6-2.3 16 4.7z"/><path fill="#dfdac1" d="M190.9 52.5l.5-16 17.1 1.8.4 12.3z"/><path fill="#ffffdc" d="M8 79.6l2-16 6 .8-2 16z"/><path fill="#282a32" d="M220 114h13v22h-13z"/><ellipse cx="21" cy="153" fill="#161b1e" rx="31" ry="3"/><path fill="#13140f" d="M172 145.1l-4.3 4 43.7-.3-2.8-2.7z"/><path fill="#fff" d="M30 133h26v5H30z"/><ellipse cx="200" cy="89" fill="#5c626d" rx="2" ry="58"/><path fill="#ffffea" d="M55 62h19v52H55z"/><ellipse cx="123" cy="190" fill="#151009" rx="3" ry="42"/><path fill="#2d350a" d="M173 153l25 5-33 30z"/><path fill="#331d0a" d="M87 60h3v73h-3z"/><path fill="#98a1b9" d="M246 180l-1-43-13 5z"/><path fill="#8aa05f" d="M31.6 121.9l33.3 5.3 14.3-10.9-46.2 2.9z"/><path fill="#230f17" d="M34 131h37v2H34z"/><path fill="#fff" d="M182 63h3v57h-3z"/><path fill="#c0c5e1" d="M39.1 207L9.2 142.8l1.5 10 32.4 14.7z"/><ellipse cx="102" cy="26" fill="#7a715f" rx="13" ry="104"/><ellipse cx="79" cy="93" fill="#39260a" rx="1" ry="35"/><path fill="#949087" d="M135.3 158.2l2.4-34 23 1.6-2.4 34z"/><ellipse cx="203" cy="185" fill="#6d7a9f" rx="23" ry="11"/><path fill="#888a92" d="M174.8 84.1l7-.2 1.4 40-7 .2z"/><circle r="1" fill="#868990" transform="matrix(-24.35842 12.19779 -19.08116 -38.10419 61 17.6)"/><path fill="#5d5959" d="M72.9 139l-53.2-1.3-35.7 3.4 52.5 8.6z"/><path fill="#eaebff" d="M30 127h42v3H30z"/><path fill="#0e070d" d="M70 128l25-7-25 16z"/><path fill="#403826" d="M123.5 96l-2.2-43-.1-69h12.4z"/><path fill="#202605" d="M201.8 180.5l3.1 9.5-4.7 1.5-3.1-9.5z"/><ellipse cx="105" cy="163" fill="#827b6b" rx="16" ry="161"/><path fill="#9a9151" d="M211 38h34v21h-34z"/><path fill="#292a2c" d="M246 141h3v51h-3z"/><path fill="#2d251b" d="M150 61h3v38h-3z"/><path fill="#f0f4bd" d="M73 84l1 33-45-2z"/><path fill="#dbdf98" d="M47 97L18.3 67.3 27 59l28.5 29.5z"/><path fill="#686a6c" d="M-10.9 19.4l100 11.8-69.5 2.7-35.6 69.6z"/><path fill="#675b55" d="M211.2 86.8l37-7.9-36.3 30.1-1.5-6.4z"/><ellipse cx="158" cy="110" fill="#112900" rx="3" ry="11"/><path fill="#9e9f93" d="M170.7 63.6l-21.2-25-1 24.9 18.7-79z"/><ellipse cx="4" cy="134" fill="#e6ebff" rx="7" ry="2"/><path fill="#0b0807" d="M233 130l-28-6 12 7z"/><path fill="#f8f8eb" d="M171 37h17v21h-17z"/><path fill="#717450" d="M74 92h23v14H74z"/><path fill="#1b1416" d="M41.6 153.1l71.5 53.9-88.3-58 51.6 2.2z"/><path fill="#eff7ff" d="M176.2 141.4l4.6 5 6.7-19.4-9.2.6z"/><path fill="#120b11" d="M227 32h3v27h-3z"/><path fill="#feffff" d="M61 61h15v24H61z"/><path fill="#978f73" d="M69 139l8 19 1-19z"/><path fill="#a1aac8" d="M206.3 149l-34.7 5.8 22.6-.4 16.8 21.2z"/><path fill="#868ca1" d="M24 142l-40 35 18 26z"/><circle cx="58" cy="147" r="3" fill="#fff"/><ellipse cx="192" cy="95" fill="#636777" rx="2" ry="33"/><path fill="#a4a7b1" d="M211 109l13-2-5 18z"/><path fill="#4a494c" d="M189.5 116.7l13.8 8 9.3-7.8-36.8 9.7z"/><ellipse cx="83" cy="108" fill="#fff4d4" rx="2" ry="6"/><ellipse cx="202" cy="60" fill="#3a322c" rx="37" ry="2"/></g></g></svg>