<svg xmlns="http://www.w3.org/2000/svg" viewBox="0 0 1200 696"><defs/><filter id="a"><feGaussianBlur stdDeviation="12"/></filter><rect width="100%" height="100%" fill="#666562"/><g filter="url(#a)"><g fill-opacity=".5" transform="translate(2.3 2.3) scale(4.6875)"><circle cx="107" cy="85" r="173" fill="#fff"/><circle cx="159" cy="67" r="179" fill="#fff"/><circle cx="177" cy="40" r="185" fill="#fff"/><ellipse cx="107" cy="110" fill="#f4af48" rx="6" ry="33"/><ellipse cx="95" cy="66" fill="#fffdf4" rx="142" ry="147"/><ellipse cx="11" cy="115" fill="#edac55" rx="7" ry="31"/><path fill="#e1ab5e" d="M203 165.8l-11 .4-3-82 11-.4z"/><path fill="#f8a321" d="M237 26h13v30h-13z"/><path fill="#e89181" d="M141 2h14v55h-14z"/><path fill="#edab45" d="M235 84h11v54h-11z"/><path fill="#f4b855" d="M51 114l9 39 7-38z"/><path fill="#e6b167" d="M101 84h11v60h-11z"/><path fill="#d99d73" d="M54 85h11v18H54z"/><ellipse cx="213" cy="104" fill="#feffff" rx="235" ry="5"/><path fill="#fff" d="M37 26l212 56-262 2z"/><circle r="1" fill="#fff" transform="matrix(13.30198 -.05217 .66744 170.17895 218.6 80.2)"/><path fill="#d7b09c" d="M141 83h14v20h-14z"/><path fill="#cea4a0" d="M202.8 16.4l-16.7.2.7-.7 8.5-31.9z"/><path fill="#dcd5d5" d="M50-29h18v90H50z"/><path fill="#d08d7f" d="M99.5 7.3L124.4-16H98.9l16.6 29.5z"/><ellipse cx="83" cy="81" fill="#fff" rx="14" ry="142"/><ellipse cx="171" cy="74" fill="#fff" rx="14" ry="147"/><path fill="#fff" d="M248 41h8v107h-8z"/><path fill="#ddaf98" d="M253.5-7l-6.3 25.2-12.7-3.2 6.3-25.2z"/><ellipse cx="130" cy="147" fill="#fff" rx="255" ry="6"/><circle r="1" fill="#fff" transform="rotate(-179.3 18.3 44.8) scale(14.1743 121.81926)"/><path fill="#fff" d="M112.5-.2l7 44 59.2-50.2 6 46.9zM0 58h256v26H0z"/><path fill="#c8c0be" d="M95 47l24 15-20 1z"/><path fill="#c8a37e" d="M190.1 98.6l-7.9 5.2 13.9-21.9 7.8 19.9z"/><path fill="#d88826" d="M101.7 96.7l-.4-11 9-.4.4 11z"/><ellipse cx="127" cy="76" fill="#fff" rx="10" ry="147"/><path fill="#dc876f" d="M53.3 9.9l8.4-1.7 2-5.8-5.2-2.5z"/><path fill="#febf58" d="M191 112h12v13h-12z"/><path fill="#f5c16d" d="M17.8 142.9l-14.7-4-.1-1.4 12.3-32.4z"/><path fill="#faa28f" d="M143.5 55.9l7.8 1.9 5.9-28.9-18-1.6z"/><path fill="#f9c060" d="M117 123l-20-1 11-15z"/><path fill="#c99978" d="M248 59l-15-11-3 5z"/><path fill="#dfc8a8" d="M138 110h6v32h-6z"/><circle cx="139" cy="52" r="3" fill="#a76b5c"/><ellipse cx="13" cy="30" fill="#dfdfe2" rx="10" ry="32"/><path fill="#dcc69b" d="M151 92h3v48h-3z"/><path fill="#a16659" d="M184 49h5v6h-5z"/><path fill="#d3b0aa" d="M14 83l10 18-21-2z"/><path fill="#ae766b" d="M102.3 136.3l-4.7 3.8-1.9-2.4 4.7-3.8z"/><path fill="#cba076" d="M236 87h12v14h-12z"/><path fill="#fdcd78" d="M243 99l-10 15 9 27z"/><ellipse cx="236" cy="103" fill="#fcffff" rx="144" ry="3"/><path fill="#f9ba52" d="M51 117h17v6H51z"/><path fill="#fff" d="M62.9 163l42.6-36-57.2-4.6 20 10.6z"/><path fill="#f9fbff" d="M-16 128.5l1.4-34.7 106.4 27.4-77.3-16.5z"/><path fill="#feffff" d="M184.9 136.6l-76.6-35.5 18.3 56.7 21.9-46.1z"/><circle r="1" fill="#fff" transform="matrix(.4494 -116.75679 13.6662 .0526 217.6 77)"/><ellipse cx="142" cy="19" fill="#fdffff" rx="154" ry="3"/><path fill="#fff" d="M154 39h29v109h-29z"/><path fill="#f9c26f" d="M190 125h10v17h-10z"/><path fill="#fff" d="M246-5l18 2-7 60zm-46 128h31v25h-31z"/><circle cx="61" cy="89" r="4" fill="#f09f3f"/><path fill="#727676" d="M51.9 40h-1L50 26h1z"/><path fill="#f8ca7c" d="M97 115l19-1-9 20z"/><path fill="#ddc2b5" d="M99.6 91.1l-.9 10.6 21.2 1.8-5.2-10.6z"/><path fill="#e2d8dd" d="M47.7 97.1l27.3 9.6-11.2-17 13.4-2.5z"/><path fill="#f5faff" d="M189 106h49v5h-49z"/><path fill="#e7edf2" d="M102.8 122l-7.9 8.6 2.6-12.8 5.2 41.6z"/><path fill="#fff" d="M56 25h8v29h-8z"/><path fill="#f8c160" d="M4 111h9v12H4z"/><path fill="#bc7657" d="M135.2 137.2l.8-3.9 6.8 1.5-.8 3.9z"/><path fill="#dbb9b1" d="M97 14l9-14 14 16z"/><path fill="#fff" d="M199 55h38v36h-38z"/><path fill="#dedad9" d="M136 9h26v8h-26z"/><path fill="#f7bc70" d="M50 137l13-10 2 13z"/><path fill="#fcfeff" d="M88.9 75.3L147.6-.4l26.9 29.6-32.1-45.9z"/><path fill="#e69f6d" d="M234 13h18v4h-18z"/><path fill="#cc5e42" d="M149.1 1l-5.4 8.5-.8-.6 5.4-8.4z"/><path fill="#dba08f" d="M34.3-13.5l19.2 9.7L64.1 11l4-3z"/><circle r="1" fill="#fff" transform="matrix(-11.15939 -.4943 6.41038 -144.71888 37.8 66)"/><path fill="#fff" d="M108.6-16L30.3 11.5l19.8-26.2 40.1 56.8z"/><path fill="#9c5358" d="M3 135h4v5H3z"/><ellipse cx="107" cy="34" fill="#eeeff0" rx="10" ry="27"/><path fill="#feffff" d="M111 124h26v17h-26z"/><path fill="#c89d6c" d="M187 94.7l12.1-2.4-2.1-2.6-6-6.7z"/><path fill="#d0d3d4" d="M55 20h19v9H55z"/><path fill="#fff" d="M-16 149l16-33 8 14zM8 27h10v26H8z"/><path fill="#dfbb77" d="M150 111l6-1 2 5z"/><path fill="#fefeff" d="M25 124h31v13H25z"/><path fill="#e1e8f4" d="M7 140h10v8H7z"/><path fill="#a7a8aa" d="M58 163h93l-43-18z"/><path fill="#caa69b" d="M99 48l7 7-10-2z"/><path fill="#dabf8a" d="M231 134h15v5h-15z"/><path fill="#b6babf" d="M190.3 140.4l-7.8-2 1.2-4.8 7.8 2z"/><ellipse cx="146" cy="97" fill="#e05a3c" rx="7" ry="1"/><ellipse cx="68" cy="28" fill="#9c9f9f" rx="1" ry="11"/><ellipse cx="83" cy="100" fill="#fff" rx="14" ry="101"/><path fill="#f1aa9a" d="M142 26h15v13h-15z"/><path fill="#e8a799" d="M139 26h4v13h-4z"/><path fill="#feffff" d="M139 26L94 59l43-2z"/><path fill="#fabc65" d="M238 29h8v28h-8z"/><path fill="#c1745f" d="M152.4 10l-9.7-17.5.9-.5 9.7 17.5z"/></g></g></svg>