<svg xmlns="http://www.w3.org/2000/svg" viewBox="0 0 879 1200"><defs/><filter id="a"><feGaussianBlur stdDeviation="12"/></filter><rect width="100%" height="100%" fill="#4b494b"/><g filter="url(#a)"><g fill-opacity=".5" transform="translate(2.3 2.3) scale(4.6875)"><circle r="1" fill="#fff" transform="matrix(-40.26921 171.39035 -181.06923 -42.54332 103.7 102.7)"/><path fill="#faf5e3" d="M-34.5 179.1L-18.2-6.2l80.7 7-16.3 185.4z"/><ellipse cx="161" cy="59" fill="#f4efde" rx="31" ry="159"/><circle r="1" fill="#5b5a53" transform="matrix(50.7175 5.18155 -4.61496 45.17166 89.8 255)"/><ellipse cx="99" cy="19" fill="#c4c3bd" rx="144" ry="29"/><ellipse cx="94" cy="235" fill="#fff" rx="52" ry="2"/><path fill="#5f5f5b" d="M1 233l-14 37 141-30z"/><circle r="1" fill="#bdb7ab" transform="matrix(-43.97428 -50.40867 34.2333 -29.8636 136.8 183)"/><path fill="#6a6457" d="M47 182h41v16H47z"/><path fill="#f7efdd" d="M77 95l1 17-63 1z"/><circle r="1" fill="#bab6a9" transform="matrix(52.93463 51.05045 -12.24427 12.69619 20.9 186.7)"/><path fill="#232629" d="M48 239h93v6H48z"/><path fill="#656156" d="M60 49h64v8H60z"/><ellipse cx="73" cy="169" fill="#857e70" rx="26" ry="10"/><path fill="#6b6763" d="M46 210h94v11H46z"/><circle cx="97" cy="64" r="9" fill="#fdf8e6"/><ellipse cx="95" fill="#ece9e1" rx="45" ry="10"/><path fill="#999895" d="M34.1.9l-33 26.4L-8.1-16l113.2 4.1z"/><path fill="#f1ecde" d="M119 130l11 33h-21z"/><ellipse cx="86" cy="37" fill="#625d57" rx="32" ry="2"/><circle r="1" fill="#858074" transform="matrix(-32.97594 9.4557 -1.86417 -6.50113 91.2 80)"/><circle r="1" fill="#dedbd3" transform="matrix(20.3489 40.24376 -22.59387 11.42439 159.1 70.7)"/><path fill="#c0bdb5" d="M109 176h18v60h-18z"/><circle r="1" fill="#e3e0d6" transform="rotate(-81.9 60.6 12.4) scale(62.51375 14.2258)"/><path fill="#e9e5d9" d="M88 154h38v11H88z"/><ellipse cx="95" cy="24" fill="#797874" rx="39" ry="3"/><ellipse cx="131" cy="163" fill="#8b8881" rx="5" ry="68"/><circle r="1" fill="#9b9998" transform="matrix(8.2087 -12.09253 35.39576 24.0275 186 9.6)"/><path fill="#fff" d="M145.5 182.4l-99-1.8v-1l99 1.8z"/><circle r="1" fill="#9b968f" transform="matrix(14.05473 -15.48705 25.84775 23.45722 21.7 247.4)"/><path fill="#f2f5f2" d="M53 207h93v3H53z"/><ellipse cx="129" cy="78" fill="#fff" rx="76" ry="1"/><path fill="#e4dfd2" d="M33 131h137v4H33z"/><path fill="#77736c" d="M77.8 170.3l44.2-6.1 14 4.9-6.1 6.8z"/><path fill="#e8e3d3" d="M92 159.8l-53.9.1 3.8-.9 8.4-10z"/><ellipse cx="141" cy="255" fill="#868682" rx="113" ry="12"/><path fill="#90897c" d="M135.1 142.7l-39.6-.8-52.7-8.8L89 155.3z"/><path fill="#524d4b" d="M75 210h36v12H75z"/><path fill="#b6b3ab" d="M92 226l-34-9-10-17z"/><path fill="#dfd9cb" d="M68.2 103l22.6 39.6 38-1.8-32.5-9.9z"/><path fill="#dbd9cd" d="M21 41h112v7H21z"/><ellipse cx="95" cy="113" fill="#fff" rx="40" ry="1"/><path fill="#e9e9e0" d="M65 16h44v6H65z"/><ellipse cx="173" cy="153" fill="#d2cec5" rx="40" ry="31"/><circle r="1" fill="#c2beb4" transform="rotate(92.6 -78.7 102.4) scale(27.63576 27.33398)"/><path fill="#77736b" d="M57.4 175.5l17.9-14.8 7-.1-38.9-1.2z"/><path fill="#918d82" d="M53.6 43.3l33.9 22.2-36.8 18.2 17.8 15.2z"/><path fill="#d2d1cc" d="M135.2 2.2L202 56.5l-78.8-21.9 7.8-48.4z"/><circle r="1" fill="#a09e9a" transform="rotate(-94.8 160 18.2) scale(107.29379 1)"/><path fill="#807a6e" d="M84 115h52v6H84z"/><path fill="#777470" d="M61 10h67v4H61z"/><path fill="#2a2f35" d="M61.9 245.3l2.4-6.1-20.8-4.7 10.2 13z"/><ellipse cx="119" cy="184" fill="#797670" rx="25" ry="2"/><circle r="1" fill="#dcd8ce" transform="rotate(-162 15.4 44.8) scale(41.61946 31.1628)"/><ellipse cx="97" cy="74" fill="#423f3b" rx="9" ry="3"/><path fill="#98958e" d="M27 252l14-44 36 1z"/><path fill="#454745" d="M113 238h25v10h-25z"/><path fill="#8f8d87" d="M64 22h31v12H64z"/><path fill="#938d7e" d="M64 97h74v5H64z"/><path fill="#fffffb" d="M59 61h100v1H59z"/><path fill="#d0d4d3" d="M69 235h32v4H69z"/><path fill="#837e76" d="M63 80h70v6H63z"/><ellipse cx="84" cy="34" fill="#f9f9f2" rx="39" ry="1"/><circle cx="75" cy="168" r="5" fill="#ded9ce"/><path fill="#91887a" d="M111.1 140.3l-8.2 12 10.5 12.8-3.2-28.3z"/><ellipse cx="123" cy="224" fill="#949290" rx="29" ry="5"/><path fill="#fffbe6" d="M117 102h8v6h-8z"/><circle cx="164" cy="198" r="28" fill="#b9b7b1"/><path fill="#918f89" d="M94 36l-7 5 21 24z"/><circle r="1" fill="#464544" transform="matrix(1.55055 -1.5428 4.45042 4.4728 49 213.8)"/><path fill="#d9d6cc" d="M104.9 51.5L91.4 73.3l15.5-2.5L88 56.9z"/><path fill="#756f66" d="M47 135h39v4H47z"/><ellipse cx="55" cy="234" fill="#dde0dd" rx="17" ry="2"/><ellipse cx="102" cy="95" fill="#fff" rx="25" ry="1"/><ellipse cx="171" cy="187" fill="#524e4f" rx="15" ry="1"/><path fill="#837d6f" d="M51 114h25v5H51z"/><path fill="#8f8a82" d="M167.7 115l2.8-9.6 5.8 1.6-2.8 9.6z"/><ellipse cx="92" cy="47" fill="#fff" rx="37" ry="1"/><path fill="#75726d" d="M57 49h29v11H57z"/><path fill="#86837d" d="M134.6 49.2L95.4 78.5l35.3-11.9L87.6 48z"/><circle r="1" fill="#d9d7ce" transform="rotate(-97 103 -22.6) scale(104.47893 5.29342)"/><path fill="#7e7b76" d="M80 36h48v4H80z"/><path fill="#d8d3c7" d="M24.2 156.7L22.5 46.5l37.6 108.8 4.6-41.7z"/><path fill="#918979" d="M65 123h21v7H65z"/><path fill="#feffff" d="M93 140h35v2H93z"/><path fill="#817c76" d="M119 128l9.7-7.7v46.1l6.5-26.4z"/><path fill="#989590" d="M157.4 184.6h-1L142.6 53.5h1z"/><path fill="#cecabf" d="M94 185h31v11H94z"/><ellipse cx="131" cy="158" fill="#eff0ea" rx="6" ry="2"/><path fill="#eae6dd" d="M91 163l23-1-36-11z"/><path fill="#d5cfc4" d="M112.8 163.6l-1.4-44.6 7.9 1.3 1.4-.5z"/><path fill="#7b7671" d="M61.8 62.5l1.3 7.8-6.9 1.2-1.3-7.8z"/><path fill="#615f5a" d="M85 228h22v7H85z"/><path fill="#dad7ce" d="M143 37l59 42-50 43z"/><path fill="#7f7a76" d="M127.1 187.9l10.7-5.7v19.2l-5.4-4.1z"/><path fill="#cbc7bd" d="M-.7 102.8L59.6 197l-10.2-30.2-58.6-5.2z"/><ellipse cx="69" cy="133" fill="#fff" rx="18" ry="1"/><path fill="#949391" d="M71 247h45v9H71z"/><path fill="#edf0ed" d="M143.5 236.6v1l-61-2.2v-1z"/><path fill="#d2cebd" d="M115 83h11v7h-11z"/></g></g></svg>