<svg xmlns="http://www.w3.org/2000/svg" viewBox="0 0 1200 398"><defs/><filter id="a"><feGaussianBlur stdDeviation="12"/></filter><rect width="100%" height="100%" fill="#686c68"/><g filter="url(#a)"><g fill-opacity=".5" transform="translate(2.3 2.3) scale(4.6875)"><ellipse cx="118" cy="28" fill="#fff" rx="158" ry="82"/><circle r="1" fill="#fff" transform="matrix(-1.89462 -41.72284 246.84549 -11.20919 124.8 38.3)"/><circle r="1" fill="#fff" transform="rotate(-93.5 59.6 -8.1) scale(29.24561 230.32494)"/><ellipse cx="68" cy="13" fill="#6ba36a" rx="111" ry="6"/><path fill="#55a755" d="M61 69h35v15H61z"/><ellipse cx="116" cy="43" fill="#fff" rx="255" ry="26"/><ellipse cx="225" cy="16" fill="#349733" rx="255" ry="2"/><path fill="#2caa2d" d="M116 81h134v3H116z"/><ellipse cx="191" cy="8" fill="#fbf6fa" rx="79" ry="8"/><ellipse cx="170" fill="#fff" rx="189" ry="3"/><circle cx="19" cy="58" r="41" fill="#fff"/><path fill="#bfbfbf" d="M56 4h129v12H56z"/><ellipse cx="194" cy="41" fill="#fff" rx="255" ry="23"/><path fill="#7fb07e" d="M10 3h45v14H10z"/><path fill="#afd197" d="M250 67l-23 3 35 29z"/><path fill="#bdc7bd" d="M137 68h87v13h-87z"/><path fill="#40a741" d="M54 81h62v3H54z"/><ellipse cx="50" cy="9" fill="#e1d5e1" rx="50" ry="3"/><path fill="#fff" d="M98 19h40v63H98z"/><ellipse cx="199" cy="17" fill="#66ae66" rx="83" ry="2"/><path fill="#fff" d="M185 0h65v14h-65z"/><circle cy="2" r="10" fill="#fff"/><ellipse cx="20" cy="15" fill="#4fa14e" rx="55" ry="3"/><path fill="#6baa6b" d="M189 71h16v7h-16z"/><ellipse cx="231" cy="49" fill="#fff" rx="255" ry="19"/><path fill="#73b574" d="M261.6 9.6l-6.1 5.2-7.1-8.4 6.1-5.2z"/><path fill="#fff" d="M0 77h110v2H0z"/><path fill="#a40000" d="M251 78.3l2.1-9.8 5.9 1.2-2.1 9.8z"/><path fill="#7dad79" d="M90 16l11-14 15 5z"/><path fill="#58a85a" d="M195 80h54v4h-54z"/><path fill="#fff" d="M35.6 5.5L12.7-8.7-16 3.8 107-6.5zm232.9 12.4l-62.8.8-58.8-.5L228.8 76zM0 19h54v64H0z"/><path fill="#ffec96" d="M252 79l10-1-12 21z"/><ellipse cx="15" cy="13" fill="#5ca05b" rx="20" ry="3"/><path fill="#8cb48b" d="M15 4h42v4H15z"/><path fill="#fff" d="M119.3 20.4L31.1 18l226.3 52.3-1.2-51z"/><path fill="#c7c4c7" d="M142.4 82.6l-10.5-6.2 4.7-9.4 31.4.8z"/><path fill="#c3c3c3" d="M151 2h33v10h-33z"/><path fill="#3b8a3a" d="M63 79h18v2H63z"/><path fill="#67a968" d="M57 81h193v3H57z"/><path fill="#e2d0dc" d="M57 12h76v2H57z"/><path fill="#9bc29a" d="M59 68h34v8H59z"/><path fill="#fff" d="M271-16H154.1l43.6 30.3 40.7 1.6z"/><path fill="#81bf95" d="M0 83h54v1H0z"/><path fill="#fff" d="M140.7 18.5L70.2 69.6-16 76.7l3.7-55z"/><path fill="#d8d7d9" d="M211.2 80l-8.8-2.8 21.2-9 15.5 10.2z"/><path fill="#fff" d="M10.1 9.5l-17-19.9-.9 34.3-.4-11zm104.3-8.4l86 .9L97.9-16 81.5 6.1zM63 35l42 44 35 1z"/><path fill="#fff" d="M184 71L-13 18h192z"/><path fill="#cbcccb" d="M120.7 0l-14.1 3.8 12.6 11.7H185z"/><path fill="#d3d6d3" d="M138 77h79v4h-79z"/><path fill="#86b891" d="M251 73l-15 4V67z"/><path fill="#efe1dd" d="M79 76h39v4H79z"/><ellipse cx="22" cy="18" fill="#abd3ab" rx="162" ry="1"/><path fill="#7cba7c" d="M7 2h21v5H7z"/><path fill="#cacac8" d="M101.6 15.2l-4.8-8.8-36.1-5.3-20.4 2.7z"/><ellipse cx="81" cy="15" fill="#4aa349" rx="28" ry="1"/><path fill="#5ca85b" d="M240 14h16v3h-16z"/><path fill="#e6cab1" d="M248.6 70.9l3-.5 3.8 24.7-3 .5z"/><path fill="#86b185" d="M194 70h10v9h-10z"/><ellipse cx="71" fill="#fff" rx="209" ry="1"/><path fill="#fff" d="M42 77h24v3H42z"/><path fill="#81b181" d="M36 6h15v4H36z"/><path fill="#fff" d="M242-16l-29 31-34-1z"/><path fill="#f2c5bf" d="M216 11h23v2h-23z"/><path fill="#760000" d="M253 70h3v8h-3z"/><path fill="#5ca35c" d="M149 16h107v2H149z"/><path fill="#9ec89d" d="M59 77.8l-2.2-5.6 10.3-4 2.1 5.6z"/><path fill="#fff" d="M178-4l-41 9-25-18z"/><path fill="#64a961" d="M212 80h39v4h-39z"/><path fill="#fdfefd" d="M31.5 7.6l-4.9-19.9 102.8 14L43 1z"/><path fill="#fff" d="M204.5 66l4.6-23.5 28.4 5.5-4.6 23.5z"/><path fill="#730500" d="M248.9 77.3l-3 4-.8-.6 3-4z"/><path fill="#86b388" d="M96.4 11.1l12.4-8.4 2.8 4.2-12.4 8.4z"/><path fill="#fff" d="M45.5 5.1L88-16 73.9 1.8.1-9.4z"/><path fill="#aa7771" d="M96 14l1-3-5 1z"/><path fill="#690000" d="M93 12h3v1h-3z"/><circle r="1" fill="#fbfcfb" transform="matrix(-.69471 1.8926 -10.81724 -3.97065 3.4 7)"/><ellipse cx="101" cy="79" fill="#fff" rx="13" ry="1"/><path fill="#c5c3c5" d="M191 67h16v2h-16z"/><path fill="#9ac09c" d="M94.6 78.7L86 76.1l1.4-4.8 8.6 2.6z"/><path fill="#7eb37e" d="M89 73l-5-6-6 4z"/><path fill="#469e45" d="M80 80h11v1H80z"/><path fill="#c9c7c9" d="M134 70h34v8h-34z"/><path fill="#fdfff9" d="M273.4 10.6v1l-42.8 3.8v-1z"/><path fill="#ffc27e" d="M251 79h5v5h-5z"/><path fill="#cbcdcd" d="M96 11h55v4H96z"/><path fill="#fff" d="M204.2 38.1l-84.7 37.6-25.7-4.9-1.6-52z"/><path fill="#cfcccf" d="M156 71h34v9h-34z"/><ellipse cx="43" cy="15" fill="#6bac6b" rx="66" ry="2"/><ellipse cx="149" cy="81" fill="#a3bca0" rx="13" ry="1"/><path fill="#fff" d="M110-8L96 4 65-1z"/><path fill="#d0cdd0" d="M14 9h72v2H14z"/><path fill="#cecacf" d="M53 1l1 7 16-6z"/><path fill="#fff" d="M250.7 49.6l-7.1-28.8L5 18.8 176.7 71z"/><ellipse cx="18" cy="82" fill="#d6daff" rx="34" ry="1"/><path fill="#e1ece4" d="M81.4 74.5l1.3 5.3 3.1-1.1-14-1.5z"/><path fill="#66a966" d="M0 12h42v6H0z"/></g></g></svg>