<svg xmlns="http://www.w3.org/2000/svg" viewBox="0 0 1200 841"><defs/><filter id="prefix__a"><feGaussianBlur stdDeviation="12"/></filter><rect width="100%" height="100%" fill="#444646"/><g filter="url(#prefix__a)"><g transform="translate(2.3 2.3) scale(4.6875)"><circle cx="159" cy="67" r="201" fill="#fff" fill-opacity=".5"/><circle cx="132" cy="80" r="173" fill="#fff" fill-opacity=".5"/><circle cx="160" cy="123" r="202" fill="#fff" fill-opacity=".5"/><circle cx="135" cy="140" r="195" fill="#fff" fill-opacity=".5"/><circle r="1" fill="#c2c2ce" fill-opacity=".5" transform="matrix(-21.39115 31.02454 -22.96287 -15.8327 124.5 77.8)"/><path fill="#bb8786" fill-opacity=".5" d="M160.8 134.7l-44.9-51.2-33.7 81.6 30.9-99.6z"/><circle r="1" fill="#fff" fill-opacity=".5" transform="matrix(-59.90143 -4.41869 14.36883 -194.78934 210 95.8)"/><ellipse cx="30" cy="52" fill="#fff" fill-opacity=".5" rx="74" ry="137"/><path fill="#cb524d" fill-opacity=".5" d="M179.4 78.1l-62.6-24.9L90.3 41l61.5 22.8z"/><path fill="#d04943" fill-opacity=".5" d="M118.2 80L99.3 48.5l55.5 79.2-40.1-53.2z"/><circle r="1" fill="#fff" fill-opacity=".5" transform="matrix(-90.6695 -16.56642 5.22588 -28.6017 152.3 27.5)"/><circle r="1" fill="#fff" fill-opacity=".5" transform="rotate(-108.7 147 -1) scale(31.67923 141.63391)"/><path fill="#92bfdf" fill-opacity=".5" d="M73 101l57-5 26-29z"/><circle r="1" fill="#fff" fill-opacity=".5" transform="matrix(-12.81818 2.74798 -4.81981 -22.4824 115.7 122.1)"/><path fill="#ae3731" fill-opacity=".5" d="M87 153l11-32.2 1 .3-11 32.1z"/><path fill="#fdfdfa" fill-opacity=".5" d="M119.9 85.8l-26.3 8.6-7.7-55.9 26.3 30.8z"/><path fill="#fff" fill-opacity=".5" d="M130.5 76.6l16.8 22.6-40.9-49.7 34.1 18z"/><path fill="#ec0700" fill-opacity=".5" d="M111.6 51.3L100 45.6l.5-.9 11.7 5.7z"/><ellipse cx="35" cy="126" fill="#fff" fill-opacity=".5" rx="51" ry="146"/><path fill="#fff" fill-opacity=".5" d="M153 68l13 47-28-24z"/><path fill="#b78883" fill-opacity=".5" d="M89.8 150.8L113 78.4l-14.6 29.7-11.9 39.5z"/><path fill="#ee544b" fill-opacity=".5" d="M130.4 95.4l18.2 24-1.6-5.3L129.1 91z"/><path fill="#cf544c" fill-opacity=".5" d="M143.1 112l-31.9-43.3-10.5-18.6 51.1 72.9z"/><path fill="#d40f07" fill-opacity=".5" d="M166.8 73l-52-21 .4-1 52 21z"/><circle r="1" fill="#95cefb" fill-opacity=".5" transform="matrix(-5.34084 -2.32226 8.07075 -18.56146 145.3 69.8)"/><path fill="#fff" fill-opacity=".5" d="M76.5 25l25.2-45.4L165.5 15l-25.2 45.4zm172.3 49l44.5 77-154.1 89-44.5-77z"/><path fill="#fdfefe" fill-opacity=".5" d="M91 144l14-39 50 20z"/><path fill="#f7f7f7" fill-opacity=".5" d="M81 167L11 63l65-40z"/><circle r="1" fill="#fff" fill-opacity=".5" transform="rotate(-69.7 138.6 -167) scale(48.42253 153.98434)"/><path fill="#ca4e47" fill-opacity=".5" d="M120.8 79l-17.7-22.8-1.9-1 2.1-2.3z"/><path fill="#9bd0fc" fill-opacity=".5" d="M85 98l20 3-16-13z"/><path fill="#fff" fill-opacity=".5" d="M128 103l-36 54 15-58z"/><path fill="#ccd0cb" fill-opacity=".5" d="M128 92l2 17 8 1z"/><circle cx="129" cy="68" r="9" fill="#fff" fill-opacity=".5"/><path fill="#c3d3d7" fill-opacity=".5" d="M109.6 71.9l22.6 33.8.6-5-22-35.2z"/><path fill="#f8f8f8" fill-opacity=".5" d="M96.3 92l19.5-11-48.7-49.1 16.6 60.2z"/><path fill="#fefefe" fill-opacity=".5" d="M253 81.5l-67.7-17.2-38.6 20.4-14.4 11z"/><path fill="#fdfdfd" fill-opacity=".5" d="M75 139l-4-63 26 41z"/><path fill="#f0f0ef" fill-opacity=".5" d="M83.7 153.3l-39.1-40.4 35.4 51 71.1-28.4z"/><path fill="#e35c53" fill-opacity=".5" d="M109 81l-3 12 5-9z"/><path fill="#e3ecef" fill-opacity=".5" d="M110.5 83.8L41.8 7.4 116 86.1l-7.7 18.6z"/><circle r="1" fill="#b45b59" fill-opacity=".5" transform="rotate(109 17.6 87) scale(13.99878 1)"/><path fill="#e7e7e7" fill-opacity=".5" d="M230 81.6l.8 1.8-58.9 25-.7-1.8z"/><path fill="#c8c7c7" fill-opacity=".5" d="M103 43h14v3h-14z"/><path fill="#cebfb9" fill-opacity=".5" d="M98.4 45l20.9 9.4-14.9-5.4 38.1 59.4z"/><path fill="#e8e8e8" fill-opacity=".5" d="M34.8 103.4L13 61.8l44.6-26.2-38.9 30.9z"/><circle r="1" fill="#e3e3e3" fill-opacity=".5" transform="rotate(2.6 -974.1 3432.5) scale(27.56904 1)"/><circle cx="147" cy="55" r="4" fill="#97d2ff" fill-opacity=".5"/><path fill="#cd423b" fill-opacity=".5" d="M102.6 52.3l35.6 50.8-.8.6-35.6-50.8z"/><path fill="#d1d1d1" fill-opacity=".5" d="M166.4 142.5l.1 1-18.9 2-.1-1z"/><path fill="#c4cfcd" fill-opacity=".5" d="M84.3 150.9l2.1-1.5 24.5-71.6-30 79.9z"/><path fill="#90c2de" fill-opacity=".5" d="M122.8 84.2l2.8 4.1-16.4 11.5-2.8-4.1z"/><path fill="#c5c6c4" fill-opacity=".5" d="M140 97h4v9h-4z"/><path fill="#fff" fill-opacity=".5" d="M98 79h6v14h-6z"/><circle cx="144" cy="63" r="2" fill="#bc5147" fill-opacity=".5"/><path fill="none" stroke="#c93b37" stroke-opacity=".5" stroke-width=".5" d="M87.5 151.4q19.7-57.4 21.8-66.1"/><path fill="#dadada" fill-opacity=".5" d="M53.1 123l-27-33.4.8-.6 27 33.4z"/><path fill="#fefefe" fill-opacity=".5" d="M96.7 64.3l14.8 22.3-30-98.4-10.9 45.2z"/><path fill="#c9cdd0" fill-opacity=".5" d="M134.6 99.8l-17-20.3 17.2 37 2.7-9.4z"/><path fill="#d6d6d6" fill-opacity=".5" d="M240.7 74l-59.8-23 .4-1 59.8 23z"/><circle r="1" fill="#fff" fill-opacity=".5" transform="matrix(-23.6951 -59.39243 43.80253 -17.47538 216.8 158.5)"/><circle r="1" fill="#fbfaf9" fill-opacity=".5" transform="matrix(-9.67735 15.5726 -5.399 -3.35513 108.2 116.6)"/><circle r="1" fill="#a7d4f6" fill-opacity=".5" transform="rotate(-25.8 241.9 -258.2) scale(7.43999 6.05812)"/><path fill="none" stroke="#ddddde" stroke-opacity=".5" stroke-width=".5" d="M153.5 69.9Q90 39.6 85.3 46.4"/><circle r="1" fill="#fff" fill-opacity=".5" transform="matrix(-49.1512 -101.4913 20.13428 -9.75083 26.6 136)"/><path fill="none" stroke="#c34542" stroke-opacity=".5" stroke-width=".5" d="M108.4 89.1q-2.3 4.3-19.3 58.5"/><path fill="#d3c8c5" fill-opacity=".5" d="M110.6 44.2l-4.6-1.9-7.4 2L131.4 55z"/><path fill="#eae9e5" fill-opacity=".5" d="M127 95l6 31-15-28z"/><path fill="#fefefd" fill-opacity=".5" d="M192 83l-61 9 26-19z"/><path fill="none" stroke="#e06761" stroke-opacity=".5" stroke-width=".5" d="M98 43q34.4 17.6 76.7 31.7"/><path fill="#b24b47" fill-opacity=".5" d="M151.4 66l-.4.8-6.4-2.7.4-1z"/><path fill="#a3becd" fill-opacity=".5" d="M143.4 70.5l2.1 2-17 17-2-2z"/><path fill="#fff" fill-opacity=".5" d="M190 123l-9 31-38-45z"/><path fill="#fffefe" fill-opacity=".5" d="M129 113l111.7 41.1-87.2-22.7-13.6-22.5z"/><circle cx="144" cy="68" r="4" fill="#9dd5ff" fill-opacity=".5"/><path fill="#e3e3e3" fill-opacity=".5" d="M65.8 33.7L45.7 45l-1.5-2.6L64.3 31z"/><circle cx="136" cy="51" r="7" fill="#fffffe" fill-opacity=".5"/><path fill="#fff" fill-opacity=".5" d="M158 12l-43 37-23-35z"/><path fill="#f9f9f8" fill-opacity=".5" d="M250.5 37.8L131.3 94.3l4.9 5.3 3.3-12.8z"/><circle r="1" fill="#fff" fill-opacity=".5" transform="rotate(148.8 9.6 56.4) scale(4.24711 46.66184)"/><circle r="1" fill="#fff" fill-opacity=".5" transform="matrix(13.59835 26.70525 -56.12009 28.57643 21.8 21.1)"/><circle r="1" fill="#fff" fill-opacity=".5" transform="rotate(68 -74.1 168.8) scale(16.34023 71.59059)"/><path fill="#b0bebd" fill-opacity=".5" d="M119 97l-7-15 7 8z"/><path fill="#fdffff" fill-opacity=".5" d="M114.1 55.7l23.4 6.8 4.5 4.1-9.7 10.3z"/><path fill="#ebefee" fill-opacity=".5" d="M99 45l7 4v6z"/><path fill="none" stroke="#d35d58" stroke-opacity=".5" stroke-width=".5" d="M166.5 70.7Q133.8 60 124 53.7"/><path fill="none" stroke="#d7d7d6" stroke-opacity=".5" stroke-width=".5" d="M123.1 120q-25.3-8.2-29.3 19.6"/><path fill="none" stroke="#c6524f" stroke-opacity=".5" stroke-width=".5" d="M87.1 153.3q18.1-56.4 21-63.3"/><circle r="1" fill="#aed9fc" fill-opacity=".5" transform="rotate(176 44.8 49.5) scale(9.35883 4.02072)"/><path fill="#c9afb1" fill-opacity=".5" d="M156.4 68.6l19.5 8.8-32.1-12.6-6.7-3.8z"/><path fill="#fcfcfc" fill-opacity=".5" d="M21.7 57.7l93.6 24.7L83.2 95l-10.3 34.7z"/><circle cx="112" cy="50" r="1" fill="#fd0000" fill-opacity=".5"/><circle r="1" fill="#eaeaea" fill-opacity=".5" transform="matrix(28.2568 -16.6648 .508 .86136 102.1 155.7)"/><circle cx="144" cy="103" r="3" fill="#d1d2d2" fill-opacity=".5"/><path fill="#fafafa" fill-opacity=".5" d="M138.8 87.2l32.8-15.5 31-5.9-49.4 55.8z"/><path fill="#b2e2ff" fill-opacity=".5" d="M105.1 102.1l4.9-9.8 6.1 5.7-10.4 4.8z"/><circle r="1" fill="#fbf9f9" fill-opacity=".5" transform="matrix(-1.48012 5.4733 -11.65041 -3.15056 85.4 117)"/><circle r="1" fill="#cecccc" fill-opacity=".5" transform="matrix(-.94798 -.31834 15.4937 -46.1381 104.1 108)"/><path fill="#dee1df" fill-opacity=".5" d="M106 63l8 22 6-4z"/></g></g></svg>