<svg xmlns="http://www.w3.org/2000/svg" viewBox="0 0 1200 973"><defs/><filter id="a"><feGaussianBlur stdDeviation="12"/></filter><rect width="100%" height="100%" fill="#904c46"/><g filter="url(#a)"><g fill-opacity=".5" transform="translate(2.3 2.3) scale(4.6875)"><circle cx="111" cy="80" r="205" fill="#fff"/><circle cx="121" cy="152" r="209" fill="#fff"/><circle cx="106" cy="104" r="184" fill="#fff"/><circle r="1" fill="#fff" transform="matrix(159.46151 -198.99001 131.24666 105.17508 117.6 51.4)"/><circle cx="22" cy="113" r="99" fill="#fff"/><path fill="#eee4d5" d="M121 63h43v144h-43z"/><path fill="#d9817d" d="M224 57h2v141h-2z"/><ellipse cx="191" cy="111" fill="#fff" rx="26" ry="206"/><ellipse cx="127" cy="153" fill="#dc3538" rx="1" ry="86"/><path fill="#e2dcdb" d="M43 30l98-37 15 35z"/><ellipse cx="236" cy="24" fill="#fff" rx="89" ry="44"/><path fill="#d0cdcc" d="M236 184.7l4.8-29.9-25.2-2.8 2.3-58.1z"/><path fill="#ef9d1c" d="M162 120h2v79h-2z"/><ellipse cx="124" cy="156" fill="#e88180" rx="50" ry="1"/><ellipse cx="107" cy="175" fill="#e0a543" rx="2" ry="13"/><path fill="#f0e8d1" d="M132 61h57v26h-57z"/><ellipse cx="125" cy="22" fill="#de3735" rx="33" ry="1"/><path fill="#fff" d="M153 70h10v82h-10z"/><ellipse cx="77" cy="22" fill="#e44442" rx="14" ry="1"/><path fill="#f3ac38" d="M131 83v-1l56 1v1z"/><path fill="#f1bf5c" d="M44.8 70l1 .4L9.2 189.9l-1-.3z"/><path fill="#f0d59b" d="M49 60h59v3H49z"/><circle r="1" fill="#fff" transform="matrix(6.3444 -121.05838 8.77383 .45982 255 76.7)"/><circle r="1" fill="#fff" transform="matrix(-.65286 -16.39608 84.51985 -3.36541 117.1 45.3)"/><path fill="#daa84b" d="M121 95h32v2h-32z"/><circle r="1" fill="#fff" transform="matrix(44.41144 1.61973 -4.16004 114.06431 0 38.3)"/><path fill="#fff" d="M129 199h126v8H129z"/><path fill="#e6d9c4" d="M95.7 133.1l13.8 2.6-18 22.5 16.5 12.6z"/><ellipse cx="132" cy="10" fill="#a38986" rx="5" ry="3"/><ellipse cx="134" cy="197" fill="#e3b35a" rx="30" ry="1"/><ellipse cx="46" cy="30" fill="#8d8f8f" rx="21" ry="1"/><path fill="#c3a9a7" d="M230 160l4-11 9 11z"/><circle r="1" fill="#fff" transform="matrix(31.33108 -51.12768 22.05828 13.51733 56.8 135.8)"/><path fill="#df7f00" d="M151.5 97v16h-1V97z"/><path fill="#f4f8fe" d="M134 120h27v65h-27z"/><ellipse cx="184" cy="157" fill="#fff" rx="20" ry="93"/><ellipse cx="220" cy="168" fill="#dbdfdf" rx="5" ry="25"/><path fill="#f6c266" d="M153 61h34v2h-34z"/><path fill="#fff" d="M148 84l72 138-19-135z"/><path fill="#eb8b89" d="M74 155h95v1H74z"/><path fill="#efbf60" d="M19.4 191.7l-1-.3 6.2-19 1 .2z"/><ellipse cx="225" cy="206" fill="#e87f7d" rx="1" ry="139"/><circle r="1" fill="#fff" transform="matrix(-16.84313 -21.52125 24.9447 -19.52242 75 191.4)"/><path fill="#e49920" d="M144 82h2v16h-2z"/><path fill="#e7bf6c" d="M146.6 197.5h-3l-.2-17h3z"/><path fill="#e5af51" d="M186 67h2v18h-2z"/><path fill="#c5c4c4" d="M248.7 179.1l-16.5-3 5.5-11.4-19-14.8z"/><ellipse cx="123" cy="112" fill="#deba73" rx="1" ry="31"/><path fill="#f1ae3d" d="M168 84h17v1h-17z"/><path fill="#dee0e0" d="M217 59h8v46h-8z"/><circle r="1" fill="#fff" transform="matrix(20.06005 -31.97845 107.78368 67.61258 249.6 38.7)"/><path fill="#fcdda2" d="M168.3 121.2l-14.4-2.4-2-3.3 12.2.8z"/><path fill="#e4a737" d="M105 194h4v5h-4z"/><path fill="#fdfffd" d="M129 54l27 46-15-71z"/><path fill="#ebedec" d="M107.2 195.1l-7.2 4.8 23.5-32-14.7-14.1z"/><path fill="#f4f8f8" d="M34 0h96v22H34z"/><path fill="#f2f7fd" d="M140.1 124.9l12.4-10.7-35-32.1 26 44.8z"/><path fill="#f4f9fc" d="M129.3 161.6l33.3 50.4-21.3-42.5 2.1 52.5z"/><path fill="#f59c04" d="M10 190h11v1H10z"/><path fill="#c4c5c5" d="M220 184h13v10h-13z"/><path fill="#e4eaf4" d="M154 62h22v20h-22z"/><path fill="#efab61" d="M124 69h27v1h-27z"/><path fill="#fff" d="M69 64h57v17H69z"/><path fill="#dfba7a" d="M98 135h26v2H98z"/><path fill="#c09f8f" d="M130 150h13v2h-13z"/><path fill="#fff" d="M225.3 177.3l45.7-25.7-28.1-90.4L247 151z"/><ellipse cx="64" cy="61" fill="#f5b34b" rx="17" ry="1"/><path fill="#fcffff" d="M248 181l-20 13 1 27z"/><path fill="#cbcbcb" d="M219 116h19v6h-19z"/><path fill="#fff" d="M-2 222L1-16l43 85z"/><path fill="#fff" d="M0 199h125v8H0z"/><ellipse cx="118" cy="63" fill="#f6ca75" rx="19" ry="1"/><path fill="#fff" d="M150 119h12v30h-12z"/><circle cx="32" cy="191" r="2" fill="#f5b94c"/><path fill="#fcb13f" d="M163.5 117.8l-19-.6v-1l19 .6z"/><path fill="#ecf0f2" d="M132 96h17v49h-17z"/><ellipse cx="151" cy="104" fill="#e9be69" rx="2" ry="10"/><path fill="#f3f5f6" d="M135 97h16v23h-16z"/><path fill="#dc5554" d="M222 157.1l14 .8v1l-14-.8z"/><path fill="#8e9494" d="M84 30v1l-14-1v-1z"/><path fill="#e7e8e8" d="M238 71l-28-14h26z"/><path fill="#f5d185" d="M50 59l-6 12 1-7z"/><path fill="#e1aba7" d="M134.8 26.9l-2-26.5 2.7 12.7-.1-1.3z"/><path fill="#edc478" d="M134 67h2v19h-2z"/><path fill="#fff" d="M129 77l8-12-6-2z"/><path fill="#f9dca1" d="M132 185h3v15h-3z"/><path fill="#eeab2d" d="M55 192h3v3h-3z"/><path fill="#f5cc77" d="M90 195h5v3h-5z"/><path fill="#fff" d="M-16 8l70-24L97 3z"/><ellipse cx="163" cy="149" fill="#ffb442" rx="1" ry="33"/><path fill="#f4f6f6" d="M79.8 137.4l7.4 17.5 40.4-55.7-7-2.3z"/><ellipse cx="242" cy="119" fill="#e1e6e6" rx="2" ry="44"/><path fill="#e8b553" d="M152 62h1v23h-1z"/><path fill="#f8fdff" d="M136.8 210.3l-8-4.1 6.4-12.5 8 4.1z"/><circle cx="79" cy="195" r="2" fill="#f4bc54"/><circle r="1" fill="#fff" transform="matrix(6.97162 -3.10463 .67935 1.52552 155.7 65.7)"/><ellipse cx="123" cy="186" fill="#d7ba7d" rx="1" ry="12"/><path fill="#e2b668" d="M131 82h16v3h-16z"/><path fill="#f9feff" d="M108 171l17 9-13 31z"/><ellipse cx="103" cy="81" fill="#eaebe9" rx="56" ry="2"/></g></g></svg>