<svg xmlns="http://www.w3.org/2000/svg" viewBox="0 0 1200 842"><defs/><filter id="prefix__a"><feGaussianBlur stdDeviation="12"/></filter><rect width="100%" height="100%" fill="#6d5a3b"/><g filter="url(#prefix__a)"><g transform="translate(2.3 2.3) scale(4.6875)"><circle cx="215" cy="54" r="123" fill="#90b996" fill-opacity=".5"/><ellipse cx="180" cy="72" fill="#384a00" fill-opacity=".5" rx="255" ry="20"/><circle r="1" fill="#89b5ff" fill-opacity=".5" transform="rotate(59.7 48.4 127.7) scale(32.31685 43.50817)"/><ellipse cx="170" cy="130" fill="#272e00" fill-opacity=".5" rx="75" ry="12"/><path fill="#bdbcbc" fill-opacity=".5" d="M42 121l112-36 117 27z"/><path fill="#001635" fill-opacity=".5" d="M-5 61l85 37-92 40z"/><circle r="1" fill="#dbd4e4" fill-opacity=".5" transform="rotate(149.6 108.9 101.4) scale(13.25567 50.09894)"/><path fill="#98a248" fill-opacity=".5" d="M181 119l90 57-235 15z"/><circle r="1" fill="#9cc4ff" fill-opacity=".5" transform="matrix(11.47455 10.69278 -14.95217 16.04535 246.8 18.6)"/><ellipse cx="35" cy="25" fill="#639026" fill-opacity=".5" rx="73" ry="29"/><circle r="1" fill="#708654" fill-opacity=".5" transform="matrix(25.0493 18.77786 -43.80826 58.43939 61.3 144.5)"/><path fill="#3d4219" fill-opacity=".5" d="M142 119l58-13 71 32z"/><circle r="1" fill="#727d0d" fill-opacity=".5" transform="matrix(16.45318 2.90114 -6.49186 36.81718 209.4 44.3)"/><path fill="#84a4e8" fill-opacity=".5" d="M130-16L90 60l153-76z"/><path fill="#a7c1ea" fill-opacity=".5" d="M106 33h69v16h-69z"/><path fill="#b8b5b7" fill-opacity=".5" d="M150 93h106v18H150z"/><circle r="1" fill="#727727" fill-opacity=".5" transform="matrix(3.59581 20.75059 -60.7193 10.52189 152.9 73.6)"/><ellipse cx="47" cy="68" fill="#364611" fill-opacity=".5" rx="62" ry="20"/><ellipse cx="130" cy="128" fill="#162208" fill-opacity=".5" rx="39" ry="7"/><path fill="#7697cc" fill-opacity=".5" d="M117.2 34l124.1-48.3-153-1.7 9.6 29.4z"/><path fill="#e3e5e3" fill-opacity=".5" d="M127.4 126.5l-16.5-15.3 56.8 1.8-40.1 6.7z"/><path fill="#d8cbc9" fill-opacity=".5" d="M202 110h4v42h-4z"/><ellipse cx="112" cy="90" fill="#2b3245" fill-opacity=".5" rx="73" ry="3"/><path fill="#a1b59c" fill-opacity=".5" d="M66.1 47.7l2.2-23.9-7.4 7.5-13.7 12.6z"/><path fill="#7d9edc" fill-opacity=".5" d="M-11 17L19 4l5-19z"/><path fill="#3a4a20" fill-opacity=".5" d="M50 123l53-91-31-1z"/><path fill="#c7c6b2" fill-opacity=".5" d="M46 98h3v49h-3z"/><circle r="1" fill="#9f9dad" fill-opacity=".5" transform="matrix(20.93918 -.09167 .02229 5.09177 92.1 101.7)"/><path fill="#0d0a00" fill-opacity=".5" d="M203 84h5v20h-5z"/><path fill="#acb765" fill-opacity=".5" d="M263 6l-25 51 33 3z"/><path fill="#919d49" fill-opacity=".5" d="M195.7 58.6l-49.9 11.9 56.9-56.3-44.9-3.6z"/><path fill="#cac9d4" fill-opacity=".5" d="M60.5 83.6v-1l35 1.8v1z"/><ellipse cx="238" cy="112" fill="#e3e4dc" fill-opacity=".5" rx="27" ry="6"/><circle cx="225" cy="161" r="27" fill="#979743" fill-opacity=".5"/><path fill="#535247" fill-opacity=".5" d="M148.5 94v-1l169 3v1z"/><path fill="#e7e5e0" fill-opacity=".5" d="M270 148.4l-11.2 10-18.7-20.8 11.1-10z"/><path fill="#3e4d0f" fill-opacity=".5" d="M129.6 76l23.6-5.2-10.5-22.9-15.7 9.9z"/><path fill="#404500" fill-opacity=".5" d="M231 92.7l-22.6-18.2L219 61.3l22.5 18.2z"/><path fill="#b0cbeb" fill-opacity=".5" d="M108.7 46.4l15.6 4.8-23.1 5.6-14.6-3.4z"/><ellipse cx="19" cy="159" fill="#757f40" fill-opacity=".5" rx="161" ry="27"/><ellipse cx="21" cy="35" fill="#7e8a1d" fill-opacity=".5" rx="15" ry="33"/><path fill="#4e5218" fill-opacity=".5" d="M64.7 159.5l-5.5-1.6 2.7 35.9-73.6-17.4z"/><path fill="#a69893" fill-opacity=".5" d="M178.7 150.7l37.7-1.9 20.1-.7-56.6-14.1z"/><path fill="#071000" fill-opacity=".5" d="M206 119h22v13h-22z"/><path fill="#a2a381" fill-opacity=".5" d="M90 84h92v3H90z"/><circle r="1" fill="#4e5917" fill-opacity=".5" transform="matrix(8.18206 -41.32241 13.54882 2.68274 37.4 42.7)"/><circle r="1" fill="#1e2b11" fill-opacity=".5" transform="matrix(38.09424 9.35684 -.96186 3.91597 115.6 132.8)"/><ellipse cx="218" cy="93" fill="#fff" fill-opacity=".5" rx="79" ry="1"/><path fill="#fff8d7" fill-opacity=".5" d="M242 80h14v3h-14z"/><path fill="#232b00" fill-opacity=".5" d="M31.6 66.7L51 49.3l23.4 26L55 92.7z"/><path fill="#2d2f33" fill-opacity=".5" d="M50 99h105v2H50z"/><path fill="#232d07" fill-opacity=".5" d="M201 112l-2 14-22-18z"/><ellipse cx="176" cy="106" fill="#dddfda" fill-opacity=".5" rx="25" ry="4"/><path fill="#6e6e61" fill-opacity=".5" d="M197.6 100.7l73 2.6-.2 4-73-2.6z"/><path fill="#9cbafd" fill-opacity=".5" d="M263-5l-36 43 17-1z"/><circle r="1" fill="#8e9752" fill-opacity=".5" transform="matrix(-53.39235 18.01005 -1.66707 -4.94216 52.7 120.5)"/><path fill="#8b8e48" fill-opacity=".5" d="M160.3 132l22.1 10.1-23.1-33.8 31 11.4z"/><path fill="#828a26" fill-opacity=".5" d="M157 85l-7-45 45 48z"/><path fill="#8a8076" fill-opacity=".5" d="M27 141h50v13H27z"/><path fill="#e8e8f5" fill-opacity=".5" d="M134 95h9v8h-9z"/><path fill="#919c35" fill-opacity=".5" d="M15 4.6L61-16 28.7 15.7-11 70.6z"/><path fill="#83a7dd" fill-opacity=".5" d="M57 2h10v7H57z"/><path fill="#768977" fill-opacity=".5" d="M66.5 59.1l12.3-5.7-.6 9-18.3.7z"/><path fill="#777c16" fill-opacity=".5" d="M209 48l33 1 5 40z"/><path fill="#aec4f8" fill-opacity=".5" d="M265 43l-21 6 17 9z"/><path fill="#3f4a1b" fill-opacity=".5" d="M11.3 149l-18.8 2.5 40.9-22.8-9.2 22.5z"/><path fill="#3b4142" fill-opacity=".5" d="M58 86h75v11H58z"/><path fill="#0f1600" fill-opacity=".5" d="M11.4 58.4L37.3 55-16 56.2l31.3 23.7z"/><path fill="#151f38" fill-opacity=".5" d="M51 92h17v19H51z"/><path fill="#8ba9de" fill-opacity=".5" d="M170.3 50L91 12.6l1.1 11 74.6-4.8z"/><path fill="#1d2a34" fill-opacity=".5" d="M47 112L5 68l-7 68z"/><path fill="#8da9b5" fill-opacity=".5" d="M40 32l5-7-10-5z"/><path fill="#cdd3c4" fill-opacity=".5" d="M119 113l16 6-36 3z"/><path fill="#dad9e4" fill-opacity=".5" d="M67 97h32v2H67z"/><ellipse cx="156" cy="166" fill="#89914d" fill-opacity=".5" rx="38" ry="26"/><path fill="#41450e" fill-opacity=".5" d="M184.7 59l34.1 28.4-3-3.2-13.4 13.4z"/><ellipse cx="85" cy="103" fill="#fff" fill-opacity=".5" rx="15" ry="1"/><path fill="#fafcf2" fill-opacity=".5" d="M94 116h6v5h-6z"/><path fill="#98a234" fill-opacity=".5" d="M29.2 58.4l14.1-3.2-30.6 14.3-1-6.5z"/><path fill="none" stroke="#f7f9f8" stroke-opacity=".5" stroke-width=".5" d="M179.5 98q35.3 4.2 82.6 2"/><path fill="#b6b5a4" fill-opacity=".5" d="M47 100h4v24h-4z"/><path fill="#e9ebed" fill-opacity=".5" d="M198.9 100.8L133 96.2l.1-1 65.9 4.6z"/><path fill="#7d8a3f" fill-opacity=".5" d="M194.3 10.2l54-3-6-4.9-49.1 42.9z"/><ellipse cx="255" cy="108" fill="#b4b5b0" fill-opacity=".5" rx="75" ry="4"/><circle cx="29" cy="79" r="7" fill="#87843c" fill-opacity=".5"/><path fill="#10142f" fill-opacity=".5" d="M102 118l9-11-3 10z"/><circle r="1" fill="#848b1a" fill-opacity=".5" transform="rotate(45.5 87.9 320.6) scale(3.4085 23.74247)"/><path fill="#252709" fill-opacity=".5" d="M50 57h2v91h-2z"/><path fill="#192407" fill-opacity=".5" d="M-16 25.1l27.3 5.5-16.4-18.5 6.5 67.4z"/><path fill="#938194" fill-opacity=".5" d="M60 171h21v8H60z"/><path fill="#6d771d" fill-opacity=".5" d="M109.6 92l-5-35.7 15.8-2.2 5 35.6z"/><path fill="#a1ab2f" fill-opacity=".5" d="M207.4 74.8l-8.2 7.8 18.4-17.1-26-6.2z"/><ellipse cx="54" cy="40" fill="#8cabef" fill-opacity=".5" rx="4" ry="5"/><path fill="#88a1b4" fill-opacity=".5" d="M183.9 27.4l13.6-39.5 7.6 21.9L169.5 23z"/><path fill="#fff" fill-opacity=".5" d="M132.4 114.4l-1 .1-1.8-14.9 1-.1z"/><path fill="#78796e" fill-opacity=".5" d="M284.2 116l-84.5-9v-1l84.6 9z"/><path fill="#7d8741" fill-opacity=".5" d="M121.5 122.8l-.4 3-46.6-6.6.4-3z"/><path fill="#e3e3e8" fill-opacity=".5" d="M235 112h21v10h-21z"/><path fill="#7ba3fc" fill-opacity=".5" d="M224 0l35-11 9 13z"/><path fill="#5d680c" fill-opacity=".5" d="M230.7 56.4l-22.3-11.8-49.9 25.8L207 56z"/></g></g></svg>