<svg xmlns="http://www.w3.org/2000/svg" viewBox="0 0 1200 848"><defs/><filter id="a"><feGaussianBlur stdDeviation="12"/></filter><rect width="100%" height="100%" fill="#393a3a"/><g filter="url(#a)"><g fill-opacity=".5" transform="translate(2.3 2.3) scale(4.6875)"><circle cx="145" cy="107" r="212" fill="#fff"/><circle r="1" fill="#fff" transform="matrix(35.79295 162.87629 -164.94925 36.2485 121.9 103.6)"/><circle cx="126" cy="116" r="171" fill="#fff"/><circle cx="126" cy="151" r="194" fill="#efffff"/><ellipse cx="112" cy="79" fill="#d0dee0" rx="94" ry="50"/><circle cx="207" cy="155" r="61" fill="#fff"/><path fill="#a8bba1" d="M152 84h87v11h-87z"/><path fill="#93a58c" d="M202.9 20.5l3.5 6-43.3 25-3.5-6z"/><path fill="#a8b9ad" d="M-16 79.3l101.1 35.5 1.3 24.6L76 124.9z"/><circle r="1" fill="#feffff" transform="matrix(19.21482 18.3504 -35.23171 36.89135 223 47.4)"/><circle r="1" fill="#fff" transform="matrix(-.03478 -19.9284 129.61221 -.22622 102.1 175.8)"/><circle r="1" fill="#c5d5c4" transform="matrix(2.68597 4.60293 -68.90715 40.2097 52.2 69.8)"/><path fill="#f3fdff" d="M155.3 126.1l-46 .8-.6-35 46-.8z"/><circle r="1" fill="#fff" transform="matrix(-.11376 13.03612 -92.0446 -.80326 121 13.9)"/><path fill="#9eac99" d="M186.1 94.2l-16 5.5-6.2-18 16-5.4z"/><path fill="#f5fdff" d="M0 2h47v76H0z"/><path fill="#bccad5" d="M87 135l-10-12-46 27z"/><ellipse cx="182" fill="#9ca3aa" rx="186" ry="1"/><path fill="#a7adad" d="M255 4h1v176h-1z"/><circle cx="74" cy="88" r="23" fill="#edf8ff"/><path fill="#b2c6ac" d="M44 51l-16-1 29 14z"/><circle r="1" fill="#f6ffff" transform="matrix(37.4626 -32.7291 13.11455 15.01127 8.9 141.6)"/><path fill="#cddec7" d="M223.2 20l-66.9 23.1 40.8-20 20.8-14.5z"/><path fill="#aebfa9" d="M37.3 100l-58.9-3 .3-5 58.9 3z"/><ellipse cx="135" cy="87" fill="#c1cbd4" rx="39" ry="5"/><circle cx="205" cy="145" r="50" fill="#fcffff"/><path fill="#c4d4c2" d="M73.8 29.7l8.9 20.1-51.2 33.3 85.3-46.2z"/><path fill="#fff" d="M239 2h16v120h-16z"/><path fill="#b7ccab" d="M81 56L65 44l-20-1z"/><path fill="#bec9d2" d="M104.5 77.5l-9.9-24.2 18.4 4.1 2.9 17.2z"/><path fill="#abbba9" d="M40.5 104.9l-2.9-5.8 1-2.9 55.9 28.5z"/><circle r="1" fill="#f6ffff" transform="matrix(-1.74883 -2.6725 34.76157 -22.74733 77.4 65.8)"/><path fill="#e9f4fb" d="M117 17h21v68h-21z"/><path fill="#f6fdff" d="M-9.1 57.8l1.7 29.7 39.6-7.7 29.4-16.6z"/><path fill="#f1f9fe" d="M-5.6 11.6L99.7 80.1l3.7-18.2-47.7-2.1z"/><path fill="#fdffff" d="M76.4 27.5L246.8 1.4 43.2 3.2l2.6 38.9z"/><path fill="#ebf6fa" d="M180 41h28v45h-28z"/><path fill="#a7b0af" d="M116 39l-10 3 11-16z"/><path fill="#b2bfb3" d="M166 101l-5-20 21 1z"/><path fill="#7a7f85" d="M148 37h4v3h-4z"/><path fill="#f2fdff" d="M56 104L31 90l24-15z"/><path fill="#c3d5c0" d="M58.1 56.6L66.6 71 27.9 47.5l23.9 9.1z"/><path fill="#f9ffff" d="M86.6 13.1l71.3 34.5-15.6 3.5L128 21.4z"/><path fill="#95a0a2" d="M186.6 66l-2-.1.8-8 2 .2z"/><path fill="#dfede5" d="M5.6 84.3L-16 94.9l12.3-3.3L42 94.7z"/><path fill="#bac8c5" d="M176.5 71.3l-1.7 1.1-17.3-25.7 1.7-1.1z"/><ellipse cx="98" cy="169" fill="#f7feff" rx="95" ry="15"/><path fill="#f9feff" d="M136 3.2L44.9 1.1l42.7 17.2L100.7 40z"/><path fill="#f8feff" d="M207.6 95.1l47.8-2.7-3.3 101.2-109.4-67.7z"/><circle r="1" fill="#f8fefe" transform="rotate(73.4 100 178.3) scale(13.11506 78.30265)"/><path fill="#d3e0e7" d="M29.8 139.4l51.1-13.2 3 44.6-6.2-21.7z"/><path fill="#eaf4f6" d="M205.8 57.4l-3-48.4-12.2 49.7-35.7 26.6z"/><path fill="#aab9aa" d="M86.8 118.9l-1.3-.8 2.1 10.5-27.8-23.1z"/><path fill="#d4e1e5" d="M141 14l-13 5 14 13z"/><path fill="#b3bfb6" d="M158.9 49.6l16.6-15.9 23.8-4.3-39.1 26.9z"/><ellipse cx="69" cy="38" fill="#c2d2b9" rx="10" ry="3"/><path fill="#e5f1f9" d="M102.7 109.8l-21.7 33 16.6-43.3 76.8-16.3z"/><path fill="#effaff" d="M14.3 104.4l60 16.4-65.6 30.1-13.2-52.6z"/><path fill="#c4cfd6" d="M79.7 101.8L83 95l-2.5-8-2.9-5.2z"/><path fill="#a4afb8" d="M106 110h4v8h-4z"/><path fill="#d5e2e3" d="M210.3 113.3l-27.4-14.6-.6-6-8.8 6.7z"/><path fill="#fdffff" d="M153 0h73l-52 34z"/><path fill="#a5ba99" d="M61.9 66.2l-7.4 9.5-2.4-1.9 7.4-9.5z"/><path fill="#fcffff" d="M227 3h17v80h-17z"/><path fill="#e6f0f5" d="M116.2 80.6l-10.4-18.2 66-46-69.1 27.2z"/><path fill="#8da581" d="M33 46.6l3 6.4-1 .4-2.8-6.4z"/><path fill="#aab7a8" d="M174 73l-11 12 8 10z"/><path fill="#ebf6fd" d="M81.3 104.1l68.5 15.4 4.3-31.6 6.8 7.3z"/><path fill="#abbda2" d="M184 90h34v3h-34z"/><path fill="#e9f2f6" d="M191 86l21-13.6 40.9-14.1-62.6-9.9z"/><path fill="#9aa4a7" d="M136 86h17v2h-17z"/><path fill="#bfcad1" d="M71 98l-1-11-5 3z"/><path fill="#bdc6cc" d="M109.8 84.7l-3.3-16.8-4.7-16.1-.5 17.3z"/><ellipse cx="97" cy="145" fill="#effaff" rx="11" ry="22"/><path fill="#f5fdff" d="M53 40l1-7 20 15z"/><path fill="#f1faff" d="M158.2 73.5l2.6 8.3 52.7-23 21.9 3.7z"/><path fill="#f3fdff" d="M125 195l41-94 32 8z"/><path fill="#cbdcc9" d="M73.5 60L38.3 83.6-16 86l.8 14.1z"/><path fill="#becebf" d="M9 93h26v7H9z"/><path fill="#fdffff" d="M93.4 42.6l-.5.8-10.3-6 .5-.8z"/><path fill="#f0f7fd" d="M-16 2.5L66.1 21 46.5 31.1 28.9 56.3z"/><path fill="#b7c1c7" d="M61.8 143.4l24-9.7.4.9-24 9.7z"/><circle r="1" fill="#f5fcff" transform="rotate(74.2 -102.7 86.2) scale(103.29036 13.75154)"/><circle cx="101" cy="58" r="3" fill="#9fa5a7"/><path fill="#d0dcdd" d="M153.5 101l42.7-15.2-31.8 10.9 41.9 12.3z"/><path fill="#dae6ec" d="M110 38l34 47 27-29z"/><path fill="#c3cdd5" d="M113 85l-2 9-24-18z"/><path fill="#d9e6ec" d="M134 155l13-37-19 25z"/><circle r="1" fill="#deeaf4" transform="rotate(20.7 -282 345) scale(27.13194 4.66554)"/><path fill="#c2cbd3" d="M147 58l6 14h6z"/><path fill="#767a7a" d="M113.3 29.9l1-.4 2.4 6.6-1 .4z"/><path fill="#b6cdaa" d="M202 85h4v12h-4z"/><path fill="#baccaf" d="M75 40h10v4H75z"/><path fill="#a5acb1" d="M137 44h3v5h-3z"/><path fill="#d3e1e6" d="M135.3 176.3l-1 .4-23.6-53 1-.4z"/><path fill="#c6d2d8" d="M142.2 125.2l-26.2 6.6-.2-1 26.2-6.6z"/><circle cx="79" cy="32" r="3" fill="#b2c3a3"/><path fill="#dff1df" d="M237 87l-25.7-2.1.7 9.7 6.6-13.2z"/><path fill="#e8f4f5" d="M74.7 44.7l-14-12.3 27.2 39.8L110.3 83z"/><path fill="#e2eef0" d="M57.8 18l-34.3-3.4 28.7 7.9 34.4 8.3z"/></g></g></svg>