<svg xmlns="http://www.w3.org/2000/svg" viewBox="0 0 1200 716"><defs/><filter id="a"><feGaussianBlur stdDeviation="12"/></filter><rect width="100%" height="100%" fill="#4c4c4c"/><g filter="url(#a)"><g fill-opacity=".5" transform="translate(2.3 2.3) scale(4.6875)"><circle cx="124" cy="61" r="167" fill="#fff"/><circle r="1" fill="#fff" transform="matrix(-37.86153 125.7417 -244.17128 -73.52134 156.6 63.2)"/><circle r="1" fill="#fff" transform="matrix(3.80987 75.20796 -254.67343 12.9012 134.2 60)"/><ellipse cx="59" cy="91" fill="#fff" rx="255" ry="25"/><path fill="#939393" d="M42.7 49.1l.6 17-80 2.8-.6-17z"/><ellipse cx="93" cy="151" fill="#a7a7a7" rx="155" ry="17"/><ellipse cx="236" cy="133" fill="#fff" rx="31" ry="12"/><circle cx="12" cy="20" r="30" fill="#fff"/><ellipse cx="213" cy="63" fill="#959595" rx="237" ry="3"/><circle r="1" fill="#fff" transform="matrix(-4.25347 -83.96482 18.09913 -.91686 248.6 59.3)"/><circle cx="12" cy="100" r="36" fill="#fff"/><ellipse cx="133" cy="117" fill="#c9c9c9" rx="105" ry="5"/><ellipse cx="177" cy="81" fill="#fff" rx="253" ry="15"/><circle r="1" fill="#fff" transform="matrix(.38098 4.91956 -232.08917 17.97353 89.6 7.6)"/><ellipse cx="51" cy="42" fill="#fff" rx="174" ry="6"/><path fill="#fff" d="M43 51h55v9H43z"/><ellipse cx="132" cy="55" fill="#fff" rx="92" ry="5"/><ellipse cx="81" cy="21" fill="#a7a7a7" rx="40" ry="2"/><ellipse cx="167" cy="34" fill="#cbcbcb" rx="131" ry="3"/><circle r="1" fill="#fff" transform="matrix(-16.82248 5.35208 -13.49098 -42.40435 247.6 15)"/><ellipse cx="221" cy="64" fill="#b7b7b7" rx="255" ry="3"/><circle r="1" fill="#fff" transform="matrix(16.20206 -8.41516 16.66219 32.0804 18.7 16.8)"/><path fill="#a6a6a6" d="M155 133h51v7h-51z"/><path fill="#dbdbdb" d="M52 109h45v22H52z"/><path fill="#959595" d="M156.5 35.3l43-1.6v1l-43 1.6z"/><path fill="#fff" d="M0 67h40v68H0z"/><path fill="#b8b8b8" d="M201 34h5v25h-5z"/><ellipse cx="212" cy="84" fill="#fff" rx="173" ry="18"/><path fill="#cecece" d="M37 156l-53-31 16 27z"/><path fill="#acacac" d="M209 118h27v5h-27z"/><ellipse cx="79" fill="#b5b5b5" rx="37" ry="2"/><circle r="1" fill="#ececec" transform="matrix(8.6791 -.07574 .21961 25.16526 163 119.9)"/><path fill="#737373" d="M40 35h61v1H40z"/><ellipse cx="186" cy="5" fill="#a8a8a8" rx="41" ry="1"/><path fill="#fff" d="M68 114h24v9H68z"/><ellipse cx="145" cy="22" fill="#c1c1c1" rx="63" ry="2"/><path fill="#bcbcbc" d="M114 48h67v3h-67z"/><path fill="#fefefe" d="M200 0h24v35h-24z"/><path fill="#fff" d="M44 32h179v2H44zm194 47h18v65h-18z"/><path fill="#cbcbcb" d="M224 63l1-52 16 54z"/><ellipse cx="199" cy="16" fill="gray" rx="1" ry="20"/><path fill="#777" d="M184 3h1v34h-1z"/><ellipse cx="179" cy="110" fill="#e4e4e4" rx="57" ry="5"/><path fill="#b2b2b2" d="M162 115h37v6h-37z"/><ellipse cx="80" cy="6" fill="#939393" rx="1" ry="29"/><path fill="#c8c8c8" d="M74.9 132.4l-38.2-20.1-2.6 13.4 31.6-10.4z"/><path fill="#fff" d="M45 4h68v13H45z"/><path fill="#bdbdbd" d="M154 5h3v53h-3z"/><path fill="#aaa" d="M113 0h2v36h-2z"/><path fill="#8e8e8e" d="M138.5 35l-53 1v-1l53-1z"/><path fill="#fff" d="M117 0h116v5H117z"/><path fill="#b1b1b1" d="M210 144h46v8h-46z"/><path fill="#fff" d="M107 122h18v14h-18z"/><path fill="#b7b7b7" d="M95 116h43v5H95z"/><path fill="#8e8e8e" d="M169 0h1v38h-1z"/><path fill="#bbb" d="M209.5 35.5h-2l1-31h2z"/><path fill="#f8f8f8" d="M169 124h54v9h-54z"/><path fill="#fff" d="M239 0h17v59h-17z"/><path fill="#b5b5b5" d="M86 125l-8 13 22-20z"/><path fill="#fff" d="M0 123h52v12H0z"/><ellipse cx="77" cy="49" fill="#c3c3c3" rx="21" ry="2"/><path fill="#c8c8c8" d="M153 5h71v3h-71z"/><ellipse cx="138" cy="38" fill="#a7a7a7" rx="1" ry="29"/><path fill="#cfcfcf" d="M81.6-2L66.3 32.4l39.1-17.7-25.6 17.7z"/><path fill="#fff" d="M53.9 37.5l52.4 12.9 51-3.3-8.6-9.7zM46 25h21v9H46zm48-1h17v10H94zm65-16h39v8h-39z"/><path fill="#b9b9b9" d="M43 0h2v38h-2z"/><path fill="#fafafa" d="M200 101h49v16h-49z"/><ellipse cx="12" fill="#fff" rx="29" ry="49"/><path fill="#c4c4c4" d="M159 106h67v2h-67z"/><path fill="#aaa" d="M125 109h2v25h-2z"/><path fill="#f9f9f9" d="M160.5 123.6l-20.1-12.1-9.3 25.5 18.6-5.9z"/><path fill="#b9b9b9" d="M0 136h210v16H0z"/><ellipse cx="115" cy="7" fill="#cecece" rx="2" ry="62"/><ellipse cx="179" cy="49" fill="#c2c2c2" rx="27" ry="2"/><path fill="#ededed" d="M139 4h15v43h-15z"/><path fill="#fafafa" d="M229 58l-24-8 39-5z"/><path fill="#b5b5b5" d="M114.8 66.9l-18.3-17 .7-.8 18.3 17z"/><ellipse cx="75" cy="17" fill="#fff" rx="3" ry="9"/><path fill="#969696" d="M143 134h54v1h-54z"/><path fill="#bfbfbf" d="M36 115h26v7H36z"/><path fill="#b2b2b2" d="M199 36h38v2h-38z"/><ellipse cx="18" cy="63" fill="#c1c1c1" rx="48" ry="4"/><ellipse cx="83" cy="34" fill="#b4b4b4" rx="41" ry="1"/><path fill="#fff" d="M154 68h102v37H154z"/><path fill="#f8f8f8" d="M58 113h80v2H58z"/><path fill="#b5b5b5" d="M88 20l7 15-10-9z"/><circle r="1" fill="#b4b4b4" transform="rotate(-1.8 2196 -8134.9) scale(40.88501 2.01741)"/><path fill="#fff" d="M170.6 5l-59.5 1.6 73-22.6 37.8 20.3z"/><path fill="#fcfcfc" d="M42 131h28v5H42z"/><path fill="#fff" d="M111 53h91v8h-91zm64-16h26v10h-26z"/><path fill="#bfbfbf" d="M112.1 167l-46.6-48-1.2 4.5L92 156.8z"/><path fill="#c9c9c9" d="M233 130v-14h-18z"/><path fill="#b9b9b9" d="M207 40l-1-.1L209 6l1 .1z"/><ellipse cx="225" cy="17" fill="#b3b3b3" rx="1" ry="45"/><path fill="#e3e3e3" d="M148.6 92.4l7.8 12.3-20.8.7 15.7-26.2z"/></g></g></svg>