<svg xmlns="http://www.w3.org/2000/svg" viewBox="0 0 1200 870"><defs/><filter id="a"><feGaussianBlur stdDeviation="12"/></filter><rect width="100%" height="100%" fill="#515151"/><g filter="url(#a)"><g fill-opacity=".5" transform="translate(2.3 2.3) scale(4.6875)"><circle cx="114" cy="101" r="183" fill="#fff"/><circle cx="149" cy="99" r="181" fill="#fff"/><circle r="1" fill="#fff" transform="rotate(-172.7 78 48.3) scale(255 119.35954)"/><circle cx="67" cy="88" r="159" fill="#fdfdfd"/><path fill="#090909" d="M61 59h16v8H61z"/><path fill="#222" d="M64.9 131.5l14.7 5-14 6.2-5.7-8.7z"/><path fill="#202020" d="M229 140l15-2-7-15z"/><path d="M230 60h14v8h-14zm-54 72h11v8h-11zm-56 8.8l-1-8 13-1.6 1 8z"/><path fill="#4d4d4d" d="M14 19h2v128h-2z"/><ellipse cx="205" cy="177" fill="#fff" rx="250" ry="26"/><circle r="1" fill="#737373" transform="matrix(-.02417 1.23591 -34.84058 -.68132 47.3 148.7)"/><path fill="#b8b8b8" d="M72.3 21.9l1 9L3.7 38l-1-9z"/><circle r="1" fill="#fff" transform="matrix(-70.2245 -11.41737 4.98327 -30.65044 128.7 101)"/><path fill="#c8c8c8" d="M247.9 121.5l-13.3-2.5-25.2-2.4 1.6 33.7z"/><ellipse cx="250" cy="86" fill="#fff" rx="8" ry="84"/><ellipse cx="223" cy="147" fill="#b1b1b1" rx="54" ry="3"/><path fill="#dcdcdc" d="M76 53h155v15H76z"/><ellipse cx="144" cy="145" fill="#d4d4d4" rx="102" ry="5"/><ellipse cx="238" cy="104" fill="#8e8e8e" rx="2" ry="37"/><path fill="#292929" d="M66 133h9v8h-9z"/><path fill="#707070" d="M20 27h48v2H20z"/><path fill="#fff" d="M212 26H84v-36h128z"/><path fill="#dbdbdb" d="M47.4 45.8l36-27.1 13.2 17.5-36 27.1z"/><path fill="#c1c1c1" d="M192.6 101.6l22.6-21-10.9-4.9-15 26.4z"/><path fill="#434343" d="M63 132h13v7H63z"/><circle cx="240" cy="135" r="4" fill="#303030"/><circle cx="114" cy="51" r="4" fill="#8c8c8c"/><path fill="#fff" d="M18 1h49v26H18zm207 23h29v32h-29zm-12 45h25v48h-25z"/><path fill="#dedede" d="M0 45.8l4.7-17.3L26 34.2l-4.7 17.3z"/><path fill="#fff" d="M35.6 60l74.9 140L63 64.6 56 48z"/><circle cx="239" cy="6" r="6" fill="#adadad"/><path fill="#fff" d="M67.7 125.6L18.8 80.2l-.3 66.5 42-7.1z"/><path fill="#484848" d="M174 133h12v8h-12z"/><path fill="#dadada" d="M251.6 133.3l-20.8-1.3.5 27.2-38.9-51.7z"/><ellipse cx="16" cy="96" fill="#b4b4b4" rx="1" ry="54"/><circle cx="153" cy="102" r="37" fill="#fff"/><path fill="#b4b4b4" d="M65 19h8v19h-8z"/><circle r="1" fill="#fff" transform="matrix(-13.08464 18.45862 -46.8924 -33.2403 233 184)"/><path fill="#7e7e7e" d="M12 149.8l36-2.6v1l-36 2.6z"/><path fill="#fff" d="M165 67h10v118h-10z"/><path fill="#d6d6d6" d="M45.6 98.7L22.7 72.1l36.2 28.2-24.5 9.9z"/><path fill="#989898" d="M18 116h20v2H18z"/><path fill="#e2e2e2" d="M43 140h55v6H43z"/><path fill="#fefefe" d="M76 70h44v115H76z"/><path fill="#959595" d="M133 40l-3-6 9 3z"/><circle cx="46" cy="20" r="4" fill="#a6a6a6"/><ellipse cx="216" cy="29" fill="#414141" rx="2" ry="3"/><path fill="#9e9e9e" d="M175 142h12v8h-12z"/><path fill="#292929" d="M74 67v-7H63z"/><path fill="#fff" d="M17 103l37-63-29-11z"/><path fill="#878787" d="M120 147h14v3h-14z"/><path fill="#454545" d="M230.5 138v-6h13v6z"/><path fill="#fff" d="M241 68h15v61h-15z"/><path fill="#b9b9b9" d="M132 69l21-9-22 2z"/><path fill="#898989" d="M230 147h26v2h-26z"/><path fill="#b5b5b5" d="M116 107l2-14-5 11z"/><ellipse cx="224" cy="103" fill="#9c9c9c" rx="6" ry="2"/><path fill="#323232" d="M121 134h7v6h-7z"/><circle r="1" fill="#a1a1a1" transform="rotate(-75.6 111.8 -17.2) scale(1.71642 3.7771)"/><circle cx="218" cy="5" r="3" fill="#8e8e8e"/><circle r="1" fill="#fff" transform="matrix(6.1051 2.18433 -14.59095 40.78109 7.5 12.1)"/><ellipse cx="239" cy="100" fill="#7e7e7e" rx="1" ry="33"/><path fill="#c5c5c5" d="M199 92h3v34h-3z"/><path fill="#969696" d="M12.3 25.4l.4-13 3 .2-.4 13z"/><path fill="#c4c4c4" d="M198.8 83.3l-.4-3 28.8-3.6.4 3z"/><circle r="1" fill="#fefefe" transform="matrix(-2.1903 -.69749 2.58984 -8.13285 179.6 150.8)"/><path fill="#fff" d="M130.5 140.5l70.4 30.6-76.9-1 29.4-78.9zM220 1h15v19h-15z"/><path fill="#aeaeae" d="M107 126h7v5h-7z"/><path fill="#c5c5c5" d="M51.4 158.6l-.3-18.1 11.5 3.8-27.9 20z"/><circle cx="235" cy="175" r="2" fill="#818181"/><path fill="#c9c9c9" d="M84 142h38v4H84z"/><path fill="#e9e9e9" d="M186 132h11v27h-11z"/><path fill="#c6c6c6" d="M88 62h138v2H88z"/><path fill="#fff" d="M12.8 141.7l-2.1-96.9-9.4 2.6.3 124.3z"/><path fill="#d3d3d3" d="M238 113l-28 14 29 4z"/><path fill="#505050" d="M231 133h1v14h-1z"/><circle cx="35" cy="58" r="4" fill="silver"/><path fill="#fefefe" d="M187 123h24v21h-24z"/><path fill="#8e8e8e" d="M53.1 92.6l-1.2 9-1-.2 1.2-9z"/><circle cx="236" cy="63" r="5" fill="#464646"/><path fill="#aaa" d="M37 163h2v12h-2z"/><path fill="#fff" d="M247 146l15-21-7 21z"/><path fill="#a8a8a8" d="M193 131h9v3h-9z"/><path fill="#fff" d="M238 3h18v4h-18z"/><ellipse cx="41" cy="84" fill="#676767" rx="7" ry="1"/><path fill="#949494" d="M37 27.5l-24 2v-1l24-2z"/><path fill="#c4c4c4" d="M77 59H66l-4-9z"/><path fill="#7f7f7f" d="M110.1 49l1 .2-1.2 3.9-1-.3z"/><path fill="#fff" d="M73 0h106v26H73z"/><ellipse cx="214" cy="140" fill="#f0f0f0" rx="37" ry="1"/><path fill="#8d8d8d" d="M35 146.8l40 1.4v1l-40-1.4z"/><path fill="#fff" d="M203 89h14v28h-14z"/><ellipse cx="249" cy="23" fill="#aaa" rx="33" ry="1"/><ellipse cx="13" cy="24" fill="#dcdcdc" rx="1" ry="127"/><path fill="#9c9c9c" d="M189.8 17.7l.7-.8 3.7 3.4-.7.8z"/></g></g></svg>