<svg xmlns="http://www.w3.org/2000/svg" viewBox="0 0 880 1200"><defs/><filter id="a"><feGaussianBlur stdDeviation="12"/></filter><rect width="100%" height="100%" fill="#4c4034"/><g filter="url(#a)"><g fill-opacity=".5" transform="translate(2.3 2.3) scale(4.6875)"><circle r="1" fill="#bbc9cf" transform="rotate(-95.1 123.8 26.9) scale(113.3486 65.18708)"/><circle r="1" fill="#ff8" transform="matrix(-22.03042 -1.76096 3.13473 -39.21684 11.4 101.7)"/><ellipse cx="156" cy="183" fill="#cbdaeb" rx="11" ry="157"/><ellipse cx="94" cy="127" fill="#3d2c15" rx="18" ry="54"/><circle r="1" fill="#ecf0f7" transform="matrix(4.94949 65.82609 -9.15688 .6885 120.2 124.5)"/><circle r="1" transform="matrix(38.52365 10.10629 -6.23959 23.78436 6.3 41)"/><ellipse cx="107" cy="50" fill="#696b65" rx="61" ry="60"/><path fill="#040600" d="M95 139l45 21 45-9z"/><path fill="#a8a682" d="M119 165l-64 67-59-17z"/><ellipse cx="5" cy="101" fill="#ffde6e" rx="26" ry="36"/><path d="M0 141h41v25H0z"/><circle r="1" fill="#f4b41a" transform="matrix(-1.62387 12.65728 -31.86065 -4.08756 0 176.5)"/><path fill="#fff" d="M109.8 89.3l2.6-18.8 15.8 2.2-2.6 18.8z"/><ellipse cx="41" cy="240" fill="#151500" rx="55" ry="10"/><circle r="1" fill="#c2d1e4" transform="matrix(39.1658 9.11417 -2.80853 12.06896 128.5 190.2)"/><ellipse cx="36" cy="118" rx="6" ry="90"/><circle r="1" fill="#141f21" transform="matrix(14.41954 -.01295 .12545 139.64087 180.6 124.5)"/><path fill="#fff" d="M152 109h13v39h-13z"/><ellipse cx="114" fill="#d9ccbd" rx="31" ry="9"/><ellipse cx="121" cy="162" fill="#fff" rx="11" ry="9"/><circle r="1" fill="#fff" transform="matrix(-1.40726 17.16488 -11.2204 -.9199 120.7 125.7)"/><path fill="#ffffca" d="M8.3 67.4l23-.8.4 14-23 .8z"/><path fill="#2b302f" d="M131.1 98.8l13-.5 2.8 79-13 .4z"/><path fill="#66686e" d="M89 281l-3-55.8 81-4.3 3 56z"/><path fill="#f2ffff" d="M145 158h20v33h-20z"/><circle r="1" fill="#2b2518" transform="matrix(13.18699 -6.7191 5.03302 9.87785 88.8 50.1)"/><ellipse cx="141" cy="104" fill="#46403e" rx="55" ry="4"/><path fill="#3f3b30" d="M141.8 143.4l49.2 27-99-36.3-17.1 39.1z"/><ellipse cx="50" cy="96" fill="#818783" rx="9" ry="37"/><path d="M0 31h42v35H0z"/><ellipse cx="58" cy="184" fill="#838c87" rx="17" ry="49"/><path fill="#fcb84e" d="M0 77h31v56H0z"/><path fill="#2a323a" d="M84.4 171.3l92.5 11.3-45.9-11.8.9 3z"/><path fill="#2f2c2a" d="M178 7l-51 71 24-90z"/><ellipse cx="10" cy="209" fill="#b37e0b" rx="19" ry="11"/><path fill="#fff" d="M145.2 124.6l17.3 24.7 6.1-38.8-24.6 1.6z"/><path fill="#8e999e" d="M142 55h25v51h-25z"/><path fill="#747462" d="M19 209h88v23H19z"/><path fill="#fff" d="M110.2 89.8L109 70.2l17.2 6.4-2.7 12.5z"/><path fill="#8d908b" d="M42 92h42v69H42z"/><ellipse cx="183" cy="254" fill="#101308" rx="18" ry="49"/><path fill="#cdc7c2" d="M110.3 67.4l8.1-22.7-14.1 13.5-18.2 7.1z"/><circle r="1" fill="#9b9b9c" transform="rotate(24.8 -398.5 362.4) scale(56.37433 15.90676)"/><path fill="#4d4435" d="M78 113h33v61H78z"/><path fill="#fff" d="M110 4h16v4h-16z"/><ellipse cx="13" cy="154" rx="27" ry="12"/><ellipse cx="37" cy="8" fill="#3e3a25" rx="52" ry="22"/><path fill="#130300" d="M0 191h41v10H0z"/><path fill="#00162f" d="M150 112h2v41h-2z"/><circle r="1" fill="#141100" transform="matrix(11.80011 -20.1128 15.89328 9.32453 .1 242.2)"/><circle cx="121" cy="163" r="10" fill="#fff"/><path d="M32 43h9v157h-9z"/><path fill="#4d4d50" d="M166 100h21v60h-21z"/><path fill="#dfecfc" d="M135 70l-9 22 10-9z"/><path fill="#625140" d="M75.9 101.2l57.9 9-62.6-55.9 12.1 14.1z"/><path fill="#2a240f" d="M5.4 238.1l71-3.4 6.8-12.1 3.2 31.2z"/><path fill="#af8424" d="M0 165h31v25H0z"/><path fill="#f8fafd" d="M131.2 148.2l.9-37.7 1.9-1.3-20.9.7z"/><circle r="1" fill="#fff" transform="matrix(-.74177 2.63894 -16.0614 -4.51465 12 71.6)"/><path fill="#5e6363" d="M127 62l24-74-56 44z"/><path fill="#949794" d="M61 112h23v48H61z"/><ellipse cx="127" cy="149" fill="#3f403c" rx="30" ry="5"/><path fill="#fcffff" d="M152 160h16v17h-16z"/><path fill="#ebf8fd" d="M145 147v-39l9 7z"/><path fill="#e7eaf2" d="M111 115h21v28h-21z"/><path fill="#848878" d="M93 200l-73 33 18-33z"/><path fill="#312e28" d="M166 239l36-32-35-40z"/><circle r="1" fill="#bdcddd" transform="matrix(2.05128 -6.40754 24.7113 7.91096 132 184.7)"/><path fill="#4f504a" d="M73 19h37v42H73z"/><path fill="#fff" d="M111 154h11v18h-11z"/><circle r="1" fill="#171812" transform="rotate(-53.7 149.3 -155.7) scale(16.13923 23.50833)"/><path fill="#2d3030" d="M132 102h6v69h-6z"/><path fill="#787c7c" d="M150 105l3-49-33 46z"/><circle r="1" transform="matrix(-3.79275 -10.82288 37.92812 -13.29145 9.7 47.3)"/><path fill="#777e7c" d="M43 65h11v137H43z"/><ellipse cx="65" cy="226" fill="#6c6953" rx="36" ry="7"/><path fill="#a8aeb0" d="M145 82h22v23h-22z"/><circle r="1" fill="#677077" transform="matrix(-6.6406 -3.23884 8.25971 -16.93492 154.7 47.1)"/><path fill="#76787a" d="M86 225h70v31H86z"/><path fill="#031624" d="M107 106h48v2h-48z"/><path fill="#fff" d="M126 155h6v19h-6z"/><path fill="#79746b" d="M94.5 123.1l9.7.4 5.8-47.9-14.7-4.4z"/><path fill="#52564b" d="M43 22h25v51H43z"/><path fill="#fff" d="M110 76h11v15h-11z"/><path fill="#d1dae5" d="M112.3 90.2l-2.8-41-2.1-3.1 5.8 5.1z"/><path fill="#f3c252" d="M27 68h4v67h-4z"/><path fill="#6e502e" d="M107 0h31v4h-31z"/><path fill="#302c29" d="M107 105h4v70h-4z"/><path fill="#fff" d="M154 111h12v37h-12z"/><path fill="#dcf0ff" d="M165 195l-25-17 28 4z"/><circle r="1" fill="#2c3842" transform="matrix(30.95677 5.77155 -.18328 .98306 174.6 181.5)"/><path fill="#73797f" d="M117.6 59.4l2.4-44.6 11 53.6-26.7 6.5z"/><path fill="#2a1d0c" d="M81 61L71 50h31z"/><path fill="#7e735d" d="M50 94l14-56 19 35z"/><circle r="1" fill="#564d4e" transform="matrix(2.99072 .85193 -2.70643 9.50098 123.4 98.3)"/><path fill="#533f26" d="M93.4 132.6L79.9 72.4 92 74.2l-1.2 28z"/><path fill="#5b6163" d="M177.4 86.3l-11.6-3.9-21 2L125 62.7z"/><path fill="#a0a8b5" d="M148.7 221.5l-38.3-19.6 10.9-21.4 38.3 19.6z"/><path fill="#e3a740" d="M27.7 122l3.2 3.1-13.6 13-33.3 2.7z"/><path fill="#858074" d="M138 136h3v39h-3z"/></g></g></svg>