<svg xmlns="http://www.w3.org/2000/svg" viewBox="0 0 1200 750"><defs/><filter id="a"><feGaussianBlur stdDeviation="12"/></filter><rect width="100%" height="100%" fill="#383838"/><g filter="url(#a)"><g fill-opacity=".5" transform="translate(2.3 2.3) scale(4.6875)"><circle r="1" fill="#fff" transform="matrix(252.41257 -36.23389 22.33833 155.61328 207.4 51.6)"/><circle r="1" fill="#fff" transform="matrix(254.41945 17.1972 -6.87538 101.71603 96.7 53.8)"/><path fill="#fff" d="M269.3 13.6l-159 119.8-95.6-127 159-119.8z"/><path d="M200.7 55.2l9.7 7-41.1 56.6-9.7-7zM50 52l46 67-60-45z"/><ellipse cx="179" cy="27" fill="#fff" rx="255" ry="38"/><ellipse cx="120" cy="131" fill="#fff" rx="255" ry="21"/><path fill="#3a3a3a" d="M201.7 49.3l39.7 69.1-38.6-29.2-42.1 19.8z"/><path d="M22.9 111l-9.5-8.8L33 81l9.5 8.8z"/><circle r="1" fill="#fff" transform="matrix(-57.90042 -65.35525 17.05422 -15.1089 247 77.7)"/><circle r="1" fill="#fff" transform="matrix(40.78168 -69.51068 15.15189 8.88956 15.7 69.5)"/><ellipse cx="124" cy="85" fill="#fff" rx="38" ry="69"/><ellipse cx="126" cy="159" fill="#6f6f6f" rx="141" ry="9"/><circle r="1" fill="#fff" transform="rotate(26.7 -190.7 364) scale(7.30285 88.84714)"/><ellipse cx="77" cy="24" fill="#fff" rx="255" ry="31"/><circle r="1" fill="#fffff2" transform="matrix(25.8101 10.20504 -7.14915 18.0813 52.5 115.8)"/><circle r="1" fill="#fff" transform="rotate(64.5 68.7 221.6) scale(55.80644 24.80406)"/><path fill="#fff" d="M253.8 154.2L271 11.6l-97 103.3 53.5-44z"/><path fill="#343434" d="M86 109l-11 4-9-37z"/><path fill="#3a3a3a" d="M5 115l19-4 10-32z"/><path fill="#252525" d="M239 107l-22-27 9 31z"/><circle r="1" fill="#fff" transform="rotate(35.3 -103 48.6) scale(24.4624 98.92944)"/><circle r="1" fill="#ebe9d6" transform="rotate(35.4 -86 375.5) scale(28.61332 20.5454)"/><path fill="#464646" d="M56 95l21-3-41-22z"/><ellipse cx="147" cy="57" fill="#fff" rx="34" ry="51"/><path fill="#fefefe" d="M136 175L47 44l78-57z"/><path fill="#fff" d="M-16 19.7l14.1 114.7 37.4-71.1 10.4 26.6z"/><ellipse cx="30" cy="136" fill="#f7f6f2" rx="157" ry="17"/><path fill="#fff" d="M208 152l54-2-6-55z"/><path fill="#424242" d="M200 56l12 14-21 28z"/><path fill="#2a2a2a" d="M208 91l8-16 5 25z"/><path fill="#4d4d4d" d="M50 85l-2-35 45 67z"/><path fill="#d9d5af" d="M38.3 110.8l24 .4-.6 32-24-.4z"/><path fill="#e1e1e1" d="M114.2 22.2l.6 39-29 .6-.6-39z"/><path fill="#4e4e4e" d="M44.2 93.3L29.1 101l-7.3-14.3L36.9 79z"/><path fill="#fff" d="M162-2l76 108 33-17zM48 88l-36 37 58-19z"/><path fill="#f8f8fb" d="M209.5 82.1l-6.1 17.7-31 10.3 95.2-76.3z"/><path fill="#6f6f6f" d="M85 151h36v9H85z"/><path fill="#fff" d="M-8.6-16l38 99.3-39.4 51.9 22.8-2.6z"/><ellipse cx="204" cy="130" fill="#e1e0d7" rx="36" ry="23"/><path fill="#3e3e3e" d="M160 118l7-11-7-1z"/><path fill="#f2f3f6" d="M163 110.4l21.5 10.2-6.7-19.4-11.4 49z"/><circle r="1" fill="#fff" transform="rotate(-146.9 93.1 10.3) scale(17.47203 89.27657)"/><circle r="1" fill="#fff" transform="matrix(33.90424 7.462 -15.37115 69.84023 28.3 9.9)"/><path fill="#474747" d="M224 113l2-10 11 7z"/><path fill="#5a5a5a" d="M176.4 87.4l21.3-34.1-1.2 41-28.1 5.1z"/><path fill="#555" d="M21.5 114.7l4.2-2.2-16.9-3.9 28.8-24.2z"/><path fill="#fff" d="M208.4 77.8l61.3-72.3-67.8 89.7-6.9 1.7z"/><circle r="1" fill="#6f6f71" transform="matrix(1.14948 2.54076 -2.14512 .97049 12.4 136.4)"/><path fill="#6d6d6e" d="M0 151h14v9H0z"/><ellipse cx="199" cy="109" fill="#eeede0" rx="23" ry="15"/><path fill="#777" d="M204 175l-74-23 140 1z"/><path fill="#585858" d="M36.3 83.1l-.7-8.1-26.8 38.6 3 3.9z"/><path fill="#fff" d="M118 2h41v149h-41z"/><path fill="#46464b" d="M236 134l2 3v-6z"/><path fill="#29292b" d="M160 134h4v4h-4z"/><path fill="#fff" d="M9.5 120.2L-16 61.4l59.5 19-31.6-32.9z"/><ellipse cx="173" cy="102" fill="#4b4b4b" rx="3" ry="13"/><path fill="#e0ddbd" d="M187 109h26v33h-26z"/><path fill="#fff" d="M124.9 104.3l12 .6-5.8 108.8-12-.6zM240 0h16v151h-16z"/><path fill="#454545" d="M45 61l5-9 14 20z"/><path fill="#fbfbfd" d="M34.8 114.3L33 128.2l-19.9-2.5 1.7-13.9z"/><path fill="#505050" d="M75 107h15v6H75z"/><path fill="#7b7b7b" d="M231 151h25v5h-25z"/><circle r="1" fill="#676767" transform="matrix(-.42036 5.86431 -2.01289 -.14429 237.7 109.3)"/><path fill="#a6a6a8" d="M71 134h20v3H71z"/><path fill="#585859" d="M86 134h4v5h-4z"/><path fill="#fff" d="M77 138h101v9H77z"/><path fill="#f3f3f4" d="M80.7 126.9l-24.4 23.9 65.3-34.7-22.3-13.6z"/><path fill="#fff" d="M97.8 31.7L48.2 49.6l40.5 57.2-6.1-21.5z"/><circle r="1" fill="#fff" transform="rotate(-32 181.2 -37.2) scale(2.61275 13.40148)"/><path fill="#434343" d="M204 92h21v2h-21z"/><ellipse cx="196" cy="152" fill="#bebebf" rx="33" ry="2"/><ellipse cx="30" cy="151" fill="#a8a9aa" rx="90" ry="1"/><path fill="#fff" d="M0 0h7v151H0z"/><path fill="#575757" d="M198.1 56l-1.8 36.6 14.6-17.9-.5-5.7z"/><circle r="1" fill="#fefeff" transform="matrix(9.81069 9.17599 -5.46912 5.84741 62.3 106)"/><ellipse cx="39" cy="106" fill="#fff" rx="13" ry="7"/><path fill="#f7f7fb" d="M217.8 145.4l8.6-31.8 27.1 20.6-47.6-1z"/><path fill="#616161" d="M17.5 106l7.2 12 7.2-46 11.3 20.4z"/><ellipse cx="207" cy="15" fill="#fff" rx="87" ry="38"/><circle r="1" fill="#575757" transform="matrix(7.1404 -2.07043 2.96281 10.21804 56.3 84.6)"/><path fill="#cecece" d="M95 37h12v19H95z"/><path fill="#fff" d="M38.5 75L-16-16 107.9 9.6l-119 89.2z"/><path fill="#fcfcfd" d="M167 112l-14 9 38 1z"/><path fill="#595959" d="M49.6 76l-16.9-3.8 25.1-7.1 31.8 53.5z"/><path fill="#585858" d="M162.6 106.6l34-49.3 4-2.5 8.3 15.8z"/><path fill="#585858" d="M185 87l-27 23 15 1z"/><path fill="#565656" d="M37.5 73.6l4.8-9.2 9.2-.5 39.6 45.4z"/><path fill="#dadad6" d="M163 123h68v13h-68z"/><path fill="#cccccd" d="M97 122h6v14h-6z"/><path fill="#fefeff" d="M-5.4-11.9l30.8 68.3 38.3 53.3-42.2-45.3z"/><path fill="#fff" d="M202.9 46.3l-97.6-13.4 1.8 29.5 59.7 35.4z"/><path fill="#707070" d="M134 152h28v4h-28z"/><circle cx="237" cy="115" r="2" fill="#5b5b5b"/><path fill="#fff" d="M228 112h7v9h-7z"/><path fill="#4d4d4d" d="M27 93l19 1-14-16z"/><path fill="#545454" d="M192.6 62.6l-23.8 39.2 29.1-9.8 2.5-39.7z"/></g></g></svg>