<svg xmlns="http://www.w3.org/2000/svg" viewBox="0 0 1200 394"><defs/><filter id="a"><feGaussianBlur stdDeviation="12"/></filter><rect width="100%" height="100%" fill="#4b4441"/><g filter="url(#a)"><g fill-opacity=".5" transform="translate(2.3 2.3) scale(4.6875)"><circle cx="137" cy="43" r="149" fill="#fff"/><circle r="1" fill="#fff" transform="rotate(89 67.5 83.9) scale(23.13752 225.96523)"/><ellipse cx="140" cy="12" fill="#fff" rx="255" ry="18"/><ellipse cx="87" cy="12" fill="#fff" rx="255" ry="17"/><circle r="1" fill="#cdcccd" transform="matrix(.13937 13.83334 -155.65208 1.56823 126 76.7)"/><path fill="#81746f" d="M10 33h87v23H10z"/><path fill="#968278" d="M118.8 28.2l12-11.7 20 47.1-31.3 2z"/><ellipse cx="203" cy="48" fill="#645951" rx="44" ry="6"/><path fill="#fff" d="M271 6.3l-29 12 16.2 55-14.2-15zM37.9-16L271 6.2l-154.1 20-.3 22.3z"/><path fill="#fff" d="M24.3 75.9L-4.9 50l66.1-66L-16 15.2zm125.4-30.5l-12-5.1 6.6-15.7 12 5.1z"/><path fill="#8e847f" d="M246.4 39.8l-11.7-17.4-40.9 41.8 51.7-7z"/><path fill="#fff" d="M97 50h12v13H97zm-63-8.5L48.2 24l222.8-.9L21.1-16z"/><path fill="#837b75" d="M3.2 52.7l16.9-29.8 38.7 45.2-31.9-15.5z"/><path fill="#fff" d="M149 55h11v9h-11z"/><path fill="#beb6b6" d="M33 40l87 5-49-19z"/><path fill="#9f918b" d="M130.7 5.5l-18.4 47.7L138 39.9l-9.5-27z"/><path fill="#988e89" d="M187.2 25l-29.7 38.4 54.6.6L196 29.8z"/><path fill="#fff" d="M103.4 52.8l1.3-5 11.9-3.4 1.4-55.1z"/><path fill="#716c67" d="M82.5 53L9.1 47.7l84.1-5.6 7 12.6z"/><path fill="#fff" d="M222.9-16L271 39.8 120.7-16l55.5 55.9z"/><path fill="#c4c3c3" d="M21 71L-16 1l1 68z"/><path fill="#fff" d="M38.9 18.7L64-8.4 83 9.3 58 36.4zm101.9 18.2l.7 10 60.1-57.7-67.4-5.2z"/><path fill="#a09391" d="M67.6 37.7L63 30l9.4-5.7L77 32z"/><path fill="#fff" d="M-16 5L7 40l34-56z"/><path fill="#827c78" d="M160 44h63v14h-63z"/><path fill="#968679" d="M117 64l1-22-15 6z"/><path fill="#bcb2b1" d="M204.5 42.5l-49.1-12.3-8.2 20.5 14.5-9z"/><path fill="#9a928d" d="M87.8 64.9l-37.5-1.1 54.5-28-12.3-9.9z"/><path fill="#a79b9a" d="M205.9 44.4l.2-13 12 .2-.2 13z"/><path fill="#fff" d="M193 0h33v31h-33z"/><ellipse cx="53" cy="71" fill="#bbbaba" rx="255" ry="8"/><path fill="#766f69" d="M12 45h75v8H12z"/><path fill="#fff" d="M249 39l-4-53 26 36zM-16-16L-.6 11.6l40.1 26.3 8.8-50.7z"/><path fill="#bab9ba" d="M251 42h5v42h-5z"/><path fill="#8a8077" d="M30 63H13l-1-16z"/><path fill="#fff" d="M4 55h8v8H4z"/><path fill="#b3b2b1" d="M-16 17.6l13.4 72.5L9.6 48.6l-4.9-9.3z"/><path fill="#0d1616" d="M126 55h5v4h-5z"/><path fill="#ad9c93" d="M117 30h23v24h-23z"/><path fill="#fff" d="M106 62l3-13-8 11zM85.9 36.1L124.8-16l-17.4 50.3L52 2.9z"/><path fill="#f6f6f4" d="M245 51h4v14h-4z"/><path fill="#95908e" d="M82 55l-24 3 12-22z"/><path fill="#fff" d="M108.1 44.2L127.7 20l-12.6-36-13.9 17.8z"/><path fill="#5e554f" d="M219 53l23-9h-18z"/><path fill="#8b7e74" d="M244.9 59.4l-34.5 3.4 24.9 1.1 9.2-17.1z"/><ellipse cx="249" cy="54" fill="#c3c2bf" rx="101" ry="1"/><ellipse cx="201" cy="59" fill="#b1b2af" rx="37" ry="2"/><path fill="#fff" d="M118-13l30 56 39-59z"/><path fill="#fff" d="M271 3.4L163.3-16l57.4 50.6 11.2-10.3z"/><path fill="#917d73" d="M45 61h49v3H45z"/><path fill="#878688" d="M126.4 10.6h1l2.2 20.8h-1z"/><path fill="#fff" d="M150 54h5v9h-5z"/><ellipse cx="17" cy="54" fill="#bebeba" rx="76" ry="1"/><path fill="#a89c99" d="M227 30h21v11h-21z"/><path fill="#9c918c" d="M130 44.6l-12.5-9.8 10.4-13.4 12.6 9.8z"/><path fill="#aa9f9e" d="M221 42l-9-15-7 7z"/><path fill="#7a6f68" d="M80.5 46l12.6-.9 4.8 17.3-7.2-5.1z"/><path fill="#7e7871" d="M141 47h6v17h-6z"/><path fill="#908683" d="M7.2 52.7l6.7-23.8 12.9 3.2L6.1 54.7z"/><path fill="#fff" d="M198-16l-23 57-3-31z"/><path fill="#a69b97" d="M24 32h9v11h-9z"/><ellipse cx="142" cy="63" fill="#8f8d8a" rx="111" ry="1"/><path fill="#706a65" d="M168 45h41v5h-41z"/><path fill="#a49e9d" d="M180 65.1l2.8-35.7 20.7 10.9-31.1 18.9z"/><path fill="#bbb9b9" d="M212 64h44v20h-44z"/><path fill="#fff" d="M6.4 37.5L-16 28.3l146.9-6.8L44.4-7.6z"/><path fill="#807269" d="M61 52h14v6H61z"/><path fill="#b0a5a4" d="M159.6 43.4l-4.5-11 9.3-3.8 4.5 11z"/><path fill="#fff" d="M119-16L53 35 42-16zm121.7 0l-15.5 49.3-29.5-9.6 7.4 12.3z"/><path fill="#76685f" d="M165 58l2-13-7 11z"/><path fill="#685f5c" d="M26.1 50l-1.3 2.6-17-8.6 1.4-2.6z"/><path fill="#a8a19f" d="M104 33l-1 21-8-6z"/><path fill="#837b74" d="M183 58l14 2-9-18z"/><path fill="#c9c6c3" d="M161.6 46l-8.4 12.5-.8-.6 8.4-12.4z"/><path fill="#afa4a4" d="M39.9 32.8l5.4-4.4 8.8 10.8-5.4 4.4z"/><path fill="#b8b6b5" d="M57.5 58.6l71.1 33-75.9-25.9 33.3-6z"/><path fill="#91857c" d="M116.5 63.5l-8.4-13.2 6.1-7.7 2.8 9.5z"/><path fill="#fff" d="M246 56l4-6 1 13z"/><path fill="#938985" d="M235 26l-7 3 6 14z"/><path fill="#fff" d="M7 46h2v3H7z"/><circle r="1" fill="#bbb8b3" transform="matrix(.99992 .01255 -.3779 30.1099 139 61)"/><path fill="#b0a8a8" d="M68 33h13v12H68z"/><circle cx="128" cy="52" r="2" fill="#e5ede0"/><path fill="#b9b8b8" d="M251 39h5v45h-5z"/><path fill="#afb1b5" d="M209.2 53.3l.6 6-13 1.4-.6-6z"/><path fill="#827b75" d="M34 45h14v14H34z"/><path fill="#bab8b7" d="M4 64h252v16H4z"/><path fill="#b8bbb9" d="M172 52l-12 11 12-6z"/><path fill="#b8b6b7" d="M-11.3 23.8l-.8 2.5 19 67.3-1.4-54.7z"/><circle cx="236" cy="50" r="4" fill="#6c625c"/><ellipse cx="43" cy="59" fill="#acada9" rx="25" ry="2"/><path fill="#fff" d="M161.7 18.5L265.3 1.3 122.6-9.6l23 56z"/><ellipse cx="206" cy="62" fill="#987a6b" rx="35" ry="1"/></g></g></svg>