<svg xmlns="http://www.w3.org/2000/svg" viewBox="0 0 1200 696"><defs/><filter id="prefix__a"><feGaussianBlur stdDeviation="12"/></filter><rect width="100%" height="100%" fill="#5d5b61"/><g filter="url(#prefix__a)"><g transform="translate(2.3 2.3) scale(4.6875)"><circle cx="180" cy="54" r="217" fill="#fff" fill-opacity=".5"/><circle cx="131" cy="50" r="167" fill="#fff" fill-opacity=".5"/><circle r="1" fill="#fff" fill-opacity=".5" transform="matrix(1.31234 -64.25453 254.94683 5.20706 170.6 34.8)"/><path fill="#a1a0b2" fill-opacity=".5" d="M98 111L118 8l25 106z"/><circle r="1" fill="#fafcff" fill-opacity=".5" transform="matrix(-37.65221 -105.7397 66.82817 -23.79644 201.4 53.6)"/><circle r="1" fill="#f8f9ff" fill-opacity=".5" transform="matrix(-20.98211 -40.51967 96.71693 -50.08248 23.6 39.8)"/><circle r="1" fill="#e0edff" fill-opacity=".5" transform="matrix(-53.57223 5.46906 -1.56914 -15.37048 33 130.5)"/><ellipse cx="126" cy="106" fill="#c4c4d5" fill-opacity=".5" rx="202" ry="9"/><circle r="1" fill="#8d919e" fill-opacity=".5" transform="rotate(-151.1 60.5 52.7) scale(2.70131 44.31896)"/><path fill="#76757f" fill-opacity=".5" d="M105.8 163l-87.4-.2 97 .2-1.4-54.8z"/><path fill="#efeffc" fill-opacity=".5" d="M125.5 95.9l-7.3-61.2-4.3 50.6L125 163z"/><circle r="1" fill="#a2a6b3" fill-opacity=".5" transform="rotate(139.5 56.9 104.4) scale(6.35636 60.80782)"/><path fill="#dcdbf4" fill-opacity=".5" d="M14.8 75.3l86-1.5.4 27-86 1.4z"/><path fill="#7d7a81" fill-opacity=".5" d="M112 25h5v29h-5z"/><circle r="1" fill="#fffdff" fill-opacity=".5" transform="matrix(-8.36529 40.39446 -79.93285 -16.5533 195.8 14)"/><path fill="#dedfee" fill-opacity=".5" d="M115.5 110.1l6.4-7.7 49.5 43.7-55-7.3z"/><path fill="#aaa8b7" fill-opacity=".5" d="M95 143h70v5H95z"/><path fill="#fff" fill-opacity=".5" d="M141 108h60v4h-60z"/><path fill="#9b999e" fill-opacity=".5" d="M131 74l13 48-17-24z"/><ellipse cx="63" cy="107" fill="#adabb6" fill-opacity=".5" rx="14" ry="7"/><path fill="#8b898d" fill-opacity=".5" d="M116.9 33.9l-.9-13.7-12.8 79.3 1.9 9z"/><path fill="#e6e5f5" fill-opacity=".5" d="M115 16l-14 81-50-46z"/><ellipse cx="231" cy="144" fill="#cdd9e4" fill-opacity=".5" rx="57" ry="7"/><path fill="#f3f2ff" fill-opacity=".5" d="M108 103.8l2-24 4 .4-2 24z"/><path fill="#7e8085" fill-opacity=".5" d="M155.9 125.3l.7-.7 19.5 24.1-.7.7z"/><ellipse cx="114" cy="118" fill="#8e8c92" fill-opacity=".5" rx="1" ry="92"/><ellipse cx="218" cy="124" fill="#ebf0f8" fill-opacity=".5" rx="61" ry="12"/><ellipse cx="186" cy="104" fill="#c4c2cd" fill-opacity=".5" rx="27" ry="5"/><path fill="#c7d5eb" fill-opacity=".5" d="M12 143l70-11-18 31z"/><circle r="1" fill="#ededf4" fill-opacity=".5" transform="matrix(-19.01987 .69743 -1.20356 -32.82293 150.5 70.6)"/><path fill="#fdfdfe" fill-opacity=".5" d="M32 0h43v38H32z"/><path fill="#edeff6" fill-opacity=".5" d="M0 115h27v24H0z"/><path fill="#dbdbeb" fill-opacity=".5" d="M34.9 108.7l63.8-21.6-48-15.8-58.2 29z"/><path fill="#e7e7f1" fill-opacity=".5" d="M137 85h88v14h-88z"/><path fill="#f0f0fd" fill-opacity=".5" d="M116 41h3v53h-3z"/><path fill="#a09ea5" fill-opacity=".5" d="M125.8 48.2L132 86l-14.3-54.4-5.4 8.8z"/><path fill="#5c5b5f" fill-opacity=".5" d="M114 27h4v7h-4z"/><path fill="#dedde8" fill-opacity=".5" d="M134.8 143.6l-18.1 4.1-1.7-48 38.3 28.5z"/><path fill="#d7d7e7" fill-opacity=".5" d="M86 71.2L37.5 93.9l63.6 3.8.2 10.9z"/><path fill="#908e94" fill-opacity=".5" d="M111 104h4v20h-4z"/><path fill="#96959c" fill-opacity=".5" d="M104 73h4v28h-4z"/><path fill="#d1d1e3" fill-opacity=".5" d="M114 97l-27 33 13 27z"/><path fill="#979ba6" fill-opacity=".5" d="M78.7 163l-5.9-8.4L86 123l-6.1 40z"/><path fill="#f5f8f8" fill-opacity=".5" d="M73 78L5 59h88z"/><ellipse cx="113" cy="114" fill="#777578" fill-opacity=".5" rx="1" ry="16"/><circle r="1" fill="#bab9c3" fill-opacity=".5" transform="rotate(-93.8 80.7 28) scale(1.4589 53.57473)"/><circle r="1" fill="#8b898d" fill-opacity=".5" transform="matrix(.66582 -.74612 10.76206 9.6038 135.4 107.2)"/><path fill="#f3f3fb" fill-opacity=".5" d="M117 69h6v30h-6z"/><ellipse cx="227" cy="100" fill="#e4e2ee" fill-opacity=".5" rx="27" ry="6"/><path fill="#e1e6ee" fill-opacity=".5" d="M147 113l51-1-24 29z"/><path fill="#eff0f6" fill-opacity=".5" d="M42.9 95.7l-21.3 5.1 21.3-34-50.8 15.6z"/><path fill="#e4e3f0" fill-opacity=".5" d="M105.4 38.5l-42.5 7.6 39.9 45 12.6-71.4z"/><circle r="1" fill="#d0cfdc" fill-opacity=".5" transform="matrix(-.97952 .20133 -2.8856 -14.03894 129.5 90)"/><path fill="#cdcedb" fill-opacity=".5" d="M243 97h13v20h-13z"/><path fill="#94969a" fill-opacity=".5" d="M80.9 139.5L71.2 163l12.2-32.5 22.9-30.7z"/><path fill="#c4c3d0" fill-opacity=".5" d="M55 161l51-3 7-30z"/><path fill="#c8c7d4" fill-opacity=".5" d="M205.7 102.4l18.7 10-79.4-12-2.5 10z"/><circle r="1" fill="#f7f6fa" fill-opacity=".5" transform="matrix(8.91779 -23.66944 54.17337 20.41056 192 56.3)"/><path fill="#c9ccd7" fill-opacity=".5" d="M150.6 122.8l-41-18.8 31.4 18.6 30.2 23.4z"/><path fill="#838589" fill-opacity=".5" d="M142.9 113.8l24.9 21.6-.7.8-24.9-21.6z"/><path fill="#98979c" fill-opacity=".5" d="M117.2 163l-.9-22-9.4.7 14.5 18.5z"/><circle r="1" fill="#f5f4fa" fill-opacity=".5" transform="matrix(.73292 6.76441 -18.73374 2.02978 232.8 125.8)"/><path fill="#8b898f" fill-opacity=".5" d="M102 91h5v12h-5z"/><ellipse cx="112" cy="81" fill="#e4e5f4" fill-opacity=".5" rx="2" ry="13"/><path fill="#cdccd9" fill-opacity=".5" d="M66 87l-20 33 8-30z"/><path fill="#b3b0bb" fill-opacity=".5" d="M104 101h24v3h-24z"/><path fill="#cacbd7" fill-opacity=".5" d="M166 142l-7-13-33 14z"/><path fill="#d0d7e7" fill-opacity=".5" d="M83 129.7l-20-16.4 17.5-3.1 17-.2z"/><circle r="1" fill="#fffdfd" fill-opacity=".5" transform="matrix(-27.66668 -20.12658 13.23994 -18.20007 227.3 12.2)"/><ellipse cx="246" cy="111" fill="#bdbec8" fill-opacity=".5" rx="24" ry="2"/><path fill="#c7d2e0" fill-opacity=".5" d="M247 132l18 9-6 22z"/><path fill="#c8d1dd" fill-opacity=".5" d="M181.4 142.4l16.2 8.3-52.6-35.9 31 28.8z"/><path fill="#bec1cb" fill-opacity=".5" d="M0 113h92v2H0z"/><ellipse cx="180" cy="109" fill="#fafcfc" fill-opacity=".5" rx="23" ry="2"/><path fill="#e0dff2" fill-opacity=".5" d="M-16 76l21 25 43-1z"/><path fill="#979aa1" fill-opacity=".5" d="M163 131h2v17h-2z"/><circle r="1" fill="#bcb8c4" fill-opacity=".5" transform="matrix(4.38278 -1.87995 4.1536 9.68342 122.4 44.8)"/><circle r="1" fill="#aeacb4" fill-opacity=".5" transform="matrix(-7.46716 -.07017 .03843 -4.08906 65.7 105.5)"/><path fill="#e8e9f3" fill-opacity=".5" d="M144 87l-14-23 11 40z"/><path fill="#f3f2f8" fill-opacity=".5" d="M104.2 47.4l-43.7-16L80 24.7l37.5-6.5z"/><path fill="#4a494b" fill-opacity=".5" d="M115 25h2v5h-2z"/><path fill="#e8e7f2" fill-opacity=".5" d="M163 62l-39-27 8 23z"/><path fill="#f4f6fa" fill-opacity=".5" d="M151 110h73v2h-73z"/><path fill="#bfbec9" fill-opacity=".5" d="M198 98l16 13-39-13z"/><path fill="#e1e0ea" fill-opacity=".5" d="M137 94h62v3h-62z"/><path fill="#b5b3bd" fill-opacity=".5" d="M60 106h39v4H60z"/><path fill="#e6e7ef" fill-opacity=".5" d="M146.3 138.3L120 123.6l-3.9 16.6 11.3-30.1z"/><path fill="#d5d4e1" fill-opacity=".5" d="M141 99h35v5h-35z"/><path fill="#e6e6f1" fill-opacity=".5" d="M127.5 98.1l-13.3 1.2 5-48.5 4.5 30.8z"/><path fill="#cfcdde" fill-opacity=".5" d="M75 101h28v6H75z"/><path fill="#cfd7e6" fill-opacity=".5" d="M68 163l10-29-84 12z"/><path fill="#e1e1f0" fill-opacity=".5" d="M116 38h2v35h-2z"/><path fill="#cbcad5" fill-opacity=".5" d="M112.1 101.4l-7.8 23.8 5.9-.5 2.6-15z"/><circle r="1" fill="#adacb4" fill-opacity=".5" transform="matrix(-3.39879 24.49374 -2.83477 -.39336 110 66.6)"/><path fill="#e2e2f0" fill-opacity=".5" d="M86 132h14v6H86z"/><path fill="#e6e8f0" fill-opacity=".5" d="M-16 104.9l30.1 4.3-30.1 8.3L34 163z"/><circle r="1" fill="#b1b0b8" fill-opacity=".5" transform="matrix(3.03551 14.73406 -2.20994 .4553 130.8 79.6)"/><path fill="none" stroke="#a3a2a8" stroke-opacity=".5" stroke-width=".5" d="M112 28q11.2 11.8 25.2 74.4"/><path fill="#ededf3" fill-opacity=".5" d="M181 83h69v8h-69z"/><path fill="#b9bfcc" fill-opacity=".5" d="M100.9 110.6l.8.5-20.6 34.3-.8-.5z"/></g></g></svg>