<svg xmlns="http://www.w3.org/2000/svg" viewBox="0 0 1200 900"><defs/><filter id="a"><feGaussianBlur stdDeviation="12"/></filter><rect width="100%" height="100%" fill="#405830"/><g filter="url(#a)"><g fill-opacity=".5" transform="translate(2.3 2.3) scale(4.6875)"><circle r="1" fill="#fff" transform="matrix(44.9848 -34.34337 16.88453 22.11627 129 11)"/><circle r="1" fill="#c7b1c8" transform="matrix(24.80422 -60.90577 159.62686 65.00893 88 182)"/><circle r="1" fill="#fff" transform="matrix(18.08995 -51.76034 20.13793 7.0381 135.6 0)"/><circle r="1" transform="rotate(-63.1 22.3 13.7) scale(97.11871 36.42445)"/><path fill="#76bd3f" d="M63.5 55.6l211.7-11.1 1.3 24-211.7 11z"/><circle r="1" fill="#061c02" transform="matrix(-7.09321 -17.46847 56.15417 -22.80184 211 24.7)"/><path fill="#71948a" d="M103.8-23l5.3 77-42.9 3L61-20z"/><ellipse cx="233" cy="109" fill="#202118" rx="61" ry="34"/><circle r="1" fill="#fff" transform="matrix(-10.6581 -9.31324 26.81207 -30.68382 136.5 13.2)"/><circle r="1" fill="#919395" transform="rotate(64.7 -76.5 101.6) scale(62.47889 20.01617)"/><circle r="1" fill="#5f812f" transform="rotate(115.6 40.2 130.4) scale(9.58238 154.58366)"/><circle r="1" fill="#011003" transform="matrix(-31.99786 -7.21103 4.16237 -18.4699 25.5 27.4)"/><path fill="#65995d" d="M125.1 45.1l62.5-59.7-48.4 72.9-68.5-7.4z"/><circle r="1" fill="#776a55" transform="matrix(-43.65375 -9.98107 4.54268 -19.8681 214 191)"/><path fill="#70a461" d="M16.9 63.1l-3.1-11.6L31 47l3.1 11.6z"/><circle r="1" fill="#959396" transform="matrix(-11.63292 13.86332 -63.53212 -53.31073 98.6 148.3)"/><path fill="#fff" d="M132.9 46.5l-11.4-11.2L108 15.9 168.4-16z"/><path fill="#3e5428" d="M7.3 102.7L.9 140.6-16 94.8l72.9-17.5z"/><circle r="1" fill="#31681b" transform="matrix(-113.4068 -32.83086 3.99492 -13.79955 204.5 142.4)"/><circle r="1" fill="#151c12" transform="matrix(5.29747 -2.01838 9.67842 25.4021 45.6 68.4)"/><path fill="#295221" d="M157 11.5l-7.6 27.8 2.7 21.2 64.4-53.9z"/><path fill="#667f74" d="M105-13l-38-3 12 79z"/><ellipse cx="183" cy="89" fill="#352b2e" rx="102" ry="11"/><path fill="#cbd8e2" d="M100 27l14 15-28 3z"/><ellipse cx="203" cy="93" fill="#787d68" rx="22" ry="4"/><path fill="#223016" d="M217.8 65.9L265 206.3 240.6 64.4l-5.2-1.5z"/><path fill="#0f120d" d="M172.7 43.9l39.9 9 6.8-19.6-58.3-7.3z"/><path fill="#e5f1f7" d="M155 2l16 9 1-11z"/><path fill="#b6ddc5" d="M193 8.6l12.6-19.3 3.3 2.1-12.5 19.3z"/><path fill="#498e1f" d="M29.5 1l5.2-15L72.5-1l-5.2 15z"/><path fill="#6e695a" d="M101 72h143v7H101z"/><ellipse cx="231" cy="83" fill="#030300" rx="46" ry="4"/><ellipse cx="217" cy="109" fill="#5f6950" rx="24" ry="4"/><path fill="#bcd7b1" d="M43 72L17 83l21-2z"/><path fill="#767471" d="M111 193l-127-60 3 59z"/><path fill="#639241" d="M84 47h67v30H84z"/><path fill="#000102" d="M6.3 15.5l15.3 4.7L3.7 78.5l-15.3-4.7z"/><path fill="#94bc93" d="M149.9 15.1l-21.6 35.6 16.4 3.6-7.6 10.7z"/><ellipse cx="229" cy="100" rx="28" ry="3"/><path fill="#436349" d="M83 12h11v19H83z"/><path fill="#214715" d="M53 8l11 32-49-26z"/><ellipse cx="171" cy="61" fill="#66a533" rx="65" ry="7"/><path fill="#a4c2c2" d="M107 1h9v39h-9z"/><circle r="1" fill="#4e8d1c" transform="rotate(175.7 121.8 29.1) scale(26.34303 9.45345)"/><path fill="#373f50" d="M106.6 59h-1l1.8-34h1z"/><path fill="#67645c" d="M149 75l13 12h30z"/><path fill="#121f0c" d="M246 0h10v38h-10z"/><path fill="#537f25" d="M195.5 164.5l-63-29.5 66 8.2 58.4 30.1z"/><path fill="#fff" d="M123 0h20v34h-20z"/><path fill="#4c863b" d="M168.1 7.1l6.7 12.9-25.7-1.2 5.7-7z"/><path fill="#313735" d="M0 84h64v8H0z"/><path fill="#59972d" d="M15.9 81.9l-18.4 30.8 22.9-46.6L40 76.7z"/><path fill="#cae1db" d="M47 46h3v6h-3z"/><path fill="#809293" d="M72 9h7v42h-7z"/><path fill="#568339" d="M85.1 114.2l-19.7-13.6 50.1-2.2 16.1 33.5z"/><circle r="1" fill="#837d74" transform="matrix(6.5918 37.65604 -22.45758 3.93127 163.7 178.4)"/><path fill="#506431" d="M232 114l39 9-19-22z"/><path fill="#537643" d="M96.3 49.2l-24.9 2.4L46.3 89l54.9-32.8z"/><path fill="#3e6938" d="M166.3 42L143 32.5l2.6-6.5 23.2 9.3z"/><path fill="#0e100a" d="M169.2 86.7L158 89.4l62.8 12.7-50.2-7.4z"/><ellipse cx="171" cy="125" fill="#335726" rx="42" ry="14"/><ellipse cx="57" cy="51" fill="#26371e" rx="7" ry="23"/><path fill="#7ca08f" d="M80.5 10.2l44.7-20.4-9.3 18.3-7.2-6z"/><path fill="#757252" d="M245 188l-74-40 39 47z"/><path fill="#0c1e08" d="M250.9 123.9l8.3.5-27.6-7.3-25.5 13.1z"/><path fill="#f5dbcc" d="M177 167h12v3h-12z"/><path fill="#376625" d="M206-16l-12 43 21-2z"/><circle r="1" fill="#305716" transform="matrix(-9.66365 -15.58588 39.95064 -24.77045 255 145.1)"/><path fill="#4b7247" d="M127 42l-3 27-13-16z"/><path fill="#f7f8f8" d="M133.9 26.5L90.7 49l26.7-6.3 13.7-1.3z"/><path fill="#fcfdff" d="M118 14.8l54.8-17.6-53.9 30.7-15.5-16.5z"/><path fill="#485536" d="M147.1 53.1l25.7-8.1 4.3 48.2-3.2-35.9z"/><ellipse cx="107" cy="153" fill="#8e8b8c" rx="30" ry="29"/><path fill="#517e28" d="M244 20l10 3-19 10z"/><ellipse cx="106" cy="6" fill="#2c4457" rx="1" ry="46"/><path fill="#555347" d="M182.2 80.3l7.7-7.5 81.1-6.1-56.7 14.5z"/><path fill="#a1bbb8" d="M69.2 31.2l1 .3-5.4 17.3-1-.3z"/><circle cx="193" cy="100" r="3" fill="#979888"/><path fill="#506f3e" d="M147.7 94.9l27 8.8 7.7-3-27.7-10.9z"/><path fill="#3b6927" d="M76.2 23.7l-30.8 3.9 23 8.8-1.4-23z"/><path fill="#b6d89f" d="M32 81l11-5-15-2z"/><ellipse cx="93" cy="82" fill="#3c3a2f" rx="57" ry="5"/><circle cx="104" cy="20" r="3" fill="#293f38"/><ellipse cx="123" cy="76" fill="#af9fae" rx="18" ry="1"/><path fill="#9db762" d="M69 78H57l7-6z"/><path fill="#76747b" d="M101.2 181.1l18.4-13.8 19.2 25.6-18.4 13.8z"/><path fill="#cadbe5" d="M74 16l4-5h-8z"/><path fill="#020203" d="M250 110l-16-18-7 9z"/><path fill="#172012" d="M45.8 10.4l.3 71.5L33 48.2l.1-15.9z"/><path fill="#14130f" d="M189.7 108.9l13.4-8.6-12.8 15.8-12.5-8.7z"/><path fill="#60992b" d="M-16 114.2V89.3l28.1 6.8L-.6 116z"/><path fill="#2a541c" d="M171-7l62 37-54-13z"/><path fill="#648474" d="M183.7-16l29.1 20-45.9-20L165 6.8z"/><path fill="#67606c" d="M26.9 82.7l20.7 9.7-34.3-4.3-1.9-4.7z"/><path fill="#627e3c" d="M174 158l-14-8 9-29z"/><path fill="#74a04e" d="M143.2 53.8L160.9 69 116 79.6l60.3-22z"/><path fill="#eff4f3" d="M138.6 21.2l7.8 15.5L109.2 25l23 20.6z"/><path fill="#72ba2c" d="M198 56h38v7h-38z"/><path fill="#777a62" d="M-16 134.3l30.1-42.6-11.3 55.6 2.4 58.3z"/><path fill="#5e6252" d="M236 89l-21 8-31-10z"/></g></g></svg>