<svg xmlns="http://www.w3.org/2000/svg" viewBox="0 0 1200 683"><defs/><filter id="a"><feGaussianBlur stdDeviation="12"/></filter><rect width="100%" height="100%" fill="#444344"/><g filter="url(#a)"><g fill-opacity=".5" transform="translate(2.3 2.3) scale(4.6875)"><circle r="1" fill="#fff" transform="matrix(205.0152 -12.18015 7.03737 118.45247 116 62.6)"/><circle r="1" fill="#fff" transform="matrix(.17185 100.6666 -203.6694 .34769 122 65)"/><circle r="1" fill="#fff" transform="rotate(92 30.8 77) scale(111.11394 226.22963)"/><circle r="1" fill="#fff" transform="matrix(46.90289 113.25863 -221.42023 91.69498 155.8 43.8)"/><circle r="1" fill="#fff" transform="matrix(-73.05857 -129.20648 49.02858 -27.72274 39 22.3)"/><circle r="1" fill="#fff" transform="rotate(-16.7 205.3 -741.6) scale(66.75287 58.17882)"/><ellipse cx="208" cy="109" fill="#dbdbda" rx="40" ry="25"/><path fill="#cccccb" d="M121 59h18v33h-18z"/><path fill="#dadada" d="M35 90h20v42H35z"/><circle r="1" fill="#fff" transform="rotate(16.3 -391.3 536.4) scale(93.17768 23.18159)"/><ellipse cx="19" cy="113" fill="#717171" rx="26" ry="1"/><path fill="#d8d8d8" d="M103.4 4.7l61.7-3.4-23.3 19.1-26.6.6z"/><circle r="1" fill="#fff" transform="matrix(32.6154 -42.7081 53.80648 41.09103 57 30.6)"/><path fill="#585958" d="M230 143h26v2h-26z"/><ellipse cx="219" cy="136" fill="#fff" rx="255" ry="6"/><ellipse cx="6" cy="125" fill="#656565" rx="21" ry="1"/><ellipse cx="209" cy="89" fill="#8e8e8f" rx="27" ry="1"/><ellipse cx="10" cy="96" fill="#4a4a4a" rx="7" ry="1"/><path fill="#c3c3c3" d="M161 118l21-1-40-9z"/><path fill="#fff" d="M138 80l133 4-23-100z"/><path fill="#a1a1a1" d="M121 5h1v68h-1z"/><ellipse cx="21" cy="90" fill="#9f9f9f" rx="45" ry="1"/><path fill="#fff" d="M39 117L30 10-8 54z"/><ellipse cx="155" cy="50" fill="#aaa" rx="1" ry="41"/><path fill="#8b8b8b" d="M0 101h17v2H0z"/><ellipse cx="46" cy="119" fill="#5e5e5e" rx="8" ry="1"/><path fill="#bfc0bf" d="M132.5 101.9l17.7 12.7-25.2-28-4.8-16.2z"/><path fill="#fff" d="M145.8 57.8l-23 .4-.6-36 23-.4z"/><path fill="#7e7e7e" d="M0 130h12v2H0z"/><ellipse cx="47" cy="96" fill="#626262" rx="8" ry="1"/><path fill="#fff" d="M161-13l66 69-73 34z"/><ellipse cx="250" cy="100" fill="#fff" rx="5" ry="42"/><circle r="1" fill="#fff" transform="rotate(156.4 38.6 57) scale(28.65885 96.65793)"/><path fill="#a9a9aa" d="M166 85h72v1h-72z"/><path fill="#e0e0e0" d="M176.1.6l40.2 26.1L233 55.6l-24-30.1z"/><ellipse cx="78" cy="138" fill="#fff" rx="196" ry="7"/><path fill="#f0f0f0" d="M160 122l-31-65 41 23z"/><circle r="1" fill="#a3a3a3" transform="matrix(-.19423 .98096 -12.48563 -2.47222 0 118)"/><path fill="#afafaf" d="M52.2 132.2l6.2-1.2-17-1.4-5.9 3.1z"/><ellipse cx="33" cy="91" fill="#b7b7b7" rx="31" ry="1"/><path fill="#fff" d="M18 0h19v112H18z"/><path fill="#c5c5c6" d="M178 90h3v41h-3z"/><path fill="#e5e4e5" d="M181 96h65v36h-65z"/><ellipse cx="1" cy="114" fill="#a2a2a2" rx="43" ry="1"/><path fill="#d3d3d3" d="M107 114H89l20 6z"/><path fill="#bfbebc" d="M123 84l9 7 16-7z"/><path fill="#d7d7d7" d="M108 3h18v18h-18z"/><path fill="#fff" d="M5-1l131-15-152 120z"/><ellipse cx="148" cy="6" fill="#b9b9b9" rx="1" ry="55"/><path fill="#fff" d="M155 104h24v11h-24z"/><path fill="#8e8e8e" d="M-5 107.4l.2-1L9 108.6l-.2 1z"/><path fill="#fff" d="M24 117l19 43-3-47z"/><path fill="#cdcdcd" d="M143 109l8 4 3-19z"/><path fill="#939393" d="M36 124h18v2H36z"/><ellipse cx="15" cy="124" fill="#a6a6a6" rx="12" ry="1"/><path fill="#fff" d="M138 6h11v10h-11z"/><path fill="#797979" d="M230 142h6v3h-6z"/><ellipse cx="98" cy="122" fill="#fff" rx="164" ry="2"/><path fill="#fff" d="M0 127h117v3H0z"/><path fill="#b0b0b0" d="M0 96h21v2H0z"/><path fill="#c7c7c7" d="M241 97l-7-1-2-14z"/><path fill="#c6c7c6" d="M244 104h2v26h-2z"/><ellipse cx="50" cy="131" fill="#949494" rx="8" ry="1"/><path fill="#fff" d="M149 63l17 27-38-30z"/><path fill="#c9c8c7" d="M214 98h4v18h-4z"/><path fill="#fff" d="M123 22h24v32h-24zm30.3 124.2l-23.9-59.7 32.3 22.2L36 71.7zM247 42h9v100h-9z"/><circle r="1" fill="#fff" transform="matrix(.53734 -9.74574 69.46833 3.83018 207.4 0)"/><ellipse cx="64" cy="93" fill="#fff" rx="63" ry="2"/><ellipse cx="128" cy="17" fill="#c9c9c9" rx="12" ry="3"/><ellipse cx="4" cy="119" fill="#727272" rx="8" ry="1"/><circle r="1" fill="#fff" transform="matrix(83.45506 -1.51135 .0231 1.27513 22.9 116.7)"/><path fill="#dcdcdc" d="M148 88l13 4-18-23z"/><circle cx="42" cy="102" r="1" fill="#515151"/><ellipse cx="238" cy="130" fill="#c2c3c3" rx="59" ry="1"/><path fill="#c5c5c5" d="M118 4h37v2h-37z"/><ellipse cx="212" cy="128" fill="#fff" rx="29" ry="1"/><path fill="#fff" d="M46.9 97.8l13 .4-.8 20-13-.4z"/><ellipse cx="49" cy="144" fill="#fff" rx="181" ry="13"/><path fill="#aaa" d="M46 106l-4 2 5 1z"/><path fill="#fff" d="M19 69h18v41H19z"/><path fill="#f2f3f3" d="M228 98h16v22h-16z"/><path fill="#e6e6e6" d="M108 11.5h2v51h-2z"/><path fill="#fff" d="M271 6l-59.8-22 57.4 176-22.1-31.2zM0 104h134v3H0z"/><path fill="#d8d8d9" d="M178.8 95.3l-15.9-2.7 2.1 3.5 10.4.7z"/><path fill="#fcfcfc" d="M1 97h2v35H1z"/><path fill="#cbcbcb" d="M205.8 20.5l17 18.3-.6.7-17-18.3z"/><path fill="#fff" d="M134 93l7-6 7 21z"/><path fill="#a8a8a5" d="M125 82.1l-.9.3L121 72l1-.3z"/><path fill="#fff" d="M150 0h4v82h-4z"/><circle cx="130" cy="70" r="3" fill="#bbbbb9"/><path fill="#fff" d="M6 109h42v2H6z"/><path fill="#9f9f9f" d="M38 130h21v2H38z"/><circle r="1" fill="#ccc" transform="matrix(5.3161 -2.27112 .39287 .9196 99.6 115.9)"/><path fill="#fff" d="M11 130l26-8-7 38z"/><path fill="#b2b2b2" d="M146.8 108.4l.7-.7 7.7 8-.7.6z"/><ellipse cx="120" cy="35" fill="#d4d4d4" rx="1" ry="33"/><ellipse cx="40" cy="127" fill="#fff" rx="1" ry="36"/></g></g></svg>