<svg xmlns="http://www.w3.org/2000/svg" viewBox="0 0 1200 843"><defs/><filter id="a"><feGaussianBlur stdDeviation="12"/></filter><rect width="100%" height="100%" fill="#454545"/><g filter="url(#a)"><g fill-opacity=".5" transform="translate(2.3 2.3) scale(4.6875)"><circle cx="130" cy="91" r="163" fill="#fff"/><circle cx="123" cy="93" r="171" fill="#fff"/><ellipse cx="118" cy="67" fill="#fff" rx="255" ry="93"/><circle r="1" fill="#fff" transform="matrix(-226.65454 21.49596 -2.20117 -23.2093 68.6 97.4)"/><path fill="#797972" d="M123 47h65v11h-65z"/><path fill="#acacac" d="M99 122h78v42H99z"/><ellipse cx="249" cy="174" fill="#fff" rx="143" ry="11"/><path fill="#353535" d="M54 139h109v3H54z"/><ellipse cx="161" cy="122" fill="#4d4d4d" rx="126" ry="2"/><ellipse cx="104" cy="162" fill="#3a3a3a" rx="136" ry="2"/><ellipse cy="75" fill="#fff" rx="15" ry="178"/><circle r="1" fill="#fff" transform="rotate(88.3 20.2 30) scale(20.1336 147.03863)"/><ellipse cx="79" cy="31" fill="#b5b3ab" rx="206" ry="5"/><path fill="#fff" d="M125.4 123.1L18.6 138.6l138.8 1 9.7-14.8z"/><ellipse cx="212" cy="105" fill="#292929" rx="31" ry="2"/><ellipse cx="251" cy="125" fill="#fff" rx="7" ry="172"/><ellipse cx="204" cy="140" fill="#363636" rx="20" ry="2"/><circle r="1" fill="#52524e" transform="matrix(-8.15914 2.39791 -1.47983 -5.03528 228.7 51.7)"/><ellipse cx="142" cy="37" fill="#fff" rx="6" ry="132"/><ellipse cx="130" cy="175" fill="#666" rx="68" ry="2"/><circle r="1" fill="#fff" transform="matrix(5.13613 22.60677 -162.96364 37.02443 8.1 109.4)"/><path fill="#141414" d="M188.5 144.5h-3v-29h3z"/><path fill="#f7f7f7" d="M56 141h85v21H56z"/><ellipse cx="22" cy="8" fill="#fff" rx="69" ry="25"/><path fill="#84847c" d="M222 7h23v10h-23z"/><ellipse cx="52" cy="71" fill="#030303" rx="39" ry="1"/><ellipse cx="35" cy="62" rx="19" ry="1"/><path fill="#fffffc" d="M202 0h20v105h-20z"/><path fill="#545453" d="M53 122h3v57h-3z"/><ellipse cx="114" cy="166" rx="1" ry="27"/><path fill="#fff" d="M177 142h40v20h-40z"/><path fill="#737475" d="M160 28h39v8h-39z"/><path fill="#0e0e0e" d="M147 150h2v29h-2z"/><path fill="#fff" d="M57 164h89v10H57z"/><path fill="#4e4e4e" d="M102 125h2v54h-2z"/><path fill="#fff" d="M0 164h52v15H0z"/><path fill="#bdbcae" d="M27 146h30v16H27z"/><path fill="#5b5c5d" d="M13 33h58v3H13z"/><path fill="#070707" d="M186 162h3v17h-3z"/><ellipse cx="108" cy="140" fill="#030303" rx="56" ry="1"/><path fill="#393939" d="M17 170h39v2H17z"/><path fill="#fff" d="M0 72h185v49H0z"/><path fill="#6c6d68" d="M103.1 47.7l2.6 13.8 4-2.8-.4-16.5z"/><ellipse cx="73" cy="177" fill="#212121" rx="2" ry="16"/><ellipse cx="116" cy="122" rx="65" ry="1"/><path fill="#fff" d="M60 124h64v15H60zm72.8-95L-13.8 6.2 193.1-16l-52.7 73.9zM190 164h47v15h-47z"/><path fill="#4b4b4b" d="M238 138h3v34h-3z"/><path fill="#343434" d="M14 133h2v38h-2z"/><path fill="#f4f4f4" d="M177.6 115l-9.7-21 34 22.5 69.1 57.9z"/><path fill="#fff" d="M0 0h15v179H0z"/><path fill="#686868" d="M15 37h2v52h-2z"/><path fill="#fff" d="M0 72h242v33H0z"/><path fill="#908f86" d="M91.7 51l-32.2-9.5.6 7.9 27.8-6.7z"/><ellipse cx="166" cy="162" fill="#151515" rx="73" ry="1"/><path fill="#5c5c5c" d="M152 147h9v16h-9z"/><path fill="#474845" d="M191 9h10v6h-10z"/><path fill="#737472" d="M223.2 33.9l-.4-9 14-.8.4 9z"/><path fill="#fff" d="M0 176h102v3H0z"/><ellipse cx="75" cy="174" fill="#040404" rx="21" ry="1"/><path fill="#777" d="M167 145h10v17h-10z"/><circle cx="127" cy="130" r="4" fill="#434343"/><path fill="#fff" d="M271 149.5l-51.7 13.9 25-18.6L249.9-16z"/><path fill="#676767" d="M168.2 127.4l5.6-1.2 3.5 10.1-12.7-2.4z"/><path fill="#4d4d4d" d="M113 156h3v23h-3z"/><path fill="#57585a" d="M78 28h11v8H78z"/><path fill="#363636" d="M187 101h2v41h-2z"/><path fill="#fff" d="M32 35h29v26H32z"/><circle r="1" fill="#fff" transform="matrix(120.42452 -7.36548 .23308 3.81085 213.2 114.6)"/><path fill="#fdfdfd" d="M187 147l-4-13-31 10z"/><path fill="#343434" d="M199 105h47v2h-47z"/><path fill="#fff" d="M149 176h36v3h-36z"/><path fill="#161616" d="M28.9 132.8l.1 1-11.9 1.4-.1-1z"/><path fill="#fff" d="M56.5 166.9l5.1-20.2-38.7-2 25.5-50.3z"/><path fill="#959489" d="M149 63h54v2h-54z"/><path fill="#fffff3" d="M55 48h49v18H55z"/><circle cx="127" cy="31" r="5" fill="#5c5e5f"/><ellipse cx="53" cy="162" fill="#0b0b0a" rx="38" ry="1"/><path fill="#454545" d="M243 102h2v19h-2z"/><path fill="#605849" d="M26 51h6v6h-6z"/><path fill="#fffffd" d="M-3.5 36.7L112.8 21l-1.9 72 21.4-108.4z"/><path fill="#4b4c4e" d="M70.7 32l-11 1-.4-5 11-1z"/><path fill="#fff" d="M105 174h33v1h-33z"/><path fill="#363636" d="M156 125.4l1 9-3 .2-1-9z"/><path fill="#323232" d="M102 177h13v2h-13z"/><circle r="1" fill="#ffffed" transform="matrix(-16.04428 37.55418 -7.35974 -3.1443 208.1 31)"/><path fill="#fff" d="M241 148h15v31h-15z"/><path fill="#181818" d="M53 59h1v13h-1z"/><path fill="#fffff6" d="M79.8 38.4L72.6-13 66.2 1.5l8.2 59.7z"/><ellipse cx="223" cy="20" fill="#fdfcf2" rx="183" ry="6"/><ellipse cx="61" cy="70" fill="#6e6e6e" rx="31" ry="1"/><path fill="#6b6b6b" d="M219.9 159.1l15.7-8.7-8.6 6.5-4.1 5.8z"/><path fill="#fff" d="M152 164h26v10h-26z"/><ellipse cx="227" cy="122" rx="18" ry="1"/><ellipse cx="164" cy="174" fill="#0e0e0e" rx="17" ry="1"/><path fill="#fffff8" d="M90 24h7v42h-7z"/><ellipse cx="231" cy="111" fill="#fff" rx="45" ry="5"/><path fill="#404040" d="M220 162h22v2h-22z"/><ellipse cx="128" cy="51" fill="#737373" rx="7" ry="6"/></g></g></svg>