<svg xmlns="http://www.w3.org/2000/svg" viewBox="0 0 1200 759"><defs/><filter id="prefix__a"><feGaussianBlur stdDeviation="12"/></filter><rect width="100%" height="100%" fill="#413e3b"/><g filter="url(#prefix__a)"><g transform="translate(2.3 2.3) scale(4.6875)"><circle r="1" fill="#f9fbf7" fill-opacity=".5" transform="matrix(202.98075 -5.16566 2.49644 98.09587 140 75)"/><circle r="1" fill="#6e665b" fill-opacity=".5" transform="matrix(12.73727 -139.95906 40.36128 3.67316 11.6 54.6)"/><circle r="1" fill="#bdbfc0" fill-opacity=".5" transform="matrix(80.15326 -35.62765 22.12692 49.78 148.9 95.5)"/><circle r="1" fill="#586066" fill-opacity=".5" transform="rotate(70.9 1.4 239.5) scale(25.87899 206.36641)"/><path fill="#030000" fill-opacity=".5" d="M13 67h16v17H13z"/><path fill="#80633b" fill-opacity=".5" d="M202.6 2l19-28.2L281.5 14l-19 28.2z"/><circle r="1" fill="#c7c8c6" fill-opacity=".5" transform="matrix(.96957 -10.67731 53.05419 4.81765 176.9 18.8)"/><path fill="#868982" fill-opacity=".5" d="M186 76l-1-34-84 16z"/><ellipse cx="132" cy="31" fill="#5e6661" fill-opacity=".5" rx="42" ry="7"/><circle r="1" fill="#dbe3e7" fill-opacity=".5" transform="rotate(91.4 77.2 132.4) scale(8.57125 21.37828)"/><circle r="1" fill="#917852" fill-opacity=".5" transform="matrix(18.17107 26.39296 -85.03379 58.5442 13 10.3)"/><path fill="#a5a5a0" fill-opacity=".5" d="M28 16h76v90H28z"/><circle cx="163" cy="88" r="34" fill="#babbba" fill-opacity=".5"/><circle r="1" fill="#687280" fill-opacity=".5" transform="matrix(27.7671 5.0379 -6.35017 34.9999 13.8 157.4)"/><path fill="#6f564c" fill-opacity=".5" d="M163.2 38.9L153 48.6l40.8 5.5-26.4 1.1z"/><path fill="#554038" fill-opacity=".5" d="M79 45l-6 8 17 5z"/><path fill="#dae0e1" fill-opacity=".5" d="M203.5 41.7l-23.8-2.8L200 54.8l19.1-2.6z"/><path fill="#666861" fill-opacity=".5" d="M49.3 117.1l19.3-9.3 21.1-8.2 16.1-3z"/><path fill-opacity=".5" d="M106.4 12L94 18.8l-.5-.8 12.3-6.8z"/><path fill="#42484a" fill-opacity=".5" d="M271 114.4l-3.1 8.4 3.1 5.6-57.5 20.3z"/><path fill="#bbbcb7" fill-opacity=".5" d="M141 34l41 38-82-36z"/><path fill="#5d6a67" fill-opacity=".5" d="M113 63l-12-16 48 20z"/><path fill="#8a8f91" fill-opacity=".5" d="M35 80L2 176l-18-87z"/><path fill="#5d635d" fill-opacity=".5" d="M174 45h14v13h-14z"/><path fill="#35241e" fill-opacity=".5" d="M28 65l-18 4 10 26z"/><path fill="#b5986b" fill-opacity=".5" d="M215.7 8.6L67.8 3.4l.5-12 147.9 5.2z"/><path fill="#262f27" fill-opacity=".5" d="M158.2 34.2l-.2-1 27.8-3.4.2 1z"/><path fill="#242e28" fill-opacity=".5" d="M154.6 35l-18.8 7-.4-1 18.8-6.8z"/><path fill="#b3b3ac" fill-opacity=".5" d="M100.1 12.2L5.6 58.1 75.4 4.3l58.7.7z"/><circle r="1" fill="#5f635f" fill-opacity=".5" transform="matrix(-95.57098 29.76705 -.29737 -.95476 15.6 124.6)"/><path fill="#b9bbb8" fill-opacity=".5" d="M87 39l21-12-15 69z"/><path fill="#7b7d81" fill-opacity=".5" d="M38 33h12v69H38z"/><path fill="#b8b7b5" fill-opacity=".5" d="M51.1 87.2l124.6-9.7-24.8 66.5-76.6-96z"/><path fill="#424a45" fill-opacity=".5" d="M119.2 34.4l33.7-7-29.5-2.9 13.7 1.8z"/><path fill="#2f3e39" fill-opacity=".5" d="M156.5 63.2l.5-.8 20.5 12.4-.5.8z"/><path fill="#676c6a" fill-opacity=".5" d="M271 68v99l-43 8z"/><path fill="#91989c" fill-opacity=".5" d="M226.2 166.6l23.4-30.6-30.3 10.9-40.1 29.1z"/><path fill="#4a5b56" fill-opacity=".5" d="M131.7 35.7l-26.9 15.5-.5-.9 26.9-15.5z"/><circle r="1" fill="#a5a9ab" fill-opacity=".5" transform="matrix(-15.96522 -17.24087 36.36648 -33.67573 202.3 111.4)"/><path fill="#afb3b4" fill-opacity=".5" d="M210 6l-31 20 78 24z"/><path fill="#384040" fill-opacity=".5" d="M139.7 185l104.2-51 .4 1-104.2 50.8z"/><path fill="#909292" fill-opacity=".5" d="M54 57l15-35-85 51z"/><path fill="#bac0bf" fill-opacity=".5" d="M132 59L92 43l21-2z"/><ellipse cx="2" cy="20" fill="#7a6b55" fill-opacity=".5" rx="14" ry="40"/><path fill="#a2a5ab" fill-opacity=".5" d="M59.7 111.9l80.6 46.5-16 27.7-80.6-46.5z"/><path fill="#6d7673" fill-opacity=".5" d="M160.1 71.4l11 3-23.3-2.4L124 58.8z"/><path fill="#7f8b86" fill-opacity=".5" d="M91 40.7l22.1-8.1-13.3 8.6 6.6 14.1z"/><path fill="#babab6" fill-opacity=".5" d="M110 7h74v17h-74z"/><circle r="1" fill="#979c9c" fill-opacity=".5" transform="matrix(-31.34365 12.7553 -1.16747 -2.86884 182 160)"/><circle r="1" fill="#565b60" fill-opacity=".5" transform="matrix(5.97246 7.59668 -16.96042 13.33417 13 160)"/><path fill="#8b8f8f" fill-opacity=".5" d="M187 31l84 24-9 21z"/><path fill="#091314" fill-opacity=".5" d="M137 30h36v1h-36z"/><circle cx="21" cy="73" r="9" fill="#3f2d29" fill-opacity=".5"/><path fill="#475b55" fill-opacity=".5" d="M120.5 46.7l19.8 19.8-.8.8-19.8-19.8z"/><path fill="#98866c" fill-opacity=".5" d="M24.4 22.5L53.1-8.2l48.8-7.8-90.1 67.2z"/><path fill="#bec3c1" fill-opacity=".5" d="M135 31h29v2h-29z"/><path fill="#2e1b16" fill-opacity=".5" d="M78.4 49l.8-.5 8.4 12.4-.8.6z"/><path fill="none" stroke="#454b45" stroke-opacity=".5" stroke-width=".5" d="M146.3 34.2q53.7-6.2 72.6 8.2"/><path fill="#57423b" fill-opacity=".5" d="M100.4 29.6l26.9-7.3-34.2 8.1-9.7 9.4z"/><circle r="1" fill="#c1c1bf" fill-opacity=".5" transform="matrix(-17.3589 -6.73308 1.4429 -3.72 125 69.4)"/><path fill="#d4d5d2" fill-opacity=".5" d="M215 55l-13 12-29-10z"/><path fill="#7a7975" fill-opacity=".5" d="M131.2 75.9L112 94.8l-2.3-.8L131 73.6z"/><path fill="#9a9a96" fill-opacity=".5" d="M30 108l2-33-29 42z"/><path fill="#26110d" fill-opacity=".5" d="M109.3 10.5l1 2.8-5.6 2.2-1-2.8z"/><path fill="#cccdcc" fill-opacity=".5" d="M124.3 61.5l-10.4-5-20.1-.9 4.7-.8z"/><path fill="#717476" fill-opacity=".5" d="M46.5 102.7l-6.8-18.5-25.6 62 17.8 1z"/><path fill="#b9baba" fill-opacity=".5" d="M82 106l88-32-36 61z"/><path fill="#434b45" fill-opacity=".5" d="M188.4 30.1v1l-54.8 4.8v-1z"/><ellipse cx="49" cy="160" fill="#91959d" fill-opacity=".5" rx="18" ry="32"/><path fill="#6b6c68" fill-opacity=".5" d="M101.3 97.2l19-9.3.4 1-19 9.2z"/><circle r="1" fill="#96948e" fill-opacity=".5" transform="matrix(-110.17128 34.87728 -.5072 -1.60213 143.3 4.7)"/><path fill="#605e55" fill-opacity=".5" d="M50.8 64.4l-.4-.9 36.8-18 .4 1z"/><path fill="#5d403a" fill-opacity=".5" d="M154 45h12v4h-12z"/><path fill="#383125" fill-opacity=".5" d="M114 24h18v2h-18z"/><path fill="#b4bbb9" fill-opacity=".5" d="M108 33l12-2-12-3z"/><path fill="none" stroke="#495850" stroke-opacity=".5" stroke-width=".5" d="M98.6 41.5q9-10.2 22-15.6"/><path fill="#babcbb" fill-opacity=".5" d="M168 9l58 25-89-11z"/><path fill="#535853" fill-opacity=".5" d="M185 37h15v2h-15z"/><path fill="#b8b7b3" fill-opacity=".5" d="M76.8 43.5l-17.9 9.2 21.4-20.4 41.4 49z"/><path fill="#9fa09c" fill-opacity=".5" d="M37.7 54.3l1.6 6.8-37 8.6-1.6-6.8z"/><path fill="#424847" fill-opacity=".5" d="M269.4 112.7L223.6 176l47.4-71.5-9.4 58.6z"/><path fill="#989ea3" fill-opacity=".5" d="M199 142l36-89 36 62z"/><path fill="#cbcecf" fill-opacity=".5" d="M135 30.4l.4 1L109 43.5l-.5-1z"/><circle r="1" fill="#5f6b65" fill-opacity=".5" transform="rotate(25.5 -56 347.3) scale(14.56895 1)"/><circle r="1" fill="#c1b7ae" fill-opacity=".5" transform="rotate(82.2 60.4 114.3) scale(3.91495 18.49371)"/><path fill="#464f4c" fill-opacity=".5" d="M108.9 60.2l-8.1 1.3 4-3.3L157 70.7z"/><path fill="#50524d" fill-opacity=".5" d="M41.5 116.5l24.7-8 .3 1-24.7 8z"/><path fill="#a2a29c" fill-opacity=".5" d="M250.3 34.7l-11.9 1.4-42.8-18.8 17.1-9.2z"/><path fill="none" stroke="#280f0a" stroke-opacity=".5" stroke-width=".5" d="M100.8 29.7q3-3.8 18.9-4.2"/><path fill="#d1d3d4" fill-opacity=".5" d="M127.7 53.9l.5-1 20.1 11.2-.5 1z"/><path fill="#b8746c" fill-opacity=".5" d="M154 42h15v4h-15z"/><path fill="#1e2823" fill-opacity=".5" d="M115 28h18v2h-18z"/><path fill="#a1a29d" fill-opacity=".5" d="M151.5 63.9l33.4-18.2-20.6 1.2-2.8 7.5z"/><path fill="none" stroke="#b1b3ae" stroke-opacity=".5" stroke-width=".5" d="M106.1 28.8Q173 24 196.2 18.1"/><path fill="#8c8e8a" fill-opacity=".5" d="M9.6 84.5L-16 70.7 24 121l-5.9-36.5z"/><path fill="#6a6760" fill-opacity=".5" d="M172 56.6l10 .7-2.5-1.4-16.2-10.6z"/><path fill="#888887" fill-opacity=".5" d="M55.6 52.4l18.8-27.2-38.5 12.2 5.3 90.1z"/><path fill="#bcb8b2" fill-opacity=".5" d="M159.3 64.2l6.4-13.6-25.8-4.6-3.5 7.5z"/><circle r="1" fill="#838387" fill-opacity=".5" transform="rotate(163.8 66.6 90.2) scale(51.65151 1.81637)"/><path fill="#747975" fill-opacity=".5" d="M198.6 33.9l41.5 15L266.8 60l-27-7.8z"/></g></g></svg>