<svg xmlns="http://www.w3.org/2000/svg" viewBox="0 0 1200 809"><defs/><filter id="a"><feGaussianBlur stdDeviation="12"/></filter><rect width="100%" height="100%" fill="#346938"/><g filter="url(#a)"><g fill-opacity=".5" transform="translate(2.3 2.3) scale(4.6875)"><circle cx="194" cy="118" r="236" fill="#fff"/><circle cx="116" cy="106" r="180" fill="#ffe"/><circle r="1" fill="#8acb50" transform="matrix(33.82986 21.8855 -39.42544 60.9425 93.3 81)"/><circle r="1" fill="#fff" transform="matrix(-7.8747 -36.11667 249.14661 -54.32275 136.4 165.9)"/><ellipse cx="236" fill="#fff" rx="255" ry="24"/><path fill="#7bd123" d="M202.9 33.8l37-.6 1.2 69-37 .6z"/><circle r="1" fill="#97ce64" transform="matrix(-1.95098 21.25198 -78.00872 -7.16138 102.3 35.5)"/><circle r="1" fill="#fff" transform="rotate(-101.2 61.4 74.8) scale(108.86395 24.7731)"/><circle r="1" fill="#fff" transform="matrix(3.89868 -34.31633 230.49349 26.18638 231 0)"/><path fill="#fff" d="M242 0h14v172h-14z"/><path fill="#b0bfb9" d="M35 147l177-53-6 58z"/><circle r="1" fill="#fff" transform="matrix(5.63454 25.59882 -79.33962 17.46338 13.4 0)"/><path fill="#97cc61" d="M49 50h120v21H49z"/><circle cx="130" cy="111" r="36" fill="#d4d4e1"/><circle r="1" fill="#fff" transform="matrix(-1.30349 16.47882 -160.66003 -12.70833 157 171)"/><circle r="1" fill="#e9def0" transform="matrix(13.2032 -5.9408 18.10683 40.24169 33.4 79.2)"/><path fill="#fff" d="M209 104h47v68h-47z"/><path fill="#90d54b" d="M39 145h63l-61-27z"/><circle r="1" fill="#9cd16b" transform="matrix(5.27363 18.73467 -35.60607 10.02276 84.4 98.5)"/><circle r="1" fill="#fff" transform="matrix(-9.39901 .79432 -14.25852 -168.71793 0 100.4)"/><circle r="1" fill="#fff" transform="matrix(158.2581 26.48332 -2.87432 17.17625 211 14.7)"/><path fill="#7fcd31" d="M17 103l14-17H11z"/><path fill="#92c086" d="M202.6 141.4l1.2-68.9 6.9 60.9 2.5 24.2z"/><circle r="1" fill="#fff" transform="rotate(173.8 123.7 38.7) scale(9.65912 94.04047)"/><path fill="#f0e2fe" d="M30 46h158v3H30z"/><path fill="#99d262" d="M37 43L6 27l84-15z"/><path fill="#bdc6da" d="M168 26h36v95h-36z"/><ellipse cx="126" cy="161" fill="#fff" rx="255" ry="10"/><path fill="#82cc3a" d="M5 57h3v34H5z"/><ellipse cx="85" cy="71" fill="#e8dff2" rx="76" ry="2"/><path fill="#f3e0ff" d="M70 4h3v67h-3z"/><path fill="#fff" d="M46.2 17l-63.7 17.1L-24.2 9 39.5-8.1z"/><ellipse cx="97" cy="31" fill="#a2d076" rx="76" ry="13"/><circle r="1" fill="#fff" transform="rotate(-7.7 1059.1 20) scale(14.21508 61.41421)"/><path fill="#f6deff" d="M96 70h2v64h-2z"/><path fill="#a3c1b3" d="M81 126h23v24H81z"/><path fill="#9cd561" d="M205 84h38v20h-38z"/><circle r="1" fill="#fff" transform="rotate(54.8 -9.1 294.3) scale(29.45882 23.93605)"/><path fill="#eee5ed" d="M126 113l-30-4 24 48z"/><path fill="#e5ddec" d="M36 44h15v68H36z"/><path fill="#95d057" d="M152 38h13v36h-13z"/><path fill="#e7dff6" d="M56.9 108.4h-1L49-20.4h1z"/><path fill="#e8e3e2" d="M173.8 111.4l-3.6-67.9 18-1 3.6 68z"/><path fill="#a0d766" d="M56 74h26v76H56z"/><path fill="#a3bcbf" d="M204.8 51l-37.3-7.3 3.7-18.7 37.3 7.3z"/><ellipse cx="68" cy="121" fill="#ffe4ff" rx="34" ry="1"/><path fill="#9cbbb2" d="M103 77h27v33h-27z"/><path fill="#8fb280" d="M81.4 9.8l.2 3-25 1.4-.2-3z"/><path fill="#e2dee1" d="M131 75h36v35h-36z"/><path fill="#fff" d="M229.5 34.3L271-16 55.5 8.1l88.2 13.4z"/><path fill="#8bcd43" d="M6 29h3v30H6z"/><path fill="#f9e5ff" d="M115 9h2v65h-2z"/><ellipse cx="28" cy="164" fill="#fff" rx="112" ry="16"/><ellipse cx="3" cy="61" fill="#fff" rx="3" ry="147"/><path fill="#9ddf45" d="M118.8 104.1l-7.8 1.4-3.8-21.6 7.8-1.4z"/><path fill="#86c74c" d="M14.2 96l3-.6 4.6 26.6-3 .6z"/><path fill="#9cd068" d="M116.3 47.7l-14-32.2-21.6-3.4-8.4 20.2z"/><ellipse cx="161" cy="169" fill="#fff" rx="249" ry="18"/><path fill="#92b1b1" d="M167 72h31v6h-31z"/><path fill="#fff" d="M271 76L237-9l12 151z"/><path fill="#fff" d="M222 165l-15-60 62-1z"/><path fill="#dfdce1" d="M8 32h18v55H8z"/><ellipse cx="168" cy="150" fill="#7eab75" rx="39" ry="1"/><path fill="#efdcff" d="M132.5 28.5v47h-1v-47z"/><ellipse cx="149" cy="91" fill="#aac894" rx="3" ry="17"/><path fill="#a8c0bf" d="M192 35h11v87h-11z"/><ellipse cx="39" cy="119" fill="#89c84f" rx="13" ry="2"/><ellipse cx="144" cy="30" fill="#e2dee8" rx="17" ry="2"/><path fill="#9cd861" d="M26.5 23.6l16 .8-1 20-16-.8z"/><path fill="#fff" d="M-16 34L96-1-16 0z"/><path fill="#a6bebc" d="M113.7 62.7l15.8 64.8-.9 20.3 12.7-.5z"/><path fill="#d7dad9" d="M70 8h4v59h-4z"/><path fill="#83c053" d="M208 130h3v21h-3z"/><path fill="#b2bfdb" d="M85 126h16v17H85z"/><path fill="#dddcde" d="M29 53h21v64H29z"/><ellipse cx="149" cy="60" fill="#f4e5ff" rx="1" ry="35"/><path fill="#99d35c" d="M55 49h16v20H55z"/><path fill="#89d139" d="M101 122h2v24h-2z"/><path fill="#91d14f" d="M6.7 34.5l-1-5.9 17.6-3.1 1 5.9z"/><path fill="#bec7dc" d="M105.2 72.9l-1.7 46.6 7.4-8.9 2.2 19.8z"/><path fill="#fff" d="M63 7l208 33-48-56z"/><path fill="#6aab4c" d="M117 55h11v12h-11z"/><circle r="1" fill="#a0b9bd" transform="matrix(-2.50532 -.1913 2.8348 -37.124 169.3 114)"/><path fill="#ede4e8" d="M173 115h10v35h-10z"/><path fill="#dedce0" d="M20 96h8v47h-8z"/><path fill="#9bd065" d="M117 31h30v16h-30z"/><ellipse cx="55" cy="23" fill="#bbd0b9" rx="3" ry="14"/><path fill="#ebe5e4" d="M135 125h28v16h-28z"/><path fill="#9fd469" d="M58 72h36v46H58z"/><path fill="#a0d46c" d="M243 102l-36-71 33 11z"/><path fill="#8aad9b" d="M19.1 114.5l1.5 2.5-7.7 4.5-1.5-2.5z"/><path fill="#9bb6ba" d="M129 142h38v5h-38z"/><path fill="#fff" d="M113.6 152.3L-16 155.2l29.6-57.6L23.7 149z"/><path fill="#98db48" d="M211 147.3l-7-48.5 1-.1 6.8 48.5z"/><path fill="#d1d4d7" d="M98.4 12.5L134 30.6l-.4 1L98 13.3z"/><path fill="#9ab1c4" d="M27 125h6v21h-6z"/><path fill="#faedeb" d="M193 78h11v8h-11z"/><path fill="#9ad166" d="M19 101h2v29h-2z"/><path fill="#d3d5dc" d="M132 31h2v30h-2z"/><path fill="#92c861" d="M116 18.2l54.4 8.6-.5 3-54.3-8.6z"/></g></g></svg>