<svg xmlns="http://www.w3.org/2000/svg" viewBox="0 0 1200 897"><defs/><filter id="a"><feGaussianBlur stdDeviation="12"/></filter><rect width="100%" height="100%" fill="#505050"/><g filter="url(#a)"><g fill-opacity=".5" transform="translate(2.3 2.3) scale(4.6875)"><circle cx="91" cy="54" r="219" fill="#fff"/><circle cx="104" cy="72" r="201" fill="#fff"/><circle cx="128" cy="72" r="180" fill="#fff"/><ellipse cx="124" cy="12" fill="#fff" rx="255" ry="40"/><ellipse cx="140" cy="179" fill="#fff" rx="221" ry="33"/><ellipse cx="21" cy="103" fill="#919191" rx="46" ry="5"/><path fill="#bababa" d="M245.4 195l-25.1-85 25.4-43.6-.5 38z"/><circle r="1" fill="#c3c3c3" transform="matrix(-42.67755 16.19881 -6.04541 -15.9273 76.6 126.6)"/><circle r="1" fill="#c2c2c2" transform="matrix(1.73122 9.64656 -33.90794 6.0853 149.7 54.4)"/><ellipse cx="63" cy="80" fill="gray" rx="3" ry="31"/><ellipse cx="221" cy="120" fill="#fff" rx="59" ry="15"/><path fill="#b4b4b4" d="M1.4 175.5l-.6-32.7 5.5-51.4 5.6 104.5z"/><path fill="#9a9a9a" d="M87 142h6v38h-6z"/><ellipse cx="179" cy="83" fill="gray" rx="3" ry="19"/><ellipse cx="210" cy="98" fill="#9a9a9a" rx="35" ry="3"/><path fill="#fff" d="M181 14h38v80h-38zM9 0h54v72H9zm97 77h69v26h-69z"/><path fill="#939393" d="M244.5 103.7L233 114.8l12-61.5-.4 31.2z"/><path fill="#ababab" d="M47 84.1l-28.3-6.5L21 68l28.3 6.5z"/><ellipse cx="111" cy="143" fill="#c2c2c2" rx="138" ry="5"/><path fill="#fff" d="M252-16L-16 10l287 49z"/><ellipse cx="166" cy="167" fill="#fff" rx="72" ry="23"/><path fill="#a5a5a5" d="M96 128l16 1-9-51z"/><path fill="#fff" d="M67 52h15v51H67zm177.8-5l1.5 146.4 24.7-6L252.9-16zM8 106h30v30H8z"/><path fill="#cfcfcf" d="M207 35l14 18-50 2z"/><path fill="#ccc" d="M130 106h34v24h-34z"/><path fill="#b8b8b8" d="M220.8 75.2l-.9-17 7.9 8.5-.6 83.9z"/><path fill="#fff" d="M66.3 126.9l159.2 10.8-166.6 1.4 24.8-15.7z"/><ellipse cx="238" cy="158" fill="#989898" rx="2" ry="26"/><circle r="1" fill="#fff" transform="matrix(-33.83238 -1.159 .912 -26.6222 42.6 172.8)"/><path fill="#fff" d="M238.1 54.5L224.4-.3l14.4 90.9-17.8 4.1zM172 104h52v30h-52zm-81.1 3.2l28.2-89.6-6 82.7L92.9 8.6z"/><path fill="#cacaca" d="M8.9 46L-16 63.9l39-16.1 27.7-10.3z"/><ellipse cx="156" cy="49" fill="#fff" rx="39" ry="3"/><path fill="#b2b2b2" d="M39 120v14h34z"/><path fill="#fff" d="M98 147h138v44H98z"/><ellipse cx="143" cy="54" fill="#adadad" rx="26" ry="3"/><path fill="#9d9d9d" d="M238 65h7v39h-7z"/><path fill="#b8b8b8" d="M117 61h54v5h-54z"/><path fill="#afafaf" d="M103 45h45v2h-45z"/><ellipse cx="143" cy="74" fill="#858585" rx="28" ry="1"/><ellipse cx="59" cy="137" fill="#fff" rx="37" ry="2"/><path fill="#696969" d="M0 138h16v2H0z"/><path fill="#fff" d="M258 53l-21 83 34 7z"/><ellipse cx="107" cy="15" fill="#fff" rx="214" ry="25"/><path fill="#b1b1b1" d="M84.5 39.6l8.1-1.9-30.9 18.7 1.9-3.2z"/><path fill="#757575" d="M104.3 110.5l-1.6-31h1l1.6 31z"/><path fill="#ababab" d="M25.5 104.3l-5 .3-2-37 5-.2z"/><path fill="#8b8b8b" d="M82 105h2v31h-2z"/><path fill="silver" d="M224 105h12v41h-12z"/><path fill="#e4e4e4" d="M40 106h42v21H40z"/><path fill="#fff" d="M117 76h8v55h-8z"/><path fill="#8a8a8a" d="M219 94.1v1l-42 .8v-1z"/><path fill="#fff" d="M9 56h9v44H9z"/><path fill="#848484" d="M2 99h9l-7 14z"/><ellipse cx="135" cy="69" fill="#fff" rx="34" ry="4"/><path fill="#9e9e9e" d="M87 55h5v13h-5z"/><ellipse cx="62" cy="102" fill="#a9a9a9" rx="2" ry="35"/><path fill="#838383" d="M55 79l-5-3 11 2z"/><path fill="#bebebe" d="M126 102h6v24h-6z"/><path fill="#acacac" d="M38 66h2v60h-2z"/><path fill="#fff" d="M189 55h31v39h-31z"/><path fill="#848484" d="M221 62h2v22h-2z"/><path fill="#b9b9b9" d="M177 60l-14-18 5-6z"/><ellipse cx="138" cy="86" fill="#b2b2b2" rx="31" ry="1"/><path fill="#fff" d="M34.5 68.7l27.7 9.1L41 38.5l-4.1 57.3z"/><path fill="#a9a9a9" d="M239 140h6v32h-6z"/><circle r="1" fill="#c1c1c1" transform="matrix(.96704 -.25463 10.31228 39.16418 98.5 74.3)"/><path fill="#fff" d="M3 138l-4-77-14 45zm1 46h252v7H4zm64-77l21-65-22 9z"/><path fill="#c8c8c8" d="M1 50h8v55H1z"/><path fill="#b7b7b7" d="M112.2 47.2l-.7-9.7-2-1-4.4 7.5z"/><path fill="#767676" d="M116 76h1v11h-1z"/><path fill="#fff" d="M103 129h66v10h-66zm110-42h26v8h-26z"/><path fill="#c8c8c8" d="M114.9 99.9l1 12.2-36.5-10.7 39.1 35.5z"/><ellipse cx="220" cy="98" fill="#c4c4c4" rx="1" ry="50"/><path fill="#fff" d="M106 89h57v14h-57z"/><path fill="#959595" d="M5 105h3v38H5z"/><path fill="#fff" d="M78 60h3v77h-3z"/><ellipse cx="168" cy="71" fill="#a9a9a9" rx="1" ry="34"/><path fill="#8a8a8a" d="M162 106h2v22h-2z"/><path fill="#fff" d="M10 108h29v23H10z"/><ellipse cx="93" cy="85" fill="#fff" rx="6" ry="18"/><path fill="#fdfdfd" d="M66.5 133l-3-.1 2-28 3 .2z"/><path fill="#c1c1c1" d="M65 105h12v9H65z"/><path fill="#fff" d="M11 53h51v17H11z"/><path fill="#fefefe" d="M228 108h5v26h-5z"/><path fill="#c4c4c4" d="M194.9 48.7l6.3-11.3-.2 4.5-18.6 40.6z"/><path fill="#fff" d="M10 148h76v23H10z"/><path fill="#fefefe" d="M54.3 79.3l-8.4-2.5-.1 23.9 11.4-4.5z"/><path fill="#606060" d="M59 82l6-4-6 1z"/><path fill="#cecece" d="M201.5 102.3l-71 2.4v-1l71-2.4z"/><path fill="#fff" d="M237.9 107.8l17 75.6 16.1-69-28.8-9.6zM178 100h31v34h-31z"/></g></g></svg>