<svg xmlns="http://www.w3.org/2000/svg" viewBox="0 0 1200 772"><defs/><filter id="a"><feGaussianBlur stdDeviation="12"/></filter><rect width="100%" height="100%" fill="#4e5939"/><g filter="url(#a)"><g fill-opacity=".5" transform="translate(2.3 2.3) scale(4.6875)"><circle cx="93" cy="109" r="201" fill="#fff"/><circle cx="155" cy="92" r="59" fill="#001000"/><circle r="1" fill="#fff" transform="rotate(-144.5 33.5 10.2) scale(63.37155 255)"/><circle r="1" fill="#fff" transform="matrix(-52.89995 -229.34308 32.33563 -7.45849 240.7 65.2)"/><ellipse cx="135" cy="15" fill="#fff" rx="255" ry="19"/><ellipse cx="130" cy="163" fill="#fff" rx="255" ry="13"/><circle cx="90" cy="121" r="35" fill="#505020"/><circle cx="46" cy="41" r="57" fill="#fff"/><circle r="1" fill="#fff" transform="rotate(-32.9 357.3 -311) scale(87.26038 24.48926)"/><path fill="#34411d" d="M125 158L109 41l67-16z"/><path fill="#fff" d="M232.8 179L271 .6 107.9-.9l105.6 55.3z"/><ellipse cx="25" cy="110" fill="#fff" rx="33" ry="163"/><ellipse cx="106" cy="159" fill="#fff" rx="255" ry="8"/><path fill="#fff" d="M25 0h81v88H25z"/><path fill="#18341b" d="M104 115h63v37h-63z"/><path fill="#fff" d="M233.3-16l-51.1 72.5-9-27.1L-16 53z"/><path fill="#585f2f" d="M201.9 44l17.5 61.8-11.9 27.7-65.7-77.4z"/><ellipse cx="96" cy="104" fill="#646942" rx="42" ry="16"/><path fill="#fff" d="M271 151l-6-90-75 89z"/><ellipse cx="94" cy="59" fill="#fff" rx="17" ry="29"/><path fill="#fefdff" d="M-16 139l57-95 27 135z"/><circle r="1" fill="#fff" transform="matrix(27.48906 -3.03482 5.65816 51.25096 234.7 55.7)"/><path fill="#434d33" d="M112 47.2l-7.8 44.6 70.6-64.4-52 9z"/><circle cx="190" cy="108" r="27" fill="#535a32"/><path fill="#6a6e49" d="M146 83l76 15-55-74z"/><path fill="#9f916d" d="M97.7 149l9.6-41.1-55-4.8 7.2 30.7z"/><path fill="#fefeff" d="M178 0h78v46h-78z"/><path fill="#fff" d="M55 152h147v12H55z"/><ellipse cx="120" cy="9" fill="#fff" rx="64" ry="26"/><path fill="#45553b" d="M145.9 149.8l-36 2.7L112 42.8l21-10.4z"/><path fill="#384922" d="M75 88l28 1-51 20z"/><circle r="1" fill="#fff" transform="matrix(17.82334 -24.89537 26.10054 18.68615 80.3 53.2)"/><path fill="#91885b" d="M116 52h10v37h-10z"/><path fill="#002009" d="M181.8 53.3l-.8-2.9 21.2-5.7.8 2.9z"/><path fill="#f9f8f9" d="M268.3 166.8l-97.7-15.1 47.9-29.2 1.6-47.2z"/><path fill="#425030" d="M190 92h27v32h-27z"/><path fill="#b8b39c" d="M114 105l6 4-11 18z"/><path fill="#fbfbfc" d="M151.6-16l-133 35.8L30 120.9l41.4-29.7z"/><path fill="#3c4432" d="M180.4 29.7l-75.9 11.7 21.1 15.1-3.2.3z"/><path fill="#2b412a" d="M106.2 151.4l57.3-2.1 1.8-43.4-40.3-.2z"/><path fill="#27350e" d="M58.5 122.4l-4-20.6 1-.2 4 20.6z"/><path fill="#344c25" d="M66 116h37v4H66z"/><circle r="1" fill="#f6d5aa" transform="matrix(.5383 -2.5 4.43885 .95578 106.7 99)"/><path fill="#253925" d="M127 35h23v49h-23z"/><path fill="#656841" d="M219.7 93.9l-45.3 56.7-16.7-50.8 54.8 27.5z"/><path fill="#e8c09b" d="M176 90l-15-3 15-2z"/><circle r="1" fill="#81785b" transform="rotate(29.5 -7 332.1) scale(9.83686 13.17417)"/><ellipse cx="80" cy="98" fill="#bfab7b" rx="11" ry="4"/><path fill="#182e13" d="M68 102h32v4H68z"/><path fill="#293d1f" d="M94.7 103.8l13.5-22.5-11.3 10.5-10-3z"/><path fill="#41543a" d="M146.5 115.2l-39.4 1.8-12 33.5 7.5.9z"/><path fill="#807d58" d="M141 94l-1.3 27.3-6-39.7 9.2-1.7z"/><path fill="#fdfdfe" d="M180.3 48.4l-10-29.3 27.4-9.5 10 29.3z"/><path fill="#c2a979" d="M103 117.1l7.1-9.9-20.1 1.1-5.2 4z"/><path fill="#15341a" d="M166.4 28.9l2.7-1.5 16.5 29.7-2.7 1.5z"/><path fill="#ffd4a7" d="M73 106h6v8h-6z"/><path fill="#e5b58e" d="M68.9 120.5l-13.6 3.8 1.8-.3 4.8-19.8z"/><circle r="1" fill="#f8f8f9" transform="matrix(-15.22863 -49.69266 5.99578 -1.83745 210.4 53)"/><path fill="#133119" d="M216.5 99.1l-13.7-49.3-5-1.9-.6-.4z"/><ellipse cx="92" cy="72" fill="#fff" rx="15" ry="17"/><path fill="#555e3a" d="M219.2 98.8l-15.9 33-28.9 18.2 44.2-55.3z"/><path fill="#4a5834" d="M89.1 128.3l-4.9 1-5.3-27.6 4.9-1z"/><path fill="#939379" d="M63 134h24v18H63z"/><circle r="1" fill="#f0f0f1" transform="rotate(118 85.8 125.4) scale(29.5254 17.49149)"/><path fill="#032111" d="M78.1 88l-21.5 20.8-.7-.7 21.5-20.9z"/><ellipse cx="34" cy="147" fill="#f6f6f7" rx="27" ry="37"/><circle r="1" fill="#f4f4f5" transform="rotate(87.4 -41.2 50.7) scale(19.18204 61.70816)"/><path fill="#fff" d="M65 153h101v10H65z"/><path fill="#78765d" d="M180 99h11v33h-11z"/><path fill="#334828" d="M71 129h33v3H71z"/><path fill="#6e6f43" d="M150 75h17v31h-17z"/><ellipse cx="161" cy="94" fill="#2a4226" rx="54" ry="3"/><path fill="#73734e" d="M193 75l-3-22-43-12z"/><path fill="#15351c" d="M165 48h37v3h-37z"/><path fill="#efcba6" d="M168 37h3v8h-3z"/><ellipse cx="70" cy="115" fill="#3f5626" rx="2" ry="17"/><path fill="#2d4525" d="M108 73l34-4-31-6z"/><path fill="#3c4734" d="M171 26l-40 14 31 4z"/><path fill="#a8a790" d="M96 145l5-12-35-2z"/><path fill="#354829" d="M168.6 150.8l48.6-29.3-4.5-3.8-4.7 5.1z"/><path fill="#ddac85" d="M89 121h15v8H89z"/><circle r="1" fill="#fff" transform="matrix(.80838 -7.67558 9.89488 1.0421 111.8 33.2)"/><circle r="1" fill="#fff" transform="matrix(6.24611 -18.42987 3.11215 1.05475 105.1 67.2)"/><path fill="#233721" d="M168 106h25v4h-25z"/><ellipse cx="132" cy="151" fill="#b9a692" rx="36" ry="1"/><circle cx="200" cy="63" r="3" fill="#c7b295"/><path fill="#384e2d" d="M160 61h18v13h-18z"/><circle r="1" fill="#f8f7f9" transform="matrix(-9.53968 16.86132 -12.96207 -7.33359 210 145.7)"/><path fill="#243a1b" d="M66.4 99.2l-12.3 6.5-.5-.9 12.3-6.5z"/><path fill="#223b1e" d="M114.8 41.5l2 .1-3.6 67-2-.2z"/><ellipse cx="193" cy="100" fill="#304729" rx="3" ry="32"/><path fill="#5d674c" d="M64.2 150.1l-3.1-8.8-5.8-30.1 2.3-.4z"/><path fill="#b8a68d" d="M150 98h6v5h-6z"/><path fill="#7f7b56" d="M167.9 151.9l-3.1-33 7.3 21.7 13.1 3.8z"/><circle cx="121" cy="99" r="3" fill="#a7a495"/><circle r="1" fill="#f7f6f7" transform="matrix(-13.07736 .36144 -.59704 -21.60195 186.8 24.8)"/><path fill="#7e8069" d="M136 95h6v16h-6z"/><path fill="#747051" d="M196 111h14v14h-14z"/><ellipse cx="131" cy="29" fill="#fefdfe" rx="25" ry="5"/><path fill="#767b45" d="M102.3 91.1l4.2-14.6 5.2 3.9-1.1 11.4z"/></g></g></svg>