<svg xmlns="http://www.w3.org/2000/svg" viewBox="0 0 900 1200"><defs/><filter id="a"><feGaussianBlur stdDeviation="12"/></filter><rect width="100%" height="100%" fill="#5c2e2c"/><g filter="url(#a)"><g fill-opacity=".5" transform="translate(2.3 2.3) scale(4.6875)"><circle r="1" fill="#d5f1d2" transform="matrix(128.3768 -135.72671 128.86505 121.8867 85.4 114)"/><circle r="1" fill="#fff" transform="matrix(-3.81272 186.16387 -28.52057 -.58411 9 153.9)"/><path fill="#0e090b" d="M97.9 259l-54 1L42 159l54-1z"/><circle r="1" fill="#3a3024" transform="matrix(-12.47281 -41.31195 65.2719 -19.70675 107 255)"/><path fill="#3e240b" d="M90 70L44 56l2 52z"/><circle r="1" fill="#f2f7ff" transform="matrix(-19.23935 .74869 -5.08134 -130.57747 10.5 165.5)"/><path fill="#8d7e6c" d="M175.8 171.9l-43.9 78.6-60.4-32-30.9-76.2z"/><path fill="#ded7c4" d="M80 75h29v77H80z"/><path fill="#090c10" d="M157 271H42l7-69z"/><path fill="#8a764e" d="M199.9-15.7l8.5 81.5-132.3 14-8.5-81.6z"/><ellipse cx="135" cy="126" fill="#bbc8ca" rx="11" ry="51"/><ellipse cx="53" cy="141" fill="#654e39" rx="9" ry="69"/><path fill="#a9abb1" d="M78 181h18v45H78z"/><circle r="1" fill="#a3b0c3" transform="matrix(16.33854 36.83634 -21.94752 9.7347 191 212.2)"/><path fill="#fff" d="M96 91h13v24H96z"/><path fill="#605331" d="M88 129l-16 11V86z"/><circle r="1" fill="#494531" transform="matrix(-5.61013 -6.42124 22.00584 -19.22612 96 164.3)"/><circle r="1" fill="#89785d" transform="matrix(.69278 56.70179 -28.05986 .34283 173.8 117.3)"/><ellipse cx="36" cy="72" fill="#bbae8f" rx="7" ry="251"/><circle r="1" fill="#b69f60" transform="matrix(23.20235 -3.74593 5.10838 31.64143 52.2 26.5)"/><circle r="1" fill="#e6e9ff" transform="rotate(8.7 -1461.8 156.4) scale(19.71782 88.08206)"/><circle r="1" fill="#44392a" transform="matrix(.82497 2.63248 -62.13633 19.47235 142.2 53.6)"/><path fill="#d2dabc" d="M64 89h7v66h-7z"/><ellipse cx="139" cy="204" fill="#826f56" rx="25" ry="33"/><path fill="#7a653d" d="M110 88h7v82h-7z"/><ellipse cx="86" cy="147" fill="#e9f6f6" rx="6" ry="11"/><path fill="#988c88" d="M94 164h20v71H94z"/><path fill="#8c806c" d="M99 116h27v39H99z"/><circle r="1" fill="#dde0d9" transform="matrix(15.10664 2.6226 -.70493 4.06052 172 184)"/><path fill="#aa9a79" d="M171.2 40.5L108.4 61l-9.6-29.4L161.6 11z"/><path fill="#dbd7c8" d="M31 120l-48 1-2-107 48-1z"/><path fill="#594d31" d="M68 120h18v14H68z"/><path fill="#271b17" d="M100 158h6v21h-6z"/><path d="M91 166l-11-2 11 13z"/><path fill="#473e2e" d="M183 40h3v134h-3z"/><path fill="#424544" d="M182 189h2v67h-2z"/><ellipse cx="37" cy="140" fill="#c5bcaa" rx="6" ry="81"/><path fill="#d8e4f2" d="M91.2 182.8l1.2 7.3-3.1 2.7-11-1.9z"/><path fill="#645037" d="M75 65h3v158h-3z"/><path fill="#9a8351" d="M90.8 94.1l3.6 56.3.9-55.2.7-20.5z"/><path fill="#d7d9c6" d="M94 99L79 85l1 37z"/><path fill="#0d0e10" d="M44 197h6v50h-6z"/><path fill="#85786f" d="M43 79h5v119h-5z"/><path fill="#b7bec5" d="M136.4 130.5l10 9.4 1.1 33.7-21.6-6.9z"/><path fill="#795f2e" d="M103 90l-11-6 24 2z"/><circle cx="108" cy="79" r="8" fill="#bfc0bc"/><ellipse cx="175" cy="210" fill="#c3c9d8" rx="5" ry="19"/><path fill="#c9d4dd" d="M94 164h5v14h-5z"/><path fill="#fff" d="M95 90h11v16H95z"/><path fill="#f4f3f9" d="M109 178v-11l-5 3z"/><ellipse cx="35" cy="239" fill="#8c8b97" rx="6" ry="37"/><circle r="1" fill="#615140" transform="matrix(11.05815 24.1928 -12.43616 5.68437 61.4 192.6)"/><path fill="#79765e" d="M123.8 89.7l.2 70.3-9.9-83.4 16.3-4.8z"/><path fill="#634f3a" d="M94.7 190.2l15.8-5 7.4-6.1-28.7 6.1z"/><path fill="#434623" d="M82 158h31v8H82z"/><path fill="#c5c3ac" d="M81.8 133.6h1l-4.6 52.8h-1z"/><path fill="#383330" d="M154 267l-89-9 27-30z"/><path fill="#bdaf87" d="M31 37h12v83H31z"/><path fill="#625039" d="M43 66h38v23H43z"/><path fill="#b0a38a" d="M102 223.3l-25.8-8.9 15.6 14.5 26.8 10.4z"/><path fill="#83745c" d="M147.5 149.6l-1 28.1 60.5-1.9v-3.4z"/><circle r="1" fill="#8e7a53" transform="matrix(-23.65996 -19.19171 6.78669 -8.36678 79.2 22)"/><path fill="#6a6664" d="M110 228l-23-35-6 18z"/><path fill="#fffff3" d="M105 92h5v20h-5z"/><path fill="#858d9a" d="M173.1 228.7l33.9 24.2-27.6 17.3L168 232z"/><path fill="#fdf0ed" d="M97 114h2v41h-2z"/><path fill="#a08f73" d="M151 159l-3-104 36 3z"/><ellipse cx="57" cy="116" fill="#6a543e" rx="4" ry="58"/><path fill="#c3cbc0" d="M61 139h11v18H61z"/><path fill="#877960" d="M72 108h8v79h-8z"/><path fill="#1e1c1c" d="M87 227l-44 24 4-45z"/><path fill="#5d5348" d="M111.8 119.6l-7.2-5.2-3.8 1.9 6.1 5.8z"/><path fill="#b6a579" d="M34.9 13.9l-5.8 39.4L78 64.6l8.9-1.3z"/><path fill="#5d5f65" d="M180 189h12v8h-12z"/><ellipse cx="191" cy="97" fill="#939496" rx="5" ry="55"/><path fill="#736451" d="M154 204l-31 46 49-23z"/><path fill="#ebcba6" d="M99 185h8v7h-8z"/><path fill="#907b51" d="M92.3 113.5l-.6-31h4l.6 31z"/><path fill="#615949" d="M140 246h42v10h-42z"/><path fill="#584750" d="M105.5 165.4l.7 8.5-12.7.5 21.5-13.8z"/><path fill="#ecdcd0" d="M109 132v-10l-6 8z"/><path fill="#2a251a" d="M115.1 63l-.3-1 108-33 .4 1z"/><path fill="#d0d9f6" d="M10 219h21v37H10z"/><path fill="#f9ffff" d="M80 152h3v6h-3z"/><path fill="#817050" d="M91.4 36.2L73.7 11.9 133 3.1l-19.9-17.2z"/><path fill="#c5b2a4" d="M111 185h4v28h-4z"/><path fill="#a5a89a" d="M125 77h22v48h-22z"/><ellipse cx="23" cy="125" fill="#dddddf" rx="7" ry="55"/><path fill="#c8cab9" d="M87 86h5v70h-5z"/><path fill="#12120d" d="M114.4 246.9l3.7 21 10.6 3.1 8-14.3z"/><path fill="#161220" d="M81 165h10v13H81z"/><path fill="#b3afa9" d="M30 141h13v74H30z"/><ellipse cx="175" cy="186" fill="#f9fcff" rx="8" ry="2"/><circle r="1" fill="#d9d4c8" transform="matrix(-16.43089 3.31723 -6.30473 -31.22859 12.2 60.7)"/><path fill="#645846" d="M202.3 46.2l-21.6.2-28.7.7 55-18.4z"/><path fill="#8c8d88" d="M85 13l50-29L58-5z"/><path fill="#3b2c23" d="M108 179h2v18h-2z"/><path fill="#867361" d="M55 107l-12 5 6-30z"/><ellipse cx="132" cy="194" fill="#908069" rx="14" ry="25"/><circle r="1" fill="#64563d" transform="matrix(.76709 -3.30391 19.27771 4.4758 60 63.8)"/></g></g></svg>