<svg xmlns="http://www.w3.org/2000/svg" viewBox="0 0 1200 828"><defs/><filter id="a"><feGaussianBlur stdDeviation="12"/></filter><rect width="100%" height="100%" fill="#273e53"/><g filter="url(#a)"><g fill-opacity=".5" transform="translate(2.3 2.3) scale(4.6875)"><path fill="#d6c9b4" d="M248-16L-16-1l127 132z"/><circle r="1" transform="matrix(42.03921 -35.68894 63.87312 75.2383 214 130.7)"/><ellipse cx="33" cy="106" rx="53" ry="21"/><circle r="1" fill="#cdc9c8" transform="rotate(152.8 40.3 22.4) scale(28.35583 45.57346)"/><path fill="#d4bfa5" d="M135 71h24v42h-24z"/><ellipse cx="42" cy="77" fill="#f2deb8" rx="30" ry="8"/><ellipse cx="196" cy="25" fill="#a2b1af" rx="28" ry="36"/><circle cx="220" cy="133" r="61"/><path fill="#7e7359" d="M9 143h127v28H9z"/><path fill="#132a2b" d="M119 27h31v44h-31z"/><circle cx="233" cy="36" r="40" fill="#5c6b5d"/><path fill="#e0d2b7" d="M138 160h29v11h-29z"/><path fill="#ffffc2" d="M167 68h4v37h-4z"/><path fill="#494f3a" d="M57 62.6L12 84.5l-17-35 45-22z"/><circle r="1" fill="#182320" transform="matrix(2.32468 3.30769 -49.78375 34.9886 117.5 79.5)"/><path fill="#131803" d="M0 90h76v55H0z"/><path d="M0 153h92v7H0z"/><circle r="1" fill="#000520" transform="rotate(92.8 55 62) scale(7.86769 11.46551)"/><path d="M198 50l-51 5 12 22z"/><path fill="#7a8d50" d="M87 99l53 33-61 2z"/><path fill="#ad9a83" d="M189 83l1-44 31-1z"/><ellipse cx="81" cy="173" rx="172" ry="3"/><path fill="#8f8e8a" d="M12.3 123.5l35.4 7-47.1 6.3 6.8-12.9z"/><path fill="#e5d5c8" d="M169 0h15v51h-15z"/><path fill="#91a3af" d="M77.2 20.6L-5.5 45.1l19.4-30.3L77.7-16z"/><circle r="1" fill="#acb9b8" transform="rotate(-119.4 84.7 -15.5) scale(5.4135 24.34969)"/><circle r="1" fill="#b2b7b4" transform="rotate(179.1 50.2 74.6) scale(28.03247 4.05499)"/><path fill="#020900" d="M259 72l-157 65 169 48z"/><path fill="#cbcfd3" d="M257 74l-11-1.3 3-24.8 11 1.4z"/><path fill="#001118" d="M-.9 3.7L9.7 5.6l.9-9.5-2.1 41.2z"/><path fill="#9d9e9d" d="M6 144h63v7H6z"/><circle r="1" fill="#fffbf1" transform="matrix(-.03576 4.95033 -13.03524 -.09417 54 73.8)"/><path fill="#51643e" d="M86.9 131L154 96.6 134.6 164l-9.2-26.9z"/><path d="M79 158h18v18H79z"/><path fill="#025fa2" d="M208.1 27.9L196 23.1l-4-14.9 22.6 1.6z"/><path fill="#19476d" d="M160 0h10v49h-10z"/><path fill="#cebec6" d="M151 23l-1-39-26 41z"/><ellipse cx="79" cy="140" fill="#0a1108" rx="112" ry="5"/><path fill="#7f7668" d="M58 86.6l10.5-18.2 29.5 17-10.5 18.2z"/><path fill="#909c98" d="M149 154h22v16h-22z"/><path d="M158 61h8v75h-8z"/><path fill="#afafaf" d="M48 160h30v10H48z"/><path fill="#b1907f" d="M156.7 68.6l-34.5 9.5-36.3 35.5 45.3 5.1z"/><path fill="#575b4e" d="M16.1 58.6L-16 72.3l75.5-7-2.7-19.5z"/><path fill="#001419" d="M118 26h31v9h-31z"/><path fill="#fbf5e3" d="M6 143h2v27H6z"/><ellipse cx="122" cy="156" fill="#001104" rx="24" ry="4"/><path fill="#9fa39f" d="M98 160h34v10H98z"/><path fill="#c3e1fa" d="M88.6 95l2 .2-3.2 29.8-2-.2z"/><circle r="1" fill="#0e1b13" transform="matrix(-9.87728 17.70679 -37.3752 -20.8488 47.6 108.6)"/><path d="M2 153h70v7H2z"/><path fill="#cfc7bf" d="M73 21h34v32H73z"/><path fill="#a9a59f" d="M25.8 75l-13.7 3.1L13 63l-29-3.2z"/><path fill="#34433d" d="M218 8h30v74h-30z"/><path fill="#000300" d="M111 156h5v20h-5z"/><ellipse cx="167" cy="85" fill="#ffb17d" rx="2" ry="19"/><path fill="#c5c4c3" d="M76 142h9v11h-9z"/><path fill="#030400" d="M192.6 139.3l-7.4-95.6-15.4 12.2 2.9 79.4z"/><path fill="#b8b2a0" d="M141 70l17 42-1-38z"/><path fill="#acb0b0" d="M48 140h7v12h-7z"/><ellipse cx="144" cy="129" fill="#111b12" rx="2" ry="39"/><path d="M44 154l6 10-9 4z"/><ellipse cx="3" cy="140" fill="#000500" rx="3" ry="32"/><path fill="#293a39" d="M35 31L-4 57l55 6z"/><path fill="#fff" d="M36.6 5.7v-1l26.8-2.4v1z"/><path fill="#b2b2b9" d="M112.8 153.5l18-6.3 6.8 4.4-1.6-9.1z"/><path fill="#010807" d="M20 94h6v82h-6z"/><path fill="#2c3021" d="M201 52h17v38h-17z"/><path fill="#000203" d="M57 194.8l-2 .2-6-83.8 2-.2z"/><ellipse cx="24" cy="169" fill="#d6d7d3" rx="36" ry="1"/><path fill="#bebdba" d="M25 127h13v8H25z"/><path d="M93 75h2v26h-2z"/><path fill="#c2bcba" d="M169 0h55v9h-55z"/><ellipse cx="95" cy="63" fill="#928d89" rx="34" ry="11"/><path fill="#dee0de" d="M22 142h2v14h-2z"/><path fill="#6b7c84" d="M25.8 38.7L25.6-16 7.9 43.7l18 .3z"/><path fill="#c1d2e6" d="M212 6h4v22h-4z"/><path fill="#fff" d="M67.5 152.5l-1-.2 2-12.8 1 .2z"/><path fill="#c5aab5" d="M141 11h25v8h-25z"/><path fill="#5b8453" d="M94 114.6l52.3 17.9.2 8.8-56.4-18.2z"/><ellipse cx="71" cy="140" fill="#091212" rx="3" ry="24"/><ellipse cx="13" cy="131" fill="#000404" rx="2" ry="21"/><path fill="#939b9c" d="M17.2 17.5l86.6-.1-55.3 40.1-1.6-14.6z"/><path fill="#091d20" d="M51 48h7v16h-7z"/><circle cx="237" cy="90" r="19" fill="#000604"/><path fill="#000400" d="M101 156h3v20h-3z"/><path fill="#b5af9f" d="M24.2 60l52.9 29.8-50.1-13 53.2-1z"/><path fill="#e1e3e2" d="M10 161h11v6H10z"/><path fill="#767065" d="M208 48l-19 15h-16z"/><path fill="#24342b" d="M84 111l-54-5 55-21z"/><ellipse cx="54" fill="#213647" rx="21" ry="2"/><path fill="#57686f" d="M236 70.9l-19.3 10.6 11-18.4 18.4-50.3z"/><path fill="#112012" d="M119.7 145.8l-96.3-7.2 59 1.8 28.1-14.8z"/><circle r="1" fill="#969a98" transform="rotate(-57.8 123.3 52.8) scale(4.04339 9.0323)"/><path d="M181 57l-57 15 36-22z"/><path fill="#d1d4d3" d="M48 141h9v6h-9z"/><circle cx="135" cy="162" r="5"/><path fill="#636a62" d="M274 13.6l-61-2.2 1-25 61 2.2z"/><path fill="#5e6a68" d="M64 128h35v6H64z"/><path fill="#f8b079" d="M189 66l5 7-3 8z"/></g></g></svg>