<svg xmlns="http://www.w3.org/2000/svg" viewBox="0 0 900 1200"><defs/><filter id="a"><feGaussianBlur stdDeviation="12"/></filter><rect width="100%" height="100%" fill="#444"/><g filter="url(#a)"><g fill-opacity=".5" transform="translate(2.3 2.3) scale(4.6875)"><circle r="1" fill="#dfdfdf" transform="rotate(-60.6 133.8 -67.6) scale(90.86761 191)"/><circle r="1" fill="#fff" transform="rotate(-91.1 57.7 -24.4) scale(71.96599 34.77828)"/><circle r="1" fill="#cdcdcd" transform="rotate(164.4 -8.7 84) scale(36.12272 77.61181)"/><circle r="1" transform="matrix(2.13226 76.33605 -37.67738 1.05242 85.9 212.5)"/><circle r="1" fill="#adadad" transform="rotate(176.8 80.3 123.4) scale(27.41674 119.49166)"/><circle r="1" fill="#3e3e3e" transform="rotate(2.2 -3917.4 3366.8) scale(12.46432 190.99998)"/><ellipse cx="40" cy="52" fill="#2f2f2f" rx="8" ry="115"/><ellipse cx="93" cy="126" rx="4" ry="32"/><ellipse cx="62" cy="159" fill="#5b5b5b" rx="29" ry="38"/><circle r="1" fill="#f0f0f0" transform="rotate(8.5 -329.7 531.1) scale(25.78975 37.02673)"/><circle r="1" transform="rotate(80.5 -79 163.2) scale(33.95032 26.6428)"/><path fill="#6c6c6c" d="M-18.3-27.7l69 2.4-2.4 69-69-2.4z"/><path fill="#adadad" d="M100 0h14v178h-14z"/><ellipse cx="58" fill="#fff" rx="10" ry="66"/><circle cx="174" cy="200" r="38" fill="#8e8e8e"/><path fill="#cecece" d="M86 152L46 78l46 48z"/><circle r="1" fill="#fff" transform="matrix(-8.50874 -19.18194 4.4496 -1.97375 76.8 92)"/><circle r="1" fill="#757575" transform="matrix(-13.73894 18.4995 -56.05643 -41.63118 191 24.7)"/><ellipse cx="95" cy="149" rx="4" ry="42"/><circle r="1" fill="#a2a2a2" transform="matrix(9.10701 60.30181 -28.06053 4.2378 2.9 120.4)"/><circle r="1" fill="#bbb" transform="matrix(-7.51331 63.95779 -17.3265 -2.0354 104 40.5)"/><ellipse cx="38" cy="79" fill="#262626" rx="7" ry="30"/><path fill="#727272" d="M-7.2 240.8l44.6-50.4L49 94.5l-2 150.3z"/><path d="M32.9 59.3l.7-.7 59.5 66.1-.7.7z"/><ellipse cx="135" cy="208" fill="#656565" rx="13" ry="75"/><ellipse cx="69" cy="31" fill="#a1a1a1" rx="4" ry="63"/><path fill="#474747" d="M94.2 177.2l-62.7-27.4 2.2-25.5 22.8-10.4z"/><path fill="#fff" d="M74 29h12v65H74z"/><path fill="#090909" d="M48 208h74v43H48z"/><path fill="silver" d="M94 11h31v41H94z"/><path fill="#d8d8d8" d="M47 98.6l4.8-15.5 14.7 23.5-.7 18.7z"/><path fill="#595959" d="M112 142h28v52h-28z"/><path d="M91 105h6v119h-6z"/><circle r="1" fill="#787878" transform="matrix(-22.38317 11.20865 -24.4948 -48.91498 16 0)"/><ellipse cx="163" cy="129" fill="#979797" rx="25" ry="118"/><ellipse cx="118" cy="121" fill="#333" rx="2" ry="70"/><path fill="#fefefe" d="M49 0h9v77h-9z"/><circle r="1" fill="#fff" transform="matrix(6.13379 -2.13882 3.57619 10.25591 80.6 98.2)"/><path fill="#909090" d="M-3.7 97l25.3 31.4 24.8-5-3.7-15.8z"/><path fill="#5e5e5e" d="M82 113.4l-12.7 51.8 21.6 13-10-24.2z"/><path fill="#b7b7b7" d="M86 73h28v32H86z"/><ellipse cx="80" cy="141" fill="#1c1c1c" rx="1" ry="32"/><path fill="#8c8c8c" d="M14 155h31v33H14z"/><circle r="1" fill="#333" transform="rotate(58.2 -129.8 149.5) scale(23.08789 17.92432)"/><path fill="#444" d="M139-16h-19l17 63z"/><ellipse cx="13" fill="#5d5d5d" rx="36" ry="13"/><circle cx="97" cy="197" r="17"/><circle r="1" fill="#5c5c5c" transform="rotate(111.8 13.6 185.7) scale(42.84863 9.99734)"/><path fill="#919191" d="M94 110.5l22.2 18.8-19.6 8.2 4.2-31.7z"/><path fill="#bbb" d="M90.5 141.3l-.1 4.4-4.1 3.2 5.4-15.7z"/><path fill="#fff" d="M70 112l2-7 8 8z"/><path fill="#3d3d3d" d="M55 91h2v66h-2z"/><path fill="#9a9a9a" d="M101.1-16l36.8 10-70.8 8.1-.3 17.7z"/><ellipse cx="135" cy="96" fill="#373737" rx="2" ry="197"/><path fill="#8a8a8a" d="M0 24h46v26H0z"/><ellipse cx="30" cy="80" fill="#b9b9b9" rx="2" ry="58"/><path fill="gray" d="M-3 235l47-81v88z"/><path fill="#a6a6a6" d="M149 69h29v43h-29z"/><path fill="#707070" d="M166.3-13.3l54.4 45.6-11 13L155.3-.3z"/><ellipse cx="110" cy="147" fill="#888" rx="6" ry="29"/><path fill="#141414" d="M68 100h1v37h-1z"/><path fill="#2f2f2f" d="M32 125h13v26H32z"/><circle r="1" fill="#848484" transform="matrix(13.75326 10.59144 -31.59894 41.03205 175.8 213)"/><path d="M46.4 75.6l.7-.7 28.5 29.5-.7.7z"/><path fill="#5f5f5f" d="M32 48h4v91h-4z"/><circle r="1" fill="#696969" transform="matrix(3.99185 -2.94305 22.30106 30.24842 66.8 148.9)"/><ellipse cx="97" cy="182" fill="#010101" rx="5" ry="20"/><ellipse cx="62" cy="255" fill="#333" rx="35" ry="9"/><path fill="#fff" d="M85 49v62L72 94z"/><path fill="#010101" d="M51 202h63v18H51z"/><path fill="#cacaca" d="M74.1 78.9L85.4 39 69.1 96.8l-24-24.9z"/><ellipse cx="142" cy="50" fill="#818181" rx="4" ry="60"/><path fill="#777" d="M29 51L12 7l34-5z"/><path fill="#e3e3e3" d="M49 86h6v23h-6z"/><ellipse cx="127" cy="203" fill="#696969" rx="5" ry="250"/><ellipse cx="119" cy="202" fill="#292929" rx="2" ry="89"/><ellipse cx="114" cy="169" fill="#828282" rx="2" ry="29"/><circle cx="87" cy="155" r="6" fill="#232323"/><ellipse cx="45" cy="109" fill="#616161" rx="3" ry="97"/><path fill="#b3b3b3" d="M110 0h14v55h-14z"/><path fill="#303030" d="M84 190.8l-.5 15-38.7-10.3 37.5-27z"/><path fill="#111" d="M78.4 106L98 130.1l-2.3 1.9L76 107.9z"/><ellipse cy="147" fill="#9f9f9f" rx="12" ry="64"/><ellipse cx="114" cy="80" fill="#b9b9b9" rx="2" ry="37"/><path fill="#959595" d="M102.8 160.8l13.8-8.3-20.5-45.1 1.6 25.1z"/><path fill="#6a6a6a" d="M119 56h16v96h-16z"/><path fill="#050505" d="M94 123l-3-10-6 4z"/><circle cx="159" cy="119" r="5" fill="#666"/><path fill="#333" d="M34.7 246.2l-2.4-.2-44.6-9.6 33.5 4.7z"/><path fill="#5a5a5a" d="M117 53h5v75h-5z"/><path fill="#a6a6a6" d="M91 136l-10-15 7 32z"/><circle r="1" fill="#191919" transform="matrix(36.81783 23.45555 -6.2952 9.88148 86 238)"/><path fill="#383838" d="M36 58h10v48H36z"/><path fill="#e5e5e5" d="M88.8 114.3l3.2-3.6-23.8-17.3L83.4 112z"/><path fill="#525252" d="M105.4 122.3l7.9 1.4-.7 4-7.9-1.4z"/><path fill="#929292" d="M92 162l-7 4-3-3z"/><path fill="#303030" d="M154.8 256.9l21.4 1.4-45.2 3 2.3-10.2z"/><ellipse cx="95" cy="150" fill="#020202" rx="3" ry="25"/><path fill="#7d7d7d" d="M33 158h12v88H33z"/><path fill="#f6f6f6" d="M52.4 42.9l-3.7 21.3 2.2-77.8L75.7-16z"/></g></g></svg>