<svg xmlns="http://www.w3.org/2000/svg" viewBox="0 0 1200 813"><defs/><filter id="a"><feGaussianBlur stdDeviation="12"/></filter><rect width="100%" height="100%" fill="#3c4c64"/><g filter="url(#a)"><g fill-opacity=".5" transform="translate(2.3 2.3) scale(4.6875)"><circle r="1" fill="#fff" transform="matrix(254.9863 2.64369 -.9541 92.02422 124.4 64)"/><circle r="1" fill="#fff" transform="matrix(218.88833 4.96727 -2.18424 96.25077 113.5 55.2)"/><circle r="1" fill="#fff" transform="rotate(-176.6 84.8 14.2) scale(255 116.93496)"/><ellipse cx="144" cy="159" fill="#5e503a" rx="167" ry="10"/><circle cx="133" r="133" fill="#fff"/><ellipse cx="51" cy="121" fill="#eaeae6" rx="255" ry="30"/><ellipse cx="17" cy="92" rx="2" ry="30"/><path d="M31 151h198v2H31z"/><path fill="#fff" d="M232 0h24v151h-24z"/><path fill="#808581" d="M177.5 129.1l-96.6 8.1 75-.5 79-.1z"/><circle cx="152" cy="10" r="94" fill="#fff"/><path d="M228 113l1 19 3-13z"/><path fill="#fff" d="M0 0h16v151H0z"/><path fill="#65615b" d="M-16 186.7l6.8-23 165.3-19L271 173.9z"/><path d="M227 93l4 3-1 9z"/><ellipse cx="115" cy="135" fill="#9fa69f" rx="115" ry="2"/><ellipse cx="111" cy="26" fill="#fff" rx="253" ry="44"/><path fill="#f8fbf7" d="M16 138h71v12H16z"/><path fill="#fff" d="M268.4 147.4L233.8-16l-1.1 168.5-56.9-17z"/><path d="M16 73h3v38h-3z"/><path fill="#b3bcc0" d="M86 142h72v9H86z"/><path fill="#fff" d="M251 111l-84-6 28 26z"/><ellipse cx="91" cy="103" fill="#aeaeaf" rx="45" ry="2"/><path d="M228 117h3v17h-3z"/><path fill="#b0afae" d="M48 55h25v5H48z"/><path fill="#979490" d="M62 130h19v6H62z"/><ellipse cx="200" cy="101" fill="#b7b7b8" rx="27" ry="3"/><path fill="#06090d" d="M175.8 151.4l-56.9-.4-12.1 2.7 85.8-1z"/><ellipse cx="180" cy="133" fill="#141011" rx="19" ry="1"/><path fill="#fff" d="M19 74h103v29H19zm-1 69h-34L3 17z"/><path fill="#ababab" d="M135.6 97.3l-.2-3 29-1.6.2 3z"/><circle r="1" fill="#060504" transform="rotate(83.3 59 179.4) scale(5.74156 1)"/><path fill="#595958" d="M-14.7 146.1L17.7 188l173-35.3-131 3.3z"/><path fill="#fff" d="M160 0h96v95h-96z"/><ellipse cx="144" cy="172" fill="#5b5a5a" rx="255" ry="20"/><path fill="#fff" d="M45 131l-5-20-56 19zm185.3-11.9l-5.7-3.4L269 34.8l2 134.1z"/><path fill="#faf9f9" d="M215 74h13v60h-13z"/><path fill="#7e8488" d="M107 143h10v7h-10z"/><path fill="#f5f5f6" d="M160.1 136.4l-17.8 7.3 21.3-12.3-43.9-14.5z"/><ellipse cx="71" cy="72" fill="#d1d0d0" rx="3" ry="26"/><ellipse cx="105" cy="152" fill="#222322" rx="103" ry="2"/><path fill="#e0e1e1" d="M121 99h12v52h-12z"/><ellipse cx="74" cy="22" fill="#fff" rx="255" ry="32"/><path fill="#5a5a5a" d="M25 153h231v20H25z"/><ellipse cx="180" cy="149" fill="#a5aeb2" rx="38" ry="2"/><path d="M17.5 105.5l2 12.8-1 .2-2-12.8z"/><path fill="#a1a1a2" d="M32 103h43v2H32z"/><ellipse cx="179" cy="140" fill="#fff" rx="55" ry="3"/><path fill="#fff" d="M15 141.1l22.9 3.3-53.9-1.1L12.3 41.9z"/><path fill="#838382" d="M187.2 136.7l-.3-3 23.9-2.4.3 3z"/><ellipse cx="188" cy="94" fill="#fff" rx="20" ry="7"/><path fill="#fffffd" d="M271 146.6l-58 .6 26.3 4.4-10.3-10.9z"/><path fill="#fff" d="M184 142h14v7h-14z"/><path fill="#848484" d="M199 99h20v2h-20z"/><path fill="#473a40" d="M153 143h5v4h-5z"/><circle r="1" fill="#fafafa" transform="rotate(-88.3 95.1 17.6) scale(6.73555 49.13773)"/><path fill="#c5c5c6" d="M104.2 95.5l2.2 36-3.5-2.8-.7-1.8z"/><ellipse cx="95" cy="71" fill="#cac9c7" rx="71" ry="1"/><path fill="#060605" d="M17 69h2v31h-2z"/><path fill="#fff" d="M222 111v18h-49zm-53 37v-7l-8 5z"/><path fill="#d0cfcf" d="M160 74h54v2h-54z"/><ellipse cx="70" cy="144" fill="#c6c9c9" rx="14" ry="3"/><path fill="#d7d6d6" d="M163.1 75.3l-8.8-18-16.5 22.8 12.6-19.9z"/><path fill="#d5d6d6" d="M64 119h66v5H64z"/><circle cx="229" cy="154" r="3" fill="#0d0d0d"/><path fill="#a5abaa" d="M206 142h6v8h-6z"/><path fill="#101010" d="M228 117.3l1-.2 3 13.6-1 .2z"/><path fill="#e3e4e1" d="M24 144h27v7H24z"/><ellipse cx="106" cy="87" fill="#fff" rx="41" ry="14"/><path fill="#fefffe" d="M26 126h52v5H26z"/><path fill="#efefef" d="M183 103h45v15h-45z"/><ellipse cx="191" cy="151" fill="#0f110f" rx="41" ry="1"/><path fill="#91938f" d="M20 135l-2-5-4 9z"/><path fill="#afb5b0" d="M127 134h105v3H127z"/><path fill="#fff" d="M-16 125v23.6l55-10.8 2.3 7.5z"/><ellipse cx="144" cy="133" fill="#262325" rx="6" ry="1"/><ellipse cx="19" cy="93" fill="#b4b3b2" rx="1" ry="27"/><path fill="#e9eceb" d="M119 137h18v13h-18z"/><path fill="#b0b0b0" d="M178.5 104.5l-13.6-10.2.6-.8 13.6 10.2z"/><path fill="#e1e0df" d="M52 50h12v25H52z"/><path fill="#fff" d="M232 88h24v59h-24z"/><path fill="#d3d2d1" d="M77 72h70v1H77z"/><path fill="#fff" d="M163 129l-17-29 9 34z"/><path fill="#b4b6b4" d="M46 124h3v27h-3z"/><ellipse cx="226" cy="150" fill="#8f9292" rx="120" ry="1"/><path fill="#c4c3c4" d="M35 101l-15-3 3 4z"/><path fill="#b9bebf" d="M166.9 150.5l8.1-1.7-1.4-13.8 5.3.5z"/><path fill="#fff" d="M139 82l95 10-50 9z"/><path fill="#f8f8f8" d="M53 104h10v15H53z"/><path fill="#a1a1a1" d="M170 101h29v2h-29z"/><path fill="#f6f6f6" d="M22.8 134.4l-9.9-15.2 55.4 9 10.1-4z"/><path fill="#d3d3d3" d="M204.7 62.3L228 91.1l-.7.6L204 62.9z"/><circle cx="80" cy="103" r="1"/><circle r="1" fill="#e1e1e1" transform="matrix(-.9763 .21644 -9.36885 -42.26013 64.5 26.5)"/><path fill="#feffff" d="M90 138h15v6H90z"/><path fill="#1e1e1e" d="M16 67h3v39h-3z"/><ellipse cx="94" cy="152" fill="#171717" rx="78" ry="1"/></g></g></svg>