<svg xmlns="http://www.w3.org/2000/svg" viewBox="0 0 1200 900"><defs/><filter id="a"><feGaussianBlur stdDeviation="12"/></filter><rect width="100%" height="100%" fill="#4f3f2e"/><g filter="url(#a)"><g fill-opacity=".5" transform="translate(2.3 2.3) scale(4.6875)"><circle r="1" fill="#fff" transform="rotate(-117.9 61.1 15.7) scale(102.2735 231.73894)"/><circle r="1" transform="rotate(-57.7 45.7 -61.6) scale(24.48531 57.76781)"/><circle r="1" fill="#e6f6ff" transform="rotate(-126.1 30.5 29.2) scale(71.71369 52.11299)"/><circle cx="184" r="73" fill="#fffad6"/><path fill="#362f23" d="M147 106.9l43.7 26.2-39.7 66-43.7-26.2z"/><circle r="1" fill="#f8f1cc" transform="rotate(29.8 -253.7 241) scale(25.97678 121.83991)"/><ellipse cy="68" fill="#fff" rx="15" ry="191"/><circle r="1" fill="#96845c" transform="matrix(-18.82612 -12.54651 51.25717 -76.91169 189.5 126)"/><circle r="1" fill="#120000" transform="matrix(-22.12923 42.91236 -11.26598 -5.80969 125 166.9)"/><circle r="1" fill="#ebf8ff" transform="matrix(24.04566 23.13966 -13.50125 14.02988 115.2 90.9)"/><path d="M21 0h3v169h-3z"/><ellipse cx="216" cy="124" fill="#824504" rx="42" ry="15"/><circle r="1" fill="#fff" transform="matrix(.0604 17.30588 -14.6352 .05109 252.4 12.3)"/><circle r="1" fill="#3e4b59" transform="matrix(-11.96754 14.0525 -19.10011 -16.26623 107.3 40.3)"/><ellipse cx="224" cy="74" rx="81" ry="2"/><path fill="#e1e6e0" d="M152.4 88.6l31.3-6.6 5.9 27.4-31.3 6.6z"/><ellipse cx="69" cy="158" fill="#cac09c" rx="32" ry="56"/><ellipse cx="81" cy="11" fill="#1c242d" rx="32" ry="21"/><path fill="#454c54" d="M143 72h13v52h-13z"/><circle r="1" fill="#fff" transform="matrix(-23.34598 18.12066 -4.133 -5.3248 207.2 52.3)"/><circle r="1" fill="#c3af7f" transform="rotate(-15.9 98 -701) scale(44.98968 36.31329)"/><path fill="#3e2600" d="M185 82h13v19h-13z"/><circle r="1" fill="#ffffe5" transform="rotate(87.7 70.7 145.4) scale(2.8837 52.99698)"/><ellipse cx="53" cy="82" fill="#283339" rx="2" ry="80"/><circle r="1" fill="#ecf4ff" transform="rotate(-109.3 74.8 -34.4) scale(45.04761 8.3471)"/><circle r="1" fill="#fff" transform="matrix(4.67483 .09274 -.71168 35.87323 43.5 54.6)"/><path fill="#101a1f" d="M41.6-16l-3.2 37.9L22.2 2.4-16-13.1z"/><ellipse cx="35" cy="124" fill="#a19469" rx="4" ry="115"/><path fill="#dbd5ab" d="M199 78h24v31h-24z"/><path fill="#dfc274" d="M255.3 66.5l-31.7-4.4 5.1-36.6 31.7 4.4z"/><ellipse cx="222" cy="161" fill="#bfb4b6" rx="13" ry="5"/><ellipse cx="43" cy="145" fill="#ebf8ff" rx="5" ry="35"/><path fill="#adab9f" d="M73 56h30v106H73z"/><ellipse cx="168" cy="165" fill="#656362" rx="30" ry="48"/><path fill="#563304" d="M235 70h21v117h-21z"/><ellipse cy="15" fill="#fff" rx="19" ry="66"/><circle r="1" fill="#efd084" transform="matrix(37.62452 -51.094 14.52386 10.69506 75.5 188.7)"/><path fill="#eef3ff" d="M113 78h31v34h-31z"/><circle r="1" fill="#110600" transform="matrix(13.30123 -33.07791 4.37693 1.76004 133.4 144.8)"/><circle r="1" fill="#936f24" transform="matrix(.04495 -31.55649 2.00424 .00285 87 137.6)"/><path fill="#fff" d="M251 63l-8 9-5-16z"/><path fill="#7e612c" d="M271 133l-47-8 12-63z"/><path fill="#c2cdde" d="M55 34h27v111H55z"/><circle r="1" fill="#957535" transform="matrix(-23.29824 15.52539 -2.09016 -3.13661 36.2 188.8)"/><path fill="#fff" d="M180 75l49-31-14-16z"/><path fill="#372412" d="M180 145h76v13h-76z"/><path fill="#f2e183" d="M161 78h59v8h-59z"/><ellipse cx="3" cy="168" fill="#cbdfe6" rx="18" ry="64"/><path fill="#301400" d="M111.2 164.2L89.9 203l41.1 4 7.3-77z"/><path fill="#748093" d="M138.2 58.9L134.3 77 104 60.4l14.7-38.1z"/><path fill="#70522e" d="M83 158h40v5H83z"/><path fill="#d2d9eb" d="M156 95h18v24h-18z"/><path fill="#f1f6fe" d="M39 33h14v76H39z"/><path fill="#a78e54" d="M209.3 54.2l-9.8-7.8 38.6 16.5-35.8 4.5z"/><circle r="1" fill="#fff" transform="matrix(-.3192 -14.95796 17.40194 -.37135 255 13.5)"/><ellipse cx="240" cy="177" fill="#2a1c10" rx="50" ry="11"/><circle r="1" fill="#ffe68e" transform="matrix(3.57594 5.68099 -16.28865 10.253 20.1 191)"/><path fill="#cfd9e5" d="M89 55h12v63H89z"/><circle r="1" fill="#eae3d7" transform="matrix(-14.31402 22.6331 -9.42897 -5.96323 127.3 116.4)"/><path fill="#987a35" d="M36 15h3v168h-3z"/><path fill="#fff" d="M237 62l-10 12-4-5z"/><ellipse cx="30" cy="41" fill="#c6d2e4" rx="6" ry="33"/><path fill="#88571a" d="M185 127l-11-17 65-1z"/><ellipse cx="67" cy="64" fill="#f7fcff" rx="4" ry="29"/><path fill="#4b4629" d="M245.8 75.6L271 24.4l-5.2 100.1-40.3-68.9z"/><path fill="#372d03" d="M156 74h85v3h-85z"/><path fill="#878278" d="M152 121l28 2-11 51z"/><ellipse cx="95" cy="96" fill="#3e4a4c" rx="1" ry="37"/><ellipse cx="31" cy="109" fill="#b0bac3" rx="5" ry="65"/><ellipse cx="150" cy="12" fill="#c2c6d0" rx="10" ry="66"/><path fill="#575959" d="M124.6 43.8l-8.3-31.5-41 28.9 29.4 18z"/><path fill="#d1b87a" d="M271 66l-62-46 6-36z"/><path fill="#f6e4aa" d="M98.3 161.9L44.1 163l44.7 20.8L9.9 207z"/><path fill="#fff" d="M230 76h5v4h-5z"/><path fill="#b29850" d="M83.3 39.1l-.5-9.2 6.4 9-1.6 87z"/><ellipse cx="4" cy="36" fill="#fdffff" rx="8" ry="111"/><path fill="#c6ba9f" d="M175 68l31-31-73-53z"/><path fill="#c4c1d6" d="M193 140h13v4h-13z"/><path fill="#bdc3cb" d="M167 94l53 15h-46z"/><path fill="#05160e" d="M21 168h3v12h-3z"/><path fill="#562c07" d="M261.4 130.1l9.6 65.5-49.9-45-36.6-19.1z"/><circle r="1" fill="#eef0ff" transform="matrix(4.99967 -1.99681 22.08912 55.30726 122.6 12.5)"/><path fill="#594305" d="M219 64h4v15h-4z"/><ellipse cx="23" cy="131" fill="#50594e" rx="2" ry="148"/><path fill="#fff" d="M182.5 77l-5.9-6.8L189.5 59l5.9 6.8z"/><path fill="#a2aeb4" d="M13 95h8v88h-8z"/><circle cx="217" cy="39" r="10" fill="#fff"/><path fill="#4b463b" d="M212 146v61l-41-69z"/><path fill="#505144" d="M176.4 72.5l-3.4-.4-26.6 14.8-7.2-7.6z"/><circle cx="227" cy="69" r="5" fill="#fff"/><path fill="#ffebb1" d="M24.6 179.6l5.2 27.4-17.9-20.9L2.8 207z"/><path fill="#fff" d="M241 69.3l-3-6.4 9-4.2 3 6.4z"/><path fill="#706f63" d="M101 55h2v74h-2z"/><path fill="#bfc7d1" d="M46 48h6v125h-6z"/><path fill="#fff" d="M40 19h6v97h-6z"/><circle cx="169" cy="84" r="9" fill="#ebdfaa"/><path fill="#7c7d73" d="M104 5.7l4-2.9 8 11.5-4 2.9z"/><path fill="#ffffe4" d="M147 67h68v5h-68z"/><path fill="#bec2ca" d="M108 87l23 30-28 7z"/><ellipse cx="17" cy="28" fill="#c3d0de" rx="5" ry="42"/></g></g></svg>