<svg xmlns="http://www.w3.org/2000/svg" viewBox="0 0 940 1200"><defs/><filter id="a"><feGaussianBlur stdDeviation="12"/></filter><rect width="100%" height="100%" fill="#464646"/><g filter="url(#a)"><g fill-opacity=".5" transform="translate(2.3 2.3) scale(4.6875)"><circle cx="121" cy="142" r="191" fill="#fff"/><circle cx="76" cy="172" r="240" fill="#fff"/><circle cx="86" cy="96" r="210" fill="#fff"/><circle cx="54" cy="60" r="184" fill="#fcfcfc"/><path fill="#3a3a3a" d="M0 170h42v7H0z"/><path fill="#404040" d="M7 0h6v59H7z"/><path fill="#7d7d7d" d="M207.4 61.6l-53-12.9 37.7-.7-6.2-54.3z"/><circle r="1" fill="#464646" transform="matrix(-34.72968 1.63781 -.15349 -3.25471 9 213.2)"/><path fill="#3c3c3c" d="M55.2 213.1l6-.2 1.6 46-6 .2z"/><ellipse cx="144" cy="239" fill="#4d4d4d" rx="4" ry="29"/><path fill="#747474" d="M-16 55.8l96.9-5.1-49-2.1-46.6-1.9z"/><path fill="#adadad" d="M81 109h21v50H81z"/><ellipse cx="200" cy="251" fill="#fff" rx="31" ry="199"/><path fill="#424242" d="M111 245h44v5h-44z"/><path fill="#404040" d="M41 149l-12-16 10-1z"/><path fill="#585858" d="M189 0h5v63h-5z"/><ellipse cx="95" cy="26" fill="#fff" rx="59" ry="82"/><path fill="#676767" d="M175.8 139.6l-13.6-23 1.2 19.9 10.8 2.7z"/><path fill="#717171" d="M164.2 97l-3.5-13.9 4.8-4.6 11 17z"/><path fill="#939393" d="M32 175h8v53h-8z"/><path fill="#5b5b5b" d="M26 92l14 13V89z"/><path fill="#3f3f3f" d="M139 45h9v10h-9z"/><path fill="#696969" d="M172.9 179.3l-6.3-16-2.6 7.3-3.7 12.3z"/><path fill="#525252" d="M162 213h12v8h-12z"/><path fill="#6d6d6d" d="M54 44h10v13H54z"/><path fill="#3b3b3b" d="M0 165h1v56H0z"/><path fill="#3f3f3f" d="M39.5 48v14h-5V48z"/><path fill="#fff" d="M194 0h7v47h-7z"/><path fill="#afafaf" d="M96 143h26v18H96z"/><circle r="1" fill="#fff" transform="matrix(-36.72606 -15.75893 9.4436 -22.00822 12 246.5)"/><ellipse cx="8" cy="115" fill="#fff" rx="21" ry="55"/><circle r="1" fill="#fff" transform="matrix(-31.54357 -16.44835 9.41356 -18.05272 110.2 220)"/><path fill="#5b5b5b" d="M49 244h15v6H49z"/><path fill="#424242" d="M81 177h3v24h-3z"/><path fill="#fff" d="M156 221h45v35h-45z"/><ellipse cx="46" cy="88" fill="#fff" rx="7" ry="171"/><path fill="#575757" d="M85 250l-3-6 13 1z"/><path fill="#8f8f8f" d="M68.9 217.8L50 229.5l-1.7-12.7-.1 2.7z"/><path fill="#fff" d="M12 0h175v45H12z"/><path fill="#7d7d7d" d="M153.7 219.8l-12.7 8-4.7-7.6 12.7-8z"/><path fill="#fff" d="M2 202l16-25 37 20z"/><circle r="1" fill="#fff" transform="matrix(-19.73146 1.37242 -10.62969 -152.82427 196.3 205.4)"/><path fill="#2e2e2e" d="M98 120h2v35h-2z"/><ellipse cx="87" cy="108" rx="7" ry="1"/><path fill="#f7f7f7" d="M100 138.5l-17 1.8-3-28.8 17-1.8z"/><path fill="#fff" d="M61 203h81v41H61z"/><path fill="#9d9d9d" d="M29.2 209l-7 7.9.1 4.1 10.3 7.7z"/><path fill="#787878" d="M156 48h45v5h-45z"/><circle r="1" fill="#969696" transform="matrix(-.99999 -.0053 .13036 -24.60196 120.7 137.4)"/><path fill="#747474" d="M149.7 92.6l-1.7 4.7-5.7-2 1.7-4.6z"/><ellipse cx="102" cy="108" fill="#868686" rx="19" ry="2"/><ellipse cx="156" cy="80" fill="#fff" rx="6" ry="185"/><path fill="#303030" d="M119 176h3v6h-3z"/><path fill="#737373" d="M163 209h6v13h-6z"/><path fill="#fff" d="M123 228l58-48-105 2z"/><path fill="#727272" d="M165 175l10-3-1 8z"/><path fill="#767676" d="M119 201.2l-1.5-1.2 5.4-7.2 1.6 1.2z"/><path fill="#191919" d="M93.5 144v-1l27 1v1z"/><ellipse cx="58" cy="113" fill="#cacaca" rx="4" ry="26"/><path fill="#fff" d="M100 149h101v7H100z"/><path fill="#959595" d="M80 159.8l5.2-1.8 25.2-1.1-28-6.3z"/><path fill="#6b6b6b" d="M162 165h5v11h-5z"/><path fill="#757575" d="M14 61l-7-1 6-9z"/><circle cx="58" cy="177" r="3" fill="#5a5a5a"/><ellipse cx="4" cy="51" fill="#787878" rx="38" ry="3"/><path fill="#fff" d="M35 99l-51-35 36 104zm133-38h33v29h-33zm0 129h33v25h-33zM62 251h79v5H62z"/><path fill="#616161" d="M34 175h6v9h-6z"/><circle cx="166" cy="134" r="5" fill="#7d7d7d"/><path fill="#484848" d="M82 140h18v2H82z"/><path fill="#494949" d="M144 132h3v6h-3z"/><path fill="#7e7e7e" d="M63 51l-4-7-10 14z"/><path fill="#fff" d="M194 0h7v46h-7z"/><path fill="#6f6f6f" d="M33 199l8 4-4 11z"/><circle r="1" fill="#5f5f5f" transform="matrix(.46624 2.4675 -2.39765 .45304 145.3 176.7)"/><circle r="1" fill="#fefefe" transform="matrix(-21.17771 -7.94987 4.59946 -12.25253 142.2 198.6)"/><ellipse cx="75" cy="138" fill="#fff" rx="6" ry="76"/><path fill="#fff" d="M0 227h48v29H0z"/><path fill="#888" d="M198 49l-9-10-2 23z"/><path fill="#8d8d8d" d="M60.7 227.4l-15.1-3.6 17.7-7.8 3.4-.7z"/><path fill="#fff" d="M100 118h19v25h-19z"/><path fill="#696969" d="M162 90h12v6h-12z"/><path fill="#fff" d="M188-16L15 14l172 30z"/><path fill="#8f8f8f" d="M117 244h39v7h-39z"/><path fill="#a8a8a8" d="M81 177h39v3H81z"/><path fill="#fff" d="M113.7 265.7l-59.9-57-48.1-29.5L47 189.6zM60 54h123v22H60zM40.6 81.6L11 94-.6 66.4 29 54z"/><path fill="#7a7a7a" d="M148.7 216.3l6-.6.6 6-6 .6z"/><path fill="#747474" d="M142 48h6v8h-6z"/><path fill="#4a4a4a" d="M99 153.6l-17.9 1.8-.1-1 17.9-1.8z"/><path fill="#fcfcfc" d="M41 143h56v10H41z"/><path fill="#fff" d="M3 181h30v28H3z"/><path fill="#7b7b7b" d="M35 132h5v16h-5z"/><circle cx="57" cy="134" r="3" fill="#727272"/><path fill="#5b5b5b" d="M98 108h2v20h-2z"/><path fill="#fff" d="M167.2 133.4l17.5-51.8-30.9 42 44.5-2.5z"/><path fill="#787878" d="M163 132h12v5h-12z"/></g></g></svg>