<svg xmlns="http://www.w3.org/2000/svg" viewBox="0 0 1200 900"><defs/><filter id="prefix__a"><feGaussianBlur stdDeviation="12"/></filter><rect width="100%" height="100%" fill="#4d4f3a"/><g filter="url(#prefix__a)"><g transform="translate(2.3 2.3) scale(4.6875)"><circle r="1" fill="#fbfeff" fill-opacity=".5" transform="matrix(-45.1566 250.96988 -66.29858 -11.929 213.4 128)"/><circle r="1" fill="#000300" fill-opacity=".5" transform="rotate(142.4 73.4 79) scale(31.95182 42.41512)"/><path fill="#e6e8e7" fill-opacity=".5" d="M271 89L-16-15 271 1z"/><path fill="#fff" fill-opacity=".5" d="M-7 39l8 58 40-53z"/><circle r="1" fill="#fff" fill-opacity=".5" transform="matrix(36.11393 24.70477 -29.64982 43.3427 230.9 175.6)"/><circle r="1" fill="#898c9a" fill-opacity=".5" transform="rotate(-20.4 556.2 -39.4) scale(134.72219 51.95952)"/><circle r="1" fill="#70726b" fill-opacity=".5" transform="matrix(-14.27463 15.79195 -41.26803 -37.30292 185.2 45)"/><circle r="1" fill="#fff" fill-opacity=".5" transform="matrix(27.38381 -17.04492 28.55232 45.87122 232.3 0)"/><path fill="#ced7db" fill-opacity=".5" d="M69 55h19v36H69z"/><circle r="1" fill="#000008" fill-opacity=".5" transform="rotate(109.1 14.1 25.4) scale(11.22564 77.3518)"/><circle r="1" fill="#b6bbbf" fill-opacity=".5" transform="matrix(73.22305 -22.3941 6.57168 21.48772 135.4 182.5)"/><path fill="#fff" fill-opacity=".5" d="M215 72h17v58h-17z"/><circle r="1" fill="#44483c" fill-opacity=".5" transform="matrix(45.48956 -42.56837 12.54523 13.40612 173.6 112.7)"/><path fill="#090009" fill-opacity=".5" d="M55 32h7v160h-7z"/><path fill="#fdffff" fill-opacity=".5" d="M.3 40L20 44 9.8 92l-19.6-4.2z"/><path fill="#050000" fill-opacity=".5" d="M233 77h9v35h-9z"/><path fill="#2f351e" fill-opacity=".5" d="M21 57L5 147l69-78z"/><circle r="1" fill="#0e0f1f" fill-opacity=".5" transform="matrix(24.65859 11.47982 -3.3247 7.14145 174.4 67.2)"/><circle cx="200" cy="61" r="11" fill="#f0f1ef" fill-opacity=".5"/><circle r="1" fill="#a4aaa0" fill-opacity=".5" transform="matrix(-44.71857 -23.87749 10.15885 -19.02584 140 23.4)"/><circle r="1" fill="#fff" fill-opacity=".5" transform="matrix(31.83725 16.3951 -9.1868 17.8396 230.6 11)"/><path fill="#acb896" fill-opacity=".5" d="M169 129l-26 8 26-46z"/><ellipse cx="250" cy="167" fill="#f0f2fd" fill-opacity=".5" rx="29" ry="41"/><path fill="#a7acb7" fill-opacity=".5" d="M176.6 133.3l-3.4-.5 53.6-9.3-36.5 55.1z"/><circle r="1" fill="#6b6a5d" fill-opacity=".5" transform="matrix(-3.63938 4.43065 -41.58912 -34.16168 190.6 33.5)"/><circle r="1" fill="#3c4526" fill-opacity=".5" transform="rotate(-143.9 84.6 24.2) scale(29.89781 22.83748)"/><circle r="1" fill="#332725" fill-opacity=".5" transform="matrix(1.85233 3.71117 -66.3815 33.13258 112 162.3)"/><path fill-opacity=".5" d="M215 128.5h-4v-61h4z"/><circle r="1" fill="#515a4d" fill-opacity=".5" transform="rotate(53.8 -41.8 82) scale(52.47216 12.23046)"/><circle r="1" fill="#bac982" fill-opacity=".5" transform="rotate(-54.3 155.5 21.4) scale(10.85765 5.69047)"/><path fill="#000006" fill-opacity=".5" d="M191 75h8v50h-8z"/><path fill="#a3aa9b" fill-opacity=".5" d="M92 128h44v13H92z"/><circle r="1" fill="#1a1a32" fill-opacity=".5" transform="matrix(46.22394 21.8518 -2.82057 5.96646 129.8 50.2)"/><path fill="#999f8d" fill-opacity=".5" d="M199 89h12v28h-12z"/><path fill="#707d71" fill-opacity=".5" d="M68.8 82l-8.4-46.7 63 21.7-25.3 17.2z"/><path fill="#9fa03b" fill-opacity=".5" d="M271 121l-20 5-12-56z"/><circle r="1" fill="#17181e" fill-opacity=".5" transform="rotate(91.5 40.2 133.3) scale(30.37221 5.18853)"/><path fill="#e6edf1" fill-opacity=".5" d="M80 95.4l.1.3-5.6-17.3 15.3 1.7z"/><path fill="#feffff" fill-opacity=".5" d="M216 79h15v47h-15z"/><circle r="1" fill="#070108" fill-opacity=".5" transform="matrix(3.2593 -11.5953 27.68393 7.7816 21.5 11.6)"/><circle r="1" fill="#3c3b44" fill-opacity=".5" transform="rotate(-123.2 77.1 71.4) scale(14.88765 24.87994)"/><path fill="#cfddf1" fill-opacity=".5" d="M-16 36.5l29.2 58.2.2-34.9 23-12.2z"/><path fill="#979c9d" fill-opacity=".5" d="M207.6 144.9l-84.3 39.3-8.9-19 84.3-39.4z"/><path fill="#f2f3fc" fill-opacity=".5" d="M184-16h-25l53 58z"/><path fill="#646877" fill-opacity=".5" d="M184-16l8 25 19 16z"/><path fill="#8d9287" fill-opacity=".5" d="M199.6 44.2L9-5.3l56.5 22.7 123 47.6z"/><path fill="none" stroke="#4c4c49" stroke-opacity=".5" stroke-width=".5" d="M271 117q-12.7-27.8-66.1-97.2"/><path fill="#5a6339" fill-opacity=".5" d="M146 65h20v52h-20z"/><path fill="#313617" fill-opacity=".5" d="M16 71h18v75H16z"/><ellipse cx="138" cy="101" fill="#271f2a" fill-opacity=".5" rx="6" ry="47"/><path fill="#fff" fill-opacity=".5" d="M271-5l-51 40-29-40z"/><path fill="#bbcd9f" fill-opacity=".5" d="M64 99l2-10 7 14z"/><path fill="#bfc1c0" fill-opacity=".5" d="M58 51l26 16 11-8z"/><ellipse cx="211" cy="73" fill="#0c0d1a" fill-opacity=".5" rx="4" ry="11"/><path fill="#fffef9" fill-opacity=".5" d="M266 49.1l-7.3 31.2-14.6-3.4 7.2-31.2z"/><path fill="#939486" fill-opacity=".5" d="M213.6 60.5L155.7-16l97.2 102.6L218.7 73z"/><ellipse cx="167" cy="102" fill="#c3cac4" fill-opacity=".5" rx="2" ry="22"/><path fill="#949890" fill-opacity=".5" d="M165.9 133l-19.5-15-22.3 32 3.5-28.1z"/><path fill="#51514a" fill-opacity=".5" d="M98.8-8.8l49.8 4.3 55.2 54.7-50.1-59.7z"/><path fill="#c0bdb0" fill-opacity=".5" d="M253 66l-24-31 10-16z"/><path fill="#727d8f" fill-opacity=".5" d="M-22.4 178.3l-4.6-21.5 71.4-15.1 4.6 21.5z"/><path fill="#4d4d3b" fill-opacity=".5" d="M237 116h8v9h-8z"/><circle cx="96" cy="108" r="22" fill="#434f24" fill-opacity=".5"/><path fill="#7c8b58" fill-opacity=".5" d="M-.3 105.2l12.5-28.7 12.3 27.8 5.6-23.9z"/><circle r="1" fill="#aaada6" fill-opacity=".5" transform="matrix(42.66922 29.25775 -4.95807 7.2308 147.8 14.6)"/><path fill="#3f424a" fill-opacity=".5" d="M175-21.7l.8-.5L247 75.7l-.8.5z"/><path fill="#c1c6cb" fill-opacity=".5" d="M190.3 207h-40.6l55.6-75.5 31.4-14.6z"/><path fill="#667552" fill-opacity=".5" d="M34.2 108.3l9.9-15.5 12.4 34.8-20.6 3.2z"/><path fill="#342d32" fill-opacity=".5" d="M166.3 132.7l-46.2 26.1 58.9-23.7-6.7-11.3z"/><path fill="#606d23" fill-opacity=".5" d="M24.3 148.7L-16 147 8.8 95.1-16 83.3z"/><path fill="#afb9c5" fill-opacity=".5" d="M32 48h11v7H32z"/><path fill="#272416" fill-opacity=".5" d="M49.3 106.1l-.6-32 14-.2.6 32z"/><path fill="#3f4838" fill-opacity=".5" d="M31.9 37.2l-44-1.4 46.4 11.1 71 14.2z"/><path fill="#5d6f54" fill-opacity=".5" d="M53 47l-65-16.3 3-11.6 65 16.2z"/><path fill="#40433d" fill-opacity=".5" d="M87.8 73.8L39.2 89.9 12.3 74.4 30 53.6z"/><path fill="#fefff7" fill-opacity=".5" d="M147-18l.8-.7L197 34l-.7.7z"/><path fill="#e8e8eb" fill-opacity=".5" d="M211 32L170-2l15-8z"/><path fill="#252812" fill-opacity=".5" d="M21 96l-37 23 48 3z"/><path fill="#595a4d" fill-opacity=".5" d="M196.7 43.1l33.5 24.6-24-23.9-60.8-56z"/><path fill="#d0d2ce" fill-opacity=".5" d="M202.9 65.7l1.8-19-12.4 4.2 2.5 23.3z"/><path fill="#575d6b" fill-opacity=".5" d="M-16 186l67-32-14 53z"/><path fill="#fff" fill-opacity=".5" d="M224.3 42.6l5.3 8.9 7.6-67.5h-52.9z"/><path fill="#17141a" fill-opacity=".5" d="M75.2 40.9L43.1 7.2l-57 8.7 19.8 5.2z"/><circle r="1" fill="#dadee5" fill-opacity=".5" transform="matrix(2.21224 -2.76631 5.85304 4.68073 78 83.4)"/><path fill="#1e1926" fill-opacity=".5" d="M184 122h31v5h-31z"/><path fill="#0e0f17" fill-opacity=".5" d="M169 67h23v11h-23z"/><path fill="#7a755f" fill-opacity=".5" d="M136 148l-63-22 14 43z"/><path fill="#8a9085" fill-opacity=".5" d="M91.5 90.6L66 52.4l-3.3 7.5 31.4 5.5z"/><path fill="#9fa49b" fill-opacity=".5" d="M144 118h22v11h-22z"/><path fill="#a1a6a5" fill-opacity=".5" d="M176 197l-83-21-67 31z"/><path fill="#bcc9e0" fill-opacity=".5" d="M10 91l9-37-35 33z"/><path fill="#8f9295" fill-opacity=".5" d="M170.7 153l-57.8 12.8 75.1-36.4 41.2-4.2z"/><path fill="#858685" fill-opacity=".5" d="M210.1 42.1l-32.3-28.7-29-29.4L171.5-.1z"/><path fill="#40442b" fill-opacity=".5" d="M10.1 68.9L80 85.6l-12.6 22.5 32.3-7.7z"/><path fill="#1c1c10" fill-opacity=".5" d="M118.7 121l-.8 4.9-30.6-4.9.8-4.9z"/><path fill="#586543" fill-opacity=".5" d="M66.4 107.4l63.9-1-70.8 18.2 51.9-63.2z"/><path fill="#e7e9e9" fill-opacity=".5" d="M201 66h6v8h-6z"/><path fill="#1f202c" fill-opacity=".5" d="M82.3 42.8L118.4 53l53.4 18.8-63.6-38.1z"/><path fill="#22202d" fill-opacity=".5" d="M55 20h8v68h-8z"/><path fill="#454a19" fill-opacity=".5" d="M68.8 136L48 139.9l19.4-18.3 23.3-3.5z"/></g></g></svg>