<svg xmlns="http://www.w3.org/2000/svg" viewBox="0 0 1200 900"><defs/><filter id="a"><feGaussianBlur stdDeviation="12"/></filter><rect width="100%" height="100%" fill="#4d4a28"/><g filter="url(#a)"><g fill-opacity=".5" transform="translate(2.3 2.3) scale(4.6875)"><ellipse cx="151" cy="69" fill="#cee3f8" rx="175" ry="191"/><circle r="1" fill="#3c3f00" transform="rotate(-176.7 102.3 45.6) scale(239.78138 21.11398)"/><circle r="1" fill="#b9dfff" transform="matrix(6.19495 -43.60029 114.79474 16.31063 96.6 35.1)"/><ellipse cx="2" cy="79" rx="40" ry="20"/><path fill="#4d5100" d="M202 66h54v59h-54z"/><circle r="1" fill="#efe8e7" transform="matrix(.90638 -7.60584 130.88648 15.5976 146.6 122.6)"/><circle r="1" fill="#766954" transform="matrix(8.77537 -30.96968 152.05035 43.084 213.9 191)"/><circle r="1" fill="#8badf2" transform="matrix(225.56284 -37.34169 5.2051 31.4415 133.6 5.5)"/><path fill="#d0d9df" d="M205 50l-13 34L71 71z"/><circle r="1" fill="#6c7319" transform="matrix(15.38728 14.24516 -8.55723 9.2433 219 52.3)"/><path fill="#c9dbf9" d="M101 81L-14 46l125-14z"/><circle r="1" fill="#cec8cb" transform="rotate(173.4 12.7 51) scale(41.33554 3.69632)"/><path fill="#2d3b00" d="M1.2 89.6l136 5.9-98-23.7L-16 41.9z"/><path fill="#d3efff" d="M271-9l-36 68 36-2z"/><circle r="1" fill="#5c6212" transform="matrix(-4.43608 15.67676 -67.89767 -19.2131 205 102.1)"/><path fill="#878a47" d="M113.1 113.4l65.1.8-46.9-26.5L117.9 48z"/><path fill="#9d9685" d="M-16 98L9 207l177-76z"/><ellipse cx="213" cy="18" fill="#75866a" rx="12" ry="44"/><path fill="#313614" d="M176 100h32v20h-32z"/><path fill="#c8d7d2" d="M174 82.8l26.2-21 8.6-.9-12.9 21.9z"/><circle r="1" fill="#bed3fa" transform="matrix(-6.13218 -22.96175 13.6303 -3.64012 147.7 58.5)"/><path fill="#e1dee2" d="M43 97h59v3H43z"/><ellipse cx="64" cy="102" fill="#040006" rx="29" ry="2"/><path fill="#a5a3ab" d="M123 107h50v9h-50z"/><path fill="#3d4a04" d="M79.7 71.2l18.7 9.5-8.1 16-18.7-9.4z"/><ellipse cx="255" cy="81" fill="#222300" rx="22" ry="10"/><path fill="#efefef" d="M216.6 124l44.5 6.2-1.7 11.9-44.5-6.3z"/><ellipse cx="117" cy="94" fill="#6a6f14" rx="22" ry="18"/><ellipse cx="225" cy="146" fill="#bbb3a9" rx="45" ry="11"/><path fill="#99baed" d="M232 34l39-27-35-23z"/><ellipse cx="229" cy="185" rx="2" ry="25"/><path fill="#6c7113" d="M191 93l45-43 9 69z"/><circle r="1" fill="#84a4d6" transform="matrix(-104.3008 -12.68754 2.26086 -18.58588 110.9 3)"/><path fill="#b4cae6" d="M-16 32.3l95.3-8.5L44.1 73 14.4 57.6z"/><path fill="#333a57" d="M271 128V98l-38 27z"/><path fill="#bcc" d="M202 56h11v17h-11z"/><ellipse cx="145" cy="38" fill="#9dbaeb" rx="54" ry="12"/><path fill="#676917" d="M221 45l12 14-44-12z"/><path fill="#2b2b2c" d="M66.5 102l38.4-3.3-8.6 11.8-60.1-8.1z"/><path fill="#656c22" d="M162 64h5v36h-5z"/><path fill="#1d2600" d="M2.4 98.5l45-9.6-33.7-30.4-23.1 34.8z"/><circle r="1" fill="#ebebdd" transform="matrix(.83195 -.55484 97.21326 145.76513 .9 162)"/><circle r="1" fill="#adafac" transform="matrix(59.3563 16.5921 -1.54123 5.51359 120.4 129.4)"/><path fill="#818757" d="M111 49h12v13h-12z"/><path fill="#707115" d="M-16 190l6-44 37 61z"/><path fill="#646b12" d="M197.8 66.6l19.7 17-3.3 3.8-19.7-17z"/><path fill="#bdcdc3" d="M260.3 79.5l-19.1-33.3-7 21.9 21.2-2.5z"/><path fill="#99b6e2" d="M233.4 29.3l-20.8 7.1-2-5.7 20.8-7.1z"/><circle r="1" fill="#757466" transform="matrix(-72.9913 -22.28515 2.32325 -7.60941 149.1 151.8)"/><circle r="1" fill="#e6e6e8" transform="matrix(-77.28408 -9.62624 .45575 -3.65897 146.5 120.5)"/><path d="M213.5 159h1v48h-1z"/><path fill="#666d1a" d="M82.3 79.3L51.7 68.1l-17.9 7.4 42.4 14.4z"/><path fill="#cfd0d0" d="M3.4 101.8l6.3-2.3 72.5-.9-66.8 5.4z"/><path fill="#13160a" d="M245 166h2v26h-2z"/><path fill="#919087" d="M34 95h71v3H34z"/><path fill="#89946d" d="M205 45l44-1-24-15z"/><path fill="#c6d6ed" d="M136.8 83.6l-16.2-11.1 9.1-32.3 11.9 32.7z"/><path fill="#9e988a" d="M22 187l155 20-75-39z"/><path fill="#3f411a" d="M194.6 115l27.7 4-.9 6-27.7-4z"/><path fill="#d2dae1" d="M86 73h73v5H86z"/><path fill="#636a1b" d="M176 73l-34 37 41-16z"/><path fill="#6f7a48" d="M240 25l-40-13 11 12z"/><path fill="#e0e0e1" d="M67.4 111.4l-83-13.5 29.1 4.3 42.4 3.1z"/><path fill="#a2bacf" d="M220 46l14-23 5 14z"/><path fill="#a7a78e" d="M139 89h15v4h-15z"/><path fill="#8c8b7e" d="M54.5 164.9l-64.3-59.7L102 130.4l19.5 31.6z"/><path fill="#bcd0f0" d="M159.7 47.7l26.7 32.9 8.1 1.5 1.3-24.3z"/><path fill="#7f8750" d="M254.5 46.6L200 35.7l-4.9-2.5 37.4 4.2z"/><path fill="#ccdceb" d="M108.7 73.5l-72.6-4.4-17.5-13.9 89.7 8.6z"/><path fill="#bfd2f2" d="M271 38.7l-44.8 15.2 10.6-10.3 8 22.6z"/><path fill="#626817" d="M267.1 44.2l-17.9 30.4-38.9-12 9.7 38z"/><path fill="#8a8f27" d="M193.9 92.5l-17.1-5.4 25.7-7.4.2 27.6z"/><ellipse cx="209" cy="88" fill="#2e370c" rx="10" ry="7"/><path fill="#9eb9df" d="M217.5 19.4l-74.6-1.7L2.2 34.9 147.8 55z"/><circle r="1" fill="#182200" transform="matrix(-3.07036 .73289 -2.48766 -10.4218 46 85)"/><path fill="#4a5807" d="M23.3 60.6l-4.7 16.3-26-7.5 4.8-16.3z"/><path fill="#868925" d="M228 112l27-16-46 8z"/><path fill="#56591c" d="M215.5 12.5l-17.4-23.2 2.4-1.8 17.4 23.2z"/><path fill="#aac3f1" d="M271 15l-25 15 25 81z"/><circle cx="244" cy="25" r="4" fill="#818839"/><path fill="#353527" d="M189 155h2v34h-2z"/><path fill="#e3e3e7" d="M216 124l-22-3 20 13z"/><path fill="#d4d4c7" d="M75 97h32v2H75z"/><path fill="#899476" d="M110.8 63.3l8.1-5.9 8.3 11.3-8.1 5.9z"/><path fill="#5f6006" d="M211.6 25.5l16.3-9.8.5.8-16.3 9.8z"/><path fill="#bfd2ea" d="M114.5 55.9L71.7 78l-2.4-22.6 33.8-6z"/><path fill="#a2a29b" d="M227 136l-94-11 60 25z"/><path fill="#9f9b96" d="M48 94.5v2l-26 1v-2z"/><path fill="#c8d6df" d="M91.8 74.8l12.3 11.3-2.5-21.6-74.6.9z"/><circle r="1" fill="#b3ab9e" transform="matrix(.44828 -4.26952 30.21748 3.17271 248 160.7)"/><path fill="#1a1d09" d="M247.3 86.4l21.4 8.1.2-22.5-50.6 19.8z"/><path fill="#80806e" d="M31.8 98.9l-32.9 1.4-14.9-2.2 88.1-.5z"/><ellipse cx="58" cy="3" fill="#86a4d6" rx="139" ry="10"/><path fill="#0c0c1d" d="M168 108h10v3h-10z"/><circle r="1" fill="#4b4a3e" transform="matrix(42.89744 12.86985 -.28736 .95782 231.6 179.9)"/><ellipse cx="147" cy="98" fill="#cad2ae" rx="5" ry="2"/><path fill="#797a25" d="M51 90h29v6H51z"/><path fill="#8c8e6c" d="M160.1 110.2l32.3 10.7-51.5-5.6-12-14.7z"/><path fill="#75781c" d="M235 125l-16-2 40-20z"/><path fill="#696f20" d="M105 85h18v27h-18z"/></g></g></svg>