<svg xmlns="http://www.w3.org/2000/svg" viewBox="0 0 1200 704"><defs/><filter id="a"><feGaussianBlur stdDeviation="12"/></filter><rect width="100%" height="100%" fill="#5c5e61"/><g filter="url(#a)"><g fill-opacity=".5" transform="translate(2.3 2.3) scale(4.6875)"><circle cx="111" cy="73" r="168" fill="#fff"/><circle r="1" fill="#fff" transform="rotate(3.5 -1224.5 1444) scale(240.61796 116.58379)"/><circle cx="31" cy="127" r="142" fill="#f6fdff"/><ellipse cx="161" cy="138" fill="#f9ffff" rx="249" ry="32"/><circle r="1" fill="#b1b2bd" transform="matrix(29.85443 31.98007 -18.98458 17.72273 146.5 72.9)"/><path fill="#b3b2c0" d="M0 81h101v25H0z"/><ellipse cx="51" cy="15" fill="#feffff" rx="74" ry="69"/><path fill="#848792" d="M188.8 77.7l11.7-2.7 6.7 29.3-11.7 2.7z"/><circle r="1" fill="#fcffff" transform="rotate(-64.2 95.7 -104) scale(28.64813 11.98833)"/><path fill="#95969a" d="M130-15.7l9.9 1.5-14 88-9.8-1.6z"/><circle r="1" fill="#96999d" transform="rotate(128.4 94.4 45.7) scale(66.03137 3.36934)"/><circle r="1" fill="#f2f5fa" transform="matrix(6.18952 18.04826 -26.37489 9.04508 207.3 19.1)"/><path fill="#9c9ca2" d="M113 73h55v11h-55z"/><path fill="#fbfeff" d="M199 76l72-11-54 37z"/><circle r="1" fill="#f5feff" transform="matrix(62.09747 2.60266 -1.3822 32.97843 208.1 148.7)"/><path fill="#f2f4fb" d="M156.5-13.5l23 58.7-50.8 33L170 26.7z"/><path fill="#9a9d9f" d="M184 23L166 5l12 34z"/><circle r="1" fill="#fbfbff" transform="rotate(-1 5827.6 -5378) scale(86.73763 1)"/><path fill="#c0c2ce" d="M162 52h92v18h-92z"/><ellipse cx="244" cy="107" fill="#cedff1" rx="59" ry="11"/><ellipse cx="19" cy="97" fill="#aeaeb4" rx="45" ry="4"/><ellipse cx="165" cy="103" fill="#b0b5c3" rx="105" ry="2"/><path fill="#edeff5" d="M46 80l84-96-14 89z"/><path fill="#f3f7fa" d="M159.5 23.6L133.8 20l4.7-33.6 25.7 3.6z"/><path fill="#babac3" d="M46 91h82v7H46z"/><path fill="#a1a1ab" d="M245.8 83.7l11-1.3 1.4 11.9-11 1.3z"/><path fill="#b1b2b8" d="M156 58.8l-7-57.5 1-.1 7 57.5z"/><path fill="#f9faff" d="M136 21l-9 50 13-17z"/><path fill="#a6a9ab" d="M179.1-10.4l23 27.5 2.4 2.3-7.9-3.9z"/><ellipse cx="16" cy="85" fill="#dddde7" rx="44" ry="6"/><path fill="#a3a4a8" d="M88 98l-8-17-11 11z"/><path fill="#f5f5fd" d="M42 99h88v4H42z"/><path fill="#dcdce8" d="M91.8 79.8l39.9 3.5-1.5 17-39.9-3.6z"/><ellipse cx="251" cy="76" fill="#feffff" rx="38" ry="6"/><path fill="#f9fcf9" d="M230-13.7l9 12-31 23.4-9-12z"/><circle r="1" fill="#fcfefa" transform="matrix(-53.61452 -1.41134 .72187 -27.42264 63.1 0)"/><path fill="#93949c" d="M179 97h27v3h-27z"/><ellipse cx="100" cy="108" fill="#dbeaf8" rx="123" ry="4"/><circle r="1" fill="#cfd0db" transform="matrix(-3.19192 13.71024 -32.07137 -7.46664 223.8 43.4)"/><ellipse cx="224" cy="100" fill="snow" rx="26" ry="2"/><circle cx="189" cy="22" r="9" fill="#f7fafa"/><circle r="1" fill="#e0e1ed" transform="rotate(-94 130 -40.5) scale(6.72685 10.40966)"/><path fill="#909294" d="M117.1 84.6L145.4 52l1.5 1.3L118.6 86z"/><ellipse cx="28" cy="49" fill="#e9eaef" rx="70" ry="9"/><path fill="#bed8ee" d="M244.5 113.4L271 142l-15.4-37.9h-40.3z"/><path fill="#c6c7ce" d="M182 83l-41-12 121-50z"/><path fill="#e1e2e9" d="M255 22.9L222.7-16l23.9 13.8-83.5 49.3z"/><path fill="#d8d9e0" d="M130.9 3.1l-14.5 48.5 1-39.5 5-6z"/><ellipse cx="154" cy="103" fill="#a5a7ac" rx="48" ry="1"/><path fill="#b5b6bb" d="M157.3 55.1l-1 .2L138.8-45l1-.2z"/><path fill="#9ea0a2" d="M183 12.9l-6.3 7.4-1.6-8.8 30.3-22.7z"/><path fill="#96969a" d="M153.9 83.4l-40-2.8.2-2 40 2.8z"/><path fill="#f1f4f8" d="M74 55h41v27H74z"/><path fill="#f2f5f6" d="M136.9 10.1l34.4 8.8-4.5-12L146.3-16z"/><path fill="#d8d8e4" d="M205 82h41v15h-41z"/><path fill="#d8d8e1" d="M226.4 41.2l-.6 5.8-10.3 23.1-30.5-5.6z"/><path fill="#c0c1ca" d="M181 77l66-9-24-9z"/><path fill="#a5a6a9" d="M114.9 80.3l17.6-55.9-6.4 55.1 10.4-.1z"/><path fill="#acadb2" d="M247.8 66.1L161 83.5l62.4-12 44.6-6.4z"/><path fill="#a7a8aa" d="M184.2 32.1l-5.4 2.5-11-24.7 5.4-2.5z"/><path fill="#eceef3" d="M154.3 61.4l4.2-4-9.6-4.4-26.1 30.9z"/><path fill="#dcdde6" d="M133.6 99.8L80.1 85.2l25.6-7.3 32.4 11.9z"/><path fill="#a9abae" d="M43 86l16 5-1 7z"/><path fill="#c8c9d2" d="M58 79h17v15H58z"/><ellipse cx="143" cy="100" fill="#e8e8f0" rx="41" ry="3"/><path fill="#b5b6ba" d="M202.7 2.7l11.3 9.8-.7.8L202 3.5z"/><path fill="#98989c" d="M190 101l18-4-9-11z"/><ellipse cx="4" cy="86" fill="#ebebf5" rx="11" ry="5"/><ellipse cx="1" cy="100" fill="#a3a4a9" rx="24" ry="2"/><circle r="1" fill="#9c9e9f" transform="matrix(.99572 .0924 -1.67567 18.05915 133.4 13.3)"/><ellipse cx="170" cy="96" fill="#b2b2bb" rx="20" ry="2"/><circle r="1" fill="#eaeef4" transform="rotate(-93.5 91.3 -81.5) scale(4.78867 3.72651)"/><path fill="#b6b9c1" d="M172-4l-15-2 21 19z"/><path fill="#edeff4" d="M130 68l8-83 13 53z"/><path fill="#eff1f3" d="M177.5 45.9l36.4-32.4-73 49.5 33.3-23.3z"/><ellipse cx="48" cy="135" fill="#edf7fa" rx="97" ry="27"/><path fill="#f5f1f5" d="M229 97h27v5h-27z"/><path fill="#f9fbfb" d="M242.3 81.4l-1.4-12 22.8-2.8 1.4 12z"/><ellipse cx="208" cy="120" fill="#ecf2f5" rx="32" ry="10"/><circle r="1" fill="#b3b3ba" transform="matrix(10.52923 2.2083 -.7764 3.70193 255 94.2)"/><path fill="#aaacac" d="M227 38.2l39.6-19.3.4 1L227.4 39z"/><path fill="#fff" d="M199 11l-7-15h6z"/><circle r="1" fill="#f6fafa" transform="matrix(10.17846 -12.05569 40.07847 33.83773 176.8 143)"/><circle r="1" fill="#a1a3a3" transform="matrix(27.57086 -34.42128 1.32096 1.05807 186.4 4.7)"/><ellipse cx="104" cy="97" fill="#b3b4bb" rx="90" ry="1"/><path fill="#f5f7f6" d="M209.5 5.1L239.7-16l-65 61.1L259.9-16z"/><path fill="#d4d4de" d="M191 55l-19-6 51-38z"/><path fill="#bfc0c6" d="M174 48l-33 25 43 5z"/><path fill="#e8ebf1" d="M126.2 80.7l35.3-30.9-35.4 27-.4 54.4z"/><path fill="#9b9d9f" d="M202 16.8l-.7.6-7.4-8.2.8-.6z"/><path fill="#c2c3ca" d="M256-16L225 9l43-13z"/><path fill="#e6e7ed" d="M169.5 10.7l-8.9 23.5-4.2-13.6-17.4-1z"/><path fill="#d2deeb" d="M170.6 116.9l16.9-6.9 74-1.3L168 103z"/><path fill="#eaecf0" d="M147 49.4l-19.9 17.7 7.2-45.3 12.5-24.1z"/><ellipse cx="210" cy="66" fill="#d9dae2" rx="8" ry="7"/><path fill="#8f9192" d="M183.5 33.6l-.8.6-6.2-7.8.8-.6z"/><ellipse cx="216" cy="98" fill="#a7a2a6" rx="7" ry="1"/><path fill="#bdbfc1" d="M236.2-12l.6.8-49 41.2-.6-.8z"/><path fill="#e3e4e9" d="M246 17.9l-7.4-15.1-38.3 27.4L217 40.7z"/><circle cx="251" cy="113" r="4" fill="#b1c5da"/></g></g></svg>