<svg xmlns="http://www.w3.org/2000/svg" viewBox="0 0 1200 812"><defs/><filter id="a"><feGaussianBlur stdDeviation="12"/></filter><rect width="100%" height="100%" fill="#693a36"/><g filter="url(#a)"><g fill-opacity=".5" transform="translate(2.3 2.3) scale(4.6875)"><circle cx="115" cy="83" r="183" fill="#c2cfd0"/><circle r="1" fill="#3a0600" transform="matrix(13.78367 -38.62685 93.75376 33.45524 225.3 71.3)"/><ellipse cx="127" cy="169" fill="#fff" rx="255" ry="20"/><ellipse cx="54" cy="43" fill="#d6f5ff" rx="25" ry="78"/><ellipse cx="137" cy="9" fill="#fff" rx="255" ry="13"/><ellipse cy="84" fill="#3e0500" rx="30" ry="66"/><ellipse cx="227" cy="126" fill="#4b1206" rx="37" ry="24"/><ellipse cx="78" cy="29" fill="#3e140b" rx="255" ry="8"/><ellipse cx="62" cy="136" fill="#522521" rx="105" ry="13"/><path fill="#b0cfcf" d="M119 58h54v63h-54z"/><ellipse cx="88" cy="80" fill="#3b0800" rx="9" ry="59"/><ellipse cx="100" cy="63" fill="#fff" rx="4" ry="161"/><path fill="#f9fbfa" d="M166 188l1-94 38 71z"/><path fill="#44170b" d="M105 25h72v31h-72z"/><path fill="#c6e1ff" d="M33 32h44v71H33z"/><ellipse cx="164" cy="9" fill="#e8f1f2" rx="113" ry="14"/><path fill="#41526a" d="M142 106h25v44h-25z"/><ellipse cx="147" cy="161" fill="#e9f1f2" rx="255" ry="12"/><ellipse cx="108" cy="78" fill="#4e1b12" rx="5" ry="58"/><circle r="1" fill="#fffef9" transform="rotate(83 28.3 162.5) scale(23.1766 3.86192)"/><path fill="#cbe8ff" d="M115 101h23v23h-23z"/><path fill="#6f817a" d="M24 105h61v20H24z"/><circle r="1" fill="#663d33" transform="matrix(-36.3676 -59.5818 27.7948 -16.96543 212.5 84.6)"/><circle r="1" fill="#e9f0f1" transform="matrix(-1.61903 -15.40405 32.7664 -3.44389 11 6.6)"/><path fill="#b7c9e1" d="M30 59h49v46H30z"/><ellipse cx="243" cy="34" fill="#542e23" rx="139" ry="13"/><path fill="#583129" d="M0 24h30v50H0z"/><path fill="#55241c" d="M22 23h71v9H22z"/><path fill="#613730" d="M107 123h30v28h-30z"/><path fill="#643f3a" d="M79 31h19v109H79z"/><path fill="#cbdbf3" d="M30 32h49v33H30z"/><path fill="#5d352e" d="M180.9 100.5l-1.2 18.1L168.9 82l8.5-45.7z"/><path fill="#6f463f" d="M192 81h64v68h-64z"/><ellipse cx="41" cy="138" fill="#693f37" rx="55" ry="12"/><path fill="#b2bcaf" d="M169 97l-30-40 30-1z"/><circle r="1" fill="#d6d4e2" transform="matrix(-.25397 62.99392 -2.18877 -.00882 103 122.7)"/><path fill="#8b9da6" d="M43 76h17v26H43z"/><path fill="#56352d" d="M104 68l8-47 105 2z"/><ellipse cx="68" cy="19" fill="#dfe1e0" rx="255" ry="3"/><path fill="#400300" d="M191 148l-6-12-2 7z"/><path fill="#dbe1e9" d="M30 33h11v72H30z"/><path fill="#6a6c77" d="M140 104h28v35h-28z"/><path fill="#9a9d90" d="M117 57h29v48h-29z"/><path fill="#f0f0ef" d="M163 129l12-22-1 25z"/><ellipse cx="14" cy="154" fill="#dfe0e0" rx="53" ry="5"/><path fill="#cfcede" d="M97 22h7v57h-7z"/><path fill="#581e0f" d="M178 142l-3 6-2-8z"/><ellipse cx="179" cy="93" fill="#663a32" rx="2" ry="41"/><ellipse cx="243" cy="47" fill="#5b332a" rx="81" ry="25"/><path fill="#74504a" d="M0 119h33v31H0z"/><path fill="#d1e4f9" d="M140.3 123.6l-24.3-9.5 24.6-9.6.9 20.8z"/><circle r="1" fill="#ede5e2" transform="matrix(-3.85366 .16825 -.74302 -17.01788 184.5 114)"/><path fill="#674340" d="M110 123h32v27h-32z"/><ellipse cx="110" cy="172" fill="#dcdcdc" rx="147" ry="23"/><path fill="#5a4241" d="M108 65h7v64h-7z"/><path fill="#6d423b" d="M188.6 90.2l-13.4 13.4-7.8-7.8 13.4-13.4z"/><path fill="#6b433d" d="M12 126h86v24H12z"/><path fill="#633e37" d="M-8.1 20.2L31 27.9l-1.8 21.6-1.3 42.4z"/><ellipse cx="142" cy="100" fill="#616872" rx="2" ry="51"/><path fill="#6e463f" d="M196 86h60v64h-60z"/><path fill="#56332c" d="M95.5 24v38h-17V24z"/><circle r="1" fill="#e8e8e7" transform="rotate(-168.5 92.5 59.2) scale(3.50234 23.12117)"/><path fill="#dedbda" d="M173.2 128.6l13.6 59.4 43.9-39.3-14.5 39.3z"/><path fill="#8c9493" d="M29 105h46v16H29z"/><ellipse cx="58" cy="10" fill="#dbdadb" rx="255" ry="12"/><path fill="#b1c7e4" d="M58 33h21v72H58z"/><path fill="#b1b8b0" d="M143 69h22v34h-22z"/><path fill="#6b717e" d="M143 128h24v21h-24z"/><path fill="#3b2118" d="M105 23h151v4H105z"/><path fill="#dad9e6" d="M98 86h6v87h-6z"/><path fill="#ebedec" d="M179 150h77v2h-77z"/><path fill="#68433c" d="M192 116.2l-17.2-51 57.9 84.6-41.6-7z"/><path fill="#9baec2" d="M73 77.5v17H51v-17z"/><path fill="#e4e4e4" d="M192 141l18 47-19-22z"/><path fill="#e5e0dd" d="M193 120l-13 14 5-37z"/><path fill="#74514b" d="M97.8 105.9l-51.5 44.4 40.4.5 10.9-8.5z"/><path fill="#c8d5e8" d="M30 33h40v41H30z"/><path fill="#e1dddb" d="M165.7 125.4l12.4-6.5-.5-9.4-7.4-8.9z"/><path fill="#605f6c" d="M146 105h21v19h-21z"/><path fill="#cdcece" d="M157.5 134.5l20.1-26.4-4.1 10.7-8.5 10.1z"/><ellipse cx="246" cy="22" fill="#838982" rx="142" ry="1"/><path fill="#4d687c" d="M171.5 55.5v1l-55 2v-1z"/><circle r="1" fill="#6d4740" transform="matrix(17.38062 -25.41117 13.40575 9.1692 211.9 117)"/><ellipse cx="29" cy="95" fill="#8c8079" rx="1" ry="31"/><path fill="#caddee" d="M116 107h25v15h-25z"/><path fill="#643f3a" d="M178 121h2v13h-2z"/><path fill="#63372f" d="M105 27h41v28h-41z"/><path fill="#7f7e75" d="M25 120h61v5H25z"/><ellipse cx="104" cy="85" fill="#a69da0" rx="1" ry="42"/><ellipse cx="116" cy="88" fill="#869e97" rx="3" ry="33"/><path fill="#6c4239" d="M173.5 104.6l3.5.9 37.2-81.4-44.1 66.8z"/><path fill="#94a6af" d="M59.7 122.9l-2-9.8 18.6-4 2 9.8z"/><ellipse cx="109" cy="101" fill="#704138" rx="4" ry="49"/><path fill="#54312b" d="M212.2 79.5l3-57.8 22 56.2-23.6 10.5z"/><path fill="#744a41" d="M186 82h22v23h-22z"/><path fill="#d9d8d8" d="M271 188l-130.8-19.3 83.5-20.1 40.5 2.4z"/><path fill="#63362c" d="M185.4 142.3l-3.3-5 2.5-1.6 3.3 5z"/><path fill="#7c8383" d="M39 105h40v7H39z"/><path fill="#b1b4ae" d="M126 71h14v30h-14z"/><path fill="#5e3831" d="M0 23h29v40H0z"/></g></g></svg>