<svg xmlns="http://www.w3.org/2000/svg" viewBox="0 0 1200 900"><defs/><filter id="a"><feGaussianBlur stdDeviation="12"/></filter><rect width="100%" height="100%" fill="#45603b"/><g filter="url(#a)"><g fill-opacity=".5" transform="translate(2.3 2.3) scale(4.6875)"><ellipse cx="139" cy="163" fill="#a79c88" rx="132" ry="109"/><circle r="1" fill="#000a00" transform="rotate(100.1 16.8 29.9) scale(23.86033 175.36477)"/><path fill="#c7f6ff" d="M211.9 3.5l38.8-20.7L260.1.5l-38.8 20.7z"/><circle cx="204" cy="173" r="55" fill="#5c8c1c"/><ellipse cx="41" cy="66" fill="#74647d" rx="89" ry="21"/><circle r="1" fill="#010300" transform="matrix(-41.64927 1.80523 -1.00541 -23.1963 255 45.7)"/><circle r="1" fill="#9e9194" transform="matrix(-18.51862 -27.6583 81.58972 -54.62841 113.6 142.2)"/><path fill="#afcce8" d="M108.6 23.3l7.5-20.7 11.3 4.1-7.5 20.7z"/><ellipse cx="2" cy="74" fill="#07000c" rx="7" ry="111"/><circle r="1" fill="#676269" transform="matrix(10.2816 -53.89805 52.55281 10.02498 61.3 104.8)"/><circle r="1" fill="#88a847" transform="matrix(41.54869 -5.91325 5.12166 35.98669 254.7 114.2)"/><path fill="#a8a59e" d="M26 41L3 38l23 46z"/><path fill="#000004" d="M206.5 69v36h-7V69z"/><path fill="#4b641a" d="M174-16l50 65-115-23z"/><path fill="#c8e8ff" d="M227.4-15.9l1.6 35.7 10.2-10.1L271-7.8z"/><circle r="1" fill="#0b1908" transform="matrix(-44.71891 -24.67286 16.0282 -29.05068 20 5.1)"/><circle r="1" fill="#608437" transform="matrix(14.81676 13.38066 -40.43717 44.77714 144.2 181.3)"/><ellipse cx="183" cy="55" fill="#080c0f" rx="41" ry="5"/><circle r="1" fill="#5c5953" transform="rotate(160.9 18.1 53.4) scale(46.48003 20.63531)"/><path fill="#78707d" d="M245.8 94.4l-53.5-27.2 6-11.6 53.4 27.2z"/><circle r="1" fill="#1e3322" transform="matrix(-10.27569 -6.10126 5.02113 -8.45654 250 15.2)"/><path fill="#7d9fc6" d="M115.7-16l18.2 32.9-16.1-8-11.6-10z"/><circle r="1" fill="#a9a192" transform="rotate(54.4 -104.7 192.9) scale(9.86092 64.95109)"/><path fill="#38531e" d="M159 37l112 7-53-32z"/><circle cx="147" cy="86" r="31" fill="#78767d"/><path fill="#0c1d06" d="M131 20L91 49l-54-8z"/><path fill="#746c6c" d="M9 90h29v91H9z"/><path fill="#818486" d="M137 88l-7-34-60-6z"/><ellipse cx="92" cy="77" fill="#1d2712" rx="25" ry="2"/><path fill="#507c90" d="M211.2-16l-8.7 27.5 12.8 4.4L246.7-16z"/><ellipse cx="87" cy="144" fill="#8c8c85" rx="43" ry="14"/><path fill="#070b06" d="M212 47h37v18h-37z"/><path fill="#151c0c" d="M0 75h58v3H0z"/><path fill="#b5a26c" d="M161.2 111.5l-17 30.7-17.4-9.7 17-30.7z"/><path fill="#789729" d="M188 32l-30-44 35-4z"/><path fill="#274920" d="M43 0h65v33H43z"/><circle r="1" fill="#759749" transform="matrix(-6.6101 -12.42874 68.9152 -36.65182 236 105.7)"/><circle r="1" fill="#292b29" transform="matrix(-9.99961 .21073 -2.856 -135.5244 0 106.3)"/><path d="M226 75h3v14h-3z"/><path fill="#6c6c73" d="M165 62h36v37h-36z"/><path fill="#868781" d="M10 42h25v34H10z"/><path fill="#f5fcff" d="M182.4-16l70.7 20.8 13.5 8 3.6-17z"/><path fill="#1d2d1e" d="M198.9 62.9l6.7 11.7-6.9-60.4-25.9 46.3z"/><path fill="#92bcfc" d="M219 8l19 18-11-21z"/><path fill="#202e16" d="M31 85h50v3H31z"/><circle r="1" fill="#535650" transform="rotate(68.2 -80.8 119.3) scale(1 77.29387)"/><path d="M57 113l6 17-5-1z"/><ellipse cx="4" cy="22" fill="#071004" rx="27" ry="17"/><path fill="#3d5e4d" d="M107.3 25.7l12.2-16L91 12l7.3 11.4z"/><path fill="#182312" d="M61.6 45.2l114.1-19L160 14.3l3.1 45.6z"/><ellipse cx="61" cy="93" fill="#7b7d7b" rx="50" ry="5"/><path fill="#7f9c9a" d="M142.9 14.2l-16-8.5-19.9 20 16.8-8.3z"/><path fill="#507628" d="M211.2 178.6l-19.3-23 16.9-14.2 19.3 23z"/><circle r="1" fill="#22251d" transform="rotate(-94.5 59.8 42.6) scale(1.27777 45.05516)"/><path fill="#968990" d="M229 66h7v20h-7z"/><path fill="#23261c" d="M97.7 105l.2 1-155.6 33-.2-1z"/><path fill="#43443e" d="M4.3 149.2l95-31.1-82.8 31.2-32.5-.3z"/><path fill="#9f9f9e" d="M87.1 107.4L58 119.6l32.2-6 1.7-3.7z"/><path fill="#030702" d="M108.3 161.9l-1 .1-1.6-11.9 1-.1z"/><path fill="#898285" d="M223.9 96.7l-10.7 8.2-.2-17.5 14.2-28.3z"/><path fill="#2f332d" d="M14.7 61.8l49 4.3-79.7-2.2v-6.5z"/><path fill="#626562" d="M117.2 71.6l16.3-3.4-47.4-14.4 44.1 69.2z"/><circle r="1" fill="#8d8d8a" transform="rotate(-124.8 63.6 63.5) scale(5.30723 36.855)"/><path fill="#7a7b7c" d="M141.4 57.1L40.1 60 35 42.6l27.5 5.3z"/><path fill="#7f8077" d="M6 126h24v19H6z"/><path fill="#060608" d="M202 68h4v37h-4z"/><path fill="#a4a196" d="M147 131l2-26 33 12z"/><circle cx="14" cy="184" r="12" fill="#5b6150"/><path fill="#637281" d="M55 25l-1.8 4.7L41 25l1.8-4.7z"/><path fill="#a4a59c" d="M114 117.9l12.3 18.2-10.8-.5-15.6-24.1z"/><path fill="#83baf4" d="M227 14l-15-4 28-11z"/><path fill="#898b8c" d="M58.7 128l-23.9 7.4-3.5-11.5 23.9-7.3z"/><ellipse cx="150" cy="74" fill="#131d06" rx="19" ry="1"/><path fill="#d6d1b8" d="M22.4 42.3l-7.6 4.5-2.8-7.6 8 2.5z"/><path fill="#66853d" d="M105.4 207l123-55.1 28.2-56.7-99 57z"/><path fill="#555658" d="M81.2 162.3l6 13.3-2.3-21.1-21.1 16.6z"/><path fill="#8ea958" d="M263.8 149.5l7.2-76.7-31.2 10.8-4 2.8z"/><ellipse cx="31" cy="134" fill="#1e221f" rx="2" ry="8"/><path fill="#243729" d="M236.6 22.7l-15.7 8.6L250.7 2l-4.6 36.8z"/><path fill="#1d2216" d="M61.2 159l-2.4 1.7-4-5.7 2.4-1.7z"/><path fill="#b6dcff" d="M264-16l-36 34 5-32z"/><circle r="1" fill="#83867a" transform="matrix(24.65758 1.01155 -.1116 2.7205 32.4 81.4)"/><path d="M93 82h2v14h-2z"/><path fill="#647056" d="M145.3 202.6l-16.1-59.8 13.6-.5-12.2 6.5z"/><path fill="#7c7f5d" d="M151.2 147.1L123 164.9l54.3-6.7-18.5-14.6z"/><path fill="#a09b92" d="M198.4 106.3l-21.9 13.4 15.4-28.3 9.1-.8z"/><path fill="#686b74" d="M212.9 63.9l-10.4-9-1.6 27.3-56.3-24.6z"/><path fill="#a7a193" d="M46.9 201l31.9 2.5 42.8-27.4 35.1-43.1z"/><path fill="#4e5140" d="M58 73h28v13H58z"/><path fill="#1f231e" d="M44 87h3v14h-3z"/><path fill="#416339" d="M210.7 42l18.2-58-12.2 65-25.9 14.7z"/><path fill="#111212" d="M-1 104l-13 10 35-8z"/><path fill="#07090b" d="M26.6 143.6l.2 1-27.4 5.8-.2-1z"/><path fill="#4f6a1f" d="M158.2 38.5l2-11.8 27.6 4.8-2 11.8z"/><path fill="#355672" d="M130.8 8.1L153 4.7l-52.2-8.5-21.4-11.4z"/><path fill="#1a1a12" d="M31.5 83.2l3.2-7.3 1.8.9-3.2 7.3z"/><path fill="#7a7c7c" d="M40 139l-6 21-30-8z"/><circle r="1" fill="#34372d" transform="matrix(-.17559 -.98446 20.7297 -3.69737 112.8 95)"/><path fill="#131d11" d="M75.4 27.1l7.4 37.3L76.7-16l8.4 34.5z"/><path fill="#5e5762" d="M249 80.4l-28.5-9.2 2.5-7.6 28.5 9.2z"/></g></g></svg>