<svg xmlns="http://www.w3.org/2000/svg" viewBox="0 0 1200 800"><defs/><filter id="a"><feGaussianBlur stdDeviation="12"/></filter><rect width="100%" height="100%" fill="#542c2c"/><g filter="url(#a)"><g fill-opacity=".5" transform="translate(2.3 2.3) scale(4.6875)"><circle r="1" fill="#fff" transform="matrix(134.2736 -52.18815 35.11244 90.33992 104 41.6)"/><circle r="1" fill="#f5ffff" transform="matrix(135.59883 -38.62739 22.42616 78.72552 102 0)"/><circle cx="147" cy="71" r="39" fill="#fdffff"/><circle cx="237" cy="72" r="53" fill="#275761"/><circle cx="68" cy="129" r="53" fill="#59674d"/><circle r="1" fill="#557966" transform="matrix(-2.46836 -37.74491 98.82195 -6.46255 181.7 147.6)"/><ellipse cy="77" fill="azure" rx="32" ry="48"/><circle cx="116" cy="5" r="83" fill="#d4f4ff"/><circle r="1" fill="#fff" transform="rotate(-69 150.2 -69) scale(15.34686 32.18667)"/><circle r="1" fill="#eaf5ff" transform="matrix(-7.32995 -9.90586 76.6528 -56.7201 204 20.8)"/><path fill="#374348" d="M182.3 53.5L257.4-3l22.3 29.6L204.6 83z"/><circle cx="90" cy="131" r="13" fill="#f7f5e5"/><path d="M67.4 143.2l-15-1.5 2.2-21 15 1.6z"/><circle r="1" fill="#69564d" transform="rotate(-167.9 30.4 37.3) scale(15.23713 10.90939)"/><circle r="1" fill="#57656f" transform="rotate(-99.3 146.4 -33.5) scale(52.96744 15.51608)"/><ellipse cx="102" cy="104" fill="#a96d46" rx="33" ry="15"/><circle r="1" fill="#61707b" transform="matrix(-1.80395 -73.81287 20.05034 -.49002 255 77.5)"/><ellipse cx="76" cy="30" fill="#c8def9" rx="101" ry="40"/><ellipse cx="230" cy="119" rx="8" ry="25"/><ellipse cx="136" cy="117" fill="#53422e" rx="53" ry="6"/><ellipse cx="83" cy="169" fill="#7f7b56" rx="126" ry="16"/><path fill="#f1fafe" d="M181 63l4 48L52 68z"/><ellipse cx="95" cy="148" fill="#373c2e" rx="100" ry="7"/><ellipse cx="225" cy="156" fill="#121a11" rx="43" ry="5"/><circle r="1" fill="#af8264" transform="rotate(-69.8 107.9 -19.9) scale(6.64143 51.98199)"/><path fill="#3d533d" d="M0 129h29v30H0z"/><path fill="#e5edf5" d="M15.2 123.1l-29.6-14.5L12.8 53l29.6 14.5z"/><path fill="#596368" d="M188 64l46 10-47 86z"/><path fill="#5e7481" d="M78 114L9 141l35-77z"/><path fill="#1b1515" d="M108.5 148.5v-29h9v29z"/><circle r="1" fill="#f0f0f5" transform="matrix(18.25502 -24.09308 29.94628 22.68992 178.7 9.2)"/><path fill="#252616" d="M30.7 109.2l.1 14 16.6-20.5v12.4z"/><path fill="#141910" d="M289.2-29.4L183.5 56.2l-.7-.8 105.7-85.6z"/><path fill="#b48a6d" d="M44 80.8l87.1 17.6 19.3 19.8-42.6-1.7z"/><path fill="#b1b590" d="M122.9 126l26.6 12.2.5-12.5-23.1 17.5z"/><circle r="1" fill="#aec8e6" transform="matrix(-2.11697 20.0538 -57.42941 -6.0625 39.9 0)"/><path fill="#d8e7f4" d="M98 58h88v26H98z"/><path fill="#2a2d23" d="M119 119h68v5h-68z"/><circle r="1" fill="#647380" transform="matrix(-39.47426 -1.44746 .18054 -4.92361 227.3 148.2)"/><path fill="#191a19" d="M218.3 70.8l-.6-15 16-.6.6 15z"/><path fill="#c1c4b7" d="M71.5 118.3l8.1 27.2 24.3-16.1 5.8-8.6z"/><path fill="#6d7887" d="M237 102h19v31h-19z"/><path fill="#e5ecf3" d="M195.4-16l-3.8 61.8 42-33.7L271-14.2z"/><path fill="#555f63" d="M181 86h75v6h-75z"/><path fill="#363d3c" d="M221.8 22.4L249.7 3 271-5.1 196.1 52z"/><ellipse cx="148" cy="169" fill="#726e5e" rx="33" ry="22"/><path fill="#1d2022" d="M13 143h96v3H13z"/><path fill="#16191d" d="M174 154.6l96.6 1.9-81.6-6.9-21.5-6.9z"/><path fill="#746953" d="M54 148l77 6-50 31z"/><circle r="1" fill="#818e96" transform="rotate(-127.6 53.6 37.5) scale(27.05931 8.52749)"/><path fill="#f6f6ef" d="M145 92h41v19h-41z"/><path fill="#becfd3" d="M2 120h17v7H2z"/><circle r="1" fill="#d8dcb0" transform="matrix(-1.9618 -.02845 .11713 -8.07763 147.9 132)"/><path fill="#bcc0b9" d="M68 142h22v2H68z"/><path fill="#575f63" d="M186 58l50 20-47 53z"/><circle r="1" fill="#cce1f3" transform="matrix(12.61696 -18.31372 28.57237 19.6845 36.6 40.4)"/><path fill="#6c7780" d="M218 134l-43-22 41-2z"/><circle r="1" fill="#d4e1ee" transform="matrix(-2.26633 -28.79643 43.29854 -3.40767 128.3 48.6)"/><path fill="#1d2017" d="M141 119h3v24h-3z"/><path fill="#2d2114" d="M78 116l15-1-16-5z"/><path fill="#666b4f" d="M-15 134l40 6 2-15z"/><path fill="#a8876e" d="M151.1 119.6l-40.2-2.2-55.5-44.6 73.2 21.5z"/><path fill="#222924" d="M150 111h3v39h-3z"/><path fill="#212517" d="M67.4 137.1l-12.9 1.6-2-15.8 13-1.6z"/><circle r="1" fill="#606972" transform="matrix(21.34842 -14.09399 5.01699 7.59932 215.7 51.4)"/><path fill="#f0f1ef" d="M144 110.8l41.4-25.7.9-13.2-76.9 4.3z"/><path fill="#8b9270" d="M153 139.7l-1-17 7-.4 1 17z"/><path fill="#3b4344" d="M248.6 84.1l-8-1.1 12.8-91.1 8 1.1z"/><path fill="#060505" d="M228 105.5h8v31h-8z"/><path fill="#353527" d="M101 141h44v10h-44z"/><circle r="1" fill="#444544" transform="rotate(-36.7 167.5 -286.9) scale(24.77453 4.19991)"/><circle r="1" fill="#585639" transform="matrix(-1.45111 7.4891 -60.30969 -11.68578 239.5 169)"/><path fill="#131501" d="M33 108h4v13h-4z"/><path fill="#a17258" d="M78.6 112l-3.6-9.4 15.9-19.3-49-17z"/><path fill="#72838b" d="M68 109h9v33h-9z"/><path fill="#556069" d="M248 6l-4 58-33-23z"/><path fill="#869382" d="M163 139h24v3h-24z"/><path fill="#8d7b69" d="M129.1 100.1l-2.4-11.2-13.9 33.7 8.8-.8z"/><path fill="#1b1a11" d="M188 63h5v8h-5z"/><path fill="#5f6970" d="M271 155.1l-47.9-72L249.7 94 271 81.4z"/><circle cx="226" cy="101" r="7" fill="#161911"/><path fill="#504b36" d="M-5.3 148.3l95.5 16.5-38.5-16.2-60.2 20.9z"/><path fill="#a5a487" d="M125 123h11v15h-11z"/><path fill="#2b2b2a" d="M118.4 127.5l-1 7-13.8-2 1-7z"/><ellipse cx="162" cy="132" fill="#1a1e1a" rx="2" ry="16"/><path fill="#5c5b3b" d="M136 123l3 13-5 1z"/><path fill="#e9ecee" d="M44.5 53.8l124.9 51.1-173.6-52 43.8 24.4z"/><path fill="#1f2925" d="M218 139h21v5h-21z"/><path fill="#495152" d="M204.5 143l-18.2-2.8 1.3 16-1.1-58.2z"/><path fill="#6a7279" d="M25 146.5l-7.1-28.2 10.3-20.6-2.8 21.9z"/><path fill="#a3c0e2" d="M53 13l-69-24 81-5z"/><path fill="#627586" d="M28 128h23v14H28z"/><circle r="1" fill="#e4ebf1" transform="matrix(-10.48604 7.17532 -2.63552 -3.85155 238.4 3.3)"/><circle r="1" fill="#35352c" transform="matrix(-1.20736 1.35989 -1.65668 -1.47087 130.1 129.3)"/><path fill="#c8caa5" d="M145 123h5v13h-5z"/><path fill="#292918" d="M79 116h28v2H79z"/><path fill="#67787b" d="M154 147h16v4h-16z"/><path fill="#e9f0d3" d="M131.4 127.7l1-.2 2.2 10.8-1 .2z"/><path fill="#12100f" d="M25 129h2v11h-2z"/><path fill="#2d3634" d="M182 87h7v4h-7z"/></g></g></svg>