<svg xmlns="http://www.w3.org/2000/svg" viewBox="0 0 1200 642"><defs/><filter id="a"><feGaussianBlur stdDeviation="12"/></filter><rect width="100%" height="100%" fill="#5f676d"/><g filter="url(#a)"><g fill-opacity=".5" transform="translate(2.3 2.3) scale(4.6875)"><circle r="1" fill="#fff" transform="rotate(8.7 -501.8 941) scale(191.37399 123.04044)"/><ellipse cx="87" cy="30" fill="#fff" rx="255" ry="48"/><circle r="1" fill="#5c6665" transform="rotate(-179.1 51 46.4) scale(177.22493 13.05857)"/><circle r="1" fill="#fdffff" transform="rotate(.1 -10882.3 74005.9) scale(255 37.82817)"/><path fill="#fff" d="M7 18.7l5 146-19 .6-5-146z"/><path fill="#e1f0ff" d="M263 60.3l1.8 21-73.7 6.4-1.9-21z"/><path fill="#fff" d="M243.6 104.1l15 .8-2.2 41-15-.8z"/><ellipse cx="107" cy="135" fill="#e2d5bc" rx="122" ry="16"/><path fill="#2c3640" d="M7.5 113.5v-15h11v15z"/><circle r="1" fill="#f4ffff" transform="rotate(87.7 66.2 91.2) scale(18.17001 174.32377)"/><circle r="1" fill="#73817e" transform="matrix(-1.22155 14.40247 -35.66564 -3.025 158.6 87.1)"/><ellipse cx="240" cy="90" fill="#6c747f" rx="29" ry="8"/><path fill="#f6ffff" d="M3 72.6l12.9 92.1-18.8 2.7-13-92.1z"/><circle r="1" fill="#d0d7ec" transform="rotate(125.1 84.8 81.8) scale(22.93907 35.58908)"/><path fill="#a3a092" d="M149 104h94v15h-94z"/><ellipse cx="70" cy="61" fill="#d8e0f4" rx="140" ry="15"/><path fill="#94a6c7" d="M187 69h41v5h-41z"/><path fill="#7a827e" d="M43 74l74 21-107 18z"/><ellipse cx="111" cy="110" fill="#aeaba0" rx="91" ry="7"/><circle cx="83" cy="78" r="5" fill="#6a7777"/><path fill="#e4edfa" d="M-3.7 108.5L71.3-16 42 75.7l-45.7-.3z"/><path fill="#ebf4ff" d="M123 85l5-17-20 7z"/><path fill="#f3fcff" d="M242 110l4 41 25-34z"/><path fill="#687178" d="M135 81l-1 22-49-15z"/><circle r="1" fill="#f2f8ff" transform="rotate(-119.6 128.7 -50.6) scale(39.15753 16.94774)"/><ellipse cx="223" fill="#858c95" rx="36" ry="1"/><ellipse cx="209" cy="81" fill="#f1fbff" rx="18" ry="4"/><circle r="1" fill="#f0f6ff" transform="matrix(-239.54416 -1.67236 .12079 -17.30158 117.5 19.8)"/><path fill="#6b7479" d="M8.7 85.8l11.1-6.5 8.1-2.7-11 41.7z"/><ellipse cx="131" cy="121" fill="#c9c1b3" rx="45" ry="8"/><path fill="#d2d5e1" d="M177 77l56-28-105 10z"/><path fill="#696f7e" d="M188.3 93.4l18-9.1 13.3 11-30.5 5.8z"/><path fill="#858b93" d="M220 83h36v11h-36z"/><path fill="#535b63" d="M19.9 112.5l.1 1-13.9 2-.1-1z"/><path fill="#f8ffff" d="M11.8 115.4l.4 25-12 .2-.4-25z"/><path fill="#bbbdc2" d="M11 7h2v70h-2z"/><path fill="#b5b2a8" d="M20 104h95v20H20z"/><ellipse cx="233" cy="77" fill="#d7e6fd" rx="31" ry="5"/><path fill="#818b8b" d="M126 77h63v9h-63z"/><path fill="#e7eef9" d="M114.6 74.8l-13.2 1.6-2.8 6-20-12.4z"/><path fill="#dee5ed" d="M38.9 69.8L34.5 87l13.1-17.2L51.5-16z"/><path fill="#828e8d" d="M35.8 79.8L3.6 89.3l1.6-2.8 26.6-10.8z"/><path fill="#dbe0ec" d="M146 53l4 27 11-49z"/><path fill="#ebf3fd" d="M98.5 72l-38.4 7.6-14.9-7.3 8.2-1z"/><path fill="#7e8981" d="M130 103.4l-3.8-27.7 21.7-3 4 27.6z"/><path fill="#f0faff" d="M46 44h148v5H46z"/><path fill="#a1a39c" d="M172 103h29v21h-29z"/><path fill="#c3bba6" d="M200 118h43v13h-43z"/><ellipse cx="113" fill="#bfc2c9" rx="128" ry="1"/><path fill="#676e75" d="M7 103h15v11H7z"/><circle cx="2" cy="96" r="9" fill="#ced5ec"/><path fill="#aaa9a6" d="M105 97h15v18h-15z"/><path fill="#c5c0b4" d="M10 114l72 37 21-37z"/><path fill="#666b71" d="M257.3 83.4l1.3 12-12 1.2-1.2-12z"/><ellipse cx="36" cy="68" fill="#bcc8de" rx="33" ry="3"/><path fill="#e7eefd" d="M193 91l12-14-9 5z"/><path fill="#bbbbac" d="M67 99l6-6 11 1z"/><path fill="#e4eef5" d="M211.7 91.7l-4.4-10.5 21.4-5-12.1 2z"/><ellipse cx="47" cy="84" fill="#777d8a" rx="7" ry="10"/><path fill="#c2c7d6" d="M255 1h1v80h-1z"/><path fill="#cad0e1" d="M98 60h79v12H98z"/><path fill="#929ba2" d="M228.2 82.1l8.1 15.4 2.4-19.5 16.1 21.5z"/><path fill="#7b838f" d="M157.3 82.4l-2.3-8.7 7.7-2 2.3 8.6z"/><path fill="#767b82" d="M200.7 94.3l34.9.4-45.2 8.6-8.9-30.1z"/><path fill="#eef6ff" d="M166 71h14v5h-14z"/><path fill="#e4ebf2" d="M49.8 57.3L-10 39.2l23.9-36 1.9 77.1z"/><path fill="#a1a3a1" d="M61.1 116l-41.4-1.4 7.5-10.9 68.5.5z"/><path fill="#dee1ea" d="M200 19l55 50h-53z"/><ellipse cx="115" cy="18" fill="#dbe1ef" rx="5" ry="65"/><ellipse cx="229" cy="71" fill="#95a3c0" rx="41" ry="1"/><path fill="#d1d2de" d="M188 61.2l15-26 13 7.6-15 26z"/><path fill="#768083" d="M51.5 105l-8.8-28.2 65 26.7L81.9 74z"/><ellipse cx="160" cy="97" fill="#94a68f" rx="29" ry="2"/><path fill="#e1eafd" d="M19 74l-30 25-5-20z"/><path fill="#707573" d="M128 99h66v4h-66z"/><path fill="#f0f7fe" d="M110 15h86v27h-86z"/><ellipse cx="109" cy="83" fill="#8f988e" rx="14" ry="3"/><path fill="#888e92" d="M157 113h28v3h-28z"/><path fill="#929187" d="M210.2 124.8l26 7.4-.4 1-26-7.4z"/><path fill="#d0d4db" d="M47 54h143v2H47z"/><path fill="#909989" d="M31.8 75.8l1.8-1.2 9.8 20.7L23 90.1z"/><path fill="#969495" d="M200 98h43v10h-43z"/><ellipse cx="224" cy="58" fill="#eaeff7" rx="167" ry="2"/><path fill="#eef6fd" d="M74 71l-14 3 5 6z"/><path fill="#f3faff" d="M14 6h19v41H14z"/><ellipse cx="246" cy="36" fill="#f8fdff" rx="6" ry="32"/><path fill="#6b7378" d="M32 93L13 82l-4 27z"/><path fill="#596566" d="M96 94h8v7h-8z"/><circle r="1" fill="#f1f8ff" transform="rotate(141.6 104 112) scale(6.3225 18.90323)"/><path fill="#6d747e" d="M215 84h4v10h-4z"/><path fill="#dde1ee" d="M96.3 83.7l13.6-30.2L126.5 85 77.6 57.9z"/><circle cx="125" cy="96" r="5" fill="#5b6470"/><path fill="#e0e6ee" d="M61.1 35.2L35.5 87.4l7.1-29.7L22.4 35z"/><path fill="#dde2ea" d="M195.4 46.1L154 32.5 151 85l8.8-42z"/><path fill="#becfe9" d="M217.6 72.9l-36.8.6 33.6 7.5 9.4 10.4z"/><path fill="#d8e0eb" d="M39.3-7.9l11-.2.4 24-11 .2z"/><path fill="#818287" d="M172 102h84v2h-84z"/><path fill="#d2d2e0" d="M8 59h112v2H8z"/><path fill="#c9cdad" d="M143 95h6v2h-6z"/><path fill="#e7eef7" d="M215.3 77.8L197 88.6l-5-7.7 40.8 1.8z"/></g></g></svg>