<svg xmlns="http://www.w3.org/2000/svg" viewBox="0 0 1138 1200"><defs/><filter id="a"><feGaussianBlur stdDeviation="12"/></filter><rect width="100%" height="100%" fill="#4d4d4d"/><g filter="url(#a)"><g fill-opacity=".5" transform="translate(2.3 2.3) scale(4.6875)"><circle cx="117" cy="132" r="182" fill="#fff"/><circle cx="118" cy="157" r="215" fill="#fff"/><circle cx="85" cy="103" r="224" fill="#fff"/><circle cx="96" cy="210" r="255" fill="#fff"/><ellipse cx="183" cy="244" fill="#fff" rx="147" ry="21"/><path fill="#e0e0e0" d="M16.2 197.6l162 2.8-.4 26-162-2.8z"/><circle r="1" fill="#fdfdfd" transform="rotate(126.4 7.9 31.2) scale(63.09146 94.82852)"/><path fill="#fff" d="M257.5 143l6 112.8-61 3.2-6-112.8z"/><ellipse cx="137" cy="166" fill="#fefefe" rx="242" ry="24"/><path fill="#e7e7e7" d="M138 103L-6 140l143 2z"/><ellipse cx="120" cy="32" fill="#d7d7d7" rx="135" ry="2"/><circle cx="168" cy="90" r="35" fill="#fefefe"/><path fill="#e6e6e6" d="M200 82h38v58h-38z"/><path fill="#e8e8e8" d="M138 37L37 114l46-60z"/><ellipse cx="178" cy="86" fill="#a6a6a6" rx="8" ry="3"/><circle r="1" fill="#fdfdfd" transform="matrix(.4969 -13.40764 108.14207 4.00786 193.3 15.5)"/><ellipse cx="139" cy="254" fill="#fff" rx="102" ry="29"/><ellipse cx="3" cy="246" fill="#fff" rx="11" ry="105"/><path fill="#dedede" d="M38.2 224.7l-.4 27-24-.4.4-27z"/><path fill="#f3f3f3" d="M131 159h107v41H131z"/><ellipse cx="187" cy="42" fill="#e0e0e0" rx="75" ry="4"/><circle r="1" fill="#fff" transform="rotate(91.1 81.5 138.8) scale(28.44208 10.86045)"/><path fill="#e2e2e2" d="M175 199h25v26h-25z"/><path fill="#fff" d="M140 50h55v36h-55z"/><path fill="#e3e3e3" d="M6 0h4v138H6z"/><path fill="gray" d="M195.5 86l-19 1v-1l19-1z"/><path fill="#fff" d="M39 226h70v30H39z"/><circle r="1" fill="#fff" transform="matrix(-.22554 -7.16194 99.45183 -3.13186 101 151.4)"/><circle r="1" fill="#fff" transform="matrix(-22.6905 -7.95424 6.15242 -17.55058 102.5 92.6)"/><path fill="#e7e7e7" d="M28 141l18-40-7-30z"/><ellipse cx="129" cy="32" fill="#e2e2e2" rx="2" ry="126"/><circle r="1" fill="#fff" transform="rotate(133.6 68.1 169.3) scale(25.04471 45.74955)"/><path fill="#fff" d="M172 93h23v46h-23z"/><ellipse cx="239" cy="131" fill="#fff" rx="2" ry="115"/><path fill="#fff" d="M10 50h25v58H10z"/><ellipse cx="74" fill="#d5d5d5" rx="70" ry="1"/><path fill="#fff" d="M3.8 35.4l15-19.7L-16-16 3.5 151.2z"/><path fill="#f5f5f5" d="M29.3 85.3l63.8-49.9 13.6 17.3-63.8 49.9z"/><ellipse cx="205" cy="114" fill="#c3c3c3" rx="1" ry="28"/><ellipse cx="108" cy="38" fill="#cdcdcd" rx="1" ry="23"/><ellipse cx="232" cy="122" fill="#d9d9d9" rx="1" ry="79"/><circle r="1" fill="#fff" transform="matrix(66.3003 -4.20482 .42159 6.64744 204 150.8)"/><path fill="#ddd" d="M11 125h75v2H11z"/><path fill="#fff" d="M6.6 109.9l24.3 2.8.7-80.1 50.9 1.9zm115.9-4.5l-80.7 21.1-4-7.4 84.8-69.6z"/><path fill="#868686" d="M171.8 88.6l-.3-1 8.7-2.2.3 1z"/><ellipse cx="160" cy="2" fill="#cfcfcf" rx="1" ry="34"/><ellipse cx="68" cy="99" fill="#e1e1e1" rx="64" ry="1"/><path fill="#f2f2f2" d="M157 48h14v85h-14z"/><path fill="#d6d6d6" d="M60.6 91l88.2-68.9.6.8-88.2 69z"/><path fill="#e5e5e5" d="M28 85h84v2H28z"/><circle r="1" fill="#e9e9e9" transform="matrix(-.8941 -1.16532 58.8299 -45.13805 101.2 30.6)"/><path fill="#e2e2e2" d="M2 72h82v2H2z"/><ellipse cx="117" cy="151" fill="#fff" rx="242" ry="8"/><path fill="#d6d6d6" d="M198.6-25.5h1l-2.2 61h-1z"/><path fill="#e7e7e7" d="M17.6 139.1l-8.2-9.6 28.6-.1-2.4 23.1z"/><path fill="#fff" d="M148 74l11 61-22 1zM40 227h203v29H40z"/><ellipse cx="108" cy="193" fill="#cecece" rx="1" ry="33"/><path fill="#e2e2e2" d="M5 112h105v2H5z"/><path fill="#cfcfcf" d="M197 181h2v45h-2z"/><ellipse cx="123" cy="79" fill="#dfdfdf" rx="1" ry="148"/><ellipse cx="9" cy="37" fill="#dbdbdb" rx="1" ry="165"/><ellipse cx="190" fill="#cfcfcf" rx="1" ry="36"/><path fill="#c1c1c1" d="M91 230l-5-1-3 2z"/><ellipse cx="129" cy="64" fill="#fff" rx="1" ry="103"/><ellipse cx="88" cy="9" fill="#cdcdcd" rx="1" ry="23"/><path fill="#dadada" d="M167 0h2v41h-2z"/><ellipse cx="78" cy="195" fill="#d2d2d2" rx="1" ry="31"/><path fill="#e2e2e2" d="M207 0h2v126h-2z"/><path fill="#fff" d="M0 257.5v-57h14v57z"/><ellipse cx="93" cy="195" fill="#d4d4d4" rx="1" ry="31"/><ellipse cx="175" fill="#d0d0d0" rx="1" ry="36"/><ellipse cx="68" cy="46" fill="#e1e1e1" rx="64" ry="1"/><path fill="#dfdfdf" d="M48 162h2v64h-2z"/><path fill="#fff" d="M233 83l-23 5 2-69z"/><path fill="#e7e7e7" d="M0 59h118v2H0z"/><path fill="#d6d6d6" d="M30.5-4.4l-2 36.9h-1l2-37z"/><path fill="#dbdbdb" d="M144.2 35.4l2.6-36.9h1l-2.6 37z"/><path fill="#d8d8d8" d="M125 108h4v34h-4z"/><path fill="#e6e6e6" d="M235.7 46.5l-37 2-.4-7 37-2z"/><path fill="#e0e0e0" d="M242 31h1v112h-1z"/><path fill="#ccc" d="M98 27L97 1h1l1 26z"/><ellipse cx="133" cy="115" fill="#e1e1e1" rx="1" ry="85"/><path fill="#e4e4e4" d="M199 46h2v95h-2z"/><path fill="#f3f3f3" d="M211 87h21v51h-21z"/><path fill="#dcdcdc" d="M217 0h2v33h-2z"/><ellipse cx="31" cy="147" fill="#7b7b7b" rx="3" ry="1"/><path fill="#d6d6d6" d="M48 70h2v33h-2z"/><path fill="#fff" d="M192.3 126.4l-18.7-15.9 10.2-27.7 8.7 19.1z"/><ellipse cx="138" cy="87" fill="#e2e2e2" rx="1" ry="139"/><ellipse cx="81" cy="160" fill="#f1f1f1" rx="177" ry="2"/><path fill="#d8d8d8" d="M88 160h1v44h-1z"/><path fill="#ececec" d="M129 126h67v6h-67z"/><path fill="#dcdcdc" d="M182.7 35h-1l1.6-46h1z"/><ellipse cx="118" fill="#cfcfcf" rx="1" ry="32"/><path fill="#888" d="M23 255h5v1h-5z"/><circle r="1" fill="#e9e9e9" transform="rotate(91.5 119 116) scale(177.70207 1)"/><ellipse cx="63" cy="192" fill="#d7d7d7" rx="1" ry="34"/><path fill="#d6d6d6" d="M118 161h1v44h-1z"/></g></g></svg>