<svg xmlns="http://www.w3.org/2000/svg" viewBox="0 0 1200 1161"><defs/><filter id="a"><feGaussianBlur stdDeviation="12"/></filter><rect width="100%" height="100%" fill="#930508"/><g filter="url(#a)"><g fill-opacity=".5" transform="translate(2.3 2.3) scale(4.6875)"><circle cx="107" cy="154" r="214" fill="#fff"/><circle cx="164" cy="89" r="228" fill="#fff"/><circle cx="158" cy="123" r="200" fill="#fff"/><circle r="1" fill="#fbffff" transform="matrix(35.56224 -183.73362 170.74125 33.04753 133.3 119.4)"/><ellipse cx="233" cy="71" fill="#a16b6d" rx="2" ry="134"/><ellipse cx="100" cy="113" fill="#b71b2f" rx="1" ry="161"/><ellipse cx="33" cy="88" fill="#c4273d" rx="1" ry="163"/><path fill="#666e7b" d="M164 12h72v3h-72z"/><ellipse cx="122" cy="114" fill="#db162c" rx="1" ry="133"/><ellipse cx="56" cy="159" fill="#e39da4" rx="2" ry="165"/><ellipse cx="144" cy="214" fill="#d13342" rx="1" ry="201"/><ellipse cx="115" fill="#fff" rx="255" ry="12"/><ellipse cx="167" cy="103" fill="#d96772" rx="1" ry="148"/><ellipse cx="22" cy="102" fill="#845d6e" rx="2" ry="19"/><ellipse cx="189" cy="189" fill="#d31923" rx="1" ry="176"/><ellipse cx="255" cy="113" fill="#fff" rx="22" ry="246"/><ellipse cx="211" cy="73" fill="#dd2438" rx="1" ry="151"/><ellipse cx="11" cy="242" fill="#de2534" rx="1" ry="231"/><ellipse cx="222" cy="169" fill="#ba5d73" rx="1" ry="81"/><ellipse cx="121" cy="189" fill="#a8b7d2" rx="115" ry="2"/><ellipse cx="77" cy="62" fill="#dea1a7" rx="2" ry="223"/><ellipse cx="66" cy="145" fill="#f9fefe" rx="11" ry="246"/><ellipse cx="81" cy="89" fill="#7084a2" rx="153" ry="1"/><ellipse cx="200" cy="103" fill="#8a0826" rx="1" ry="12"/><path fill="#80334a" d="M22 162h2v51h-2z"/><circle r="1" fill="#fff" transform="matrix(-9.60397 -2.68802 25.1605 -89.89535 231.9 231.4)"/><path fill="#fff" d="M12 6h10v241H12z"/><path fill="#9c909b" d="M155 15h2v95h-2z"/><ellipse cx="44" cy="206" fill="#b57590" rx="1" ry="42"/><path fill="#920013" d="M200 165h1v53h-1z"/><ellipse cx="233" cy="94" fill="#bb4043" rx="1" ry="84"/><path fill="#fff" d="M246.1 9.4L67.3 12.8 18.4 24.5 1.2-16zM212 121h44v39h-44z"/><path fill="#a69aa5" d="M44 18h2v104h-2z"/><path fill="#fff" d="M33.7 262l21.6-21.1-6.5-27-13.1-.8z"/><ellipse cx="111" cy="176" fill="#c9546f" rx="1" ry="37"/><path fill="#fff" d="M148 111h40v58h-40z"/><path fill="#be6d8f" d="M177 171h2v47h-2z"/><path fill="#8a8685" d="M52 65h38v2H52z"/><path fill="#a56e80" d="M111 90h2v31h-2z"/><ellipse cx="73" cy="34" fill="#777573" rx="27" ry="1"/><ellipse cx="55" cy="59" fill="#da707b" rx="1" ry="214"/><ellipse cx="166" cy="128" fill="#da8590" rx="1" ry="118"/><path fill="#9d5073" d="M65.6 200l1.8-26h1l-1.8 26z"/><ellipse cx="202" cy="75" fill="#717271" rx="34" ry="1"/><ellipse cx="133" cy="101" fill="#6b0c42" rx="1" ry="13"/><path fill="#9f9e9c" d="M52 40h43v2H52z"/><path fill="#6a7b8f" d="M37.6 20.2l.4 1-15.6 6.6-.4-1z"/><path fill="#bdc5d4" d="M140.5 175.1l-19.8-13-34.1 3.2 64.6 4.3z"/><path fill="#ca2c4d" d="M89.9 207h-1l-.8-42h1z"/><ellipse cx="99" cy="212" fill="#b0c2de" rx="79" ry="2"/><ellipse cx="83" cy="181" fill="#fff" rx="5" ry="114"/><circle r="1" fill="#99a4b5" transform="rotate(101.9 53.8 134.9) scale(1 37.12718)"/><circle r="1" fill="#fff" transform="matrix(-2.8921 14.4735 -73.90534 -14.76774 198.8 237.4)"/><path fill="#7c8ba6" d="M103.2 162.9l.3.9-38.7 13.3-.3-.9z"/><path fill="#d76984" d="M155 172h2v34h-2z"/><path fill="#fff" d="M102 119h19v41h-19z"/><path fill="#7f8ca3" d="M24.8 117.7l22.1-6.4.3 1-22.1 6.4z"/><path fill="#b77874" d="M77 12h2v70h-2z"/><path fill="#c1c2d0" d="M39 114.6l39.9-12 39.9 25.2-52.4-26.4z"/><ellipse cx="5" cy="143" fill="#fff" rx="5" ry="237"/><ellipse cy="118" fill="#b6bdbd" rx="1" ry="129"/><path fill="#fff" d="M23 189h10v56H23zM212 18h18v56h-18z"/><path fill="#9da8a6" d="M53 39h2v42h-2z"/><ellipse cx="128" cy="201" fill="#fff" rx="5" ry="246"/><path fill="#fff" d="M191 115h18v53h-18z"/><path fill="#e92e3d" d="M133 170h1v40h-1z"/><path fill="#fff" d="M38 114h17v51H38z"/><path fill="#90a3bc" d="M235 160.8l.3 1-72.4 15.4-.2-1z"/><circle cx="40" r="23" fill="#fcffff"/><ellipse cx="247" cy="24" fill="#fff" rx="13" ry="221"/><ellipse cx="139" cy="223" fill="#feffff" rx="5" ry="216"/><ellipse cx="150" cy="185" fill="#fff" rx="5" ry="246"/><path fill="#a8afc0" d="M168.6 176.8l-41.6-8-22.1-5.8 26.4 3.8z"/><ellipse cx="115" cy="145" fill="#fff" rx="4" ry="99"/><path fill="#939aa9" d="M161.1 103.8l.2 1-58.4 13.4-.2-1z"/><ellipse cx="94" cy="213" fill="#fff" rx="5" ry="122"/><path fill="#a0aec0" d="M57 171.7l-29.9-10.5-11.6 3 21.6 1.9z"/><ellipse cx="106" cy="124" fill="#fff" rx="4" ry="183"/><path fill="#c64b70" d="M88.3 118l.4-28h1l-.4 28z"/><path fill="#f9fdff" d="M257.7 12l-58.9.7-34.6-.6L271-16z"/><path fill="#a09f9d" d="M105 79h50v2h-50z"/><path fill="#8c8f8e" d="M108 164h2v22h-2z"/><path fill="#fff" d="M168 16h16v58h-16z"/><path fill="#abb0bb" d="M52 88h180v2H52z"/><ellipse cx="123" cy="32" fill="#be928c" rx="2" ry="17"/><ellipse cx="122" fill="#d3d5d5" rx="123" ry="1"/><ellipse cx="178" cy="89" fill="#99678a" rx="1" ry="19"/><path fill="#fff" d="M158 19h8v84h-8z"/><ellipse cx="56" cy="195" fill="#e7a0a6" rx="1" ry="161"/><path fill="#7f8a97" d="M154 12h15v3h-15z"/><path fill="#eb8193" d="M78 76h1v171h-1z"/><path fill="#fff" d="M57 111h20v58H57z"/><path fill="#a6adad" d="M83 40h2v27h-2z"/><ellipse cx="49" cy="163" fill="#fff" rx="4" ry="193"/><ellipse cx="145" cy="66" fill="#e9adb2" rx="1" ry="218"/><ellipse cx="217" cy="159" fill="#fff" rx="5" ry="138"/><path fill="#acbfdd" d="M170.9 214.2l-5-2.8 55.8 11.8.9 2.3z"/><ellipse cx="135" cy="32" fill="#b5bcbc" rx="2" ry="19"/></g></g></svg>