<svg xmlns="http://www.w3.org/2000/svg" viewBox="0 0 1200 723"><defs/><filter id="a"><feGaussianBlur stdDeviation="12"/></filter><rect width="100%" height="100%" fill="#626262"/><g filter="url(#a)"><g fill-opacity=".5" transform="translate(2.3 2.3) scale(4.6875)"><circle cx="72" cy="108" r="214" fill="#fff"/><circle cx="163" cy="70" r="195" fill="#fff"/><circle cx="150" cy="40" r="199" fill="#fff"/><circle r="1" fill="#cbcbcb" transform="matrix(2.05955 -45.77189 87.4648 3.93557 133.9 73)"/><circle r="1" fill="#fff" transform="rotate(-104.8 37.4 36.6) scale(233.24573 55.44485)"/><circle r="1" fill="#fff" transform="rotate(-70.7 118.5 -139.4) scale(35.49347 70.79743)"/><circle r="1" fill="#fff" transform="matrix(-118.07283 48.53426 -17.74001 -43.15742 210.6 145)"/><circle r="1" fill="#aaa" transform="matrix(-41.332 21.18083 -2.99825 -5.85075 146.7 99.5)"/><circle r="1" fill="#fff" transform="matrix(105.11326 -51.09436 13.70813 28.20088 52.4 0)"/><path fill="#c8c8c8" d="M51.9 34.2L65 48 34 77.8 21 64z"/><path fill="#b3b3b3" d="M68.5 88.1L177 33.2l-48.5 37.7-69.9 31.8z"/><circle r="1" fill="#fff" transform="matrix(-101.55835 -53.34462 17.7546 -33.80149 59.1 136)"/><path fill="#bcbcbc" d="M229 52l21 28-78-3z"/><circle r="1" fill="#fff" transform="matrix(56.38228 23.3543 -16.2551 39.2433 221.8 8.2)"/><circle r="1" fill="#f7f7f7" transform="matrix(4.44252 10.57281 -33.9261 14.2552 160.1 71.4)"/><circle r="1" fill="#fff" transform="matrix(90.1118 -34.41035 7.6805 20.11322 229 130.2)"/><path fill="#afafaf" d="M109.4 26.3l9.5 3.1 71.7 37-96.1-55.3z"/><path fill="#fcfcfc" d="M88 87h39v18H88z"/><circle r="1" fill="#f5f5f5" transform="matrix(4.18087 -13.92141 22.19422 6.66536 95.2 46.3)"/><path fill="#d4d4d4" d="M174.5 90.3l53.2-6.6-112.9 58.5 1.5-24.4z"/><path fill="#afafaf" d="M126 23L105 5l42 20z"/><path fill="#aaa" d="M28.4 56.7l1.3-2.7 42 21.3-1.4 2.7z"/><ellipse cx="147" cy="126" fill="#a3a3a3" rx="2" ry="20"/><path fill="#fff" d="M271-6l-8 75L111-5z"/><circle r="1" fill="#b3b3b3" transform="matrix(-21.86275 -12.45872 1.12203 -1.96896 60.9 59)"/><path fill="#a7a7a7" d="M194 76h3v43h-3z"/><path fill="#ababab" d="M158 73h3v63h-3z"/><path fill="#919191" d="M51 77h2v30h-2z"/><circle r="1" fill="#bdbdbd" transform="matrix(.4949 -.86895 59.19428 33.7134 149 17.5)"/><ellipse cx="135" cy="126" fill="#b0b0b0" rx="2" ry="41"/><path fill="#fff" d="M84.6 60.8l1.7 8.5L9 28.5-4.8 16.9z"/><path fill="silver" d="M60.7 21.4L118 53.1l-6.1-6.3-24.5-14.3z"/><path fill="#a2a2a2" d="M19 64h3v25h-3z"/><path fill="#bebebe" d="M139.2 53.1l-19.5-15.5L80.4 16l17.2 15.9z"/><path fill="#fff" d="M-16-15V85L118-16z"/><path fill="#a9a9a9" d="M164 16h3v35h-3z"/><ellipse cx="171" cy="115" fill="#a5a5a5" rx="2" ry="19"/><path fill="#b2b2b2" d="M206 70h3v43h-3z"/><path fill="#c2c2c2" d="M107.3 104.7l-60-42.8 54.1 42.9 4.8 40.1z"/><path fill="#b6b6b6" d="M221 58.6l-2 4.1-19.2-5.8-22.9 35.5z"/><path fill="#fff" d="M147 155l-163-2 3-77zM115 27.6l11.9 8 1.6 6.3-22.1-11.7z"/><path fill="#a3a3a3" d="M117 0h3v27h-3z"/><path fill="#a2a2a2" d="M45 36.9l1-1.7 53 32-1 1.6z"/><path fill="#b9b9b9" d="M90 89l-11 12-25-13z"/><ellipse cx="78" cy="107" fill="#adadad" rx="2" ry="15"/><path fill="#9c9c9c" d="M230 77h3v18h-3z"/><path fill="#aeaeae" d="M83 43L71 33l-8 1z"/><path fill="#a5a5a5" d="M183 75h2v51h-2z"/><ellipse cx="82" cy="48" fill="#bdbdbd" rx="2" ry="33"/><path fill="#cacaca" d="M148.9 78.1l-65.2 4.8 43.6 18.8L73 67.2z"/><ellipse cx="33" cy="48" fill="#fff" rx="3" ry="153"/><path fill="#bababa" d="M49.7 77.6L3.8 53.2l.5-.8 45.9 24.4z"/><ellipse cx="2" cy="47" fill="#fff" rx="17" ry="153"/><circle r="1" fill="#fff" transform="rotate(122.2 57.5 49.2) scale(2.42838 20.00992)"/><path fill="#aaa" d="M125.4 16.3l45.8 28.6-.6.8-45.8-28.6z"/><path fill="#fff" d="M99.3 63.3l-23-12.9-63.2-28.5 75 28.8zM249 15h7v139h-7z"/><circle r="1" fill="#fff" transform="matrix(132.702 -60.79414 10.91286 23.82068 235.9 129.8)"/><path fill="#d4d4d4" d="M251 64l-8 28-17-40z"/><path fill="#a0a0a0" d="M218 85h2v21h-2z"/><path fill="#fff" d="M109 110V92l-22 11z"/><path fill="#b3b3b3" d="M112.6 101.8l5.8 41.1.5-20.1-8.4-13.5z"/><path fill="#bbb" d="M96.1 82.8l42.7-32.4 28.5-13 8.8 4.9z"/><path fill="#a5a5a5" d="M27.2 63.7l1-.2 2.6 18.8-1 .2z"/><ellipse cx="58" cy="45" fill="#b2b2b2" rx="2" ry="17"/><path fill="#fff" d="M199 55l-19-11 18 3zm9.6-.8l.4-1 42.4 22.6-.4 1z"/><path fill="#fbfbfb" d="M195 83h19l1 12z"/><path fill="#9c9c9c" d="M96 12.5l.9.1-2.8 22.9-1-.1z"/><path fill="#fff" d="M156 32.2l-34.6-20 2.5-4.4 34.7 20z"/><path fill="#fff" d="M118.9-15.9l44.7-.1 5.5 55.7 15-7.2z"/><path fill="#a8a8a8" d="M98.6 52L59 32.9l.4-.9L99 51.2z"/><path fill="#919191" d="M179 35h2v13h-2z"/><circle r="1" fill="#bababa" transform="matrix(.50186 -.86495 25.12833 14.58006 165.6 66)"/><path fill="#9d9d9d" d="M111 51h2v24h-2z"/><path fill="#fff" d="M239 79l-13-3 1-9z"/><path fill="#a2a2a2" d="M63 76h2v27h-2z"/><path fill="#b4b4b4" d="M100.5 111.2l1-1.6 34 21.2-1 1.6z"/><path fill="#bdbdbd" d="M109.4 21.6l94.7 50.5-12.5-2.8-15.5-9z"/><path fill="#fff" d="M176 61h5v16h-5z"/><ellipse cx="150" cy="115" fill="#fff" rx="2" ry="14"/><ellipse cx="162" cy="42" fill="#fdfdfd" rx="2" ry="107"/><path fill="#c2c2c2" d="M139.6 86.2L115 68l40.1 16.5-29.8-17.1z"/><path fill="#b1b1b1" d="M231 71h2v31h-2z"/><path fill="#b8b8b8" d="M136 93l18 7 39-25z"/><path fill="#fefefe" d="M-1.5 61.9l45.2-11.1 36.9 27.3-73.7-38z"/><path fill="#a5a5a5" d="M160.4 74.2l-.5 1-22.3-11.4.5-1z"/><path fill="#b3b3b3" d="M36 45h3v29h-3z"/><path fill="#fdfdfd" d="M199.7 96.1l11.3 27.4-22.4-36.8 12.6 5.6z"/><path fill="#b4b4b4" d="M124.7 107.1l-6.3-12.2 4.6 35.6 1.7-9.9z"/><path fill="#fff" d="M97.7 31.4l25 12.7-2.4 4.5-25-12.7zM-11-3l9 59L129-5z"/><ellipse cx="46" cy="50" fill="#adadad" rx="2" ry="15"/><path fill="#aeaeae" d="M69.8 53V24.7l43 22.3-40.5-20.6z"/><path fill="#a7a7a7" d="M141 25h2v34h-2z"/><path fill="#fff" d="M109.1 46.5L99 53.6 75.1 29.7 72.4 35z"/><path fill="#aeaeae" d="M52 87.4l.5-.9 71.5 38-.5 1z"/><ellipse cx="201" cy="85" fill="#adadad" rx="2" ry="12"/><path fill="#acacac" d="M111.4 78.5l21.8 14.2-.6.8-21.8-14.2z"/></g></g></svg>