<svg xmlns="http://www.w3.org/2000/svg" viewBox="0 0 1200 859"><defs/><filter id="prefix__a"><feGaussianBlur stdDeviation="12"/></filter><rect width="100%" height="100%" fill="#272a71"/><g filter="url(#prefix__a)"><g transform="translate(2.3 2.3) scale(4.6875)"><circle cx="168" cy="124" r="211" fill="#fff" fill-opacity=".5"/><circle cx="95" cy="160" r="254" fill="#fff" fill-opacity=".5"/><circle cx="119" cy="84" r="182" fill="#fff" fill-opacity=".5"/><circle cx="132" cy="96" r="170" fill="#fff" fill-opacity=".5"/><circle r="1" fill="#c9d3e9" fill-opacity=".5" transform="rotate(76.6 3.1 122.9) scale(23.5939 50.45051)"/><circle r="1" fill="#fff" fill-opacity=".5" transform="matrix(4.0051 59.8933 -254.43177 17.01402 200 20)"/><circle r="1" fill="#fff" fill-opacity=".5" transform="matrix(-101.61833 -93.22343 22.88395 -24.94468 219.6 71.3)"/><circle r="1" fill="#fff" fill-opacity=".5" transform="rotate(-83.9 36 7.7) scale(255 27.75416)"/><circle r="1" fill="#fff" fill-opacity=".5" transform="matrix(.92265 -26.14577 169.59535 5.9848 161.5 180.9)"/><path fill="#dae1ed" fill-opacity=".5" d="M21 127l162-42-53-51z"/><path fill="#bcc6e2" fill-opacity=".5" d="M224.2 129.6l7 9.7-23.4 17-7-9.6z"/><path fill="#fff" fill-opacity=".5" d="M149.4 109l24.7 31.4-31.5 24.7-24.7-31.5z"/><path fill="#a6b0e2" fill-opacity=".5" d="M170 92l-10-15-19 18z"/><path fill="#d3dce9" fill-opacity=".5" d="M133.1 169.6l63.4-30.3-58.2 22.3-75-81z"/><circle r="1" fill="#fff" fill-opacity=".5" transform="matrix(38.97417 -28.20147 52.84695 73.03398 224.2 53)"/><path fill="#acb8e0" fill-opacity=".5" d="M204.8 160.1l-48.3-43.5.7-.7 48.3 43.5z"/><path fill="#c6cfe5" fill-opacity=".5" d="M231.2 164l1.5 12-16 2-1.4-12z"/><path fill="#fff" fill-opacity=".5" d="M174.5 93l38.8 49.7-15.8 12.3-38.8-49.7z"/><path fill="#d3dbeb" fill-opacity=".5" d="M68 128l107-42-49 40z"/><path fill="#bec5e6" fill-opacity=".5" d="M113 79l-49 27 51-12z"/><path fill="#e9f0f3" fill-opacity=".5" d="M19 108l97-48-83 79z"/><circle r="1" fill="#fff" fill-opacity=".5" transform="matrix(45.7477 22.18594 -27.13203 55.9466 45 31)"/><path fill="#f7f9fa" fill-opacity=".5" d="M128.4 93l64.1-54.6-78.9 75 6.4-52.3z"/><circle r="1" fill="#cfd7e8" fill-opacity=".5" transform="rotate(153.8 12.6 28.6) scale(29.31045 1)"/><path fill="#dce2ec" fill-opacity=".5" d="M125.9 54.4l-27.5 50.8 34.2-67.4L91.9-2.7z"/><path fill="#aab1e3" fill-opacity=".5" d="M107 116l16-3 11-14z"/><path fill="#d0d8e8" fill-opacity=".5" d="M173.8 140.4l45.5 15.5 19.4 1.6-41.3.5z"/><circle r="1" fill="#fff" fill-opacity=".5" transform="matrix(-10.58639 -49.38107 14.89317 -3.19282 14.2 144.5)"/><path fill="#b9c5de" fill-opacity=".5" d="M59 177h24v3H59z"/><path fill="#d8dfec" fill-opacity=".5" d="M28.5 133l5.3-2.7L51.5 165l-5.3 2.7z"/><path fill="#d5deea" fill-opacity=".5" d="M15.4 90l16.7 37.8-48.1-92v-5.1z"/><path fill="#f8fbf9" fill-opacity=".5" d="M105.1 94.3l-39.2 40.5-13.4-72 13.3 45.9z"/><circle r="1" fill="#b7c5e3" fill-opacity=".5" transform="matrix(9.76212 8.60646 -1.06437 1.2073 154.5 111.8)"/><circle r="1" fill="#d8dee8" fill-opacity=".5" transform="matrix(-75.4701 -68.64998 .6729 -.73974 216.6 115.7)"/><circle r="1" fill="#f9fcf9" fill-opacity=".5" transform="rotate(58 -45.8 167.6) scale(2.61316 19.53084)"/><path fill="#c5cce6" fill-opacity=".5" d="M65.8 93.3l5-19.6 1.1 21.2L47.3 88z"/><path fill="#c3cae7" fill-opacity=".5" d="M129 80l10-7-8 32z"/><path fill="#fff" fill-opacity=".5" d="M271 170.4l-43.4-28.6 4.8 22.6-10.6 33.6z"/><circle r="1" fill="#fff" fill-opacity=".5" transform="matrix(23.61951 -16.7108 12.49278 17.65764 191.2 182)"/><path fill="#fbfefd" fill-opacity=".5" d="M25.2 176.3l93.3 3.4-24.1-74.3 2.1 18.3z"/><path fill="#fff" fill-opacity=".5" d="M104 4l167 159L258 0z"/><path fill="#bdc7e4" fill-opacity=".5" d="M88 145h12v5H88z"/><path fill="#bac3e0" fill-opacity=".5" d="M77 56.6l17.4-10 .5.8-17.3 10z"/><path fill="#cfd8ea" fill-opacity=".5" d="M139 167l-19 1-8 9z"/><path fill="#fffffa" fill-opacity=".5" d="M113.8 26.8L72.4-16l31 27.6 73.3 70.6z"/><path fill="#bfcae1" fill-opacity=".5" d="M159 161h17v4h-17z"/><path fill="#d9e1eb" fill-opacity=".5" d="M28.6 104.8l20.3-8.7 19.3 30.3-12-11z"/><path fill="#d6dceb" fill-opacity=".5" d="M250.3 154.9L234 144.8l-29.8-7.9 16.6-9.9z"/><path fill="#c5cde8" fill-opacity=".5" d="M142.1 100.1l50.1 48.5 10 11.5-16.6-12.8z"/><path fill="#c0c8e1" fill-opacity=".5" d="M112.8 55.4l10.9 15.5-2.5 1.7-10.9-15.5z"/><path fill="#fefffe" fill-opacity=".5" d="M74 101l39-56-39 11z"/><circle r="1" fill="#fff" fill-opacity=".5" transform="matrix(-9.0428 17.97962 -16.3381 -8.2172 145.2 133)"/><path fill="#fff" fill-opacity=".5" d="M146.7 167.4l-69.2 22.4 55.6.1 103.2-21.8z"/><path fill="#b3bdde" fill-opacity=".5" d="M155 132l-6-1-4 4z"/><path fill="#a5acde" fill-opacity=".5" d="M121 121h5v6h-5z"/><path fill="#d5daec" fill-opacity=".5" d="M129.6 39.3l-7.8-2.1 13.6 8.9-33.4 8.5z"/><path fill="#d2d9e7" fill-opacity=".5" d="M56.8 36.7l9 4.9L76.6 51l.8 3.7z"/><path fill="#b5bde5" fill-opacity=".5" d="M50.8 142.4l-.4-1 50.8-25.8.4 1z"/><path fill="#fffffc" fill-opacity=".5" d="M159 76l-18-2-5 14z"/><path fill="#fff" fill-opacity=".5" d="M-3.8 70.4l79 161.8-23.4 11.4-79-161.8z"/><circle r="1" fill="#fff" fill-opacity=".5" transform="matrix(-16.6325 -14.50945 16.45136 -18.85855 35 77.2)"/><path fill="#b1bde5" fill-opacity=".5" d="M187 140l-37.5 19-.4-1 37.4-19z"/><path fill="#fff" fill-opacity=".5" d="M136.5 156.7l-22.1-19.5-5.1-21.1 49 37.3z"/><path fill="#d0d8eb" fill-opacity=".5" d="M57 114.4l28.7-13-35.3 9.9-14 15.9z"/><path fill="#dde5eb" fill-opacity=".5" d="M170.3 84l51.6 51.7-4.2 4.2L166 88.3z"/><path fill="#fffffe" fill-opacity=".5" d="M65 90l-14 16 20-4z"/><path fill="#fff" fill-opacity=".5" d="M67-16l-83 54 133-4zm94 179.8l22.5-21-82.3-42.3 89.1 50.7z"/><path fill="#cfd7e8" fill-opacity=".5" d="M103.7 65.8l-3-.4-22.9 10.5-11.5 6.4z"/><circle r="1" fill="#dfe7ed" fill-opacity=".5" transform="rotate(-117 31.5 42) scale(44.9657 1)"/><circle r="1" fill="#dce2ec" fill-opacity=".5" transform="rotate(42.9 -45 326) scale(57.60737 1)"/><path fill="#c2c9e8" fill-opacity=".5" d="M111 118l-1-16H93z"/><circle r="1" fill="#d7dee9" fill-opacity=".5" transform="rotate(-45.9 162 -44) scale(2.69531 28.36197)"/><path fill="#99abd9" fill-opacity=".5" d="M173.9 120.9l-.3-1 8.5-2.8.3 1z"/><path fill="#fff" fill-opacity=".5" d="M155.5 108.7l15.7 15.9 11.6-20.7-29-4.2z"/><path fill="#bbc4e8" fill-opacity=".5" d="M61.6 90l-.4-1 43.2-21 .4 1z"/><path fill="#d5dbea" fill-opacity=".5" d="M132.8 67.3l30.6 5.2-53.8-48.4 27.5 28.8z"/><path fill="#bfc7e3" fill-opacity=".5" d="M88 2.2l56.8 54.9-.7.7L87.2 2.9z"/><path fill="#c8cfe7" fill-opacity=".5" d="M115.4 35.6l.4.9-39.2 20-.4-1z"/><path fill="#fffffe" fill-opacity=".5" d="M112.1 141l11.9 25.5-18.1 8.4L94 149.5z"/><path fill="#f0f3f7" fill-opacity=".5" d="M107.6 101l6.1 9.6 37.4-18-6.8 6.5z"/><path fill="#fff" fill-opacity=".5" d="M69.4 87.6l48.1-17.4-20.3-21.1 12.4 20.1z"/><path fill="#f7fbf6" fill-opacity=".5" d="M130.8 44.2l-11.5 9.4 10.4-7.4 50 45.6z"/><path fill="#fafef8" fill-opacity=".5" d="M234.7 146.2L200 108.6l-19.6-15.4 15.4 17.2z"/><path fill="#fff" fill-opacity=".5" d="M271 184.3l-40.7-42.9-21.2 15.5 21.3-4.6z"/><path fill="#c4cbe7" fill-opacity=".5" d="M127 125l10-13-14 9z"/><path fill="none" stroke="#c9d1e8" stroke-opacity=".5" stroke-width=".5" d="M-11.3 72.3Q-1.8 66 57 39.4"/><path fill="#fff" fill-opacity=".5" d="M174 126.3l19.9 25.1 14-14.6-13.9-17.5z"/><path fill="#d3d9ea" fill-opacity=".5" d="M211.5 158.2l-28.4-13.6 11.6 3.4 21.8-13z"/><path fill="#a5ade2" fill-opacity=".5" d="M142 88h18v4h-18z"/><path fill="#fff" fill-opacity=".5" d="M134.5 60.6l-12.9 7.7-4-6.9 12.8-7.7z"/><circle r="1" fill="#fdfffb" fill-opacity=".5" transform="rotate(-29.8 389.4 -281.8) scale(32.50422 1)"/><ellipse cx="139" cy="105" fill="#adb3e4" fill-opacity=".5" rx="3" ry="5"/><path fill="#cfd5ea" fill-opacity=".5" d="M170.4 67.6l-62.7 27.2 21-11 1.6 3.9z"/><path fill="#fff" fill-opacity=".5" d="M144.7 105.1l-25.6 34.4 42.4-9.6 23.6 15.4z"/><circle r="1" fill="#a9afdc" fill-opacity=".5" transform="rotate(169.2 98.6 84.4) scale(2.85849 3.8177)"/><path fill="#bdc5e8" fill-opacity=".5" d="M113.6 83.7L81.8 98.5l29.6-18 8.5 35.7z"/><path fill="#fffff8" fill-opacity=".5" d="M137 95h8v7h-8z"/><path fill="#adbadf" fill-opacity=".5" d="M214 156h15v2h-15z"/><path fill="#c7cee7" fill-opacity=".5" d="M106.4 132.5l12.4 18.5 5.2-3.5 4.8 14.6z"/></g></g></svg>