<svg xmlns="http://www.w3.org/2000/svg" viewBox="0 0 940 1200"><defs/><filter id="a"><feGaussianBlur stdDeviation="12"/></filter><rect width="100%" height="100%" fill="#393c39"/><g filter="url(#a)"><g fill-opacity=".5" transform="translate(2.3 2.3) scale(4.6875)"><circle cx="94" cy="138" r="190" fill="#fff"/><circle cx="84" cy="74" r="217" fill="#fff"/><circle cx="164" cy="126" r="211" fill="#e3f8e4"/><ellipse cx="58" cy="145" fill="#9dbd9e" rx="27" ry="112"/><ellipse cx="94" cy="5" fill="#fff" rx="200" ry="30"/><ellipse cx="191" cy="198" fill="#fff" rx="24" ry="143"/><ellipse cx="143" cy="142" fill="#a6c2a7" rx="26" ry="113"/><ellipse cx="9" cy="107" fill="#fffcff" rx="25" ry="212"/><circle r="1" fill="#899b89" transform="matrix(.01268 -4.95125 115.40555 .2955 94.4 51)"/><path fill="#4f3e4e" d="M33 167h8v49h-8z"/><circle r="1" fill="#a6c6a7" transform="rotate(93.3 -54.5 161) scale(26.25624 48.06605)"/><ellipse cx="101" cy="72" fill="#b6dcb7" rx="45" ry="38"/><ellipse cy="213" fill="#6d6f6e" rx="62" ry="4"/><ellipse cx="16" cy="173" fill="#5c595c" rx="25" ry="4"/><path fill="#5a555a" d="M135.9 216.7l39 6.3-11.2-18.2-4.9 9.9z"/><path fill="#fff" d="M148 222h53v34h-53z"/><path fill="#777477" d="M7 1h6v59H7z"/><path fill="#574956" d="M141 212h7v44h-7z"/><path fill="#fff6ff" d="M160 132l-5-50-38-10z"/><circle r="1" fill="#fff" transform="matrix(-114.65518 .90743 -.22543 -28.48362 126 6)"/><circle r="1" fill="#fff" transform="rotate(-14.4 975 20) scale(35.65325 15.12022)"/><ellipse cx="200" cy="151" fill="#fff" rx="33" ry="98"/><ellipse cx="191" cy="15" fill="#797279" rx="3" ry="46"/><path fill="#6f7070" d="M173.8 176.6l-12.9 17.5-.3-32.9 11.5 12.6z"/><ellipse cx="7" cy="111" fill="#fff" rx="28" ry="52"/><circle r="1" fill="#fffeff" transform="rotate(51.5 -131 205.1) scale(13.06631 27.89388)"/><path fill="#646065" d="M154.9 120.9l20.6 13.2-13.4 14.1.1-20z"/><path fill="#fff" d="M83 109h37v23H83zm86-55h18v37h-18z"/><path fill="#928591" d="M35 51h6v112h-6z"/><path fill="#625d63" d="M173.2 94.5l-7 4-7.4-13 7-4z"/><path fill="#5f4c5e" d="M33 221h29v5H33z"/><ellipse cx="17" cy="201" fill="#fff" rx="4" ry="148"/><path fill="#7b787b" d="M155.2 244l-1.7 10-22.7-4 1.7-10z"/><path fill="#fff" d="M163 0h26v48h-26z"/><path fill="#6f5f6e" d="M74 244l-16 10-13-13z"/><path fill="#fff" d="M0 251h141v5H0z"/><path fill="#6c6c6c" d="M29 89h12v9H29z"/><path fill="#545154" d="M0 164h1v57H0z"/><path fill="#7a747a" d="M84 176h37v3H84z"/><path fill="#908a91" d="M162 48h6v69h-6z"/><ellipse cx="191" cy="49" fill="#746974" rx="29" ry="3"/><path fill="#b9d8ba" d="M42 35h84v75H42z"/><ellipse cx="98" cy="156" fill="#a19ca1" rx="26" ry="4"/><path fill="#fffeff" d="M56 226l-18 45-48-41z"/><path fill="#5b625c" d="M81.6 198.3l46.9 2.4v1l-47-2.4z"/><ellipse cx="13" cy="50" fill="#6d636d" rx="28" ry="3"/><path fill="#fff" d="M42 38L216 2.7-16 19.4l48.3 29.7z"/><path fill="#5c575c" d="M30 132h10v8H30z"/><path fill="#fff" d="M83 178h31v21H83z"/><circle r="1" fill="#fff" transform="matrix(8.80949 -8.57083 20.50825 21.07932 171 246.8)"/><path fill="#fff" d="M1 53l39 111-44 3z"/><path fill="#211321" d="M120 124h1v35h-1z"/><path fill="#fff" d="M216 112.6l-55.8-8.5 9.6 11.8L194.7 271zM100 115h8v46h-8z"/><ellipse cx="174" cy="32" fill="#fff" rx="45" ry="4"/><path fill="#8b868a" d="M24 209h8v17h-8z"/><path fill="#c5e5c5" d="M63 62h17v182H63z"/><path fill="#fff" d="M2 182h31v26H2zm37-73l-50-77-5 112z"/><path fill="#bfe2c0" d="M141.3 244.4l-23-.8 2.4-66 23 .8z"/><path fill="#7a767a" d="M55 221h8v13h-8z"/><path fill="#463b46" d="M81 140h20v2H81z"/><path fill="#918891" d="M80 106h45v4H80z"/><path fill="#504b50" d="M56 250h7l-4 21z"/><path fill="#737073" d="M139 216h34v6h-34z"/><path fill="#fff" d="M117 159h17v18h-17zm99 51.5l-6.5-156.1-6.2 3.1-40.9 6.4zM38 217h22v4H38z"/><ellipse cx="27" cy="120" fill="#fff" rx="14" ry="4"/><path fill="#fff" d="M17 170l-33-23h59zM0 63h40v19H0z"/><ellipse cx="95" cy="246" fill="#4d434d" rx="3" ry="4"/><path fill="#fffcff" d="M84 109h31v29H84z"/><path fill="#fff" d="M13 4h27v44H13z"/><path fill="#5a555a" d="M148.9 93.6L145 97l-4-4.5 4-3.5z"/><path d="M119.3 186h1l.4 12h-1z"/><path fill="#7e7b7e" d="M187 40h8v19h-8z"/><circle cx="57" cy="51" r="6" fill="#807a7f"/><ellipse cx="91" cy="138" fill="#868885" rx="28" ry="1"/><path fill="#fff" d="M2 4l161-8L50 34z"/><path fill="#bae1bb" d="M156 34h6v153h-6z"/><path fill="#fff" d="M36.6 243l-.2-7 25-1 .2 7zM209 15l-28 9-6-8z"/><path fill="#605361" d="M162 198l4-5 1 7z"/><path fill="#4f504f" d="M8 25h5v4H8z"/><path fill="#fff" d="M130.8 240.9l-4.2 30.1-13.2-33.5-7 33.5zm27.4 1.7l-10 12.3 52.3 16.1L216 158zM165 22h24v26h-24z"/><path fill="#c1e1c1" d="M40 34h15v96H40z"/><path fill="#fff" d="M216 106.7l-14.6-25.6-43.3-8.1 5.4 6.2z"/><path fill="#7f7d7f" d="M-16 226.1l32.1-14.8-31.9-6.8 20.5-32z"/><path fill="#bfddbf" d="M41 66h38v148H41z"/><path fill="#565456" d="M80 243h6v6h-6z"/><path fill="#fff" d="M159.6 163.3l56.4-38.1-53.5-9 37.5 59.1zM0 191l19-21v46z"/><path fill="#4a4b4a" d="M34.5 70.1L36 69l3.4 4.9L38 75z"/><path fill="#fff" d="M216 193.9l-59.4-5.4 17.4 13.1-.4 69.4z"/><path fill="#6f686e" d="M162 166h6v24h-6z"/><path fill="#fff" d="M62 251h78v5H62z"/></g></g></svg>