<svg xmlns="http://www.w3.org/2000/svg" viewBox="0 0 1200 1015"><defs/><filter id="a"><feGaussianBlur stdDeviation="12"/></filter><rect width="100%" height="100%" fill="#32341a"/><g filter="url(#a)"><g fill-opacity=".5" transform="translate(2.3 2.3) scale(4.6875)"><circle r="1" fill="#fff" transform="rotate(87.6 7.8 116) scale(126.8967 254.99999)"/><circle r="1" fill="#fff" transform="matrix(-12.83434 -127.46971 253.7172 -25.54563 145.6 80.7)"/><circle cx="12" cy="91" r="118" fill="#fff"/><path fill="#fff" d="M221 0h35v209h-35z"/><path d="M2 209h244v7H2z"/><circle cx="22" cy="55" r="103" fill="#ffffed"/><circle r="1" fill="#fff" transform="rotate(-88.6 131 52) scale(13.02343 149.62436)"/><ellipse cx="191" cy="7" fill="#fffffb" rx="136" ry="10"/><ellipse cx="200" cy="88" fill="#97cb7f" rx="15" ry="74"/><ellipse cx="139" cy="87" fill="#a2d088" rx="15" ry="76"/><path fill="#ffffef" d="M221 19h35v189h-35z"/><ellipse cx="97" cy="202" fill="#7e8962" rx="28" ry="7"/><path fill="#7bbc72" d="M72.4 155.7L74 144l45.5 6.4L118 162z"/><path fill="#fff" d="M70.3 209.2l-75-1.4.4-23 75 1.4z"/><ellipse cx="168" cy="94" fill="#f1eeca" rx="25" ry="36"/><path fill="#add3a9" d="M123 191h101v17H123z"/><path fill="ivory" d="M161 204h95v4h-95z"/><path fill="#b9d2a1" d="M125 113h36v67h-36z"/><path fill="#f5fef0" d="M145 162L7 165l108 36z"/><circle cx="197" cy="36" r="20" fill="#a0cd91"/><ellipse cx="145" cy="214" fill="#464045" rx="133" ry="7"/><path fill="#ffffea" d="M82 16h189L152-16z"/><path fill="#fff" d="M162 187h21v9h-21z"/><circle cx="197" cy="145" r="20" fill="#a7cc92"/><path fill="#fbfce6" d="M50.1 112.4l57.6-7.9 32.9 38.7-22.9 11.3z"/><path fill="#97c989" d="M160 27l-34-6 32 44z"/><path fill="#fff" d="M223 187h33v17h-33z"/><path fill="#88af89" d="M123 193h38v11h-38z"/><ellipse cx="160" cy="175" fill="#77625e" rx="35" ry="1"/><circle r="1" fill="#fff" transform="matrix(-6.89929 20.61979 -41.33516 -13.83055 23.5 184.3)"/><path fill="#f7f8e6" d="M2 0h123v110H2z"/><path fill="#9ec393" d="M148 43l-28 9 23 66z"/><ellipse cx="233" cy="185" fill="#55ab4a" rx="112" ry="1"/><ellipse cx="168" cy="167" fill="#e8ebc8" rx="63" ry="7"/><path fill="#eef4ca" d="M159 28h24v28h-24z"/><path fill="#a9cfa1" d="M2.7 162.8L109.6 183l-58.1-13.8 20.3 3.1z"/><path fill="#a1c594" d="M121 159l43 5-11-41z"/><ellipse cx="237" cy="179" fill="#7ab667" rx="58" ry="1"/><ellipse cx="200" cy="198" fill="#94b994" rx="21" ry="8"/><path fill="#fffef7" d="M3.2 207.8L-2.5 231-16 123.4l47.4 85.5z"/><path fill="#e8e8c6" d="M171 177l13-48-32-23z"/><path fill="#6c9678" d="M72 197h38v7H72z"/><ellipse cx="216" cy="182" fill="#fff" rx="103" ry="2"/><path fill="#fff" d="M99 148l-5 29-12-11z"/><path fill="#8bbc84" d="M179.7 27.4l38.2 9.9-6.4-9.7L185 16.4z"/><path fill="#fff" d="M127 188l-93-20-33 34z"/><path fill="#9bc894" d="M112.4 166.8l23.4-13.3-62.3-1.9 32.8-8.7z"/><circle r="1" fill="#b7d7a9" transform="rotate(-168.5 40.7 80.7) scale(69.87021 1)"/><path fill="#ebfccf" d="M213 82h6v56h-6z"/><circle r="1" fill="#92c288" transform="rotate(153 96.4 62.8) scale(11.5531 7.7998)"/><ellipse cx="68" cy="206" fill="#faf7e4" rx="35" ry="2"/><path fill="#dadcc3" d="M194 37h9v30h-9z"/><path fill="#f3f7dc" d="M200.8 18.3L156.1-16l52.4 42.3 47.8-8.2z"/><path fill="#e3e0cb" d="M210 94l-69 25 11-32z"/><ellipse cx="136" cy="188" fill="#fff" rx="116" ry="3"/><path fill="#a2c694" d="M183 119h11v46h-11z"/><path fill="#f96046" d="M102.9 210.1l12.8-3.4 1-1.7-21.1 1.4z"/><path fill="#92c38a" d="M89.4 160.7l-5.5-18.6-4.8.7-3.1 15.3z"/><path fill="#f7ffdb" d="M135 19l26 9-9-10z"/><path fill="#f9f9e7" d="M67 167.8L-16 151l96.1-40.6-4.2 37.1z"/><path fill="#a2c494" d="M181 41h34v20h-34z"/><path fill="#7e906a" d="M125 106h1v59h-1z"/><ellipse cx="184" cy="17" fill="#7f9e63" rx="36" ry="1"/><path fill="#ffe" d="M112 206h139v1H112z"/><path fill="#fdf6e3" d="M128 46l-1-10 16 13z"/><path fill="#dedfc3" d="M150.5 53.8l51.5 16-82.4 16.6L204 48.8z"/><path fill="#f3e5d6" d="M135 143h13v6h-13z"/><ellipse cx="207" cy="180" fill="#bbdfb4" rx="82" ry="1"/><path fill="#fdfeeb" d="M121 82h4v88h-4z"/><path fill="#fff" d="M160 186h21v10h-21z"/><path fill="#e1e2c6" d="M152 148h67v4h-67z"/><path fill="#95c08c" d="M166 59l-40 6-2-14z"/><path fill="#fffffa" d="M124 177h103v2H124z"/><ellipse cx="247" cy="215" fill="#4f4c52" rx="17" ry="7"/><path fill="#e3ecd0" d="M127 68h4v52h-4z"/><path fill="#a3cd9b" d="M85.7 176.3l44.8 10.4-.2 1-44.8-10.4z"/><circle cx="136" cy="105" r="9" fill="#93bf8b"/><path fill="#a4c5a6" d="M207.9 189.2l-25.2 11.5 2.9-11.2 11.6.1z"/><path fill="#7c9f65" d="M125 21h1v49h-1z"/><path fill="#fff" d="M97 182l16 18 13-13z"/><path fill="#a8c69d" d="M218 139l-24 18-5-59z"/><path fill="#fffdef" d="M177 206l9-5-22 1z"/><path fill="#eae5cd" d="M198.5 111.3l-13.6 2.3-1.8-2.1 18.4 9.5z"/><path fill="#acbf8e" d="M219 14h2v148h-2z"/><ellipse cx="253" cy="195" fill="#fff" rx="30" ry="8"/><path fill="#97bf91" d="M126 119h29v10h-29z"/><path fill="#e0dfc7" d="M174.8 65.2l24.9.3-29.4 11.3-37.4-14.6z"/><path fill="#dedfc6" d="M143.5 111.4l36.9-99.6-.8 111.5 11.5 18.5z"/><path fill="#a5c59c" d="M114.8 151.1l-18 6.7 3.3 5.8 28.4-5.4z"/><ellipse cx="148" cy="139" fill="#94bf8c" rx="14" ry="5"/><ellipse cx="93" cy="23" fill="#f6f5e8" rx="30" ry="122"/><circle r="1" fill="#bbdab5" transform="matrix(-43.80784 -8.99246 .20108 -.97958 36.2 168.9)"/><ellipse cx="250" cy="28" fill="#f7f7e5" rx="30" ry="151"/><path fill="#a19e99" d="M150 197h54v5h-54z"/><path fill="#e6e4cb" d="M219.2 133l-21.7 3.9-.7-4 21.7-3.8z"/><path fill="#6b916f" d="M113 200.9l12.3-4.5 1.7 4.7-12.3 4.5z"/><circle r="1" fill="#ebe5cf" transform="matrix(-2.65646 -2.64601 2.24846 -2.25734 150.7 41)"/><path fill="#fff" d="M65 201l24-22-105-20z"/><ellipse cy="122" fill="#fff" rx="2" ry="161"/><path fill="#abaea2" d="M155 208h59v1h-59z"/></g></g></svg>