<svg xmlns="http://www.w3.org/2000/svg" viewBox="0 0 1200 800"><defs/><filter id="a"><feGaussianBlur stdDeviation="12"/></filter><rect width="100%" height="100%" fill="#463e3b"/><g filter="url(#a)"><g fill-opacity=".5" transform="translate(2.3 2.3) scale(4.6875)"><circle r="1" fill="#fff" transform="rotate(-83.4 117 -91) scale(56.77801 128.38953)"/><circle r="1" fill="#7c8584" transform="matrix(138.46918 131.05338 -53.94629 56.9989 145.4 127.1)"/><circle r="1" fill="#fff" transform="matrix(99.22601 34.943 -14.5004 41.17612 218.3 22.8)"/><circle r="1" fill="#afb3b6" transform="rotate(-117.3 116.4 34.3) scale(23.50356 56.88594)"/><circle r="1" fill="#f4ffff" transform="matrix(15.53585 -30.04148 86.2715 44.615 201.4 24.4)"/><path fill="#676a74" d="M94 124l63-78-88-62z"/><ellipse cx="10" cy="85" fill="#24211c" rx="27" ry="57"/><circle r="1" fill="#56522c" transform="rotate(93 38.5 166) scale(67.30882 21.46273)"/><ellipse cx="39" cy="155" fill="#d2e0e8" rx="3" ry="169"/><ellipse cx="69" cy="155" fill="#e8f6ff" rx="2" ry="169"/><circle r="1" fill="#deedfd" transform="rotate(22.8 -17.9 77.9) scale(58.78384 1)"/><ellipse cx="53" cy="96" fill="#3f4146" rx="12" ry="167"/><circle r="1" fill="#333334" transform="rotate(90.1 23.1 75.8) scale(29.56279 6.12677)"/><ellipse cx="178" cy="89" fill="#76787a" rx="25" ry="32"/><path fill="#8c8e93" d="M61.7 185l66.2-113.5 51.9-.5-69-27.9z"/><circle r="1" fill="#2b2008" transform="rotate(-160.5 108.4 68.3) scale(15.92187 29.25378)"/><ellipse cx="216" cy="22" fill="#def4ff" rx="46" ry="48"/><path fill="#312d2c" d="M88.3 39l1.2-55H54.8l26.4 33.5z"/><circle r="1" fill="#9d9a7d" transform="matrix(12.98294 -3.75412 6.07294 21.00216 231.1 86.3)"/><ellipse cx="129" cy="100" fill="#b4bcbf" rx="2" ry="98"/><circle r="1" fill="#827359" transform="matrix(-8.7499 36.45496 -23.29756 -5.59187 250 136.6)"/><path fill="#737e83" d="M54 142l-36 40 103 3z"/><path fill="#eefcff" d="M90 0h2v164h-2z"/><circle r="1" fill="#f4feff" transform="matrix(-39.86747 -27.73554 13.6521 -19.62374 146.3 0)"/><path fill="#0a0800" d="M23 138.1l-23.9 1.7-2.2-32 24-1.6z"/><path fill="#3c393a" d="M71 52h18v47H71z"/><path fill="#e1f0f5" d="M106 0h2v142h-2z"/><path fill="#e4f2f6" d="M118-49.5h1l3 169h-1z"/><path fill="#eaf6f9" d="M66 29.8L37.6 17.2l.4-1 28.4 12.6z"/><path fill="#322d22" d="M71.8 168.7l35.3-62.4 10.4 32.3 1.6-50.2z"/><ellipse cy="55" fill="#4e4f54" rx="38" ry="28"/><ellipse cx="137" cy="67" fill="#b6c0c3" rx="2" ry="61"/><ellipse cx="150" cy="101" fill="#cad5db" rx="1" ry="65"/><ellipse cx="36" cy="103" fill="#393a3f" rx="2" ry="85"/><path fill="#a4aaad" d="M18.6 191.4l-2.3-1.9 99-126.9 2.4 1.9z"/><path fill="#7ca5ed" d="M72.7 40.7l-1.3-25 10-.4 1.2 25z"/><path fill="#353433" d="M121 82h8v57h-8z"/><path fill="#f2eac4" d="M253 92h3v13h-3z"/><ellipse cx="134" cy="105" fill="#2a2928" rx="3" ry="31"/><circle r="1" fill="#949690" transform="matrix(12.15517 14.26267 -23.74508 20.23643 167 137.6)"/><ellipse cx="99" fill="#525253" rx="7" ry="166"/><path fill="#756e00" d="M193 108h10v30h-10z"/><path fill="#161510" d="M220 143h7v27h-7z"/><ellipse cx="144" cy="61" fill="#dae7ed" rx="1" ry="65"/><ellipse cx="214" cy="153" fill="#78776a" rx="7" ry="52"/><path fill="#14171a" d="M208 105l-6 25 12-8z"/><path fill="#252321" d="M141.5 80.7l-2.9 4.7 4.2 34.4 1.3-39.9z"/><path fill="#443f3d" d="M118 47l-1-37-9 9z"/><path fill="#595754" d="M221 81l-40-4-1-16z"/><path fill="#333534" d="M160 174.9L93.5 157l.5-1.9 66.7 17.9z"/><path fill="#323838" d="M66 167l1-36-23 32z"/><circle r="1" fill="#888990" transform="matrix(25.5233 8.48861 -4.13946 12.4464 0 12.7)"/><ellipse cx="155" cy="76" fill="#e0edf3" rx="1" ry="49"/><circle r="1" fill="#989ca0" transform="rotate(122.9 4.2 92.4) scale(72.82464 2.25457)"/><circle cx="157" cy="156" r="16" fill="#999ba0"/><path fill="#303129" d="M88.5 153.1l.9-19.1-4.7 7.8-12.8 24.3z"/><path fill="#eff8ff" d="M208.8 78.7L186.4-16H98.2l104.3 85.9z"/><path fill="#ddeaed" d="M121.4 115.6l-1.8 26.9h-1l1.8-27z"/><path fill="#94955f" d="M229.2 114l-19 2-1.4-14 19-2z"/><path fill="#2e2d26" d="M92 140l15 1-4-28z"/><ellipse cx="69" fill="#eafaff" rx="2" ry="10"/><path fill="#aecae4" d="M107 32h5v26h-5z"/><path fill="#95a3b2" d="M186 81h10v24h-10z"/><path fill="#796b55" d="M24 96h3v49h-3z"/><ellipse cx="55" cy="99" fill="#414040" rx="13" ry="37"/><path fill="#b8af92" d="M219 78h37v16h-37z"/><path fill="#201c13" d="M14 83h10v70H14z"/><ellipse cx="145" cy="124" fill="#adb1b3" rx="1" ry="98"/><path fill="#211f13" d="M146 83h4v26h-4z"/><ellipse cx="247" cy="10" fill="#cee2fd" rx="50" ry="24"/><path fill="#adb3b6" d="M159 38h2v93h-2z"/><ellipse cx="163" cy="80" fill="#d0dbe0" rx="1" ry="41"/><ellipse cx="39" cy="149" fill="#b4bcc0" rx="2" ry="169"/><path fill="#66646a" d="M146 27h4v56h-4z"/><path fill="#4b4a3e" d="M228 101l27 53 16-27z"/><circle cx="248" cy="99" r="5"/><path fill="#2e2d2c" d="M152 80h3v49h-3z"/><path fill="#443f37" d="M83 13h6v38h-6z"/><path fill="#807366" d="M248.2 133.2l8.3 51.8-38-70.8-.2-28.8z"/><path fill="#5f5e64" d="M121 18h8v57h-8z"/><path fill="#5d5d63" d="M131 16h4v66h-4z"/><path fill="#3a4138" d="M219 100.1l-37.9 11.6 18.8-1.3L219 75z"/><path fill="#f1feff" d="M10 70h3v5h-3z"/><path fill="#61605a" d="M-3.7 184.6l-6.8-16.6 36.2-14.6 6.8 16.6z"/><path fill="#93969a" d="M57 185l126-6-96-23z"/><path fill="#2b2724" d="M89.3 20.1L68 9.3l5.3-4.4 13.9 8.8z"/><path fill="#636564" d="M103.8 59.5l14 26.9 1.1-50.7-17.3 42.1z"/><path fill="#3c3021" d="M-3.2 112.3l9.3-41.8 29.5 18.3-20.5 28.3z"/><path fill="#53555a" d="M109 0h5v33h-5z"/><path fill="#3f3c34" d="M109 100h10v45h-10z"/><ellipse cx="171" cy="90" fill="#1a1b11" rx="1" ry="22"/><ellipse cx="128" cy="151" fill="#8a8e93" rx="31" ry="11"/><path fill="#a9b2bb" d="M37 0h5v36h-5z"/><path fill="#b0b3b0" d="M151 29l32 29-38-19z"/><path fill="#484448" d="M157 37h2v85h-2z"/><ellipse cx="107" cy="113" fill="#a5abab" rx="2" ry="41"/><path fill="#263049" d="M139 102h5v28h-5z"/><ellipse cx="129" cy="72" fill="#ccd6da" rx="1" ry="66"/><circle r="1" fill="#0c0d0c" transform="rotate(177.9 110 76.7) scale(1 25.18153)"/><path fill="#919063" d="M181 115h12v28h-12z"/></g></g></svg>