<svg xmlns="http://www.w3.org/2000/svg" viewBox="0 0 979 1200"><defs/><filter id="a"><feGaussianBlur stdDeviation="12"/></filter><rect width="100%" height="100%" fill="#394d7e"/><g filter="url(#a)"><g fill-opacity=".5" transform="translate(2.3 2.3) scale(4.6875)"><circle cx="97" cy="132" r="173" fill="#fff"/><circle cx="113" cy="101" r="205" fill="#fff"/><circle cx="107" cy="168" r="203" fill="#fff"/><circle cx="79" cy="243" r="117" fill="#fff"/><circle cx="190" cy="53" r="57" fill="#fff"/><ellipse cx="153" cy="137" fill="#b2c5e3" rx="50" ry="30"/><circle r="1" fill="#fff" transform="matrix(96.30261 -66.71957 23.78123 34.32568 37 20.3)"/><path fill="#5a7ac7" d="M131.2 1.9L64.8 52.3l78.1-44.6-.4 25.7z"/><circle r="1" fill="#fff" transform="rotate(-156.5 75.8 95.3) scale(182.1538 73.73641)"/><path fill="#6484cb" d="M14 85l29-11-47 37z"/><path fill="#8fa4d4" d="M153.6 126.8l10.4-9.6-35.4 27.1-21.8-67z"/><path fill="#9bb2df" d="M85.6 76.5l-1.2-30.8 50.5 36.1-9.9-26.5z"/><circle r="1" fill="#fff" transform="matrix(-27.60985 7.917 -24.2048 -84.41215 187.3 47.7)"/><path fill="#c4d3e7" d="M131 154l93-21-64 55z"/><circle r="1" fill="#fff" transform="rotate(-14.5 106.9 -68.2) scale(81.20633 41.0124)"/><path fill="#7391ce" d="M89.4 39.6L31 83.6l-2.5-3.2 58.3-44z"/><path fill="#6c82ca" d="M122 6.7l24.4 24-1.4-11-18.9-17.5z"/><circle r="1" fill="#d1dce9" transform="matrix(18.6578 24.84986 -7.78712 5.84674 57.6 223.3)"/><circle r="1" fill="#fff" transform="matrix(-38.53345 54.97793 -11.01066 -7.71726 65.8 144.4)"/><circle r="1" fill="#bbcbdd" transform="matrix(2.44396 -1.03237 31.2391 73.9533 29.3 160.1)"/><path fill="#8598d0" d="M154 113l-19 21-43 6z"/><path fill="#fff" d="M143-12l16 146 65-102z"/><circle r="1" fill="#fff" transform="matrix(-18.6159 -21.78469 101.68971 -86.89796 194.7 196.7)"/><circle r="1" fill="#b0c7e3" transform="matrix(18.32864 -17.45413 4.85327 5.09643 46.7 99)"/><path fill="#fff" d="M179.9 154.3l15.5-29.3-17.2 19.3-30.2 25.2zM74 271L16.2 144.6-2.6 81-16 253z"/><path fill="#6784c5" d="M154.7 133.5l13.4 8.8-2.8 4.2-13.4-8.8z"/><path fill="#a6bce2" d="M107 50l30-21.7 4 5.7-30 21.7z"/><path fill="#d9e3ee" d="M101 113l46 17-35-34z"/><path fill="#fff" d="M25 91l61-28V40z"/><circle r="1" fill="#fff" transform="rotate(141.4 13.2 62) scale(67.74286 4.04218)"/><path fill="#acc1dc" d="M25.7 139.5l79-54.9 8.9-13.4L22 139.5z"/><path fill="#97acd5" d="M111.7 141.1L92.6 118l25.4 23.5 5.8 21.4z"/><path fill="#fbfdfb" d="M148.9 125.2l9.1 40.7-43.2-27.9 10.3 13.2z"/><path fill="#8aa1d6" d="M14 87h4v34h-4z"/><path fill="#fff" d="M137 0h72v15h-72z"/><path fill="#bbcee6" d="M145.8 83.3l9.8 24.3-30.3-20.8 1.2-8.8z"/><path fill="#89a1d5" d="M21.3 85.5l15.1 26.8-16.1-18.7-25.4 9.8z"/><path fill="#fff" d="M128 40l80-56 13 171z"/><circle r="1" fill="#93accf" transform="matrix(.96326 -.26856 6.05011 21.7 105.6 160)"/><path fill="#2d52b8" d="M169 162l8-5h-7z"/><path fill="#b3c3de" d="M150 170l6 20 26-22z"/><path fill="#98afd8" d="M86 36v17l29-41z"/><circle cx="20" cy="36" r="40" fill="#fff"/><circle r="1" fill="#fff" transform="rotate(-45.1 370.2 -114.3) scale(105.5344 49.07729)"/><path fill="#a5bbdb" d="M170.3 113.6l19.1 15 5-2-13.2-21.4z"/><ellipse cx="72" cy="151" fill="#fff" rx="29" ry="41"/><path fill="#0c32a8" d="M56 217l1 5 3 1z"/><path fill="#8da0d1" d="M117 136l-4-18 14-11z"/><path fill="#a0b4db" d="M83.1 68l-.4.2-27.9 19.3 39.8-33z"/><path fill="#7a97d6" d="M129 64l-18 9 9-13z"/><path fill="#7a94cf" d="M129 97l-22-12 17 19z"/><path fill="#fff" d="M136 92h12v21h-12z"/><path fill="#7790ca" d="M163 141h10v8h-10z"/><circle cx="109" cy="109" r="3" fill="#5e7fc5"/><path fill="#adbfdf" d="M118.6 156.7l31.2 2.8-28.6 2.9-6.1-11.1z"/><path fill="#fff" d="M29.4 88.6l54.4-30.5-33.2 34.3-23.3 5.5zM171.6 2.2l-46.2 52.4 37.7 57.6L224 97.4zM161 160l4 17-17-16z"/><path fill="#9eb2d4" d="M76.4 247l-13.7-37.6 1-.4 13.6 37.6z"/><path fill="#fff" d="M103.7 90.6l-26.9 13.2-54.4 45 43.5 78.6zM114 93l8 16-11 8zM-16 6L8 90 140-9z"/><path fill="#8ba7d4" d="M96 123l2-9 10-5z"/><path fill="#718bcc" d="M114.3 20l.6.8L47.7 66l-.6-.9z"/><path fill="#b5c8e1" d="M57 57L40 83l-24 1z"/><circle r="1" fill="#fff" transform="rotate(33.9 -137.4 345.7) scale(6.20936 3.83219)"/><path fill="#94a7d4" d="M119.4-16h3.3l25.8 42.9-12.9-6.5z"/><path fill="#abbdde" d="M152.9 100.9l1.8 12.9-32-52.3 15 31.4z"/><path fill="#f6f9f5" d="M86 54l18 22H93z"/><circle r="1" fill="#8297d0" transform="rotate(102.4 10.4 118) scale(13.80523 2.40879)"/><path fill="#5067c0" d="M87 71h3v8h-3z"/><circle cx="194" cy="143" r="4" fill="#fff"/><path fill="#7395d5" d="M113.6 55.3l-3.6 7.2-3.6-1.8 3.6-7.2z"/><path fill="#99acd7" d="M97.9 89.8l1.3-27.7L86.8 41l10 29z"/><path fill="#617ac3" d="M149 130.8l-2.2 2.1-7.7-7.7 2-2.1z"/><circle cx="106" cy="215" r="37" fill="#fff"/><path fill="#96aed1" d="M101 176h10v5h-10z"/><path fill="#8099d0" d="M37 107l-4-4-9 12z"/><path fill="#90a6d7" d="M96 30l27-10V6z"/><path fill="#fff" d="M103 113h8v20h-8z"/><path fill="#aabcdb" d="M116.3 146.1l-18.4-17 9.5 43.3-10.5-57.7z"/><path fill="#fff" d="M-.5 271L-1.8 51.4l7.6 75L60 238.7z"/><path fill="#fefffd" d="M128.7 159.4l43.3-42.5-54.6 36.3-16.5-4.4z"/><path fill="#899ecf" d="M145.7 159.2l.9-.5 11.7 22.1-.9.5z"/><path fill="#87a2d9" d="M126 73v-9l11 3z"/><path fill="#fff" d="M224 182l-31 89-11-115z"/><path fill="#fdffff" d="M125.9 68.7l.6 28.3L60.2.6l52.5 73z"/><path fill="#6d8dc9" d="M163 116h2v11h-2z"/><circle r="1" fill="#91a8d7" transform="matrix(.7367 1.53363 -19.30336 9.27267 183.6 154.7)"/><path fill="#7793d0" d="M42 93h3v18h-3z"/><path fill="#657cc1" d="M134.7 160l3.7-8.3.9.4-3.7 8.2z"/><path fill="#bccbdc" d="M67 260.9l18.4 4-9.2 6.1-16.8-35.9z"/><path fill="#acc1df" d="M79.5 79.9l-48.1 42.6 12-14.8 46.3-36.9z"/><path fill="#fff" d="M129 156l-7-21h-10z"/><circle r="1" fill="#b7c9dd" transform="matrix(1.8367 2.1505 -8.98221 7.67153 28.8 136.5)"/><path fill="#fff" d="M30 122l-15 8 3-23z"/><ellipse cx="183" cy="139" fill="#5a7dc3" rx="1" ry="17"/><path fill="#f1f7f6" d="M163.8 140.5l-3.6 35.2 4.2-26-19.2 2.3z"/><path fill="#6e89c8" d="M68.5 223.2l-14.8 2.6-.2-1 14.8-2.6z"/></g></g></svg>