<svg xmlns="http://www.w3.org/2000/svg" viewBox="0 0 1200 900"><defs/><filter id="a"><feGaussianBlur stdDeviation="12"/></filter><rect width="100%" height="100%" fill="#3c3c3c"/><g filter="url(#a)"><g fill-opacity=".5" transform="translate(2.3 2.3) scale(4.6875)"><circle cx="9" cy="95" r="208" fill="#eaeaea"/><circle r="1" fill="#fff" transform="matrix(26.96605 .37654 -2.68827 192.52036 15.2 139.7)"/><circle r="1" fill="#111" transform="matrix(10.34156 -76.00501 34.85775 4.74289 147.4 46.7)"/><ellipse cx="18" cy="65" fill="#fff" rx="20" ry="191"/><path fill="#fff" d="M214.5 80.5h-35v-39h35z"/><path fill="#646464" d="M175 66l-50 116 135 16z"/><circle r="1" fill="#555" transform="matrix(-23.72217 64.00384 -18.43856 -6.834 93.7 27.6)"/><circle r="1" fill="#4c4c4c" transform="matrix(11.40326 28.51019 -21.33678 8.5341 200.2 20)"/><circle r="1" fill="#cbcbcb" transform="matrix(52.7059 -60.96829 38.81399 33.55393 18.6 159.2)"/><path fill="#020202" d="M57 177h141v6H57z"/><ellipse cx="142" cy="77" fill="#1c1c1c" rx="34" ry="18"/><path fill="#fff" d="M102 46h9v30h-9z"/><path fill="#c2c2c2" d="M42 155h125v21H42z"/><ellipse cx="163" cy="113" fill="#767676" rx="73" ry="23"/><path fill="#1f1f1f" d="M215 44h41v68h-41z"/><path fill="#616161" d="M14 115h8v30h-8z"/><path fill="#fff" d="M-16 163.4L6.8 175 51 186l-16.9-49.7z"/><circle r="1" fill="#fcfcfc" transform="matrix(-2.60115 22.29274 -10.18806 -1.18876 191.4 65.3)"/><circle cy="64" r="38" fill="#fff"/><path fill="#7d7d7d" d="M47 122.8l-30 15.7-33 22 35.3-14.3z"/><path fill="#f1f1f1" d="M10 0h40v17H10z"/><circle r="1" fill="#626262" transform="matrix(16.71553 25.35035 -18.25346 12.03598 192 20.5)"/><circle r="1" fill="#727272" transform="matrix(-53.93813 22.96057 -11.29818 -26.54127 105.2 17.1)"/><path fill="#747474" d="M44.7 122.1l-5.8 6.3.8-22.8 32.1-10.5z"/><ellipse cx="188" cy="189" fill="#8c8c8c" rx="54" ry="9"/><path fill="#5f5f5f" d="M23.1 21.1l63.2 29.6-22-2.6-42.1-24.5z"/><path fill="#565656" d="M24.3 23.5l-.4.9-40.2-17.9.4-.9z"/><path fill="#212121" d="M110 45l10 19 43-17z"/><path fill="#525252" d="M213 136l54 4-52-80z"/><path fill="#5d5d5d" d="M141.9 105.2l-.3-6.3L78 70.3 46.3 80.5z"/><ellipse cx="49" cy="191" fill="#bfbfbf" rx="64" ry="11"/><path fill="#929292" d="M152 153h59v21h-59z"/><path fill="#313131" d="M115 61h66v25h-66z"/><ellipse cx="252" cy="9" fill="#1a1a1a" rx="16" ry="89"/><ellipse cx="236" cy="152" fill="#303030" rx="25" ry="22"/><path fill="#7a7a7a" d="M33 96l7 11 18-35z"/><circle r="1" fill="#989898" transform="matrix(35.91322 -19.74346 11.65477 21.19994 91.8 130)"/><ellipse cx="203" cy="86" fill="#646464" rx="3" ry="27"/><path fill="#bababa" d="M13 45h11v31H13z"/><path fill="#fff" d="M33.8 105.6l7.9 16-19.2 14.2 2-26.2z"/><circle r="1" fill="#888" transform="matrix(14.06073 -2.1796 5.90908 38.11972 154 127.6)"/><path fill="#989898" d="M171.3 40.9l46.3 15.6.3 3.1-4.3-29.7z"/><path fill="#fff" d="M184 53h31v10h-31zM-8.5 141.6l-1-20 24-1.2 1 20z"/><path fill="#484848" d="M243-16L132 3l73 22z"/><path fill="#d0d0d0" d="M45.5 47.6l-46.6 5.9 58.9-7.1 8.9 28.1z"/><path fill="#535353" d="M73.6 71.7l8-44 11.5 8.4L87 88.4z"/><ellipse cx="157" cy="178" fill="#111" rx="56" ry="2"/><ellipse cx="91" cy="177" fill="#3c3c3c" rx="35" ry="2"/><path fill="#929292" d="M41.7-16l7 33.2 74.3-.9L99.8-7.1z"/><circle r="1" fill="#dbdbdb" transform="matrix(3.39924 4.23645 -8.3709 6.71663 56 96.5)"/><path fill="#2b2b2b" d="M152 63l-17 49-8-23z"/><path fill="#fff" d="M-39.1 6.6l9-13.3L41 41.4l-9 13.3z"/><circle r="1" fill="#f6f6f6" transform="matrix(10.10618 7.48511 -15.66707 21.1532 21.6 157.7)"/><ellipse cx="39" cy="64" fill="#949494" rx="2" ry="46"/><path fill="#fff" d="M102 76.8l6-30.4 4 .8-6 30.4z"/><ellipse cx="195" cy="85" fill="#acacac" rx="17" ry="8"/><ellipse cx="115" cy="183" fill="#555" rx="45" ry="2"/><path fill="#fff" d="M-16 102l53-34 2 24z"/><circle cx="133" cy="75" r="4" fill="#a5a5a5"/><path fill="#6b6b6b" d="M181.1 43.6l.3 24.2-31.3-51.4 55.8 1.6z"/><path fill="#646464" d="M200 108l71 9-71 19z"/><path fill="#a0a0a0" d="M94 48h8v37h-8z"/><path fill="#7e7e7e" d="M132 99l-13 29-28-46z"/><path fill="#949494" d="M59.7 87.4l-12.2 8.3-63.5 13.4L16.8 99z"/><ellipse cx="1" cy="54" fill="#fff" rx="13" ry="39"/><circle r="1" fill="#484848" transform="matrix(.44513 .89546 -16.51787 8.21103 8.5 147.3)"/><path fill="#4c4c4c" d="M205 182l21 20-10-37z"/><path fill="#9d9d9d" d="M40 140h110v16H40z"/><path fill="#a9a9a9" d="M57 44L41 90l-2-54z"/><path fill="#dedede" d="M60 56h3v19h-3z"/><ellipse cx="210" cy="55" fill="#fff" rx="4" ry="7"/><path fill="#9e9e9e" d="M22 18h1v77h-1z"/><path fill="#7d7d7d" d="M48.9 108.7l-7.6 8.8 81-50.7-64 31.7z"/><path fill="#6e6e6e" d="M54 175h32v7H54z"/><path fill="#6c6c6c" d="M211 163l1-42-37 22z"/><path fill="#b1b1b1" d="M38.7-20.7l26.9 39.8-8.3 5.6-26.9-39.8z"/><path fill="#333" d="M210.9 16.3l20.5-16L259 35.7l-20.5 16z"/><path fill="#5f5f5f" d="M210 16l-19 1 14 36z"/><path fill="#696969" d="M38.6-16h9.8l33.1 57.3 42.5 6.8z"/><path fill="#fafafa" d="M0 159l39-30-2 44z"/><path fill="#d8d8d8" d="M-9 173l59 21v-31z"/><path fill="#5c5c5c" d="M38.9 127.5l.5.8-40.3 24.2-.5-.8z"/><path fill="#5e5e5e" d="M102 66.5l-5.6-3.1-59.2 32 54-18.3z"/><path fill="#aeaeae" d="M62 187h101v5H62z"/><path fill="#c8c8c8" d="M72 45h2v26h-2z"/><path fill="#353535" d="M108.5 89.3l3.1-29.8 12 1.2-3.2 29.8z"/><path fill="#fff" d="M24 34h13v59H24z"/><circle r="1" fill="#8c8c8c" transform="matrix(-25.618 -8.7014 2.22467 -6.5497 186 191)"/><ellipse cx="167" cy="56" fill="#838383" rx="13" ry="3"/><path fill="#6a6a6a" d="M216 110l-38-25-27 19z"/><path fill="#9e9e9e" d="M82.2 162.9l6.9-52.9-21-31.9-1.2 14.3z"/><path fill="#fcfcfc" d="M186 52h16v24h-16z"/><path fill="#fbfbfb" d="M58.8 87.5l4.8 1.3-2.4 9.7-4.8-1.3z"/><ellipse cx="65" cy="65" fill="#5f5f5f" rx="2" ry="37"/><path fill="#e7e7e7" d="M61 52l-5-5-3 12z"/><path fill="#3e3e3e" d="M213 114l4-75 28 66z"/><circle r="1" fill="#fff" transform="matrix(4.66554 -10.3813 5.69033 2.55734 30.5 117.7)"/><path fill="#adadad" d="M11 109l13 32-2-28z"/><path fill="#555" d="M111 28h61v19h-61z"/></g></g></svg>