<svg xmlns="http://www.w3.org/2000/svg" viewBox="0 0 1200 900"><defs/><filter id="a"><feGaussianBlur stdDeviation="12"/></filter><rect width="100%" height="100%" fill="#2f3f58"/><g filter="url(#a)"><g fill-opacity=".5" transform="translate(2.3 2.3) scale(4.6875)"><circle cx="165" cy="26" r="234" fill="#ccd0b7"/><circle r="1" fill="#000400" transform="matrix(49.5383 -36.52278 43.04695 58.38746 38.3 73.8)"/><circle r="1" fill="#f9ffff" transform="matrix(-6.97226 36.20642 -138.8374 -26.73587 182.7 20.2)"/><circle r="1" fill="#000100" transform="matrix(-11.58092 31.2486 -66.52982 -24.65635 193.8 97.7)"/><circle r="1" fill="#fffdff" transform="matrix(-254.94407 5.34029 -.59577 -28.44178 132.5 171.4)"/><circle r="1" fill="#00072f" transform="rotate(-12.4 681.8 -584.3) scale(52.80551 12.54999)"/><circle r="1" fill="#c2e4ff" transform="matrix(-5.3838 32.17228 -134.84837 -22.56588 196.8 24)"/><ellipse cx="63" cy="61" fill="#2d3807" rx="87" ry="28"/><circle r="1" fill="#dedbd9" transform="rotate(13.8 -380.7 542.6) scale(19.2105 27.67542)"/><ellipse cx="255" cy="119" fill="#040d00" rx="37" ry="25"/><ellipse cy="51" fill="#324105" rx="54" ry="96"/><circle r="1" fill="#9ea2a6" transform="matrix(7.83745 -34.22011 11.10285 2.5429 218.4 88)"/><path fill="#17222d" d="M208 131l-67-89-5 98z"/><path fill="#fff" d="M180.2 59.4l-32 2.2-.4-7 32-2.2z"/><circle r="1" fill="#697937" transform="rotate(-70.6 61.1 -27.2) scale(21.24852 46.58013)"/><ellipse cx="35" cy="133" fill="#3d5994" rx="95" ry="10"/><ellipse cx="200" cy="148" fill="#dfddde" rx="38" ry="15"/><path fill="#95b5fe" d="M58 0h127v26H58z"/><ellipse cx="241" cy="14" fill="#f3fdff" rx="33" ry="52"/><path fill="#141a31" d="M140.5 39.8l7.1 2.2 1.8 14.5-60.1-4.3z"/><path fill="#000a0d" d="M91.2 124.2L-7.2 121l48.1-21.6 35.6-12.9z"/><circle r="1" fill="#8f9539" transform="rotate(-6.1 922 -154.1) scale(29.70337 7.7428)"/><path fill="#252d31" d="M140 62l69-5-25 79z"/><circle r="1" fill="#b4cfff" transform="rotate(-106.4 77.6 -34) scale(11.52092 27.02745)"/><path fill="#747862" d="M107 53h32v39h-32z"/><path fill="#faf7f4" d="M88 128l50-6-4-21z"/><path fill="#c7ddff" d="M198.5 58.2l-49 3.4-4-57.8 49-3.4z"/><ellipse cx="80" cy="127" fill="ivory" rx="12" ry="3"/><path fill="#838889" d="M206 56l65 23-65 23z"/><path d="M24 60l36 25-45 4z"/><path fill="#2a435f" d="M111 149l-80-12 141-17z"/><ellipse cx="48" cy="164" fill="#cacacc" rx="57" ry="22"/><path fill="#232c3d" d="M52 60h46v64H52z"/><circle r="1" fill="#262f00" transform="matrix(-1.40141 25.06612 -28.79937 -1.61014 249.2 116)"/><path fill="#6b7807" d="M206.9 131.8l2-6.7 82.2 25.1-2 6.7z"/><circle r="1" fill="#1e2831" transform="rotate(-72.9 165.7 -53.7) scale(15.4883 30.35135)"/><circle r="1" fill="#1c2504" transform="matrix(29.30542 -12.98893 6.08108 13.72003 9.6 47)"/><path fill="#95b7eb" d="M44-11.8L150.5-16 68.7 25.7 62.9 28z"/><path fill="#758631" d="M66.8 29L53.4 39.4 31.2 11 44.6.6z"/><path fill="#6e7d33" d="M95.4 35.4L82.8 51 62.6 34.6 75.2 19z"/><circle r="1" fill="#cbddff" transform="rotate(-42.3 129.8 -269.5) scale(58.67126 19.12388)"/><circle r="1" fill="#cbcccd" transform="rotate(18 -381.3 741.6) scale(32.22449 19.73134)"/><circle cx="38" cy="59" r="4" fill="#acbda3"/><path fill="#24293b" d="M86.6 56.8l10.6 22.4 18.5-32.5-20.4-1.4z"/><path fill="#808e1f" d="M236 89l5 14 25-17z"/><circle r="1" fill="#495a0d" transform="matrix(-3.51267 15.15705 -34.93375 -8.09596 9.3 2.6)"/><path fill="#061200" d="M-16 122.5l72.5-1.7-4.8-27.7-35.3 21.6z"/><path fill="#d1cfcb" d="M99 96h15v31H99z"/><path fill="#b5d7ff" d="M39.6 20.1l4.3 4.3-3.5 3.5-4.3-4.3z"/><path fill="#b3cdfd" d="M190 30L87 20l27 23z"/><path fill="#3b5074" d="M72.7 139.1l-4.2-19.2-84.5 4L.2 147.8z"/><path fill="#797b76" d="M143.8 79.8l-23 25.3-19.1-49.4L124 82.9z"/><path fill="#121a19" d="M148 40l-23 6 21 2z"/><ellipse cx="255" cy="118" fill="#0e1400" rx="34" ry="20"/><path fill="#e4e5e5" d="M55 143.4l-31.4 6.1-.6-3 31.4-6z"/><ellipse cx="36" cy="132" fill="#acb4b6" rx="12" ry="2"/><ellipse cy="92" fill="#8d9650" rx="54" ry="4"/><circle r="1" fill="#cacacc" transform="rotate(-75.2 226.3 -65.5) scale(29.19256 75.05877)"/><path fill="#2b380b" d="M137 72l-28 2 40 11z"/><path fill="#f0faff" d="M233.4 67.7l-7.5-30.6 32.8-14.9 5.3 37.5z"/><path fill="#303639" d="M208 57l-77 5 65 72z"/><path fill="#232c06" d="M68.4 33.1L55.1 74l-9.5-3.1L58.9 30z"/><path fill="#7b8184" d="M207 65h49v25h-49z"/><path fill="#a0bbec" d="M113 30L1-16 186 3z"/><path fill="#dbedf3" d="M148 47h68v11h-68z"/><path fill="#25303c" d="M113 68l-72 58 44-2z"/><path fill="#9f9ea4" d="M109.9 66.2L95 83.3l7.9-11.9 11.4-17.5z"/><path fill="#c3c3c1" d="M99 96v30l15-50z"/><path fill="#b9bfb4" d="M138 56.3v4l-16-.6v-4z"/><ellipse cx="141" cy="136" fill="#374e6f" rx="33" ry="6"/><path fill="#d2d3d5" d="M109 152.1l-81.6-8.8 119.7 25.2 40-32.2z"/><path fill="#3d536f" d="M196.9 133.6l-82.4 17.3-96.7-24.4 180.1 9z"/><path fill="#c7c8c5" d="M129 92h9v34h-9z"/><path fill="#2c3237" d="M138 61h68v66h-68z"/><path fill="#c7e3ff" d="M60 15l12 5-5 7z"/><ellipse cx="18" cy="191" fill="#bebfc0" rx="66" ry="45"/><path fill="#777b7f" d="M213 56.7l20.4 15-21.7 56.1-7.1 3.6z"/><path fill="#050c00" d="M53.1 73L3 89l-18.7-11.4 68.4 12.2z"/><path fill="#fefff8" d="M110.6 76.5l21.1 6-.3 1-21.1-6z"/><path fill="#5e651c" d="M39 99L-8 87l5 29z"/><path fill="#14281f" d="M249 68l22 8-15-14z"/><path fill="#fff" d="M251 52l-6 13 4 1z"/><circle r="1" fill="#6f7d29" transform="matrix(1.45314 -1.59048 20.45017 18.68433 39.5 28.6)"/><path fill="#809348" d="M48.8 20.2L27.2-16h-1.9l34.8 31.3z"/><path fill="#fffdf5" d="M74 128.4l23.8-3.8.1 1-23.7 3.8z"/><path fill="#889f94" d="M78 38l4-18 2 15z"/><circle r="1" fill="#b6ccf3" transform="rotate(68.3 75.7 134.4) scale(19.91206 53.03152)"/><path fill="#2a3239" d="M55 70h44v53H55z"/><path fill="#1b2208" d="M253.5 95.1L207 131.7l-20.4-2.7 69.4 5.7z"/><path fill="#535e1f" d="M100.1 36.3l-6.3-5.5-38.1 19.4 22 22.6z"/><path fill="#2f3b0d" d="M16.4-4l12 5.3L7.5 48l-12-5.2z"/><path fill="#525f21" d="M43.1 59L3.5 25.7l48.1 21-7.8-45.5z"/><path fill="#a8a3a2" d="M114 71h22v2h-22z"/><path fill="#273139" d="M111.8 50.9l-1-4 25.4-5.8 1 4z"/><path fill="#0d1405" d="M21 63h50v5H21zM-3 47l19 12 22-18z"/><ellipse cx="126" cy="63" fill="#5a6b19" rx="14" ry="4"/><path fill="#a5a7a3" d="M111 92h27v17h-27z"/><ellipse cy="7" fill="#6e7d16" rx="12" ry="9"/><path fill="#7b817b" d="M212 83l-4-10 19-23z"/></g></g></svg>