<svg xmlns="http://www.w3.org/2000/svg" viewBox="0 0 1200 900"><defs/><filter id="a"><feGaussianBlur stdDeviation="12"/></filter><rect width="100%" height="100%" fill="#473a29"/><g filter="url(#a)"><g fill-opacity=".5" transform="translate(2.3 2.3) scale(4.6875)"><circle r="1" fill="#ffffec" transform="rotate(87.9 21.3 125.7) scale(58.09033 255)"/><ellipse cx="104" cy="86" fill="#fff" rx="46" ry="34"/><ellipse cx="232" cy="37" fill="#fff6d4" rx="21" ry="36"/><circle r="1" fill="#fff" transform="matrix(-16.16565 1.24883 -1.05134 -13.60914 107.2 19.1)"/><ellipse cx="95" cy="158" fill="#602900" rx="74" ry="20"/><ellipse cx="8" cy="174" fill="#c5bdb3" rx="14" ry="155"/><path fill="#2f2516" d="M140 35l34-51-10 156z"/><ellipse cx="46" cy="87" fill="#6c572a" rx="17" ry="59"/><circle r="1" fill="#fff" transform="matrix(-5.32303 39.36996 -18.72095 -2.53117 82 93)"/><path fill="#000311" d="M104 88l-10 54 22-3z"/><circle r="1" fill="#9d7846" transform="matrix(16.6529 -30.78003 78.60792 42.52922 250.8 150.9)"/><path fill="#f4ffff" d="M146 141L60 55l85-1z"/><ellipse cx="121" cy="186" rx="113" ry="13"/><ellipse cx="113" cy="45" fill="#605230" rx="119" ry="9"/><path fill="#fff" d="M210 21l20 12 20-20z"/><circle r="1" fill="#a8a398" transform="matrix(.97774 25.04069 -32.21062 1.2577 0 52.5)"/><path fill="#fff" d="M125.8 22.2l-21.5 14.5-10.1-14.9 21.5-14.5z"/><circle cx="249" cy="56" r="19" fill="#fffaf8"/><circle r="1" fill="#d0b06e" transform="matrix(16.11957 35.85835 -27.65884 12.4336 202.5 74)"/><path fill="#385e94" d="M63 0h32v36H63z"/><path fill="#281b09" d="M213 41.7l-1.4-8.9 41.4-6.5 1.4 8.9z"/><path fill="#602000" d="M40 158h203v19H40z"/><path fill="#fff" d="M205 121h31v8h-31z"/><path d="M215 137l3.4-7.9 2.2 9.7-3.4 68.2z"/><circle r="1" fill="#171d21" transform="matrix(-8.66611 14.83027 -40.2243 -23.50518 23.7 16.6)"/><path fill="#e9f6ff" d="M63 61h33v73H63z"/><circle r="1" fill="#887358" transform="rotate(85.2 26.1 133) scale(47.42737 10.2671)"/><path fill="#335587" d="M127.4-20.8l23.9 3-6.7 54.6-23.9-3z"/><path fill="#edf9ff" d="M115 54h19v79h-19z"/><path fill="#d7eaff" d="M168 63h4v93h-4z"/><path fill="#5a6667" d="M111.6 95.1L102 83.3l-8.7 55.3 15.3-30.7z"/><path fill="#857b77" d="M246 71l25 123-42-44z"/><path fill="#1b1d1f" d="M35 33h135v11H35z"/><path fill="#fff" d="M219.3 20l20.5-4.7 2.9 12.7-20.5 4.7z"/><path fill="#0e0000" d="M-6 207l35-35 100 8z"/><ellipse cx="92" cy="134" fill="#511c2b" rx="46" ry="2"/><circle r="1" fill="#2d2c2f" transform="matrix(.34848 2.44854 -35.29546 5.02329 0 103.8)"/><path fill="#b9ae9c" d="M3.6 213.2l-23.7-8.2 34.5-100.2 23.7 8.2z"/><path fill="#fafdff" d="M119 56l-51-4-5 88z"/><ellipse cx="121" cy="156" fill="#cdc0a5" rx="57" ry="2"/><ellipse cx="233" cy="132" fill="#4d2d04" rx="30" ry="3"/><path fill="#393630" d="M271 25.4L235-16l14.2 35.9-22.4 23.9z"/><path fill="#8d7c58" d="M31 44h33v105H31z"/><path fill="#a68f5c" d="M173 37h58v23h-58z"/><path fill="#020000" d="M70 132h4v27h-4z"/><circle r="1" fill="#b3a28a" transform="matrix(.84494 7.94482 -17.45234 1.85607 237.7 149.4)"/><path fill="#fff" d="M100 18h20v12h-20z"/><path fill="#9c7f45" d="M171 128h42v30h-42z"/><path fill="#04000a" d="M98 120h17v13H98z"/><ellipse cx="5" cy="86" fill="#d1cbbf" rx="28" ry="14"/><path fill="#0e0000" d="M106 177h125v15H106z"/><path fill="#dcd3c7" d="M229.4 91.9l1.5-50L271 26.3l-1 30.3z"/><path fill="#2d2c2c" d="M55.2 80.4L-11 67.7l-4.4-6.3 32.5 9.5z"/><path fill="#602b01" d="M233 111h23v8h-23z"/><circle r="1" fill="#191e1c" transform="matrix(18.56644 -.92812 1.36786 27.36312 164 12.4)"/><circle r="1" fill="#b0bfd8" transform="matrix(-3.74087 27.50806 -7.23727 -.9842 136.8 96.3)"/><path fill="#a0aebe" d="M83 78h37v6H83z"/><path fill="#9ab5d2" d="M71 134l23-8 10-23z"/><ellipse cx="92" cy="47" fill="#67542e" rx="60" ry="5"/><path d="M135 132h3v18h-3z"/><path fill="#283039" d="M20.1-11.2l117-2.5-40.8 27.9-50.8-2z"/><circle r="1" fill="#9d9584" transform="matrix(-9.24685 10.83574 -23.68848 -20.21494 5.5 41.5)"/><path fill="#393215" d="M179-9l45 44-56 1z"/><circle cx="207" cy="92" r="31" fill="#c1ae81"/><path fill="#fff" d="M63 53h82l-23 25z"/><circle r="1" fill="#ffffea" transform="matrix(-5.8756 -4.88734 8.95357 -10.76408 236 20)"/><ellipse cx="34" cy="164" fill="#4c2100" rx="12" ry="15"/><path fill="#5f5023" d="M240.4-10.3l2.8 15.7-27.6 5-2.8-15.8z"/><path fill="#5a2900" d="M137 158h106v20H137z"/><path fill="#a69959" d="M109 16l-15-1 35-31z"/><path fill="#b1c2e5" d="M88 136h46v3H88z"/><path d="M77 151l7-14 2 13z"/><path fill="#5b6d8a" d="M65 10h19v24H65z"/><path fill="#96805c" d="M167 128l-1 26h-34z"/><path fill="#695b3e" d="M70.6 47.1l-33.4-5.2-4.6 60 11.5-22.7z"/><path fill="#404a59" d="M76.2 37.3L122.5-16 75.8 15.2l38.5 20.9z"/><path fill="#c1bab2" d="M0 103h32v32H0z"/><ellipse cx="49" cy="116" fill="#9e8e6b" rx="14" ry="32"/><circle r="1" fill="#16190e" transform="matrix(-.37669 7.6198 -2.84535 -.14066 124.6 147)"/><path fill="#fff" d="M231 58h5v19h-5zm-15-39h23v11h-23z"/><path fill="#fdf3cc" d="M214 124h29v6h-29z"/><path fill="#d5f5ff" d="M78.3 138.3l.2 1-14.8 2.4-.2-1z"/><path d="M216 135h3v44h-3z"/><path fill="#8a8060" d="M95 138h28v11H95z"/><path fill="#8a7b62" d="M146 66h14v57h-14z"/><path fill="#87796d" d="M241.5 128.2l-13.2-8.3 37.6 3.7-21 83.4z"/><path fill="#d4be75" d="M231 5l-24 17 32-8z"/><path fill="#6d725c" d="M245.4 86.2L239 91l-8.4-11.2L237 75z"/><path fill="#2d1219" d="M69 134h66v2H69z"/><circle r="1" fill="#1b1912" transform="matrix(16.5513 19.2422 -9.30145 8.0007 43 0)"/><ellipse cx="22" cy="100" fill="#36322a" rx="22" ry="2"/><path fill="#bbcbde" d="M143 126l-37-10 38-19z"/><path fill="#4b5e79" d="M114 32l24 3-3-23z"/><circle r="1" fill="#fff" transform="rotate(3.1 -399.4 2015.8) scale(12.21041 6.97693)"/><path fill="#d7e1ec" d="M106.4 105.3l-43.9 33.4.9-36.1 29.3-1.1z"/><ellipse cx="106" cy="191" fill="#382000" rx="97" ry="5"/><path fill="#ab9668" d="M211.3 117.1l-37.9 30.4-3.4-92.6 3.4-5.8z"/><path fill="#fff" d="M244.7 69.4l9.8-7.2L271 89v-7.9z"/><path fill="#d5e3ff" d="M167 109h4v42h-4z"/></g></g></svg>