<svg xmlns="http://www.w3.org/2000/svg" viewBox="0 0 947 1200"><defs/><filter id="a"><feGaussianBlur stdDeviation="12"/></filter><rect width="100%" height="100%" fill="#4d4433"/><g filter="url(#a)"><g fill-opacity=".5" transform="translate(2.3 2.3) scale(4.6875)"><circle r="1" fill="#e1fff9" transform="matrix(-15.64952 58.0073 -56.07182 -15.12736 107.6 87.8)"/><path fill="#000001" d="M1 271l216-20-233-120z"/><circle r="1" fill="#769186" transform="rotate(-97.4 127.6 11.4) scale(37.27675 81.03878)"/><ellipse cx="7" cy="79" fill="#030a13" rx="33" ry="255"/><path fill="#f3fff4" d="M58 48h24v84H58z"/><path fill="#fff" d="M191.3 157.4l-16.4-4.6 5.8-20.2 16.4 4.6z"/><circle r="1" fill="#02070c" transform="matrix(1.76354 24.02536 -172.86266 12.6887 107.4 232.3)"/><circle r="1" fill="#020c17" transform="matrix(24.85525 -15.54268 26.80656 42.86801 201 52.3)"/><path fill="#dbe0d3" d="M55 45h103v28H55z"/><path fill="#16140f" d="M58 73h71v6H58z"/><ellipse cx="100" cy="21" fill="#040a13" rx="201" ry="9"/><ellipse cx="49" cy="126" fill="#4d544b" rx="13" ry="66"/><ellipse cx="117" cy="5" fill="#677677" rx="74" ry="9"/><path fill="#767f6f" d="M59 29h102v17H59z"/><path fill="#f8edcf" d="M137 69h31v22h-31z"/><path fill="#717b70" d="M59 196h108v9H59z"/><circle r="1" fill="#606e5e" transform="matrix(-25.00248 -16.6116 23.152 -34.84657 150.6 127.9)"/><circle cx="187" cy="144" r="11" fill="#ffffea"/><circle r="1" fill="#5e6d62" transform="matrix(-16.79116 -14.58144 25.38536 -29.23232 82.7 153.8)"/><ellipse cx="86" cy="123" fill="#393c38" rx="3" ry="54"/><path fill="#393e3c" d="M120 77h6v120h-6z"/><path fill="#2c3333" d="M217 194.6v7.6l-56.7 8.5 31.3-67.2z"/><path fill="#b4cabe" d="M153 90h3v93h-3z"/><path fill="#fff" d="M91 88h53v3H91z"/><path fill="#edfffe" d="M63 81h20v38H63z"/><circle r="1" fill="#d9ecdf" transform="matrix(-.2162 -31.69555 1.58453 -.0108 90.9 108.9)"/><path fill="#757f6d" d="M165 52L69 31l82-4z"/><circle r="1" fill="#3f3f3c" transform="rotate(-104.9 131 -23) scale(36.68943 20.82019)"/><path fill="#c3e6d0" d="M116.8 85.5l-7.3 12 .2 33.2 10.4-7.8z"/><path fill="#87a183" d="M55 126h29v20H55z"/><ellipse cx="104" cy="185" fill="#263038" rx="74" ry="10"/><path fill="#56625b" d="M47 28l6 23 40-14z"/><path fill="#687066" d="M155 163h35v20h-35z"/><path fill="#74643d" d="M157 49h6v66h-6z"/><ellipse cx="102" cy="55" fill="#cad1c9" rx="47" ry="13"/><path fill="#6a8569" d="M100 65h32v23h-32z"/><circle r="1" fill="#fffff5" transform="matrix(3.23616 10.28241 -6.59362 2.0752 152.4 78.4)"/><path fill="#494840" d="M59 142l-27 37L53 67z"/><path fill="#131414" d="M110.1 264.5l126.5-118 25.3 27-126.5 118z"/><path fill="#6e9786" d="M155 158l-24-15 12-67z"/><path fill="#6f6c68" d="M4.1 230.8L2.7 271H1.4L.1 238.6z"/><path fill="#6b6c64" d="M11 0h155v6H11z"/><path fill="#f9fdf8" d="M56 78h19v7H56z"/><path fill="#fff" d="M179 155l6-20-11 16z"/><path fill="#92a18a" d="M52 30h105v6H52z"/><path fill="#fffffd" d="M200.4 154.2l2.4.2-8.1-15.1-4.4-1.8z"/><path fill="#60624e" d="M156 66l2-34 11 39z"/><path fill="#464740" d="M178 89l35 92 4-68z"/><ellipse cx="62" cy="219" fill="#101011" rx="143" ry="16"/><path fill="#eaf9f7" d="M146.1 74.8l-10.5 26-3.7-1.6 10.5-26z"/><path fill="#687b68" d="M141 79h7v70h-7z"/><path fill="#242725" d="M166 185l30 14-69-5z"/><circle cx="71" cy="116" r="10" fill="#eaf8ec"/><path fill="#596956" d="M134 111l-15 2 2-34z"/><path fill="#659674" d="M94 93h15v51H94z"/><circle r="1" fill="#262622" transform="rotate(-44.9 212.6 55) scale(11.89778 56.13995)"/><ellipse cx="133" cy="38" fill="#53574e" rx="45" ry="3"/><path fill="#202121" d="M0 12h45v60H0z"/><path fill="#545655" d="M88 147h59v27H88z"/><circle r="1" fill="#302920" transform="matrix(-13.80174 4.63638 -6.4069 -19.07232 188.4 244.7)"/><ellipse cx="183" cy="143" fill="#fff" rx="5" ry="9"/><path fill="#9fa880" d="M57 78h5v29h-5z"/><path fill="#67695e" d="M93 194l41 9-29 2z"/><path fill="#282824" d="M165 6h37v68h-37z"/><ellipse cx="74" cy="59" fill="#d9dcd3" rx="21" ry="12"/><path fill="#b4a154" d="M199 154l-9-1-2-16z"/><ellipse cx="64" cy="74" fill="#4c4f4a" rx="24" ry="3"/><path fill="#c5af7d" d="M154 48.4l-3.8 23.5 14.8-8-.9 38.5z"/><ellipse cx="117" cy="174" fill="#7a9696" rx="56" ry="1"/><path fill="#fff" d="M91 88h28v4H91z"/><ellipse cx="113" cy="184" fill="#4e6261" rx="42" ry="2"/><path fill="#57554a" d="M159.1 151.7l33.7 4.7-2 13.9-33.6-4.7z"/><path fill="#52574d" d="M55.9 51.1l49.9-17.8-65.2 12.1 10.3 107.2z"/><path fill="#59554c" d="M168 109h27v25h-27z"/><ellipse cx="26" cy="75" fill="#30312f" rx="18" ry="31"/><path fill="#5c6155" d="M129.1 44.1l22.2 5.4 18.6 21.8-4-42.3z"/><path fill="#94b096" d="M145 146h10v12h-10z"/><path fill="#3d4244" d="M94.3 15.3L-7.3-15-16 .1l54.3 12.8z"/><ellipse cx="63" cy="21" fill="#1c1d1c" rx="139" ry="9"/><path fill="#d1d6c9" d="M70 71h62v2H70z"/><circle r="1" fill="#abae9b" transform="matrix(-.9885 .15121 -3.91505 -25.5935 56 61.3)"/><ellipse cx="83" cy="107" fill="#585d56" rx="1" ry="35"/><ellipse cx="102" cy="161" fill="#6f5746" rx="51" ry="5"/><path fill="#fefcf0" d="M69 122l13-19 2 20z"/><path fill="#000001" d="M-13.3 170.2l21.8-3 4.8 34.6-21.8 3z"/><path fill="#7fb3b2" d="M137 95h4v39h-4z"/><path fill="#44453d" d="M192.8 147.9l-4.4 63.2-39.7-7.9 18.5 5.9z"/><path fill="#8b9e87" d="M62 127l22-2-27 28z"/><path fill="#3c3b34" d="M37.7 182.7l-1.4 2.7-6.2-97.1 24.6 93.6z"/><path d="M200 172h2v55h-2z"/><ellipse cx="113" cy="131" fill="#79ae9d" rx="8" ry="9"/><ellipse cx="121" cy="85" fill="#3e3938" rx="2" ry="10"/><path fill="#777253" d="M165 65h5v39h-5z"/><path fill="#414135" d="M158 37h16v23h-16z"/><path fill="#f7f8f2" d="M148 72h8v21h-8z"/><ellipse cx="103" cy="166" fill="#869690" rx="46" ry="1"/><circle cx="128" cy="56" r="13" fill="#b6c2bb"/><path fill="#4b5148" d="M83 77h6v12h-6z"/><circle r="1" fill="#a0bd94" transform="matrix(.07406 3.39917 -14.21307 .30969 101 67.5)"/><ellipse cx="154" cy="128" fill="#b9cec9" rx="1" ry="37"/></g></g></svg>