<svg xmlns="http://www.w3.org/2000/svg" viewBox="0 0 1200 449"><defs/><filter id="a"><feGaussianBlur stdDeviation="12"/></filter><rect width="100%" height="100%" fill="#6c544c"/><g filter="url(#a)"><g fill-opacity=".5" transform="translate(2.3 2.3) scale(4.6875)"><circle cx="175" cy="52" r="188" fill="#fff"/><circle r="1" fill="#fff" transform="matrix(-.26599 -27.21616 254.0944 -2.48331 133 21.1)"/><ellipse cx="183" cy="9" fill="#fff" rx="190" ry="34"/><circle r="1" fill="#fff" transform="matrix(-1.31687 13.63394 -204.1788 -19.72112 217.9 10.2)"/><path fill="#fcffff" d="M35.7 35.6L34 54.4l20.8-2 61.5-22.3z"/><path fill="#4c7497" d="M129 20h6v28h-6z"/><ellipse cx="150" cy="72" fill="#9eaaae" rx="152" ry="30"/><path fill="#b7b4b1" d="M62.1 9.8l27.7-2.9-48.9 28.7L.7 34.5z"/><path fill="#c0c1bf" d="M115.6 10.6l47.9 22.5-41.8-9-65.6-4.9z"/><path fill="#bfbab8" d="M188 20h33v18h-33z"/><circle r="1" fill="#fff" transform="matrix(5.3347 17.11562 -85.52745 26.65774 16.3 3.7)"/><path fill="#fff" d="M220 0h36v46h-36z"/><ellipse cx="25" cy="42" fill="#f9fdfe" rx="108" ry="4"/><path fill="#3b3e3f" d="M4 87h68v2H4z"/><path fill="#908986" d="M248 27l6 11-10-2z"/><path fill="#bbb9b7" d="M64.8 6.9l1 12.9 41.7 3.4L71.2 3.5z"/><ellipse cx="187" fill="#fff" rx="87" ry="22"/><path fill="#fcfdfe" d="M39 33h18v19H39z"/><path fill="#a6a4a3" d="M56 45h160v4H56z"/><path fill="#bfb9b7" d="M52.6 34.6L40.5 7.7 28.7 19.5l.3 10.2z"/><circle r="1" fill="#feffff" transform="matrix(-39.54252 -25.42046 2.00133 -3.11314 62.8 20.8)"/><path fill="#fff" d="M169 0h16v43h-16z"/><path fill="#aaa3a2" d="M19 33L9 17 5 37z"/><path fill="#fff" d="M31.9-7l-7.6 49.3L9.6-16-16 50.6z"/><path fill="#b7b3b0" d="M111 6l7 7-16 21z"/><path fill="#a0a9ac" d="M7 45h29v13H7z"/><path fill="#dcdbd9" d="M172.8 32.2l-9 6-35-19.2 19.7-10.3z"/><path fill="#fff" d="M136.5-16L-15 25.2 38.7-16l63 33.8z"/><path fill="#bbb5b2" d="M224 36l-10-20-6 20z"/><path fill="#f0f1f1" d="M14 37h108v9H14z"/><path fill="#fff" d="M225 0h22v45h-22z"/><path fill="#a8a8a8" d="M125 43h88v7h-88z"/><path fill="#fafcfd" d="M58.1 20.2l-2 25.5 51.1-21.6-18.3-2.7z"/><path fill="#9bacbb" d="M111.1 34.8l25.3-7.1.1 8.3-9.4-2.7z"/><path fill="#feffff" d="M189.9 38.9l32.2 5.9 19.5 1.9 1.2-12z"/><path fill="#c1bcba" d="M36.8 29.1L80.4 9.2 74.3 1 33.8 39z"/><path fill="#fff" d="M219-16L69.8 2.2l136.7 13.6 2.1 21.5z"/><path fill="#abacad" d="M0 45h37v38H0z"/><ellipse cx="131" cy="29" fill="#3f7dbb" rx="2" ry="5"/><path fill="#cdcccc" d="M34 42h28v2H34z"/><path fill="#fff" d="M62 11l1-27-79 21zM258.6-1.6L184.1-.1l42.6 24.8L271 35.9zM28 44H7l17-12z"/><circle r="1" fill="#fff" transform="matrix(9.59504 10.49979 -16.114 14.72549 133.4 0)"/><path fill="#fff" d="M39 42.8l2.2-2-4.7 10.1L57 52.8zM214 41h42v4h-42z"/><path fill="#d5d4d2" d="M130.6 17.1l-95.5-3.9 22.3 24.9 1.1-18z"/><path fill="#fff" d="M166.8 37.7l25.1 8.6-8.4-10.9-4.4-47.9z"/><path fill="#d4cfcd" d="M196 14l12 18-23 5z"/><path fill="#fff" d="M174 41h-25l3-10zm-185 5L1-7l2 50z"/><path fill="#f2f4f4" d="M129.6 25.6L108 22.8l4.7 29.6-1.9-9.4z"/><path fill="#cdc9c6" d="M200 28h26v8h-26z"/><path fill="#acacac" d="M179.6 46.3l33.8-4.4.9 68.1-228.5-52.3z"/><path fill="#9a9291" d="M9 27h7v8H9z"/><path fill="#d9d6d4" d="M7.7 11.9l-2.8 21-3.6 8.4 14.8-17.8z"/><path fill="#afa3a2" d="M73.8 13L63 10.9 64.2 5 75 7.1z"/><path fill="#acacac" d="M67.6 65.1l-12-20.7 20.8 2-1.3 63.6z"/><ellipse cx="22" cy="86" fill="#86898a" rx="49" ry="1"/><path fill="#cbccca" d="M93 16h40v7H93z"/><ellipse cx="247" cy="35" fill="#98908d" rx="2" ry="4"/><path fill="#fff" d="M87 0h20v14H87z"/><path fill="#fdfcfc" d="M95.5 33.4L77.3 21 54.8 51.2l-17.1.5z"/><path fill="#5c87b2" d="M131 26h3v13h-3z"/><path fill="#b0aca9" d="M108 29l-9 1 10-7z"/><path fill="#dddbdb" d="M165.3 39.6l-28.5-22.1 1 21.3 29.7-19z"/><path fill="#c3bfbd" d="M26 28h12v10H26z"/><circle cx="112" cy="13" r="3" fill="#a49996"/><path fill="#a0a9ac" d="M0 89h47v6H0z"/><path fill="#fff" d="M53 16l25-32-52 7z"/><path fill="#f7f8f8" d="M38 34h90v6H38z"/><path fill="#ababab" d="M123 42l-48 68 167-64z"/><path fill="#c3bebd" d="M44 19l13 14-36-5z"/><path fill="#e3e2e2" d="M100 30h22v16h-22z"/><path fill="#fff" d="M47.2-16L24.4 26.5l4.4 10.4L-.8.4z"/><path fill="#c1bab9" d="M17 31l4-5-14-2z"/><circle cx="214" cy="19" r="3" fill="#c0bab7"/><path fill="#fff" d="M133 5l57 18 22-39zm-24 21h20v4h-20z"/><path fill="#afb2b3" d="M146 35h2v8h-2z"/><path fill="#fff" d="M173.8 35.9l27.4-34.8 11.9 31L169.4-16z"/><path fill="#beb4b2" d="M74 9h12v5H74z"/><path fill="#b1b0ab" d="M88 20h1l-1 8h-1z"/><path fill="#d9d5d5" d="M171 35l-7-16-6 19z"/><path fill="#cbc6c4" d="M43.2 7.2L28.4 36.9l-3.3-16.6L46 34z"/><path fill="#fff" d="M252 0h4v45h-4z"/><path fill="#fbfbfb" d="M69.9 34.4l62.3 1.9-49.3 9.4 14.3-14.2z"/><path fill="#fafafa" d="M32 45.3l-18.2.4-17.4-1.4 49.3-5.8z"/><path fill="#fff" d="M225 30.4l14.7 6.4 30-26.3-71.6-23.6z"/><path fill="#d3d0cf" d="M7.9 33.1l.5-13.5.6 25.5-15.2-19.6z"/><path fill="#dfe0e0" d="M47 33h26v2H47z"/><path fill="#fefefe" d="M166.7 17.2l-11.3 12.6L164-16l23.7 52z"/><path fill="#d1d1d0" d="M122.4 42.3v1l-26.8 2.4v-1z"/><ellipse cx="198" cy="40" fill="#fdffff" rx="58" ry="2"/><path fill="#fff" d="M-16 33L4-11l2 38z"/><path fill="#c9c6c5" d="M202.5 38.5h-17v-5h17z"/><path fill="#e2dfde" d="M194.7 23.5l14.3-3.1-30.8 4.2 24.2 11.6z"/><path fill="#ababab" d="M57 46h84v38H57z"/><path fill="#b3aea8" d="M122 31h7v3h-7z"/><path fill="#d2d1cf" d="M105.8 7.2l5.6 12.4-26.9-.7 31.1-8.1z"/></g></g></svg>