<svg xmlns="http://www.w3.org/2000/svg" viewBox="0 0 1200 772"><defs/><filter id="prefix__a"><feGaussianBlur stdDeviation="12"/></filter><rect width="100%" height="100%" fill="#643454"/><g filter="url(#prefix__a)"><g transform="translate(2.3 2.3) scale(4.6875)"><circle cx="100" cy="47" r="200" fill="#fff" fill-opacity=".5"/><circle cx="127" cy="79" r="163" fill="#fff" fill-opacity=".5"/><ellipse cx="84" cy="79" fill="#fff" fill-opacity=".5" rx="244" ry="150"/><circle cx="158" cy="77" r="176" fill="#fcfffe" fill-opacity=".5"/><path fill="#00477c" fill-opacity=".5" d="M148 107.7l-1.1 9-18.9-2.4 1.1-9z"/><path fill="#1b85a4" fill-opacity=".5" d="M180.8 147.7l-68.4.8 2.3-18.3 8.1 13z"/><path fill="#004983" fill-opacity=".5" d="M157 135l-2 13 10-5z"/><circle r="1" fill="#005c84" fill-opacity=".5" transform="matrix(1.03766 5.46629 -4.59769 .87277 138.8 77.7)"/><ellipse cx="66" cy="21" fill="#fff" fill-opacity=".5" rx="66" ry="67"/><path fill="#ecd1c2" fill-opacity=".5" d="M123 32l29 1-12 38z"/><ellipse cx="135" cy="147" fill="#1387aa" fill-opacity=".5" rx="22" ry="2"/><path fill="#f0f5ee" fill-opacity=".5" d="M137.6 163.6l2.7 4.5-34.1-43.6 14.9-77.3z"/><circle cx="116" cy="144" r="4" fill="#004788" fill-opacity=".5"/><path fill="#d99880" fill-opacity=".5" d="M100 159l2-23-8 8z"/><path fill="#d7c2b6" fill-opacity=".5" d="M166.8 142l21.7-3.8-19.1 18.4-10.6-5.2z"/><ellipse cx="114" cy="97" fill="#48bc42" fill-opacity=".5" rx="2" ry="8"/><path fill="#a5766e" fill-opacity=".5" d="M161 59h5v11h-5z"/><path fill="#00729c" fill-opacity=".5" d="M147.3 112.7l-6.3 3.4-11.6-4.3 14.6-2.5z"/><path fill="#cf7855" fill-opacity=".5" d="M205 106h14l2 6z"/><circle r="1" fill="#edb196" fill-opacity=".5" transform="rotate(-88.1 92.5 10.4) scale(1 34.03012)"/><circle r="1" fill="#fff" fill-opacity=".5" transform="matrix(-8.37516 23.40835 -206.56103 -73.90449 205.9 12.3)"/><path fill="#93615c" fill-opacity=".5" d="M189 93l-2.7 4.2L183 95l2.7-4.2z"/><ellipse cx="173" cy="106" fill="#e6c1ad" fill-opacity=".5" rx="33" ry="2"/><circle r="1" fill="#0084aa" fill-opacity=".5" transform="matrix(1.92403 -5.61862 3.33927 1.1435 159.1 143)"/><circle cx="138" cy="77" r="4" fill="#005483" fill-opacity=".5"/><path fill="#f2f7f4" fill-opacity=".5" d="M106 83l33 25 10-28z"/><path fill="#f8f9f5" fill-opacity=".5" d="M136.8 118l21.4-12.9 15 24.9-21.4 12.9z"/><circle r="1" fill="#e6c2b0" fill-opacity=".5" transform="rotate(92.5 56.4 135.9) scale(47.22771 1)"/><path fill="#e59871" fill-opacity=".5" d="M36 146h31v2H36z"/><path fill="#0079a4" fill-opacity=".5" d="M115 147.5l-2.7-7 5.4-3 3.2 12.3z"/><path fill="#f6f8f7" fill-opacity=".5" d="M121.1 147l35.4-.2-13.8-3.6L114.2 72z"/><path fill="#ed3c00" fill-opacity=".5" d="M51.5 102.4v-1l15 .2v1z"/><ellipse cx="102" cy="152" fill="#a6a5a4" fill-opacity=".5" rx="40" ry="1"/><path fill="#b5aba7" fill-opacity=".5" d="M122.6 101.9l20.3 6.2-4.8-13.7-2.2 12.9z"/><path fill="#1a90af" fill-opacity=".5" d="M128.2 108.3l21.4.1-14.3 8.2-13-14.4z"/><path fill="#bab4b0" fill-opacity=".5" d="M62.4 153.7l-9.8-55.2 1-.2 9.8 55.2z"/><path fill="#bf8e84" fill-opacity=".5" d="M88 128h20v2H88z"/><path fill="#eea88a" fill-opacity=".5" d="M164 30h2v31h-2z"/><path fill="#ced9d6" fill-opacity=".5" d="M89.7 86.7l20.5-2.6 2.7-39.7-14.4 62.4z"/><path fill="#f9f6f2" fill-opacity=".5" d="M118.2 97.6l-27.8 17.2 25.2 23.9L102.3 86z"/><path fill="#c6c8c7" fill-opacity=".5" d="M111 44l-7-3 23-7z"/><path fill="#acc1c0" fill-opacity=".5" d="M216.5 95.5l-1 .3-18-59.3 1-.3z"/><path fill="#d0d6d1" fill-opacity=".5" d="M174.6 26.7l-35.3 7.6 31.6.9 11.3 16.5z"/><path fill="#0083ab" fill-opacity=".5" d="M142.8 102.6l-3.2 10-10.8-5.3 16.8 5.4z"/><path fill="#dd9d85" fill-opacity=".5" d="M173 151l-3-10-7-2z"/><ellipse cx="127" cy="147" fill="#006495" fill-opacity=".5" rx="13" ry="1"/><path fill="#bb877a" fill-opacity=".5" d="M192 77h5v5h-5z"/><path fill="#006997" fill-opacity=".5" d="M148.9 145.8l.1 1-11.9 1.4-.1-1z"/><ellipse cx="155" cy="61" fill="#f6ffff" fill-opacity=".5" rx="7" ry="40"/><path fill="none" stroke="#aebebc" stroke-opacity=".5" stroke-width=".5" d="M173.2 146.2q22.9-10.2 43.4-27.3"/><ellipse cx="123" cy="104" fill="#ee9778" fill-opacity=".5" rx="15" ry="1"/><path fill="#e8b39c" fill-opacity=".5" d="M113.7 104.5l1 .4-12.4 30.6-1-.4z"/><path fill="#009700" fill-opacity=".5" d="M114 100h3v4h-3z"/><path fill="#afc3be" fill-opacity=".5" d="M57 100h8l7-10z"/><circle cx="115" cy="93" r="2" fill="#009c00" fill-opacity=".5"/><path fill="#f6ffff" fill-opacity=".5" d="M167 107h17v35h-17z"/><circle r="1" fill="#fefffe" fill-opacity=".5" transform="matrix(5.7857 15.86396 -80.4213 29.33021 239.8 151.5)"/><path fill="#f7ffff" fill-opacity=".5" d="M165 33h9v29h-9z"/><path fill="#c3c1c0" fill-opacity=".5" d="M84 151h84v2H84z"/><circle r="1" fill="#e6c5b5" fill-opacity=".5" transform="matrix(.98325 -.18224 5.36362 28.93952 165.7 120.8)"/><path fill="#fff" fill-opacity=".5" d="M146 106h16v13h-16z"/><path fill="#ff3900" fill-opacity=".5" d="M96 143.6l1-.1 1 9h-1z"/><path fill="#fff" fill-opacity=".5" d="M27 3h136v29H27z"/><path fill="#ea9163" fill-opacity=".5" d="M185 155.6l-16-.2v-1l16 .2z"/><path fill="#006e9f" fill-opacity=".5" d="M156 141h7v7h-7z"/><path fill="#fdffff" fill-opacity=".5" d="M61 110h28v35H61z"/><path fill="#840b00" fill-opacity=".5" d="M137.3 101.2l-.3-1 3.7-1.4.3 1z"/><circle cx="120" cy="68" r="1" fill="#4c0000" fill-opacity=".5"/><path fill="#f0fcfc" fill-opacity=".5" d="M140.2 110l-6.7-2.1 23.9-9.2L145 68.8z"/><path fill="#ddafa2" fill-opacity=".5" d="M151 102h11v4h-11z"/><ellipse cx="97" cy="157" fill="#ee9d73" fill-opacity=".5" rx="9" ry="1"/><path fill="#e2e9e5" fill-opacity=".5" d="M219.3 109.2L205 74.3l26.2 45.6-30.4-11.4z"/><path fill="#0073a3" fill-opacity=".5" d="M131 105h4v10h-4z"/><path fill="#e49473" fill-opacity=".5" d="M95.8 96h1l-.6 34h-1z"/><path fill="#fff" fill-opacity=".5" d="M226.3 28.6l20-34.9 13.2 98.4-16.2-1.9z"/><ellipse cx="82" cy="89" fill="#adcfd0" fill-opacity=".5" rx="10" ry="2"/><path fill="#fff" fill-opacity=".5" d="M162 96h31v9h-31z"/><path fill="#f8f9fa" fill-opacity=".5" d="M115.8 137.1l-10.7 4.1 4.2-19.7 24.4-19.6z"/><path fill="#fff" fill-opacity=".5" d="M42 32h59v55H42z"/><circle r="1" fill="#f67a4e" fill-opacity=".5" transform="matrix(2.72582 -.82817 .34174 1.1248 66 145.8)"/><path fill="#fdffff" fill-opacity=".5" d="M168 51h24v39h-24z"/><path fill="#f1f3f2" fill-opacity=".5" d="M166.5 141.6l-68.8-40.4 70.7 26.7-12.6 42.6z"/><path fill="#f68e6b" fill-opacity=".5" d="M139 41h1v20h-1z"/><path fill="#fff" fill-opacity=".5" d="M202.2 105.4l-7.3-51.5 9-1.3 7.2 51.5zM109 153h58v10h-58z"/><path fill="#f7ffff" fill-opacity=".5" d="M117 69h18v35h-18z"/><path fill="#aec7c7" fill-opacity=".5" d="M179 46h12v3h-12z"/><path fill="#f6f7f6" fill-opacity=".5" d="M12.7 174.4l41.8-68.8-9.9-40.2L8.2 22.3z"/><path fill="#ce998a" fill-opacity=".5" d="M166 142h7v10h-7z"/><path fill="#f3a283" fill-opacity=".5" d="M147.2 60.6L136 44l.8-.6L148 60z"/><path fill="#f8f8f7" fill-opacity=".5" d="M121 130h34v16h-34z"/><path fill="#fff" fill-opacity=".5" d="M101 95l20 1-14 5z"/><path fill="#fbfdfc" fill-opacity=".5" d="M103 139l-45-32 12 44z"/><path fill="none" stroke="#f8b9a1" stroke-opacity=".5" stroke-width=".5" d="M111.7 92.8q-9.1-.8-32.7.3"/><path fill="#fff" fill-opacity=".5" d="M180 35h23v9h-23z"/><path fill="#b6bcbb" fill-opacity=".5" d="M113.4 53.5l1 .3-7.8 22.7-1-.3z"/><path fill="#006899" fill-opacity=".5" d="M116 137l2 2-6 5z"/><path fill="#fff" fill-opacity=".5" d="M51 153h39v11H51z"/><path fill="#a26a67" fill-opacity=".5" d="M166.7 62l-2.5 8.7-2.9-.8 2.5-8.6z"/><path fill="#f3faf8" fill-opacity=".5" d="M145.4 64.1l-6 41.3 22.9-50.5 5.8 7z"/></g></g></svg>