<svg xmlns="http://www.w3.org/2000/svg" viewBox="0 0 1200 900"><defs/><filter id="a"><feGaussianBlur stdDeviation="12"/></filter><rect width="100%" height="100%" fill="#483e33"/><g filter="url(#a)"><g fill-opacity=".5" transform="translate(2.3 2.3) scale(4.6875)"><ellipse cx="66" cy="88" fill="#dceae4" rx="123" ry="191"/><circle r="1" fill="#273a00" transform="matrix(-2.25623 29.42403 -102.73809 -7.87795 162.2 124.7)"/><path fill="#eeefff" d="M28.5 20.5h137v63h-137z"/><ellipse cx="19" cy="184" fill="#434a16" rx="93" ry="31"/><circle r="1" fill="#879c63" transform="matrix(-33.7132 52.79835 -34.64851 -22.12402 209 26.8)"/><circle cx="18" cy="98" r="36" fill="#c9ccdc"/><path fill="#000100" d="M17 77h10v35H17z"/><circle r="1" fill="#99a186" transform="matrix(19.44933 -3.62924 5.22049 27.97689 177 174)"/><ellipse cx="121" fill="#fff" rx="62" ry="5"/><path fill="#1e1b22" d="M57.4 115.2l2.2-31.9 21 1.5-2.2 31.9z"/><path d="M23.6 170.5l26.7 8.6-10 30.4-26.6-8.6z"/><path fill="#e9eaf7" d="M99 70h52v24H99z"/><path fill="#b8b8ac" d="M85 160l3-63-41 75z"/><circle r="1" fill="#0b1a00" transform="rotate(165 117.9 62.5) scale(43.9358 25.84294)"/><path fill="#0d1207" d="M159 130l-33-12 38-36z"/><path fill="#364104" d="M175 38h20v31h-20z"/><circle r="1" fill="#344800" transform="matrix(-20.52145 2.62886 -1.05238 -8.21512 .1 143)"/><ellipse cx="167" cy="88" fill="#dcd9f3" rx="3" ry="47"/><path fill="#515e19" d="M119 147L94 81l-15 69z"/><path fill="#bfc5b3" d="M187.8 88.9L179 75.5 204.2 59l8.7 13.4z"/><path fill="#c1c0c6" d="M79.7 203.8l-27 2.3-2.4-27.9 27-2.3z"/><path fill="#dedfdc" d="M12.8 149.2l8.4 1.5 52.8 4.1 10.6-23.2z"/><ellipse cx="108" cy="19" fill="#322c29" rx="94" ry="2"/><path fill="#d3d8ff" d="M21.6 17l.8 21-24 1-.8-21z"/><circle r="1" fill="#425917" transform="matrix(-46.38575 -57.79176 22.19782 -17.81677 222 148.1)"/><path fill="#7a7c72" d="M64.4 99.3l.8-38.6-38.8 2.1 9.9-10.1z"/><path fill="#cdcead" d="M98 90h12v23H98z"/><path fill="#44393b" d="M20.6 20.5l8.3-11.7L3.6 8-16 22.2z"/><ellipse cx="83" cy="100" fill="#eeecff" rx="3" ry="22"/><circle r="1" fill="#dadae3" transform="rotate(173.6 -1 36.3) scale(35.26192 12.22366)"/><path fill="#0c0903" d="M66.3 39.3l-20.8-2.6.2-2 20.8 2.6z"/><path fill="#e1e1f4" d="M54 12h136v5H54z"/><path fill="#d2d4da" d="M130.2 77l9.6-5.3 14 25.3-9.6 5.3z"/><circle r="1" fill="#dddde6" transform="rotate(55.1 -2.4 112.7) scale(25.32359 25.84093)"/><path fill="#e1e0ed" d="M129 24h53v8h-53z"/><path fill="#0a0909" d="M117 39h19v4h-19z"/><ellipse cx="255" cy="48" fill="#3c4c0e" rx="35" ry="21"/><path fill="#1f192b" d="M126.8 121.3l-19.6-27 33.3-1.5-29.9 24.1z"/><ellipse cx="226" cy="169" fill="#738444" rx="65" ry="8"/><path fill="#3f4d23" d="M192.4 26.7l-14.7-1.8 3.8-40.9L206.1-.4z"/><path fill="#754e45" d="M0 39h28v17H0z"/><path fill="#000016" d="M171 89h10v22h-10z"/><path fill="#3b393a" d="M81.8 126.1l-55.6 18 41.2-23.5-.1-40.3z"/><path fill="#c0c2d2" d="M104 78l82 8-42-61z"/><path fill="#b4b7b5" d="M203.6 23.9L216 55.6l6.7-25.2-8.4 5.9z"/><ellipse cx="175" cy="186" fill="#8c8c7f" rx="21" ry="32"/><path fill="#cacdd7" d="M28 74h26v56H28z"/><ellipse cx="143" fill="#fff" rx="35" ry="4"/><path fill="#5d5d57" d="M54 82h13v48H54z"/><ellipse cx="170" cy="40" fill="#424619" rx="23" ry="2"/><path fill="#1f1d22" d="M97 89l-12-5 8 37z"/><path fill="#4a3929" d="M113.1 178.4L102.9 159l-45.7 48-23.5-7.8z"/><circle cx="192" cy="184" r="4" fill="#fff"/><ellipse cx="80" fill="#fff" rx="21" ry="4"/><path fill="#000600" d="M239.3 79l31 1-1.6 43-31-1z"/><path fill="#6a724d" d="M128.8 131.8l96.8-3.3-56.2-16.9 18 62.7z"/><path fill="#212c00" d="M194 140h62v16h-62z"/><path fill="#8a897e" d="M75 149h99v24H75z"/><path fill="#eae8fd" d="M28 13h29v4H28z"/><path fill="#393d26" d="M151.4 84.3l.2-10.5-.1 44 13.6-33.7z"/><path fill="#e8e8ed" d="M133 32h17v34h-17z"/><path fill="#9a9db4" d="M151 41h22v32h-22z"/><ellipse cx="124" cy="109" fill="#b2b6d2" rx="5" ry="4"/><path fill="#49482d" d="M239 78l-29-11 23 84z"/><path fill="#293114" d="M57.8 195.2L34.7 167l-21.1 11-7.5-1.4z"/><path fill="#939691" d="M49.4 53.6L3.6 64.2l54.2 3.3 2.4-28.3z"/><ellipse cx="49" cy="21" fill="#8d8d93" rx="145" ry="2"/><ellipse cx="113" cy="142" fill="#566a1d" rx="32" ry="7"/><path fill="#583d4a" d="M89.7-12.7L37.6 10.7l4.9-28.5L63.6-16z"/><path fill="#c3c3c8" d="M194.9 93.1l-4.2-.7-45.3-14.3 24.2-10.5z"/><path fill="#050702" d="M215 81l4 35-17-3z"/><path fill="#a0909f" d="M39 4h141v8H39z"/><path fill="#79834a" d="M0 155h62v18H0z"/><circle r="1" fill="#3f4e0d" transform="matrix(-6.9589 -16.47404 31.59535 -13.3464 219.8 191)"/><path fill="#462918" d="M60.3 207H31.9l65.7-26 .4-18.6z"/><path fill="#d4d7e1" d="M0 65h14v40H0z"/><path fill="#545939" d="M169.3 57.3l7.5 12.5-28-.8 100.9-9.4z"/><path fill="#8b8ba3" d="M166 126l-3-25 20 21z"/><path fill="#69832d" d="M-6.8 193.5l11.9-31.4 19.8 26.8 84.5 3.3z"/><path fill="#b4b8c8" d="M204 21l-4 13 9-2z"/><path fill="#a4a79d" d="M186.5 150.3l14.6 53.2L187 165l-7.4 24.3z"/><path fill="#d4d7e3" d="M106 110l-3-26 9-3z"/><path fill="#3b3627" d="M199.1 180l17.2-9.3-30.6 10-8.1-12.6z"/><path fill="#45541f" d="M155.6 106.7l10.1 27.1-34 18.6 43.5-5.9z"/><path fill="#5c6737" d="M163.6 62.7l24.4-4.4-27.6-27.5 52.7 13z"/><path fill="#747270" d="M29 121h10v22H29z"/><path fill="#979d90" d="M231.9 20.1l-19.5 34 14.8-26.2 27.5-7.8z"/><ellipse cx="252" cy="12" fill="#728030" rx="6" ry="42"/><path fill="#4b4b3a" d="M14 99h14v17H14z"/><path fill="#717665" d="M97.5 187.1l9.2-27.1 29.1 39.4-112.3-5.3z"/><path fill="#ced1d9" d="M57.5 79.9l-68.2-1.8 51.3-14.8 32 21.6z"/><path fill="#7c8648" d="M80.5 127.3l28.3-8.8-9.9-40.8-1.9 31.4z"/><ellipse cy="18" fill="#c5c2b0" rx="26" ry="2"/><path fill="#191d14" d="M109 114h54v6h-54z"/><path fill="#d2d2d8" d="M143.1 40l41.1-13.7-13.7-4.6L23.6 34.9z"/><path fill="#525f14" d="M2.6 161.5l-18.5-4.2 38.6-13.7-30.1-16z"/><circle cx="106" r="4" fill="#76504b"/><path fill="#8a948b" d="M229 30L201 4l20 8z"/><path fill="#c1c3c4" d="M153 71h58v6h-58z"/><path fill="#c3c2cb" d="M80 26h6v92h-6z"/></g></g></svg>