<svg xmlns="http://www.w3.org/2000/svg" viewBox="0 0 1200 613"><defs/><filter id="prefix__a"><feGaussianBlur stdDeviation="12"/></filter><rect width="100%" height="100%" fill="#69696d"/><g filter="url(#prefix__a)"><g transform="translate(2.3 2.3) scale(4.6875)"><ellipse cx="141" cy="60" fill="#fff" fill-opacity=".5" rx="168" ry="129"/><circle r="1" fill="#fff" fill-opacity=".5" transform="matrix(-17.11103 -120.22833 210.06797 -29.8971 114.6 51.6)"/><circle r="1" fill="#fff" fill-opacity=".5" transform="rotate(-122.6 69.7 -36.4) scale(121.80911 223.80297)"/><ellipse cx="187" cy="90" fill="#c3c7d2" fill-opacity=".5" rx="115" ry="15"/><ellipse cx="231" cy="29" fill="#fff" fill-opacity=".5" rx="117" ry="44"/><circle r="1" fill="#aad8f5" fill-opacity=".5" transform="matrix(-21.89647 -8.62525 12.00786 -30.48374 240.6 123.3)"/><circle r="1" fill="#999ba0" fill-opacity=".5" transform="matrix(-7.19948 -50.21918 2.08777 -.2993 114.2 46.8)"/><circle r="1" fill="#fbfefd" fill-opacity=".5" transform="rotate(-151 16 5.6) scale(59.19746 49.60438)"/><path fill="#fff" fill-opacity=".5" d="M226 91l-32 18 12 22z"/><circle r="1" fill="#d8dae1" fill-opacity=".5" transform="matrix(-67.08304 -36.61408 8.1005 -14.84144 142.5 113.6)"/><ellipse cx="219" cy="85" fill="#9a999c" fill-opacity=".5" rx="67" ry="3"/><path fill="#ced2d1" fill-opacity=".5" d="M159 44l-7-35 34 63z"/><path fill="#fff" fill-opacity=".5" d="M7 145l-16-25 109-3z"/><path fill="#a5a7a8" fill-opacity=".5" d="M117.3-52.7l.9-.5 60.5 114-.9.4z"/><path fill="#f6faf8" fill-opacity=".5" d="M136-16l29.7 55 11.4 46.7-50.6-1.8z"/><path fill="#8c8d90" fill-opacity=".5" d="M193.2 93.9l-1 .4L178.9 64l1-.4z"/><path fill="#cacec9" fill-opacity=".5" d="M200.3-6.5l2.5-3.9 52.7 25.1 6.9 10.7z"/><path fill="#9d9fa4" fill-opacity=".5" d="M122.8 77.7l-7.2-41.5-4.4-4L121 85z"/><path fill="#bbbbc1" fill-opacity=".5" d="M153 77h23v13h-23z"/><path fill="#fff" fill-opacity=".5" d="M207.1 114.5l-86.2 1.8L-16 127.9l131.3-3.7z"/><ellipse cx="201" cy="111" fill="#fff" fill-opacity=".5" rx="26" ry="5"/><circle r="1" fill="#fdfffc" fill-opacity=".5" transform="rotate(138.9 95.9 58) scale(35.46358 39.8738)"/><path fill="#e7e9f1" fill-opacity=".5" d="M65 68l-81 27 143 7z"/><circle r="1" fill="#c1c0c6" fill-opacity=".5" transform="matrix(.92868 -4.80138 15.8641 3.06841 110.4 83)"/><circle r="1" fill="#f5f8f9" fill-opacity=".5" transform="matrix(-.76765 15.15365 -34.09636 -1.72725 81.4 60.8)"/><path fill="#b4b6bd" fill-opacity=".5" d="M183.6 118.2l18.1 4.9 2.1-8.3-20.6 8.1z"/><path fill="#f7f8fb" fill-opacity=".5" d="M211 87h45v4h-45z"/><path fill="#f1f4f4" fill-opacity=".5" d="M142.4 96.8l-27.1-66.7-1-46.1 43.1 118.7z"/><ellipse cx="189" cy="86" fill="#9fa0a5" fill-opacity=".5" rx="45" ry="2"/><ellipse cx="127" cy="126" fill="#cdcfd7" fill-opacity=".5" rx="33" ry="3"/><path fill="#d1d2d9" fill-opacity=".5" d="M147 96l26 16-81 4z"/><path fill="#fff" fill-opacity=".5" d="M190 137l30-23-18 6z"/><path fill="#e7e9ee" fill-opacity=".5" d="M1 33h111v16H1z"/><path fill="#bfc2c9" fill-opacity=".5" d="M210 74h35v2h-35z"/><ellipse cx="62" cy="8" fill="#fbfdfa" fill-opacity=".5" rx="44" ry="21"/><path fill="#e5e6e9" fill-opacity=".5" d="M144 82h73v3h-73z"/><ellipse cx="253" cy="115" fill="#a8c6df" fill-opacity=".5" rx="8" ry="24"/><path fill="#b8b9bb" fill-opacity=".5" d="M211.7 105.8l-21.8-2.7.4-3L212 103z"/><path fill="#edeeed" fill-opacity=".5" d="M178 90h28v12h-28z"/><path fill="#d3ebf4" fill-opacity=".5" d="M215 112h25v13h-25z"/><path fill="#f9fcfa" fill-opacity=".5" d="M182 74l-42 4 6-74z"/><path fill="#b4b7be" fill-opacity=".5" d="M220 107h36v3h-36z"/><path fill="#fbfcfb" fill-opacity=".5" d="M203.6 83v-1l70.8-5v1z"/><path fill="#9b9e9e" fill-opacity=".5" d="M106 7l4-3-4-13z"/><path fill="#fbfffb" fill-opacity=".5" d="M-16 81v41.8L57.2 145l-38.5-35.6z"/><path fill="#e1e2e9" fill-opacity=".5" d="M75 90h52v25H75z"/><ellipse cx="194" cy="96" fill="#bcbdc2" fill-opacity=".5" rx="3" ry="5"/><path fill="#9a9f9d" fill-opacity=".5" d="M257 2l-41-18h26z"/><ellipse cx="14" cy="20" fill="#eeefef" fill-opacity=".5" rx="19" ry="30"/><path fill="#b2b3b7" fill-opacity=".5" d="M163.6 31.5L188.3 88l6 5.3-18.7-36.5z"/><path fill="#fffffe" fill-opacity=".5" d="M185 118l-22-14 50 2z"/><path fill="#d8e7f2" fill-opacity=".5" d="M220.3 102.6l.5-6 30.9 2.8-.5 6z"/><path fill="#bcbcc1" fill-opacity=".5" d="M115.2 40l8.1 42.1 21.3 15.1-25.3-6.5z"/><path fill="#fff" fill-opacity=".5" d="M222 104l-23 38-22 3z"/><path fill="#fbfefb" fill-opacity=".5" d="M118.8 17.3l-18.2-31.5 55.8 16.9 2.5-18.7z"/><path fill="#a4a6a6" fill-opacity=".5" d="M107.3 2.1l1-.2 10.4 54-1 .2z"/><circle r="1" fill="#bdc5ce" fill-opacity=".5" transform="matrix(-.13582 .99073 -39.50372 -5.4154 232.2 107)"/><path fill="#b4b6b5" fill-opacity=".5" d="M214.6-.8l35.3 18.7-.5 1L214.1 0z"/><circle r="1" fill="#f8fbf8" fill-opacity=".5" transform="rotate(158.1 91.7 50) scale(14.84657 13.86983)"/><path fill="#d6d9df" fill-opacity=".5" d="M69 126h24v4H69z"/><path fill="#bdbfc5" fill-opacity=".5" d="M176 118h28v3h-28z"/><path fill="#9f9fa2" fill-opacity=".5" d="M203 84h53v3h-53z"/><path fill="#eaecee" fill-opacity=".5" d="M68.5 60.4L86.9-2.2 96.4-16l-1.1 49z"/><ellipse cx="202" cy="79" fill="#a2a3a7" fill-opacity=".5" rx="16" ry="1"/><path fill="#fefffc" fill-opacity=".5" d="M240 13l-87 2 27-31z"/><path fill="#a3a4a5" fill-opacity=".5" d="M197 104.8l-2.8-6.4 2.7-1.2 2.9 6.4z"/><path fill="#95969a" fill-opacity=".5" d="M173.5 87.5l-18.9 2-.1-1 18.9-2z"/><path fill="#b6b8b7" fill-opacity=".5" d="M223.3 0l.4-1 57 29-.4 1z"/><circle r="1" fill="#fafdfa" fill-opacity=".5" transform="rotate(58.4 16.1 227) scale(6.78439 4.14027)"/><path fill="#b2b3b6" fill-opacity=".5" d="M198.3 101.9l-10.3-23-16.3-29.8 27.1 57.6z"/><path fill="#eff2f4" fill-opacity=".5" d="M93 85l-47 33-34-19z"/><path fill="#e0e1ec" fill-opacity=".5" d="M0 83h42v10H0z"/><circle r="1" fill="#dedfe4" fill-opacity=".5" transform="rotate(173.5 46.6 18) scale(1 60.1659)"/><path fill="#e8e9ed" fill-opacity=".5" d="M142.6 86.9l-3-5.4 21.9-2.6 5.2 5.7z"/><path fill="#eceff1" fill-opacity=".5" d="M113.4 17.5l7.7 46.8 4.5-15.8 33.1-1.1z"/><path fill="#fff" fill-opacity=".5" d="M202 98.1l22 .8v3l-22-.8z"/><circle r="1" fill="#fefffd" fill-opacity=".5" transform="rotate(-116.8 134 -60.1) scale(18.09 9.81743)"/><path fill="#b2b0b5" fill-opacity=".5" d="M219 92h37v1h-37z"/><path fill="#f7faf8" fill-opacity=".5" d="M58.2 49.8l-65.5-6.2-4.9 21.8L88 75z"/><path fill="#f7f9f7" fill-opacity=".5" d="M249 72l-62 2-14-25z"/><path fill="#d2d3d9" fill-opacity=".5" d="M206 97l-4-10 36 10z"/><ellipse cx="219" cy="78" fill="#a7a7ac" fill-opacity=".5" rx="10" ry="1"/><path fill="#f0f3f7" fill-opacity=".5" d="M105 75l13 2-9-45z"/><path fill="#9fa1a8" fill-opacity=".5" d="M245 77h11v1h-11z"/><path fill="#f0f2f4" fill-opacity=".5" d="M95 15l19 41-5-32z"/><path fill="#b8b9c1" fill-opacity=".5" d="M92.6 77.3l22.9 2.4-.1 1-22.9-2.4z"/><ellipse cx="13" cy="75" fill="#f4f9f9" fill-opacity=".5" rx="22" ry="5"/><path fill="#aad3eb" fill-opacity=".5" d="M230 122l-5 23 46-18z"/><circle r="1" fill="#e0e1e4" fill-opacity=".5" transform="matrix(-.11147 -.99377 31.20898 -3.50065 246 81)"/><ellipse cx="35" cy="71" fill="#d4d6df" fill-opacity=".5" rx="11" ry="2"/><path fill="none" stroke="#fff" stroke-opacity=".5" stroke-width=".5" d="M189.4-10.1q32 9.3 56.5 23.9"/><ellipse cx="130" cy="113" fill="#d5d6dc" fill-opacity=".5" rx="43" ry="3"/><circle r="1" fill="#fffffc" fill-opacity=".5" transform="matrix(-26.8004 -10.39519 1.5326 -3.9513 240.7 2.6)"/><path fill="#babbc0" fill-opacity=".5" d="M157.4 134.1l-23.2-9.3.4-1 23.2 9.4z"/><path fill="#e4e7e9" fill-opacity=".5" d="M0 119h37l-8-12z"/><circle r="1" fill="#bfc1c6" fill-opacity=".5" transform="matrix(.92318 .96327 -8.13718 7.79848 197.2 124)"/><path fill="#d5d5db" fill-opacity=".5" d="M61.9 72.7l39.6 5.9 13.6 3.5 44.6 21.8z"/><path fill="#e3e4e9" fill-opacity=".5" d="M117.6 84.4l13.8 18.2-93.3-33.9 99.5 49.6z"/><circle r="1" fill="#d3d6da" fill-opacity=".5" transform="matrix(-9.04496 1.73542 -.18843 -.98209 64.3 129)"/><path fill="#c0cad2" fill-opacity=".5" d="M227.6 145L213 128.1l11.6-24.6-22.4 36.5z"/></g></g></svg>