<svg xmlns="http://www.w3.org/2000/svg" viewBox="0 0 1200 900"><defs/><filter id="a"><feGaussianBlur stdDeviation="12"/></filter><rect width="100%" height="100%" fill="#3f4142"/><g filter="url(#a)"><g fill-opacity=".5" transform="translate(2.3 2.3) scale(4.6875)"><circle r="1" fill="#fff" transform="rotate(-135.3 56.6 25.4) scale(114.37792 255)"/><circle r="1" fill="#fff" transform="rotate(-2.5 2126.1 -549) scale(61.0063 104.43291)"/><circle cx="192" cy="166" r="122" fill="#687162"/><path fill="#321500" d="M190 85L115-8 71-1z"/><ellipse cx="184" cy="7" fill="#f2ffff" rx="59" ry="21"/><circle r="1" fill="#060c1b" transform="matrix(67.76074 -43.66882 2.7438 4.25754 105.4 160.2)"/><path fill="#061400" d="M177 77h40v25h-40z"/><ellipse cx="116" cy="101" fill="#545529" rx="29" ry="34"/><path fill="#b8bd8c" d="M271 61L142 92l73-87z"/><path fill="#dee3e9" d="M-16 195.9l102.5-29.4 1 1.4 2-60z"/><circle r="1" fill="#debe80" transform="matrix(1.75658 7.66964 -50.65147 11.60073 255 100.2)"/><circle r="1" fill="#cbd7e0" transform="matrix(53.6871 31.24663 -5.80738 9.97808 124 60)"/><ellipse cx="7" cy="105" fill="#fafbf2" rx="27" ry="191"/><circle r="1" fill="#94a2ba" transform="matrix(-17.98798 -8.4645 25.41958 -54.01935 127.5 190.1)"/><path fill="#13151e" d="M18 207l62-16 32-40z"/><path fill="#d0dfec" d="M182 0h25v67h-25z"/><circle r="1" fill="#bacce0" transform="matrix(9.03016 -17.76644 10.91807 5.54934 159.9 100.9)"/><path fill="#8f9846" d="M214 33h42v53h-42z"/><path fill="#4d5233" d="M90 70h16v71H90z"/><circle cx="200" cy="138" r="28" fill="#404756"/><circle r="1" fill="#d6ebfa" transform="matrix(-15.36029 5.12685 -10.34872 -31.0053 153.2 9.5)"/><ellipse cx="70" cy="17" fill="#b7c2c2" rx="19" ry="157"/><path fill="#90938e" d="M230 108h26v30h-26z"/><path fill="#d1e0e7" d="M254-16l-21 72-20-72z"/><path fill="#453d33" d="M188.3 93.9l-9.7-43.5-8.3 9.3L77.5-16z"/><path fill="#b29f6d" d="M148.2 96.7l-29.6-.2-9.5 8.8 41 7.8z"/><path fill="#98966f" d="M196.3 29.2L213 10.7l26.7 24L223 53.4z"/><path fill="#a7b9ce" d="M154.6 120.1l-68.8 46.4-4.4-6.6 68.8-46.4z"/><path fill="#46502d" d="M270.3 83.9l-19-14.6-87.9 39.8 63.1-6.8z"/><path fill="#98884d" d="M47-12l86 59L96 3z"/><ellipse cx="130" cy="86" fill="#4f572d" rx="19" ry="10"/><path fill="#d9ecfc" d="M135.9 16.1l-35.9-32 76.2-.1 73.9 21.3z"/><path fill="#8b97a7" d="M189.7 124.2l-28.6-4.3L90.7 207l-5.9-22.6z"/><ellipse cx="124" cy="117" fill="#3a495e" rx="25" ry="8"/><path fill="#b2bb63" d="M260.6 47L239 43l10.4-54L271-6.9z"/><path fill="#bec6c1" d="M209.5 69.3l7.9-8.3-19.8-44.1-41.1-.2z"/><path fill="#503a2b" d="M70-16l61 27 25 47z"/><path fill="#374234" d="M177 83l35-14-1 36z"/><path fill="#31353d" d="M59 206l74-64-48 23z"/><circle r="1" fill="#c3cad3" transform="matrix(-16.59815 31.67465 -20.74059 -10.86848 64.3 148.2)"/><path fill="#54575d" d="M170.3 216.7l-31.7-19 53-88.4 31.8 19z"/><path fill="#c0c6c3" d="M109.8 33.8l9.7 34.4-79.8-25.5L26.3-16z"/><path fill="#817e57" d="M107.2 121.7l-18.3-8.1 22-49.3 18.2 8.1z"/><circle r="1" fill="#44494d" transform="matrix(-23.25275 17.39528 -1.60856 -2.1502 167.8 115.4)"/><path fill="#b0bcc9" d="M149 79h28v25h-28z"/><path fill="#b8c3c2" d="M176 29l-41-19 38 53z"/><path fill="#7f856c" d="M149 77l-58-1-7-19z"/><path fill="#555b59" d="M160 81h2v49h-2z"/><path fill="#bac6d1" d="M131.7 138.6L82.9 161l8-66.9-28.7 84.5z"/><path fill="#858160" d="M176.7 76.2l-55.5-45.3 10.4 29 5.8-8.3z"/><ellipse cx="233" cy="108" fill="#cfaa77" rx="56" ry="3"/><path fill="#6c7e62" d="M175 22h4v49h-4z"/><path fill="#80904b" d="M242.4 69.6l-8.5 20.3-30.7-12.4 21.7-22.3z"/><path fill="#414049" d="M91 118l22-4-21 32z"/><path fill="#878a8c" d="M87 81h4v78h-4z"/><path fill="#b7c0c7" d="M143.8 55.3l-87.6-9.8 94.4 34.1 27.4-.8z"/><path fill="#000106" d="M131 44h1v27h-1z"/><path fill="#242f2b" d="M182 88h38v11h-38z"/><path fill="#85919d" d="M71.1 195.3l99.8-79.1 14.6-1.4-49.6 92.2z"/><path fill="#4f3e3e" d="M-6.4 189.9l.1-1 20.7 3.2-.1 1z"/><path fill="#f3ffff" d="M173.3-2.8l-42.6 14.6-17.6-24 13.8-3.8z"/><path fill="#c4cfd1" d="M211.1 1.8l17.3 33.9.7 20 22.7-50.9z"/><path fill="#bfc9d1" d="M85 42l-55-7 55 130z"/><path fill="#4a5868" d="M166 108h14v13h-14z"/><path fill="#bfd1e1" d="M150 79h8v40h-8z"/><path fill="#a4a571" d="M207.5 4.2l-3.4 27.4 5.8 10.3 16.3-13.7z"/><path fill="#5e6c33" d="M90 69h14v31H90z"/><path fill="#2d371a" d="M257.9 94.3l-8.7-8.1-7-.6-17.2 5.1z"/><path fill="#4b5159" d="M194 112h39v80h-39z"/><path fill="#949a67" d="M248.7 58L271-13l-27.9 47.4-13.7-6.6z"/><path fill="#a2947d" d="M192 84.6l-6-22.2 4-1 6 22.2z"/><ellipse cx="184" cy="53" fill="#dce8f7" rx="4" ry="7"/><circle r="1" fill="#636162" transform="rotate(146.6 57 121.2) scale(27.72251 24.46712)"/><path fill="#f3e9de" d="M-2 189.2l-14-52.7 50 13.2 4.9 43z"/><path fill="#95959d" d="M163 85.7L72.9 62.1l36.7 4.9 42 12.5z"/><path fill="#c9b88f" d="M139 99l11 7-10 4z"/><path fill="#abb1ac" d="M197 72.5l-22-51.2L171.9 6l16.2 31.2z"/><path fill="#5e6c50" d="M144 81h4v38h-4z"/><ellipse cx="5" cy="17" fill="#cadadf" rx="10" ry="28"/><circle r="1" fill="#b7b5a1" transform="rotate(32.8 14.2 127.7) scale(70.87103 5.99148)"/><path fill="#576a5e" d="M182 48l-4 11-2-27z"/><path fill="#60585a" d="M180 100h47v5h-47z"/><path fill="#939a8a" d="M177 58l-7-30-7 17z"/><path fill="#c7dde9" d="M181.7 28.4l-10.4 7.4 1.4-11.1 9.1 12.4z"/><path fill="#3a3e43" d="M122 156l-70.4 51-23.3-3.1L94 160.2z"/><circle r="1" fill="#acbcc7" transform="matrix(-.86747 -1.39365 31.86687 -19.83538 128.8 136.8)"/><path fill="#868f96" d="M150.6 123.6l-60.3 33.6-4.4-8.5 51.7-26z"/><path fill="#8d9450" d="M88.9 65.1l21.4 32.7 3.8-22.7-7.2 1.8z"/><circle r="1" fill="#705f53" transform="matrix(-41.52498 -45.11055 3.05901 -2.81587 130.6 19.6)"/><path fill="#2f261f" d="M106.8 16.4l27.6 21.2-27-29.2-7.6 1.4z"/><path fill="#24241e" d="M154.7 75.5l-.4-13h1l.4 13z"/><path fill="#d7dad9" d="M209 63l-18-7 22-3z"/><circle r="1" fill="#d4e6f8" transform="matrix(17.34273 12.55404 -4.27579 5.90677 227 4.2)"/><path fill="#646d67" d="M237 147l-17-35 51 16z"/><circle cx="156" cy="25" r="6" fill="#ddf1ff"/><circle r="1" fill="#b2b781" transform="rotate(-68 145.3 -164.7) scale(36.29834 5.62662)"/><circle r="1" fill="#adaba0" transform="matrix(.10516 -1.4386 36.04388 2.63473 248 112.5)"/><ellipse cx="227" cy="106" fill="#9f8062" rx="52" ry="2"/><circle r="1" fill="#929ba4" transform="matrix(-33.32468 56.34896 -9.76852 -5.77709 130.4 183)"/><path fill="#62767d" d="M91.9 142.1l47.2-20.6-32.8-4.3 28.5 11.5z"/></g></g></svg>