<svg xmlns="http://www.w3.org/2000/svg" viewBox="0 0 1200 1167"><defs/><filter id="prefix__a"><feGaussianBlur stdDeviation="12"/></filter><rect width="100%" height="100%" fill="#4d4d4d"/><g filter="url(#prefix__a)"><g transform="translate(2.3 2.3) scale(4.6875)"><circle cx="138" cy="157" r="227" fill="#fff" fill-opacity=".5"/><circle cx="159" cy="65" r="255" fill="#fff" fill-opacity=".5"/><circle cx="166" cy="122" r="209" fill="#fff" fill-opacity=".5"/><circle cx="112" cy="126" r="83" fill="#d5d5d5" fill-opacity=".5"/><ellipse cx="215" cy="95" fill="#030303" fill-opacity=".5" rx="2" ry="52"/><ellipse cx="237" cy="136" fill="#fff" fill-opacity=".5" rx="21" ry="247"/><ellipse cx="108" cy="18" fill="#fff" fill-opacity=".5" rx="255" ry="26"/><path fill-opacity=".5" d="M153 44h66v3h-66z"/><ellipse cx="19" cy="143" fill="#fff" fill-opacity=".5" rx="25" ry="247"/><ellipse cx="45" cy="103" fill="#3c3c3c" fill-opacity=".5" rx="2" ry="29"/><ellipse cx="68" cy="77" fill="#cacaca" fill-opacity=".5" rx="44" ry="31"/><ellipse cx="215" cy="173" fill="#181818" fill-opacity=".5" rx="2" ry="15"/><ellipse cx="148" cy="247" fill="#fff" fill-opacity=".5" rx="253" ry="14"/><path fill="#fff" fill-opacity=".5" d="M215.8 129.4l30.3-143.3L271 164.9l-113.8 1.8z"/><ellipse cx="46" cy="175" fill="#181818" fill-opacity=".5" rx="2" ry="13"/><ellipse cx="157" cy="106" fill="#040404" fill-opacity=".5" rx="60" ry="1"/><path fill="#f1f1f1" fill-opacity=".5" d="M156 46h59v39h-59z"/><ellipse cx="249" cy="192" fill="#fff" fill-opacity=".5" rx="33" ry="247"/><path fill="#afafaf" fill-opacity=".5" d="M161 172h31v17h-31z"/><path fill="#e1e1e1" fill-opacity=".5" d="M183 160l31 27V50z"/><ellipse cx="114" cy="24" fill="#fff" fill-opacity=".5" rx="255" ry="20"/><path fill="#6b6b6b" fill-opacity=".5" d="M51.5 47l.8 5.9 37-8.8-46.5 15.1z"/><ellipse cx="153" cy="68" fill="#0c0c0c" fill-opacity=".5" rx="1" ry="29"/><path fill="#f3f3f3" fill-opacity=".5" d="M4 130h133v36H4z"/><path fill="#161616" fill-opacity=".5" d="M161 95h58v1h-58z"/><path fill="#a1a1a1" fill-opacity=".5" d="M75.7 178.4l44-17.5-1 31.8-9.9-24z"/><ellipse cx="51" cy="106" fill="#606060" fill-opacity=".5" rx="40" ry="1"/><ellipse cx="20" cy="98" fill="#f6f6f6" fill-opacity=".5" rx="25" ry="108"/><path fill="#151515" fill-opacity=".5" d="M79.7 48.4l-35.1 8.1-.3-1 35.1-8z"/><circle r="1" fill="#3e3e3e" fill-opacity=".5" transform="rotate(-172.6 107.8 57.4) scale(11.35778 1)"/><ellipse cx="150" cy="187" fill="#686868" fill-opacity=".5" rx="71" ry="1"/><ellipse cx="95" cy="196" fill="#f7f7f7" fill-opacity=".5" rx="119" ry="8"/><path fill="#363636" fill-opacity=".5" d="M68 87h32v2H68z"/><path fill-opacity=".5" d="M189.5 123h-1V93h1z"/><ellipse cx="52" cy="128" fill="#282828" fill-opacity=".5" rx="6" ry="2"/><path fill="#676767" fill-opacity=".5" d="M102.9 132.2l-.2-1 58.4-13.4.2 1z"/><ellipse cx="215" cy="100" fill-opacity=".5" rx="1" ry="29"/><ellipse cx="182" cy="45" fill-opacity=".5" rx="29" ry="1"/><path fill="#555" fill-opacity=".5" d="M108 44h1v86h-1z"/><path fill="#414141" fill-opacity=".5" d="M63 51h1v78h-1z"/><path fill="#3b3b3b" fill-opacity=".5" d="M203 165h15v3h-15z"/><ellipse cx="90" cy="70" fill="#3d3d3d" fill-opacity=".5" rx="1" ry="29"/><path fill="#191919" fill-opacity=".5" d="M143 172h2v16h-2z"/><path fill="#7f7f7f" fill-opacity=".5" d="M154 96.8v3l-32-.6v-3z"/><path fill="#f0f0f0" fill-opacity=".5" d="M113.5 182l-6.8-81.1 37.7-5.2L119 59.5z"/><path fill="#404040" fill-opacity=".5" d="M117 81h1v48h-1z"/><path fill="#fff" fill-opacity=".5" d="M65 27h5v90h-5z"/><path fill="#393939" fill-opacity=".5" d="M73 172l-1 16h-1l1-16z"/><path fill="#e6e6e6" fill-opacity=".5" d="M73.4 217.2l-25.9-73.9-1.1 69.3 89.3-40.8z"/><ellipse cy="120" fill="#fff" fill-opacity=".5" rx="27" ry="40"/><ellipse cx="63" cy="193" fill="#6b6b6b" fill-opacity=".5" rx="1" ry="25"/><path fill="#1f1f1f" fill-opacity=".5" d="M45.4 167.5l.2-2 13 1-.2 2z"/><path fill="#6f6f6f" fill-opacity=".5" d="M138 170l-22-5 9 6z"/><path fill="#fff" fill-opacity=".5" d="M217 39h39v207h-39z"/><path fill="#7f7f7f" fill-opacity=".5" d="M76.5 117.6l8.8.7-32.6 10.9 27-13z"/><path fill-opacity=".5" d="M45 166h1v23h-1z"/><ellipse cx="68" cy="218" fill="#f2f2f2" fill-opacity=".5" rx="132" ry="12"/><path fill="#fdfdfd" fill-opacity=".5" d="M68 100h93v6H68z"/><ellipse cx="165" cy="149" fill="#ebebeb" fill-opacity=".5" rx="57" ry="25"/><path fill="#fff" fill-opacity=".5" d="M109 42h10v43h-10z"/><ellipse cx="84" cy="67" fill="#333" fill-opacity=".5" rx="23" ry="1"/><ellipse cx="124" cy="242" fill="#fff" fill-opacity=".5" rx="255" ry="8"/><path fill="#e9e9e9" fill-opacity=".5" d="M5 54l71 10L4 82z"/><path fill="#505050" fill-opacity=".5" d="M160.8 117.2l42.7 10.6-.3 1-42.7-10.6z"/><ellipse cx="45" cy="104" fill-opacity=".5" rx="1" ry="25"/><ellipse cx="52" cy="82" fill="#222" fill-opacity=".5" rx="9" ry="1"/><path fill="#e6e6e6" fill-opacity=".5" d="M26 34l26 50-25 17z"/><path fill="#f2f2f2" fill-opacity=".5" d="M55.3 239.3l7.2-71.5 16.5 6.6-23.9-55.2z"/><path fill="#f1f1f1" fill-opacity=".5" d="M191 170h24v44h-24z"/><path fill="#fff" fill-opacity=".5" d="M49.3 53h-5.4L39.7 3.3l78.6 32z"/><ellipse cx="96" cy="62" fill="#6e6e6e" fill-opacity=".5" rx="32" ry="1"/><path fill="#fff" fill-opacity=".5" d="M172 175h8v12h-8z"/><path fill="none" stroke="#6f6f6f" stroke-opacity=".5" stroke-width=".5" d="M73.9 126q-5-38.4-3-57"/><path fill="#ececec" fill-opacity=".5" d="M110 62h43v27h-43z"/><path fill="#1b1b1b" fill-opacity=".5" d="M135 102h1v24h-1z"/><path fill="#9a9a9a" fill-opacity=".5" d="M73.4 118.3l-6.3-2.7 66.3 21.3L85 119.2z"/><ellipse cx="104" cy="206" fill="#bebebe" fill-opacity=".5" rx="80" ry="2"/><path fill="#636363" fill-opacity=".5" d="M53 86h2v24h-2z"/><path fill="#f9f9f9" fill-opacity=".5" d="M34 94.2l1.5-2.6L54 101.8l-1.4 2.6z"/><ellipse cx="189" cy="175" fill="#363636" fill-opacity=".5" rx="1" ry="12"/><path fill="#e7e7e7" fill-opacity=".5" d="M26 130h193v36H26z"/><path fill="#141414" fill-opacity=".5" d="M43.5 72v-1l17 1v1z"/><path fill="#ababab" fill-opacity=".5" d="M209 216.5l-.3 1-51.6-12 .2-1z"/><path fill="#737373" fill-opacity=".5" d="M203.5 168.2l-42.7 10.6-.3-1 42.7-10.6z"/><path fill="#f0f0f0" fill-opacity=".5" d="M154 63h55v32h-55z"/><path fill="#f5f5f5" fill-opacity=".5" d="M157 18.6L90 71.1l1.5-21.3 20.1 2.5z"/><path fill-opacity=".5" d="M217.2 72h-1l-1.4-28h1z"/><path fill="#fafafa" fill-opacity=".5" d="M78 34h8v27h-8z"/><ellipse cx="162" cy="113" fill="#fdfdfd" fill-opacity=".5" rx="25" ry="5"/><circle cx="105" cy="45" r="2" fill-opacity=".5"/><path fill="#efefef" fill-opacity=".5" d="M198.9 107.6l11.2 47.8-26.9-22.9 14.5 83z"/><path fill="none" stroke="#333" stroke-opacity=".5" stroke-width=".5" d="M81.4 183.7q-1-9 6-8.3"/><path fill="#fff" fill-opacity=".5" d="M143 36l12 1-10 34z"/><path fill="#747474" fill-opacity=".5" d="M75 63l33.9-3v1l-33.8 3z"/><path fill="#f0f0f0" fill-opacity=".5" d="M145 162h17v32h-17z"/><path fill="#4c4c4c" fill-opacity=".5" d="M171.2 96l.6 18h-1l-.6-18z"/><path fill="#939393" fill-opacity=".5" d="M94 88h61v1H94z"/><ellipse cx="112" cy="113" fill="#f5f5f5" fill-opacity=".5" rx="3" ry="69"/><ellipse cx="33" cy="173" fill="#e9e9e9" fill-opacity=".5" rx="8" ry="130"/><path fill="#484848" fill-opacity=".5" d="M82 188h-1l-1-12h1z"/></g></g></svg>