<svg xmlns="http://www.w3.org/2000/svg" viewBox="0 0 1200 527"><defs/><filter id="a"><feGaussianBlur stdDeviation="12"/></filter><rect width="100%" height="100%" fill="#464544"/><g filter="url(#a)"><g fill-opacity=".5" transform="translate(2.3 2.3) scale(4.6875)"><circle r="1" fill="#fffff4" transform="matrix(4.87247 -77.32169 254.4952 16.03715 92.8 35.3)"/><ellipse cx="104" cy="84" rx="13" ry="49"/><path d="M199 77.9l-1.9-27 40-2.8 1.8 27z"/><circle r="1" fill="#f8f6f2" transform="matrix(24.88333 24.62411 -68.9511 69.67696 57.1 33.1)"/><ellipse cx="148" cy="23" fill="#e6dcd1" rx="33" ry="62"/><circle r="1" fill="#6f615a" transform="matrix(232.25464 -34.79869 3.91032 26.09837 164.2 103.4)"/><path fill="#e8e2dc" d="M-15 102l118-13-14-36z"/><ellipse cx="136" cy="43" fill="#5d5a50" rx="7" ry="24"/><path fill="#1a1a16" d="M106.7 107.8l13.8-43.9-.5-15.7-28.3-.5z"/><path fill="#797566" d="M61 49h17v26H61z"/><circle r="1" fill="#92806e" transform="rotate(140.6 111.1 43.3) scale(22.50313 128.96416)"/><circle r="1" fill="#fff" transform="rotate(179.9 27.6 23.6) scale(4.02617 53.05181)"/><path fill="#f6f7f6" d="M151 84l-1-37-19 43z"/><path fill="#625853" d="M65 127l-81-22 180-20z"/><path fill="#232526" d="M201 51.5l42.1 1.9-36.8 34.8-2.6-36.5z"/><ellipse cx="93" cy="28" fill="#6b5d4e" rx="2" ry="98"/><path fill="#aca8a0" d="M0 50h52v30H0z"/><path fill="#d8cec4" d="M143 12h49v55h-49z"/><path fill="#f1f3ef" d="M98.8 33.4L95.2 2.7 125.7-16l1.8 38z"/><path fill="#67594f" d="M160 89l-6-14 54-11z"/><ellipse cx="82" cy="33" fill="#fff9f2" rx="5" ry="50"/><ellipse cx="232" cy="98" fill="#877f77" rx="32" ry="27"/><path fill="#fff" d="M96 6h4v41h-4zM4 37h23v10H4z"/><path fill="#dbd4cc" d="M181.4 34.2L137.5 8.7l-14.6 83.7-3.8-74.5z"/><path fill="#9e9993" d="M145.5 125.6l-11.8-23.2 66.8-34 11.8 23.2z"/><ellipse cx="103" cy="83" fill="#1c1e21" rx="3" ry="54"/><path fill="#b8b5b7" d="M-15 13l41 24 39-53z"/><path fill="#e9ebea" d="M-33 88.4L69.3 77.7 71 93.6l-102.5 10.7z"/><path fill="#857b5c" d="M111 31h9v23h-9z"/><path fill="#91948e" d="M62 3h15v16H62z"/><path fill="#c4ae9d" d="M242 0h9v78h-9z"/><path fill="#f4f7f4" d="M155 0h8v41h-8z"/><path fill="#616058" d="M226.2 28l3.7-3 13.4 8.8-38.6 1.9z"/><path fill="#c9bbb2" d="M168 35h62v13h-62z"/><path fill="#7f776e" d="M-15.4 114.5l1.6-102.9L3.1 33l1.8 17.5z"/><ellipse cx="132" cy="81" fill="#837c71" rx="2" ry="107"/><path fill="#5e5c54" d="M139 22h4v45h-4z"/><path fill="#15120b" d="M193 49h2v18h-2z"/><path fill="#d8cec3" d="M148.8 66l-20.9 15.7 6.4-47.2-20.4 52.8z"/><ellipse cx="56" cy="29" fill="#fff" rx="4" ry="50"/><ellipse cx="43" cy="111" fill="#726b66" rx="80" ry="9"/><path fill="#2d2e2e" d="M239.3 66.3l1-15.5-37.8 24.3 9-27z"/><ellipse cx="154" fill="#78736d" rx="1" ry="98"/><ellipse cx="107" cy="92" fill="#303433" rx="8" ry="17"/><path fill="#878884" d="M50 13l1-29H23z"/><path fill="#a6a5a0" d="M107 17h9v28h-9z"/><path fill="#dbd6d8" d="M-6.8 23.3l23.5-4.6-9.8 29.5L5.2 3z"/><path fill="#e9ebee" d="M31 28l1-32 11 44z"/><path fill="#2e2d2d" d="M120.2 69.6l-11.8-27-12.2 3-1.4 26.9z"/><path fill="#786b61" d="M53 96l36-6 37 34z"/><path fill="#bbad9f" d="M178.3 38.7l23.4 16.2 7-25.5-32.2-39.5z"/><path fill="#4e4c48" d="M158 51h2v13h-2z"/><path fill="#856a55" d="M251 14h4v83h-4z"/><path fill="#f5f9f2" d="M98 89.5l-1-17h1l1 17z"/><path fill="#9c9790" d="M23.6 21.9L.3-5.9 27.7 42 27 28.8z"/><ellipse cx="156" cy="26" fill="#f6fcf9" rx="2" ry="48"/><path fill="#fafffc" d="M172 39l-3-42h1l3 42z"/><path fill="#a9a6a2" d="M231 60h3v17h-3z"/><path fill="#dedde3" d="M223 50l-9-12 1 10z"/><path fill="#0e0e0f" d="M101 35h6v9h-6z"/><circle r="1" fill="#dbdbd9" transform="matrix(-10.28047 -2.44915 2.1919 -9.20064 143.7 77.7)"/><path fill="#6b6055" d="M115 84h18v17h-18z"/><ellipse cx="169" cy="55" fill="#898474" rx="2" ry="10"/><path fill="#7d7a6c" d="M93 0h3v41h-3z"/><path fill="#cfc6ba" d="M61 46h32v14H61z"/><path fill="#373635" d="M196.3 67l19.6-3.2 13.8 17.8-18.6-37z"/><path fill="#8e8c82" d="M64 56h14v20H64z"/><ellipse cx="99" cy="19" fill="#fff" rx="2" ry="26"/><path fill="#dad2c9" d="M114.9 84.2l16.2-8.6L120.6-16l-.8 92z"/><circle r="1" fill="#cec9c0" transform="matrix(.65394 2.90722 -43.48422 9.78125 42.1 94.2)"/><path fill="#f3f3ea" d="M79.3 6.9L74.8-16 49.5 2l17.7.2z"/><path fill="#7e7973" d="M109 78h3v18h-3z"/><path fill="#7f766e" d="M241.7 68.7l4.2-38.7-16.1 70.8 34 14.5z"/><path fill="#736c60" d="M10.3 7.5L-3.4 58.7l-1-.2L9.5 7.3z"/><path fill="#cfb4a0" d="M255 18h1v90h-1z"/><path fill="#d2cbc5" d="M-16 85l48-5-7-24z"/><path fill="#e0d9d4" d="M77 47h10v36H77z"/><path fill="#e1d3c3" d="M266-33.3l.9.4L244 33.3l-1-.4z"/><path fill="#adafac" d="M46 0h6v45h-6z"/><path fill="#efeded" d="M109 28.1l3.9 4.5L109 36l-4-4.5z"/><ellipse cx="94" cy="92" fill="#7b6f67" rx="2" ry="36"/><path fill="#89857f" d="M110.7 102.4l.7 24.6 15.9-15.4 77 3.3z"/><path fill="#edefef" d="M78.3 80.3L73 76.4l-89 11.1 92-5z"/><path fill="#7d7664" d="M110 54l2-26 6 14z"/><path fill="#958e88" d="M198 108.3l6.2-40.8-3.4-.7-51 41.2z"/><path fill="#272828" d="M94 55l11-22 9 49z"/><path fill="#6e645e" d="M102.2 127l-1.1-34.8-1.6-4.9-48.7 39.6z"/><path fill="#3e3e3c" d="M197 50h3v16h-3z"/><circle r="1" fill="#f4f5f7" transform="rotate(153.9 0 21.2) scale(3.78284 8.31618)"/><ellipse cx="132" cy="36" fill="#70695d" rx="1" ry="49"/><path fill="#e3e6dd" d="M134 20V8l11 15z"/><path fill="#605b53" d="M209 30h30v4h-30z"/><path fill="#7e7167" d="M199 75l-4-11-37 12z"/><path fill="#fff" d="M96 15h3v30h-3z"/><path fill="#aaa99f" d="M60 78l7-39 11 3z"/><path fill="#fff" d="M52 0h5v77h-5z"/><path fill="#e3e3da" d="M168.7-6l45.6-10h-38.4l-3.5 71.7z"/><path fill="#aaa7a3" d="M36 59h16v20H36z"/><path fill="#2b2a2a" d="M101 34h6v59h-6z"/></g></g></svg>