<svg xmlns="http://www.w3.org/2000/svg" viewBox="0 0 1200 244"><defs/><filter id="a"><feGaussianBlur stdDeviation="12"/></filter><rect width="100%" height="100%" fill="#444"/><g filter="url(#a)"><g fill-opacity=".5" transform="translate(2.3 2.3) scale(4.6875)"><circle cx="107" cy="19" r="164" fill="#fff"/><circle cx="105" cy="15" r="183" fill="#fff"/><circle r="1" fill="#fff" transform="matrix(139.62704 -58.8211 13.53048 32.1181 64.3 0)"/><path fill="#222" d="M239.9 33.2l2.4-3.1-48-6.1 2.8 7.7z"/><ellipse cx="60" cy="27" fill="#141414" rx="31" ry="2"/><ellipse cx="199" cy="13" rx="35" ry="2"/><ellipse cx="121" cy="24" rx="26" ry="2"/><ellipse cx="228" cy="3" fill="#fff" rx="255" ry="9"/><circle r="1" fill="#fff" transform="rotate(34.4 74.9 419.4) scale(26.22294 45.47717)"/><ellipse cx="217" cy="46" fill="#fff" rx="86" ry="15"/><path fill="#fff" d="M0 0h81v27H0z"/><path d="M161 30h79v2h-79zm-53 14h24v3h-24z"/><path fill="#fff" d="M138 14h96v10h-96zM-16 40.9L106.6-16 86.2 47.1l-13-33.6z"/><path d="M143.3 34.4l-2.6-3 15.9 2.7.8 1z"/><ellipse cx="46" cy="28" rx="18" ry="1"/><path fill="gray" d="M44 43h60v5H44z"/><ellipse cx="191" cy="13" rx="30" ry="1"/><circle r="1" fill="#fff" transform="matrix(15.83449 -23.2165 37.56547 25.621 10.1 51)"/><path fill="#fff" d="M80 26h78v7H80z"/><path fill="#676767" d="M233.8 21.2l8.3 2.9-19.6 17.1 11-15.5z"/><ellipse cx="213" cy="5" fill="#fff" rx="83" ry="7"/><path d="M164.5 35l-29-1v-1l29 1z"/><path fill="#131313" d="M97 34.2l-21.9 1.6-.1-2 21.9-1.6z"/><ellipse cx="155" cy="39" fill="#fff" rx="89" ry="5"/><ellipse cx="161" cy="39" rx="1" ry="16"/><path fill="#272727" d="M206.3 22.7l17.8 5.5-51 3.5h23.1z"/><path fill="#fff" d="M43 50.2l30.4-.4 12.8-25.2L99.5 67zM145 0h15v33h-15z"/><circle r="1" fill="#fff" transform="matrix(8.00525 -9.54029 42.17028 35.38507 254.9 20.2)"/><path d="M64 42h5v6h-5z"/><ellipse cx="128" cy="51" fill="#fff" rx="105" ry="3"/><path d="M28 27h46v2H28z"/><path fill="#fff" d="M0 30h75v10H0z"/><path d="M89 24h55v1H89z"/><ellipse cx="60" cy="7" fill="#fff" rx="61" ry="20"/><path fill="#343434" d="M45 40l-1 9 7-8z"/><ellipse cx="99" cy="44" fill="#2d2d2d" rx="3" ry="5"/><path fill="#636363" d="M189 25l-7-13 4 20z"/><path fill="#0d0d0d" d="M144.3 32.5l.4 25h-1l-.4-25z"/><path fill="#fff" d="M51 33h6v19h-6zm112-16h23v13h-23zm25-2h10v16h-10z"/><path fill="#0e0e0e" d="M160 27h4v7h-4z"/><circle r="1" fill="#1c1c1c" transform="rotate(-98.7 49.6 -2.8) scale(3.94757 1)"/><path fill="#c4c4c4" d="M102 13.4l3.8 8.1L139.7-16l-9 30.2z"/><path fill="#313131" d="M83 44h3v6h-3z"/><path fill="#fff" d="M163 33h58v12h-58z"/><path d="M233 24h3v5h-3z"/><path fill="#fff" d="M0 32h45v18H0zm46 18h210v2H46z"/><path fill="#ededed" d="M67.1 47L121 28.5l45.6-6.1-25.2 11z"/><circle cx="127" cy="46" r="4" fill="#3b3b3b"/><path d="M227 34.3l-.6-.7 4.5-4 .7.8z"/><ellipse cx="185" cy="13" rx="23" ry="1"/><path fill="#101010" d="M93 48l1-16h1l-1 16z"/><path d="M198 25h10v3h-10z"/><ellipse cx="193" cy="31" rx="32" ry="1"/><path d="M93.5 33.5h9v1h-9z"/><circle r="1" fill="#fff" transform="matrix(-51.10041 2.26683 -.34391 -7.75273 181.6 3.5)"/><path fill="#fff" d="M223 24h11v6h-11z"/><ellipse cx="76" cy="44" fill="#575757" rx="1" ry="12"/><ellipse cx="121" cy="45" rx="5" ry="2"/><ellipse cx="104" cy="40" fill="#fff" rx="3" ry="15"/><path fill="#fff" d="M68.2 52.3l-1-.3 4.6-14.3 1 .3zM208 15h20v10h-20z"/><ellipse cx="184" cy="21" fill="#1e1e1e" rx="1" ry="10"/><ellipse cx="195" cy="14" fill="#7a7a7a" rx="35" ry="1"/><path fill="#fff" d="M145 0h16v32h-16z"/><ellipse cx="114" cy="24" rx="20" ry="1"/><ellipse cx="49" cy="44" rx="1" ry="5"/><path fill="#fff" d="M114 31h2v21h-2zM262.5-5l-3 59-20-1 3-59zM113-11L73 15l11 23z"/><path fill="#fcfcfc" d="M63 49h102v3H63z"/><ellipse cx="234" cy="25" rx="1" ry="5"/><path d="M161.8 33.5l-.6-11h1l.6 11z"/><path fill="#afafaf" d="M119.3 24.3l4-13.3 5.4-.3h14.5z"/><path fill="#fff" d="M162 36h27v16h-27z"/><path fill="#5c5c5c" d="M109 43h6v6h-6z"/><path fill="#030303" d="M162 12h9v2h-9z"/><path fill="#fff" d="M51 35h5v17h-5z"/><path fill="#1b1b1b" d="M222.9 23.4l.8.6-4.6 6.6-.8-.6z"/><path fill="#fbfbfb" d="M62.4 22.9l-1.3 25.8 29.8 7.9-26 2z"/><path fill="#f6f6f6" d="M124.6 56l9.8-28.3 1 .3-9.8 28.3z"/><path fill="#d2d2d2" d="M187 43h33v6h-33z"/><path fill="#f7f7f7" d="M212.1 29.2l3.3-15-2.8 30.5 18.5 8.7z"/><path fill="#fff" d="M145 39h15v13h-15z"/><ellipse cx="43" cy="1" fill="#fff" rx="61" ry="26"/><path fill="gray" d="M92.5 22.4l15 .2v1l-15-.2z"/><path fill="#fff" d="M190.7 20.6l14-5.7 2.6 6.5-14 5.7z"/><path fill="silver" d="M110 33h2v13h-2z"/><path fill="#fff" d="M130.8 21.4l43.4 4-58-35.2 68.3-6.2z"/><path d="M229.5 12.6v1l-15-.2v-1z"/><ellipse cx="70" cy="50" fill="#fff" rx="2" ry="21"/><path fill="#040404" d="M82.3 42.8l.8-.6 2.6 3-.8.6z"/><path d="M73 41h1v5h-1z"/><path fill="#222" d="M187.4 26.5l-1-.5 2.2-4.5 1 .5z"/><path d="M71.4 41h1l.2 2h-1z"/></g></g></svg>