<svg xmlns="http://www.w3.org/2000/svg" viewBox="0 0 913 1200"><defs/><filter id="a"><feGaussianBlur stdDeviation="12"/></filter><rect width="100%" height="100%" fill="#444"/><g filter="url(#a)"><g fill-opacity=".5" transform="translate(2.3 2.3) scale(4.6875)"><circle r="1" fill="#fff" transform="rotate(-149.1 76 25.1) scale(194 108.81207)"/><circle r="1" fill="#fff" transform="matrix(150.30442 97.24918 -60.23442 93.0959 118.7 66.4)"/><path d="M91 64h20v140H91z"/><ellipse cx="158" cy="72" fill="#fff" rx="47" ry="146"/><circle r="1" fill="#fff" transform="rotate(29.4 -83 84.6) scale(53.41095 100.43303)"/><path fill="#fff" d="M114 85h32v136h-32z"/><ellipse cx="66" cy="107" fill="#fff" rx="28" ry="57"/><path fill="#5b5b5b" d="M36 124l-52 4 119 119z"/><ellipse cx="102" cy="63" fill="#535353" rx="18" ry="27"/><path d="M56 260l92-20-151-28z"/><circle cx="179" cy="57" r="63" fill="#fff"/><circle cx="25" cy="63" r="60" fill="#fff"/><path fill="#999" d="M4.6 128.4L31 144.8l-35.5 56.8-26.3-16.4z"/><circle cx="161" cy="144" r="50" fill="#fff"/><circle r="1" fill="#6f6f6f" transform="matrix(-112.53673 -7.36085 .81813 -12.50804 138.2 213.1)"/><path fill="#a6a6a6" d="M134.6 262.7l-.2-14 77-1.4.2 14z"/><path fill="#1b1b1b" d="M187.2 225.3l-6.6-2.4 10.2-28.2 6.6 2.4z"/><path fill="#1f1f1f" d="M90.5 153.8l13 .4-2 58-13-.4z"/><path fill="#414141" d="M59 185l-35-49 83 61z"/><circle r="1" fill="#fff" transform="rotate(72 63.7 92.4) scale(103.2749 28.9953)"/><path fill="#fff" d="M53 88h37v79H53z"/><ellipse cx="102" cy="23" fill="#606060" rx="4" ry="16"/><path fill="#1f1f1f" d="M86 68h32v11H86z"/><path fill="#cecece" d="M113 193h72v18h-72z"/><path fill="#fff" d="M-16-10l124-6-59 168z"/><path fill="#7f7f7f" d="M21 235l43 2-24 8z"/><path fill="#b5b5b5" d="M115.7 39l5 23.5L90.3 69l-5-23.5z"/><path fill="#0c0c0c" d="M120.2 234.9l20.5 12.7 15.4-19-15.2-6.3z"/><ellipse cx="26" cy="190" fill="#0f0f0f" rx="5" ry="36"/><circle cx="59" cy="194" r="30" fill="#565656"/><path fill="#f1f1f1" d="M-16 260l35-9 3 14z"/><ellipse cx="193" cy="166" fill="#fff" rx="81" ry="28"/><path fill="#565656" d="M22 149l42 66-29-98z"/><path d="M82 237l-17-21-38 16z"/><path fill="#818181" d="M-16 231.6l22.6-17.9.8-86.1-23.4 5.3z"/><circle cx="6" cy="96" r="30" fill="#fff"/><ellipse cx="93" cy="111" fill="#5f5f5f" rx="2" ry="55"/><path fill="#fff" d="M28 110l63-28-2 97z"/><path fill="#757575" d="M152.7 227.6l.5-31.9-29.5 30L45.4 194z"/><path fill="#595959" d="M113.2 238.1l-.4-3.2-30.8 2.5 41.2-30.2z"/><path fill="#fdfdfd" d="M112 78h83v116h-83z"/><ellipse cx="167" fill="#fff" rx="63" ry="73"/><path fill="#ccc" d="M152 195h32v19h-32z"/><ellipse cx="49" cy="155" fill="#4c4c4c" rx="3" ry="10"/><path fill="#939393" d="M86 49l25-12-8-21z"/><path fill="#5a5a5a" d="M154 234l48-33 3 44z"/><path fill="#bcbcbc" d="M42 214h8v8h-8z"/><path fill="#3d3d3d" d="M118 72l-24 4 24-18z"/><path d="M25.7 217.9l-4.5 5.6 32.4 17-16.5-28.2z"/><ellipse cx="116" cy="255" fill="#646464" rx="38" ry="6"/><path fill="#323232" d="M11 213v-45l36 48z"/><path fill="#0a0a0a" d="M158 212l-2 9 10 1z"/><path fill="#020202" d="M19 248h53v4H19z"/><ellipse cx="10" cy="239" fill="#787878" rx="21" ry="4"/><path fill="#747474" d="M107 139h5v90h-5z"/><path fill="#494949" d="M83.2 66.9l34.8 9.4-9.2 7.7-23.9-8.4z"/><path fill="#141414" d="M177 218h10v11h-10z"/><path fill="#c8c8c8" d="M110 65l-15-1 7-32z"/><path fill="#616161" d="M184 195h11v26h-11z"/><path fill="#f6f6f6" d="M85.9 62.4l-39 91.3L39 134l.3 4z"/><path fill="#878787" d="M-6.9 135.6l-9.1 12.5 48.3-2.7 6.7-24.2z"/><path fill="#797979" d="M14 252h37v4H14z"/><path fill="#f9f9f9" d="M110.5 125.8l-.2-29 99.7-36-96.1 139.8z"/><path fill="#747474" d="M47 159l-22 13 56-2z"/><path fill="#fff" d="M106.7 48.7l1.5-2.6 13 7.2-1.4 2.6z"/><path fill="#c2c2c2" d="M119.6 210.4l11.1-18.4-7 32.9 20.5-19z"/><path d="M42.3 158l-16.9-2 .3-2 16.9 2z"/><ellipse cx="69" fill="#fff" rx="31" ry="54"/><path fill="#5d5d5d" d="M16 227.1l14 2.5-46 17.7L8 271z"/><path fill="#f9f9f9" d="M89 107L77 14l-93 115z"/><path fill="#0c0c0c" d="M2 243h31v3H2z"/><path fill="#7c7c7c" d="M102.8 33.3L88.6 73.6l17.5-4.3-24.7-3z"/><circle r="1" fill="#a6a6a6" transform="matrix(-.1485 2.28513 -18.54422 -1.20503 179.6 255)"/><path fill="#141414" d="M88 195h16v15H88z"/><path fill="#c1c1c1" d="M148 217.5l5.4-13 4.6 2-5.4 13z"/><path fill="#565656" d="M15.2 220.3l29-36.6 54.7 8.1-92.9 28z"/><path fill="#3b3b3b" d="M6 148h13v7H6z"/><path fill="#898989" d="M-16 122.8l32.8 41 8.2 5.4-41 1.8z"/><path fill="#535353" d="M114 43h2v17h-2z"/><path fill="#3c3c3c" d="M30.5 185.7l27.4-13.5 53.7 18.5-31.7-1.5z"/><path fill="#6b6b6b" d="M72 195h15v31H72z"/><path fill="#080808" d="M121 228h27v7h-27z"/><path fill="#292929" d="M19.8 199.6L-4.5 236l20 .2 4.1-13.3z"/><path fill="#1b1b1b" d="M188 195h7v5h-7z"/><path fill="#9c9c9c" d="M132 209.8v2l-46 2.4v-2z"/><path fill="#737373" d="M18 146h3v49h-3z"/><path fill="#464646" d="M102 200.3l12-9.8-3.8 21.8-7.8-43.3z"/><path fill="#050505" d="M54 232l17-9 36 21z"/><path d="M99.5 124.5l.9.4-1.9 4.6-.9-.4z"/><path fill="#515151" d="M94 58h14v2H94z"/><path fill="#666" d="M0 169h9v47H0z"/><path fill="#464646" d="M86 215h20v20H86z"/><circle r="1" fill="#6c6c6c" transform="matrix(-15.96891 1.56577 -.13319 -1.35835 42.5 243.5)"/><path fill="#747474" d="M41.2 256.1L-6 249.8l30.8-2-38.1-4z"/><ellipse cx="169" cy="248" fill="#666" rx="29" ry="3"/><path fill="#838383" d="M106 82h5v74h-5z"/><path d="M121 220l-1 .4-3-8.5 1-.3z"/><path fill="#444" d="M35.2 154.3l-8.5-1.2L39 134.2l6.9 39.2z"/><path fill="#7e7e7e" d="M159.9 232.9l11.3-4.4-37.6-40.8 52.6 51.3z"/><path fill="#5b5b5b" d="M95 44h13v3H95z"/></g></g></svg>