<svg xmlns="http://www.w3.org/2000/svg" viewBox="0 0 1200 900"><defs/><filter id="a"><feGaussianBlur stdDeviation="12"/></filter><rect width="100%" height="100%" fill="#33425e"/><g filter="url(#a)"><g fill-opacity=".5" transform="translate(2.3 2.3) scale(4.6875)"><circle r="1" fill="#fff" transform="matrix(-254.97994 -3.19816 .89683 -71.50182 133 109.8)"/><ellipse cx="150" cy="85" fill="#fff" rx="70" ry="41"/><ellipse cx="114" cy="131" fill="#2a3114" rx="255" ry="7"/><ellipse cx="153" cy="83" fill="#fff" rx="56" ry="34"/><ellipse cx="93" cy="22" fill="#060000" rx="255" ry="8"/><ellipse cx="147" cy="149" fill="#f3ffff" rx="65" ry="11"/><ellipse cx="105" cy="187" fill="#7c7d4d" rx="255" ry="29"/><circle r="1" fill="#f3f6d9" transform="matrix(-29.92847 26.18627 -14.6119 -16.70004 35 79.5)"/><path fill="#393d21" d="M131-16L-16 2 94 61z"/><circle r="1" fill="#64643b" transform="matrix(-34.61001 -18.56155 8.59242 -16.0215 240 56.4)"/><path fill="#89a9d5" d="M101 31h102v20H101z"/><circle r="1" fill="#8b8d72" transform="matrix(-7.17373 -69.60944 30.58984 -3.1525 243.8 110.6)"/><circle r="1" fill="#faffff" transform="rotate(-115.5 105.5 -9.6) scale(33.44579 50.01279)"/><path fill="#64673e" d="M27 27.5l26.8 13.6L43 62.5 16.2 48.9z"/><path fill="#040900" d="M114 131h4v55h-4z"/><circle r="1" fill="#4b564e" transform="matrix(-10.1708 -13.695 17.73024 -13.16764 55 127.7)"/><path fill="#010200" d="M227 42.4l33.1-9.8 10.9-15-81.1 2.1z"/><ellipse cx="155" cy="5" fill="#51583a" rx="255" ry="13"/><circle r="1" transform="matrix(-37.84447 -.19423 .03589 -6.99265 117.1 23.4)"/><ellipse cx="57" cy="56" fill="#fff" rx="11" ry="13"/><ellipse cx="150" cy="119" fill="#b8d8fd" rx="58" ry="8"/><ellipse cx="21" cy="176" fill="#949184" rx="82" ry="5"/><ellipse cx="80" cy="82" fill="#b0b9bd" rx="22" ry="29"/><circle r="1" fill="#c2ccc7" transform="rotate(112.6 -22.1 49.5) scale(39.25256 27.229)"/><path fill="#8492a3" d="M161.2 58.8l22.9-31.5 4.5-16-48.3 45.8z"/><ellipse cx="173" cy="155" fill="#fff" rx="50" ry="4"/><path fill="#fff" d="M153.8 76.6l-18.8 26-42.8-31.2 18.8-26z"/><path d="M0 18h50v13H0z"/><path fill="#3a4453" d="M85.6 51l28.8-9.7L52.1 16l16.1 30.3z"/><ellipse cx="133" cy="151" fill="#554e2f" rx="129" ry="1"/><path fill="#cbf1ff" d="M122 138h80v12h-80z"/><ellipse cx="162" cy="127" fill="#75868f" rx="97" ry="4"/><circle r="1" fill="#b3beb3" transform="rotate(2.4 -1876.3 5200.6) scale(12.31243 31.5369)"/><circle r="1" fill="#909187" transform="rotate(171.9 112.2 89.3) scale(35.73967 18.16452)"/><path fill="#3e473b" d="M239 133h17v10h-17z"/><ellipse cx="41" cy="135" fill="#2d2f1e" rx="33" ry="4"/><ellipse cx="3" cy="39" fill="#5f664e" rx="62" ry="9"/><path fill="#5b77ab" d="M90.3 34.7l59.6 12.9 45.6-15.8-94.4-.5z"/><path fill="#90978c" d="M38 121l45-12-46-21z"/><path fill="#cecdbb" d="M5 155h92v5H5z"/><circle r="1" fill="#fff" transform="matrix(45.08447 1.84309 -1.02615 25.101 162 78.4)"/><path fill="#d2e9fc" d="M106 98h99v26h-99z"/><path fill="#918062" d="M57 20h13v10H57z"/><path fill="#b2b9bb" d="M114.7 31l-29.9 77.9-49.9-17.5 79.7-45.6z"/><path fill="#b8deff" d="M77 140l34 10-2-13z"/><path d="M73 18h89v12H73z"/><path fill="#3f4a40" d="M203 124h24v7h-24z"/><path fill="#c1d4e4" d="M6 138h26v11H6z"/><ellipse cx="157" cy="130" fill="#b2b3ad" rx="103" ry="1"/><ellipse cx="206" cy="150" fill="#7b7e70" rx="123" ry="1"/><path fill="#8f9b9a" d="M7 135L3 47l-19 65z"/><path fill="#495457" d="M198.1 33.6l6 20.2 21.8-7.9L225 32z"/><path fill="#888c7e" d="M21.7 41.4l25.4 37-.6-20.6L28 31z"/><path fill="#1c2937" d="M64 31h31v13H64z"/><path fill="#323631" d="M115 131h28v7h-28z"/><ellipse cx="126" cy="158" fill="#edf3fa" rx="38" ry="2"/><path fill="#c8d2d4" d="M6 62h28v61H6z"/><path fill="#585336" d="M172 11h20v19h-20z"/><path fill="#737e80" d="M109 44.3L95.3 64.7l-19.1-5.9-20.6-17z"/><circle r="1" fill="#414937" transform="matrix(-1.65891 35.1771 -1.5055 -.071 115 168.7)"/><ellipse cx="177" cy="183" fill="#415742" rx="255" ry="4"/><circle r="1" fill="#6b7d62" transform="matrix(.03505 5.06777 -141.14408 .97632 214.1 191)"/><ellipse cx="62" cy="172" fill="#807f76" rx="110" ry="9"/><path fill="#98adc7" d="M177 36.3l-42.3 21.9-18.5-12.8 93.3-4z"/><path fill="#2b2c27" d="M43 49l-6-15 23-18z"/><path fill="#32362b" d="M203.8 130.2l.3 6-32 1.6-.2-6z"/><path fill="#8c8c81" d="M170 159h86v21h-86z"/><ellipse cx="251" cy="47" fill="#62695e" rx="25" ry="11"/><path fill="#7490bc" d="M47 138h46v11H47z"/><path fill="#fff" d="M119 153h89v5h-89z"/><circle r="1" fill="#fffff9" transform="matrix(-5.12373 7.10426 -8.29071 -5.97942 57.5 56.5)"/><ellipse cx="115" cy="2" fill="#424b43" rx="255" ry="16"/><path fill="#8f9e8f" d="M26 51l-32 6-10-22z"/><path fill="#acbbd2" d="M69.6 89.9l15.2-27.8 27.7 59.1-16.6-5.7z"/><ellipse cx="238" cy="100" fill="#8a8c7d" rx="12" ry="49"/><path fill="#000400" d="M51.4 18.2l-15.6 5.2L-16 42.2-4.1 18z"/><path fill="#fff" d="M108 50h18v40h-18z"/><circle r="1" fill="#4a4f40" transform="rotate(-86 151 25.2) scale(18.16775 3.89727)"/><path fill="#8c9eb3" d="M204.7 155.2l-8-11.9 41.6 2.1-4.4-1z"/><path fill="#f9ffff" d="M180.9 42l-65.8 59.8 87.4 5.9-7.7-31.9z"/><path fill="#050804" d="M197 19l61 17 13-19z"/><path fill="#495c52" d="M10 124h35v6H10z"/><path fill="#e5e5d5" d="M38.2 91.6l-15 .8-1.4-26 15-.8z"/><ellipse cy="169" fill="#858679" rx="108" ry="11"/><path fill="#b2bec8" d="M221 71l-52-31 28 6z"/><path fill="#c8c7af" d="M50 104L35 65l37 15z"/><path fill="#a9b6bd" d="M201.1 115l15.5-37 5.5 42-23.4 5.5z"/><circle r="1" fill="#626a64" transform="matrix(.81684 -6.3261 26.70278 3.44793 215.7 130.6)"/><ellipse cx="198" cy="12" fill="#48514b" rx="255" ry="5"/><ellipse cx="8" cy="151" fill="#83846c" rx="109" ry="2"/><ellipse cx="97" cy="144" fill="#bcd7fb" rx="16" ry="6"/><path fill="#9fb2cf" d="M165.5 122.2l9.5 3.7-5.7-18.5-6.9 28.3z"/><path fill="#647da7" d="M122 31h84v13h-84z"/><path fill="#9d9b8d" d="M243 69h13v61h-13z"/><path fill="#c9e0ff" d="M119 140h85v10h-85z"/><path fill="#777e82" d="M62 148.7l-.3-.9L96.3 126l-63.2 23z"/><path fill="#3e526e" d="M92.3 28.2L114 39.5l-45.2 7L96 52z"/><ellipse cx="126" cy="2" fill="#39423c" rx="57" ry="13"/><path fill="#d4d4b8" d="M44.8 55.8l3.5-11.6 15.1-.7 3.1 2.5z"/><path fill="#c9d7ed" d="M92.2 78.3l7.5-2.8 16.1 44.2-7.5 2.8z"/></g></g></svg>