<svg xmlns="http://www.w3.org/2000/svg" viewBox="0 0 900 1200"><defs/><filter id="a"><feGaussianBlur stdDeviation="12"/></filter><rect width="100%" height="100%" fill="#3f3d3e"/><g filter="url(#a)"><g fill-opacity=".5" transform="translate(2.3 2.3) scale(4.6875)"><circle cx="165" cy="139" r="216" fill="#eefaff"/><circle r="1" fill="#2a2518" transform="rotate(-179.5 89.6 54.3) scale(191 40.52882)"/><circle r="1" fill="#d3ecff" transform="rotate(74.5 51 77.4) scale(70.50494 133.73139)"/><ellipse cx="20" cy="207" fill="#d2cfcd" rx="129" ry="44"/><circle r="1" fill="#29272a" transform="rotate(159.7 76.1 73.8) scale(38.08987 55.92047)"/><path fill="#50493f" d="M62 45L35 70l103 23z"/><path fill="#0e121f" d="M99 98h27v71H99z"/><ellipse cx="168" cy="24" fill="#bcd0ff" rx="191" ry="39"/><path fill="#bfc0b8" d="M124 75l2 111 22-87z"/><circle r="1" fill="#f3f2e9" transform="matrix(-.65675 3.228 -86.71228 -17.64181 98 88.9)"/><path fill="#fff" d="M0 119h58v5H0z"/><path fill="#1a1913" d="M56 93h10v96H56z"/><path fill="#f2f1e6" d="M81 140H67v-34h14z"/><path fill="#403b2c" d="M-16 69L97 92l-79 20z"/><circle r="1" fill="#d5e5ff" transform="rotate(-146.6 13 22.6) scale(35.47948 25.24246)"/><path fill="#fff" d="M0 143h50v7H0z"/><path fill="#171e0b" d="M78 104l7 23 67-28z"/><circle r="1" fill="#2b1e16" transform="rotate(160.3 71.1 54) scale(26.20133 16.12357)"/><path fill="#3c4453" d="M45 50h21v29H45z"/><ellipse cx="188" cy="44" fill="#e4f3ff" rx="16" ry="27"/><circle r="1" fill="#ecece3" transform="rotate(-101.7 82.7 83.8) scale(13.9894 36.44674)"/><path fill="#504937" d="M-2 154l51 7 3-14z"/><path fill="#bdb6a5" d="M57.6 41.4l7.3 6.5L69 72.2l75.5 2.4z"/><path fill="#cbd2a2" d="M68 131h32v23H68z"/><path fill="#b6c9ff" d="M143.6 71.9l-25.4 18L207-16-16 17.3z"/><path fill="#5c6674" d="M189 111l-50 58 68-25z"/><path fill="#f4f5f0" d="M24 101h4v67h-4z"/><path fill="#f5f6f2" d="M41.5 104v78h-3v-78z"/><path fill="#151816" d="M163.3 141l27.1-37.7-81.5 12.2 33.9-10z"/><circle cx="169" cy="255" r="91" fill="#aba9b0"/><path fill="#c6c8c7" d="M127 115h14v41h-14z"/><path fill="#e3e3da" d="M73.7 63.9l-2.2-6.1L62 86.4l22.7 1.3z"/><circle r="1" fill="#2a2a22" transform="matrix(24.90493 8.57546 -.9888 2.87168 102.2 83.5)"/><ellipse cx="172" cy="209" fill="#818290" rx="48" ry="14"/><path fill="#fff" d="M80.5 85.8l45.6 11.7L113 92l-24.6-9.4z"/><path fill="#58574a" d="M58.7 170.5l.6 3-52 10-.6-3z"/><path fill="#fff" d="M12 122l-3-18-5 17z"/><path fill="#61666c" d="M152.6 122.2l2.6 16.8-17.8 2.8-2.6-16.8z"/><path fill="#1d0e11" d="M163 74h29v27h-29z"/><path fill="#5b584c" d="M18.6 170.6L8.5 151l71.9-4.5-56.3 9.6z"/><path fill="#afc2ff" d="M175.9.5L-16-12.2l34.7 80.7 45.4-21.2z"/><path fill="#3e433e" d="M196 158l-23-10-46 20z"/><path fill="#c2c4c4" d="M53 110h4v92h-4z"/><path fill="#dde9ff" d="M0 47h43v27H0z"/><path fill="#3a3f4e" d="M122 170l-41-7 45-26z"/><path fill="#4c4d4a" d="M56 108h11v78H56z"/><path fill="#4a4434" d="M22.4 125.1l1.2 17-12 .8-1.2-17z"/><path fill="#c4c4c4" d="M142 190.2l-61.3-27.6 44.8 9.7 37.9-3.3z"/><ellipse cx="8" cy="121" fill="#fff" rx="50" ry="2"/><path fill="#c8d7ff" d="M118.3 78.3l8.2 2.3L207 22.7 190.2-16z"/><path fill="#4f4632" d="M-12.9 162l23-37.6-21.1-4 16.8 51.5z"/><path fill="#f8f9f6" d="M155.4 138.5l-25.8 3 9.1-3.3 18.3-.4z"/><circle r="1" fill="#fffffd" transform="rotate(-97.5 78.9 61) scale(2.03594 29.09437)"/><path fill="#3d392b" d="M125.3 80.7l-42.6-12 1.8 13.7 36.9 4.8z"/><path fill="#32362e" d="M135.6 97.7l-57.5 7.1 19.4 28.6 38-30.5z"/><path fill="#fff" d="M139 97.2l.2-1 29.8 8.6-.2 1z"/><path fill="#b0b6ab" d="M85.1 82.2l-8 36.8 3.5-10.6 13.8-11.9z"/><path fill="#6d768a" d="M172 128h20v25h-20z"/><circle r="1" fill="#bebec2" transform="matrix(-4.35719 -19.23661 29.193 -6.61236 172.8 255.1)"/><ellipse cx="8" cy="148" fill="#fff" rx="2" ry="22"/><path fill="#e6f3ff" d="M215.7 95.6L163 48.1l3.4-3.7L219 91.9z"/><path fill="#3a4046" d="M40 59l22-2 7-13z"/><circle r="1" fill="#f4f3ef" transform="matrix(24.7402 6.91168 -.63408 2.26969 50.5 79.5)"/><circle r="1" fill="#2c2c25" transform="matrix(-25.84362 6.44354 -1.78276 -7.15025 53.3 100)"/><path fill="#fff" d="M44.8 163.1l15.3 6-58.2 10.7-4.5-5.3z"/><path fill="#f9fbf9" d="M47.4 184.3L-6 197.6l-1.4-5.9L46 178.4z"/><path d="M133.6 128.5l-.2-2 13-1 .2 2z"/><circle r="1" fill="#b8b9b7" transform="matrix(30.31354 42.3415 -75.34333 53.94053 12.5 254.9)"/><path fill="#444339" d="M107 93l35 20 24-9z"/><path fill="#8ea033" d="M100.3 143.1l-20 .7-.6-15 20-.6z"/><path fill="#403b2b" d="M29 125h6v17h-6z"/><path fill="#f2f5f6" d="M141.2 33.7l-16.7 62.7L8.4 73.5l120.7 20.6z"/><path fill="#fff" d="M141.1 155h-4l-.2-12h4z"/><path fill="#c5d6ff" d="M19.4 74.3l41.3-27.6L207 64.5-16 13z"/><path fill="#3f3c25" d="M131 93l45 9-27-41z"/><path fill="#757369" d="M-8.4 76L119 96l-.6 4L-9 79.9z"/><path fill="#534c3a" d="M11 150l-27 35 13-32z"/><path fill="#40424b" d="M100 112h26v48h-26z"/><path fill="#b1aeaa" d="M68 103h13v102H68z"/><path fill="#5b584e" d="M27.4 163l10.9 4.2-7.2-19.8.7 6z"/><path fill="#acaa9e" d="M64 44l27 26 48 4z"/><path fill="#d5e4ff" d="M136.2 70.5l32.4-17-33.2-1.1-51.9-.7z"/><path fill="#3c372f" d="M13 85L0 114l-16-32z"/><circle r="1" fill="#fff" transform="rotate(-78 126.2 -34.5) scale(1 38.54491)"/><path fill="#575f6c" d="M43 55h20v21H43z"/><ellipse cx="143" cy="124" fill="#fff" rx="11" ry="1"/><path fill="#1e222a" d="M137 126h33v11h-33z"/><path fill="#cac9e6" d="M99.3 155.3l2.5-10.5 3.3-.7-32.3 3.2z"/><path fill="#a4afc8" d="M171.6 101.2l20.9 2.6-.1 1-20.9-2.6z"/><path fill="#182402" d="M81 110h20v17H81z"/><path fill="#5e5a4b" d="M52.6 124.8l-.3 5-50.9-2.6.3-5z"/><path fill="#b7b9ba" d="M45.8 138.6l8.9-10.7 3.4 21.8-7.4-11.7z"/><ellipse cx="3" cy="181" fill="#514c3c" rx="4" ry="2"/><path fill="#f1efeb" d="M159.5 151l-21.9.7-3.9 4.3 14.1-3.2z"/><path fill="#080b0c" d="M147 114h31v10h-31z"/><ellipse cx="57" fill="#a8bcf5" rx="132" ry="20"/><ellipse cx="10" cy="120" fill="#eeefee" rx="14" ry="3"/><circle r="1" fill="#5d6448" transform="matrix(-3.08259 -4.77722 5.30064 -3.42033 138.9 161)"/><path fill="#a9aaab" d="M143.7 215.8l-41.6 38.1 48.5-92.6 56.4 10.3z"/><path fill="#1b1b13" d="M55 91h26v7H55z"/></g></g></svg>