<svg xmlns="http://www.w3.org/2000/svg" viewBox="0 0 1200 849"><defs/><filter id="a"><feGaussianBlur stdDeviation="12"/></filter><rect width="100%" height="100%" fill="#646464"/><g filter="url(#a)"><g fill-opacity=".5" transform="translate(2.3 2.3) scale(4.6875)"><circle cx="158" cy="126" r="147" fill="#c7cad0"/><circle r="1" fill="#fff" transform="rotate(164.5 44.7 23) scale(37.6922 36.15645)"/><circle r="1" fill="#47494b" transform="matrix(74.05696 26.33415 -12.09224 34.00583 138.4 156.4)"/><path fill="#f0f3f3" d="M57 24l82 65 75-12z"/><circle r="1" fill="#3b3d3e" transform="matrix(19.6389 4.89653 -10.46097 41.95665 255.8 85.4)"/><path fill="#fff" d="M37 86h41v18H37z"/><circle r="1" fill="#636568" transform="matrix(14.08838 5.4391 -51.6864 133.8785 27.5 71.6)"/><path fill="#fff" d="M113.3 25.5L92.2 70.8 48.7 50.5 69.8 5.2z"/><circle r="1" fill="#b1b2b9" transform="rotate(-150.2 33.4 77.2) scale(102.97208 32.8225)"/><circle r="1" fill="#9c9ea3" transform="matrix(-4.81382 -63.40393 15.97352 -1.21276 0 56.8)"/><ellipse cx="92" cy="74" fill="#6e7076" rx="30" ry="12"/><path fill="#e5e7e5" d="M212.2 115.2l-44.8-6.7-29.3-4.6 30.6-14.2z"/><path fill="#3d3e40" d="M250 4h6v168h-6z"/><path fill="#f3f5f5" d="M248.2 41.9l2.2 12.4-18.8 17.9-30.7 8.1z"/><path fill="#545658" d="M123 196l-84-75 232 63z"/><path fill="#fff" d="M250 147l-12-13 11-19z"/><path fill="#fefffe" d="M83-16L46 55l61 8z"/><circle r="1" fill="#a3a4aa" transform="matrix(-12.10374 13.03635 -44.86675 -41.65703 141.3 34.8)"/><circle r="1" fill="#a4a5ab" transform="matrix(-1.54095 7.05467 -56.46417 -12.33347 185 152.3)"/><circle r="1" fill="#595a5c" transform="matrix(-9.69323 -2.20225 20.0417 -88.21386 34.3 57.8)"/><path fill="#555758" d="M194.4 82.6l31.9-2.2 1.3 19-31.9 2.2z"/><circle r="1" fill="#707174" transform="rotate(-55.2 184.9 -76.9) scale(13.54878 53.20111)"/><path fill="#fff" d="M35.3 83.8l2.5 16.4-5.8 1.5 48-13.2z"/><circle r="1" fill="#b1b2b5" transform="rotate(-158.7 45.7 52.6) scale(45.02825 5.17508)"/><circle r="1" fill="#c1c2c5" transform="matrix(7.13915 .57858 -1.89308 23.35893 228 124.4)"/><path fill="#424344" d="M28 96h8v27h-8z"/><circle r="1" fill="#cbcdce" transform="matrix(-9.26727 10.76216 -40.98532 -35.29235 112.6 36)"/><ellipse cx="40" cy="150" fill="#c6c7ca" rx="8" ry="34"/><path fill="#565859" d="M21.4 62.1l9.3 24.3 31.9-65.1 8.1-17.9z"/><path fill="#909197" d="M211.1 72.6l-50.6 2.7-59.1 33.1L247.2-16z"/><path fill="#f4f6f5" d="M145.9 89.7l-1.1-7 53.3-8.4 1.1 7z"/><circle r="1" fill="#56595b" transform="rotate(74.3 125.9 166) scale(67.74288 11.95698)"/><path fill="#fff" d="M228 78h4v14h-4z"/><path fill="#7d7f83" d="M89 59l-13 49 73-14z"/><path fill="#606164" d="M197 96l2 35-15 24z"/><path fill="#595a5c" d="M95.6 130l-42.8-3.7 8.2 33.6 7.3-18z"/><path fill="#fff" d="M122 63h8v20h-8z"/><ellipse cx="55" cy="107" fill="#c4c7c8" rx="19" ry="10"/><circle r="1" fill="#58595b" transform="rotate(-169 115 37.5) scale(3.88073 22.16478)"/><path fill="#f8faf8" d="M142 104l22-6 14 8z"/><ellipse cx="218" cy="152" fill="#a5a6ac" rx="31" ry="18"/><path fill="#d5d7d6" d="M209.7 79.1l-85.4 2.5 96.6-11.8-9.2 30.8z"/><path fill="#4a4b4d" d="M177 87h5v18h-5z"/><ellipse cx="12" cy="117" fill="#747577" rx="9" ry="42"/><path fill="#5c5d5f" d="M237.2 78.4l-2.1 52 21.3-67.2-53.9 20.1z"/><path fill="#87888d" d="M47 54.2l56.4 17.3L99 85.8 42.6 68.5z"/><ellipse cx="66" cy="50" fill="#fff" rx="16" ry="10"/><path fill="#b2b3b8" d="M188.3 130.7l21.8-24.9-50.4 44.5 4.2 1.7z"/><ellipse cx="1" cy="9" fill="#a8a9ae" rx="3" ry="147"/><path fill="#c2c4c6" d="M90 108h21v8H90z"/><circle r="1" fill="#acacb2" transform="rotate(17.3 -387 460.2) scale(24.39227 2.04253)"/><path fill="#ebeded" d="M184.4 89.6l4.8 1.2-3.6 15.6-4.8-1.2z"/><path fill="#6c6d6f" d="M125 113l33 34 30-24z"/><path fill="#fff" d="M234 127l1-5-17-4z"/><path fill="#818286" d="M41 82V49l90 42z"/><circle cx="63" cy="96" r="4" fill="#626468"/><ellipse cx="160" cy="100" fill="#6e6f72" rx="2" ry="13"/><path fill="#fff" d="M66 87h11v11H66z"/><path fill="#767779" d="M196.2 133.8l25.4-8.9-14.9-11.9 26.5.7z"/><path fill="#fff" d="M36 97l40-9-40-5z"/><path fill="#fcfefd" d="M199 104h5v12h-5z"/><path fill="#afb0b5" d="M33.8 196l-26.5-5.2 13-66.8 26.4 5.2z"/><path fill="#595b5d" d="M235 122l17 13-16-28z"/><path fill="#6a6c70" d="M235 196l-51-39 87 26z"/><path fill="#e6e8e8" d="M130 71L67-16l25 75z"/><path fill="#fff" d="M248 140l-6-13-6 3z"/><circle r="1" fill="#b0b2b6" transform="rotate(153 65.5 42.8) scale(11.19519 29.34245)"/><path fill="#dcdedf" d="M202.3 75.7l-42.7.6-2 22.4-7-6.5z"/><circle r="1" fill="#d1d3d4" transform="matrix(-1.14527 -5.41503 28.25833 -5.97661 200.6 77.2)"/><circle cx="197" cy="28" r="44" fill="#909197"/><path fill="#757678" d="M10 32.4l31.6 93.5-18.4-1.5-15.3 58.5z"/><circle r="1" fill="#5e5f61" transform="matrix(-2.77807 -3.9528 11.0173 -7.74309 186.5 143.5)"/><path fill="#e1e4e3" d="M243 38h7v9h-7z"/><circle cx="49" cy="123" r="5" fill="#515253"/><ellipse cx="5" cy="118" fill="#484b4d" rx="1" ry="114"/><ellipse cx="247" cy="121" fill="#d8dadc" rx="2" ry="17"/><path fill="#fff" d="M48.9 52.8l11-23.6 17.2 8-11 23.6z"/><path fill="#626466" d="M271 4.4V123l-32.2-8.9 7.4-59.1z"/><path fill="#fffffe" d="M153 86V76h25z"/><path fill="#e3e5e5" d="M81 70h2v13h-2z"/><path fill="#cccdcd" d="M35.3 112.9l4.5 9.3 20.1-14.1-7.8 11.7z"/><path fill="#5c5f61" d="M70.2 5L41.6 63 31.2 83.2 6.7 13.1z"/><path fill="#feffff" d="M164 89h5v9h-5z"/><path fill="#707174" d="M75 105l-1 12 32 13z"/><path fill="#505051" d="M251 118h5v53h-5z"/><circle r="1" fill="#595a5d" transform="matrix(-.9974 .07213 -.3393 -4.6916 171.2 93.9)"/><circle cx="146" cy="102" r="4" fill="#fff"/><circle r="1" fill="#b9babe" transform="matrix(-32.44747 -9.61098 .46296 -1.563 78.2 123)"/><path fill="#eaeceb" d="M173 88h4v20h-4z"/><path fill="#4d4e4f" d="M227.9 106h1l1.2 12h-1z"/><path fill="#c1c3c4" d="M224.4 110.9l6.4 5.9-23.6-10.5-14.4 12.2z"/><path fill="#525355" d="M217.7 127.2l-4.8 1.3-2.6-9.7 4.8-1.3z"/><path fill="#9c9da2" d="M173.7 119.5L154.9 139l22.7-15.4-.6-25z"/><path fill="#575859" d="M185.7 85l.2 1-25.6 5-.2-1z"/><path fill="#95969a" d="M69.1 111.8l-3.5-1.9-2-9.7L28 115.8z"/><circle r="1" fill="#84858b" transform="matrix(11.03158 -34.46512 4.28071 1.37017 11.2 150.8)"/><path fill="#5e5f61" d="M215 81h4v34h-4z"/><path fill="#6d6e71" d="M135 85h6v56h-6z"/><path fill="#f4f7f6" d="M192 90h2v11h-2z"/><path fill="#f6f8f6" d="M37 86h24v15H37z"/></g></g></svg>