<svg xmlns="http://www.w3.org/2000/svg" viewBox="0 0 1200 800"><defs/><filter id="a"><feGaussianBlur stdDeviation="12"/></filter><rect width="100%" height="100%" fill="#524838"/><g filter="url(#a)"><g fill-opacity=".5" transform="translate(2.3 2.3) scale(4.6875)"><ellipse cx="224" cy="98" fill="#e7f2ec" rx="140" ry="95"/><circle r="1" fill="#fff" transform="rotate(-70.9 144.7 -123.8) scale(56.3035 18.34259)"/><circle r="1" fill="#747868" transform="matrix(-191.13087 83.73272 -12.28354 -28.03878 59.2 55.9)"/><circle r="1" fill="#546673" transform="rotate(14.3 -544.1 360.8) scale(210.81206 44.09264)"/><circle r="1" fill="#362d17" transform="matrix(-.6651 -76.2139 6.01341 -.05248 243 119.6)"/><path fill="#fffff5" d="M126.8 104.4l7.2-65.1 29.3 80.1 9-89z"/><path fill="#392b12" d="M100 53l83-69 34 18z"/><path d="M59 61h26v46H59z"/><ellipse cx="255" cy="2" fill="#fff" rx="7" ry="63"/><ellipse cx="34" cy="83" fill="#879290" rx="25" ry="45"/><path fill="#e7deca" d="M185 18h53v108h-53z"/><ellipse cx="145" cy="93" fill="#413c26" rx="4" ry="69"/><circle r="1" fill="#403216" transform="matrix(.39157 -80.85315 1.76613 .00855 179.6 59.7)"/><path fill="#c5cac2" d="M86 54h38v44H86z"/><path fill="#fffff6" d="M151 51h14v77h-14z"/><path fill="#fff" d="M223 0h15v50h-15z"/><ellipse cx="240" cy="31" fill="#312921" rx="3" ry="169"/><path fill="#977543" d="M187 49h45v8h-45z"/><path fill="#fff" d="M195 57h24v37h-24z"/><path fill="#ecf7f0" d="M19 30l10 27-12 4z"/><ellipse cx="126" cy="83" fill="#221800" rx="2" ry="48"/><circle r="1" fill="#656e6d" transform="matrix(-25.64217 -34.52071 23.70568 -17.6087 116.4 138.3)"/><path fill="#fdffff" d="M239.4 26.4L211.5 40l-11-22.4 28-13.6z"/><ellipse cx="94" cy="93" fill="#4b4732" rx="2" ry="46"/><path fill="#838875" d="M221.9 70.4l3.6-4.4 13.6 76.1-21.3 23.5z"/><path fill="#b4b7a5" d="M148 97h30v42h-30z"/><path fill="#e9ebe6" d="M130 49h13v51h-13z"/><circle r="1" fill="#6b6652" transform="matrix(-85.72843 25.88294 -9.9739 -33.03512 102.4 8.3)"/><circle r="1" fill="#4b4938" transform="matrix(-.53878 -46.13661 1.52776 -.01784 114.2 87)"/><ellipse cx="210" cy="99" fill="#868b5e" rx="14" ry="6"/><path fill="#e3bf9e" d="M198.9 18.7l34.8 31.8-12.3 2-34.5-4.6z"/><path fill="#43433a" d="M15 60h27v20H15z"/><path fill="#bfd5d5" d="M18 77h9v26h-9z"/><circle r="1" fill="#fff" transform="matrix(-3.8856 -.19192 1.66094 -33.62797 253.5 24.4)"/><path fill="#40391e" d="M102 49h3v53h-3z"/><path fill="#b2c4c8" d="M51 70h8v39h-8z"/><path fill="#fff" d="M228 60h6v29h-6z"/><circle r="1" fill="#374149" transform="matrix(-25.31791 -36.33086 28.9235 -20.15594 47.1 169)"/><path fill="#8c9385" d="M181 54h13v76h-13z"/><path fill="#c5ae7f" d="M153.6 28.1l-4.3 22.7 30.5 7.3-13.6-30.2z"/><ellipse cx="120" cy="70" fill="#e9ece9" rx="4" ry="25"/><path fill="#4b432e" d="M63.2 69.7L210.7 1.4 183 31.1 171.6 9.2z"/><path fill="#423b24" d="M142.6 127.4L114.4 117l3-8.5 28.2 10.3z"/><ellipse cy="72" fill="#b1bfb7" rx="3" ry="34"/><ellipse cx="180" cy="110" fill="#54492e" rx="3" ry="47"/><path fill="#191102" d="M61 59h23v44H61z"/><ellipse cx="108" cy="67" fill="#dbe0d9" rx="4" ry="34"/><path fill="#817f6c" d="M87 18h26v34H87z"/><path fill="#4e4939" d="M76.5-1.5l-91.4-1 38.8 32.7 26.7 33.4z"/><path fill="#403f35" d="M2 103h40v10H2z"/><circle cx="255" cy="110" r="9" fill="#d2e3f1"/><path fill="#bdc1a5" d="M182 137l52 21-43-36z"/><path fill="#72705b" d="M271 180.4l-41-58.1-28.9-16.4 63.6 19.9z"/><ellipse cx="146" cy="51" fill="#5b5640" rx="4" ry="88"/><ellipse cx="126" cy="79" fill="#58523e" rx="3" ry="50"/><path fill="#bad7dc" d="M43 57h3v44h-3z"/><ellipse cx="7" cy="60" fill="#312f25" rx="3" ry="89"/><ellipse cx="246" cy="79" fill="#7c7d70" rx="3" ry="106"/><path fill="#fff" d="M198 62h22v31h-22z"/><path fill="#c9d6d2" d="M32 46h7v15h-7z"/><ellipse cx="30" cy="67" fill="#464033" rx="3" ry="39"/><path fill="#fff" d="M165 58l-14-7 2 47z"/><ellipse cx="236" cy="23" fill="#ecf2fb" rx="3" ry="31"/><circle r="1" fill="#444642" transform="matrix(.67115 -116.89569 2.23051 .0128 47.6 151.9)"/><path fill="#e3e7d9" d="M197.5 124.4l-1.6-11.2 6.5-6.1 24.6 17.7z"/><path fill="#848571" d="M161.6 95.4h10.5l-34.3 4.2 24.5 7.2z"/><path fill="#53554d" d="M2 34h15v94H2z"/><path fill="#7f7961" d="M154.9 21.6l-8.5-1.3L150-16l26.9 23.8z"/><path fill="#7b8383" d="M82 131l98 18-92-44z"/><circle r="1" fill="#7d7960" transform="matrix(-1.68355 -3.56159 51.58863 -24.38583 200.2 12)"/><path fill="#d7d7c8" d="M219 103h16v13h-16z"/><path fill="#3e3939" d="M239 4h5v43h-5z"/><circle r="1" fill="#3a311f" transform="matrix(-87.44899 43.03024 -.80486 -1.63568 175.7 14.3)"/><path fill="#e4ebe7" d="M97 53h5v50h-5z"/><path fill="#fffef5" d="M214.1 69.2l-31.6-13.9 40.8 2.2 13.3 9.4z"/><path fill="#afcdd6" d="M33 81h6v21h-6z"/><path fill="#6d735f" d="M221.7 68.4l6 .3-1.4 27-6-.4z"/><path fill="#898c7d" d="M-16 138l24.1 13.4L-.2 185 2.4 76.6z"/><path fill="#2f3729" d="M171 58h2v31h-2z"/><path fill="#ecf2fd" d="M238.6 54.1l-1.7-57.5-42 26.1 3.8-1.9z"/><path fill="#868f73" d="M235 59h4v38h-4z"/><path fill="#e7ccaf" d="M153 37h25v8h-25z"/><path fill="#3a3328" d="M235.5 196.4l5-94.9 2 .1-5 94.9z"/><circle r="1" fill="#d0dbdb" transform="matrix(-2.15315 -.032 .36193 -24.35679 89.3 87)"/><path fill="#edf5ff" d="M271 30.8L246.9-16l3.2 23.5-.4 46.1z"/><ellipse cx="22" cy="49" fill="#c7d0cb" rx="6" ry="11"/><path fill="#4f4530" d="M178 4h5v68h-5z"/><circle r="1" fill="#7f8387" transform="rotate(38 -141.3 317.3) scale(34.02284 17.75423)"/><path fill="#4e5b65" d="M42 108h45v29H42z"/><path fill="#927d59" d="M256.5 56.5L164 51.9l-6.8-6.9 21.7 3.1z"/><path fill="#586465" d="M85 47h2v62h-2z"/><path fill="#fef9d9" d="M164 53h14v5h-14z"/><ellipse cx="175" cy="70" fill="#d2cfbf" rx="2" ry="43"/><path fill="#7e807a" d="M16.8 110.3l-3.3 38.3-1.7-17.7 33.1-3.5z"/><path fill="#e7e3c5" d="M185 95h9v12h-9z"/><path fill="#5e686e" d="M91 185l66-1-80-82z"/><path fill="#fff" d="M232 58h3v37h-3z"/><path fill="#838667" d="M24.7 153.6L38.1 140l1.8 12.6-11.9 1.2z"/><path fill="#cfd8d1" d="M161.3 124.7l15.2 5-1.8 5.6-15.2-5z"/><path fill="#fff" d="M151 61h12v36h-12z"/></g></g></svg>