<svg xmlns="http://www.w3.org/2000/svg" viewBox="0 0 1200 800"><defs/><filter id="a"><feGaussianBlur stdDeviation="12"/></filter><rect width="100%" height="100%" fill="#4c413d"/><g filter="url(#a)"><g fill-opacity=".5" transform="translate(2.3 2.3) scale(4.6875)"><circle r="1" fill="#dfeceb" transform="rotate(-114.9 57.3 -23) scale(163.70623 88.35048)"/><circle r="1" fill="#fff" transform="matrix(105.9151 15.96082 -5.46317 36.25329 100.7 10.6)"/><circle r="1" fill="#48453b" transform="matrix(-89.07976 -61.45201 18.52026 -26.84665 76 87.3)"/><circle r="1" fill="#787d7a" transform="matrix(-204.04002 80.3735 -31.89323 -80.96568 200 120)"/><circle cx="123" cy="15" r="43" fill="#fdffff"/><ellipse cx="167" cy="62" fill="#d0d4d0" rx="22" ry="32"/><ellipse cx="207" cy="91" fill="#525759" rx="17" ry="167"/><ellipse cx="73" cy="88" fill="#e7f0f3" rx="5" ry="59"/><circle r="1" fill="#393127" transform="rotate(90.7 -13.1 63) scale(42.36216 18.59984)"/><path fill="#ebfaff" d="M-35 6.3l8.3-25.7L75 13.6l-8.4 25.8z"/><path fill="#3c3124" d="M78.2 88.2l7.3-42.6 22.2 9.7.1 49.3z"/><path fill="#fff" d="M-3.3 185.5l-1.4-2.7 106-56.3 1.4 2.7z"/><circle r="1" fill="#5e5c58" transform="rotate(55.6 -110.3 175.1) scale(30.70133 55.88964)"/><ellipse cx="116" cy="35" fill="#bec3c2" rx="5" ry="73"/><path fill="#303537" d="M77 0h4v50h-4z"/><path fill="#808c95" d="M157 124h42v46h-42z"/><ellipse cx="99" cy="9" fill="#fdffff" rx="18" ry="43"/><path fill="#d0d7d5" d="M135 0h4v104h-4z"/><path fill="#696558" d="M16 33h29v121H16z"/><ellipse cx="222" cy="58" fill="#5e5e5e" rx="31" ry="127"/><ellipse cx="200" cy="4" fill="#cadde3" rx="2" ry="78"/><circle r="1" fill="#eef5f8" transform="matrix(27.92061 3.60903 -2.50866 19.40778 166.3 .9)"/><path fill="#5a4e41" d="M120.5 29.6l2.7 44.2 12.6-18.3-16.1.6z"/><circle r="1" fill="#5f5958" transform="matrix(-10.03759 -6.59346 10.42291 -15.86737 153.4 116.5)"/><path fill="#525855" d="M224.3-2.2l-37.5 24.8-25.9 2.7 58.6-17.5z"/><path fill="#362f26" d="M39 100h12v54H39z"/><path fill="#8b8e8d" d="M65 116h12v54H65z"/><path fill="#7c959f" d="M19 60h13v22H19z"/><path fill="#c6cbcb" d="M114 0h6v112h-6z"/><ellipse cx="204" cy="109" fill="#242728" rx="2" ry="107"/><path fill="#ccd0cb" d="M154.2 99.5l-40.1 23.7L64.7 148l57.4-33.7z"/><path fill="#34342f" d="M-16 39.3l56.2-8.2-42.4-13.5-12.6 9.5z"/><circle r="1" fill="#2d2d22" transform="matrix(-2.25831 -68.07604 9.26184 -.30725 1.4 135.8)"/><path fill="#4f483f" d="M79.7 44l.3 15.5 34.1 14.4-.3-13.1z"/><ellipse cx="23" cy="5" fill="#d5deec" rx="34" ry="17"/><path fill="#a0a094" d="M138.2 101.6l14.1-47.5 30 55.2-32.1-15.8z"/><path fill="#f0f8fe" d="M81.6 46.7L81.1-11 87 35.1l35.5 19.6z"/><path fill="#383327" d="M177 87h13v8h-13z"/><ellipse cx="14" cy="167" fill="#a5a8ae" rx="3" ry="31"/><path fill="#444850" d="M165 37h15v4h-15z"/><path fill="#c6cdcc" d="M193.8 44.8l-19.6.2-43.9-10.4 46.5 40.9z"/><ellipse cx="151" cy="169" fill="#75797c" rx="48" ry="46"/><circle r="1" fill="#b2b6b8" transform="rotate(-90.2 158.1 -77) scale(1 30.53298)"/><path fill="#43371b" d="M135 91l-14-14 1 20z"/><path fill="#878a80" d="M150 13l-.9-2.8L170 3l1 2.8z"/><path fill="#3b3832" d="M6.4 22.5l23.9 9.3 36 15.8 2.8-7.1z"/><circle r="1" fill="#adb1b1" transform="rotate(15.2 -237.9 987) scale(42.59554 1)"/><path fill="#382514" d="M150 53h3v21h-3z"/><path fill="#63584c" d="M120 55h15v17h-15z"/><path fill="#74776d" d="M183.7 4L246-16 196-1.3l-38.4 10z"/><path fill="#d1e3e9" d="M60 114h2v30h-2z"/><ellipse cx="73" cy="31" fill="#bdc3c3" rx="5" ry="98"/><path fill="#e2effa" d="M44 35h1v46h-1z"/><path fill="#34302d" d="M70 117h2v53h-2z"/><path fill="#a4a8aa" d="M211.4 102.5l43.9 42.3-.7.7-43.9-42.3z"/><path fill="#535042" d="M109.8 168.9l-24 1.2-1.6-31 24-1.2z"/><ellipse cx="120" cy="29" fill="#4c5051" rx="1" ry="52"/><path fill="#bfc5c4" d="M168 49h9v71h-9z"/><path fill="#a7a6a7" d="M34 127h5v40h-5z"/><ellipse cx="127" fill="#feffff" rx="7" ry="53"/><path fill="#403f37" d="M4 81h65v28H4z"/><path fill="#5f5547" d="M85 126l30-42-17-29z"/><path fill="#d9e1e5" d="M121 29h43v25h-43z"/><path fill="#9da1a2" d="M271 107.8l-23.8.3-39.6-18.2L271 124z"/><path fill="#88878d" d="M241.4 145.3l2.2 39.7 10.9-21.3 16.5 12.6z"/><path fill="#bec3c1" d="M118 179.5h-1l3-85h1z"/><circle r="1" fill="#939695" transform="matrix(-.6171 .8813 -27.29773 -19.11407 230.3 112)"/><path fill="#c6cac7" d="M134 12h5v87h-5z"/><path fill="#1d1410" d="M19.5 54.6l.7-2.9 24.3 5.7-.7 2.9z"/><circle r="1" fill="#e6edf5" transform="rotate(-178.4 28 3.8) scale(14.17151 28.3765)"/><ellipse cx="161" cy="64" fill="#302c21" rx="1" ry="13"/><path fill="#332e2e" d="M257 82h-43l57 16z"/><ellipse cx="182" cy="31" fill="#fff" rx="9" ry="3"/><circle r="1" fill="#816f56" transform="matrix(-10.66963 -5.3371 5.95712 -11.90916 28.6 122.2)"/><path fill="#302d2e" d="M249 39h7v25h-7z"/><path fill="#dde3e0" d="M146 40h3v54h-3z"/><ellipse cx="195" cy="82" fill="#5b5851" rx="6" ry="41"/><ellipse cx="99" cy="164" fill="#9b948c" rx="2" ry="77"/><circle r="1" fill="#9fa3a5" transform="matrix(.23514 .97196 -36.01915 8.71395 241 67.9)"/><path fill="#3d3325" d="M55 80l13-39v38z"/><ellipse cx="53" cy="141" fill="#adaaa9" rx="3" ry="17"/><ellipse cx="177" cy="148" fill="#828b8d" rx="22" ry="35"/><path fill="#5c4d3c" d="M139 56h8v16h-8z"/><path fill="#1e191d" d="M270 115l-1 24-24-27z"/><ellipse cx="157" cy="91" fill="#534e42" rx="1" ry="39"/><path fill="#d9e2e1" d="M26 169.8l-.4-.9 102.3-56.7.5.9z"/><ellipse cx="78" cy="77" fill="#6a6d6c" rx="2" ry="55"/><path fill="#9ea1a1" d="M209.1 70.9l5.8-4.2 31.4-13.8 24.7-6.6z"/><path fill="#bec7c7" d="M72 156h5v14h-5z"/><path fill="#352d2c" d="M232 71h24v7h-24z"/><path fill="#999d9f" d="M211.3 110.3l1.5-1.3 46 56.7-1.6 1.3z"/><path fill="#52463c" d="M83 55h31v4H83z"/><path fill="#919da1" d="M246 13l25-22-6-7z"/><path fill="#8f9491" d="M138 15h2v49h-2z"/><path fill="#1a1413" d="M32 55h3v39h-3z"/><path fill="#505657" d="M179 99h11v12h-11z"/><path fill="#6b6c6b" d="M245 2l-30 38 8-36z"/><circle r="1" fill="#504338" transform="matrix(-4.00304 -12.4813 7.43684 -2.38516 24.7 152.3)"/><path fill="#867e74" d="M187.9 81.5l-73.5 24.4-19-24.5 2.7 46.8z"/><path fill="#fff" d="M165.3 10.9l27.4-9.5 2 5.7-27.4 9.5z"/></g></g></svg>