<svg xmlns="http://www.w3.org/2000/svg" viewBox="0 0 918 1200"><defs/><filter id="a"><feGaussianBlur stdDeviation="12"/></filter><rect width="100%" height="100%" fill="#59342c"/><g filter="url(#a)"><g fill-opacity=".5" transform="translate(2.3 2.3) scale(4.6875)"><circle r="1" fill="#8fd1e1" transform="matrix(71.0755 -2.83524 1.24072 31.1031 92.8 64.8)"/><circle r="1" transform="matrix(191.99076 34.12548 -8.71637 49.03852 65 222.4)"/><circle r="1" fill="#e0ffff" transform="matrix(.06076 8.54393 -64.4884 .45861 102.6 164.1)"/><ellipse cx="111" cy="12" rx="195" ry="24"/><path d="M231.2 210.1l-60.8 4.3L154.8-8.1l60.8-4.3z"/><ellipse cx="12" cy="77" rx="18" ry="255"/><ellipse cx="133" cy="66" rx="5" ry="184"/><path fill="#fff" d="M31 48h18v41H31z"/><ellipse cx="56" cy="117" rx="5" ry="230"/><path fill="#90b9b4" d="M150 77h15v107h-15z"/><circle r="1" fill="#e0f5fa" transform="matrix(11.1537 -3.04951 7.1289 26.07425 74 65)"/><circle r="1" fill="#1c4643" transform="matrix(43.61394 -27.48111 18.21819 28.9132 104.3 117)"/><circle r="1" fill="#000c0f" transform="matrix(-.06896 -39.51172 183.56921 -.32039 90.9 225.7)"/><path fill="#f1fefd" d="M60 157h67v15H60z"/><circle r="1" fill="#00070a" transform="matrix(-48.16841 -8.14708 3.83203 -22.6563 163.2 26.3)"/><ellipse cx="119" cy="185" fill="#89a8ae" rx="62" ry="2"/><circle r="1" fill="#00060a" transform="matrix(-72.8631 37.10361 -12.38704 -24.32535 56 10)"/><circle r="1" fill="#000a0c" transform="matrix(18.42311 -3.41452 25.5365 137.78265 184.3 95)"/><path fill="#bdf0fa" d="M33 156h16v11H33z"/><ellipse cx="103" cy="178" fill="#d7cd9f" rx="39" ry="2"/><ellipse cx="8" cy="86" fill="#00090b" rx="21" ry="105"/><path fill="#011718" d="M57 132l87 23-135 1z"/><path fill="#efffff" d="M40 46h12v24H40z"/><path fill="#9cbbc9" d="M73 35h55v19H73z"/><path fill="#000502" d="M135 168h20v15h-20z"/><circle r="1" fill="#2d555e" transform="matrix(-4.62709 42.24265 -6.65794 -.72928 44.9 111)"/><ellipse cx="132" cy="97" rx="4" ry="81"/><path fill="#f1ffff" d="M30 55h14v34H30z"/><ellipse cx="55" cy="92" fill="#040708" rx="4" ry="125"/><path fill="#5e675b" d="M99 73h30v65H99z"/><path fill="#fff" d="M84.8 89l4 3-5.6 7-4-3z"/><path fill="#b7dff1" d="M139 43l20 7-1 27z"/><ellipse cx="162" cy="163" fill="#f7f9ef" rx="2" ry="19"/><circle cx="45" cy="196" r="29" fill="#090f10"/><path fill="#f4f2ed" d="M152.4 168.4l-17.4.1 3.1-10.3 18.9.7z"/><path fill="#0b1211" d="M158.9 50.7L98.6 26.4l4.5-11.1 60.3 24.3z"/><ellipse cx="191" cy="155" fill="#0a1113" rx="28" ry="40"/><path fill="#324d51" d="M30 89h23v53H30z"/><path fill="#6a6868" d="M-4.2 230.6l8-.2.4 23-8 .2z"/><ellipse cx="63" cy="55" fill="#efffff" rx="3" ry="17"/><path fill="#0c1010" d="M185 2L-16-11l39 60z"/><path fill="#243039" d="M104.1 132.1l-47.9-10.9 17.1-41.5-15.7-11.3z"/><path fill="#8fa0a6" d="M83 54l-3 42 23-57z"/><circle r="1" fill="#3a4d4c" transform="matrix(-6.80024 .49938 -3.66519 -49.91038 144 109.1)"/><path fill="#00090a" d="M68 173h59v4H68z"/><path fill="#0d0d0d" d="M159 0h37v85h-37z"/><ellipse cx="163" cy="185" fill="#fff9d9" rx="8" ry="2"/><path fill="#5a625f" d="M87.3 102.9L82 69.3l26.7-4.2 5.3 33.6z"/><circle r="1" fill="#848e76" transform="matrix(.22457 -11.69558 .99982 .0192 168.9 110.8)"/><path fill="#556060" d="M87.8 186.4l59-8.4-.4 11.7-37.8-2.9z"/><path fill="#0f0608" d="M128 150h8v23h-8z"/><ellipse cx="172" cy="182" fill="#111110" rx="25" ry="2"/><path fill="#cae3ea" d="M63 38h13v28H63z"/><path fill="#a0b6bb" d="M31 167l19-3-19-7z"/><path fill="#cbc9be" d="M165 85.5h1l-5 95h-1z"/><ellipse cx="56" cy="115" fill="#11100f" rx="4" ry="239"/><path fill="#212a2e" d="M56.2 187.3l49 .8-45-15.9-25.1 11.1z"/><circle r="1" fill="#fff" transform="matrix(.99768 .06802 -.48297 7.08442 161.2 174.2)"/><path fill="#4a6459" d="M120.2 129.5l-60.3-1 2.3-64.8.9 80.7z"/><path fill="#4e4841" d="M69 24h58v4H69z"/><path fill="#9e9889" d="M181 217l-6-2-5 4z"/><ellipse cx="156" cy="150" fill="#8c9081" rx="3" ry="31"/><path fill="#314037" d="M108 133h39v24h-39z"/><path fill="#7a969d" d="M161 114.9l-4.3-54-19.5-17 1.1 12.4z"/><path fill="#181b19" d="M94.3 130.1l-15 12.4-95.3 7.7 123.1 7.3z"/><path fill="#3d4f53" d="M149 86h7v35h-7z"/><path fill="#b6d1dd" d="M137.6 41.7l.7 9.4 19.5 5.7 3.6-2.8z"/><path fill="#202226" d="M52 98l60 29-90-15z"/><path fill="#1d140e" d="M161 64h2v55h-2z"/><path fill="#8e9188" d="M152.6 144.5l-1.4 6.9-9.8-2 1.4-6.8z"/><path fill="#cbc2b6" d="M128 42h1v70h-1z"/><circle cx="152" cy="205" r="20" fill="#090d0d"/><path fill="#d6d2bc" d="M160 185h11v3h-11z"/><path fill="#0d1110" d="M164.2 149.6l-.4-21 6-.2.4 21z"/><circle r="1" fill="#b1d5e8" transform="rotate(-27.3 124.4 -65.3) scale(10.98343 4.19625)"/><ellipse cx="134" cy="71" fill="#110b0c" rx="3" ry="94"/><path fill="#485652" d="M52.2 170.3l-.5-44.5-21 24.5 4.6-55.7z"/><path fill="#3f4240" d="M109 81h18v40h-18z"/><path fill="#f7f8f2" d="M73 80h7v10h-7z"/><path fill="#5a6a70" d="M113.3 43.7l.8 9.2-18.5-3.6 1.6 22.3z"/><path fill="#192123" d="M29 185l-18-39 21-53z"/><circle r="1" fill="#0c0e0e" transform="matrix(-13.88003 -7.02506 11.70864 -23.13378 12.8 67.4)"/><circle r="1" fill="#060808" transform="matrix(-6.85176 118.38062 -8.41134 -.48684 0 155.4)"/><ellipse cx="130" cy="181" fill="#151c1a" rx="33" ry="2"/><path fill="#4c697b" d="M62 100l2-30 6 7z"/><path fill="#93adb6" d="M132.9 37.6l-30 5.7-3.3 8.6L91 33.2z"/><path fill="#e6eae7" d="M142 157h10v9h-10z"/><path fill="#86857e" d="M127 71h2v83h-2z"/><path fill="#97978d" d="M135 181l-12 2 26 8z"/><path fill="#444d4f" d="M90.1 85l34.4 31.8-66.9-24.6 20.7 23.4z"/><path fill="#def8ff" d="M49 43h3v25h-3z"/><path fill="#cfe2e6" d="M67 59h24v5H67z"/><path fill="#636053" d="M155 154h5v16h-5z"/><path fill="#0c0d0d" d="M156 47l10-63-45 50z"/><path fill="#adc2c5" d="M31 157h20v5H31z"/><path fill="#0e0e10" d="M128 168h24v9h-24z"/><ellipse cx="87" cy="71" fill="#85989e" rx="6" ry="19"/><path fill="#5f725e" d="M106.5 126l-8.7-27 22.9 26.9-24.8 7.9z"/><path fill="#536048" d="M118.8 152.2l1.8-2.6 3.4-29.8-16.3 36.5z"/><circle r="1" fill="#0d0d0c" transform="matrix(49.49262 -6.6887 4.34494 32.15007 13.5 21.1)"/></g></g></svg>