<svg xmlns="http://www.w3.org/2000/svg" viewBox="0 0 1200 900"><defs/><filter id="prefix__a"><feGaussianBlur stdDeviation="12"/></filter><rect width="100%" height="100%" fill="#603f31"/><g filter="url(#prefix__a)"><g transform="translate(2.3 2.3) scale(4.6875)"><circle r="1" fill="#ffe" fill-opacity=".5" transform="matrix(-2.86492 -164.131 188.63533 -3.29264 138.2 60.4)"/><ellipse cx="203" fill="#fff" fill-opacity=".5" rx="152" ry="39"/><circle r="1" fill="#4f4837" fill-opacity=".5" transform="matrix(78.5432 -32.59018 10.31135 24.85061 49 146)"/><circle r="1" fill="#fffded" fill-opacity=".5" transform="rotate(102.5 -17 58.2) scale(46.13656 26.83731)"/><circle r="1" fill="#9c6f42" fill-opacity=".5" transform="matrix(39.05167 -37.2882 67.05836 70.22975 234 116.3)"/><circle r="1" fill="#fff" fill-opacity=".5" transform="matrix(1.3058 24.916 -113.45697 5.94603 215.3 11.9)"/><circle r="1" fill="#fffae7" fill-opacity=".5" transform="matrix(37.003 -15.11254 5.17708 12.67606 97 49.1)"/><path fill="#4c4937" fill-opacity=".5" d="M81 22L-7 32l-9 41z"/><path fill="#e8e8df" fill-opacity=".5" d="M53 183l148 2-45-33z"/><path fill-opacity=".5" d="M62 108h48v13H62z"/><path fill="#ba8d62" fill-opacity=".5" d="M113 37h107v109H113z"/><ellipse cx="94" cy="77" fill="#554c36" fill-opacity=".5" rx="32" ry="10"/><path fill="#e6ddcd" fill-opacity=".5" d="M0 92h60v39H0z"/><ellipse cx="13" cy="2" fill="#fffff6" fill-opacity=".5" rx="47" ry="11"/><path fill="#89806a" fill-opacity=".5" d="M64 9h39v34H64z"/><path fill="#291909" fill-opacity=".5" d="M221.5 99V73h17v26z"/><path fill="#cdd1cb" fill-opacity=".5" d="M0 157h31v19H0z"/><path fill-opacity=".5" d="M39 155h15v16H39z"/><ellipse cx="102" cy="191" fill="#656760" fill-opacity=".5" rx="255" ry="5"/><ellipse cx="71" cy="20" fill="#fcfbf3" fill-opacity=".5" rx="255" ry="4"/><path fill="#423a2c" fill-opacity=".5" d="M71.5 130.5v13h-123v-13z"/><ellipse cx="118" cy="83" fill="#7c5c3b" fill-opacity=".5" rx="10" ry="29"/><ellipse cx="55" cy="13" fill="#2e2b20" fill-opacity=".5" rx="47" ry="2"/><path fill="#f0ece0" fill-opacity=".5" d="M76 88h35v18H76z"/><path fill="#bbaea2" fill-opacity=".5" d="M66 145h158v31H66z"/><circle r="1" fill="#fff" fill-opacity=".5" transform="rotate(-81.6 120 -127.5) scale(26.3129 81.44416)"/><path fill="#f0f5f3" fill-opacity=".5" d="M153.3 91.2l-32.1 27-4.5-5.4 32.1-27z"/><path fill="#7d664e" fill-opacity=".5" d="M229 92h17v100h-17z"/><path fill="#6b6156" fill-opacity=".5" d="M145 23l-2 17-6-29z"/><ellipse cx="82" cy="54" fill="#eadfcf" fill-opacity=".5" rx="31" ry="15"/><ellipse cx="65" cy="107" fill="#463f2b" fill-opacity=".5" rx="5" ry="29"/><ellipse cx="114" cy="23" fill="#fcfcfa" fill-opacity=".5" rx="11" ry="30"/><path fill="#70756c" fill-opacity=".5" d="M35.3 170.2l4.9 30.7-43.5 6.9-4.9-30.7z"/><path fill="#5c4b35" fill-opacity=".5" d="M93.6 32.1l6.2 9.4 2.4-23.8L104 7.2z"/><path fill="#c39771" fill-opacity=".5" d="M84 130h137v15H84z"/><path fill="#453224" fill-opacity=".5" d="M132.5 43L110.7 3.5l.8-.5 21.8 39.3z"/><path fill="#4f4535" fill-opacity=".5" d="M-14 86.3L2 48.6l12 5-16 37.8z"/><ellipse cx="109" cy="180" fill="#deddd5" fill-opacity=".5" rx="69" ry="7"/><path fill="#3e2715" fill-opacity=".5" d="M104.8 118.4l30.1-1.4-17.7 6.6-15.4 2.4z"/><path fill="#bebbaf" fill-opacity=".5" d="M249 15.4l-2.5 25.5-23.7 9.1-.7 26.9z"/><path fill="#ddd1c1" fill-opacity=".5" d="M23 43h35v86H23z"/><path fill="#442d19" fill-opacity=".5" d="M164.5 85.6l-39.6 38.2-1.4-1.4 39.6-38.2z"/><path fill="#b1b3ad" fill-opacity=".5" d="M183 159h51v27h-51z"/><path fill="#fff" fill-opacity=".5" d="M13.2-.5H.7l-16.7-4 12.2 34.2z"/><path fill="#9d7c5b" fill-opacity=".5" d="M168.3 70.9l-42-16.5 34.3-25.1-12.4-3.9z"/><path fill="#120f06" fill-opacity=".5" d="M64 107h41v8H64z"/><circle r="1" fill="#51443a" fill-opacity=".5" transform="matrix(.93739 .34828 -14.41928 38.80868 229.4 147.7)"/><path fill="#efeedc" fill-opacity=".5" d="M0 24h32v6H0z"/><path fill="#846e61" fill-opacity=".5" d="M180.4 27.5l-7.8-22.7 1-.3 7.8 22.7z"/><circle r="1" fill="#bc9672" fill-opacity=".5" transform="rotate(127.7 77 107) scale(29.95042 16.99831)"/><path fill="#5e4f42" fill-opacity=".5" d="M208 32l20 29-6-18z"/><path fill="#65533b" fill-opacity=".5" d="M110 57h8v48h-8z"/><path fill="#d6a97b" fill-opacity=".5" d="M118 36l6 46 16-45z"/><path fill="#9e7a57" fill-opacity=".5" d="M131 100l-36 25 39-54z"/><path fill="#35241a" fill-opacity=".5" d="M167 35l-1-6 5 10z"/><path fill="#fff" fill-opacity=".5" d="M127-15l-3 49 18 2z"/><ellipse cx="44" cy="161" fill-opacity=".5" rx="6" ry="8"/><path fill="#1e1808" fill-opacity=".5" d="M-6 82.7l13.4 3.8L6 91.3l-13.4-3.8z"/><path fill="#fff" fill-opacity=".5" d="M139 0h105v22H139z"/><path fill="#281d12" fill-opacity=".5" d="M228.5 71.3l-2.3 3.8.3 18.1 14.2-16.9z"/><circle r="1" fill="#746e69" fill-opacity=".5" transform="rotate(11.1 27.4 757.5) scale(1 28.83973)"/><path fill="#27271f" fill-opacity=".5" d="M8 14h27v2H8z"/><path fill="#785943" fill-opacity=".5" d="M166.1 132.2l14.7-70.9-9.5 54.3 3.2 21.1z"/><path fill="none" stroke="#483b34" stroke-opacity=".5" stroke-width=".5" d="M197.4 20q6 14.3 6.4 57"/><path fill="#dbd1c3" fill-opacity=".5" d="M131.8 111.7L171 77.5l-4.7 9.4-15.5-4.6z"/><path fill="#eadac8" fill-opacity=".5" d="M60 14h39v9H60z"/><path fill="#dbd1c1" fill-opacity=".5" d="M14.2 62.8l64.1-23.6-22.1 61.6L.4 82z"/><path fill="#8e8675" fill-opacity=".5" d="M70 23h27v19H70z"/><circle r="1" fill="#725e4e" fill-opacity=".5" transform="matrix(1.9018 .34427 -3.72263 20.56474 215.7 50.7)"/><path fill="#574d39" fill-opacity=".5" d="M66 67h7v21h-7z"/><path fill="#837c71" fill-opacity=".5" d="M52 145h27v29H52z"/><path fill="#dfdcd0" fill-opacity=".5" d="M196 173h19v12h-19z"/><path fill="#524f44" fill-opacity=".5" d="M23.2 175.1L47 150.6l-18.2 33.7-38.2-1.2z"/><path fill="#bdbcb8" fill-opacity=".5" d="M225.4 77.4l12.7-32-13.5-.1.3 20.2z"/><path fill="#f2e6d3" fill-opacity=".5" d="M65 60h45v8H65z"/><path fill="#8c694b" fill-opacity=".5" d="M143.9 80.4l-5.3-28.8 13.6 12.7.7-39.5z"/><path fill="#a19f94" fill-opacity=".5" d="M0 184h18v7H0z"/><path fill="#372d1a" fill-opacity=".5" d="M68 11h34v2H68z"/><path fill="#be9365" fill-opacity=".5" d="M218 37l43 1 10 33z"/><path fill="#bcb3a5" fill-opacity=".5" d="M110.9 95.5l-51.1 11.9 30-31.9 22.4 11z"/><path fill="#735f4a" fill-opacity=".5" d="M57.8 122.3l54.3-6.1-17.4 12.2-36.8 26.9z"/><circle r="1" fill="#4f3d30" fill-opacity=".5" transform="rotate(5.9 -593.5 1997.5) scale(1 19.78301)"/><path fill="#fff" fill-opacity=".5" d="M104 22h17v15h-17z"/><path fill="#caa889" fill-opacity=".5" d="M184.8 38.8l14.7 5.5-.2 43.9-25.5-79z"/><path fill="none" stroke="#4f352d" stroke-opacity=".5" stroke-width=".5" d="M132.2-16q4.8 32.6 7.4 40.1"/><path fill="#292425" fill-opacity=".5" d="M235 66l-8-6 4 9z"/><ellipse cx="65" fill="#e2d3c4" fill-opacity=".5" rx="51" ry="11"/><path fill="#d9cebe" fill-opacity=".5" d="M5 91h54v39H5z"/><path fill="#5e5a4f" fill-opacity=".5" d="M0 132h55v24H0z"/><path fill="#69513d" fill-opacity=".5" d="M237.5 143l-8 5.7 3.1-20.4 21.1 3.5z"/><path fill="#736858" fill-opacity=".5" d="M39.3 40.1l-1.2-.4-49.8-14.3-4.3 49.9z"/><path fill="#aba99f" fill-opacity=".5" d="M163.7 1.3l-10.5 23.8-1-.4L162.9.9z"/><path fill="#ca9e77" fill-opacity=".5" d="M162 77h8v65h-8z"/><path fill="#453320" fill-opacity=".5" d="M100 13h2v26h-2z"/><circle r="1" fill="#8f6f50" fill-opacity=".5" transform="matrix(-6.64577 3.2043 -11.72339 -24.31448 224.5 92.2)"/><path fill="#665241" fill-opacity=".5" d="M211.7 56.4l7.2-3.1-10.6-27.7 7.6 33.8z"/><path fill="#4b3928" fill-opacity=".5" d="M176 81h4v14h-4z"/><path fill="#8f8778" fill-opacity=".5" d="M9 36h76v6H9z"/><path fill="#dbd0bd" fill-opacity=".5" d="M28 16h50v9H28z"/><path fill="#6b5039" fill-opacity=".5" d="M160 58h3v41h-3z"/></g></g></svg>