<svg xmlns="http://www.w3.org/2000/svg" viewBox="0 0 1200 1022"><defs/><filter id="a"><feGaussianBlur stdDeviation="12"/></filter><rect width="100%" height="100%" fill="#603840"/><g filter="url(#a)"><g fill-opacity=".5" transform="translate(2.3 2.3) scale(4.6875)"><circle r="1" fill="#fff" transform="matrix(194.93945 16.9577 -12.97888 149.20028 122 93.8)"/><circle r="1" fill="#fff" transform="matrix(-8.05958 -114.93206 254.37532 -17.838 112.6 95.2)"/><circle cy="77" r="134" fill="#fffffd"/><path fill="#000300" d="M199.6 210.4l-178.9.4-36.7 18.9 287-13.5z"/><circle r="1" fill="#fff" transform="rotate(-39.7 360 -257.5) scale(41.88033 41.75443)"/><ellipse cx="199" cy="111" fill="#a4d68c" rx="21" ry="99"/><circle r="1" fill="#9ed083" transform="rotate(86.9 20.6 121.9) scale(78.98176 18.53124)"/><ellipse cx="249" cy="60" fill="#fffffa" rx="29" ry="152"/><ellipse cx="120" cy="187" fill="#f6fff0" rx="255" ry="24"/><path fill="#86b086" d="M122 194h99v13h-99z"/><ellipse cx="155" cy="4" fill="ivory" rx="255" ry="13"/><ellipse cx="255" cy="215" fill="#2e3635" rx="255" ry="5"/><circle cx="75" cy="159" r="51" fill="#feffef"/><ellipse cx="167" cy="92" fill="#eeedc6" rx="22" ry="45"/><path fill="#fbffe6" d="M-5.9-10.8l126-4.3 5.8 165.9-126 4.3z"/><path fill="#a3ca94" d="M181 16h39v65h-39z"/><circle r="1" fill="#a5cc96" transform="matrix(-18.06108 17.74083 -14.62013 -14.88405 144.7 49.2)"/><path fill="#bccea0" d="M124 141h90v37h-90z"/><path fill="#fafee6" d="M267 232l-56-116 39-132z"/><ellipse cx="25" cy="189" fill="#fff" rx="80" ry="22"/><circle r="1" fill="#a2cc98" transform="matrix(66.46664 12.68102 -.1874 .98228 60.4 169.3)"/><path fill="#f2eedc" d="M162 128h19v82h-19z"/><path fill="#9ec292" d="M187 103h25v60h-25z"/><ellipse cx="176" cy="185" fill="#f6fefa" rx="114" ry="7"/><path fill="#a1ab88" d="M219 81h2v97h-2z"/><ellipse cx="21" cy="216" fill="#424342" rx="175" ry="6"/><ellipse cx="234" cy="187" fill="#4ba54a" rx="112" ry="1"/><path fill="#fafde8" d="M299.4 79.9L144.2-13.3 156.6-34l155.2 93.2z"/><path fill="#fff" d="M221 188h35v22h-35z"/><path fill="#e8e8c9" d="M158 42l14-32 25 98z"/><path fill="#939e8f" d="M127 199h72v5h-72z"/><path fill="#fffcff" d="M194.4 188.3l-32.6 17.4 31.2 5.4-46.9-22.6z"/><ellipse cx="136" cy="82" fill="#a0c394" rx="7" ry="59"/><path fill="#4b4b48" d="M262.6 217.9l-180.1-1.3 46.9-6.8 132.4 1.4z"/><path fill="#828e6f" d="M124 92h1v91h-1z"/><path fill="#84bc82" d="M165.2 160.3l-19.2-8.5-16.8.3-2.1 9.2z"/><ellipse cx="171" cy="176" fill="#967578" rx="48" ry="1"/><ellipse cx="151" cy="7" fill="#f5f7e7" rx="255" ry="10"/><path fill="#fff" d="M89.3 180.9l36.5 12.5-17.4 16.6L-16 176z"/><path fill="#e5e0cb" d="M160.8 110.5l36.3 9L151 62.6l-9.6 59.6z"/><path fill="#84ba80" d="M185 17h17v18h-17z"/><path fill="#abd1a6" d="M50.5 175l79.2 12.3-21.6-1.7-14.1-6.5z"/><circle r="1" fill="#aed4a9" transform="matrix(.19766 -.98027 82.13344 16.561 40 170.9)"/><path fill="#7f946a" d="M124 21h1v72h-1z"/><path fill="#9bc190" d="M202 28h11v101h-11z"/><path fill="#f6f6e6" d="M-12.1 69.4l152.4-22.1-75.7-57.4L-16-3.9z"/><path fill="#f1f3d7" d="M125 131h10v18h-10z"/><path fill="#f1e7d6" d="M169 173l36-13 11 15z"/><path fill="#f5f5e7" d="M13 65h111v90H13z"/><path fill="#ebe6d1" d="M198 62.5l-66.2 20.1 74.8-16.5 64.4-3.9z"/><path fill="#9bc391" d="M154 119l2 29-33-24z"/><path fill="#91c58b" d="M126 16l6 24 24-7z"/><path fill="#f5f6e6" d="M218.6 36.1l3.6 114.8L267.7-16 213 70.9z"/><path fill="#9dc3a2" d="M182 193h41v10h-41z"/><ellipse cx="170" cy="102" fill="#dddec0" rx="13" ry="72"/><ellipse cx="204" cy="183" fill="#fff" rx="94" ry="3"/><ellipse cx="132" cy="58" fill="#95bf8e" rx="12" ry="9"/><path fill="#a5c799" d="M187 168l33-30-43 3z"/><path fill="#a3caa2" d="M122 193h35v15h-35z"/><ellipse cx="198" cy="39" fill="#f9f0de" rx="5" ry="4"/><ellipse cx="155" cy="19" fill="#c4d6ab" rx="34" ry="3"/><path fill="#fff" d="M-11 199.2l5.7-35.2 107.7 21.2 26.8 22.8z"/><ellipse cx="219" cy="60" fill="#98a57f" rx="1" ry="45"/><path fill="#a29c96" d="M148 198h40v6h-40z"/><ellipse cx="184" cy="97" fill="#e8e3ce" rx="46" ry="3"/><path fill="#f2f1de" d="M195.5 146l32.6 16.7 3 22.1 30.8-25.7z"/><circle r="1" fill="#465049" transform="matrix(.15461 2.8548 -14.2424 .77134 8.4 213.5)"/><path fill="#eee9d2" d="M125 166h37v10h-37z"/><ellipse cx="148" cy="140" fill="#98c18f" rx="13" ry="6"/><path fill="#9ec293" d="M220.4 73.4l-4.9-6.8-26.3 4.9 9.2 27.1z"/><path fill="#edf6d4" d="M150 27l12-8-29-1z"/><path fill="#dadfc3" d="M104.1 135.8l63.4 15.9 54.8-8-56.8 13.6z"/><path fill="#90ba87" d="M146 63l18-3-20-9z"/><path fill="#403f3f" d="M196 211h60v7h-60z"/><path fill="#f2f1e1" d="M209.9 130.2l-.3 4.4 61.4 28.2-10.8-36.6z"/><path fill="#e1dec7" d="M182 67.5l19.3 40-11.1-4.8-53.4-40.5z"/><path fill="#f5f5e6" d="M69.1 169l56.5 12L80.3-16-16 153.4z"/><path fill="#e3e0c5" d="M166 113l24 26-40-4z"/><path fill="#95bd8d" d="M180 56h16v9h-16z"/><path fill="#9ca685" d="M219 95h1v83h-1z"/><path fill="#9ac18f" d="M185.7 117.2l-3.6 12.6 17.2 25.7-2.5-32.2z"/><path fill="#f6f6e7" d="M221 0h35v181h-35z"/><path fill="#e7ebd0" d="M213 83h6v52h-6z"/><path fill="#f5f5e7" d="M128.5-5.6L-7.3 53.9 137.6 81l-27.1 18.3z"/><path fill="#fffff5" d="M226 191l45 15-49 4z"/><path fill="#e3eccb" d="M166.5 37.6l30.4 1.6L157.4 25l7.4 44.6z"/><path fill="#fff" d="M163 189h20v9h-20z"/><path fill="#99c08e" d="M132 155h31v8h-31z"/><path fill="#f7ead5" d="M192 113h9v6h-9z"/><path fill="#a3b78e" d="M124 17h2v77h-2z"/><path fill="#e1e0c5" d="M175.3 35.9l-35.8 10.6 1.6 4.3-17.8-5.4z"/><path fill="#f5e8d6" d="M196 53.5l-1.9-.4 3.8-16.6 2 .4z"/><path fill="#f0e6ce" d="M197 130l2 9 6-4z"/><path fill="#c5dfc3" d="M275.5 185.5v1h-161v-1z"/><ellipse cx="204" cy="17" fill="#849870" rx="16" ry="1"/><path fill="#859e71" d="M126 17h59v1h-59z"/><path fill="#8ac17e" d="M-24.3 151l98.8 21-.2 1-98.8-21z"/><path fill="#94c08b" d="M193 49l-15-4 11-11z"/><path fill="#a1ca92" d="M151 29h8v24h-8z"/><ellipse cx="178" cy="190" fill="#fff" rx="97" ry="2"/></g></g></svg>