<svg xmlns="http://www.w3.org/2000/svg" viewBox="0 0 1200 1190"><defs/><filter id="prefix__a"><feGaussianBlur stdDeviation="12"/></filter><rect width="100%" height="100%" fill="#505050"/><g filter="url(#prefix__a)"><g transform="translate(2.3 2.3) scale(4.6875)"><circle cx="194" cy="92" r="255" fill="#fff" fill-opacity=".5"/><circle cx="142" cy="107" r="224" fill="#fff" fill-opacity=".5"/><circle cx="127" cy="205" r="247" fill="#fff" fill-opacity=".5"/><ellipse cx="215" cy="116" fill="#282828" fill-opacity=".5" rx="2" ry="83"/><circle r="1" fill="#cbcbcb" fill-opacity=".5" transform="matrix(-6.40595 40.83604 -73.63132 -11.55054 104.2 86.7)"/><ellipse cx="241" cy="135" fill="#fff" fill-opacity=".5" rx="25" ry="252"/><ellipse cx="119" cy="14" fill="#fff" fill-opacity=".5" rx="254" ry="30"/><path fill="#fff" fill-opacity=".5" d="M271 104.1L248.9 268l-29.6-95.7-20.1-34.3z"/><path fill-opacity=".5" d="M149 44h69v3h-69z"/><path fill="#d6d6d6" fill-opacity=".5" d="M44 92h171v97H44z"/><ellipse cx="97" cy="252" fill="#fff" fill-opacity=".5" rx="255" ry="19"/><path fill-opacity=".5" d="M45 100h2v31h-2z"/><ellipse cx="4" cy="142" fill="#fff" fill-opacity=".5" rx="23" ry="243"/><ellipse cx="45" cy="178" fill="#0d0d0d" fill-opacity=".5" rx="2" ry="14"/><ellipse cx="124" cy="187" fill="#4b4b4b" fill-opacity=".5" rx="65" ry="1"/><path fill="#414141" fill-opacity=".5" d="M67 87h44v2H67z"/><ellipse cx="150" cy="106" fill="#1e1e1e" fill-opacity=".5" rx="69" ry="1"/><path fill="#181818" fill-opacity=".5" d="M43.4 58.5l7.6-6 2.8.6 23.1-5.2z"/><path fill="#161616" fill-opacity=".5" d="M153 38h1v63h-1z"/><path fill="#fff" fill-opacity=".5" d="M140.2 87.6l3.8-39.5-160-24.5L167.6.8z"/><path fill="#6a6a6a" fill-opacity=".5" d="M62 50h2v78h-2z"/><path fill="#fff" fill-opacity=".5" d="M109 36h7v128h-7z"/><ellipse cx="189" cy="106" fill="#202020" fill-opacity=".5" rx="1" ry="20"/><path fill="#efefef" fill-opacity=".5" d="M156 46h59v42h-59z"/><ellipse cx="92" cy="67" fill="#1c1c1c" fill-opacity=".5" rx="22" ry="1"/><ellipse cx="92" cy="62" fill="#3f3f3f" fill-opacity=".5" rx="22" ry="1"/><path fill="#858585" fill-opacity=".5" d="M107.1 164l60.8 14.5-70.2-13.8 9.4 2.1z"/><ellipse cx="135" cy="99" fill="#0f0f0f" fill-opacity=".5" rx="18" ry="1"/><path fill="#fdfdfd" fill-opacity=".5" d="M182 130h74v35h-74z"/><circle r="1" fill="#7a7a7a" fill-opacity=".5" transform="matrix(17.38804 -6.57902 .35388 .93529 91.8 173.1)"/><path fill="#3c3c3c" fill-opacity=".5" d="M217.9 130.3h-4.2l-12.7-1.9 9.9-1.3z"/><path fill="#919191" fill-opacity=".5" d="M222.9 133.5l-50-15-82.1 14.2 69.6-15.2z"/><ellipse cx="171" cy="45" fill-opacity=".5" rx="18" ry="1"/><ellipse cx="188" cy="45" fill-opacity=".5" rx="27" ry="1"/><path fill="none" stroke="#000" stroke-opacity=".5" stroke-width=".5" d="M215.2 111.7q.8-9.5 0-55.1"/><ellipse cx="103" cy="206" fill="#848484" fill-opacity=".5" rx="60" ry="1"/><path fill="#0d0d0d" fill-opacity=".5" d="M204 166h16v2h-16z"/><circle cx="129" cy="75" r="23" fill="#ededed" fill-opacity=".5"/><path fill-opacity=".5" d="M115.3 187.5h-1l.4-21h1z"/><ellipse cx="239" cy="100" fill="#fff" fill-opacity=".5" rx="23" ry="252"/><path fill-opacity=".5" d="M215 42h2v88h-2z"/><ellipse cx="90" cy="73" fill="#434343" fill-opacity=".5" rx="1" ry="30"/><path fill="#383838" fill-opacity=".5" d="M63.8 126.1l-15.3 4.7-.3-1 15.3-4.6z"/><ellipse cx="206" cy="30" fill="#fff" fill-opacity=".5" rx="255" ry="14"/><ellipse cx="77" cy="144" fill="#f1f1f1" fill-opacity=".5" rx="36" ry="20"/><ellipse cx="45" cy="109" fill-opacity=".5" rx="1" ry="21"/><path fill="#282828" fill-opacity=".5" d="M199 94.9v1l-42-.8v-1z"/><ellipse cx="69" cy="106" fill="#282828" fill-opacity=".5" rx="23" ry="1"/><path fill="#3e3e3e" fill-opacity=".5" d="M46.6 167.9l-.2-3 11-.8.2 3z"/><ellipse cx="119" cy="113" fill="#f4f4f4" fill-opacity=".5" rx="68" ry="6"/><ellipse cx="117" cy="101" fill="#5e5e5e" fill-opacity=".5" rx="1" ry="29"/><path fill-opacity=".5" d="M72.7 123h-1l-.4-14h1z"/><path fill="#fff" fill-opacity=".5" d="M-13 235h254v20H-13z"/><path fill="#7f7f7f" fill-opacity=".5" d="M82.7 119.3l32.6 12.6L79.4 116l-20.8 11.8z"/><ellipse cx="108" cy="88" fill="#616161" fill-opacity=".5" rx="1" ry="46"/><path fill="#b8b8b8" fill-opacity=".5" d="M157 178l27 3 31-19z"/><ellipse cx="144" cy="178" fill-opacity=".5" rx="1" ry="9"/><path fill="#323232" fill-opacity=".5" d="M63 169h1v29h-1z"/><path fill="#f6f6f6" fill-opacity=".5" d="M201.7 199.9l-77-22.3 117.7 36.3-56.4-55z"/><path fill="#f9f9f9" fill-opacity=".5" d="M77 103l46 3-10-12z"/><path fill="#f1f1f1" fill-opacity=".5" d="M52.5 168.4l19.7 35.4-31.6-5.5 25-44.2z"/><ellipse cx="72" cy="180" fill="#070707" fill-opacity=".5" rx="1" ry="9"/><path fill="#f0f0f0" fill-opacity=".5" d="M28 44h17v185H28z"/><path fill-opacity=".5" d="M103.5 44.6l.3-1 4.7 1.8-.3 1z"/><path fill="#efefef" fill-opacity=".5" d="M154 58h61v37h-61z"/><path fill="#f7f7f7" fill-opacity=".5" d="M127 84l-18 5V53z"/><path fill="#fbfbfb" fill-opacity=".5" d="M65 50h5v72h-5z"/><path fill="#7b7b7b" fill-opacity=".5" d="M189 160h1v56h-1z"/><path fill="#f2f2f2" fill-opacity=".5" d="M145 162h16v74h-16z"/><path fill="#606060" fill-opacity=".5" d="M75.2 45.7l1-.2 2.6 16.8-1 .2z"/><path fill="#fff" fill-opacity=".5" d="M-7.9 155.8l-1.2-71 35-.6 1.2 71z"/><ellipse cx="165" cy="156" fill="#ececec" fill-opacity=".5" rx="51" ry="16"/><path fill="#151515" fill-opacity=".5" d="M54.3 94l.4 14h-1l-.4-14z"/><path fill="#7d7d7d" fill-opacity=".5" d="M72 65l1 .1L70 99l-1-.1z"/><path fill="#939393" fill-opacity=".5" d="M71 80h37v2H71z"/><path fill="#fff" fill-opacity=".5" d="M45 96l7-3-4 12z"/><ellipse cx="81" cy="74" fill="#595959" fill-opacity=".5" rx="9" ry="1"/><path fill="#535353" fill-opacity=".5" d="M134 106h2v21h-2z"/><ellipse cx="210" cy="95" fill-opacity=".5" rx="5" ry="1"/><path fill="#fff" fill-opacity=".5" d="M48 55l13-2-10 17z"/><circle r="1" fill="#848484" fill-opacity=".5" transform="matrix(-.14263 .98978 -11.84535 -1.70694 166.8 119.9)"/><path fill="#f1f1f1" fill-opacity=".5" d="M91 46h4v76h-4z"/><path fill="#212121" fill-opacity=".5" d="M46 82h21v1H46z"/><ellipse cx="8" cy="40" fill="#c4c4c4" fill-opacity=".5" rx="1" ry="168"/><path fill="#f1f1f1" fill-opacity=".5" d="M105 169.6l11.4 18.9 148 11-183.3 2.3z"/><ellipse cx="45" cy="55" fill-opacity=".5" rx="1" ry="5"/><path fill-opacity=".5" d="M217.7 167.7l-2.4 16.8-1-.2 2.4-16.8z"/><path fill="#f6f6f6" fill-opacity=".5" d="M147.9 101.5l-9.9.5 10.6 6.3 24-25.4z"/><path fill="#2e2e2e" fill-opacity=".5" d="M75.7 48.1l3.5.5-32.4 7.2 10.8-4.2z"/><path fill-opacity=".5" d="M161.9 175.5h1l-.8 15h-1z"/><path fill="#f5f5f5" fill-opacity=".5" d="M73 165h7v65h-7z"/><ellipse cx="164" cy="128" fill="#f8f8f8" fill-opacity=".5" rx="33" ry="5"/><ellipse cx="81" cy="182" fill="#191919" fill-opacity=".5" rx="1" ry="7"/><path fill="#f9f9f9" fill-opacity=".5" d="M64 100h96v6H64z"/><path fill="#787878" fill-opacity=".5" d="M187.5 170.4l.3 1-27.3 6.2-.3-1z"/><path fill="#484848" fill-opacity=".5" d="M144 87h1v20h-1z"/><circle r="1" fill="#898989" fill-opacity=".5" transform="rotate(103.6 42.2 132.2) scale(1 21.7934)"/><path fill="#fefefe" fill-opacity=".5" d="M215 125l-25-6 23-12z"/><path fill="#d2d2d2" fill-opacity=".5" d="M119 47h23v26h-23z"/><path fill="#ebebeb" fill-opacity=".5" d="M45 130h83v36H45z"/></g></g></svg>