<svg xmlns="http://www.w3.org/2000/svg" viewBox="0 0 1200 439"><defs/><filter id="a"><feGaussianBlur stdDeviation="12"/></filter><rect width="100%" height="100%" fill="#34343c"/><g filter="url(#a)"><g fill-opacity=".5" transform="translate(2.3 2.3) scale(4.6875)"><circle cx="117" cy="44" r="157" fill="#fff"/><circle cx="87" cy="16" r="194" fill="#fff"/><ellipse cx="127" cy="11" fill="#fff" rx="133" ry="51"/><circle r="1" fill="#fff" transform="matrix(124.99558 16.74513 -5.47447 40.86472 117.6 17.5)"/><path d="M88 62h131v2H88z"/><circle r="1" fill="#fff" transform="rotate(94.2 -28 53) scale(19.51229 48.1335)"/><ellipse cx="179" cy="92" fill="#fff" rx="164" ry="4"/><path fill="#6f6f6f" d="M51 55l19-3-8-18z"/><path d="M101.5 75l32.9-3v1l-32.8 3z"/><ellipse cx="230" cy="79" fill="#fcfcfa" rx="17" ry="30"/><ellipse cx="160" cy="68" fill="#fff" rx="108" ry="5"/><path d="M206.5 71.4l17 .2v3l-17-.2z"/><circle r="1" fill="#fff" transform="matrix(119.35007 5.64288 -2.12993 45.04924 118 0)"/><circle r="1" fill="#c4c4c3" transform="matrix(10.67446 -21.91835 35.34948 17.21555 252.3 46.5)"/><path fill="#fff" d="M121.3 70.6L181.1-16-16 11.8l126 34.8z"/><path d="M96 61.7v1l-32 1.6v-1z"/><path fill="#fff" d="M33 0h23v66H33z"/><ellipse cx="157" cy="91" fill="#fff" rx="129" ry="3"/><path d="M53 66l-15-1 8 3z"/><path fill="#e6d8bb" d="M51 75h160v14H51z"/><path fill="#292719" d="M84.4 75.4l-20.9-1.8v-1l21 1.8z"/><path fill="#fbfbfa" d="M57 66h189v7H57z"/><path fill="#fff" d="M69 0h147v61H69z"/><path fill="#5f5f5e" d="M6 84h5v8H6z"/><path fill="#9e9e9e" d="M248 38h5v46h-5z"/><path fill="#fff" d="M0 68h65v5H0z"/><path d="M125.5 64.6v-1l65-2.2v1zM212 73h10v2h-10zM64 62h50v2H64z"/><path fill="#989897" d="M50.3 53.6l13.4 6.7 3-23.8-16.1 15z"/><ellipse cx="93" cy="80" fill="#e0d6c1" rx="25" ry="8"/><path fill="#eaeaea" d="M102 38l30.3 15.5L126 66 95.7 50.5z"/><circle r="1" fill="#e2e2e3" transform="matrix(-9.92878 7.5764 -19.75546 -25.8893 226.6 54.8)"/><path d="M51.4 65.7l.1 1-15 1.6v-1z"/><path fill="#070702" d="M116 73h23v2h-23z"/><path fill="#a8acb5" d="M45 77l10-3 1 14z"/><path fill="#f4f4f3" d="M-16 98l57-35-46-4z"/><path d="M190 80.4l.5-.8 3.5 2-.5.8z"/><path fill="#646464" d="M224 74h1v14h-1z"/><path fill="#fffffe" d="M220.7 78.9l34.7 4.7 1-6.4L233 97.3z"/><ellipse cx="199" cy="62" rx="16" ry="1"/><path fill="#a6a6a6" d="M20 63h3v17h-3z"/><path fill="#e6dcc7" d="M136 72h53v8h-53z"/><path fill="#d4d4d2" d="M-11 30l52 27-10-26z"/><path fill="#f6f8f9" d="M169.2 108l68.5-29.9-29.7 9-19.2-4.9z"/><path fill="#fff" d="M209 17.8l-55.8 34.4L-16 1.5l287-6.2z"/><ellipse cx="8" cy="91" fill="#b0b0af" rx="27" ry="1"/><path fill="#f0f6ff" d="M89 87h32l-17-5z"/><path fill="#e7e7e7" d="M260 13l-34-7-24 35z"/><path fill="#ebeef4" d="M57 61h7v32h-7z"/><path fill="#c5c5c5" d="M218.3 39.5l40 32-20.2-48.1L222.3 63z"/><path fill="#fefefe" d="M61.4 39.8L-16-3l58.8 48-3.9 20.3z"/><path fill="#fff" d="M37 89h219v4H37z"/><path fill="#d4d7d9" d="M80 72h148v1H80z"/><ellipse cx="25" cy="77" fill="#ccc" rx="34" ry="2"/><path fill="#b8b8b8" d="M228 76h20v3h-20z"/><path fill="#f0f0f0" d="M90 35l37 2-2 30z"/><path fill="#fdfdfd" d="M22 68h29v7H22z"/><path fill="#9c9c9c" d="M54 53.4v-9l14 .2v9z"/><ellipse cx="180" cy="88" fill="#b6bbc2" rx="147" ry="1"/><ellipse cx="132" cy="57" fill="#efefee" rx="69" ry="4"/><path fill="#181817" d="M187 62h17v2h-17z"/><circle cx="64" cy="68" r="5" fill="#d5d4d2"/><path fill="#8c8c8d" d="M60 37l3 15 2-17z"/><path fill="#6f6f6e" d="M249 72h3v9h-3z"/><path fill="#0f0f0e" d="M117.3 65.5h-1l.4-5h1z"/><path fill="#f5f5f3" d="M252 72h4v17h-4z"/><path fill="#babab8" d="M29 56L8 41l13 22z"/><path fill="#d9cbb6" d="M71 79h117v7H71z"/><path fill="#afafaf" d="M258 34l-16 18 7 14z"/><path fill="#fdfdfc" d="M10 80h7v11h-7z"/><circle r="1" fill="#fff" transform="matrix(.28572 -2.11321 16.50125 2.23106 227.8 83.2)"/><path fill="#fcffff" d="M67 83l-8-10 9 4z"/><path fill="#181817" d="M99 65.6l-1-2.8 1-.4 1 2.8z"/><ellipse cx="189" cy="63" fill="#232322" rx="25" ry="1"/><ellipse cx="2" cy="81" fill="#fff" rx="34" ry="3"/><path fill="#fff" d="M211.2 86.3l.6-11 7 .4-.6 11z"/><path fill="#f2f2f2" d="M204 71l45 2-8-16z"/><ellipse cx="118" cy="61" fill="#d0d0cf" rx="56" ry="1"/><path fill="#2d2d2c" d="M51 68l-1-3h6z"/><path fill="#c2c2c2" d="M65.2 33.9l4.7 11.8-7.8 12.5 6.5-3z"/><path fill="#d8d8d8" d="M45 68h17v3H45z"/><path fill="#212121" d="M37 66h19v2H37z"/><ellipse cx="144" cy="63" fill="#111110" rx="1" ry="2"/><path fill="#373737" d="M221 73l4-1v3z"/><ellipse cx="174" cy="85" fill="#393935" rx="1" ry="2"/><circle r="1" fill="#202223" transform="rotate(-1.3 3195 -2869.4) scale(3.49715 1)"/><path fill="#f6f6f5" d="M55 65h60v3H55z"/><path fill="#fff" d="M225 70h10v5h-10z"/><path fill="#1e1e1c" d="M112 73h20v2h-20z"/><path fill="#f7f9f9" d="M164 65h24v9h-24z"/><path fill="#f3f3f3" d="M4 90h6v2H4z"/><path fill="#dedede" d="M53.6 65.1l5.9-30.4 1 .2-6 30.4z"/><path fill="#fff" d="M98.4 40.4L26.5 29.5l89-39.3-56.4 75.5z"/><path fill="#545555" d="M64 62h1v7h-1z"/><circle r="1" fill="#5e5e5d" transform="matrix(.93074 .36568 -.80906 2.05922 162.9 64.3)"/><path fill="#535353" d="M215 64h1v4h-1z"/><path fill="#f1f1f1" d="M36 54h20v12H36z"/><path fill="#ebecec" d="M66.3 63l3.5 1.9-4 8-3.6-1.8z"/><circle cx="8" cy="88" r="2" fill="#4a4a4a"/></g></g></svg>