<svg xmlns="http://www.w3.org/2000/svg" viewBox="0 0 1200 444"><defs/><filter id="a"><feGaussianBlur stdDeviation="12"/></filter><rect width="100%" height="100%" fill="#686868"/><g filter="url(#a)"><g fill-opacity=".5" transform="translate(2.3 2.3) scale(4.6875)"><circle cx="145" cy="49" r="155" fill="#fff"/><circle cx="136" cy="45" r="162" fill="#fff"/><circle r="1" fill="#fff" transform="rotate(87.3 49.7 94.5) scale(66.20034 246.5714)"/><ellipse cx="90" cy="33" fill="#fff" rx="226" ry="87"/><ellipse cx="123" cy="72" fill="#fff" rx="255" ry="32"/><circle r="1" fill="#fff" transform="matrix(18.59106 -18.7213 55.6312 55.24417 250 22.8)"/><circle r="1" fill="#ececec" transform="matrix(-87.77275 -4.16912 .60729 -12.7853 101.3 27.6)"/><ellipse cx="14" cy="17" fill="#fff" rx="18" ry="67"/><path fill="#c9c9c9" d="M85.5 41.6l1.9-9.6-3.1-21.8-.3 30.6z"/><ellipse cx="95" cy="9" fill="#fff" rx="51" ry="6"/><path fill="#d5d5d5" d="M6 36h2v56H6z"/><path fill="#c7c7c7" d="M54.6 14.3l92.8 6.4v1l-92.8-6.4z"/><ellipse cx="167" cy="49" fill="#e4e4e4" rx="2" ry="35"/><path fill="#fff" d="M148 9h18v21h-18z"/><path fill="#d7d7d7" d="M32 10h2v74h-2z"/><path fill="#c1c1c1" d="M117 18h2v23h-2z"/><path fill="#fff" d="M213.7 109l-22.6-76.5L271 20.2 228.3-16z"/><path fill="#c5c5c5" d="M147 21h1v57h-1z"/><path fill="#e3e3e3" d="M222 32h3v51h-3z"/><circle r="1" fill="#e7e7e7" transform="matrix(-1.04985 42.95694 -.9997 -.02443 51.3 36.2)"/><path fill="#eaeaea" d="M95 70h20v12H95z"/><circle r="1" fill="#dedede" transform="rotate(5.1 41 912.4) scale(111.00859 1)"/><ellipse cx="191" cy="52" fill="#e5e5e5" rx="2" ry="35"/><ellipse cx="118" cy="93" fill="#fff" rx="118" ry="15"/><ellipse cx="43" cy="16" fill="#bcbcbc" rx="1" ry="12"/><ellipse cx="152" cy="61" fill="#d4d4d4" rx="1" ry="19"/><path fill="#fff" d="M30.1-16l7.7 38.8L52.1 6.1l-3 24.4z"/><ellipse cx="198" fill="#fff" rx="91" ry="5"/><path fill="#fcfcfc" d="M56 17h27v15H56z"/><path fill="#b5b5b5" d="M84 64h1v14h-1z"/><path fill="#ebebeb" d="M238 30h4v64h-4z"/><path fill="#fff" d="M28.2 30.9l47.7 10.6L-16 30.4l2.3-46.4z"/><path fill="#e0e0e0" d="M82 38h61v3H82z"/><ellipse cx="169" cy="80" fill="#fff" rx="2" ry="81"/><ellipse cx="113" cy="51" fill="#d5d5d5" rx="1" ry="31"/><path fill="#fff" d="M59.6.3l-67.1 23-8.1-23.6 67.1-23z"/><circle r="1" fill="#ececec" transform="rotate(-83.8 135.8 -60.9) scale(1 57.17192)"/><ellipse cx="24" cy="67" fill="#e3e3e3" rx="1" ry="55"/><path fill="#d7d7d7" d="M50.7 18l78.7 7v1l-78.8-7z"/><path fill="#fefefe" d="M89 23h21v14H89z"/><ellipse cx="70" cy="43" fill="#dfdfdf" rx="27" ry="1"/><path fill="#d7d7d7" d="M144.4 40.7l-.2-1 33.4-6.4.2 1z"/><path fill="#d5d5d5" d="M23 13l-2 4 4 9z"/><path fill="#e7e7e7" d="M194 31l22-7v-8z"/><ellipse cx="69" cy="63" fill="#ddd" rx="1" ry="21"/><ellipse cx="139" cy="32" fill="#d6d6d6" rx="2" ry="8"/><ellipse cx="91" cy="19" fill="#fff" rx="23" ry="2"/><ellipse cx="197" cy="54" fill="#dbdbdb" rx="1" ry="17"/><path fill="#fff" d="M55 48h86v16H55zm73-30.2l54.6 3.4-49.9-7.9-59.8 1.3z"/><circle r="1" fill="#fff" transform="matrix(30.11428 .69872 -.0232 .99973 118 21.3)"/><path fill="#dfdfdf" d="M31 27l19 6-14-13z"/><path fill="#c8c8c8" d="M53 14h12v2H53z"/><ellipse cx="119" cy="44" fill="#dcdcdc" rx="27" ry="1"/><circle r="1" fill="#fff" transform="matrix(32.57246 -13.43376 3.28444 7.96368 237 21)"/><circle r="1" fill="#ededed" transform="rotate(-176.2 49.8 4) scale(54.83665 1)"/><path fill="#d1d1d1" d="M167 8h26v1h-26z"/><path fill="#b9b9b9" d="M86.2 31l-1.4-14h1l1.4 14z"/><path fill="#dcdcdc" d="M99 44h1v27h-1z"/><ellipse cx="99" cy="34" fill="#d3d3d3" rx="15" ry="1"/><path fill="#dbdbdb" d="M172 37h1v28h-1z"/><ellipse cx="47" cy="43" fill="#fff" rx="3" ry="37"/><ellipse cx="247" cy="57" fill="#e5e5e5" rx="1" ry="30"/><path fill="#d7d7d7" d="M166 7h1v60h-1z"/><path fill="#e0e0e0" d="M44 32h1v46h-1z"/><ellipse cx="229" cy="54" fill="#e4e4e4" rx="1" ry="22"/><path fill="#cfcfcf" d="M111.3 20l-34.7-5 .1-1 34.7 5z"/><path fill="#fff" d="M13 86h218v8H13zm162-45h15v36h-15zm-7.2-17.6L171 7.6l2.2 3.5 26.4-1.3z"/><path fill="#ececec" d="M-16 92.4l54.1-11.9L65.9 75l-23 6.5z"/><path fill="#ededed" d="M44.2 39.8L2.1 30.5-16 28.8l32.8 7.5z"/><path fill="#c3c3c3" d="M74 37h13v1H74z"/><path fill="#fff" d="M121 25h15v10h-15z"/><ellipse cx="115" cy="76" fill="#e5e5e5" rx="30" ry="1"/><path fill="#fff" d="M-6.6 15.5l-9 10.9L37.9 37l29.2 7.1zM33 41h10v33H33z"/><ellipse cx="50" cy="58" fill="#dedede" rx="1" ry="22"/><circle r="1" fill="#fff" transform="rotate(174.1 85.9 23.7) scale(56.57855 1)"/><path fill="#fff" d="M153 44h12v33h-12z"/><path fill="#ddd" d="M140 44h1v33h-1z"/><path fill="#ececec" d="M245 31l.1 1-92 13-.2-1z"/><path fill="#e3e3e3" d="M154-2l.2-1L202 8l-.2 1z"/><ellipse cx="223" cy="27" fill="#fff" rx="1" ry="56"/><ellipse cx="67" cy="33" fill="#d8d8d8" rx="19" ry="1"/><circle r="1" fill="#fff" transform="matrix(.17445 -2.32021 40.8 3.06756 75.6 12.7)"/><ellipse cx="90" cy="29" fill="#e0e0e0" rx="19" ry="1"/><path fill="#fff" d="M56 16h19v4H56z"/><ellipse cx="32" cy="62" fill="#d3d3d3" rx="1" ry="23"/><path fill="#e7e7e7" d="M210 12h5v13h-5z"/><path fill="#fff" d="M271-11l-115 1 92 32z"/><path fill="#d1d1d1" d="M69 64h19v1H69z"/><path fill="#d6d6d6" d="M69.7-2l40.7 5-.1 1-40.7-5z"/><path fill="#fff" d="M142 23h3v12h-3zm9 38.2l-3-40.8 17.9-8.3-16.1 25.7z"/><path fill="#e5e5e5" d="M190 7h3v22h-3z"/><ellipse cx="66" cy="28" fill="#e0e0e0" rx="16" ry="1"/><path fill="#fff" d="M201 39h21v43h-21z"/><ellipse cx="90" cy="81" fill="#e7e7e7" rx="22" ry="1"/><path fill="#fff" d="M114.2 7.3l-.6 4L21.8-3.4l.6-4z"/></g></g></svg>