<svg xmlns="http://www.w3.org/2000/svg" viewBox="0 0 1200 611"><defs/><filter id="prefix__a"><feGaussianBlur stdDeviation="12"/></filter><rect width="100%" height="100%" fill="#656565"/><g filter="url(#prefix__a)"><g transform="translate(2.3 2.3) scale(4.6875)"><circle cx="83" cy="56" r="193" fill="#fff" fill-opacity=".5"/><circle cx="97" cy="95" r="194" fill="#fff" fill-opacity=".5"/><ellipse cx="139" cy="67" fill="#fff" fill-opacity=".5" rx="162" ry="128"/><circle r="1" fill="#fff" fill-opacity=".5" transform="matrix(-114.86114 -111.42205 114.94064 -118.48833 151.4 60.6)"/><circle cx="211" cy="75" r="187" fill="#fff" fill-opacity=".5"/><circle r="1" fill="#efefef" fill-opacity=".5" transform="rotate(83.1 38.4 100.1) scale(31.31429 94.68429)"/><path fill="#dadada" fill-opacity=".5" d="M17 43h8v50h-8z"/><ellipse cx="39" cy="8" fill="#fff" fill-opacity=".5" rx="105" ry="18"/><ellipse cx="142" cy="120" fill="#fff" fill-opacity=".5" rx="128" ry="38"/><path fill="#d2d2d2" fill-opacity=".5" d="M76 49h66v4H76z"/><path fill="#fff" fill-opacity=".5" d="M163 65l42 7 66-73z"/><ellipse cx="119" cy="77" fill="#aaa" fill-opacity=".5" rx="22" ry="1"/><ellipse cx="105" cy="35" fill="#c3c3c3" fill-opacity=".5" rx="36" ry="1"/><path fill="#bfbfbf" fill-opacity=".5" d="M74 53h2v28h-2z"/><path fill="#fff" fill-opacity=".5" d="M77 37h64v12H77z"/><circle r="1" fill="#fff" fill-opacity=".5" transform="matrix(.9173 -17.41412 151.95592 8.00436 144.3 0)"/><path fill="#d5d5d5" fill-opacity=".5" d="M86 29h66v2H86z"/><path fill="#bcbcbc" fill-opacity=".5" d="M97 31h1v42h-1z"/><ellipse cx="7" cy="65" fill="#fff" fill-opacity=".5" rx="3" ry="83"/><ellipse cx="79" cy="108" fill="#fff" fill-opacity=".5" rx="60" ry="30"/><path fill="#fff" fill-opacity=".5" d="M79 61h58v10H79z"/><path fill="#bbb" fill-opacity=".5" d="M76 34h36v1H76z"/><path fill="#cecece" fill-opacity=".5" d="M119 42h2v38h-2z"/><path fill="#e3e3e3" fill-opacity=".5" d="M238 38h3v55h-3z"/><path fill="#ccc" fill-opacity=".5" d="M174 20h2v38h-2z"/><path fill="#e5e5e5" fill-opacity=".5" d="M126 50l31 5 25-13z"/><path fill="none" stroke="#cfcfcf" stroke-opacity=".5" stroke-width=".5" d="M141.8 35.6q-1.6 51 2.6 54.4"/><ellipse cx="222" cy="70" fill="#d6d6d6" fill-opacity=".5" rx="1" ry="28"/><path fill="#e2e2e2" fill-opacity=".5" d="M92 23.6l1 2.8-35 12-1-2.8z"/><path fill="#fff" fill-opacity=".5" d="M33 50l100-61-135-5z"/><path fill="#cfcfcf" fill-opacity=".5" d="M39 46h2v40h-2z"/><circle r="1" fill="#fff" fill-opacity=".5" transform="matrix(-109.8603 -19.1737 5.01756 -28.74931 188.2 113.7)"/><path fill="#d4d4d4" fill-opacity=".5" d="M-1 64l-15-42L0-16z"/><path fill="#c5c5c5" fill-opacity=".5" d="M51 51h1v36h-1z"/><ellipse cx="161" cy="47" fill="#d0d0d0" fill-opacity=".5" rx="1" ry="33"/><path fill="#cecece" fill-opacity=".5" d="M174 61h2v22h-2z"/><path fill="#e7e7e7" fill-opacity=".5" d="M182 40l32-11.6 2 5.6-32 11.6z"/><ellipse cx="229" cy="65" fill="#d7d7d7" fill-opacity=".5" rx="1" ry="26"/><ellipse cx="150" cy="67" fill="#bcbcbc" fill-opacity=".5" rx="1" ry="12"/><path fill="#ebebeb" fill-opacity=".5" d="M66.3 75.8L69 27l1.1 53.6L19.4 91z"/><ellipse cx="141" cy="54" fill="silver" fill-opacity=".5" rx="1" ry="24"/><path fill="#e5e5e5" fill-opacity=".5" d="M210 40h3v48h-3z"/><ellipse cx="33" cy="68" fill="#d7d7d7" fill-opacity=".5" rx="1" ry="24"/><path fill="#e9e9e9" fill-opacity=".5" d="M178.7 25.4l-77-6.9 108.4 3.6-95.7 2.4z"/><path fill="#cecece" fill-opacity=".5" d="M74 71h64v1H74z"/><ellipse cx="191" cy="55" fill="#dbdbdb" fill-opacity=".5" rx="1" ry="34"/><path fill="#c6c6c6" fill-opacity=".5" d="M74 77h17v2H74z"/><path fill="#fff" fill-opacity=".5" d="M88 71h10v59H88z"/><ellipse cx="74" cy="39" fill="#bfbfbf" fill-opacity=".5" rx="1" ry="9"/><circle r="1" fill="#ccc" fill-opacity=".5" transform="matrix(.99998 .00698 -.04975 7.12596 221.6 37.7)"/><path fill="#e7e7e7" fill-opacity=".5" d="M107 73h10v10h-10z"/><ellipse cx="107" cy="59" fill="#cdcdcd" fill-opacity=".5" rx="32" ry="1"/><ellipse cx="158" cy="70" fill="#fff" fill-opacity=".5" rx="3" ry="47"/><ellipse cx="72" cy="41" fill="#fff" fill-opacity=".5" rx="2" ry="42"/><path fill="#fff" fill-opacity=".5" d="M271 1.8l-11.7 29.7-43.9 13.7L219-16zM77 35h13v34H77z"/><path fill="#cdcdcd" fill-opacity=".5" d="M23 52h2v38h-2z"/><ellipse cx="103" cy="52" fill="#c1c1c1" fill-opacity=".5" rx="35" ry="1"/><path fill="#ececec" fill-opacity=".5" d="M17 33h6v71h-6z"/><ellipse cx="82" cy="32" fill="#fff" fill-opacity=".5" rx="62" ry="2"/><path fill="#cdcdcd" fill-opacity=".5" d="M75 28h36v1H75z"/><ellipse cx="148" cy="21" fill="#d0d0d0" fill-opacity=".5" rx="19" ry="1"/><path fill="#ebebeb" fill-opacity=".5" d="M11 16h4v96h-4z"/><ellipse cx="135" cy="27" fill="#fff" fill-opacity=".5" rx="45" ry="2"/><path fill="#dcdcdc" fill-opacity=".5" d="M184.8 43.7v1l-71.6 7.6v-1z"/><path fill="#fff" fill-opacity=".5" d="M103 37h36v13h-36z"/><path fill="#d4d4d4" fill-opacity=".5" d="M118.7 35.1l1-.1 1.6 15.9-1 .1z"/><path fill="#fff" fill-opacity=".5" d="M163 51h11v79h-11z"/><ellipse cx="8" cy="107" fill="#fff" fill-opacity=".5" rx="3" ry="125"/><path fill="#e4e4e4" fill-opacity=".5" d="M71 49l16-1-32-8z"/><ellipse cx="196" cy="69" fill="#d4d4d4" fill-opacity=".5" rx="1" ry="16"/><path fill="#e9e9e9" fill-opacity=".5" d="M147.7 76l84.7 15-.1 1-84.7-15z"/><ellipse cx="223" cy="60" fill="#e5e5e5" fill-opacity=".5" rx="2" ry="21"/><path fill="#fff" fill-opacity=".5" d="M75 53h58v6H75z"/><ellipse cx="68" cy="55" fill="#d2d2d2" fill-opacity=".5" rx="1" ry="26"/><path fill="#fff" fill-opacity=".5" d="M65.4 48.5l-3.4 1-39.3-11.1-7.2-35.6z"/><path fill="#fefefe" fill-opacity=".5" d="M18 49h2v47h-2z"/><path fill="#dfdfdf" fill-opacity=".5" d="M62.5 33.6l-2 36.9h-1l2-37z"/><circle r="1" fill="#fff" fill-opacity=".5" transform="rotate(131.2 -2.3 71.1) scale(40.46091 30.51987)"/><path fill="#fff" fill-opacity=".5" d="M25.2 53.9l26 4.7L45.3 17l6.4 57.3z"/><path fill="#e6e6e6" fill-opacity=".5" d="M246.5 91.5h-1l2-55h1z"/><path fill="#fff" fill-opacity=".5" d="M146 36h4v94h-4z"/><ellipse cx="150" cy="3" fill="#fff" fill-opacity=".5" rx="145" ry="15"/><path fill="#e2e2e2" fill-opacity=".5" d="M-.5 127.5v-63h1v63z"/><path fill="#fff" fill-opacity=".5" d="M192 22h5v17h-5z"/><circle r="1" fill="#fff" fill-opacity=".5" transform="rotate(-80.2 62 -15.3) scale(1 15.45728)"/><ellipse cx="3" cy="23" fill="#e7e7e7" fill-opacity=".5" rx="1" ry="78"/><ellipse cx="181" cy="101" fill="#fff" fill-opacity=".5" rx="57" ry="17"/><ellipse cx="150" cy="49" fill="#d5d5d5" fill-opacity=".5" rx="1" ry="21"/><path fill="#fff" fill-opacity=".5" d="M65 34h3v45h-3z"/><path fill="#e2e2e2" fill-opacity=".5" d="M22.3 44l.2-1 51.2 9-.2 1z"/><path fill="#e7e7e7" fill-opacity=".5" d="M216 44h2v40h-2z"/><path fill="#dcdcdc" fill-opacity=".5" d="M214 26l-4 7-2-10z"/><path fill="#fff" fill-opacity=".5" d="M209 41l.2 1-46.2 9-.2-1z"/><ellipse cx="109" cy="23" fill="#dbdbdb" fill-opacity=".5" rx="13" ry="1"/><path fill="#fff" fill-opacity=".5" d="M176 51h14v27h-14z"/><path fill="#e4e4e4" fill-opacity=".5" d="M108.7 22.7l-.1-1 42.7-4.4.1 1z"/><path fill="#fff" fill-opacity=".5" d="M197 48h13v34h-13z"/><circle r="1" fill="#eaeaea" fill-opacity=".5" transform="rotate(170.4 105.2 31.3) scale(24.29823 1)"/><ellipse cx="178" cy="22" fill="#cecece" fill-opacity=".5" rx="14" ry="1"/></g></g></svg>