<svg xmlns="http://www.w3.org/2000/svg" viewBox="0 0 1200 444"><defs/><filter id="prefix__a"><feGaussianBlur stdDeviation="12"/></filter><rect width="100%" height="100%" fill="#666"/><g filter="url(#prefix__a)"><g transform="translate(2.3 2.3) scale(4.6875)"><circle cx="128" cy="60" r="154" fill="#fff" fill-opacity=".5"/><ellipse cx="139" cy="43" fill="#fff" fill-opacity=".5" rx="183" ry="93"/><circle r="1" fill="#fff" fill-opacity=".5" transform="matrix(170.45509 -10.39825 4.9183 80.6239 133.8 43)"/><circle cx="202" cy="58" r="211" fill="#fff" fill-opacity=".5"/><circle r="1" fill="#fff" fill-opacity=".5" transform="matrix(29.99987 41.55857 -206.7578 149.25219 192 93)"/><ellipse cx="57" cy="92" fill="#fff" fill-opacity=".5" rx="158" ry="23"/><path fill="#ebebeb" fill-opacity=".5" d="M53 15h90v55H53z"/><ellipse cx="15" cy="27" fill="#fff" fill-opacity=".5" rx="17" ry="92"/><path fill="#c4c4c4" fill-opacity=".5" d="M135 48h6v26h-6z"/><ellipse cx="76" cy="43" fill="#fff" fill-opacity=".5" rx="119" ry="3"/><ellipse cx="6" cy="69" fill="#e2e2e2" fill-opacity=".5" rx="2" ry="44"/><circle r="1" fill="#fff" fill-opacity=".5" transform="matrix(4.70334 -11.7748 68.6396 27.4175 216 0)"/><path fill="#bababa" fill-opacity=".5" d="M84 16h3v23h-3z"/><path fill="#e9e9e9" fill-opacity=".5" d="M111 30h82v10h-82z"/><ellipse cx="101" cy="52" fill="#d7d7d7" fill-opacity=".5" rx="39" ry="2"/><path fill="#d9d9d9" fill-opacity=".5" d="M25 27l18-9v13z"/><circle r="1" fill="#fff" fill-opacity=".5" transform="matrix(-49.47154 -4.38003 .61027 -6.89283 114 10.8)"/><ellipse cx="99" cy="93" fill="#fff" fill-opacity=".5" rx="64" ry="25"/><ellipse cx="93" cy="67" fill="#b5b5b5" fill-opacity=".5" rx="14" ry="1"/><path fill="none" stroke="#bbb" stroke-opacity=".5" stroke-width=".5" d="M110 17.9q-57.4-3-60.5-3"/><ellipse cx="191" cy="38" fill="#e6e6e6" fill-opacity=".5" rx="2" ry="50"/><path fill="#c6c6c6" fill-opacity=".5" d="M54 14h1v57h-1z"/><ellipse cx="32" cy="63" fill="#c5c5c5" fill-opacity=".5" rx="1" ry="22"/><ellipse cx="147" cy="43" fill="#cecece" fill-opacity=".5" rx="1" ry="35"/><ellipse cx="166" cy="35" fill="#d5d5d5" fill-opacity=".5" rx="1" ry="45"/><path fill="#d4d4d4" fill-opacity=".5" d="M113 18h36v3h-36z"/><path fill="#f9f9f9" fill-opacity=".5" d="M53 17h32v26H53z"/><path fill="#ebebeb" fill-opacity=".5" d="M205.4 23.7l10.9-10.6.4 11.2-32.2 14.1z"/><path fill="#fff" fill-opacity=".5" d="M36 91l14-43-16-11z"/><path fill="none" stroke="#d3d3d3" stroke-opacity=".5" stroke-width=".5" d="M68.4-.3l131 10.2"/><ellipse cx="224" cy="58" fill="#d3d3d3" fill-opacity=".5" rx="1" ry="25"/><path fill="#dbdbdb" fill-opacity=".5" d="M50 17h2v43h-2z"/><path fill="#fff" fill-opacity=".5" d="M115 1l82-17 50 26z"/><path fill="#fdfdfd" fill-opacity=".5" d="M123 26h11v36h-11z"/><path fill="#fff" fill-opacity=".5" d="M58.2 47.3L26.2 31l38.7 7.9 55.7 3.5z"/><ellipse cx="167" cy="32" fill="#ddd" fill-opacity=".5" rx="1" ry="49"/><path fill="#cecece" fill-opacity=".5" d="M43 15v-1l58 3v1z"/><path fill="#fff" fill-opacity=".5" d="M-5.8 15.1L-16-2.9l75.2-5.9-9 26.3z"/><ellipse cx="43" cy="6" fill="#c5c5c5" fill-opacity=".5" rx="1" ry="26"/><ellipse cx="94" cy="52" fill="#afafaf" fill-opacity=".5" rx="1" ry="8"/><path fill="#fff" fill-opacity=".5" d="M154 39v15l43-20zm-9.8-31.7l5.2 21.4 50.5-17.8-37.4-1.5z"/><path fill="#ebebeb" fill-opacity=".5" d="M238 27h4v66h-4z"/><path fill="#e0e0e0" fill-opacity=".5" d="M77 37h81v3H77z"/><ellipse cx="152" cy="62" fill="#d2d2d2" fill-opacity=".5" rx="1" ry="16"/><circle r="1" fill="#d2d2d2" fill-opacity=".5" transform="matrix(.03143 -.9995 14.64219 .46039 115.5 18.2)"/><circle r="1" fill="#eee" fill-opacity=".5" transform="rotate(88.3 -9.8 33.6) scale(45.43458 1)"/><path fill="#fff" fill-opacity=".5" d="M230.2.9l-56.5 92.6 3.3-53.7 36.8 51.3zM82 58h24v5H82z"/><ellipse cx="81" cy="21" fill="#c6c6c6" fill-opacity=".5" rx="11" ry="1"/><ellipse cx="222" cy="60" fill="#dcdcdc" fill-opacity=".5" rx="1" ry="26"/><path fill="#d6d6d6" fill-opacity=".5" d="M63 49h5v20h-5z"/><path fill="#fff" fill-opacity=".5" d="M141 7h3v87h-3z"/><path fill="#fdfdfd" fill-opacity=".5" d="M89 23h23v14H89z"/><circle r="1" fill="#ededed" fill-opacity=".5" transform="rotate(-176.2 51.4 3.7) scale(65.76669 1)"/><circle r="1" fill="#e9e9e9" fill-opacity=".5" transform="rotate(97.6 46.4 109.5) scale(1 28.58867)"/><path fill="#fff" fill-opacity=".5" d="M69 53h11v41H69z"/><path fill="#ddd" fill-opacity=".5" d="M118.6 5L6.2-16 85.9 1.7l70.2 3.8z"/><path fill="#c2c2c2" fill-opacity=".5" d="M117 18h2v18h-2z"/><ellipse cx="101" cy="34" fill="#d2d2d2" fill-opacity=".5" rx="12" ry="1"/><ellipse cx="2" cy="52" fill="#fff" fill-opacity=".5" rx="4" ry="82"/><path fill="#fff" fill-opacity=".5" d="M-11.4 52.4L28.5 5.6l90.7 5.5L-1.9-16z"/><ellipse cx="96" cy="22" fill="#ccc" fill-opacity=".5" rx="13" ry="1"/><ellipse cx="86" cy="48" fill="#fff" fill-opacity=".5" rx="21" ry="2"/><path fill="#ccc" fill-opacity=".5" d="M134 52h5v20h-5z"/><path fill="#dedede" fill-opacity=".5" d="M172 35h1v50h-1z"/><path fill="#fff" fill-opacity=".5" d="M105 20h32v3h-32z"/><ellipse cx="23" cy="20" fill="#dadada" fill-opacity=".5" rx="2" ry="7"/><path fill="#dadada" fill-opacity=".5" d="M33 26l-1-15 6 17z"/><path fill="#ebebeb" fill-opacity=".5" d="M247 26h2v68h-2z"/><path fill="#ededed" fill-opacity=".5" d="M197 5h2v82h-2z"/><path fill="#cfcfcf" fill-opacity=".5" d="M55 20h23v1H55z"/><path fill="#cdcdcd" fill-opacity=".5" d="M102 52.2l19.8-3.4.1 1-19.7 3.4z"/><path fill="#cacaca" fill-opacity=".5" d="M106 57h3v8h-3z"/><ellipse cx="16" cy="56" fill="#fff" fill-opacity=".5" rx="8" ry="64"/><path fill="#fff" fill-opacity=".5" d="M65 46h1v42h-1z"/><path fill="#dbdbdb" fill-opacity=".5" d="M141 6V5l44 3v1z"/><path fill="#e6e6e6" fill-opacity=".5" d="M55.4 77.5l.2 1-51 10-.2-1z"/><path fill="#d9d9d9" fill-opacity=".5" d="M82.4 68.5h-1l-1.8-33h1z"/><path fill="#fff" fill-opacity=".5" d="M55 71h82v23H55z"/><path fill="#e9e9e9" fill-opacity=".5" d="M156.4 43.7l-.1-1 85.3-10.4.1 1z"/><ellipse cx="81" cy="52" fill="#ccc" fill-opacity=".5" rx="23" ry="1"/><path fill="#fff" fill-opacity=".5" d="M163.3 20.6l-46.9-3.2.3-4 46.9 3.2z"/><ellipse cx="66" cy="33" fill="#d9d9d9" fill-opacity=".5" rx="25" ry="1"/><path fill="#ededed" fill-opacity=".5" d="M229.4 84l41.6 20.9V94.1l-73.8-12.4z"/><path fill="#dedede" fill-opacity=".5" d="M50 39h1v44h-1z"/><path fill="#fff" fill-opacity=".5" d="M45 11h5v56h-5z"/><ellipse cx="44" cy="69" fill="#e6e6e6" fill-opacity=".5" rx="1" ry="31"/><path fill="#c7c7c7" fill-opacity=".5" d="M121.5 54h1v14h-1z"/><ellipse cx="118" cy="23" fill="#ccc" fill-opacity=".5" rx="12" ry="1"/><path fill="#e7e7e7" fill-opacity=".5" d="M40.9 32.5l50.4 8-.2 1-50.4-8z"/><path fill="#d8d8d8" fill-opacity=".5" d="M173 22l4 13-4-2z"/><path fill="#e6e6e6" fill-opacity=".5" d="M139 21h2v49h-2z"/><path fill="#dfdfdf" fill-opacity=".5" d="M134.8 41.2l-.1-1 52.5-7.4.1 1z"/><path fill="#fff" fill-opacity=".5" d="M56 80l32 29-92-19z"/><circle cx="238" r="28" fill="#fff" fill-opacity=".5"/><ellipse cx="150" cy="53" fill="#fff" fill-opacity=".5" rx="2" ry="39"/><circle r="1" fill="#fff" fill-opacity=".5" transform="matrix(6.85336 .04633 -.33994 50.28723 255 42.7)"/><path fill="#fefefe" fill-opacity=".5" d="M128.6 41.1L94.3 43l25.1 4.3 62-9.6z"/><ellipse cx="192" cy="91" fill="#fff" fill-opacity=".5" rx="46" ry="8"/></g></g></svg>