<svg xmlns="http://www.w3.org/2000/svg" viewBox="0 0 1200 900"><defs/><filter id="a"><feGaussianBlur stdDeviation="12"/></filter><rect width="100%" height="100%" fill="#3b3f43"/><g filter="url(#a)"><g fill-opacity=".5" transform="translate(2.3 2.3) scale(4.6875)"><circle r="1" fill="#d2dadc" transform="matrix(-8.7309 -80.19723 253.50215 -27.59822 130.5 59.8)"/><circle r="1" fill="#fff29c" transform="matrix(11.93785 -34.67004 55.0504 18.95537 240.2 8.7)"/><circle r="1" fill="#271306" transform="rotate(41.6 41.4 253.7) scale(47.53576 17.79257)"/><ellipse cx="245" cy="91" fill="#f3fdff" rx="36" ry="34"/><circle r="1" fill="#6e7782" transform="matrix(-66.5701 -67.96164 38.20465 -37.4224 230 191)"/><ellipse cx="140" cy="91" fill="#fffff4" rx="14" ry="22"/><circle r="1" fill="#4a80ce" transform="matrix(-84.6766 -9.23479 4.3902 -40.25512 69.2 24.2)"/><circle r="1" fill="#2f2517" transform="rotate(-90.2 76.8 -2.3) scale(79.98062 4.92016)"/><path fill="#252309" d="M14.5 80.5v53h-29v-53z"/><path fill="#2e2f29" d="M151 122h89v16h-89z"/><circle r="1" fill="#ffd194" transform="rotate(31.5 112.7 405.2) scale(94.7635 29.46517)"/><circle r="1" fill="#8db8e9" transform="matrix(-13.26381 -15.26347 30.18199 -26.22786 119.8 46.5)"/><path fill="#2d1900" d="M153.9-3L79-12l81.9 33.8-14.1-10.4z"/><circle r="1" fill="#86825d" transform="matrix(15.42993 22.41044 -37.77656 26.00974 32.1 121.8)"/><circle r="1" fill="#524133" transform="rotate(-96.1 115.7 -58.6) scale(18.46253 35.94953)"/><circle r="1" fill="#7c91b9" transform="rotate(-91.8 197.4 -39.8) scale(15.73262 32.96542)"/><path fill="#97bed4" d="M0 53h76v23H0z"/><path fill="#c66337" d="M162.5 69.9l-17.9 6.2-14.9-8.5 20.9-26.8z"/><path fill="#2a2d22" d="M45 73h7v55h-7z"/><ellipse cx="114" cy="90" fill="#b3d4ce" rx="10" ry="29"/><path fill="#bbcacf" d="M160 64h16v55h-16z"/><ellipse cx="85" cy="115" fill="#997b63" rx="3" ry="188"/><path fill="#ffffe6" d="M140 74h14v38h-14z"/><path fill="#6e695f" d="M190 56h17v88h-17z"/><path fill="#1e2527" d="M0 154h82v38H0z"/><path fill="#bfc7cf" d="M211 64h44v60h-44z"/><path fill="#2d3339" d="M94 137h64v55H94z"/><path fill="#4e4237" d="M204 75l34-25-118-66z"/><path fill="#b7dcd4" d="M89 77h11v36H89z"/><path fill="#bfb6c8" d="M161 7l40 18-50-41z"/><path fill="#a89b82" d="M142 131l-2-45-48 54z"/><path fill="#2c251d" d="M155 56h3v132h-3z"/><path fill="#fffffb" d="M148.1 77.7l-16.7 9.6-1.9 36.3-2.6-47z"/><circle r="1" fill="#6a707a" transform="rotate(-2.7 3123.2 -1389) scale(69.353 5.26041)"/><circle r="1" fill="#476a9c" transform="matrix(41.56611 7.78064 -4.30785 23.0136 36.2 1)"/><ellipse cx="102" cy="96" fill="#373315" rx="2" ry="28"/><path fill="#2b2921" d="M74 93h8v66h-8z"/><path fill="#adae82" d="M16 71h24v62H16z"/><path fill="#66707c" d="M158 131l2 58 76-25z"/><circle r="1" fill="#514944" transform="rotate(87.6 54.9 123.6) scale(71.86286 1.6599)"/><ellipse cx="184" cy="91" fill="#bbc9cd" rx="4" ry="29"/><path fill="#222829" d="M215.7 141.9l-7.2-20.7 27.7 4.1-.8 16.5z"/><path fill="#85667b" d="M256.3 59l-54.6-42-43.6-26.1L196 17.8z"/><path fill="#637349" d="M51 74h18v29H51z"/><path fill="#352924" d="M205 31L140-6l46 46z"/><circle r="1" fill="#ffd092" transform="matrix(5.06959 -17.1633 45.99811 13.58663 214.8 0)"/><path fill="#816e62" d="M143.8 66.8l105-4.9L271 42.1l-8.3-.2z"/><path fill="#6288b7" d="M0 18h78v39H0z"/><ellipse cx="86" cy="184" fill="#807773" rx="4" ry="103"/><path fill="#857c7d" d="M0 126h79v21H0z"/><path fill="#a1a7ac" d="M245.5 119.5l11.4 5.4-52-2.3-2.7-52.7z"/><path fill="#3c2d21" d="M199 54h3v63h-3z"/><ellipse cx="79" cy="71" fill="#25241f" rx="2" ry="149"/><path fill="#bbaea4" d="M157 18h2v58h-2z"/><path fill="#fff9dd" d="M145 76h8v39h-8z"/><path fill="#272016" d="M174.8 207h42.1l-28-21.9-7.3-6.7z"/><circle r="1" fill="#444f58" transform="matrix(-4.17238 -10.3687 28.2603 -11.37198 124.7 149)"/><path fill="#4d615f" d="M136 89h4v18h-4z"/><path fill="#393d39" d="M-10 78.7l28 49.4-20.3 4.3 18.8-39.8z"/><circle cx="232" cy="25" r="7" fill="#a7b9e6"/><ellipse cx="189" cy="76" fill="#31241b" rx="1" ry="46"/><path fill="#967c58" d="M156.8 117l16-.2-49.9 3 29.7 16.7z"/><ellipse cx="71" cy="81" fill="#abcbd1" rx="2" ry="36"/><circle r="1" fill="#232226" transform="rotate(-14.5 788.7 -403.1) scale(32.912 11.49474)"/><path fill="#d4b1bb" d="M240 39v12l-23-14z"/><circle r="1" fill="#628cca" transform="matrix(23.1884 -7.81266 5.27264 15.64947 111.7 25)"/><path fill="#2a1a0f" d="M202.2 141l-2 8.1 15.1-1.7-1.2-4z"/><path fill="#ffc286" d="M230.5 40.1l15.1 5.3 25.4-1.8-13.5-47.2z"/><path fill="#474527" d="M124 74h3v39h-3z"/><path fill="#897d72" d="M82 0h6v118h-6z"/><path fill="#aec3c9" d="M14 55h24v20H14z"/><path fill="#534e47" d="M154 38h59v24h-59z"/><path fill="#fffff7" d="M128 79h4v32h-4z"/><circle r="1" fill="#a699b9" transform="matrix(1.97572 -3.09006 26.4059 16.8834 202.4 26)"/><path fill="#cfd7d9" d="M262.7 57.7l3.4 32.8-36.8 3.8-3.4-32.8z"/><path fill="#6a8db7" d="M80.1 78.3l-7-62.7-30.9 67.6 8.2-52.6z"/><path fill="#7c8081" d="M191 89h9v60h-9z"/><circle r="1" fill="#625b49" transform="matrix(-.09427 .99555 -57.44774 -5.44003 128.5 122.3)"/><ellipse cx="177" cy="100" fill="#484542" rx="2" ry="66"/><circle r="1" fill="#6d8aaf" transform="rotate(-162.3 5 32.2) scale(15.00014 21.70572)"/><path fill="#929296" d="M244 207l18-7-16-26z"/><path fill="#35332b" d="M74 73h8v30h-8z"/><path fill="#bf7959" d="M154 49l-9 24-28 1z"/><path fill="#4a493c" d="M216 167l27 9-24 19z"/><path fill="#b4b3bc" d="M143.5-8.5L193 23.6l-.5.9L143-7.6z"/><path fill="#79746f" d="M158 174h20v18h-20z"/><path fill="#b5bdbd" d="M179 67h7v29h-7z"/><ellipse cx="78" cy="185" fill="#181816" rx="5" ry="43"/><path fill="#91aed0" d="M150.8 43.2l-29.7 31.3-35.6-6 68.9-35.6z"/><path fill="#7c543e" d="M247 46l-14 9 38-6z"/><path fill="#6a6b65" d="M205 58h5v75h-5z"/><path fill="#15181e" d="M-16 178l40-11-19 40z"/><path fill="#2d373d" d="M160.6 133.2l-.2-10 27-.4.2 10z"/><path fill="#25270b" d="M260 189l-13-18 20 8z"/><ellipse cx="38" cy="152" fill="#485660" rx="36" ry="3"/><circle r="1" fill="#88807b" transform="matrix(-.64675 -3.89058 48.06962 -7.9909 14.5 146.5)"/><path fill="#8b936b" d="M24.2 70.7l33 46.9L39.9 106l8.3-31.5z"/><path fill="#f6e9cd" d="M141 79h14v35h-14z"/><path fill="#968376" d="M158 101h3v65h-3z"/><ellipse cx="224" cy="6" fill="#ffce93" rx="32" ry="17"/></g></g></svg>