<svg xmlns="http://www.w3.org/2000/svg" viewBox="0 0 1200 588"><defs/><filter id="a"><feGaussianBlur stdDeviation="12"/></filter><rect width="100%" height="100%" fill="#54544c"/><g filter="url(#a)"><g fill-opacity=".5" transform="translate(2.3 2.3) scale(4.6875)"><circle cx="161" cy="48" r="180" fill="#fff"/><circle r="1" fill="#fff" transform="matrix(1.15288 -46.69927 254.92233 6.29334 95.5 33)"/><circle r="1" fill="#fff" transform="matrix(-254.99992 .20774 -.03873 -47.54504 108 28.8)"/><ellipse cx="65" cy="15" fill="#fff" rx="255" ry="27"/><path fill="#8aa8c3" d="M104.7 53l51 1-.4 25-51-1z"/><path fill="#988e8c" d="M56 58l9.3-24.4L82 40.1l-9.4 24.3z"/><ellipse cx="211" cy="59" fill="#978b89" rx="14" ry="9"/><path fill="#fff" d="M71.3 82.8l-35-.6.4-19 35 .6zM271-5L128-16l126 93z"/><circle r="1" fill="#fff" transform="matrix(-208.39074 39.8917 -4.84197 -25.29405 46.2 18.3)"/><ellipse cx="185" cy="78" fill="#a3a1a1" rx="115" ry="4"/><path fill="#bbbab8" d="M78 43h109v8H78z"/><path fill="#4e88c3" d="M104 54h46v6h-46z"/><path fill="#f5f2ee" d="M108.1 76l63.2-.5-31.7-10.2-47.3 7z"/><path fill="#fff" d="M224 0h32v74h-32z"/><path fill="#b8b0ad" d="M164.2 31.1l19.6 7.5-4 10.3-19.6-7.5z"/><path fill="#c1b8b9" d="M4 55h33v11H4z"/><path fill="#fff" d="M55 70l5-86-76 26z"/><path fill="#68686c" d="M207 116h45v4h-45z"/><circle r="1" fill="#fff" transform="matrix(-46.0358 -13.82205 7.6722 -25.5531 122 15.1)"/><path fill="#cbc8c5" d="M104 41L73 60l-5-29z"/><path fill="#fff" d="M0 69h38v6H0z"/><ellipse cx="132" cy="62" fill="#fffffb" rx="33" ry="2"/><path fill="#bfb7b6" d="M197.3 69.7l-6.9-11 26.3-16.4 6.9 11z"/><path fill="#fff" d="M49 74h25v8H49z"/><ellipse cx="234" cy="70" fill="#fff" rx="37" ry="5"/><path fill="#acacb0" d="M-16 134.8L271 112l-63.5-39.7-21.8.2z"/><path fill="#6191be" d="M141 64h12v6h-12z"/><path fill="#b0a6a4" d="M75.3 32.8l-15.2 9.7-3 20.9 10.4-2.9z"/><path fill="#fff" d="M190.5 68h-31V52h31zM188 0h68v45h-68zM85.9-14.8L13.8 63.3l12-79 14 95.3z"/><path fill="#ababad" d="M-3 140l181-64-100-1z"/><path fill="#b3ada9" d="M99.8 36.4l-3.3-.4-1.1 11 7.7-8.2z"/><path fill="#c4bebc" d="M6 47h7v24H6z"/><path fill="#fff" d="M91 42L10-12l131-4z"/><circle r="1" fill="#dfdfe0" transform="matrix(-2.75422 -.62172 5.5589 -24.62592 186.2 11)"/><path fill="#fefefe" d="M43.1 71.1l27.7-11.9 24.7 8.9-14.7 3.8z"/><ellipse cx="214" cy="56" fill="#9e9594" rx="4" ry="9"/><path fill="#fbf7f3" d="M143.8 68.7l-11.1 2.9-13.5 4.2-1.1-9.6z"/><ellipse cx="232" cy="119" fill="#bbbbbc" rx="25" ry="1"/><path fill="#a9a9a8" d="M208 71l-20 1 42 45z"/><circle r="1" fill="#fff" transform="matrix(37.09694 -20.23431 13.1796 24.16306 139.8 13.2)"/><path fill="#bfb6b5" d="M160 35h14v9h-14z"/><path fill="#6797c6" d="M143 55h12v6h-12z"/><path fill="#fff" d="M-16 99.4l23.9-51 173.4-43L1.7-16z"/><path fill="#7ba3ca" d="M104 65.1l16-.2v4l-16 .2z"/><path fill="#a9aaaa" d="M74 75h31v8H74z"/><path fill="#b5b0ae" d="M57 45h16v19H57z"/><path fill="#fff" d="M227 0h29v74h-29z"/><path fill="#ececed" d="M155 62h33v14h-33z"/><path fill="#dfe1e0" d="M49 60h44v4H49z"/><path fill="#dcdddc" d="M73 46h14v18H73z"/><path fill="#cdc6c7" d="M21.9 67.4l3.7-18 8.6 2.6 4.4 16z"/><path fill="#fff" d="M121.2 50.9l-20.6 5.3-12.2 8 .5-10.2zM15.7-16L-9.9 1.5l52 60.1 18-4.7z"/><path fill="#d3cecd" d="M192 49h10v19h-10z"/><path fill="silver" d="M48.3 61.5h1l-1.6 15h-1z"/><path fill="#d1cecb" d="M220 48h6v16h-6z"/><path fill="#acacb0" d="M0 75h37v50H0z"/><path fill="#d4d5d5" d="M52 72h52v2H52z"/><ellipse cx="187" cy="22" fill="#d2d2d2" rx="1" ry="60"/><path fill="#fefefd" d="M195.8 34.2L190.6-.7l18.5 55-96.7-49z"/><path fill="#ababab" d="M79 76h177v41H79z"/><path fill="#fff" d="M155 53h29v7h-29z"/><path fill="#616161" d="M207.5 118.4l35-1.8v1l-35 1.8z"/><path fill="#b8b3b1" d="M223.9 67.6l-15.7-4.3 6.2-8.7 13.5 5.4z"/><path fill="#ded9d8" d="M214 41l-9 4 4 13z"/><ellipse cy="73" fill="#fff" rx="41" ry="2"/><path fill="#fff" d="M15 15h6v48h-6z"/><ellipse cx="106" cy="61" fill="#fffefa" rx="57" ry="1"/><ellipse cx="149" cy="60" fill="#d8dddf" rx="25" ry="1"/><path fill="#c0b8b6" d="M85 39l-19-6-11 18z"/><ellipse cx="128" cy="64" fill="#86aaca" rx="24" ry="1"/><path fill="#f5f3f0" d="M97 71h76v3H97z"/><ellipse cx="112" cy="69" fill="#6a96c0" rx="6" ry="1"/><path fill="#d8dada" d="M210.9 63.7l-58.2 1.6-3.9 17.4 1.5-20.7z"/><path fill="#fff" d="M96 52h61v2H96z"/><path fill="#cec9c9" d="M9.4 70.7l8.3-4.3-6.8-9.5-13.3 5.2z"/><path fill="#fff" d="M87 52h17v7H87z"/><ellipse cx="120" cy="61" fill="#fbf1e2" rx="1" ry="9"/><path fill="#fff" d="M107 44L76-16l104 40zm53 20h25v6h-25z"/><ellipse cx="125" cy="45" fill="#bbbebc" rx="45" ry="1"/><path fill="#d8d5d4" d="M118 74h61v2h-61z"/><path fill="#fff" d="M188 39h3v32h-3z"/><path fill="#edebe9" d="M118.3 65l12 1-.6 9-12-1z"/><ellipse cx="110" cy="50" fill="#bbbcb9" rx="55" ry="1"/><path fill="#fff" d="M15.8 67.3l76.1 1.1-98.1 7.8 30.8-9.9z"/><path fill="#a29b99" d="M73 53l-12 7 10-13z"/><circle r="1" fill="#efebe1" transform="matrix(.07522 6.45099 -.99993 .01166 109 69.3)"/><ellipse cx="128" cy="44" fill="#e2e5e5" rx="55" ry="1"/><path fill="#d6d5d4" d="M72 74h58v2H72z"/><ellipse cx="57" cy="93" fill="#acacae" rx="31" ry="12"/><path fill="#fff" d="M85.7 47.5L99.6-16-16 48.4l119.7-20.5z"/><path fill="#ababab" d="M188 72.6l51.5 3.9-12.1 45.2 12.2-18.2z"/><path fill="#fefefe" d="M192.3 70.2l-3.8-1.4 60.5-3.7-2.3 10z"/><path fill="#fff" d="M-16 49l21 8 4-33z"/><ellipse cx="182" cy="19" fill="#dedede" rx="3" ry="11"/><path fill="#b3b3b3" d="M72.5 61.9v1l-23-.8v-1z"/></g></g></svg>