<svg xmlns="http://www.w3.org/2000/svg" viewBox="0 0 1200 756"><defs/><filter id="a"><feGaussianBlur stdDeviation="12"/></filter><rect width="100%" height="100%" fill="#374029"/><g filter="url(#a)"><g fill-opacity=".5" transform="translate(2.3 2.3) scale(4.6875)"><circle cx="125" cy="84" r="155" fill="#fff"/><ellipse cx="108" cy="78" fill="#fff" rx="184" ry="145"/><ellipse cx="203" cy="148" fill="#000100" rx="18" ry="14"/><circle r="1" fill="#edffdc" transform="rotate(57.5 19.6 132.8) scale(117.81388 254.99999)"/><path d="M198 65h13v18h-13z"/><path fill="#020e00" d="M209 127h17v8h-17z"/><ellipse cx="3" cy="112" fill="#fbffff" rx="22" ry="82"/><circle r="1" fill="#e5ffdd" transform="matrix(-15.4573 -138.54902 22.2011 -2.47688 233.5 59.8)"/><path fill="#f0ffe6" d="M210 145L190 36l-15 79z"/><circle r="1" fill="#dafcce" transform="rotate(78.5 7.8 97.8) scale(131.50162 90.19627)"/><path fill="#c6dbba" d="M84 38h58v86H84z"/><path fill="#567642" d="M226.3 124.6l-12.1-4.4-5.6 55.8 13.5-69.4z"/><path fill="#4ea915" d="M251 86h2v63h-2z"/><ellipse cx="131" cy="65" fill="#edffee" rx="6" ry="160"/><circle cx="206" cy="77" r="8" fill="#373638"/><ellipse cx="172" cy="87" fill="#9bb09a" rx="4" ry="25"/><ellipse cy="119" fill="#fff" rx="15" ry="65"/><circle r="1" fill="#e3ffd4" transform="matrix(-6.86577 27.0826 -129.73842 -32.89028 189.5 32.6)"/><path fill="#e7fddb" d="M145 113l59 55-192-11z"/><ellipse cx="204" cy="147" fill="#3a3b3b" rx="22" ry="4"/><ellipse cx="228" fill="#c7f4ff" rx="22" ry="18"/><path fill="#90b86e" d="M137 61h5v50h-5z"/><path fill="#f1fde5" d="M215 139l35-37v65z"/><path fill="#037900" d="M244 91h1v23h-1z"/><path fill="#4a4b4a" d="M183.6 176l7.8-18.4 30.6-17.3-9.9 32.9z"/><circle r="1" fill="#eaffe9" transform="matrix(.3252 -6.52449 72.48617 3.61285 75.7 80.1)"/><path fill="#ebffd9" d="M240.6 51.5L180 121.9l28.7 22.2-1.7-27.9z"/><path fill="#96b381" d="M166 107.2l1.6 4.8-25.6 8.8-1.6-4.8z"/><path fill="#c2d6ac" d="M33 46h39v21H33z"/><path fill="#53ab44" d="M113 94l-6.6 10.1-3.3-2.2 6.5-10z"/><path fill="#363236" d="M208 126h17v6h-17z"/><path fill="#319500" d="M233 126h1v25h-1z"/><path fill="#71b944" d="M232 84h2v31h-2z"/><circle r="1" fill="#f0ffe0" transform="matrix(30.087 -4.98087 2.38337 14.39678 245 160.7)"/><path fill="#c3dbab" d="M34 95h36v20H34z"/><path fill="#e1ffdf" d="M34-10l2 108-48-64z"/><ellipse cx="20" cy="136" fill="#c4f5ff" rx="4" ry="82"/><path fill="#61ab34" d="M180 146l1-10 5 19z"/><path fill="#413f42" d="M188 136l1 17 26 4z"/><ellipse cx="229" cy="117" fill="#fff" rx="2" ry="59"/><path fill="#f6ffed" d="M263.7 77.9l-28.3 14.7-47.3-5 38.6-7.1z"/><path fill="#56ac48" d="M98 63l-3 9 7-1z"/><path fill="#e2f7f9" d="M83 40L68 91l13 52z"/><path fill="#1a9c00" d="M215.5 121.4l.2-1 12.8 2.2-.2 1z"/><circle r="1" fill="#b3d19e" transform="matrix(-.83995 2.35886 -20.08665 -7.15254 158 56.6)"/><path fill="#ebffe4" d="M181 87h40v34h-40z"/><path fill="#e1f1f6" d="M72.7 23l2.8-8.5 99.8 32.4-2.8 8.6z"/><path fill="#e6fdd7" d="M210 145.3l-7.1-60.8-16.7 22.3-19.6 1.9z"/><ellipse cx="4" cy="106" fill="#fff" rx="12" ry="47"/><path fill="#cad7bb" d="M124.9 116.3L92.1 88.1 83 132.2l3.5 1z"/><path fill="#edffd6" d="M203 159h6v2h-6z"/><circle r="1" fill="#c0e69f" transform="matrix(19.83555 .4155 -.05244 2.50368 51.3 139.8)"/><path fill="#f9fbf6" d="M159.8 145.8l31.8 9.3-1.2 4.1-24.5-4.6z"/><path fill="#ffffea" d="M204 140h4v5h-4z"/><circle r="1" fill="#fff9ff" transform="matrix(1.9538 .04259 -.79823 36.62177 247.3 116.3)"/><path fill="#413d44" d="M210 134h5v27h-5z"/><ellipse cx="219" cy="72" fill="#e4ffcf" rx="8" ry="9"/><ellipse cx="238" cy="129" fill="#fff" rx="2" ry="55"/><path fill="#c9d4ba" d="M88 34h25v33H88z"/><path fill="#fffeff" d="M197.4 133.3l-13.5 8.5 4.1-31.7.4 19.6z"/><path fill="#cbedab" d="M70.9 19.4l7 5.2-46.3 1.1 14.1-8.4z"/><ellipse cx="139" cy="56" fill="#97c175" rx="3" ry="6"/><path fill="#d2f2ff" d="M125.9 123.3l.2-4.6-52.6 18.7 16.2-.7z"/><circle r="1" fill="#e0fdcd" transform="rotate(23.8 60.9 332.1) scale(165.6308 25.2565)"/><path fill="#d0f5ff" d="M132 40h4v91h-4z"/><ellipse cx="183" cy="78" fill="#c6f2ff" rx="2" ry="27"/><path fill="#a5cc8a" d="M174 96l-.4 1L140 84l.4-1z"/><circle r="1" fill="#d4f5ff" transform="matrix(19.47205 -.8212 .3995 9.47268 230.1 6.8)"/><path fill="#4e4d4e" d="M197.2 138.2l-12.4 2.8 13.2 35 9.4-25.9z"/><circle r="1" fill="#e3ffcb" transform="matrix(-12.6605 7.51725 -24.94758 -42.01652 .9 12.8)"/><ellipse cx="217" cy="124" fill="#d6f7bf" rx="33" ry="2"/><path fill="#fff" d="M237.9 164.4l-9.6-4.6-.3-55.4 5.4 40.8z"/><ellipse cx="224" cy="137" fill="#95c675" rx="2" ry="16"/><ellipse cx="205" cy="71" fill="#413f43" rx="7" ry="6"/><path fill="#b8df99" d="M65 105h4v36h-4z"/><path fill="#6bb541" d="M233 144h23v1h-23z"/><ellipse cx="26" cy="15" fill="#fdf5fe" rx="59" ry="2"/><circle r="1" fill="#d6f6ff" transform="matrix(-2.60407 -.039 .45253 -30.20978 82.4 52)"/><path fill="#aad68c" d="M139.7 61.4l.5 20.5 34.2-13.2-30.7 9.9z"/><path fill="#ebffd6" d="M149.7 113.6L143 92.7l13.4-4.3 6.8 20.9z"/><path fill="#c9f1fe" d="M-4.8 43.2l5-5 22.6 22.6-5 5z"/><path fill="#fffaff" d="M27 181.5h-1l5-95h1z"/><path fill="#c0e6a0" d="M67 20h5v27h-5z"/><ellipse cx="232" cy="100" fill="#469c0e" rx="1" ry="9"/><path fill="#92d762" d="M140 55h2v62h-2z"/><path fill="#6fb846" d="M221.9 110.5l-1-.1 1.2-9 1 .2z"/><path fill="#fff5ff" d="M110.2 135.6l-.3-1 118-38.2.2 1z"/><ellipse cx="234" cy="133" fill="#83b564" rx="1" ry="12"/><path fill="#fbffe7" d="M215.2 134.3l5-.6.6 6-5 .6z"/><ellipse cy="9" fill="#aada8a" rx="17" ry="2"/><circle r="1" fill="#fcf5f4" transform="rotate(1.3 -3542 3228.8) scale(1 199.1868)"/><path fill="#ddfebf" d="M18.5 81l-3 86h-2l3-86z"/><ellipse cx="102" cy="82" fill="#ebf7d7" rx="43" ry="5"/><path fill="#4c4c4c" d="M226 146l-16 11-25-8z"/><path fill="#cbf6ff" d="M47 86l20-6-18-6z"/><path fill="#e1f9ce" d="M223 39h3v82h-3z"/><path fill="#defacf" d="M270.4 131.6l-54.1 39.8-.7-19.4 8.5 24z"/><path fill="#e3fbd3" d="M226.4 66.1l-21.5 56.5-12.9 18-4-29.5z"/><path fill="#6cba5d" d="M108 91h4v11h-4z"/><path fill="#269f00" d="M212.2 123l-.3-1 3.9-1 .3 1z"/></g></g></svg>