<svg xmlns="http://www.w3.org/2000/svg" viewBox="0 0 1200 900"><defs/><filter id="a"><feGaussianBlur stdDeviation="12"/></filter><rect width="100%" height="100%" fill="#475838"/><g filter="url(#a)"><g fill-opacity=".5" transform="translate(2.3 2.3) scale(4.6875)"><circle r="1" fill="#6f9454" transform="rotate(64.7 4 157.7) scale(99.49417 157.18381)"/><path fill="#cfc0c9" d="M132.5 114.5l-50.1 17.2-4.9-14.2 50.1-17.2z"/><circle r="1" fill="#bdb3b7" transform="rotate(169.3 91 53.7) scale(18.59574 8.42186)"/><path fill="#171622" d="M9-9l-25 36L122-3z"/><circle r="1" fill="#436b2d" transform="rotate(-106.8 80 44.5) scale(92.82606 27.52762)"/><circle r="1" fill="#bcb3a1" transform="rotate(164.5 39.1 52.6) scale(21.47222 5.44025)"/><path fill="#a492b9" d="M26.5 133l5.9 16-33 12-5.8-16z"/><path fill="#9d919d" d="M-12.4 124.3l43.8-8.1 1-11.6-35.5 7.8z"/><path fill="#beb3a1" d="M146.3 82.8l26.3-11.4-8.7-6.1-20.8 7.4z"/><ellipse cx="247" cy="68" fill="#b4a6b9" rx="13" ry="6"/><ellipse cx="110" cy="37" fill="#758f56" rx="42" ry="23"/><circle r="1" fill="#486834" transform="matrix(41.36715 -36.85678 29.41324 33.0127 250 121.1)"/><ellipse cx="22" cy="186" fill="#355429" rx="42" ry="25"/><path fill="#27591d" d="M37.8 132.6l-36 8.4-3.6-15.6 36-8.4z"/><path fill="#b9ae8b" d="M217.3 61.2l4.4-3.8-1.5-3.7-26.1 4.1z"/><path fill="#aeab9b" d="M83.6 61.9l1.3 3.8L60.4 74 59 70.3z"/><circle r="1" fill="#5d8149" transform="rotate(152.7 20.6 21.9) scale(30.24471 13.74021)"/><path fill="#727e52" d="M158 105L36 148l110-2z"/><circle r="1" fill="#57515a" transform="matrix(123.48325 -6.60929 .39333 7.34864 195.2 0)"/><circle r="1" fill="#42772b" transform="rotate(104.7 75.2 116) scale(8.07047 51.76718)"/><path fill="#4f7f33" d="M158 41l-34 63-43-45z"/><ellipse cy="102" fill="#376a2c" rx="126" ry="5"/><path fill="#96978a" d="M22.1 84.2L.8 87.7 25 76l11.3 4.6z"/><path fill="#3e3245" d="M34 60l-45 8-4-73z"/><circle r="1" fill="#315c2a" transform="matrix(-81.66832 33.66125 -12.28433 -29.80403 242.6 191)"/><circle r="1" fill="#517637" transform="matrix(29.94994 -16.17082 6.39378 11.8419 192.2 109)"/><path fill="#c8b68f" d="M239 44h17v4h-17z"/><path fill="#3b7230" d="M184 49l45 7 40-32z"/><circle r="1" fill="#71835e" transform="matrix(-22.8212 15.45112 -9.4957 -14.02509 158 6)"/><path fill="#9e977b" d="M108.6 54.3l.7.8 29.1-2.6-23.9 9.2z"/><path fill="#55673f" d="M149 207L33 189l204-35z"/><path fill="#4a4f45" d="M203.9 26.1l-48.9 9L209.9-16h-39.5z"/><path fill="#c8c6cf" d="M135.4 114.2l-7.3-3.7 15-3.6-45.4 17.2z"/><circle r="1" fill="#386c2b" transform="matrix(-1.31859 -4.68855 73.76434 -20.74522 1.6 79.4)"/><path fill="#cfc490" d="M107.4 87.4l-31.7 9-1.1-3.8 31.7-9z"/><path fill="#bcaf97" d="M154.8 46l15.5-3.9 1 4-15.6 3.8z"/><path fill="#3d7030" d="M198.3 68.4l91.5-35 4 10.2-91.6 35z"/><path fill="#5d753f" d="M107.6 150.7l-22.3 16.9-29-38.3 22.4-16.9z"/><path fill="#ada798" d="M164.6 89.6l15.2-5.3 28.5-.8-45 10.8z"/><path fill="#ccc9e0" d="M95 117l-3 11-6-13z"/><circle r="1" fill="#1b3815" transform="matrix(-18.48551 4.95241 -3.97612 -14.84135 0 191)"/><path fill="#426f30" d="M-4 82l61 46 41-20z"/><ellipse cx="153" cy="102" fill="#5f7f3e" rx="30" ry="11"/><circle r="1" fill="#447931" transform="rotate(68.9 53.8 157.5) scale(12.29971 16.77189)"/><path fill="#4e782f" d="M69 36l17 27-56-1z"/><path fill="#30592b" d="M6.5 99.6l-16.7 18.1 39.4-15.9L15.8 95z"/><path fill="#a59e90" d="M194 36h13v4h-13z"/><ellipse cx="42" cy="164" fill="#506a39" rx="15" ry="36"/><path fill="#b4b199" d="M214.9 87l-40.6 1.5 22-10.1 4.9 11.4z"/><path fill="#292f21" d="M126 12v-24h6v24z"/><circle r="1" fill="#4d7235" transform="matrix(61.41505 -14.17878 .59928 2.59577 139.2 38.4)"/><path fill="#efe195" d="M147.8 73.3l18.1-5.6.3 1-18.1 5.6z"/><path fill="#575968" d="M-7.7 158.9l-8.3 6.8 40.3-19H9.6z"/><path fill="#ac9d94" d="M137.2 43.5L85 57.5l-.2-1 52.2-14z"/><circle r="1" fill="#bcbacf" transform="rotate(-20.7 347.1 -482.4) scale(16.07845 1)"/><path fill="#577c3a" d="M158 110l12-37-78 23z"/><path fill="#3e393c" d="M183 92.3l-1.5 2.6-8.6-5.2 1.6-2.6z"/><path fill="#434b47" d="M71-16l2 36 83-36z"/><path fill="#839165" d="M128 100l7 16 9-18z"/><path fill="#6b6d52" d="M110.7 164.2l12.5 22.1 28.3-14.3 39.5-14.9z"/><path fill="#ead985" d="M205 59l-5-2 15-5z"/><path fill="#cbcfdb" d="M93.1 125.6l33.5-10.2.3 1-33.5 10.2z"/><path fill="#aaa584" d="M34.7 106l-8.1 3.3-22 7.7-20.6-1.4z"/><path fill="#7b7590" d="M234 48h20v3h-20z"/><path fill="#7a8058" d="M96 136l62-5-33-15z"/><path fill="#777f80" d="M227 70h15v4h-15z"/><circle r="1" fill="#acb5c8" transform="rotate(163.4 -11.2 78.9) scale(30.13862 1)"/><path fill="#222f1e" d="M17.9 10.2l10 18.6L44.2 10-6.1-11.1z"/><path fill="#b3b7d0" d="M75.8 93.4l5 7.6-2.6 1.6-5-7.6z"/><path fill="#4b7933" d="M21.8 122.5l63-35 118.8-32.9L72.3 70z"/><path fill="#858889" d="M175.9 68.4l-1.4 4.5L149 80l-4.8-4.7z"/><path fill="#6e8365" d="M222.8 24.6l9.3-2 38.9-3-47.2 16.2z"/><path fill="#46663d" d="M265.3 16.2L209-14.6l23.3 2.6-7.3 32.9z"/><path fill="#e5e1f5" d="M130.5 115.6l-5.3-2.8 2.3-4.4 5.3 2.8z"/><path fill="#b5b5c6" d="M26 148.3l-1-.4 5-14.2 1 .4z"/><path fill="#ada386" d="M100.6 41.8l.2 1-25.4 5.4-.2-1z"/><path fill="#979f6a" d="M173 32h13v4h-13z"/><path fill="#4d783c" d="M43 15.5v33H33v-33z"/><path fill="#36382f" d="M182.6 16.6l1.3-32-3-.6 7.9 23.2z"/><path fill="#32502a" d="M225 141l33 17 3 49z"/><path fill="#467134" d="M91.4 96.2L3 125.3l38.4 6.6 94.4-37.4z"/><circle r="1" fill="#262922" transform="rotate(164.3 117 16.1) scale(5.56981 3.83076)"/><path fill="#74707f" d="M105 89L80 99l9-10z"/><path fill="#b1a58c" d="M89.2 113.2l23-7 2.6 8.6-23 7z"/><ellipse cx="66" cy="131" fill="#617c3f" rx="25" ry="10"/><circle r="1" fill="#87899c" transform="matrix(.24136 .97044 -29.0305 7.2203 1.8 121.7)"/><path fill="#232f2c" d="M162.3-3.5l-58.2 7.2L98.4-16l58 4.7z"/><path fill="#607043" d="M179 137h50v20h-50z"/><path fill="#c8b78b" d="M210 28.4l-9.8 2.1-.2-1 9.8-2z"/><path fill="#65754d" d="M197 183l3-24-56 1z"/><path fill="#908f81" d="M28.3 77.2l1.4 4.8-22 6.8L6.3 84z"/><path fill="#676176" d="M107 112l11 2-19 6z"/><path fill="#4c7035" d="M201 120l-59-17 50 39z"/><path fill="#aaa377" d="M125 58l5-6-18 3z"/><path fill="#39652b" d="M.3 97.1l8.1-35 30.8 13.7-27.8 1.3z"/><path fill="#a9a88a" d="M250.3 61.9l.8.7-4.5 8.1-14.9-3.3z"/><circle r="1" fill="#496538" transform="rotate(34.1 -162.9 453.1) scale(24.47221 13.77299)"/><path fill="#5a525f" d="M202 85.6l.4 1-20.5 7.8-.3-1z"/><path fill="#65784b" d="M186 104h70v8h-70z"/><path fill="#a6a286" d="M141 40h14v3h-14z"/></g></g></svg>