<svg xmlns="http://www.w3.org/2000/svg" viewBox="0 0 1200 900"><defs/><filter id="a"><feGaussianBlur stdDeviation="12"/></filter><rect width="100%" height="100%" fill="#4c3e37"/><g filter="url(#a)"><g fill-opacity=".5" transform="translate(2.3 2.3) scale(4.6875)"><ellipse cx="140" cy="19" fill="#fff" rx="118" ry="75"/><circle r="1" fill="#ccc7ad" transform="rotate(-64.9 144.3 55.9) scale(52.90245 153.03678)"/><circle r="1" fill="#fefced" transform="matrix(-33.61157 14.18754 -22.99965 -54.48824 148.5 50.2)"/><path fill="#fff" d="M35 83l11 20-62 26z"/><circle r="1" fill="#ffffb1" transform="matrix(-9.25097 18.00044 -71.22681 -36.6056 23 182.5)"/><circle r="1" fill="#fff" transform="matrix(23.99 10.69581 -11.00117 24.6749 183.2 8)"/><path fill="#392d28" d="M-6 141l106-74-13 124z"/><circle r="1" fill="#6c5841" transform="matrix(-4.99022 -25.21916 58.48216 -11.57212 228.1 46.6)"/><path fill="#a7abb1" d="M159.2 207l-123-59.6 99.7-7.3 22.4-16.3z"/><circle r="1" fill="#fff" transform="matrix(-18.5661 54.53753 -15.72307 -5.35257 91 0)"/><circle r="1" fill="#080707" transform="matrix(15.4151 -68.6464 2.74444 .61629 146 45.4)"/><circle r="1" fill="#231310" transform="rotate(-64.8 225.2 -95.3) scale(94.20839 46.29746)"/><circle r="1" fill="#807d5c" transform="rotate(139.1 6.9 20) scale(17.75049 58.95587)"/><path fill="#fff" d="M45 87l-61 30 28 17zm108-26h25v42h-25z"/><path fill="#150800" d="M147.1 173.3l-16.7-3.2 6.5-33.4 16.7 3.2z"/><circle r="1" fill="#2a0b00" transform="rotate(-59.7 200.3 18.5) scale(6.12833 107.26338)"/><path fill="#372209" d="M87 34h19v20H87z"/><path fill="#f6ffff" d="M137.2 157.9l-.8 3.4-5.5-24.7-20 13.7z"/><path fill="#1d1c1d" d="M41 38L-1 26l1 88z"/><path fill="#fff" d="M175-14l35.2 8-9.3 40-35-8z"/><path fill="#403226" d="M88 87h25v69H88z"/><path fill="#332609" d="M69 9l-9 69-6-38z"/><path fill="#fff" d="M136.1 174.3l15.1 4.8-1.1 27.9-34.4-7.5z"/><circle r="1" fill="#fffef9" transform="matrix(-18.34192 -1.21827 3.10291 -46.71659 129 16.9)"/><ellipse cx="73" cy="151" fill="#f7ffff" rx="11" ry="9"/><circle r="1" fill="#abc0ba" transform="rotate(66.2 -25.5 37) scale(44.11488 2.53427)"/><circle cx="104" cy="166" r="10" fill="#fff"/><path fill="#f9feff" d="M30 147.8L8.9 179l-24.9 6.3 33-33.2z"/><path fill="#c7c7bc" d="M217-16l19 19-36 76z"/><ellipse cx="45" cy="50" fill="#cab890" rx="11" ry="22"/><path fill="#a9a096" d="M176.9 118.9l-31.6.6 18.6 44.2-14.6-17.4z"/><circle r="1" fill="#27211b" transform="rotate(22.8 -259.5 220) scale(29.25611 13.96867)"/><circle r="1" fill="#fffff1" transform="matrix(14.90413 -2.86485 5.85393 30.4545 90 2)"/><circle r="1" fill="#cfc4a6" transform="matrix(34.40806 1.73768 -.75238 14.89797 95.9 67.7)"/><circle r="1" fill="#fff" transform="matrix(4.75567 6.6672 -12.15573 8.6706 28.2 100.5)"/><path fill="#948d80" d="M170 106l51-38-35 11z"/><circle r="1" fill="#4a423d" transform="matrix(-4.7871 -4.19079 26.66339 -30.45734 125.7 174.8)"/><path fill="#e7e1ba" d="M22 0h13v32H22z"/><path fill="#69564b" d="M232 0l39 27-56 39z"/><path fill="#aea493" d="M126.7 126.1l-13 1.6-2.4-19.8 13-1.6z"/><path fill="#54544d" d="M-16 164.1l107.1-33.9-42.2 28-27.5-39.3z"/><circle r="1" fill="#211c14" transform="matrix(1.33915 .25468 -16.69697 87.79485 97.1 73)"/><path fill="#38271b" d="M29 66l86 25-65 21z"/><path fill="#221f0b" d="M38.7 26.3l-6.5 43 3.9-61.5L41.8-16z"/><path fill="#acb1b1" d="M36.2 137.5l-3.3 5.3 33.4-1.3-21.8-9.7z"/><path fill="#fff" d="M153 145h6v17h-6z"/><circle r="1" fill="#ffd26e" transform="matrix(-1.97159 11.53546 -27.85229 -4.76038 33.5 181.7)"/><path fill="#fff" d="M150 83h26v17h-26z"/><path fill="#b0c2bb" d="M20.5 44.2l-16.6-27L9.3.7-16 12.1z"/><path fill="#1e1418" d="M-15 81l-1 41 61-46z"/><path fill="#474320" d="M64-9l7.8 1.2-3.7 26.7-8-1z"/><path fill="#574940" d="M78 90h57l-48 81z"/><circle r="1" fill="#f4eedc" transform="rotate(-102.9 48.2 -23.1) scale(24.28915 9.39546)"/><ellipse cx="15" cy="12" fill="#180f0f" rx="6" ry="18"/><path fill="#3b2e2c" d="M166 112l105-79-96 157z"/><path fill="#fff" d="M-16 123l32-3 18-33z"/><path fill="#ebe7de" d="M103.8 46.3L110 26l31.7 22.2L102 59.7z"/><path fill="#fff" d="M201.3 33l-38.7-10.3L172.7-15l38.7 10.3z"/><path fill="#bcb491" d="M40.8 6.6L67.9-16l-7.1 58.8-26.3 22.5z"/><path fill="#583e34" d="M159.1 147.9l3.6-44.5-97.8-25.1 87.1 37.5z"/><circle r="1" fill="#3c434b" transform="matrix(-17.05804 56.01454 -2.35035 -.71575 206.2 30.4)"/><path fill="#241b14" d="M-6 26.2l2.2 78.8 40.7-82.2-1.7 37z"/><path fill="#864510" d="M56 179.5l-66-50.9 18.9 14.7L114.3 207z"/><path fill="#978c82" d="M248.8 48.4L232.2-9.3l25-7.1 16.6 57.7z"/><path fill="#48423c" d="M122.9 133l28.3-122.8 4 .9-28.4 122.7z"/><path fill="#f9fdff" d="M156 94l11.4 12.2 10.8-13.3 18.1-31z"/><path fill="#a8b7ae" d="M27 66.5l10.9 35.8-3.4-29.2-24.1 2.6z"/><path fill="#b29a7e" d="M197.8 26.2l-39.4 26.3 20.1 23.7 15.7-14.1z"/><path fill="#452f1b" d="M87.2 45.1l7.3-20.2L81.8 60l32.4-42z"/><circle r="1" fill="#2b1e16" transform="matrix(-7.45416 1.0501 -3.60507 -25.5908 138.8 133)"/><path fill="#f9ffff" d="M171.7 106.4l-15.9-29.5 14.1-19 5.9 1.8z"/><path fill="#2b281a" d="M112.7 1.3l-6.5 26.2-3-.8L109.9.5z"/><path fill="#d0c4af" d="M154.4 132.2l-5.3 11.2 1.6-32.6 4.7 24.4z"/><path fill="#fff" d="M166.4 120.8l1.8 4.6-4.6 1.8-1.8-4.6z"/><path fill="#ebf3f4" d="M83.6 173.6l21.2-20.3-4.8 28.6 16.5-20.7z"/><circle r="1" fill="#fff" transform="matrix(-.24183 -12.59487 7.71439 -.14812 134 52.4)"/><path fill="#f8e49d" d="M-16 185.7l58-9.1-20.9-25-11 36.2z"/><circle r="1" fill="#564232" transform="rotate(-141.9 122.7 -13.1) scale(5.82355 19.14983)"/><path fill="#edfdff" d="M98 53l-5 14-12-6z"/><path fill="#39352d" d="M102.3 61.5l-9 36.7-.3-16.7 14.4-68.4z"/><path fill="#a19171" d="M49.4 40.3L64.5-16 57 71.3 34 68z"/><path fill="#221116" d="M3.9 154.9L-16 176.2 11.2 139l-12.5-6.8z"/><path fill="#fff" d="M112.6 108.6l3.8 12.5-1 .3-3.8-12.5z"/><path fill="#dbcdaf" d="M63 71l5-44 26 52z"/><path fill="#68676c" d="M110 144l-4 16 24 2z"/><path fill="#e7e4d8" d="M180.6 47.7l-26.1-17.3 5.9-46.4 30.1 41.9z"/><path fill="#2b1508" d="M113.3 204.1l73.1-19.8-39.3 22.7-100.9-49z"/><path fill="#9b9286" d="M224 67l-54 38 22-35z"/><circle cx="125" cy="149" r="7" fill="#f3f8fc"/><circle r="1" fill="#859684" transform="matrix(6.11241 -2.2006 1.88827 5.24488 13.9 146)"/><circle r="1" fill="#9fa8a0" transform="matrix(-9.24506 -22.76784 3.3436 -1.3577 8.4 24.9)"/><path fill="#32241c" d="M167 115h89v77h-89z"/><path fill="#887d6e" d="M95 117l-8-22-8 14z"/><path fill="#877b6f" d="M173.9 110.5l5.2-3.6-31.7-11.1-30.1-3z"/><path fill="#735a46" d="M199.4 71.9L188 31.1l-9.6 36.2 31.3-38.1z"/><path fill="#41342a" d="M59.1 178.3l38.6-20.4-9.3-75.6 35.4 57z"/><path fill="#fff" d="M36 86l6 11-38 20z"/><path fill="#44392b" d="M57.6 46.3l9.9-21.6-2 22-17.3 70.2z"/><path fill="#bfc4c4" d="M43.4 138.3l-5.5 2.3-6.6-2.1 20.1-8.4z"/></g></g></svg>