<svg xmlns="http://www.w3.org/2000/svg" viewBox="0 0 1200 900"><defs/><filter id="a"><feGaussianBlur stdDeviation="12"/></filter><rect width="100%" height="100%" fill="#5b4530"/><g filter="url(#a)"><g fill-opacity=".5" transform="translate(2.3 2.3) scale(4.6875)"><circle r="1" fill="#bb9d69" transform="matrix(190.2175 149.84405 -68.54883 87.01839 145.5 79.6)"/><circle r="1" fill="#261707" transform="rotate(158 119.4 62.4) scale(59.86187 27.50963)"/><circle cx="89" cy="90" r="59" fill="#bb9c71"/><circle r="1" fill="#5a3615" transform="matrix(-6.20453 -16.35311 95.62741 -36.28197 77.5 17)"/><circle r="1" fill="#3b2008" transform="matrix(12.55928 4.3 -10.082 29.4471 160.7 106)"/><circle r="1" fill="#381300" transform="matrix(24.92533 -32.25788 103.5583 80.01841 20.8 191)"/><path fill="#6b4922" d="M88.6 104.8l-2.2-61 21-.6 2.2 61z"/><path fill="#b4a78e" d="M56 44l18 88L6 67z"/><ellipse cx="186" cy="40" fill="#ac916c" rx="48" ry="23"/><path fill="#dcae73" d="M120.5 77.8l12.7-25 30.3 15.4-12.7 25z"/><path fill="#62320e" d="M164 12l-24 19-65-46z"/><path fill="#673d1a" d="M46 128.8l-62-21.5L74.6 207l-13.3-82.8z"/><circle r="1" fill="#998663" transform="matrix(-24.40722 -14.92733 20.04806 -32.77998 157 163.6)"/><path fill="#46341c" d="M143.7 139.1l-42.9 24.8 5-16.7 70.1-46.4z"/><path fill="#7b6a4e" d="M207.8-54.4l99.8 48.6-29.4 60.2-99.8-48.6z"/><path fill="#b9a47d" d="M-12.8 101l63.6-24.5 33.7 81.8 60-38z"/><ellipse cx="252" cy="97" fill="#2d2014" rx="27" ry="16"/><path fill="#b18a59" d="M216.5 112.9l54.5 24.9-24.2-20.3-26.9-18.7z"/><path fill="#a8814f" d="M216 92l25-27 30-7z"/><path fill="#664525" d="M91 30L77-16 2 10z"/><path fill="#796347" d="M59.4 79l51.6 54.2-54-35.9 41-28.1z"/><path fill="#aa9171" d="M215 28l-61-44-11 17z"/><circle r="1" fill="#413221" transform="matrix(43.86303 -30.05055 2.10789 3.07676 237.8 56.5)"/><ellipse cx="104" cy="170" fill="#9b8562" rx="34" ry="8"/><circle r="1" fill="#2f190a" transform="matrix(-8.28232 -10.95314 38.59838 -29.18652 11 182.8)"/><ellipse cx="115" cy="57" fill="#d8aa6e" rx="9" ry="16"/><ellipse cy="35" fill="#786747" rx="40" ry="27"/><path fill="#492d14" d="M155 119.1l5.2-29.5 18.8 3.3-5.2 29.5z"/><path fill="#ab814e" d="M108 74h41v45h-41z"/><path fill="#68665a" d="M192 54l-46-3 31 34z"/><path fill="#522c0f" d="M54 180h55v12H54z"/><path fill="#b99c72" d="M99.7 23.3l12.7.4-.7 14.9L81 48.8z"/><path fill="#72603f" d="M108 150l-49 11-23 27z"/><path fill="#997b51" d="M14 135l29-23 19 11z"/><path fill="#8b826d" d="M274.4-.3l-1.1 11-59.7-6.4 1.1-11z"/><path fill="#84623b" d="M55.5 83.8l3.4-2 61.6-13-61.6 25.1z"/><ellipse cx="197" cy="132" fill="#957241" rx="43" ry="15"/><path fill="#ae956c" d="M59.2 148.7l35.8 8 44.5-49.7-81.2 28.2z"/><path fill="#968469" d="M56 37L13 85l80-29z"/><path fill="#5d3414" d="M50 19h34v17H50z"/><path fill="#859288" d="M-12 12L28 1 16-11z"/><path fill="#9e835c" d="M233.7 54.7l-35.7 24-11.7-17.4 35.7-24z"/><path fill="#6d5434" d="M18 81l-34 53 13-65z"/><path fill="#442412" d="M121.3 14.1l-14.8 8.3-5.8-10.5 14.8-8.3z"/><circle r="1" fill="#c8aa77" transform="rotate(92.1 45.8 77.2) scale(22.65027 1)"/><path fill="#7e5b2e" d="M179.8 134l7.9-34.2 18.5 4.3-7.9 34z"/><path fill="#5b391a" d="M39 158.9l-6.7-6L59 123l6.7 6z"/><path fill="#ae9267" d="M95 99.6l-19.5 7.7 27.3 7.3-11.5-66.7z"/><path fill="#623f1a" d="M99 68h8v28h-8z"/><path fill="#80613b" d="M7 31l78-47 59 9z"/><path fill="#9e8e71" d="M136 38h53v17h-53z"/><ellipse cx="20" cy="17" fill="#8d8d7b" rx="8" ry="7"/><path fill="#724f2a" d="M126 0h9v51h-9z"/><path fill="#9b8564" d="M82 178l88-58-38 52z"/><path fill="#713e13" d="M50 172h34v14H50z"/><path fill="#be8d55" d="M180 79h12v18h-12z"/><path fill="#56391a" d="M167 64l-11 21 13-11z"/><circle r="1" fill="#b18c5b" transform="matrix(1.66027 -6.75031 3.69645 .90916 245.9 73)"/><path fill="#534430" d="M181.5 2.5L202-5.1l2.4 6.6L184 9.1z"/><path fill="#493622" d="M191.4 82.6l19.4-10.3 3.8 7-19.4 10.4z"/><path fill="#462f18" d="M203.4 105.4l-6.9-19.9 18.8 25.6 25.1-33.4z"/><circle r="1" fill="#957d52" transform="rotate(-63.9 223.1 -90.6) scale(50.72396 13.70934)"/><circle r="1" fill="#bd9867" transform="rotate(30 -62.8 287) scale(25.72575 15.46679)"/><path fill="#683e1c" d="M27.6 150.6l-31.8-4.2L37.3 129l35.4 31.1z"/><path fill="#a5895e" d="M54.3 120l-22.9 1.5 2.9-35.3 9.8 58.3z"/><circle r="1" fill="#776f57" transform="matrix(-11.41762 2.09049 -1.12889 -6.16566 19.3 111.1)"/><path fill="#c5a371" d="M89 46h-8l13 17z"/><path fill="#694c26" d="M49.3 24.5L1.7.4l5.6 13.5L30.4 2.6z"/><path fill="#65504d" d="M65 57l-1 20-4-10z"/><path fill="#734418" d="M17.5 28.9l9.6 15.9 20.1-14.1-61.3-9.6z"/><path fill="#b59667" d="M144.7 118.4l-22.3 13.1L94 81.4l-1.1 8.4z"/><path fill="#6b5535" d="M242.2 13.7L188.1-2.4l60 26.8 11.1-8.4z"/><ellipse cx="254" cy="183" fill="#7e6740" rx="14" ry="76"/><path fill="#9e7747" d="M148.2 91.4l.4 27.6L109 99.7l.4-31z"/><path fill="#66543a" d="M17 59.1l49.6-32.5L-15 63.8l-.9 8.3z"/><circle r="1" fill="#4e3a24" transform="matrix(-10.24913 32.9307 -7.57857 -2.3587 255 82.4)"/><path fill="#a17b49" d="M86.2 50.8l-17.7 7.3 20.8 46.8-2.5-61.8z"/><circle r="1" fill="#a88453" transform="matrix(-24.64827 -13.76168 7.36927 -13.19895 185.9 28)"/><path fill="#684a2a" d="M127.4 25.1l41-20-11.6 22.3 7.3-.8z"/><path fill="#444339" d="M117 189h19v3h-19z"/><path fill="#8c7752" d="M13.6 50.3L4.4 35l12-7.2L25.6 43z"/><path fill="#533c24" d="M85 61l9 9-1 12z"/><path fill="#755731" d="M102.8 48.2l-.1 38.4-12-38.2 33.9-17.8z"/><path fill="#9d896a" d="M147 26l-15 9 9 24z"/><path fill="#a08051" d="M189 150l13-49-16 27z"/><path fill="#b9a27f" d="M26.8 89.3l57.4 48.4 26.9-1.1-67.6-50.4z"/><ellipse cx="208" cy="181" fill="#807453" rx="45" ry="14"/><path fill="#4b3b28" d="M266.7 35.8l-20.3 33.9-5-6.2 2.3-18.6z"/><path fill="#786951" d="M105.3 124l-10-1.6-36-23.4 46.6 22.5z"/><path fill="#838170" d="M46 16L37 5l8-4z"/><path fill="#a4875b" d="M70.8 166.4l14.8-25.3-26.5-21.9 19.7 51.9z"/><circle r="1" fill="#988361" transform="matrix(1.19268 2.16053 -43.14101 23.81512 26.3 57.6)"/><path fill="#482915" d="M58 169l9-22-83 17z"/><path fill="#502d14" d="M42.2 207l49-42.2-17.6 24.9-38-9.8z"/><path fill="#b4a080" d="M2.2 97.3l48.1-26.2 30.9-.7-32.8 14.4z"/><ellipse cx="63" cy="162" fill="#6e6148" rx="13" ry="4"/><path fill="#624a2a" d="M114 40.4l1.6-3.7 6.4 2.9-1.6 3.7z"/><path fill="#53432b" d="M110.3 152l2.6 8.4 14-11.6 26.2-24.7z"/><path fill="#977b54" d="M246.3 46.1l-14.1-23.5L223.4.4l-7.3 66.8z"/><circle cx="197" cy="12" r="3" fill="#492f12"/></g></g></svg>