<svg xmlns="http://www.w3.org/2000/svg" viewBox="0 0 1200 800"><defs/><filter id="a"><feGaussianBlur stdDeviation="12"/></filter><rect width="100%" height="100%" fill="#525e32"/><g filter="url(#a)"><g fill-opacity=".5" transform="translate(2.3 2.3) scale(4.6875)"><circle r="1" fill="#fff" transform="rotate(167.7 25.5 39.3) scale(230.87703 91.78598)"/><circle r="1" fill="#fff" transform="matrix(-148.62235 -90.46082 23.1634 -38.05624 199.6 19.6)"/><circle r="1" fill="#524c3f" transform="matrix(-70.9521 -5.83214 4.31479 -52.49244 131.7 118.8)"/><path fill="#e9fdff" d="M-9.6-26.4L121-1l-17.4 89.4L-27 63z"/><circle r="1" fill="#b4c255" transform="matrix(1.74566 -23.94425 60.44365 4.40667 150.8 166.6)"/><circle r="1" fill="#fff" transform="matrix(.4351 -56.8953 33.88068 .2591 225 42.8)"/><path fill="#100" d="M83 78l-62-2 62 40z"/><ellipse cx="152" cy="51" fill="#71696e" rx="50" ry="18"/><path fill="#fff" d="M100.9 105.2l-2.8-86.7-26.9 28.6 22.2 62.2z"/><ellipse cx="122" cy="124" fill="#343333" rx="37" ry="18"/><circle r="1" fill="#cfbba5" transform="matrix(-8.10188 41.15665 -23.38913 -4.60426 51.2 143.9)"/><circle r="1" fill="#c1d5ff" transform="matrix(-10.94714 -36.47826 209.89598 -62.98984 59.4 14.8)"/><circle r="1" fill="#211926" transform="matrix(6.46972 -17.62548 42.56003 15.62235 219.7 139.7)"/><ellipse cx="142" cy="82" fill="#454038" rx="24" ry="21"/><circle r="1" fill="#afaec6" transform="matrix(-10.41613 11.56828 -28.92672 -26.04573 198.1 88.4)"/><path fill="#eeebde" d="M40.8 94.5l39-3.2-46.4-5.6 5.9 9.9z"/><circle r="1" fill="#fcffff" transform="matrix(-113.9463 -77.64304 21.3675 -31.35823 228.5 14.5)"/><circle r="1" fill="#f9fbff" transform="rotate(-88.8 57.9 4.2) scale(15.64895 50.04986)"/><ellipse cx="87" cy="153" fill="#48500b" rx="19" ry="9"/><circle r="1" fill="#7a7b54" transform="matrix(2.38986 9.08695 -47.65673 12.53367 20 158)"/><ellipse cx="252" cy="100" fill="#423451" rx="13" ry="25"/><path fill="#f9fbfc" d="M37 170l25 3-6-25z"/><path fill="#d6d8df" d="M125 71.4L93.1 94.6l-5.7-9.3L126 57.1z"/><path fill="#d2d2ec" d="M114.1 147.4l42.4-.8-20.8-5.7-43 4.8z"/><circle r="1" fill="#9bb5dd" transform="matrix(23.7952 -19.89588 17.03237 20.37049 22.4 6)"/><path fill="#dbdce2" d="M183 65h11v44h-11z"/><path fill="#effbff" d="M174 87l50-68 29 23z"/><path fill="#4b4c46" d="M68 164l42-28 9-71z"/><path fill="#686474" d="M259.4 145.5l-22.9 2.8-3.9-31.8 22.9-2.8z"/><ellipse cx="116" cy="121" fill="#fff" rx="1" ry="25"/><path fill="#524b41" d="M168.5 95.9l-36.7-49.2 52.6 45.7 10.5-16.1z"/><path fill="#8d9a2c" d="M205 185l66-11-73-24z"/><path fill="#616037" d="M4 128l9 57h-23z"/><path fill="#d8d9e1" d="M94 143h74v4H94z"/><path fill="#6f6456" d="M132.4 48.1l2.4 20.7 6.3-37.8-12.5-11.2z"/><ellipse cx="95" cy="95" fill="#fff" rx="5" ry="14"/><path fill="#676f35" d="M134.5 148.4L33.3 185l70.5-42.7-13.4 3.7z"/><path fill="#c6b4a1" d="M75 162v-49L-1 61z"/><path fill="#1c2209" d="M161.2 144.2l8.7-6.8L271 158.2v9.6z"/><path fill="#f8ffff" d="M234 98l37-67-74 34z"/><path fill="#818690" d="M177.4 127.6l-18.7 17.7 4.1-61.7 26.7 39.3z"/><path fill="#737366" d="M128 160.4l10.2-55.7-40.1-27.1 63 12.2z"/><path fill="#eff1f5" d="M146.7 30.1l14.5-28.5 24 12.3-14.4 28.5z"/><path fill="#f4f7e8" d="M34 89h43v3H34z"/><path fill="#2a2127" d="M203.3 136l51.9-48.3 9.5 10.2-51.9 48.4z"/><path fill="#aba6a3" d="M106.3 63.1L106 37 94.9 82.8l41.4-19z"/><path fill="#8d7971" d="M37.2 91.7l-4.8 9.9-39.6-19.3 4.8-9.9z"/><path fill="#2e2c1b" d="M165.3 92.6l12.4-49.5 1 .3-12.4 49.5z"/><path fill="#959ca2" d="M105 121l13 7-2-29z"/><path fill="#14171e" d="M89 108h8v32h-8z"/><circle cx="163" cy="61" r="8" fill="#c4cdd4"/><circle r="1" fill="#ccb2a4" transform="matrix(17.8264 7.22888 -11.27047 27.79296 28.4 124.5)"/><path fill="#514c39" d="M118 59l-10-14 9 28z"/><path fill="#3c2a1e" d="M36 78h47v9H36z"/><path fill="#050805" d="M72 109l12-15-29 1z"/><path fill="#423e3d" d="M200.6 109.3l-29.7 36.4 19.7-4.6 5.5-42.9z"/><path fill="#bec8c8" d="M262 87.1l-16-7.2 10.5-9.2L238 92.9z"/><path fill="#e1bca0" d="M85 95h3v43h-3z"/><path fill="#201d15" d="M140.2 136.3l2.6-19-2.9 2.8 20.2 18.9z"/><path fill="#8a933f" d="M73 155h144v15H73z"/><path fill="#e6e7ec" d="M86.5 32.3l27.4 33.1 3 26.5-9.3-30.3z"/><path fill="#a7a8ac" d="M127.3 70.5l-21.6-31.2 7.7-16 18.5 27.2z"/><path fill="#524d46" d="M118.8 74.8l12.5 13-20.1 19.4-12.5-13z"/><path fill="#afb2b2" d="M117 102h59v4h-59z"/><path fill="#0d0f16" d="M110.4 123.2l4.8 1.4-5.6 18.2-4.8-1.4z"/><path fill="#4f4c3e" d="M123 73l19-20 34 34z"/><path fill="#364415" d="M130.3 146.4l.2 3-48.8 4.2-.2-3z"/><path fill="#858b64" d="M30.8 148.2l21.9-13-9.9 34.5-14.3-9z"/><path fill="#aca8a4" d="M205.7 41.7l-48.1 13 20.3 1.4-8.1-31.6z"/><path fill="#a2a693" d="M147 148l-12-2 1-17z"/><circle r="1" fill="#f3faff" transform="rotate(11.4 51.6 1103.6) scale(59.88437 22.55585)"/><path fill="#b0a9a2" d="M146 56l12-15-27-24z"/><path fill="#817d76" d="M103 59.2l-4.5-10.5 14.3 30-18.4-27.6z"/><path fill="#f6feff" d="M110 82L91 95l-5-17z"/><path fill="#878689" d="M226 110l-23-38 19 18z"/><path fill="#555452" d="M219.3 113.1l51.7 16.3-96.1-21.8 12 20.5z"/><ellipse cx="155" cy="59" fill="#555043" rx="3" ry="15"/><path fill="#b59585" d="M29.1 123.5l16.8-1.6L6.8 90.7-16 118.6z"/><path fill="#55503f" d="M125 50l18 36-6 25z"/><path fill="#f7faff" d="M271 28.2l-34.3 68.4-15.1 4.5 8.9-94.3z"/><circle r="1" fill="#c3d4ed" transform="rotate(-119.5 56.7 -33) scale(28.43077 87.8458)"/><path fill="#f4f8ff" d="M84 76l12-35-72 35z"/><path fill="#d4d6cf" d="M115 113h2v28h-2z"/><path fill="#544e50" d="M176.9 88.5l3.6 30.9 4.9-32.5 9.7-7.4z"/><circle r="1" fill="#c8c7c4" transform="matrix(1.63376 -.43776 2.74578 10.24737 118.9 68.3)"/><circle r="1" fill="#c5bfae" transform="matrix(-2.7366 -1.58994 20.77865 -35.7642 44.3 162.7)"/><path fill="#dddbd4" d="M28.5 156.5l-5.4 14.3 49.5-13.1L39.8 185z"/><path fill="#666665" d="M155.2 133.6l37-23.9-16.6 31L153.9 93z"/><path fill="#bbbfbb" d="M115.5 110.5h-1l2-37h1z"/><path fill="#dfebf1" d="M139 51h3v7h-3z"/><path fill="#9a9fa1" d="M168 93.6l14.4 13.9-12.5 13-14.3-14z"/><path fill="#5b5b36" d="M84.2 108.8l-.1 37.3 31.6 1.7-39.6 15.8z"/><path fill="#a7aaba" d="M200 93h21v23h-21z"/><path fill="#727252" d="M32.4 152l5.5 16.6-14.5-18-19.1 20.7z"/><path fill="#fff" d="M118.6 73.2l-1.8-4.6 4.6-1.8 1.8 4.6z"/><path fill="#27221e" d="M203 116h29v24h-29z"/><path fill="#565341" d="M117.6 104.8l17.9 51.6.7-80.1 5.2 34.7z"/><path fill="#746763" d="M175.8 94.7l-1.3-.7 28.8-20.1v-4.5z"/><path fill="#63665b" d="M183.5 50.3l-17.6 33.4 4.1-14.2 15.3-26.4z"/><path fill="#909188" d="M160.9 96.5l-19.5-3-3.6 32 8.8-40z"/></g></g></svg>