<svg xmlns="http://www.w3.org/2000/svg" viewBox="0 0 1186 1200"><defs/><filter id="a"><feGaussianBlur stdDeviation="12"/></filter><rect width="100%" height="100%" fill="#4d4d4d"/><g filter="url(#a)"><g fill-opacity=".5" transform="translate(2.3 2.3) scale(4.6875)"><circle cx="108" cy="132" r="200" fill="#fff"/><circle r="1" fill="#fff" transform="rotate(-114.2 102.7 16) scale(239.2783 185.80867)"/><circle r="1" fill="#fff" transform="matrix(-74.97498 178.7246 -197.3572 -82.79136 123 101.8)"/><circle cx="131" cy="255" r="165" fill="#fff"/><path fill="#1d1d1d" d="M231.6 21.4l-3.4 4.2 2.5 44.9 1.4-43.8z"/><circle r="1" fill="#fff" transform="rotate(-88.7 166.5 15.3) scale(80.55315 251.99999)"/><ellipse cx="121" fill="#fff" rx="252" ry="22"/><ellipse cx="109" cy="85" fill="#d2d2d2" rx="123" ry="18"/><path d="M21 36h3v18h-3z"/><ellipse cx="243" cy="47" fill="#fff" rx="12" ry="226"/><path fill="#181818" d="M98 69h2v33h-2z"/><ellipse cx="11" cy="98" fill="#fff" rx="10" ry="255"/><path fill="#272727" d="M131 95.5l-1-.1 3-26.9 1 .1z"/><path fill="#505050" d="M142 69h2v33h-2z"/><path d="M22 90h2v14h-2z"/><ellipse cx="33" cy="88" fill="#141414" rx="1" ry="12"/><path fill="#7d7d7d" d="M33 69h38v3H33z"/><ellipse cx="45" cy="112" fill="#fff" rx="252" ry="11"/><ellipse cx="109" cy="86" fill="gray" rx="2" ry="19"/><path fill="#fafafa" d="M67 68h31v27H67z"/><path fill="#2e2e2e" d="M164 69h2v33h-2z"/><ellipse cx="142" cy="41" fill="#ddd" rx="83" ry="22"/><path fill="#f5f5f5" d="M166 29h25v70h-25z"/><ellipse cx="128" cy="189" fill="#fff" rx="212" ry="66"/><path fill="#626262" d="M115 69h51v2h-51z"/><path fill="#9a9a9a" d="M0 255h201v1H0z"/><path fill="#2d2d2d" d="M43 83h2v19h-2z"/><ellipse cx="244" cy="72" fill="#fff" rx="13" ry="120"/><path fill="#4b4b4b" d="M65 75h2v25h-2z"/><path fill="#fff" d="M268 4.8L30.9-16 4.7 38.5l115.7-26.1z"/><path fill="#f9f9f9" d="M133 68h8v54h-8z"/><path fill="#b7b7b7" d="M74 23h141v2H74z"/><path fill="#f0f0f0" d="M20 72l69-3-23 14z"/><ellipse cx="54" cy="85" rx="3" ry="1"/><ellipse cx="21" cy="187" fill="silver" rx="1" ry="152"/><path fill="#878787" d="M229 88h3v13h-3z"/><path d="M229 26h2v29h-2z"/><path fill="#fff" d="M1 201h205v54H1z"/><path fill="#e1e1e1" d="M231.3 97.5l-28-1 1.4-42 28 1z"/><path fill="#b4b4b4" d="M130 99h93v3h-93z"/><ellipse cx="231" cy="155" fill="#b3b3b3" rx="1" ry="44"/><path fill="#323232" d="M54 99l2-4-1-6z"/><path fill="#5b5b5b" d="M56.3 101h-1l-1.6-18h1z"/><ellipse cx="99" cy="147" fill="#aeaeae" rx="1" ry="27"/><ellipse cx="16" cy="85" fill="#fff" rx="5" ry="118"/><path fill="#fff" d="M22 102h231v12H22z"/><path fill="#f0f0f0" d="M101 13h8v90h-8z"/><path fill="#acacac" d="M.2 10h1L-.2 92h-1z"/><path fill="#585858" d="M109 69h15v2h-15z"/><path fill="#e0e0e0" d="M0 11h115v4H0z"/><path fill="#666" d="M32 79h1v26h-1z"/><path fill="#f9f9f9" d="M24 11h8v89h-8z"/><path fill="#969696" d="M34 76h12v4H34z"/><path fill="#fdfdfd" d="M129.2 61.5L147.7 90l-.9.5L128.3 62z"/><path fill="#f8f8f8" d="M170 90h67v8h-67z"/><path fill="#efefef" d="M16 71h30v7H16z"/><ellipse cy="255" fill="#cdcdcd" rx="1" ry="169"/><path fill="#f8f8f8" d="M103.6 74.5l24 6.3-6.2-10.2-20.6 2.7z"/><path fill="#dcdcdc" d="M107 30h65v31h-65z"/><path fill="#5b5b5b" d="M109 76h2v26h-2z"/><circle cx="229" cy="99" r="2" fill="#313131"/><ellipse cx="228" cy="72" fill="#fbfbfb" rx="1" ry="103"/><path fill="#383838" d="M21 90h3v13h-3z"/><path fill="#fff" d="M7 15h231v7H7zm89.7 102.3l-85.3-14.6-12.5 2.2 28.4-4.1z"/><path fill="#f4f4f4" d="M148.2 61.6l-14.7 25.7 8.8-31.9 4.2-62.6z"/><path fill="#c6c6c6" d="M252 198h1v47h-1z"/><path fill="#717171" d="M131 1l36-17-35 3z"/><path fill="silver" d="M71.6 24.6l-15.3 5.8-42.8 7.3 46.8-10.8z"/><ellipse cx="234" cy="11" fill="#d5d5d5" rx="237" ry="1"/><path fill="#7b7b7b" d="M153 91h2v11h-2z"/><path fill="#d9d9d9" d="M196 28h29v35h-29z"/><path fill="#646464" d="M66 69l-2 3 3 3z"/><path fill="#d2d2d2" d="M10 49l.9 15-21 1-.8-15z"/><path fill="#7e7e7e" d="M12.8 26.5l-1 .4-2.6-5.4 1-.4z"/><path fill="#fff" d="M232 25h21v170h-21z"/><path fill="#f9f9f9" d="M44 71h21v11H44z"/><path fill="#fff" d="M111 8l157 2-63-26z"/><path fill="#f3f3f3" d="M63.4 53.3L1 52.8l98.4 7.6 3.8-7.7z"/><ellipse cx="135" cy="118" fill="#c8c8c8" rx="5" ry="3"/><path fill="#d5d5d5" d="M21 128h3v48h-3z"/><path fill="#fff" d="M1 25h17v23H1z"/><path fill="#e3e3e3" d="M228.9 174.2l5.9-5.8-25.4 7.1-54.9 13.1z"/><ellipse cx="80" cy="198" fill="#dfdfdf" rx="171" ry="1"/><path d="M21.4 47l.2-12h1l-.2 12z"/><ellipse cx="38" cy="69" fill="#5d5d5d" rx="6" ry="1"/><path fill="#525252" d="M131.5 91l2 9.8-1 .2-2-9.8z"/><path fill="#c4c4c4" d="M239 11h3v15h-3z"/><ellipse cx="97" cy="27" fill="#f8f8f8" rx="32" ry="3"/><ellipse cx="44" cy="70" fill="#646464" rx="11" ry="1"/><path fill="#dcdcdc" d="M225.6 127l-71.4-15 .2-1 71.4 15.2z"/><path fill="#e3e3e3" d="M32.6 176.2l-.5-32.1 3.7 30.1 37 14.2z"/><path fill="#cbcbcb" d="M229.1 167.5h-1l.8-43h1z"/><path fill="#b5b5b5" d="M108.1 30l2.8 31.9h-1l-2.8-31.8z"/><path fill="#5d5d5d" d="M65 85h2v17h-2z"/><ellipse cx="157" cy="84" fill="#6c6c6c" rx="5" ry="1"/><ellipse cx="183" cy="52" fill="#f2f2f2" rx="42" ry="3"/><path fill="#b6b6b6" d="M113.1 60.9L116 29l1 .1-3 31.9z"/><path fill="#7f7f7f" d="M12.7 99l-2.5 4.4-.9-.5 2.5-4.3z"/><ellipse cx="59" cy="116" fill="#fdfdfd" rx="4" ry="35"/></g></g></svg>