<svg xmlns="http://www.w3.org/2000/svg" viewBox="0 0 1200 539"><defs/><filter id="a"><feGaussianBlur stdDeviation="12"/></filter><rect width="100%" height="100%" fill="#3f3f3f"/><g filter="url(#a)"><g fill-opacity=".5" transform="translate(2.3 2.3) scale(4.6875)"><circle cx="157" cy="59" r="194" fill="#fff"/><circle r="1" fill="#fff" transform="matrix(-180.95177 -17.66424 10.07316 -103.18901 124.2 47)"/><circle r="1" fill="#fff" transform="matrix(-35.65708 128.37142 -227.51082 -63.19454 140.2 16.2)"/><circle r="1" fill="#fff" transform="matrix(17.61949 46.62862 -82.0822 31.01628 181.6 7.2)"/><circle r="1" fill="#a5a5a5" transform="matrix(3.45445 -9.9441 44.28565 15.38426 113.1 88.8)"/><path d="M49.9 123.2L48 103.3l6-.5 1.8 19.9z"/><circle r="1" fill="#b8b8b8" transform="matrix(9.04865 -11.61728 24.9494 19.43297 175 81.7)"/><circle r="1" fill="#fff" transform="matrix(-26.80564 6.81388 -12.18108 -47.92004 26 9.7)"/><ellipse cx="176" cy="7" fill="#fff" rx="82" ry="46"/><ellipse cx="75" cy="80" fill="#bababa" rx="5" ry="55"/><ellipse cx="128" cy="53" fill="#fff" rx="18" ry="39"/><path fill="#ababab" d="M11 99h68v8H11z"/><path fill="#fff" d="M175 73h81v10h-81zM-6 102l88-15-93-13z"/><ellipse cx="109" cy="74" fill="#969696" rx="16" ry="3"/><path fill="#989898" d="M243.5 84.1l-161 2.8v-1l161-2.8z"/><ellipse cx="79" cy="36" fill="#d7d7d7" rx="29" ry="31"/><path fill="#fff" d="M275 82.2L264.4 132l-29.4-6.3L245.6 76z"/><path fill="#1d1d1d" d="M134 99h4v9h-4z"/><path fill="#a6a6a6" d="M178 77l-5-17-31 12z"/><circle r="1" fill="#1d1d1d" transform="matrix(2.74189 .5393 -.20745 1.05474 52.3 81.8)"/><path fill="#fff" d="M108 86l-36 24 39 1z"/><circle cx="229" cy="102" r="3" fill="#1a1a1a"/><circle r="1" fill="#fff" transform="matrix(16.51333 -7.24179 19.16904 43.71086 20.4 1.9)"/><path fill="#fff" d="M114-16V87L240 2z"/><path fill="#434343" d="M98.9 89.8l-5.7 4-4-5.6 5.6-4z"/><path fill="#fff" d="M133 87h52v5h-52z"/><path fill="#acacac" d="M166.3 100.4l-41.1 2.4 75.1-.3 3.3-17.6z"/><path fill="#fff" d="M104 103h112v8H104z"/><path fill="#2e2e2e" d="M148 101h5v6h-5z"/><path fill="#454545" d="M134 98h5v9h-5z"/><path fill="#9f9f9f" d="M109.4 93.7l21.1-12.4-15.4 19-8.9-3.8z"/><path fill="#aaa" d="M1 113h90v1H1z"/><path fill="#fff" d="M0 111h46v2H0z"/><path fill="#b1b1b1" d="M153 56h9v17h-9z"/><path fill="#a6a6a6" d="M105 72l8 10 10-10z"/><path fill="#969696" d="M215 81l1 14 3-6z"/><path fill="#a4a4a4" d="M130 92h53v2h-53z"/><ellipse cx="70" cy="98" fill="#c2c2c2" rx="28" ry="3"/><ellipse cx="247" cy="111" fill="#9b9b9b" rx="72" ry="1"/><ellipse cx="144" cy="112" fill="#a5a5a5" rx="42" ry="1"/><path fill="#fefefe" d="M198.7 94.9l13.7 34.1-28.6-4.5 61.8-35.1z"/><path fill="#353535" d="M113.7 98l-.8.6-4.6-6.6.8-.6z"/><path fill="#fdfdfd" d="M145 94h28v5h-28z"/><path fill="#d5d5d5" d="M241 31h15v37h-15z"/><path fill="#fff" d="M189 71l-28 11h69z"/><path fill="#505050" d="M55 103l-5-2-4 17z"/><path fill="#fff" d="M43-16l161 61 67-44zM0 83h69v13H0zm231 12h5v19h-5zM72 83l18 12-5-13zm26-29h47v19H98z"/><path fill="#b6b6b6" d="M125 87l-9 4-1 18z"/><circle cx="61" cy="81" r="2" fill="#3e3e3e"/><ellipse cx="72" cy="95" fill="#999" rx="2" ry="16"/><path fill="#575757" d="M237 100h2v5h-2z"/><path fill="#a1a1a1" d="M214 89h3v13h-3z"/><path fill="#ededed" d="M180 42h52v34h-52z"/><path fill="#fefefe" d="M45.1 112.6L18 109.9l28-6.6 2.8 10.1z"/><path fill="#e3e3e3" d="M92.4 76l4-.7L99.5 94l-4 .7z"/><path fill="#fff" d="M122 113h134v1H122z"/><circle r="1" fill="#aeaeae" transform="matrix(-.17563 2.33576 -17.8656 -1.34332 80.5 74.5)"/><path fill="#fff" d="M20 27L76-8l-88 9zm43 40l-19 8 23 6z"/><path fill="#eee" d="M105.6 110.4l-27.8-28 33.2 24.2-1.7-36.9z"/><path fill="#c4c4c4" d="M71 74l-1-24-10-1z"/><path fill="#fff" d="M244 70h12v41h-12z"/><path fill="#b8b8b8" d="M104.9 102.4l-4.5.8-3.9-.8 3.4-4.3z"/><path fill="#c7c7c7" d="M79 106h36v2H79z"/><path fill="#fff" d="M219 87h20v11h-20z"/><path fill="#f1f1f1" d="M124.6 57.7l47.3 26.7-74.6-5.2 67.5-1.2z"/><path fill="#cbcbcb" d="M-10.6 102.1l96.8-7.8-71.1 16.8-20.9-3.1z"/><path fill="#d4d4d4" d="M14 52L-3 70.3-14 60 3 41.7z"/><path fill="#fff" d="M107.2 101.8l-21.3-9.7 15.6 1.5 18.7 18.1z"/><path fill="#7a7a7a" d="M47 79h8v4h-8z"/><path fill="#fdfdfd" d="M67 67L56 86l-5-20z"/><path fill="#f3f3f3" d="M0 72h48v16H0z"/><path fill="#b2b2b2" d="M185 92v14l19-23z"/><ellipse cx="102" cy="109" fill="#fff" rx="47" ry="2"/><path fill="#fff" d="M160 61h7v4h-7z"/><path fill="#c6c6c6" d="M172.6 66.4l-16.2 31 23.9-23.7.5-8.4z"/><ellipse cx="216" cy="109" fill="#fff" rx="140" ry="2"/><path fill="#ececec" d="M71.6 73.2l37.2-2.6-36.9-7.3-.9-37.8z"/><path fill="#fff" d="M219.6-14.2l-92.8 98.6 17-6.6L95.2-.9z"/><path fill="#e3e3e3" d="M89.5 77l-6.7 4.8 7.2-.6 29.1-3.1z"/><path fill="silver" d="M142.9 71.3l14.8 10.3-2.1-22.4-11.5 20.4z"/><path fill="#cacaca" d="M29 98l34-3-15 10z"/><circle cx="50" cy="80" r="1" fill="#121212"/><path fill="#7c7c7c" d="M226 103h6v3h-6z"/><circle r="1" fill="#f9f9f9" transform="matrix(1.95628 1.6012 -3.78102 4.6195 116.8 83)"/><path fill="#a4a4a4" d="M101.7 91.1L96 89.6l2.4-8.7 5.8 1.5z"/><path fill="#afafaf" d="M67.7 72.7l19.2 16.1-.4-3.6-12.2-16.3z"/><ellipse cx="152" cy="82" fill="#fff" rx="38" ry="1"/><path fill="#fff" d="M125.8 95l-4.7 16.3-1-.3 4.8-16.3z"/><path fill="#b6b6b6" d="M119 106l-4-18 9-6z"/><path fill="#616161" d="M92.6 79.5l1.8 12.9-1 .1-1.8-12.9z"/><path fill="#fff" d="M166 86h18v5h-18z"/><circle cx="52" cy="105" r="3" fill="#414141"/><ellipse cx="42" cy="88" fill="#bdbdbd" rx="1" ry="15"/><path fill="#a9a9a9" d="M69 73h53v4H69z"/></g></g></svg>