<svg xmlns="http://www.w3.org/2000/svg" viewBox="0 0 1200 600"><defs/><filter id="a"><feGaussianBlur stdDeviation="12"/></filter><rect width="100%" height="100%" fill="#65573b"/><g filter="url(#a)"><g fill-opacity=".5" transform="translate(2.3 2.3) scale(4.6875)"><path fill="#f6fdff" d="M271 119L252-16-16 58z"/><circle cx="248" cy="127" r="54" fill="#ece9f0"/><circle r="1" fill="#5b491b" transform="matrix(-78.10756 -3.52856 .4447 -9.84389 214 62)"/><ellipse cx="161" cy="1" fill="#b6bbcc" rx="97" ry="46"/><circle r="1" fill="#a7a7ab" transform="matrix(-97.27683 1.69797 -.44166 -25.30259 53.6 67.5)"/><ellipse cx="95" cy="117" fill="#2e3951" rx="105" ry="34"/><ellipse cx="193" cy="100" rx="7" ry="17"/><path fill="#fff" d="M161 70h27v28h-27z"/><circle cx="149" cy="127" r="16" fill="#beb5b4"/><path fill="#6d696d" d="M-9 57l79-73 63 37z"/><path fill="#e9e3db" d="M202.2 76.2L233.3 12l-27.6 10.4-4.5 32.7z"/><circle r="1" fill="#7a6230" transform="rotate(-55 165.7 -190) scale(13.4563 19.52897)"/><path fill="#b1aca5" d="M56.8 33.6l-53 24 45.7 43.6 82.6-85.8z"/><path fill="#fff" d="M231.6 42.7l-.2-11 25-.4.2 11z"/><path fill="#2a2b2c" d="M129.6 79.6L88.5 143l68.9-64.9 3.2 29.4z"/><path fill="#060700" d="M235 64h21v9h-21z"/><circle r="1" fill="#41404a" transform="matrix(45.646 -66.16765 22.3079 15.38918 5.1 21.6)"/><circle r="1" fill="#a29e96" transform="matrix(-4.04177 -.83434 11.15794 -54.05189 89 75)"/><ellipse cx="229" cy="79" fill="#aa968d" rx="4" ry="54"/><path fill="#fffff8" d="M211 72h15v33h-15z"/><path fill="#b4b1ac" d="M103 67h18v33h-18z"/><path fill="#2c2d30" d="M24 78L3 112l85 31z"/><path fill="#d5e2fa" d="M138.3 39.4l-2.7-13.8 46.1-9 2.7 13.8z"/><path fill="#736844" d="M133.4 69.3l.8-14.8-10.6.1-18.1 9.7z"/><path fill="#e9f2ff" d="M208 29l63-8-37-6z"/><ellipse cx="200" cy="15" fill="#8a7564" rx="3" ry="103"/><ellipse cx="206" cy="61" fill="#d7cfca" rx="5" ry="53"/><path fill="#9c9499" d="M271 115l-64-12-55 40z"/><circle r="1" fill="#b5b5b2" transform="matrix(5.6509 -24.6159 7.47947 1.71701 36.7 74.8)"/><path fill="#d6d9dc" d="M98 32h33v23H98z"/><path fill="#2c2d2e" d="M193.6 82.9L185 99.2l-35.8-7 42.1 38.2z"/><path fill="#574e24" d="M160 69l31-25 6 24z"/><path fill="#908f86" d="M135.6 87.3l5.4 22.6 31.7-65-17.4 1.6z"/><path fill="#f5f6e6" d="M231 73h25v37h-25z"/><path fill="#2e2f30" d="M99.3 69.5l8.8 59.1-26 14.4 12.7-68.9z"/><circle r="1" fill="#9d9386" transform="matrix(1.34443 6.66763 -89.8955 18.12611 154.7 14.4)"/><path fill="#f3f1e8" d="M182.6 70.9l12.5-.2 3.2 7.9-26.5 19.9z"/><path fill="#f5ebe6" d="M136 43h6v38h-6z"/><path fill="#babdc2" d="M-6 70l7 15 47-21z"/><path fill="#272828" d="M65 82h10v46H65z"/><path fill="#4f463d" d="M97 43h25v3H97z"/><circle r="1" fill="#7a6b5d" transform="matrix(49.8358 -3.03024 .10348 1.7018 254.9 28.4)"/><path fill="#e4e5e5" d="M48 45l71.2-10 .9 6-71.3 10z"/><path fill="#4b4643" d="M0 6h93v12H0z"/><path fill="#2b2b2c" d="M140 120l-6-43-32 48z"/><circle r="1" fill="#9b978d" transform="matrix(-4.43355 23.46389 -7.45411 -1.40847 84.4 72.9)"/><path fill="#fcfffc" d="M231 41h2v36h-2z"/><path fill="#6f4e18" d="M210 45h13v26h-13z"/><path fill="#65554a" d="M271 126l-46-8 42 25z"/><circle r="1" fill="#edf3ff" transform="matrix(-20.18993 -3.0174 1.17768 -7.88006 255 39.8)"/><path fill="#fff" d="M123 68h9v12h-9z"/><path fill="#7e8083" d="M86.5 67.5L23.8 89.3l35.8 11.5 17.8-32.1z"/><path fill="#fdf6eb" d="M110 65.2l-12.5-.4 4.1-16.8 8.5 37.1z"/><circle r="1" fill="#7e7775" transform="matrix(-3.38762 -9.70334 28.10103 -9.81062 61.7 32.4)"/><path fill="#87807b" d="M23 43L12 94-1 52z"/><path fill="#e8e6dc" d="M158.1 88.5l8.4-18L200 72l-40.4 25.8z"/><ellipse cx="228" cy="100" fill="#846d5b" rx="2" ry="28"/><ellipse cx="255" cy="11" fill="#9aabd6" rx="45" ry="10"/><path fill="#615548" d="M98.9 17.6L96 70.5h-1l2.8-53z"/><path fill="#d5c77e" d="M245 47h11v15h-11z"/><path fill="#58473b" d="M132 34h2v52h-2z"/><path fill="#e3dcd1" d="M162 45h3v27h-3z"/><path fill="#0a0b10" d="M154 79v17l5-17z"/><path fill="#242425" d="M171.7 91.6l1 .1-4.4 30.7-1-.1z"/><circle r="1" fill="#353637" transform="matrix(5.035 2.17884 -5.61135 12.96707 194 107.5)"/><path fill="#675d50" d="M112 45h2v53h-2z"/><path fill="#50471e" d="M142 56h5v12h-5z"/><path fill="#aabfdc" d="M166 22h30v22h-30z"/><path fill="#fffffb" d="M211.6 22.8l17.2 11.5-23.7 6.4 21.2-13.6z"/><circle cx="144" cy="72" r="4" fill="#fff"/><ellipse cx="74" cy="56" fill="#3c352c" rx="1" ry="19"/><path fill="#353537" d="M28.7 72.4l-10 45.8-20.6-38.4L-16 142z"/><path fill="#877b4d" d="M199 45l-7 19-15-19z"/><path fill="#c1bdb6" d="M177 124h11v4h-11z"/><path fill="#fff" d="M75.7 65.5l-.4-13h3l.4 13z"/><path fill="#2d2d2e" d="M177 134l-16-21 7-22z"/><path fill="#2f2f2f" d="M80 99l-58 1 21 43z"/><path fill="#928b76" d="M44 57h32v8H44z"/><path fill="#5e5930" d="M243.4 69.4l-9.2 4.1-1.6-33.9 7.9 8.4z"/><path fill="#ebeae4" d="M69.7 44l.2 2-47.6 6-.2-2z"/><path fill="#d2ccc2" d="M96 76.2L75 61.8l6.2 4.1 54.4 2.3z"/><path fill="#403d10" d="M242 59l-9 12 34 2z"/><path fill="#5c5d5d" d="M118.4 103.2L132.9 79 99.7 97.6l18-23.6z"/><ellipse cx="18" cy="19" fill="#6c6662" rx="88" ry="5"/><ellipse cx="188" cy="16" fill="#beb8af" rx="16" ry="8"/><path fill="#323234" d="M155 87l-26 23h37z"/><path fill="#fff" d="M38 54h3v11h-3z"/><ellipse cx="30" cy="69" fill="#e5dfd7" rx="7" ry="6"/><path fill="#7c7c7d" d="M51 67l-8 32h19z"/><path fill="#79766f" d="M83 44h2v84h-2z"/><ellipse cx="179" cy="85" fill="#e9e5dd" rx="10" ry="13"/><path fill="#939490" d="M180.5 33.5l39.3-3.3-53.3 9.5-25.6 1.2z"/><path fill="#cac5c0" d="M203 45h8v68h-8z"/><path fill="#7a7a7d" d="M146.9 69.8l-1.9 33 9 40.2-16.8-53z"/><path fill="#7e8898" d="M6 84h8v14H6z"/><path fill="#685446" d="M121.9 42l-.8 42h-1l.8-42z"/><path fill="#746a62" d="M107 43.6l-3 54.9h-1l3-55z"/><path fill="#7f7769" d="M101 12L-13-10l83-6z"/><path fill="#695c49" d="M198 22h4v23h-4z"/><ellipse cx="12" cy="5" fill="#332e2b" rx="16" ry="7"/></g></g></svg>