<svg xmlns="http://www.w3.org/2000/svg" viewBox="0 0 1200 245"><defs/><filter id="a"><feGaussianBlur stdDeviation="12"/></filter><rect width="100%" height="100%" fill="#444"/><g filter="url(#a)"><g fill-opacity=".5" transform="translate(2.3 2.3) scale(4.6875)"><circle cx="116" cy="45" r="160" fill="#fff"/><circle cx="96" cy="34" r="172" fill="#fff"/><circle r="1" fill="#fff" transform="matrix(100.43206 -37.86936 11.54398 30.61539 50.4 8.4)"/><path fill="#404040" d="M204.6 31.8l49.1 1.3-42.5-7.7L123.1 37z"/><ellipse cx="195" cy="13" rx="36" ry="2"/><path d="M77 29l-58-1v-1l58 1z"/><circle r="1" fill="#fff" transform="matrix(23.37242 9.88598 -38.88318 91.92753 249.4 28.7)"/><ellipse cx="123" cy="5" fill="#fff" rx="255" ry="7"/><circle r="1" transform="matrix(-.00847 .99996 -29.81337 -.25251 123.4 24.4)"/><ellipse cx="198" cy="45" fill="#fff" rx="67" ry="14"/><path d="M160 30h81v2h-81z"/><path fill="#fff" d="M-6.3-21.3l66.5 95-27.9 19.6-66.5-95z"/><path fill="#454545" d="M58 44h74v3H58z"/><path fill="#fff" d="M144 14h82v11h-82z"/><ellipse cx="207" cy="27" fill="#111" rx="10" ry="4"/><ellipse cx="38" cy="7" fill="#fff" rx="73" ry="20"/><path fill="#f3f3f3" d="M87 26l66-1L50 67z"/><path fill="#fff" d="M116.3-16L271 9.7l-106.6.9-11.3 24z"/><path fill="#1e1e1e" d="M233.6 21.8l6-.5.8 9-6 .4z"/><path fill="#171717" d="M77 33h23v2H77z"/><path fill="#090909" d="M44 42h7v6h-7z"/><path fill="#111" d="M102 48.5h-6v-7h6z"/><path d="M34 27h43v2H34z"/><path fill="#1c1c1c" d="M95 23h52v3H95z"/><path fill="#fff" d="M163 32h93v13h-93z"/><path d="M163.8 24.7l-2.7 12.8-1-.2 2.8-12.8z"/><path fill="#fff" d="M174.9-16L69.2 4.3l19.9 49.3 1-40.1z"/><ellipse cx="193" cy="13" rx="32" ry="1"/><path fill="#585858" d="M63.6 41l9.9-1 1 9-10 1z"/><path d="M132 33h31v2h-31z"/><path fill="#fff" d="M119 26h19v17h-19z"/><ellipse cx="119" cy="45" fill="#363636" rx="12" ry="3"/><path fill="#3a3a3a" d="M226 31h4v7h-4z"/><path fill="#fff" d="M67.8-8.1l3.1 28.4-2.4 26 5.1 19.6zM257 50l-45-66 59 5z"/><path fill="#fff" d="M33 50h223v2H33z"/><path fill="#fff" d="M0 30h45v22H0z"/><path d="M187.6 29.1l-2-.2.8-6 2 .2z"/><path fill="#fff" d="M145 0h16v32h-16z"/><circle r="1" fill="#fff" transform="matrix(12.54326 18.51868 -38.65666 26.18332 6.7 16.1)"/><path fill="#fff" d="M194.7 18l4.5 2.3-6 11.6-4.4-2.2z"/><path fill="#f0f0f0" d="M120.2 34.1L91.8 63.2l21.8-33.1 1.1 19.4z"/><path fill="#fff" d="M132 35h124v8H132z"/><ellipse cx="215" cy="4" fill="#fff" rx="78" ry="8"/><path d="M184 14h1v18h-1zm-23 16h1v18h-1z"/><ellipse cx="144" cy="43" fill="#272727" rx="1" ry="12"/><ellipse cx="94" cy="42" fill="#414141" rx="1" ry="20"/><path fill="#fff" d="M164 15h18v15h-18z"/><path d="M84 43h2v5h-2z"/><path fill="#5c5c5c" d="M74.2 53.4l2.6-20.9 1 .1-2.6 20.9z"/><path fill="#fff" d="M49 49h162v3H49zM36 32h38v8H36z"/><path fill="#b4b4b4" d="M136.1 16.7l-20.2-31.6 10.3 20.8-10 18.4z"/><path fill="#fff" d="M213.6 15.6l4.6 3.9-5.8 6.9-4.6-3.9z"/><ellipse cx="60" cy="11" fill="#fff" rx="39" ry="15"/><ellipse cx="210" cy="31" fill="#030303" rx="30" ry="1"/><circle r="1" fill="#fefefe" transform="matrix(-11.84192 32.5354 -3.10713 -1.1309 88 24.4)"/><path d="M107.6 42.8l1-.3 1.8 4.7-1 .3z"/><circle cx="66" cy="44" r="3" fill="#0e0e0e"/><path fill="#fff" d="M61 38h3v10h-3z"/><path d="M233.7 30.9l1.6-10 1 .2-1.6 10z"/><ellipse cx="97" cy="34" rx="5" ry="1"/><path fill="#090909" d="M205 26l7 3-7-9z"/><ellipse cx="108" cy="24" rx="14" ry="1"/><path d="M218.8 28.3l3.7-3.3.7.7-3.7 3.3z"/><path fill="#fff" d="M214.6 14.8l41.3 5-44.2 4.2-25.7-6.9z"/><ellipse cx="199" cy="13" rx="29" ry="1"/><path fill="#fff" d="M51 32h5v20h-5zm185-5l30-18 5 38zm-122 2h3v23h-3zm17 1h11v4h-11zm-62 2h3v20h-3zm91-12l-30 2 29-19z"/><path fill="#e0e0e0" d="M106.6 24l-8.6-.5-3-10.6 53.4-20.2z"/><path fill="#fff" d="M145 38h15v10h-15z"/><path fill="#d4d4d4" d="M177 29h51v1h-51z"/><path fill="#090909" d="M198 25h6v6h-6z"/><path fill="#494949" d="M125 44h6v6h-6z"/><ellipse cx="132" cy="24" rx="11" ry="1"/><path fill="#3e3e3e" d="M59.5 43.4l.8 2.7 1.1 8.4-3.6-11.9z"/><ellipse cx="105" cy="50" fill="#fdfdfd" rx="60" ry="2"/><path fill="#0c0c0c" d="M31 27h37v2H31z"/><path fill="#fff" d="M106.4 28.3l3.8 1-4.6 18.4-3.8-1z"/><path fill="#fcfcfc" d="M94 51L81 38l6-14z"/><path fill="#a9a9a9" d="M110 28h2v21h-2z"/><path fill="#080808" d="M57.4 46l2.3-4.5.9.5-2.3 4.5z"/><path d="M49 42l-3 1 3-2z"/><path fill="#131313" d="M90 33h9v2h-9z"/><path fill="#fff" d="M189.7 18.2l8.7 11-6.4.2 17.7-11.2zM97 28h13v6H97zm67 4h24v20h-24z"/><path fill="#141414" d="M116 44h14v3h-14z"/><ellipse cx="182" cy="14" fill="#777" rx="22" ry="1"/><path fill="#090909" d="M216 30.2l3.7-1.4.4 1-3.8 1.4z"/><path fill="#e3e3e3" d="M127 26h6v19h-6z"/><path fill="#b2b2b2" d="M138 15l8-7-27 5z"/><path fill="#040404" d="M44.3 44.9l2.6-4.3.8.5-2.6 4.3z"/><circle cx="162" cy="13" r="2" fill="#1e1e1e"/><path fill="#fff" d="M94.2 55.3l2.6-16.8 1 .2-2.6 16.8z"/></g></g></svg>