<svg xmlns="http://www.w3.org/2000/svg" viewBox="0 0 1200 900"><defs/><filter id="a"><feGaussianBlur stdDeviation="12"/></filter><rect width="100%" height="100%" fill="#563b35"/><g filter="url(#a)"><g fill-opacity=".5" transform="translate(2.3 2.3) scale(4.6875)"><circle r="1" fill="#fff" transform="matrix(-65.68573 -191.54363 153.98912 -52.80723 110.9 69.3)"/><circle r="1" fill="#fff" transform="matrix(-31.51688 -29.7 48.34706 -51.30465 159.7 11.8)"/><circle r="1" fill="#fff" transform="matrix(-19.484 1.63612 -18.60751 -221.59097 6.5 88.3)"/><circle r="1" fill="#5f3f25" transform="matrix(.72651 -59.46295 25.62462 .31308 55.4 107.3)"/><circle r="1" fill="#744b35" transform="rotate(-1.4 6604 -6944) scale(119.81084 22.0986)"/><circle r="1" fill="#fff" transform="rotate(79.6 94 181) scale(122.99601 17.92867)"/><circle r="1" fill="#fff" transform="rotate(-59.1 33 -26.9) scale(25.42357 31.13003)"/><path fill="#754418" d="M67-3.6l37-2.6 7 99.8-37 2.6z"/><circle r="1" fill="#8a6037" transform="matrix(37.70607 -8.98285 7.56919 31.77212 196.7 70.9)"/><path fill="#fff" d="M103-1l10 71 158-80z"/><ellipse cx="2" cy="104" fill="#fff" rx="20" ry="123"/><circle r="1" fill="#f6fcff" transform="matrix(-27.61925 -17.39277 9.47142 -15.04036 140 110.6)"/><ellipse cx="108" cy="191" fill="#e4f3ff" rx="86" ry="16"/><ellipse cx="209" cy="168" fill="#5d3923" rx="14" ry="70"/><path fill="#fff" d="M251.2 83.9l14.2 32-36.6 16.2-14.2-32z"/><ellipse cx="32" cy="68" fill="#573a19" rx="11" ry="30"/><circle r="1" fill="#d9e5fc" transform="matrix(-10.85812 -5.4332 9.69236 -19.36994 80 115.5)"/><circle r="1" fill="#fff" transform="matrix(15.35843 -3.64881 16.73473 70.43914 249.2 18.4)"/><circle r="1" fill="#755641" transform="matrix(78.83106 4.66767 -.5092 8.5996 142.4 79.5)"/><circle r="1" fill="#edfbfb" transform="rotate(-30.1 76.4 -78.2) scale(18.81642 34.73139)"/><path fill="#76593e" d="M86 88L50 23l-7 82z"/><path fill="#7c6551" d="M133 32h7v148h-7z"/><path fill="#ebebff" d="M176.9 111.7l25-23.3-2.5 44.9-17.7.7z"/><circle r="1" fill="#f4faff" transform="matrix(-12.20093 5.15388 -46.77585 -110.73394 16.1 132)"/><ellipse cx="163" cy="9" fill="#fff" rx="53" ry="22"/><circle r="1" fill="#b47c57" transform="matrix(21.16028 -57.38273 35.28002 13.00975 255 177.6)"/><path fill="#4d4947" d="M93 112h21v28H93z"/><circle cx="36" cy="1" r="30" fill="#f6ffff"/><path fill="#c9a475" d="M213 109l7-119 33 87z"/><path fill="#fff" d="M141.4 72.9l.3-43.3L184.5-16l-21.9 81.9z"/><path fill="#8b7361" d="M175.8 29.5L149.4 92l28.6 19 2.6-82.9z"/><ellipse cx="145" cy="101" fill="#fff" rx="7" ry="20"/><path fill="#cfd4f8" d="M148 166l46 18-88 23z"/><ellipse cx="5" cy="96" fill="#fff" rx="18" ry="78"/><path fill="#fff" d="M239 3h17v63h-17z"/><path fill="#80695e" d="M62 136h43v44H62z"/><circle r="1" fill="#755e44" transform="matrix(-8.15163 2.55456 -9.88847 -31.55414 31.7 59.2)"/><path fill="#fff" d="M180 51l9-53 50-14z"/><path fill="#6e4f3a" d="M167 104h10v30h-10z"/><path fill="#fafeff" d="M120.9 129.8L104 94.2l35.4-5-15.7 20.5z"/><path fill="#c2c6dc" d="M-10 207l35-68 48 59z"/><path fill="#87654a" d="M181 91l37-80-5 89z"/><circle r="1" fill="#f6f4ff" transform="rotate(119.7 93.4 124.2) scale(33.79165 11.45763)"/><ellipse cx="121" cy="29" fill="#feffff" rx="14" ry="41"/><path fill="#6c5a4c" d="M24 81h56v23H24z"/><path fill="#b2936c" d="M242 48L222 6l-56 59z"/><path fill="#effeff" d="M28.5 30.7L-16 6.7 34.5-16l17.8 80.2z"/><path fill="#fff" d="M91 94l-1 23-7-1zM72 62l-1-16 6 16z"/><path fill="#a4927f" d="M92 27h9v96h-9z"/><path fill="#b68c64" d="M225 71.2l19 .6-1 25-19-.6z"/><circle r="1" fill="#6a5144" transform="matrix(-12.29258 -7.28966 14.6398 -24.68714 209.6 149.8)"/><path fill="#cacfef" d="M21.4 175.2L97.5 207l18.1-39.7 52.4 35.3z"/><path fill="#fff" d="M-6.2 207l32.5-77.6 2.8-9.8L-1.3-11.9z"/><circle r="1" fill="#654939" transform="rotate(80.7 -65.2 100.8) scale(17.46191 7.4948)"/><path fill="#e9f6fe" d="M-16 64.6L62.2-16l13.7 81.3L23.7-16z"/><path fill="#c5c3d8" d="M164 136l3-52-28 49z"/><path fill="#fff" d="M130 104l-14 8 4-34z"/><circle r="1" fill="#9b8066" transform="matrix(-4.48718 -44.17546 7.07087 -.71823 58 78)"/><circle r="1" fill="#a88068" transform="matrix(18.61603 -39.23628 21.40696 10.15674 247.7 162.6)"/><circle r="1" fill="#fff" transform="matrix(-15.47056 -4.29317 12.72595 -45.85828 163.3 16.6)"/><ellipse cx="150" cy="76" fill="#82604b" rx="50" ry="7"/><ellipse cx="135" cy="91" fill="#8f7e70" rx="4" ry="53"/><path fill="#abacbf" d="M97 135.1l-24.3-28.5-8.9-5 3.1 36.9z"/><path fill="#95929d" d="M196.9 177.1l-6-4.7-29.4-8.5-87.2 18.8z"/><path fill="#fff" d="M241 0h15v66h-15z"/><path fill="#764f3a" d="M76 36h15v53H76z"/><path fill="#726058" d="M65 161h77v13H65z"/><path fill="#604d42" d="M52.5 100.7l-2.8-31.4-8.4-21.5-15.5 60z"/><path fill="#1f1b0c" d="M146 120h5v5h-5z"/><path fill="#be9d7e" d="M236.7 99.4l8-9.4 11.5-24.4-37.4 2.7z"/><path fill="#4d4e56" d="M111 131l-6-13 9-22z"/><path fill="#e1e8f4" d="M112 80h3v29h-3z"/><path fill="#fff" d="M163 31l105-47L88-9zm-24 78l26 9-25-37z"/><path fill="#68422a" d="M142 74h3v15h-3z"/><ellipse cx="55" cy="185" fill="#c6cbdf" rx="8" ry="23"/><path fill="#b0acbd" d="M108 150h15v10h-15z"/><path fill="#6a5143" d="M154 78h6v26h-6z"/><path fill="#fff" d="M267.8 67L249 103.5l-8.9-4.5L259 62.5z"/><path fill="#998770" d="M168.2 47.8L182 27.9l-1.5 18.8-2.8 47.4z"/><path fill="#eef0f3" d="M131.3 90.2L98.8 95l1.6 19.1 1.8-11.8z"/><circle r="1" fill="#d1ccd9" transform="matrix(1.12045 20.0407 -9.63769 .53883 192.3 116.6)"/><path fill="#eff9ff" d="M108 10h21v60h-21z"/><path fill="#eee8f4" d="M217 98l5 18 43-22z"/><path fill="#9e7967" d="M210 133l-136 3 102 28z"/><path fill="#956a43" d="M113-12L66-3l7 45z"/><path fill="#b2bcda" d="M95.5 173.2l-1.8 15.3-22-4L84.9 169z"/><path fill="#fff" d="M247.7 61.2l-29.4-80.8 32-11.6 29.4 80.8zM141 0h17v70h-17z"/><path fill="#7b5e4d" d="M213.7 45.9l-15.1 41.3 3.1 19.4 18.6 74.1z"/><path fill="#bdbfda" d="M115 111h17v18h-17z"/><path fill="#7f6456" d="M174 167l-9 14-8-34z"/><path fill="#d4d3eb" d="M193 199l-52-4 41-25z"/><path fill="#fff" d="M115 89h18v18h-18z"/><path fill="#896046" d="M48 146l5-32-29-10z"/><path fill="#846c5d" d="M93 83h7v52h-7z"/><path fill="#c0c1c1" d="M39.6 161.6l-28.2 1.5 16.1-34.6 10.2 18.4z"/><path fill="#a2997d" d="M25.7 58.3l4.6 55.1-9.8-52.6 3.4-39z"/><path fill="#554743" d="M209.3 146.1l.9-31.4-8.3 64.8-21.7-14.7z"/></g></g></svg>