<svg xmlns="http://www.w3.org/2000/svg" viewBox="0 0 1200 800"><defs/><filter id="a"><feGaussianBlur stdDeviation="12"/></filter><rect width="100%" height="100%" fill="#56442a"/><g filter="url(#a)"><g fill-opacity=".5" transform="translate(2.3 2.3) scale(4.6875)"><circle r="1" fill="#bfae84" transform="rotate(-135.2 63.1 18.3) scale(120.88221 220.23111)"/><circle r="1" fill="#bcc1aa" transform="matrix(-44.96365 -31.65884 16.36374 -23.2407 115.5 107.5)"/><circle r="1" fill="#e7f0ef" transform="matrix(10.3854 -1.09155 6.16135 58.6213 69.8 0)"/><ellipse cx="148" cy="35" fill="#5a451c" rx="67" ry="27"/><circle r="1" fill="#fff" transform="matrix(-.00554 -3.17139 31.7012 -.05533 208.2 126.8)"/><path fill="#795f33" d="M144 0h112v106H144z"/><ellipse cx="166" cy="166" fill="#d8c8ae" rx="59" ry="8"/><path fill="#f7e9b9" d="M29.5 172.4l4.4-27.7 30.6 4.9-4.4 27.7z"/><ellipse cx="54" cy="82" fill="#503b1d" rx="11" ry="58"/><ellipse cx="119" cy="98" fill="#fff" rx="9" ry="10"/><ellipse cx="26" cy="47" fill="#1b0000" rx="3" ry="169"/><circle r="1" fill="#543818" transform="matrix(19.9258 .839 -1.24131 29.48074 94.5 169)"/><path fill="#fff" d="M117 160h51v4h-51z"/><path fill="#a29f7a" d="M206 57.3l-18.6 16.8L152 34.7l18.6-16.8z"/><path fill="#c4d0cb" d="M161 120h73v10h-73z"/><path fill="#463318" d="M77.3 94.3l41.5-85.6 38.8 40.4-49.1 4.1z"/><circle r="1" fill="#482d0d" transform="matrix(-6.70125 5.33555 -23.39197 -29.37942 216.3 61.6)"/><path fill="#442b0e" d="M163.2 136.7l.9-51.8 70.9-2.4-80.5-18.1z"/><ellipse cx="199" cy="151" fill="#372511" rx="37" ry="11"/><path fill="#b7a784" d="M66 29h16v126H66z"/><path fill="#bca780" d="M-12 93.5h34v89h-34z"/><path fill="#cfb883" d="M29.5 108.9l11.8-22.6 4.3 55.2-14.8 36.4z"/><path fill="#d9dfde" d="M57.6 12.7l24.7 23.4-.6-52.1h-44z"/><ellipse cx="245" cy="124" fill="#846644" rx="11" ry="169"/><path fill="#b4bfa3" d="M166 93l-1 25 42 1z"/><path fill="#1b180d" d="M229.1 99.8l6.4 17.9-101-34.7 78.1 31z"/><ellipse cx="111" cy="12" fill="#dfc387" rx="32" ry="4"/><ellipse cx="141" cy="138" fill="#e4bd68" rx="38" ry="6"/><path fill="#a9ae8e" d="M222.5 79.3l15.8 29.1-41.5-24.7 24.2 2.2z"/><path fill="#412202" d="M158 12l45 24-51-50z"/><circle r="1" fill="#6b5a37" transform="rotate(51.8 12.2 71.4) scale(63.7731 1.75479)"/><ellipse cx="134" cy="154" fill="#533715" rx="59" ry="4"/><path fill="#30220a" d="M93.4 27.8L78.5 55.5l21.4-19.7 32.2-14.2z"/><path fill="#8c927a" d="M158.9 114.5l-27.8-60.4-29-2.8L95.9 68z"/><path fill="#fff" d="M181 127h44v3h-44z"/><path fill="#8a7048" d="M70 165h165v5H70z"/><path fill="#432f19" d="M189 131h47v21h-47z"/><path fill="#c6cbba" d="M72 44h5v109h-5z"/><path fill="#00000c" d="M160 86h4v33h-4z"/><path fill="#594317" d="M83 130h100v2H83z"/><path fill="#998e65" d="M221 69l-42 6-8-59z"/><circle r="1" fill="#9d7b3d" transform="matrix(23.99111 -8.68466 15.01217 41.47067 207.6 1.1)"/><path fill="#fff" d="M115 160h61v4h-61z"/><path fill="#b7c09c" d="M138 46.3l2.3-1.3 1.8-2.4-14.8-13z"/><circle r="1" fill="#482608" transform="matrix(-1.7439 -.8021 16.33574 -35.51646 97.2 59.3)"/><path d="M222 106h13v12h-13z"/><circle r="1" fill="#846d41" transform="matrix(4.78895 -6.21038 49.46652 38.14465 159.2 33.7)"/><path fill="#898977" d="M171 119h64v7h-64z"/><path fill="#45290a" d="M233.9 90.4l-9-18.8L139-16l97.7 86.3z"/><path fill="#4c4f3c" d="M54.7 146.6l-10.4-32.1v38.2l-1.9 2.8z"/><path fill="#b3ae8e" d="M228.6 42.9l-7.8 16.2-.3-25.6 3.2.7z"/><circle r="1" fill="#443214" transform="rotate(-137.6 121.5 13.6) scale(25.77658 2.78262)"/><path fill="#7f5b2e" d="M77 127.5v-47h4v47z"/><path fill="#aba087" d="M33 11l40 20-47-47z"/><path fill="#9da28e" d="M127 91h33v36h-33z"/><path fill="#ae9362" d="M73.1 163.2l-8.9 13.9-7.7 7.4-.1-70z"/><circle r="1" fill="#846f4f" transform="matrix(26.38026 2.95902 -.56409 5.02894 195.8 161.7)"/><circle r="1" fill="#9b9f84" transform="matrix(2.22014 1.41984 -16.4972 25.79595 88 58.6)"/><path fill="#1b0700" d="M83 48h40v3H83z"/><path fill="#3d2503" d="M83 83h8v7h-8z"/><path fill="#faf9e9" d="M81-16L65-4l16 30z"/><path fill="#3f1d02" d="M118.5 16.3l27.8 53.9-1 2.9-16.8-27.9z"/><path fill="#b6c3bb" d="M177.8 27l9.3 9-4.9 5-9.3-9z"/><ellipse cx="24" cy="44" fill="#422709" rx="2" ry="84"/><path fill="#48432e" d="M62 37h3v102h-3z"/><path fill="#4d411d" d="M155.5 6.5L115 9l1.5-25 15.9 23.6z"/><path fill="#2d1a02" d="M115 58V17l12-1z"/><path fill="azure" d="M113 91h12v14h-12z"/><path fill="#bfa66f" d="M108 0h7v24h-7z"/><path fill="#9aa191" d="M82 89h31v40H82z"/><ellipse cx="6" fill="#998467" rx="15" ry="137"/><path fill="#775c40" d="M83 122h57v2H83z"/><path fill="#422405" d="M193 74l43 1-7 10z"/><path fill="#cae2f1" d="M223 119h13v3h-13z"/><path fill="#704b20" d="M169.8 78l-23.3 8.3 52.4 4.6-70.4-73.8z"/><path fill="#9c8c5c" d="M126 143h42v10h-42z"/><path fill="#997f53" d="M65 22h6v82h-6z"/><ellipse cx="81" cy="58" fill="#bec8c3" rx="1" ry="84"/><path fill="#e6dbb5" d="M38 153h14v17H38z"/><path fill="#8d6d45" d="M138 165l-43 20-17-28z"/><circle r="1" fill="#483d25" transform="matrix(1.06097 6.61483 -13.8813 2.22646 90.2 151)"/><path fill="#c3c9b3" d="M164 116h26v6h-26z"/><path fill="#5c685a" d="M44 16h7v78h-7z"/><path fill="#bc9972" d="M148.5 21.6l-4.3 2.5-22.7-37.7 4.3-2.5z"/><circle cx="219" cy="90" r="7" fill="#b2b79a"/><path fill="#7f7855" d="M143 52h16v32h-16z"/><path fill="#9c9d80" d="M104.1 79.5L93 73l13-22.5 11 6.5z"/><ellipse cx="60" cy="89" fill="#8a6434" rx="4" ry="54"/><ellipse cx="38" cy="143" fill="#c9b78a" rx="6" ry="28"/><path fill="#3c311d" d="M162.6 88.4l16.1 10-36.6-12.9 39.8-.7z"/><path fill="#a3875d" d="M31 10h13v97H31z"/><path fill="#e3d29c" d="M86 9h16v7H86z"/><path fill="#fff" d="M204.5 129l31-1v1l-31 1zM146 160h26v5h-26z"/><ellipse cx="222" cy="41" fill="#d0d4ba" rx="2" ry="10"/><path fill="#aaaf91" d="M187.4 67.1l-5-10.4-10.1-5.8 2.9 13.6z"/><path fill="#73532c" d="M178 131h43v12h-43z"/><path fill="#7d683f" d="M124.2 133L94 122.8l10.6 28.9-15.1-18.8z"/><path fill="#928b62" d="M226.6 128.2l-40.5-11.4-11.5-18.3 27.2 13.3z"/><path fill="#4f4125" d="M50 23h3v124h-3z"/></g></g></svg>