<svg xmlns="http://www.w3.org/2000/svg" viewBox="0 0 1200 800"><defs/><filter id="a"><feGaussianBlur stdDeviation="12"/></filter><rect width="100%" height="100%" fill="#4e423a"/><g filter="url(#a)"><g fill-opacity=".5" transform="translate(2.3 2.3) scale(4.6875)"><circle r="1" fill="#fff" transform="rotate(-100.4 158.2 -.7) scale(36.45069 200.92933)"/><ellipse cx="23" cy="4" fill="#feffff" rx="15" ry="71"/><circle r="1" fill="#919688" transform="matrix(55.215 69.91431 -108.9534 86.04622 198.2 36)"/><circle r="1" fill="#fff" transform="matrix(-4.79485 -24.23315 159.56124 -31.57131 169 163.1)"/><circle r="1" fill="#708395" transform="matrix(-22.26734 1.73103 -5.58892 -71.89383 29.3 152.2)"/><path fill="#4c4b43" d="M138.3 44.6l15.3 96.8-87.9 14-15.3-96.8z"/><circle r="1" fill="#e6ffff" transform="matrix(-10.70196 -4.36805 11.371 -27.8596 25 13.8)"/><ellipse cx="197" cy="44" fill="#cdd0c8" rx="4" ry="83"/><path fill="#34342b" d="M11 59l70-72-1 165z"/><ellipse cx="92" cy="102" fill="#9a8f78" rx="12" ry="53"/><ellipse cx="250" cy="79" fill="#a7a79e" rx="8" ry="169"/><path fill="#514e43" d="M199 86l3 36 69-5z"/><path d="M103.5 63h9v58h-9z"/><circle r="1" fill="#989a91" transform="matrix(-17.57901 -8.50003 15.5723 -32.20527 184 27.6)"/><ellipse cx="165" cy="79" fill="#fff" rx="2" ry="92"/><path fill="#6c737c" d="M72.1 157.4l-93.8 14.9-4.4-27.7 93.8-14.9z"/><path fill="#2c2c21" d="M194 107.8l-10.7.8L195.7 40l-.8 47.5z"/><ellipse cx="136" cy="21" fill="#2c260f" rx="5" ry="55"/><ellipse cx="22" cy="68" fill="#788387" rx="11" ry="30"/><ellipse cy="71" fill="#111712" rx="11" ry="60"/><path fill="#685c4a" d="M129.6 128.7l65.2-12.5-12.2 14.7-38 9.1z"/><circle r="1" fill="#817d6d" transform="rotate(-91.9 54.6 -41.6) scale(64.59526 10.54772)"/><path fill="#edefeb" d="M238.4 122.9l5.7 27.1-7.2 11-74-24.5z"/><ellipse cx="126" cy="96" fill="#b8bfc4" rx="2" ry="134"/><ellipse cx="246" cy="100" fill="#c1beb1" rx="3" ry="136"/><path fill="#534f4d" d="M250 0h6v125h-6z"/><circle r="1" fill="#222422" transform="rotate(179.2 55 21.5) scale(1.80844 88.44184)"/><path fill="#575d5e" d="M39.9 5.6l12.6 3.1-10.4 41.7-12.6-3.1z"/><path fill="#637079" d="M233.4 167.3l-24.5 10.6 17.9-17.3 18.9-.5z"/><ellipse cx="142" cy="48" fill="#a79f8d" rx="2" ry="91"/><path fill="#c9dcf5" d="M33.7 40.3l-.4-46.4-22.2-4.6-1.2 50.4z"/><path fill="#1a191b" d="M38 88l25 42-9-105z"/><path fill="#685a41" d="M178 94h-10V-2h10z"/><ellipse cx="198" cy="53" fill="#d2d9da" rx="2" ry="103"/><path fill="#f7faf9" d="M249 125h7v45h-7z"/><path fill="#79827e" d="M199 0h36v52h-36z"/><path fill="#5e6a6e" d="M141.9 162.3l170-45.6.2 1-170 45.6z"/><path fill="#fbfbf0" d="M28 171l61 13 74-39z"/><ellipse cx="152" cy="28" fill="#aba697" rx="2" ry="119"/><path fill="#292a2b" d="M114.9 123.6l15.6 9-4-3.3L115.8 52z"/><ellipse cx="188" cy="5" fill="#aabdcb" rx="4" ry="43"/><ellipse cx="113" cy="52" fill="#97a0a7" rx="2" ry="62"/><circle r="1" fill="#2f3233" transform="matrix(42.81913 -4.00553 .35655 3.8115 19.2 129.5)"/><path fill="#535447" d="M200 50h14v75h-14z"/><path fill="#282919" d="M118 31h7v35h-7z"/><circle r="1" fill="#73767b" transform="rotate(-105 67.3 75.6) scale(9.58819 59.85245)"/><ellipse cx="165" cy="107" fill="#dce1d6" rx="2" ry="49"/><path fill="#020101" d="M185 80h10v13h-10z"/><path fill="#242728" d="M141 122l-15 6 13-37z"/><path fill="#fffffa" d="M189 181l-4.7-15.3L213 157l4.7 15.3z"/><path fill="#5d503a" d="M234 10h9v112h-9z"/><path fill="#737674" d="M155 140l-71 15-4-39z"/><path fill="#d9cda8" d="M214 56h2v62h-2z"/><path fill="#c3c7bd" d="M94 152l-42 33-48-16z"/><path fill="#68614d" d="M78 0h22v49H78z"/><path fill="#55575a" d="M16.2 38.3l4 .7-4.4 24.7-4-.7z"/><circle r="1" fill="#e7f2f5" transform="matrix(.36808 -10.4334 .99938 .03526 179.6 47.7)"/><path fill="#626d71" d="M173.2 154.6l-84.1 25.7-.3-1 84.1-25.6z"/><ellipse cx="12" cy="43" fill="#fff" rx="2" ry="9"/><path fill="#5c6167" d="M84.4 155.4l-17.5-17-36.3-61.6 17.3 82.5z"/><path fill="#685e4f" d="M171.9-16l-1.8 37.3L205 28l-18.4-7.6z"/><circle r="1" fill="#758185" transform="rotate(108.6 48.8 151) scale(1 41.52055)"/><circle r="1" fill="#bcc2c4" transform="matrix(-1 -.0035 .4586 -131.37597 247.8 121.4)"/><ellipse cx="245" cy="156" fill="#9c9178" rx="2" ry="169"/><path fill="#7b838a" d="M200 185l71-42.3v12.5l-41.1 6.9z"/><path fill="#a39c8a" d="M181 62h4v56h-4z"/><path fill="#919b9d" d="M234.8 32.5v22.3l-16.3-41.4 6.9 3.2z"/><path fill="#8f9895" d="M154.7 155.4l36.5 22.3-4.8-7.3-19.6-11.1z"/><path fill="#5b5d5b" d="M35.6 20.7L51.7-16 37.1 58.9l-5.8-15.5z"/><path fill="#8b8c89" d="M14 43h18v32H14z"/><path fill="#f8f9f2" d="M149 147l40-2-58 19z"/><path fill="#9d9685" d="M230.9 110.2l-30.6 9.8-5 47.6-.3-32.7z"/><path fill="#ecf4ed" d="M251 52h2v13h-2z"/><path fill="#778487" d="M163.7 163.1L132 175.3l65-20.3-14.1 7.1z"/><path fill="#51492d" d="M208 18.4l-.6 2-25.5-8.8.7-2z"/><ellipse cx="103" cy="31" fill="#a39b8d" rx="2" ry="49"/><path fill="#6a5941" d="M156 0h7v138h-7z"/><path fill="#4c4f51" d="M16.4 169.8L74.5 157 33.6 63.2l42 95.2z"/><path fill="#aca58f" d="M163 0h2v133h-2z"/><path fill="#2a2a1d" d="M115 0h10v10h-10z"/><path fill="#0a0a11" d="M105 65h8v50h-8z"/><path fill="#93896d" d="M64 81h4v19h-4z"/><path fill="#85867b" d="M126 31.5l3.5 41.1 6.8-39.9-9.7 7.6z"/><path fill="#70614a" d="M143 0h8v138h-8z"/><path fill="#a4b3c1" d="M215.9 36.3l-10.3.2-25.2-13.1 25.6 6.4z"/><path fill="#c2cfdb" d="M44-3L9 30v-46z"/><path fill="#2b3127" d="M10 79l10-7 27 9z"/><path fill="#d2dfea" d="M45.4-16L19.6 27.3l10.1 16.1 1.6-7.2z"/><path fill="#a3a9a3" d="M105.9 147.1l29.3 3.4L75.1 163l93.1-28.2z"/><ellipse cx="30" cy="87" fill="#23272a" rx="27" ry="2"/><path fill="#8b7d5f" d="M67.3 12.4l1.4 21-4 .2-1.4-21z"/><path fill="#666555" d="M181 50h14v32h-14z"/><path fill="#282927" d="M-13 96.4l74 1.2v4l-74-1.2z"/><path fill="#1b1a11" d="M131 55h9v15h-9z"/><path fill="#57533d" d="M200.8-1L241 14.4l-1.8 4.6L199 3.6z"/><circle cx="223" cy="61" r="8" fill="#4e4c3d"/><path fill="#332b1c" d="M81 124L42 92l39 58z"/><path fill="#74634b" d="M184 132h-14l-2-47z"/><path fill="#79848b" d="M228 127l-51.8 11-.2-1 51.8-11z"/><path fill="#9ca0a2" d="M44.8 18.8l-2.9 8.8 3.5-19.9-3.7-.8z"/></g></g></svg>