<svg xmlns="http://www.w3.org/2000/svg" viewBox="0 0 1200 900"><defs/><filter id="prefix__a"><feGaussianBlur stdDeviation="12"/></filter><rect width="100%" height="100%" fill="#474530"/><g filter="url(#prefix__a)"><g transform="translate(2.3 2.3) scale(4.6875)"><circle r="1" fill="#fff" fill-opacity=".5" transform="rotate(-177.9 37.5 9.5) scale(255 39.4958)"/><circle r="1" fill="#fff" fill-opacity=".5" transform="matrix(-254.96116 4.45036 -.77854 -44.60269 141.6 0)"/><path fill="#fff" fill-opacity=".5" d="M145.5-3.8l2 115-37 .6-2-115z"/><circle r="1" fill-opacity=".5" transform="matrix(-8.25509 -30.4457 46.32798 -12.56143 63.3 74.2)"/><circle r="1" fill="#8a857d" fill-opacity=".5" transform="rotate(90.6 -10 146) scale(35.73322 198.95659)"/><path fill="#000005" fill-opacity=".5" d="M146 43h77v76h-77z"/><circle r="1" fill="#fff" fill-opacity=".5" transform="matrix(238.31424 -10.73732 .96422 21.40081 78.3 21.6)"/><path fill="#fff" fill-opacity=".5" d="M271-8L67-3l187 61z"/><path fill="#fff" fill-opacity=".5" d="M110 21h36v65h-36z"/><path fill="#1f231b" fill-opacity=".5" d="M0 87h256v25H0z"/><path fill="#fff" fill-opacity=".5" d="M0 0h35v57H0z"/><path fill="#3e3d35" fill-opacity=".5" d="M185.9 82.9l-38.5-54.5-.7 53.2.2 70.5z"/><path fill="#191b19" fill-opacity=".5" d="M32 44h74v76H32z"/><ellipse cx="244" cy="80" fill="#080b0e" fill-opacity=".5" rx="35" ry="23"/><path fill="#070a06" fill-opacity=".5" d="M156 44h67v17h-67z"/><ellipse cx="73" cy="8" fill="#fff" fill-opacity=".5" rx="93" ry="35"/><path fill="#fff" fill-opacity=".5" d="M224 40h32v18h-32z"/><circle r="1" fill="#817a6c" fill-opacity=".5" transform="matrix(24.90036 1.27455 -3.86603 75.52917 126.2 168.7)"/><path fill="#00030a" fill-opacity=".5" d="M0 58h24v51H0z"/><path fill="#fff" fill-opacity=".5" d="M61.7-7.3l72.5 5.2 12.2 59.8-9.6 31.2z"/><path fill="#25261f" fill-opacity=".5" d="M37 43h66v78H37z"/><circle cx="10" cy="26" r="32" fill="#eff5fb" fill-opacity=".5"/><path fill="#fff" fill-opacity=".5" d="M154 38l82 7-36-61z"/><circle cx="252" cy="182" r="72" fill="#57594d" fill-opacity=".5"/><path fill="#434442" fill-opacity=".5" d="M145 26l4 49 25-1z"/><path fill="#b4aba1" fill-opacity=".5" d="M113 104h32v7h-32z"/><ellipse cx="112" cy="160" fill="#797364" fill-opacity=".5" rx="64" ry="31"/><circle cx="90" cy="62" r="20" fill="#2e2e2d" fill-opacity=".5"/><circle r="1" fill="#292b1a" fill-opacity=".5" transform="rotate(-15.3 535.8 -548.3) scale(29.20774 5.36731)"/><path fill="#f2f4f5" fill-opacity=".5" d="M17.2 2.3l-23.3 57 29-4.9L36 58.8z"/><circle r="1" fill="#24251e" fill-opacity=".5" transform="matrix(23.5252 -16.71848 15.96357 22.46292 225.6 85)"/><path fill="#23241e" fill-opacity=".5" d="M34 44h55v78H34z"/><circle r="1" fill="#484949" fill-opacity=".5" transform="matrix(-74.41363 -24.43306 4.59848 -14.00517 11.5 183.1)"/><path fill="#ecf1f8" fill-opacity=".5" d="M111 58h34v26h-34z"/><path fill="#e4f0f8" fill-opacity=".5" d="M225 25h31v32h-31z"/><ellipse cx="123" cy="22" fill="#fff" fill-opacity=".5" rx="24" ry="38"/><path fill="#173600" fill-opacity=".5" d="M104 101h51v2h-51z"/><path fill="#3d4032" fill-opacity=".5" d="M271 165l-17 41-24-34z"/><path fill="#fff" fill-opacity=".5" d="M157 10h45v32h-45z"/><ellipse cx="18" cy="126" fill="#5a5848" fill-opacity=".5" rx="241" ry="5"/><path fill="#686656" fill-opacity=".5" d="M157 63h22v6h-22z"/><circle r="1" fill="#fff" fill-opacity=".5" transform="matrix(37.24201 1.4958 -.34314 8.54337 60.5 35.5)"/><path fill="#84996d" fill-opacity=".5" d="M127.1 84l19.5 3.7-5.1 12.8-29.6-4.3z"/><path fill="#f2f3f4" fill-opacity=".5" d="M189 20h25v24h-25z"/><path fill="#524e3a" fill-opacity=".5" d="M167 173h36v19h-36z"/><circle cx="200" cy="85" r="35" fill="#26261f" fill-opacity=".5"/><circle r="1" fill="#fff" fill-opacity=".5" transform="matrix(-4.55078 -14.7686 81.70445 -25.17634 225.1 2.3)"/><path fill="#22221a" fill-opacity=".5" d="M271 103.9l-99.5 13.9-29.2 18.5L164 97.6z"/><path fill="#212320" fill-opacity=".5" d="M223 43l-9 46-19-46z"/><ellipse cx="37" cy="83" fill="#20211c" fill-opacity=".5" rx="38" ry="27"/><circle r="1" fill="#dde7f2" fill-opacity=".5" transform="matrix(-27.10994 -11.38406 5.03127 -11.98143 14 2)"/><ellipse cx="201" cy="140" fill="#777361" fill-opacity=".5" rx="54" ry="6"/><circle r="1" fill="#847d6e" fill-opacity=".5" transform="matrix(-11.30331 -31.56892 4.82735 -1.72844 161.3 177.1)"/><ellipse cx="138" cy="174" fill="#575138" fill-opacity=".5" rx="149" ry="2"/><path fill="#525455" fill-opacity=".5" d="M146 31h2v85h-2z"/><path fill="#2e2e27" fill-opacity=".5" d="M71 53h38v37H71z"/><path fill="#3d3c37" fill-opacity=".5" d="M152.8 106.3l-7.6-66.2.4 13.2 27-7.9z"/><path fill="#eff2f4" fill-opacity=".5" d="M0 37h34v19H0z"/><path fill="#595a54" fill-opacity=".5" d="M-.2 161.4l-10.6-39.6 27-7.2 10.6 39.6z"/><ellipse cx="43" cy="140" fill="#7b7769" fill-opacity=".5" rx="57" ry="5"/><ellipse cx="164" cy="133" fill="#635f49" fill-opacity=".5" rx="86" ry="4"/><path fill="#7d7576" fill-opacity=".5" d="M117 111h20v10h-20z"/><path fill="#857e71" fill-opacity=".5" d="M99 148l-12 19 73-7z"/><path fill="#f8f6f2" fill-opacity=".5" d="M227 48.1l3.9-5.7 40.1 4.4-49.7 9.8z"/><circle r="1" fill="#15191d" fill-opacity=".5" transform="matrix(-20.07039 -5.06425 2.30637 -9.14049 255 67.7)"/><circle r="1" fill="#fff" fill-opacity=".5" transform="matrix(-16.96423 14.20482 -26.0878 -31.15558 75.7 8)"/><path fill="#d7e3ee" fill-opacity=".5" d="M271 3l-20 34-38 7z"/><path fill="#525547" fill-opacity=".5" d="M223 109h33v26h-33z"/><path fill="#406a36" fill-opacity=".5" d="M114 91h32v3h-32z"/><path fill="#dbdee1" fill-opacity=".5" d="M112 71h35v14h-35z"/><path fill="#fff" fill-opacity=".5" d="M158 43l13-17-28-10z"/><path fill="#525026" fill-opacity=".5" d="M143 119l40.8 83.6-.9.4-40.7-83.6z"/><ellipse cx="131" cy="149" fill="#5a5625" fill-opacity=".5" rx="48" ry="1"/><path fill="#1e1f15" fill-opacity=".5" d="M70.4 123l47-8.7-5.3-3.1-98.3-9.8z"/><path fill="#555242" fill-opacity=".5" d="M182.8 64.9l-21.1-4.2-4 22.8 10-12.5z"/><path fill="#444647" fill-opacity=".5" d="M148.7 32.3L163.4 55l-4.1 2.7L144.6 35z"/><path fill="#55564b" fill-opacity=".5" d="M0 203l84-30-20 34z"/><path fill="#484725" fill-opacity=".5" d="M177.4 120.4l.6-.8 60.6 44-.6.8z"/><path fill="#767a71" fill-opacity=".5" d="M215.7 186.2l2.5-7.6 16.1 5.2-2.5 7.6z"/><path fill="#807d72" fill-opacity=".5" d="M82.5 175.1L73.1 196l42.7-16.1-15.7-4.3z"/><path fill="none" stroke="#575746" stroke-opacity=".5" stroke-width=".5" d="M107.2 52.7q18.5 99.4-59.5 146"/><circle r="1" fill="#302f29" fill-opacity=".5" transform="matrix(8.73048 5.12734 -13.06466 22.2456 95 76)"/><circle r="1" fill="#5c583b" fill-opacity=".5" transform="rotate(28.8 -274 252.2) scale(1 61.8612)"/><path fill="#262927" fill-opacity=".5" d="M193 45h31v6h-31z"/><path fill="#6d695f" fill-opacity=".5" d="M187 150h66v9h-66z"/><path fill="#242520" fill-opacity=".5" d="M34 44h21v63H34z"/><path fill="#36393c" fill-opacity=".5" d="M40 44h58v5H40z"/><path fill="#696860" fill-opacity=".5" d="M186 176h43v7h-43z"/><ellipse cx="71" cy="148" fill="#54512c" fill-opacity=".5" rx="36" ry="1"/><ellipse cx="128" cy="97" fill="#948d59" fill-opacity=".5" rx="17" ry="3"/><path fill="#333533" fill-opacity=".5" d="M147 54h8v79h-8z"/><path fill="#517817" fill-opacity=".5" d="M109.5 99.2l33 .6v1l-33-.6z"/><path fill="#8492a2" fill-opacity=".5" d="M118 86h27v3h-27z"/><path fill="#23241b" fill-opacity=".5" d="M239 58l-17 60-66 2z"/><path fill="#7b776b" fill-opacity=".5" d="M43 150h41v9H43z"/><path fill="#fff" fill-opacity=".5" d="M128.4 47.2l26.1-24.3L90 16.3l19.6 38.5z"/><path fill="#424343" fill-opacity=".5" d="M4.2 174.7l-5-37.8-15.2 61.9 79.3 8.2z"/><path fill="#33332c" fill-opacity=".5" d="M156 43h17v19h-17z"/><path fill="#857f6f" fill-opacity=".5" d="M119 149l41 24 1-21z"/><path fill="#414439" fill-opacity=".5" d="M164 190h78v2h-78z"/></g></g></svg>