<svg xmlns="http://www.w3.org/2000/svg" viewBox="0 0 1200 900"><defs/><filter id="a"><feGaussianBlur stdDeviation="12"/></filter><rect width="100%" height="100%" fill="#5a4631"/><g filter="url(#a)"><g fill-opacity=".5" transform="translate(2.3 2.3) scale(4.6875)"><circle cx="98" r="95" fill="#f8ffff"/><path fill="#b5b9c1" d="M218-33.2l43.7 28.4-33.8 52-43.6-28.4z"/><ellipse cx="142" cy="160" fill="#9a784c" rx="155" ry="40"/><path fill="#592806" d="M134 47h95v73h-95z"/><circle r="1" fill="#f3faff" transform="matrix(13.94417 1.58874 -6.00513 52.70631 124 38.4)"/><circle cx="4" cy="23" r="41" fill="#666e71"/><circle r="1" fill="#170000" transform="matrix(-3.22614 -29.80524 40.88442 -4.42535 9 102.7)"/><path fill="#d0d9dc" d="M63 4h38v83H63z"/><circle r="1" fill="#9d6b3d" transform="matrix(6.98922 -39.30727 14.00482 2.4902 170 67)"/><path fill="#774e2b" d="M51 89h115v37H51z"/><circle r="1" fill="#c3c2cb" transform="matrix(-13.50771 18.45595 -32.73723 -23.96003 134.6 16.5)"/><circle r="1" fill="#aea29f" transform="rotate(-75.8 96.8 -124.4) scale(45.05851 14.82057)"/><circle r="1" fill="#b6b7a2" transform="matrix(30.1098 15.27242 -4.01779 7.92113 57.8 80.5)"/><ellipse cx="104" cy="69" fill="#653217" rx="4" ry="35"/><path fill="#362011" d="M230.7 120.5l-17.8-90.2-10.3-10.9-9.7 97.7z"/><ellipse cx="255" cy="78" fill="#7e582d" rx="28" ry="89"/><path fill="#7e807f" d="M89.9-16L12.7 59.9-16 98.3 5.8-16z"/><path fill="#3a1300" d="M169 39l10 2-7-31z"/><circle r="1" fill="#8d7152" transform="matrix(55.3769 4.89531 -2.6065 29.48536 126.5 157)"/><path fill="#e5e9f1" d="M108 27h25v61h-25z"/><ellipse cx="146" cy="86" fill="#68411f" rx="14" ry="42"/><path fill="#aba8aa" d="M233 17l-8 36-21-41z"/><ellipse cx="19" cy="70" fill="#240400" rx="9" ry="16"/><path fill="#260e00" d="M0 118l51-48-55 20z"/><path fill="#d3d9cb" d="M56 55h46v33H56z"/><path fill="#a58457" d="M87 89h11v41H87z"/><circle cx="105" cy="50" r="7" fill="#6f4b39"/><ellipse cx="255" cy="5" fill="#626b77" rx="22" ry="23"/><circle r="1" fill="#b1b2b3" transform="matrix(17.94894 11.26014 -48.97554 78.06819 105 0)"/><circle r="1" fill="#685233" transform="rotate(-115 173.2 8.9) scale(51.9151 35.86239)"/><path fill="#5a3b23" d="M97 90h74v31H97z"/><circle r="1" fill="#663312" transform="matrix(7.73396 9.76992 -11.36806 8.99907 58.3 100.6)"/><path fill="#979a96" d="M28 81l4-69 47 16z"/><path fill="#63635e" d="M4.1-14.7L29.5-2.9 14 30.7l-25.4-11.8z"/><circle r="1" fill="#794f29" transform="matrix(-10.34017 -15.5976 6.57467 -4.35857 147 59.9)"/><ellipse cx="20" cy="164" fill="#6d5230" rx="27" ry="32"/><path fill="#9b6c3b" d="M193.8 29.4l12.3-9.4-39 52.6-27-10.7z"/><path fill="#a97548" d="M152 79h30v10h-30z"/><path fill="#bdbdc2" d="M175.7 25.3L191 18l5.3 10.8L181 36z"/><path fill="#4c2f1a" d="M231 100l-24-83-27 38z"/><circle r="1" fill="#9c723c" transform="matrix(9.26451 -13.6676 5.2718 3.57346 237.3 44.3)"/><path fill="#947b58" d="M59 116h34v8H59z"/><circle r="1" fill="#bcb8b8" transform="matrix(13.37188 -7.9831 17.38968 29.12816 147.6 17.2)"/><path fill="#291c11" d="M216 54h12v65h-12z"/><circle r="1" fill="#907a64" transform="matrix(15.43267 -2.92835 3.51417 18.52003 121.2 156.2)"/><path fill="#6e482b" d="M149 119.3l-8.6-.8-12.2-33.1 65.1 6z"/><ellipse cx="170" cy="8" fill="#805830" rx="2" ry="44"/><circle r="1" fill="#5b3715" transform="matrix(-4.9692 -.47854 4.02192 -41.76368 245 85)"/><path fill="#caccd0" d="M112.6 14.6L95 32.6l42.5 11.6 26.4 3.2z"/><path fill="#492710" d="M14.6 132.4l52.8-29-37.9-24-.1-25.7z"/><circle r="1" fill="#82827d" transform="matrix(10.33818 7.87558 -34.02738 44.66732 8.4 43.5)"/><path fill="#603b1f" d="M139 46h14v38h-14z"/><path fill="#928e8f" d="M239.3 16.4l-7.2 15.4-73.4-34.2 7.2-15.4z"/><path fill="#bcc6b7" d="M68.4 75.4L48.7 87.2l-5.1-8.6 19.7-11.8z"/><path fill="#24150e" d="M168.6 108l25.9 3.1-1.1 9-25.9-3.2z"/><path fill="#b1adb5" d="M63 0h107v16H63z"/><path fill="#d5d7ca" d="M100.8 86.3l-23.3 9-8.3-21.6 23.3-9z"/><ellipse cx="128" cy="119" fill="#231b12" rx="27" ry="2"/><path fill="#3f321e" d="M-1.6 132.4l1-13 46.2 1.9 22.1 9.8z"/><path fill="#e6ebe8" d="M109 56h19v34h-19z"/><ellipse cx="205" cy="56" fill="#54351d" rx="13" ry="31"/><path fill="#77542d" d="M230 141l7-24-94 4z"/><ellipse cx="252" cy="99" fill="#92693b" rx="3" ry="27"/><circle r="1" fill="#a2784c" transform="matrix(2.7214 -11.92238 6.89325 1.57345 176.1 50.9)"/><path fill="#2a1709" d="M35 78l-49-2 32 52z"/><path fill="#bac5d0" d="M43.1 62.4L48 7.6h1l-5 54.8z"/><path fill="#4d4642" d="M266.8-2.1l4.2 24.8L221.3-16l9.6 17.4z"/><path fill="#dfe2e5" d="M111 45h21v41h-21z"/><circle r="1" fill="#69492d" transform="rotate(5.5 -953.6 1398) scale(31.30353 7.70259)"/><path fill="#533317" d="M239 74.8L236.3 56l34.7-4.8 2.7 18.8z"/><path fill="#8c6838" d="M238 21l25 24-37 5z"/><path fill="#53250e" d="M42 74.3l7.7 33.1-9.7 2.3-7.7-33.1z"/><path fill="#80603d" d="M86 87l35 120-43-38z"/><circle r="1" fill="#c2ccdd" transform="rotate(119.6 35.4 29.6) scale(5.93985 9.48505)"/><path fill="#895a23" d="M229 58h9v64h-9z"/><path fill="#a5a29f" d="M228.6 56.7l-23-36.8L177 35.5l29.5-30.4z"/><path fill="#b0aaa6" d="M85 30.3L98.4-16l3.2 69.6 2.8-18.6z"/><path fill="#c2c0be" d="M132 22h34v23h-34z"/><path fill="#7d7770" d="M215.8-16l15 20.3-8.1 16.1L271 33.3z"/><path fill="#939588" d="M29 52h8v25h-8z"/><path fill="#623316" d="M88 103l-17 13-36-28z"/><path fill="#805734" d="M169.8 67l17.4 11.5L132 40l31.4 50.6z"/><ellipse cx="192" cy="81" fill="#553420" rx="11" ry="39"/><ellipse cx="169" cy="47" fill="#8f643b" rx="2" ry="25"/><path fill="#140d08" d="M251 30l20-7v36z"/><path fill="#dce0d4" d="M83.4 90l2.2 9.8-1 .2-2.2-9.8z"/><path fill="#56493c" d="M58.7 123.3l30 7.5-1.4 5.9-30-7.5z"/><path fill="#ab8051" d="M168.2 43l4.6 4-19 22-4.6-4z"/><circle r="1" fill="#604d34" transform="matrix(9.53673 12.87543 -23.844 17.66107 255 177)"/><path fill="#7e5731" d="M112.1 102.4l-46.7.9.9-18.5-16.8 7.3z"/><path fill="#939393" d="M47 0h18v41H47z"/><circle r="1" fill="#876742" transform="matrix(21.21759 13.15546 -8.0873 13.04348 69.9 150.7)"/><circle r="1" fill="#afb2a8" transform="rotate(15 -275.5 230.9) scale(7.17839 5.6259)"/><path fill="#6e451f" d="M81 89h2v20h-2z"/><circle r="1" fill="#46240a" transform="matrix(-12.80998 20.23524 -3.61712 -2.28983 9.4 73.7)"/><path fill="#4f351d" d="M203 20l26 38-42-9z"/><circle r="1" fill="#aaaea3" transform="matrix(7.68157 6.91652 -15.52176 17.23866 57.7 53)"/><path fill="#614332" d="M103.2 35.4l1-.4 6.6 15.6-1 .4z"/><circle r="1" fill="#795c39" transform="matrix(-10.0168 -48.62125 22.17017 -4.56743 45.6 175.5)"/><path fill="#877052" d="M65.1 119.6l22 .8-.2 8-22-.8z"/></g></g></svg>