<svg xmlns="http://www.w3.org/2000/svg" viewBox="0 0 1200 559"><defs/><filter id="a"><feGaussianBlur stdDeviation="12"/></filter><rect width="100%" height="100%" fill="#515648"/><g filter="url(#a)"><g fill-opacity=".5" transform="translate(2.3 2.3) scale(4.6875)"><circle cx="93" cy="54" r="177" fill="#fff"/><circle r="1" fill="#fff" transform="matrix(5.77388 98.02863 -174.04483 10.25123 121.8 66.5)"/><circle cx="127" cy="76" r="148" fill="#e6ffd7"/><circle r="1" fill="#53af43" transform="matrix(-12.33362 -3.55992 1.56455 -5.4205 97.8 71.8)"/><ellipse cx="149" cy="53" fill="#3fa82c" rx="9" ry="6"/><circle r="1" fill="#eaffe7" transform="matrix(-42.7421 -131.54665 21.73496 -7.06212 20.7 65)"/><circle r="1" fill="#e7ffec" transform="matrix(.5895 -27.39444 165.52218 3.5619 133.2 .5)"/><circle r="1" fill="#e9ffe4" transform="matrix(38.17382 -106.03187 27.68174 9.96604 243 73.5)"/><path fill="#caebb4" d="M121 99l-61 7-30-87z"/><ellipse cx="199" fill="#bfe699" rx="47" ry="7"/><circle r="1" fill="#d1edbf" transform="rotate(-46.6 170.7 -175.3) scale(52.90075 28.14998)"/><ellipse cx="95" cy="112" fill="#eaffea" rx="140" ry="9"/><ellipse cx="90" cy="21" fill="#d6faff" rx="150" ry="4"/><ellipse cx="112" cy="32" fill="#d0f6b6" rx="79" ry="8"/><ellipse cx="126" cy="62" fill="#edffdb" rx="16" ry="45"/><path fill="#dfffc5" d="M-4-14l-11 118 59 24z"/><circle r="1" fill="#d6faff" transform="matrix(-4.42437 -1.42578 15.06515 -46.7489 224 52.7)"/><circle r="1" fill="#dfffc5" transform="matrix(-22.59166 -6.81967 37.36472 -123.77897 252.9 90.5)"/><path fill="#68b935" d="M136 95h60v1h-60z"/><path fill="#5bb34a" d="M87 70l6 8 14-5z"/><circle r="1" fill="#d4f9ff" transform="rotate(-17.6 213 -90.1) scale(5.37915 43.82578)"/><path fill="#94d46a" d="M71.5 26.5v1l-39-2v-1z"/><path fill="#d9e5cf" d="M42 32l74 10-52 50z"/><path fill="#a0d77c" d="M58 100h145v2H58z"/><circle r="1" fill="#fffcff" transform="matrix(-22.98175 -71.57978 2.50439 -.80407 27.2 70)"/><ellipse cx="129" cy="118" fill="#c0eeff" rx="82" ry="3"/><path fill="#f5fbe5" d="M4 4h252v9H4z"/><path fill="#afdf91" d="M110.5 28.5v-1l115 4v1z"/><path fill="#d8f8ff" d="M138 19h98v9h-98z"/><path fill="#eafade" d="M117 11h18v108h-18z"/><path fill="#fff7ff" d="M0 106h217v3H0z"/><path fill="#7fc555" d="M52 95h44v1H52z"/><circle r="1" fill="#b2e592" transform="matrix(-11.48734 33.36167 -.94552 -.32557 206.9 64)"/><path fill="#d9f3be" d="M22.4 3.9L123 4l65 3-204-23z"/><circle r="1" fill="#d9f8c3" transform="matrix(60.56664 1.24153 -.05598 2.73081 59.4 11.7)"/><path fill="#a4d987" d="M56 32h62v2H56z"/><path fill="#abdc8d" d="M130.5 34l89 3v1l-89-3z"/><path fill="#fffbfe" d="M255.4 9.2l-4.9-12.3L225 98l15.7-46.5z"/><path fill="#9fd97a" d="M225.1 30.3L203.8 96l-1-.3L224.3 30z"/><path fill="#d0f5ff" d="M21 15h83v7H21z"/><path fill="#b8e09c" d="M249.9 3.5L228.4 8l17.3-.3-82.6-7z"/><ellipse cx="125" cy="111" fill="#ddf8c4" rx="111" ry="3"/><ellipse cx="204" cy="16" fill="#e4fbc5" rx="42" ry="4"/><path fill="#77b94e" d="M113.5 28v1l-43-3v-1z"/><path fill="#dae6d0" d="M139 36h55v13h-55z"/><circle r="1" fill="#fdfafa" transform="matrix(-18.51594 51.7329 -2.4472 -.87589 221.2 100.5)"/><circle r="1" fill="#fff9ff" transform="matrix(210.05782 7.33538 -.05429 1.5546 138.9 9)"/><path fill="#e4eedd" d="M87 80l2-18.6-15.3 25.2 78.4-14.1z"/><path fill="#ecffdd" d="M30 28h85v3H30z"/><path fill="#97d174" d="M62 96l-1 .3L44 44l1-.3z"/><path fill="#e3f9d5" d="M143 85l-9-81-36 61z"/><ellipse cx="225" cy="7" fill="#d8f6c6" rx="62" ry="2"/><ellipse cx="102" cy="98" fill="#e6ffd6" rx="114" ry="2"/><ellipse cx="170" cy="32" fill="#efffde" rx="35" ry="2"/><path fill="#7fc271" d="M97 66.1l-11.2 4.4 9.6 10.1 15.5-6.1z"/><circle r="1" fill="#e2f9c9" transform="rotate(72.6 -18.1 40.6) scale(80.12486 3.06663)"/><circle r="1" fill="#dae4d1" transform="matrix(-5.0045 -18.65418 26.4204 -7.088 172.6 69.6)"/><path fill="#d9e8cd" d="M52 33h40v35H52z"/><path fill="#aad38c" d="M157 1h40v2h-40z"/><path fill="#f4eefb" d="M119 100h13v12h-13z"/><ellipse cx="92" cy="95" fill="#84c55b" rx="22" ry="1"/><path fill="#cef3ff" d="M23.1 25l5.7-1.8L49 85l-5.7 1.8z"/><path fill="#74be64" d="M145 50l10-3-3 13z"/><path fill="#d4f4ff" d="M223.7 73l-13.1 31.3 2.7-27.7 21.9-59.8z"/><circle r="1" fill="#e2ffd5" transform="matrix(13.42081 -40.11058 2.35131 .78674 216.2 47.4)"/><path fill="#b0db94" d="M38.4 37.4l6.2 22.9-.7-.6-11.4-32.4z"/><path fill="#fef9ff" d="M17.6 1l-6.5 15.1L-2.8.9-.9 2z"/><ellipse cx="196" cy="30" fill="#87c062" rx="13" ry="1"/><ellipse cx="100" cy="33" fill="#88c366" rx="15" ry="1"/><path fill="#a3d383" d="M58 103.7l-1 .3-9-31.7 1-.3z"/><path fill="#a7d889" d="M34 31h35v2H34z"/><ellipse cx="160" cy="14" fill="#dbfbc1" rx="27" ry="3"/><ellipse cx="81" fill="#cdb" rx="85" ry="1"/><ellipse cx="203" cy="2" fill="#7fbd5c" rx="10" ry="1"/><circle r="1" fill="#efeaef" transform="matrix(.99993 .01204 -.76717 63.70547 132.4 46.4)"/><path fill="#dbf8c3" d="M242.8 12.2l2.8 8-8 26.8-27.9 79z"/><path fill="#d8f6fb" d="M67.2 92.3l-11 5.3-29.7-72 19.2 74.1z"/><path fill="#e4ffd4" d="M89 30h81v3H89z"/><circle cx="137" cy="32" r="2" fill="#8fc86d"/><path fill="#5aa530" d="M136 96h1v5h-1z"/><path fill="#fffaff" d="M32.9 88.1l10.7 19.8 2.7 6.2-11.5-2.8z"/><path fill="#cff3ff" d="M180 21h55v6h-55z"/><path fill="#e0f9d1" d="M94.6 93.9l49.9 1.3-11.2-42.3 24.6 10.3z"/><path fill="#efecee" d="M119 2h3v101h-3z"/><ellipse cx="230" cy="3" fill="#76b550" rx="11" ry="1"/><ellipse cx="86" cy="24" fill="#f2fedd" rx="32" ry="2"/><path fill="#d2dfc7" d="M92 36h18v23H92z"/><path fill="#efe4f7" d="M134 47l-4 7 16 5z"/><ellipse cx="223" cy="1" fill="#f0ffdf" rx="36" ry="1"/><path fill="#defacc" d="M152 2h24v6h-24z"/><path fill="#dce4d4" d="M60 79h46v14H60z"/><path fill="#99c975" d="M136 101h65v1h-65z"/><path fill="#92c76f" d="M201 103l-1-.4L215 59l1 .3z"/><ellipse cx="167" cy="29" fill="#8ac068" rx="13" ry="1"/><ellipse cx="203" cy="36" fill="#88c665" rx="12" ry="1"/><path fill="#d4f5ff" d="M22 16h95v6H22z"/><ellipse cx="163" cy="103" fill="#defac8" rx="142" ry="2"/><path fill="#d9e7cf" d="M158 37h51v19h-51z"/><path fill="#dde4db" d="M154.4 48l8.5 12.9-7.2-19.1-27 10.8z"/><circle r="1" fill="#f5ffe4" transform="rotate(91.5 78.2 103) scale(1 48.13106)"/></g></g></svg>