<svg xmlns="http://www.w3.org/2000/svg" viewBox="0 0 1200 258"><defs/><filter id="prefix__a"><feGaussianBlur stdDeviation="12"/></filter><rect width="100%" height="100%" fill="#4b4b4d"/><g filter="url(#prefix__a)"><g transform="translate(2.3 2.3) scale(4.6875)"><circle r="1" fill="#cdcfd2" fill-opacity=".5" transform="matrix(22.82844 112.93687 -152.44158 30.8137 129 53)"/><circle r="1" fill="#dddfdf" fill-opacity=".5" transform="rotate(79.9 15.3 72.7) scale(47.95331 25.06245)"/><ellipse cx="171" cy="20" fill="#fff" fill-opacity=".5" rx="3" ry="49"/><circle r="1" fill="#5a5b5d" fill-opacity=".5" transform="matrix(-37.02585 22.29942 -20.63756 -34.26652 216.9 8.5)"/><circle r="1" fill="#2c2c2e" fill-opacity=".5" transform="matrix(-28.45484 16.67523 -7.23501 -12.34593 138.8 54)"/><path fill="#c7c8ce" fill-opacity=".5" d="M188 18h27v20h-27z"/><path fill="#e2e5e6" fill-opacity=".5" d="M36.4 55.8L22 76.3l-34.4-24.1L2 31.7z"/><circle r="1" fill="#2b292c" fill-opacity=".5" transform="rotate(170.6 98.9 30.4) scale(28.80368 4.91045)"/><ellipse cx="84" cy="36" fill="#fff" fill-opacity=".5" rx="3" ry="50"/><circle r="1" fill="#cfd1d8" fill-opacity=".5" transform="matrix(-.88334 -7.24076 61.44349 -7.49581 234.9 51.9)"/><circle r="1" fill="#67686b" fill-opacity=".5" transform="matrix(-26.21075 5.23685 -10.02666 -50.18402 28.7 0)"/><path fill="#fff" fill-opacity=".5" d="M168 0h6v55h-6z"/><path fill="#4a4c4d" fill-opacity=".5" d="M87 0h6v40h-6z"/><path fill="#232225" fill-opacity=".5" d="M176 0h5v55h-5z"/><circle r="1" fill="#d7d9d9" fill-opacity=".5" transform="matrix(41.61528 4.99865 -.26436 2.20091 126.6 16.7)"/><path fill="#d7dada" fill-opacity=".5" d="M34.5 54.3L60 38.4l9.5 15.3L44 69.6z"/><path fill="#454648" fill-opacity=".5" d="M250 21l-30-37-40 21z"/><path fill="#eff1f0" fill-opacity=".5" d="M114.7 37.8l5.8-9.8-10.7-.4L92.7 37z"/><path fill="#97989c" fill-opacity=".5" d="M83.7 4.6l-97.8 32.3 67.2-9.7 23.3-6.6z"/><path fill="#aeafb5" fill-opacity=".5" d="M252 11.7L245.6 70 271-8.3l-38.3 9.8z"/><path fill="#ccced2" fill-opacity=".5" d="M223 17l13 8-13 9z"/><path fill="#515253" fill-opacity=".5" d="M167 23l-59 32 61 15z"/><path fill="#585a5b" fill-opacity=".5" d="M21 33l11 19 36-22z"/><ellipse cx="84" cy="24" fill="#fff" fill-opacity=".5" rx="3" ry="47"/><path fill="#343537" fill-opacity=".5" d="M79 0h2v33h-2z"/><path fill="#f2f5f5" fill-opacity=".5" d="M57 22h21v8H57z"/><circle r="1" fill="#fff" fill-opacity=".5" transform="matrix(-2.59934 .00907 -.10588 -30.33236 172 18.7)"/><circle cx="96" cy="21" r="8" fill="#78797f" fill-opacity=".5"/><path fill="#f6f8f6" fill-opacity=".5" d="M59.2 15.8L57 12.4 78.8-1.8 81 1.6z"/><path fill="#434346" fill-opacity=".5" d="M214 15h8v32h-8z"/><ellipse fill="#6b6c6d" fill-opacity=".5" rx="71" ry="19"/><path fill="#848588" fill-opacity=".5" d="M79.3 20.7l-37.5 5 38-21.5 3.5-11.8z"/><path fill="#545557" fill-opacity=".5" d="M228.1 45.9l11-25.2 15.3 16 4.3-1.9z"/><path fill="#76777d" fill-opacity=".5" d="M120 18L80-7l82-9z"/><path fill="#9c9da1" fill-opacity=".5" d="M59.1 28.1l22.3 12.5L30.1 18-2.2 38.1z"/><path fill="#fbfcfb" fill-opacity=".5" d="M120.9 15.4l-38.7-2.5 1.3 39.2 5.3-42.7z"/><path fill="#b1b2b5" fill-opacity=".5" d="M141.6 26.1l7.3 7.5-12.6 7-3.1-26.3z"/><path fill="#525455" fill-opacity=".5" d="M5 32L-6 14l11-2z"/><path fill="#49494b" fill-opacity=".5" d="M195.4 45.8l-20.3-.5 3.7-30.9-1.6 16.6z"/><path fill="#f2f4f3" fill-opacity=".5" d="M95.4 53.3l1.3-12-3.1-3.6 14.3-8.4z"/><path fill="#bcbec0" fill-opacity=".5" d="M6 19h5v18H6z"/><ellipse cx="157" cy="52" fill="#5e5f61" fill-opacity=".5" rx="10" ry="29"/><path fill="#fff" fill-opacity=".5" d="M169 0h5v55h-5z"/><path fill="#a8a9ad" fill-opacity=".5" d="M222 20h13v16h-13z"/><path fill="#84858a" fill-opacity=".5" d="M220.4 16.5L184.5 11l-4 37.2 9.4-18.8z"/><path fill="#c1c3c4" fill-opacity=".5" d="M40 46h42v9H40z"/><path fill="#ebeceb" fill-opacity=".5" d="M161 18h12v7h-12z"/><path fill="#c0c2c2" fill-opacity=".5" d="M209 27.9l2.2 3.2-7.2 6.5-20.2.2z"/><circle r="1" fill="#77787a" fill-opacity=".5" transform="rotate(89.7 39.3 81.1) scale(6.65495 11.58602)"/><path fill="#9e9fa4" fill-opacity=".5" d="M153 22l-61 9 4-17z"/><path fill="#5d5d60" fill-opacity=".5" d="M88 13h4v29h-4z"/><path fill="#fff" fill-opacity=".5" d="M28 19h4v3h-4z"/><path fill="#6d6e72" fill-opacity=".5" d="M90 7l-6-23 30 28z"/><path fill="#dbdedd" fill-opacity=".5" d="M125 17h35v3h-35z"/><path fill="#5f6062" fill-opacity=".5" d="M86 11l1-.2L94 41l-1 .2z"/><circle r="1" fill="#565558" fill-opacity=".5" transform="matrix(17.03593 2.4779 -1.41693 9.74161 191.8 2.2)"/><path fill="#e8ebe9" fill-opacity=".5" d="M145.3 31.3l-15-5.7.4-1 15 5.8z"/><path fill="#434346" fill-opacity=".5" d="M246.4 33.3l1.3 4.9-24.1 6.5-1.3-4.9z"/><path fill="#fff" fill-opacity=".5" d="M251 20h5v2h-5z"/><path fill="#5e6062" fill-opacity=".5" d="M236 26l-6-31 26 31z"/><path fill="#b0b1b7" fill-opacity=".5" d="M211.5 50.6l7.6 19.4 43.4-32.9-31.6 7.2z"/><path fill="#636467" fill-opacity=".5" d="M73 15h9v5h-9z"/><path fill="#c2c5c5" fill-opacity=".5" d="M113.9 22.3l-7.4 1.8-2.9 45.9L94 49.3z"/><path fill="#e7eae7" fill-opacity=".5" d="M253 28h3v6h-3z"/><circle cx="127" cy="17" r="2" fill="#fff" fill-opacity=".5"/><path fill="#8d8e93" fill-opacity=".5" d="M118 18l7 28 21-13z"/><circle r="1" fill="#535355" fill-opacity=".5" transform="rotate(86.6 83.2 132.5) scale(4.61777 30.98369)"/><circle r="1" fill="#eff0ef" fill-opacity=".5" transform="matrix(1.21246 -2.10563 2.29562 1.32186 91.6 11.7)"/><path fill="#919296" fill-opacity=".5" d="M149 13h15v14h-15z"/><ellipse cx="84" cy="34" fill="#fff" fill-opacity=".5" rx="3" ry="47"/><path fill="#8d8e92" fill-opacity=".5" d="M-7.6 6.6L-9 8l38.5 19.1 28.4 5.8z"/><path fill="#525154" fill-opacity=".5" d="M160.3 31l-2.5-7.6L122.5 70l-11.3-17.2z"/><path fill="#636466" fill-opacity=".5" d="M18.2 41.3l42.7-6.9-27.3 16.2-10.5-3.8z"/><circle r="1" fill="#fff" fill-opacity=".5" transform="rotate(-135.4 38 -13) scale(1.46061 7.09077)"/><path fill="#b5b7b9" fill-opacity=".5" d="M73.3 28.3L83.2 70 4.5 26.6l41 24.7z"/><path fill="#616264" fill-opacity=".5" d="M34 29h6v25h-6z"/><path fill="#fff" fill-opacity=".5" d="M105 33l-11 2 2 3z"/><path fill="#929397" fill-opacity=".5" d="M22.6 26.4l45.7 8.2-17.5-14.3L78.6 7.4z"/><path fill="#4b4a4d" fill-opacity=".5" d="M186 39l43 2-45 10z"/><path fill="#bec0c0" fill-opacity=".5" d="M2.4 70h77.8L17.7 46.3l-5.8-18.1z"/><path fill="#bbbdc0" fill-opacity=".5" d="M111.8 46.1l2.6 6-17.8 4.5 1.1-15.5z"/><path fill="#474549" fill-opacity=".5" d="M175 40h5v14h-5z"/><path fill="#88898f" fill-opacity=".5" d="M163.3 9.6l-27 7.8-2 3.3L103.6-16z"/><ellipse cx="80" cy="8" fill="#787a7a" fill-opacity=".5" rx="2" ry="28"/><path fill="#9b9ca2" fill-opacity=".5" d="M231-7l20 21 6-30z"/><ellipse cx="171" cy="38" fill="#fff" fill-opacity=".5" rx="3" ry="47"/><ellipse cx="107" cy="36" fill="#8e9091" fill-opacity=".5" rx="2" ry="6"/><path fill="#a9abac" fill-opacity=".5" d="M182 38h18v1h-18z"/><path fill="#5d5e60" fill-opacity=".5" d="M152 27h16v28h-16z"/><path fill="#929398" fill-opacity=".5" d="M91 15h33v9H91z"/><path fill="#d1d4d4" fill-opacity=".5" d="M210 34l-10 1 3-4z"/><path fill="#828285" fill-opacity=".5" d="M40.8 46.7l-26-10.5.4-1 26 10.6z"/><path fill="#888a8e" fill-opacity=".5" d="M92 45h3v10h-3z"/><path fill="#7f8083" fill-opacity=".5" d="M30.3 23.4L-16 43.8l43.6-23.3-4.1-24.6z"/><path fill="#c7cacb" fill-opacity=".5" d="M115.9 35.2l7.6-6.7-10.2 1.5-9 8.6z"/><path fill="#fbfdfa" fill-opacity=".5" d="M77.9 34.2l-10-1.4.2-1 10 1.4z"/><circle r="1" fill="#626366" fill-opacity=".5" transform="matrix(5.0811 -.85029 .5124 3.06201 56.4 34.8)"/><circle r="1" fill="#57585a" fill-opacity=".5" transform="matrix(-3.29147 .2564 -1.64025 -21.05626 219.6 28)"/><circle cx="31" cy="20" r="2" fill="#fafdfb" fill-opacity=".5"/><path fill="none" stroke="#727374" stroke-opacity=".5" stroke-width=".5" d="M43.4 38.8q23-8.7 37.5-7.3"/></g></g></svg>