<svg xmlns="http://www.w3.org/2000/svg" viewBox="0 0 1200 800"><defs/><filter id="prefix__a"><feGaussianBlur stdDeviation="12"/></filter><rect width="100%" height="100%" fill="#6c5730"/><g filter="url(#prefix__a)"><g transform="translate(2.3 2.3) scale(4.6875)"><ellipse cx="80" cy="13" fill="#b0c4b4" fill-opacity=".5" rx="81" ry="141"/><circle r="1" fill="#fff" fill-opacity=".5" transform="matrix(120.901 47.38059 -6.25213 15.95355 255.2 157.6)"/><path fill="#fff" fill-opacity=".5" d="M153.3-11.2l10.5 3.4-19.1 59-10.5-3.4z"/><circle cx="127" cy="102" r="53" fill="#7e764d" fill-opacity=".5"/><circle r="1" fill="#fff" fill-opacity=".5" transform="matrix(28.1578 25.03706 -11.23475 12.6351 255 164.7)"/><circle r="1" fill="#0e0000" fill-opacity=".5" transform="matrix(.20574 -11.78688 79.76523 1.3923 130.8 163.3)"/><circle r="1" fill="#a6bbbb" fill-opacity=".5" transform="matrix(-34.00494 46.29212 -29.36864 -21.57341 70.4 36.4)"/><ellipse cx="76" cy="140" fill="#8a8f74" fill-opacity=".5" rx="128" ry="13"/><circle r="1" fill="#2b1800" fill-opacity=".5" transform="matrix(-106.02325 2.92405 -.36895 -13.37766 42.7 165.5)"/><path fill="#60532c" fill-opacity=".5" d="M143-16l-9 125-32-39z"/><path fill="#fff" fill-opacity=".5" d="M191 123h25v20h-25z"/><ellipse cx="235" cy="103" fill="#948253" fill-opacity=".5" rx="60" ry="26"/><path fill="#fff" fill-opacity=".5" d="M163.8-13.3l-16.3 2.7-12 79.4 4.3.3z"/><path fill="#887947" fill-opacity=".5" d="M34 139L11-16l-27 129z"/><circle r="1" fill="#fff" fill-opacity=".5" transform="rotate(45.9 -65.5 375.5) scale(33.14415 14.84436)"/><circle r="1" fill="#7e6b35" fill-opacity=".5" transform="matrix(-36.3526 -9.8915 5.72696 -21.04733 96.1 120.3)"/><path fill="#332f12" fill-opacity=".5" d="M215 156.5l-46 23.1 17.6-15.6 4.7-25.3z"/><path fill="#879285" fill-opacity=".5" d="M137 82l63 67-75 3z"/><ellipse cx="157" cy="71" fill="#69532a" fill-opacity=".5" rx="14" ry="41"/><path fill="#a4c5d3" fill-opacity=".5" d="M36.9 59.7l80.7 33.6-97.3-14 2.1-3.1z"/><circle r="1" fill="#a3d0ec" fill-opacity=".5" transform="rotate(-112.2 60 -24) scale(19.96841 10.35727)"/><path fill="#98a089" fill-opacity=".5" d="M199.6 185l32.3-13.5-10.5-48.4-18.1 61.9z"/><path fill="#919b98" fill-opacity=".5" d="M25.9 105.8l23 .4-.8 44-23-.4z"/><path fill="#8f8661" fill-opacity=".5" d="M197 119.6l5.3-13 68.6 27.8-5.2 13z"/><circle r="1" fill="#8e8c6e" fill-opacity=".5" transform="rotate(-171.8 36.4 25.1) scale(42.39902 14.41664)"/><path fill="#fff" fill-opacity=".5" d="M191 125l24-1 5 29z"/><ellipse cx="69" cy="115" fill="#736336" fill-opacity=".5" rx="8" ry="29"/><path fill="#908452" fill-opacity=".5" d="M90 65h38v56H90z"/><path fill="#595132" fill-opacity=".5" d="M129 0h9v72h-9z"/><path fill="#70613b" fill-opacity=".5" d="M143.7 100.5L190 144l-15-25.9L157.7 8.4z"/><circle r="1" fill="#a5a58a" fill-opacity=".5" transform="rotate(70.5 11.8 52.3) scale(38.66058 31.03333)"/><ellipse cx="4" cy="29" fill="#837443" fill-opacity=".5" rx="22" ry="124"/><path fill="#a1aca0" fill-opacity=".5" d="M135.9 97.6l28 22.5-24.3 27-4.1-33.8z"/><path fill="#362200" fill-opacity=".5" d="M110 153h99v17h-99z"/><path fill="#5a572f" fill-opacity=".5" d="M199 123h2v27h-2z"/><ellipse cx="27" cy="163" fill="#3d2a01" fill-opacity=".5" rx="125" ry="12"/><circle r="1" fill="#57431b" fill-opacity=".5" transform="matrix(49.10371 -27.33077 8.71776 15.66272 254.8 7.6)"/><circle r="1" fill="#757662" fill-opacity=".5" transform="matrix(31.68197 -2.38834 .86283 11.44563 40.4 95.5)"/><path fill="#eff9f0" fill-opacity=".5" d="M178 113l3.6 1.8-.3 20-7.1-29.4z"/><path fill="#fff" fill-opacity=".5" d="M271 178.2l-33.7-10-15.5-39 49.2 29.2z"/><ellipse cx="240" cy="84" fill="#7c673a" fill-opacity=".5" rx="66" ry="29"/><path fill="#898367" fill-opacity=".5" d="M215 164l12 11-3-54z"/><path fill="#87896e" fill-opacity=".5" d="M88 151l85-23 40 23z"/><path fill="#756536" fill-opacity=".5" d="M174.3 57.7l-25.4-5.9 12.8-55.5 25.4 5.9z"/><ellipse cx="136" cy="97" fill="#d8e2b8" fill-opacity=".5" rx="2" ry="16"/><path fill="#a7cbdd" fill-opacity=".5" d="M114-4.1L99.2 19l-6 5.7-12.6-28z"/><path fill="#665931" fill-opacity=".5" d="M-2.1 177l-13-5.3L2 129.1l13 5.2z"/><path fill="#edffff" fill-opacity=".5" d="M149 38l-11 3 2 21z"/><circle r="1" fill="#faffff" fill-opacity=".5" transform="matrix(-5.37904 -1.05018 4.01305 -20.55484 155.5 0)"/><path fill="#a6a793" fill-opacity=".5" d="M147 82h4v31h-4z"/><path fill="#303637" fill-opacity=".5" d="M133 88h2v52h-2z"/><path fill="#8c7d56" fill-opacity=".5" d="M209.5 126.7l52 18-8-16.5-54.8-32.7z"/><path fill="#7d7c64" fill-opacity=".5" d="M132 32L63 69l30 9z"/><path fill="#5d4515" fill-opacity=".5" d="M186 50h4v75h-4z"/><path fill="#766637" fill-opacity=".5" d="M60 138l61 1-49-17z"/><path fill="#c1e3f1" fill-opacity=".5" d="M144.7 32.4h-1l-2.4-34.8h1z"/><circle r="1" fill="#646650" fill-opacity=".5" transform="rotate(85.2 58 81.4) scale(28.45472 7.29893)"/><path fill="#fcfded" fill-opacity=".5" d="M200.7 121.8l-6.5 9.9-9.8-12.5 27.9 11.1z"/><path fill="#fff" fill-opacity=".5" d="M190 124h6v17h-6zm-13-10h5v14h-5z"/><circle r="1" fill="#6b7570" fill-opacity=".5" transform="matrix(-13.6914 13.03814 -.68962 -.72417 42.2 78.1)"/><path fill="#f9fcf6" fill-opacity=".5" d="M225.8 134.5l1.4 23.9 1.8 6.1 40.9 8.4z"/><path fill="#95957f" fill-opacity=".5" d="M208.1 164.9l2.7-17.9-14.8-8.4 62.1 45.4z"/><path fill="#7c8373" fill-opacity=".5" d="M76.7 43.1L144.5-16l-35.9 75.2 17-54.1z"/><path fill="#67572a" fill-opacity=".5" d="M94 72l45-41-10 27z"/><path fill="#8b8f7f" fill-opacity=".5" d="M26 106h37v46H26z"/><path fill="#837545" fill-opacity=".5" d="M10 65h16v87H10z"/><path fill="#7f8169" fill-opacity=".5" d="M149.8 152.3l29.6-27.7 21.3 24.2-26 1.4z"/><path fill="#aabfba" fill-opacity=".5" d="M87 78l-1 15-32-22z"/><path fill="none" stroke="#4a421f" stroke-opacity=".5" stroke-width=".5" d="M86.7 13l24.9-25.2"/><path fill="#9ca18a" fill-opacity=".5" d="M26 0h37v47H26z"/><path fill="#c8d9db" fill-opacity=".5" d="M138 43h2v43h-2z"/><path fill="#5a4623" fill-opacity=".5" d="M128 74h2v58h-2z"/><path fill="#fff" fill-opacity=".5" d="M145 4h3v39h-3z"/><path fill="#908a5e" fill-opacity=".5" d="M113.7 132.6L76.4 96.3l-16.1-3.9 53.4-13.3z"/><path fill="#c2e3f3" fill-opacity=".5" d="M26 67l9 14-8-3z"/><path fill="#bacfdf" fill-opacity=".5" d="M70 141h23v2H70z"/><path fill="#3a2705" fill-opacity=".5" d="M13 153h196v17H13z"/><path fill="#8f8866" fill-opacity=".5" d="M191 118.5l-26.1-9.5 18.4-1.4 85 35z"/><path fill="#716136" fill-opacity=".5" d="M148 43l19-59 28 58z"/><path fill="#f8faf3" fill-opacity=".5" d="M220.8 162.8l-4.6-27.8-2.1-4.9-7.9-3.4z"/><circle r="1" fill="#63502a" fill-opacity=".5" transform="matrix(20.03226 -5.03234 2.01582 8.02439 160.6 68)"/><ellipse cx="58" cy="149" fill="#928957" fill-opacity=".5" rx="45" ry="3"/><path fill="#726440" fill-opacity=".5" d="M149 107l1-28 31 51z"/><path fill="#82754a" fill-opacity=".5" d="M104 60l30-3-7 95z"/><path fill="#857a52" fill-opacity=".5" d="M20.6 76.8L1-16l-14.9 119.8 62.5-57.3z"/><path fill="#887f5b" fill-opacity=".5" d="M222 151l2-34h-10z"/><path fill="#725c23" fill-opacity=".5" d="M188.2 137.5h-1l2.6-37h1z"/><path fill="#788377" fill-opacity=".5" d="M100.7 41l-.7-.6 29.3-31.5.7.7z"/><circle r="1" fill="#6f5b33" fill-opacity=".5" transform="matrix(-9.9263 -37.56952 14.39294 -3.80278 255 89.6)"/><path fill="#938250" fill-opacity=".5" d="M139 78h6v28h-6z"/><circle r="1" fill="#867e59" fill-opacity=".5" transform="matrix(-.99786 .06545 -2.55304 -38.92513 182.2 101.5)"/><path fill="#fff" fill-opacity=".5" d="M200 122l17 25-2-19z"/><path fill-opacity=".5" d="M146 98h-1l1-14h1z"/><path fill="#a1c7dd" fill-opacity=".5" d="M46.8 71.2L37.2 80l-10-11.1 9.6-8.7z"/><path fill="#979b84" fill-opacity=".5" d="M102.3 48.5l-9.3-16-37.1 49.7 26-21.8z"/><path fill="#bcdbe6" fill-opacity=".5" d="M53 70l-7 5 14 10z"/><circle r="1" fill="#797c6b" fill-opacity=".5" transform="rotate(-106.1 67.5 -32.6) scale(26.54971 1.71529)"/><path fill="#959a87" fill-opacity=".5" d="M136.3 107.1l5.3 38.1 41.4-12.3-19.2-13.8z"/><circle cx="89" cy="85" r="7" fill="#aaad8f" fill-opacity=".5"/></g></g></svg>