<svg xmlns="http://www.w3.org/2000/svg" viewBox="0 0 1200 900"><defs/><filter id="a"><feGaussianBlur stdDeviation="12"/></filter><rect width="100%" height="100%" fill="#503e36"/><g filter="url(#a)"><g fill-opacity=".5" transform="translate(2.3 2.3) scale(4.6875)"><circle r="1" fill="#fff" transform="rotate(-118 111 18.6) scale(82.69681 179.17266)"/><circle r="1" fill="#cfe2f0" transform="matrix(-41.03244 -8.62598 17.77404 -84.54837 182 61.4)"/><circle r="1" fill="#fcffff" transform="matrix(10.3342 -31.18608 122.16964 40.48365 61.8 179.7)"/><circle r="1" fill="#302c24" transform="matrix(161.04481 56.39459 -4.76709 13.61327 175.3 163.2)"/><circle r="1" fill="#fdffff" transform="matrix(3.78032 -30.64866 74.86107 9.23365 161.2 108.8)"/><circle r="1" fill="#6d5a46" transform="matrix(247.25825 -2.56398 .3074 29.64452 141 42)"/><path fill="#3c1e0a" d="M239 10h17v129h-17z"/><path fill="#e9f6ff" d="M271 158.6L146.3 86.4 25.5 96.9 268.1 168z"/><circle r="1" fill="#fff" transform="matrix(1.41555 -11.28297 37.52424 4.70774 190.5 1.7)"/><path fill="#d7e6f7" d="M127.7 54.4l41.5-8.8 17 38.5-52-6z"/><circle r="1" fill="#97693e" transform="matrix(19.52206 14.94954 -65.14283 85.06763 28.5 77)"/><circle r="1" fill="#dfecff" transform="matrix(-11.28188 -56.41276 37.14603 -7.42876 42.9 177.8)"/><circle r="1" fill="#1f1c18" transform="rotate(108.1 46.3 161.9) scale(7.62019 59.18348)"/><path fill="#764920" d="M72 93l4-75 17 79z"/><path fill="#3e3932" d="M134.4 73.3L97.1-10.8 81.4 49.1 118.1 83z"/><circle r="1" fill="#b0bcce" transform="matrix(-10.04248 29.4861 -24.98714 -8.5102 216 77.8)"/><circle r="1" fill="#89603c" transform="rotate(157.1 20 15.1) scale(35.62273 64.04816)"/><circle r="1" fill="#9da2aa" transform="matrix(-3.92686 10.66461 -72.64482 -26.74885 92 151)"/><path fill="#f8ffff" d="M153 7l68 4 1-27z"/><circle r="1" fill="#63605c" transform="matrix(-11.00206 -16.46962 44.3152 -29.60351 243.4 20)"/><path fill="#5f402f" d="M228 131l43 15-14-81z"/><path fill="#091111" d="M171 56l6-28 6 20z"/><circle r="1" fill="#646262" transform="matrix(5.73973 23.76628 -56.74737 13.7049 237.2 188.8)"/><path fill="#f0fbff" d="M88 113l11-40 134 54z"/><path fill="#858689" d="M87.5 115.3l90.7 35 92.8 24.1-94.4-35.3z"/><path fill="#e3f1fb" d="M35.2 98.6l33.2-16.2 4.4 9-33.2 16.2z"/><path fill="#38312b" d="M139 52l24-62-64 25z"/><path d="M197.6 49.9l1.8-14.9 9 1.1-1.8 14.9z"/><circle r="1" fill="#e4efff" transform="rotate(97.4 -67.3 103.8) scale(26.13652 95.43597)"/><path fill="#000101" d="M164 20h13v7h-13z"/><circle r="1" fill="#000600" transform="rotate(101.2 66.9 111.2) scale(3.61338 7.34741)"/><path fill="#c5cdd6" d="M214 70l-34-11 7-26z"/><circle r="1" fill="#3e3834" transform="rotate(18.6 -417.5 758.3) scale(94.20481 10.74204)"/><circle cx="223" cy="53" r="19" fill="#8d949e"/><path fill="#9b9d9d" d="M176 13h44v22h-44z"/><path fill="#d0dff3" d="M96.4 124.9l-4.9-46.1 12.8-14.6 4.1.9z"/><path fill="#0c0a05" d="M222 20.5h16v7h-16z"/><path fill="#b5b9c6" d="M257 141l14 34-34-9z"/><path fill="#6c4f35" d="M40 112l-56 36L4-13z"/><path fill="#939da7" d="M175 49l-55 1v19z"/><path fill="#b8c3dc" d="M220.9 205L6.2 128.1l91.1 53.8 35.8 25.1z"/><circle r="1" fill="#737478" transform="rotate(-68 215.5 -41.3) scale(9.82911 75.34479)"/><path fill="#34251a" d="M111 40l13 37-16-1z"/><path fill="#d0d6e7" d="M219 81l-98-22 111 81z"/><path fill="#bac0c2" d="M155 27h17v41h-17z"/><path fill="#3e3b35" d="M83 120l64 19-40 1z"/><circle r="1" fill="#e2e8f8" transform="matrix(-2.25885 6.93738 -38.94065 -12.6793 84.8 104.6)"/><path fill="#e4ffff" d="M177-16L157 7l69 1z"/><path fill="#b6b6b2" d="M83 118.6l2.9 9.8 4.5 45.1-.1-59.7z"/><path fill="#6a543d" d="M73 91l16 5V41z"/><circle r="1" fill="#959181" transform="matrix(-14.82393 33.27901 -2.21611 -.98715 243.8 191)"/><path fill="#8c5832" d="M33.5 103.5L62 115.6l-5.5 12.9L28 116.4z"/><path fill="#74746c" d="M219.3 37.6l9.5-18.1-89.9-13.6 70 6.4z"/><path fill="#b9b7b7" d="M158 157.4l-4.7 20.5 4.2-44.2 4.9-16.6z"/><path fill="#7b583f" d="M271 72v-82l-57-6z"/><path fill="#808892" d="M142 29h11v31h-11z"/><path fill="#181a17" d="M181.2 54.8l-5-.7 2.6-18.9 5 .7z"/><path fill="#d0d7dd" d="M140 65l51-10-53 37z"/><ellipse cx="152" cy="16" fill="#3d342f" rx="3" ry="23"/><path fill="#8a6d52" d="M67.1 77.3l18.6 8.4L80.5 34 50.6 92.3z"/><circle r="1" fill="#b5baba" transform="rotate(-68.6 137.3 -11.2) scale(2.56453 26.93903)"/><path fill="#9cabb6" d="M91.4 68.9l8.9-11 10.4-2.7-18.9 18.1z"/><circle r="1" fill="#c8c9ca" transform="rotate(66 -95.7 86.5) scale(9.54389 29.81208)"/><path fill="#393e33" d="M127 56l-3 19 7-9z"/><path fill="#2e231d" d="M203.5 157.1l44 13.5-5 16.3-44-13.5z"/><path fill="#c2c6cd" d="M192.7 79.8l2-23.8 45.6 52.6-122.4-31.5z"/><path fill="#423d39" d="M243.1 95.7l3.9-55-10.4 27.8 14.3-1.4z"/><path fill="#e8f0ff" d="M63 100.9l168.3 21.7-108.4-45.5-38.1 23.5z"/><path fill="#7c6753" d="M27.3 116.2L9.9 135l-18.4 6.2L0 96.3z"/><path fill="#26231b" d="M60.4 111.6l5.6 9.9-6.7 8.1-.2-15z"/><circle r="1" fill="#c1c4dc" transform="matrix(-1.28444 5.18972 -76.03201 -18.81769 206.3 143.3)"/><path fill="#694f40" d="M259.4 141.3l-29.3-10 8.5-24.6 29.3 10z"/><circle cx="231" cy="16" r="4" fill="#a9bcd2"/><path fill="#b5b9ca" d="M216.9 149.5l54.1 20.7-5.1-27.1-33.6-6.5z"/><ellipse cx="40" cy="21" fill="#7c5738" rx="29" ry="71"/><path fill="#45362b" d="M92 63l77-70-82 29z"/><path fill="#151a14" d="M180 62.2l11.7 2.9-1.7 6.7-11.7-2.9z"/><path fill="#7e8990" d="M122.9 46l-1.8 30 5-16.9 11.5-25.8z"/><path fill="#9d9d9b" d="M224 72l-19 5 3-55z"/><path fill="#e1ffff" d="M223 12l-64-6 60-22z"/><path fill="#695146" d="M230 134l27 6-16-43z"/><path fill="#131710" d="M173.1 55.4l6.8-6.1.8 8.2-3.6.1z"/><path fill="#aca68b" d="M202.4 155.6l-5.8 19.1-1-.3 5.8-19.1z"/><path fill="#a19c97" d="M46 124l29 5-8 19z"/><path fill="#3f332a" d="M134 5h9v46h-9z"/><path fill="#273a3a" d="M51 63h5v19h-5z"/><circle r="1" fill="#a3a2a2" transform="rotate(-164.2 83.7 57.6) scale(53.22373 3.5092)"/><path fill="#a0a8ba" d="M176.1 207l48.3-13.6-45.2-5.7L81.3 149z"/><path fill="#151915" d="M160.6 26.4l.9-8 11.9 1.2-.9 8z"/><path fill="#3a3936" d="M222.2 24.9l5.9-28.1-.7 23.6 19.4 16.3z"/><path fill="#614b3b" d="M246.3 93L266 32.8l-30.2 60.1 21.9.8z"/><path fill="#242220" d="M94 141l-2-19 8 4z"/><path fill="#b8c0d6" d="M225 140l-5-32 23-16z"/><path fill="#a8a597" d="M125.3 129.5h1l-1.6 31h-1z"/><path fill="#d0d7e1" d="M136.6 65.8l104.3 21.5L130.7 91l1.6-37.1z"/><path fill="#95928d" d="M156 11h42v7h-42z"/><path fill="#b6bbc1" d="M121 58h5v12h-5z"/><circle r="1" fill="#807d7c" transform="matrix(-35.70577 -11.6015 1.17574 -3.61855 229 160.3)"/><path fill="#dbe3e9" d="M79 110L53 87 38 97z"/><circle r="1" fill="#bebdbc" transform="matrix(4.56518 -7.68088 13.4987 8.02304 39.8 130.3)"/></g></g></svg>