<svg xmlns="http://www.w3.org/2000/svg" viewBox="0 0 1200 588"><defs/><filter id="a"><feGaussianBlur stdDeviation="12"/></filter><rect width="100%" height="100%" fill="#5e544c"/><g filter="url(#a)"><g fill-opacity=".5" transform="translate(2.3 2.3) scale(4.6875)"><circle cx="198" cy="40" r="239" fill="#fff"/><ellipse cx="130" cy="24" fill="#fff" rx="255" ry="56"/><circle r="1" fill="#fff" transform="rotate(-90.3 77.4 -55.8) scale(31.13238 255.00002)"/><circle r="1" fill="#fff" transform="rotate(96 71.2 81.2) scale(30.42394 211.81302)"/><circle cx="72" cy="47" r="14" fill="#9b908e"/><circle cx="160" cy="72" r="26" fill="#a6a6a4"/><path fill="#fff" d="M221 0h35v75h-35zM-16 73l87 1-54-90z"/><path fill="#b3aaa8" d="M4.2 67.8l-.3-17 32-.6.2 17z"/><circle r="1" fill="#fff" transform="rotate(-88.2 80.4 -72) scale(31.23713 245.46081)"/><path fill="#a29795" d="M202 48h21v18h-21z"/><path fill="#fff" d="M114 0h24v65h-24z"/><ellipse cx="196" cy="71" fill="#fffffe" rx="84" ry="4"/><path fill="#868585" d="M137 60h45v7h-45z"/><path fill="#fff" d="M162.5 65.4l47.9-78.1-53.9 16.4 4.2 61.3z"/><ellipse cx="58" cy="98" fill="#a5aaae" rx="61" ry="24"/><path fill="#fff" d="M265 30.7l-4 45.8-36-3.2 4-45.8z"/><path fill="#a7abaf" d="M128 75h128v50H128z"/><path fill="#fff" d="M38 60h45v13H38z"/><path fill="#f9f7ed" d="M93 79h40v4H93z"/><path fill="#484b4c" d="M0 117h50v2H0z"/><path fill="#a9a29e" d="M93.3 43.4l7.2-8.1 5.2 12.1-16.3-2.5z"/><ellipse cx="2" cy="25" fill="#fff" rx="69" ry="29"/><path fill="#fff" d="M44-16L14.7 74.8l-.8-49.6 41 54.5z"/><circle cx="30" cy="60" r="7" fill="#a09694"/><path fill="#a69e9c" d="M57 49h16v12H57z"/><path fill="#83a4bd" d="M100 65h38v3h-38z"/><path fill="#fff" d="M81.4-16l5.7 80.7-7.6-11.3 50.2-66.2z"/><path fill="#a39e9c" d="M139.8 56.5l11.1 9.9 9.4-.3L149.1 43z"/><path fill="#9ca2a3" d="M136 74h53v6h-53z"/><path fill="#faffff" d="M115 46h24v18h-24z"/><path fill="#b5aead" d="M212.3 60.1l-.7-21.4 16.5 27.7-19.2-6z"/><path fill="#fff" d="M256.9 64.4l-63 11.1-.8-4 63-11z"/><circle r="1" fill="#fff" transform="matrix(-3.70007 29.51274 -103.14517 -12.93152 145.4 13)"/><path fill="#928886" d="M165 56h16v11h-16z"/><path fill="#f2e1c9" d="M97 67h74v7H97z"/><path fill="#ababab" d="M84 76l-100 49 39-51z"/><path fill="#eaecec" d="M167.3 65.3l-7.5-11.2-3.8-4.2-.9-62.1z"/><path fill="#b2a9a8" d="M81 54l-25-4 16-21z"/><path fill="#749abd" d="M88 65h69v2H88z"/><path fill="#fff" d="M39 0h18v70H39z"/><path fill="#eef4f2" d="M84 60h57v3H84z"/><path fill="#fff" d="M185.1 64.4l21.2-50.3-45 17.5 22.1 25.2z"/><circle r="1" fill="#fff" transform="rotate(131.9 110 83) scale(21.63575 16.59132)"/><path fill="#fff" d="M19.8 34.4l-30.8 39 23.6 2.8L-16 53.5z"/><circle r="1" fill="#c9c4c1" transform="rotate(174.9 3.6 26.3) scale(2.89993 6.69083)"/><path fill="#d0c9c6" d="M183.9 71.9L195 45.4l20.2 15.9-7.9-9.9z"/><path fill="#b5aeac" d="M22 63l16 4-10-20z"/><ellipse cx="202" cy="106" fill="#ababab" rx="108" ry="31"/><ellipse cx="119" cy="63" fill="#ecdcc5" rx="22" ry="2"/><ellipse cx="213" cy="71" fill="#fff" rx="29" ry="4"/><path fill="#74797d" d="M179 62l-5 3 16 1z"/><path fill="#e7e4e3" d="M197.1 52.4l28.9-5.5 3.5 12.8-22.3-16.5z"/><ellipse cx="138" cy="74" fill="#90aec7" rx="40" ry="1"/><circle r="1" fill="#f6ffff" transform="matrix(18.76688 -1.04923 .11636 2.08125 98 48)"/><path fill="#fefffe" d="M10.1 70.4l52.6-6 18.9-4.1L77 72.9z"/><path fill="#bbb3af" d="M177.9 49.3l-19.2 7.8 17.6-.9 7.4 31.9z"/><path fill="#fff" d="M86 26.9l-40.3-42 19.2 57.7-52 9.8z"/><path fill="#a59e9b" d="M74 44h7v17h-7z"/><circle r="1" fill="#fff" transform="rotate(130.3 -7.4 39.5) scale(5.31836 4.30763)"/><path fill="#c0bab8" d="M75.7 57.7l-3 10-8.6-30.1-9.1 14z"/><path fill="#abacac" d="M13.3 109.8L-16 136.7l43.4-63.3-5.1-.8z"/><path fill="#fff" d="M0 0h6v59H0z"/><path fill="#cfcfce" d="M84 51h30v7H84z"/><circle cx="76" cy="106" r="30" fill="#abacac"/><path fill="#d3ceca" d="M82 49L70 30l17 9z"/><path fill="#e8e1d1" d="M90.6 69.3l5 3.7-22.4.7 32 10.7z"/><circle r="1" fill="#a79e9c" transform="matrix(4.91732 -2.28048 1.1317 2.44023 25 63.5)"/><path fill="#d1d0d0" d="M156 0h1v40h-1z"/><path fill="#d0cccb" d="M25.9 63.9l-27.6-4.8L7 73.4l13.7-9.8z"/><path fill="#fff" d="M-7 7l53.6 60.1 12.9-12-11.7-9.7z"/><path fill="#b1a8a5" d="M95 37h6v8h-6z"/><path fill="#aea6a5" d="M212 52l-1.8 8.4 11.2 7.1-6.2-25.9z"/><circle r="1" fill="#fcfefe" transform="rotate(-74.4 107.1 -93.9) scale(26.42619 2.72362)"/><ellipse cy="116" fill="#828485" rx="48" ry="1"/><path fill="#e7e4e2" d="M212.5 36.9l-3.7 26.5-1.1-18.4 22.2 8.7z"/><circle r="1" fill="#fff" transform="matrix(-18.71625 29.72448 -21.8667 -13.76854 255 42.7)"/><path fill="#b8b2b0" d="M199 55h3v14h-3z"/><path fill="#9eaeba" d="M98 74h25v2H98z"/><path fill="#fdfefe" d="M21.6 66.7l-15.4 9-20.7-1.2 47.5-5z"/><path fill="#faecd4" d="M115.1 67.6l3.9 1-2.1 7.8-3.9-1z"/><path fill="#e8e7e5" d="M75.3 70.6l47.2 15.6-39.8-11.5-79.3-2.6z"/><ellipse cx="58" cy="82" fill="#aaa" rx="36" ry="7"/><path fill="#ada5a4" d="M60 43h3v19h-3z"/><path fill="#dde3e1" d="M118 43h35v2h-35z"/><path fill="#cbcecc" d="M142.8 75.9l-6-8 2.4-1.8 6 8z"/><path fill="#b9cbd8" d="M101 65h37v1h-37z"/><path fill="#fff5da" d="M105 74h3v9h-3z"/><path fill="#fff" d="M105 44l59-6-61-54z"/><path fill="#8e8887" d="M79.5 58.3L68 50.5l.6-.8L80 57.5z"/><ellipse cx="161" cy="44" fill="#f0f4f6" rx="11" ry="5"/><ellipse cx="96" cy="66" fill="#6d93b8" rx="13" ry="1"/><path fill="#fff" d="M30.9 67.7l5 2.6 36-11.3-.7 11.4z"/><path fill="#a7a6a6" d="M184 76h57v3h-57z"/><circle r="1" fill="#c5c0bd" transform="matrix(-2.1041 2.14115 -3.03437 -2.98186 223.3 61.2)"/><path fill="#f6f1e6" d="M84 61h30v4H84z"/><path fill="#f5e1c7" d="M169 69h19v5h-19z"/><path fill="#b8b7b5" d="M131.5 83.9l22.9-42.6.8 1.6-12 5.4z"/><path fill="#fff" d="M101.1-1L87.3 9.2l11.9 31.2L-16-1.4z"/><path fill="#f8fdff" d="M116 60l25 1-27-16z"/></g></g></svg>