<svg xmlns="http://www.w3.org/2000/svg" viewBox="0 0 912 1200"><defs/><filter id="a"><feGaussianBlur stdDeviation="12"/></filter><rect width="100%" height="100%" fill="#141210"/><g filter="url(#a)"><g fill-opacity=".5" transform="translate(2.3 2.3) scale(4.6875)"><circle r="1" fill="#fff" transform="rotate(15.2 -430.5 440.3) scale(147.06644 194)"/><circle r="1" fill="#fffff7" transform="rotate(-71 157.6 -9) scale(194 100.89188)"/><circle r="1" fill="#fff" transform="matrix(12.64331 88.3961 -37.69106 5.39096 72.5 115.4)"/><ellipse cx="148" cy="27" fill="#f42d32" rx="32" ry="49"/><ellipse cx="23" cy="89" fill="#b50b0a" rx="19" ry="48"/><ellipse cx="88" cy="250" fill="#fff" rx="186" ry="25"/><circle r="1" fill="#ff9564" transform="matrix(137.85296 -29.30155 4.64576 21.85657 15.3 22.6)"/><circle cx="44" cy="89" r="9"/><path fill="#ff2d37" d="M0 194h55v33H0z"/><ellipse cx="144" cy="152" fill="#fffad5" rx="105" ry="71"/><circle r="1" fill="#b9e959" transform="matrix(2.22185 20.45252 -59.24074 6.4356 111 205.5)"/><path fill="#6b6a51" d="M160 222h35v34h-35z"/><path fill="#fff" d="M34 99h64v94H34zm-2-66h70v49H32z"/><path fill="#a6f544" d="M0 155h43v34H0z"/><ellipse cx="3" cy="108" fill="#fff" rx="2" ry="94"/><path fill="#66b633" d="M173 69h16v48h-16z"/><circle r="1" fill="#fff" transform="matrix(-.14365 16.4604 -116.27412 -1.0147 43 242.7)"/><ellipse cx="194" cy="14" fill="#fff" rx="14" ry="65"/><ellipse cx="113" cy="160" fill="#5d5555" rx="3" ry="49"/><ellipse cx="182" cy="158" fill="#fff" rx="14" ry="44"/><path fill="#ac2925" d="M4 46.6l11.2 98.2L46.7 17.5 42 38.8z"/><path fill="#ffffc5" d="M.5 27h49v12H.5z"/><path d="M66.3 1.3l-75.6.5L153.1-16l6.7 18.1z"/><ellipse cx="95" cy="90" fill="#63644e" rx="3" ry="34"/><path fill="#000a05" d="M45 31h130v2H45z"/><path fill="#ffffa8" d="M105 0h14v73h-14z"/><circle cx="42" cy="90" r="9"/><ellipse cy="105" rx="1" ry="121"/><ellipse cx="167" cy="141" fill="#70515a" rx="2" ry="81"/><path fill="#982424" d="M6.3 103.4l23.9-8.2 7.1 42.9-31.5-4.8z"/><ellipse cx="140" cy="95" fill="#ffdece" rx="53" ry="22"/><path fill="#ff5c78" d="M86.7 24.3l-85 1.4-.4-22 85-1.4z"/><ellipse cx="113" cy="225" rx="120" ry="1"/><path fill="#fff" d="M122 207h36v44h-36z"/><path fill="#942e32" d="M177.8 77.5l-24.7-1.3 26-21.7-1-22.8z"/><ellipse cx="180" cy="254" rx="2" ry="33"/><path fill="#aff9ff" d="M7 136h31v18H7z"/><ellipse cx="71" cy="103" fill="#fff" rx="20" ry="69"/><path fill="#fff" d="M45 186l32-5L29 78z"/><path d="M150 252h24v3h-24z"/><path fill="#17212e" d="M110 205h85v2h-85z"/><path fill="#fff" d="M84.3 85l21.2-52.8-61.1 1.6-14.5 45.7zm88.7 34h6v137h-6z"/><path fill="#9a4d4a" d="M160.6 60.3l34.2-2.9-91.1 17.8 14.1 4.3z"/><ellipse cx="177" cy="115" fill="#1a0f21" rx="21" ry="2"/><path d="M109 114h15v4h-15zm-76 7.9l1-.2 9 64.4-1 .2z"/><path fill="#ffff81" d="M86 190h27v32H86z"/><path d="M131.7 31.2l2 2.1-13.4 13.5-2-2.1zM158 223h37v4h-37z"/><path fill="#ffff7b" d="M91 5h27v24H91z"/><path d="M111 222h11v4h-11z"/><path fill="#ffc2c9" d="M116 82h50v108h-50z"/><ellipse cx="67" cy="248" fill="#fff" rx="84" ry="23"/><path fill="#8ef05f" d="M54 193h32v32H54z"/><path fill="#ffffd6" d="M178.3 213.3l-12.9 39.6-7.6-5.2 34.6-36.3z"/><path fill="#fff" d="M193 100.4L178 5.6l13-2 15 94.8z"/><circle cx="43" cy="89" r="9"/><path fill="#97ff66" d="M175 80h11v37h-11z"/><path fill="#fff" d="M45 120h68v67H45z"/><path fill="#ff797c" d="M120 48h55v24h-55z"/><path fill="#401e15" d="M32.4 52.2l-3.8 51.6-.5-20.6 17.3-54.7z"/><path fill="#fff" d="M169 119h23v86h-23z"/><circle r="1" transform="matrix(.03786 -3.53292 2.92476 .03135 94.6 77.6)"/><path fill="#040e0e" d="M122 30h59v3h-59z"/><path d="M114 190h52v1h-52z"/><path fill="#644140" d="M164.8 48.7l-5.3-22.1 3.5 54.9-11.7-52.2z"/><path fill="#ffffad" d="M2 183h39v9H2z"/><path fill="#ffffec" d="M6 27h89v4H6z"/><path fill="#ffff78" d="M6 31h35v10H6z"/><path fill="#fff" d="M-16 225l194 3-92 43z"/><path d="M168 74h22v2h-22z"/><path fill="#caf1ff" d="M3 135h32v19H3z"/><ellipse cx="3" cy="115" fill="#ffffd6" rx="2" ry="89"/><path fill="#3b3f37" d="M96.1 102.5l-4.3 9.1-1.7 3.5 6.2 2.2z"/><path fill="#040500" d="M171 233h3v20h-3z"/><path d="M179-16l-3 16 5 8z"/><ellipse cx="57" fill="#150511" rx="62" ry="2"/><path fill="#674939" d="M3 193h83v2H3z"/><ellipse cx="140" cy="199" fill="#9aff79" rx="26" ry="9"/><ellipse cx="40" cy="225" rx="82" ry="1"/><circle r="1" fill="#faffff" transform="matrix(-3.599 -.91468 4.31664 -16.98468 35.8 73.6)"/><ellipse cx="121" cy="53" fill="#266a54" rx="2" ry="25"/><path d="M0 103L1-1l-17 42z"/><path fill="#000006" d="M90.5 27l-51-1v-1l51 1z"/><path fill="#fff" d="M113 81h58l-26-9z"/><path fill="#082217" d="M105 73h19v4h-19z"/><path fill="#ffffe0" d="M113 29h7v57h-7z"/><path fill="#636e42" d="M101 0h3v57h-3z"/><path fill="#fffcca" d="M115 208h80v15h-80z"/><ellipse cx="114" cy="171" fill="#181a27" rx="1" ry="56"/><ellipse cx="20" cy="181" fill="#220e0f" rx="22" ry="1"/><path fill="#ff8087" d="M3 197h52v27H3z"/><path fill="#282728" d="M112 223h57v2h-57z"/><path fill="#ffffda" d="M180 249l-25-28 11 22z"/><path d="M186 109h3v9h-3z"/><path fill="#ab282a" d="M6 42h31v14H6z"/><path fill="#1a1c15" d="M172 229.2l-4.5-5.2-6.9 7.1 8.5-14.1z"/><path fill="#ffffdb" d="M185 66l-8-7 3 23z"/></g></g></svg>