<svg xmlns="http://www.w3.org/2000/svg" viewBox="0 0 1200 1115"><defs/><filter id="a"><feGaussianBlur stdDeviation="12"/></filter><rect width="100%" height="100%" fill="#51342b"/><g filter="url(#a)"><g fill-opacity=".5" transform="translate(2.3 2.3) scale(4.6875)"><circle cx="52" cy="107" r="230" fill="#a5d5c8"/><circle r="1" fill="#005ba8" transform="rotate(18.8 -125.2 98.6) scale(35.1906 50.70377)"/><circle r="1" fill="#e3eed6" transform="matrix(-6.44668 -60.3231 18.46472 -1.9733 82.2 76)"/><circle r="1" fill="#ffffdb" transform="matrix(14.41028 2.06856 -6.98322 48.6473 21 196.1)"/><circle r="1" fill="#7f421d" transform="matrix(49.0006 -33.67718 20.0476 29.16945 151.8 182)"/><circle r="1" fill="#24261d" transform="matrix(-.84712 13.85023 -69.10562 -4.22668 168.2 77.2)"/><path fill="#2c2e2a" d="M-16 117.4l77.4 35.3 19.9 85.6.8-128z"/><path fill="#fdffff" d="M89.5 251.5h-7v-115h7z"/><circle r="1" fill="#bcd5d3" transform="matrix(-.25008 14.95733 -52.87195 -.88401 71.3 236)"/><ellipse cx="136" cy="26" fill="#a9b19f" rx="99" ry="21"/><ellipse cx="43" cy="94" fill="#a3c2bf" rx="39" ry="18"/><path fill="#542209" d="M101 145h17v76h-17z"/><path fill="#00518f" d="M26 0L-7 92l63-27z"/><circle r="1" fill="#00466d" transform="rotate(118.9 -46.4 79.2) scale(49.95085 12.74895)"/><ellipse cx="59" cy="205" fill="#c2d4c3" rx="7" ry="64"/><path fill="#cfb986" d="M154 231l62-62-10 61z"/><path fill="#f2e5c4" d="M40 157l-6-48L9 212z"/><path fill="#2e241c" d="M229 64l-1 54-42-55z"/><circle r="1" fill="#f3d198" transform="matrix(-2.83743 -47.34593 5.17182 -.30995 207.4 139.5)"/><path d="M156 204l22-15.5 8 11.5-22 15.5z"/><path fill="#524d20" d="M34 162h13v61H34z"/><path fill="#523809" d="M121 79l18 36-24 12z"/><circle r="1" fill="#a3b094" transform="rotate(-147.6 93.4 43) scale(15.66264 38.41227)"/><ellipse cx="251" cy="160" fill="#44565b" rx="11" ry="85"/><path fill="#32210b" d="M41.7 118.7l-11.8-9 47.6.8-47 29.7z"/><path fill="#d2e8de" d="M57 65h36v31H57z"/><path fill="#352522" d="M68 149h14v71H68z"/><path fill="#ffc2ab" d="M78 25h38v21H78z"/><path fill="#002b7b" d="M3.1 168.1l-9-.3 2.8-80 9 .4z"/><path fill="#0a5e90" d="M36.1 67.7l1 32.1 13.4-6.9 16-84.6z"/><path fill="#d2c59c" d="M79.2 151.3l-12-11.3-29 14.3 14.5 6.8z"/><ellipse cx="94" cy="167" fill="#a4bab1" rx="6" ry="120"/><circle r="1" fill="#98a38e" transform="rotate(48.6 -100.6 308.6) scale(91.73062 5.77111)"/><path fill="#a05b31" d="M100 125h21v65h-21z"/><circle r="1" fill="#9f7f76" transform="matrix(-18.34428 -2.37974 4.53528 -34.96034 133.9 217.4)"/><path fill="#e4f0e6" d="M13 102l35 2-45 13z"/><path fill="#566f67" d="M241.1 78.2l-140.2-4.4-.3 43 23.9-16.1z"/><path fill="#3c88a9" d="M136.7 19.8l-4.4-10.2-31.9 16.3L-.5-16z"/><path fill="#e0e4d1" d="M225.6 7.8l-.1-.7.7 20 25 22z"/><ellipse cx="1" cy="159" fill="#00396b" rx="2" ry="63"/><ellipse cx="234" cy="48" fill="#745113" rx="148" ry="2"/><circle r="1" fill="#75551d" transform="matrix(1.08876 -1.93084 36.86535 20.78755 204 25)"/><path fill="#021f31" d="M101.4 222.6l11.6 1.6 8-24.3-22 2z"/><path fill="#b1c8c9" d="M46 190h20v44H46z"/><path fill="#351a08" d="M104 65h117v10H104z"/><path fill="#1d1610" d="M23 234l-33 18 8-20z"/><path fill="#391316" d="M131.4 225.3l13.7-20.2-20.8 7.6 24.2 38.3z"/><circle cx="47" cy="144" r="6"/><path fill="#e2dcbe" d="M26.1 184.2L-16 244.5l56.8-37.4-9.9 26.8z"/><ellipse cx="6" cy="124" fill="#d7c48a" rx="2" ry="44"/><path fill="#636a49" d="M35 157h35v21H35z"/><ellipse cx="151" cy="62" fill="#a5b7a3" rx="96" ry="3"/><path fill="#fffae1" d="M43 147l11 17-30-22z"/><circle r="1" fill="#ccc698" transform="matrix(-5.5391 15.05485 -3.9875 -1.46712 146 207)"/><path fill="#0b5279" d="M29.4 114.5l-18.7 5.8L8.4 163l25.1-34.4z"/><circle r="1" fill="#7f532b" transform="matrix(-2.37467 .441 -8.3697 -45.06825 203.2 182.2)"/><path fill="#475e56" d="M214 109h11v79h-11z"/><path fill="#3d231e" d="M166.9 184.4l11.6 7.5-12.4 28.5-19.6 5.7z"/><path fill="#88a8ac" d="M237 231.1l4.6-6.2-3.8-36.1-43.7 63.2z"/><path fill="#276b93" d="M-13.7 89.3L59.2 95l-3.6-10-62.1 27.4z"/><path fill="#f2c9a3" d="M110 108h9v17h-9z"/><path fill="#2d2b2a" d="M106 93h101v2H106z"/><path fill="#ca9050" d="M192 112h11v41h-11z"/><path fill="#dbd8bc" d="M32 76h3v117h-3z"/><path fill="#715038" d="M185.7 126.2l-29.5 3.9 46.8 28.6 2-9.7z"/><path fill="#ffd6a7" d="M46 129l-8 9 7 1z"/><path fill="#fff" d="M71.5 10.3L74 8.8l16.4 31-2.6 1.4z"/><path fill="#aebca4" d="M59 49h134v4H59z"/><path fill="#40422c" d="M84.1 115.9l-50.8-3.5 36.3-2.5 21.9-.3z"/><ellipse cx="122" fill="#8da9a7" rx="57" ry="9"/><circle r="1" fill="#97a9a0" transform="matrix(2.04883 -.02809 .5662 41.29748 245 98)"/><path fill="#8d9d91" d="M31.6 9.1l4 21.2 9 3.4 31.6-10.6z"/><path fill="#582917" d="M151.8 184.5l3.5 4.8-25 18.2-3.6-4.8z"/><path fill="#865226" d="M192 202l-95-44 82 11z"/><path fill="#9eb59e" d="M88 44l56-19 72 20z"/><path fill="#1f1b17" d="M57 116l-16.3 3.8 10.8 24.6 4.5 6z"/><ellipse cx="78" cy="236" fill="#87a19d" rx="62" ry="7"/><path fill="#dff3f2" d="M45 225h37v5H45z"/><circle r="1" fill="#c9b580" transform="matrix(6.54302 2.6656 -3.39933 8.34404 150 201.5)"/><circle r="1" fill="#5d4233" transform="matrix(17.6013 .37813 -.0732 3.40746 136 230.2)"/><ellipse cx="60" cy="78" fill="#bac5b1" rx="36" ry="2"/><path fill="#fff9d7" d="M107 134h9v5h-9z"/><circle r="1" fill="#adb09c" transform="matrix(-4.81227 -1.52654 2.95094 -9.30255 80.8 122.9)"/><path fill="#9ea281" d="M68.5 160.2l-1.1-28.7-22.8 31.9 1.7 4.3z"/><path fill="#e9bfc3" d="M123 191h6v19h-6z"/><path fill="#00568e" d="M24 30l-40 73 78-65z"/><path fill="#1e2624" d="M67 181h9v35h-9z"/><path fill="#4a492f" d="M38 160h7v67h-7z"/><path fill="#53401e" d="M123 129l-10-11 35-14z"/><path fill="#b0b89b" d="M193 172l-13-19-18 3z"/><path fill="#e2e0c9" d="M35 160l-21-6-12 79z"/><path fill="#beb897" d="M156 239l21-38 26 22z"/><path fill="#587d82" d="M8.1-16l14.1 44.1-1.6 21.5L-16 44z"/><path fill="#b6ad80" d="M69 71l7-58-19 44z"/><path fill="#4b4f3e" d="M101 66h8v54h-8z"/><path fill="#939067" d="M102.5 48l56.7-38.5-71.1 37.8 7.7 24.9z"/><ellipse cx="6" cy="155" fill="#918250" rx="3" ry="41"/><path fill="#7c8f86" d="M244.2 74.5l-30.7 77.9 34.9-44.7L216.6 71z"/><path fill="#1b0708" d="M221 85h7v32h-7z"/><path fill="#6e8270" d="M222.1 40.3l-57.4-3.7 1.7-14.9 36.3 6.7z"/></g></g></svg>