<svg xmlns="http://www.w3.org/2000/svg" viewBox="0 0 1200 831"><defs/><filter id="a"><feGaussianBlur stdDeviation="12"/></filter><rect width="100%" height="100%" fill="#58483e"/><g filter="url(#a)"><g fill-opacity=".5" transform="translate(2.3 2.3) scale(4.6875)"><circle r="1" fill="#fbf0e0" transform="matrix(62.12183 -247.31736 124.17713 31.19114 136 142.2)"/><ellipse cx="189" cy="117" fill="#241a12" rx="255" ry="17"/><ellipse cx="129" cy="27" fill="#fff" rx="37" ry="78"/><ellipse cx="135" cy="151" fill="#fff" rx="255" ry="13"/><ellipse cx="241" cy="62" fill="#5f3c18" rx="40" ry="77"/><circle cy="67" r="78" fill="#836642"/><path fill="#fff" d="M189 0h13v101h-13z"/><circle r="1" fill="#fff" transform="matrix(-17.85359 -.91157 4.36345 -85.46054 147 20.5)"/><path fill="#fff" d="M94.7.4l23-.8 3.6 104-23 .8z"/><path fill="#6c532d" d="M120 0h8v96h-8z"/><ellipse cx="140" cy="153" fill="#f4f9ff" rx="151" ry="11"/><path d="M206 102h26v26h-26z"/><path fill="#85603f" d="M3 165h253v12H3z"/><path fill="#fff" d="M62.3 25.2L52.3 12 23.2-16 65.3-.1z"/><path fill="#fff8cb" d="M140 94h101v7H140z"/><path fill="#fff" d="M79.8 61.3l-4.4-22.5 10.8-2.1 4.4 22.5z"/><path fill="#8c8479" d="M127 133l63 4-88-53z"/><path fill="#fff" d="M138-8.3L124.4-16l10.9 70.8 42.3 15.7z"/><circle r="1" fill="#fff" transform="rotate(-177.2 98.1 1.2) scale(7.72487 46.3522)"/><path fill="#ffffd5" d="M33 96h101v6H33z"/><path fill="#836955" d="M155 64h29v29h-29z"/><path fill="#876c49" d="M93 19L75-16 29 106z"/><ellipse cx="92" cy="59" fill="#6f522f" rx="4" ry="37"/><circle r="1" fill="#574a3f" transform="rotate(-156.1 15.5 56.8) scale(23.86313 39.19571)"/><path fill="#5e432f" d="M193.1 59.3L207.5 39l25.4 17.8L218.5 77z"/><ellipse cx="105" cy="16" fill="#fff" rx="14" ry="54"/><path fill="#85694a" d="M168-16l-4 68 24-34z"/><ellipse cx="34" cy="1" fill="#987b57" rx="19" ry="104"/><path fill="#edefef" d="M176 32.1l.4 70.4-8.7-37.3 5.2-29.5z"/><path d="M189 70h8v6h-8z"/><circle cx="192" cy="85" r="9" fill="#fff"/><path fill="#2a2115" d="M103 72h12v6h-12z"/><path fill="#484238" d="M100 135l-60-1 22-33z"/><path fill="#624c36" d="M56 70h22v27H56z"/><path fill="#7c746d" d="M98 102h57v34H98z"/><path fill="#fff" d="M178.7 63.6l-51.3 9.7 39.4-85-3.7 63.8z"/><ellipse cx="107" cy="92" rx="5" ry="3"/><ellipse cx="182" cy="45" fill="#8b6b48" rx="6" ry="37"/><circle r="1" fill="#a48966" transform="matrix(27.3596 6.16575 -5.94158 26.36487 232.3 13.2)"/><path fill="#9fa3ac" d="M25.8 128.7l-9.3 28.4 32.2-35.3 1.3-10.6z"/><path fill="#fff" d="M206 0l-25-16 15 54z"/><path fill="#98847a" d="M182.3 136.7l-.6-37 20-.4.6 37z"/><ellipse cx="100" cy="78" fill="#fff" rx="4" ry="23"/><path fill="#fff" d="M73.4-16H42L53.9 4l4.2 23.8z"/><path fill="#946b4f" d="M249 47l22 104-28-14z"/><ellipse cx="86" cy="93" fill="#f2f7ff" rx="2" ry="25"/><path fill="#5e4334" d="M202 58h28v36h-28z"/><path fill="#ececff" d="M49 141h151v22H49z"/><path fill="#121212" d="M17 103h7v34h-7z"/><circle r="1" fill="#a8906e" transform="rotate(-167.2 103.7 8.5) scale(4.60625 20.14896)"/><path fill="#8a7b63" d="M98.5 50.7L93 17.9l-14.8-5.4 12.1 43.7z"/><path fill="#fff" d="M77 54l4-26 12 33z"/><path fill="#8b6843" d="M55 60h40v15H55z"/><path fill="#fff" d="M129 49h25v47h-25z"/><path fill="#938062" d="M131 36l-12 23V4z"/><ellipse cx="140" cy="130" fill="#f2fbff" rx="2" ry="12"/><path fill="#cfd0d2" d="M29 167.4l9.6-46.4 1.9 53.4 3.5 12.4z"/><path fill="#6b4f37" d="M157 68h17v10h-17z"/><path fill="#111517" d="M202 103h32v23h-32z"/><circle r="1" fill="#111114" transform="rotate(98.9 32.8 125) scale(7.75137 6.76352)"/><ellipse cx="146" cy="21" fill="#fff" rx="17" ry="54"/><circle r="1" fill="#c0c4cd" transform="matrix(-3.36949 -8.8167 27.0411 -10.33432 9.9 152.7)"/><path fill="#534536" d="M112.7 126.9L127 100l1 2.9 3.3 31.5z"/><ellipse cx="14" cy="104" fill="#af997a" rx="2" ry="33"/><path fill="#978b79" d="M60 129h63v8H60z"/><path fill="#474037" d="M162.2 51.3l4.9-18.4 6.7 1.8-4.9 18.4z"/><path fill="#79654e" d="M67 15l9-12 16 41z"/><path fill="#fbfdff" d="M122.7 83.9l-12.9-10.4-6.4 11.2L123 94.9z"/><path fill="#fff" d="M171 37h4v20h-4z"/><path fill="#d9e1ea" d="M168 89.5l-2.5 6.3-1.2-16.3 6.9 8.4z"/><path fill="#765d42" d="M0 5h28v99H0z"/><path fill="#524d46" d="M30 121h6v23h-6z"/><path fill="#120800" d="M105 89h10v5h-10z"/><path fill="#7d654f" d="M46 164h65v13H46z"/><path fill="#cfd1d1" d="M27.8 146.3L16.5 192l-.5-23.3 14.6-54.1z"/><path fill="#fff" d="M179 97l22-5V71z"/><path fill="#7e563b" d="M156 66h7v29h-7z"/><ellipse cx="68" cy="99" fill="#e9d0ac" rx="50" ry="4"/><path fill="#fff" d="M122-11l-33 1 17 77z"/><ellipse cx="133" cy="128" fill="#dfe8f3" rx="2" ry="8"/><path fill="#938368" d="M80.9 38.8L10.5.3l41.8-4.7 11.9 87.6z"/><path fill="#f7ffff" d="M47 84h3v10h-3z"/><path fill="#0b0c0e" d="M56 103h5v21h-5z"/><path fill="#4e4335" d="M45.7 41.9L34.8 28.8l15.5 12 14.6 37.1z"/><path fill="#f9e0bb" d="M107 95h117v5H107z"/><path fill="#615750" d="M97 102h94v3H97z"/><path fill="#8f5b2f" d="M80 64h4v31h-4z"/><path fill="#d0cddc" d="M228.6 136.6l13.2.6 29.2 32.3-111.3-31z"/><path fill="#2e2723" d="M25.4 135.6l2.4-29.3-18.5-3.2 3.9-10.9z"/><path fill="#fff" d="M97 57h7v39h-7zm93-57h6v70h-6z"/><ellipse cx="203" cy="59" fill="#75593a" rx="13" ry="3"/><path fill="#b6b8bc" d="M84.3 98.5l.4 19h-5l-.4-19z"/><path fill="#fff" d="M80 37l-5 22 11-1z"/><path fill="#2f2c28" d="M72.9 121.1l24.2 10.1-1.2-27.5-7.7 15.1z"/><path fill="#383331" d="M216 130l28-32-2 37z"/><path fill="#33312a" d="M217.7 29.7l-5.8.7-8.9 22.3 13.4-17z"/><path fill="#a38255" d="M9.2 97.5l50.1 5.1-43.1.8-3.5-38.3z"/><path fill="#9b7755" d="M231 27h25v65h-25z"/><ellipse cx="59" cy="4" fill="#fff" rx="2" ry="26"/></g></g></svg>