<svg xmlns="http://www.w3.org/2000/svg" viewBox="0 0 912 1200"><defs/><filter id="prefix__a"><feGaussianBlur stdDeviation="12"/></filter><rect width="100%" height="100%" fill="#3b3a45"/><g filter="url(#prefix__a)"><g transform="translate(2.3 2.3) scale(4.6875)"><circle cx="109" cy="161" r="190" fill="#fff" fill-opacity=".5"/><circle r="1" fill="#ffffeb" fill-opacity=".5" transform="rotate(106.3 3.9 110) scale(194 98.6079)"/><circle cx="103" cy="126" r="67" fill="#fff" fill-opacity=".5"/><circle r="1" fill="#fe3236" fill-opacity=".5" transform="matrix(3.2826 -20.50515 66.14852 10.58948 30.5 203.5)"/><ellipse cx="77" cy="9" fill="#ff4e38" fill-opacity=".5" rx="106" ry="19"/><ellipse cx="6" cy="87" fill="#a70000" fill-opacity=".5" rx="11" ry="48"/><path fill-opacity=".5" d="M32.7 86l14.6-7.2L54 93.5l-14.9 6.9z"/><circle r="1" fill="#86d744" fill-opacity=".5" transform="matrix(12.07757 .31626 -2.56756 98.05125 176.3 147.2)"/><circle r="1" fill="#fff" fill-opacity=".5" transform="matrix(-4.40619 27.71813 -39.8283 -6.33127 54.6 54.9)"/><circle r="1" fill="#fff" fill-opacity=".5" transform="matrix(95.82324 -5.07232 1.2702 23.996 59.4 250.2)"/><path fill="#4da90d" fill-opacity=".5" d="M93 72h20v44H93z"/><ellipse cx="141" cy="55" fill="#fff" fill-opacity=".5" rx="18" ry="23"/><ellipse cx="71" cy="148" fill="#fff" fill-opacity=".5" rx="33" ry="40"/><circle r="1" fill="#e8e881" fill-opacity=".5" transform="matrix(2.95777 -12.35161 61.11811 14.6356 134.3 204.6)"/><ellipse cx="157" cy="224" fill="#2e0509" fill-opacity=".5" rx="187" ry="2"/><ellipse cx="144" cy="147" fill="#fffff8" fill-opacity=".5" rx="22" ry="111"/><path fill="#72d82c" fill-opacity=".5" d="M113 202h35v22h-35z"/><path fill="#fffff7" fill-opacity=".5" d="M1.1 27.3l62.4-.7 32.3 98.3L2 36.2z"/><path fill="#fff" fill-opacity=".5" d="M17 43h11v120H17z"/><ellipse cx="191" cy="24" fill="#fff" fill-opacity=".5" rx="11" ry="49"/><ellipse cx="17" cy="245" fill="#fff" fill-opacity=".5" rx="139" ry="20"/><path fill="#f0222b" fill-opacity=".5" d="M0 170h31v11H0z"/><path fill="#ba6866" fill-opacity=".5" d="M140.8 34.1l-28.4 9.2L189-14.6l-24.7 56.2z"/><path fill="#4f4e39" fill-opacity=".5" d="M112 116h4v93h-4z"/><path fill-opacity=".5" d="M0 0h2v226H0z"/><circle cx="44" cy="90" r="9" fill-opacity=".5"/><ellipse cx="88" fill="#142d32" fill-opacity=".5" rx="91" ry="3"/><ellipse cx="168" cy="165" fill="#180d27" fill-opacity=".5" rx="2" ry="58"/><path fill="#f8ffab" fill-opacity=".5" d="M95 1h22v49H95z"/><circle r="1" fill="#a4fe70" fill-opacity=".5" transform="matrix(-7.00465 45.22987 -24.20775 -3.749 194 160.7)"/><ellipse cx="113" cy="31" fill-opacity=".5" rx="70" ry="1"/><path fill="#b2f9ff" fill-opacity=".5" d="M1 135h28v32H1z"/><path fill="#b32d2a" fill-opacity=".5" d="M9.1 143.6l10.7-24.3-24.2-79L19 42.9z"/><path fill-opacity=".5" d="M149 252h25v2h-25z"/><ellipse cx="82" cy="188" fill-opacity=".5" rx="40" ry="1"/><path fill="#1d2116" fill-opacity=".5" d="M120 29h3v55h-3z"/><path fill="#fff" fill-opacity=".5" d="M42 106.8L102.6 14 68.2 192.4l-38.3 1.2z"/><path fill-opacity=".5" d="M179 222h3v32h-3z"/><path fill="#fff" fill-opacity=".5" d="M210 204l-35 22-12-16zm-116-3h17v23H94z"/><circle r="1" fill="#3f4845" fill-opacity=".5" transform="matrix(1.5085 -.00716 .13097 27.57552 160 52.8)"/><path fill="#fb6e76" fill-opacity=".5" d="M3 194h91v30H3z"/><path fill="#ffff68" fill-opacity=".5" d="M98 194h51v10H98z"/><path fill="#ff7784" fill-opacity=".5" d="M3 2h85v24H3z"/><ellipse cx="108" cy="115" fill="#292423" fill-opacity=".5" rx="18" ry="2"/><circle r="1" fill="#7c6957" fill-opacity=".5" transform="rotate(-8.2 1250 -199.7) scale(1 99.0124)"/><path fill="#3e3c30" fill-opacity=".5" d="M202.6 116.4l-45.2 2.1 2.3-7 13.3 2.8z"/><path fill="#745b48" fill-opacity=".5" d="M56.1-8.2L41.5 34 28.9 77.6l1.6 3.1z"/><ellipse cx="36" cy="247" fill="#fff" fill-opacity=".5" rx="117" ry="21"/><path fill-opacity=".5" d="M162 223h33v5h-33z"/><path fill="#fff" fill-opacity=".5" d="M172.4 218.7l4.3 52.3 3.7-55.8 29.6 7.1zM124 40h33v150h-33z"/><path fill="#fffffd" fill-opacity=".5" d="M162 32h13v40h-13z"/><path fill-opacity=".5" d="M155 74h36v3h-36z"/><ellipse cx="116" cy="75" fill="#060000" fill-opacity=".5" rx="12" ry="2"/><ellipse cx="171" cy="28" fill="#ffffdb" fill-opacity=".5" rx="194" ry="2"/><path fill="#000510" fill-opacity=".5" d="M44 187h60v2H44z"/><ellipse cx="19" cy="93" fill="#fff" fill-opacity=".5" rx="3" ry="67"/><path fill="#fff" fill-opacity=".5" d="M43 34h58v24H43zm1 83h69v71H44z"/><path fill="#040507" fill-opacity=".5" d="M42 31h63v2H42z"/><path fill-opacity=".5" d="M105 57h2v22h-2z"/><path fill="#fa6977" fill-opacity=".5" d="M129 2h51v24h-51z"/><path fill="#fff" fill-opacity=".5" d="M189 0h6v113h-6z"/><path fill="#ffffd2" fill-opacity=".5" d="M162 42h8v72h-8z"/><path fill="#000800" fill-opacity=".5" d="M130 30h25v4h-25z"/><path fill="#ffe" fill-opacity=".5" d="M132.2 80.9l62.1-73.3-79 112.5-1.6-46.2z"/><path fill="#fff" fill-opacity=".5" d="M184.2-16l9.9 17.9L210 67.2l-31.8 6zM138 173L38 143l-6-51z"/><ellipse cx="64" cy="225" fill-opacity=".5" rx="58" ry="1"/><path fill="#faffa0" fill-opacity=".5" d="M119.7 52.7L117-4 92.4 12.7l43.1 55.4z"/><path fill-opacity=".5" d="M91 75.6l6.4-2.9 1.6 3.7-6.4 2.9zm97 33.4l3 6-10 1z"/><path fill="#393c3b" fill-opacity=".5" d="M178 0h2v53h-2z"/><path fill="#ae2c29" fill-opacity=".5" d="M-5 131l20 4 1-77z"/><circle r="1" fill-opacity=".5" transform="matrix(-4.76665 4.5877 -5.25015 -5.45496 43.7 90.7)"/><path fill="#121d0d" fill-opacity=".5" d="M39.9 44.4l1 .3L28 81.6l-1-.3z"/><path fill="#fff" fill-opacity=".5" d="M108 64h56v6h-56z"/><path fill="#463c43" fill-opacity=".5" d="M184 52h3v24h-3z"/><ellipse cx="32" cy="26" fill="#070c03" fill-opacity=".5" rx="63" ry="1"/><ellipse cx="171" cy="249" fill="#0f0000" fill-opacity=".5" rx="2" ry="19"/><ellipse cx="184" cy="206" fill="#050019" fill-opacity=".5" rx="26" ry="1"/><path fill="#effcc8" fill-opacity=".5" d="M184.1 195.2l-19.8-23.4 8.9-16.6-23.7 12.6z"/><path fill="#fff" fill-opacity=".5" d="M142.9 266.4l21.2-37.4-39.7-5-73.8 47z"/><path fill-opacity=".5" d="M167 187h2v24h-2z"/><path fill="#ffffd3" fill-opacity=".5" d="M183.8 248.8l-21.3-4.2 27.4-35.7-28 28.1z"/><path fill="#bfff8a" fill-opacity=".5" d="M96 76h11v42H96z"/><path fill="#ffffbf" fill-opacity=".5" d="M2 27h38v15H2z"/><path fill="#666365" fill-opacity=".5" d="M192 115h2v127h-2z"/><ellipse cx="51" fill-opacity=".5" rx="54" ry="1"/><path fill="none" stroke="#030d03" stroke-opacity=".5" stroke-width=".5" d="M42.2 192q-5-55-13.6-109.4"/><path fill="#b8e4ff" fill-opacity=".5" d="M3 137h28v33H3z"/><ellipse cx="102" cy="15" fill="#646c4f" fill-opacity=".5" rx="2" ry="44"/><path fill="#f3f9bd" fill-opacity=".5" d="M181.5 134.8L167 147.6l-.3-42.7-13.6 43.9z"/><path fill="#fff" fill-opacity=".5" d="M52 34h40v145H52z"/><path fill="#fffab9" fill-opacity=".5" d="M118.4 57.6l.8 99.3-8-66.6 6.5-74.7z"/><path fill="#281b37" fill-opacity=".5" d="M186 74h2v40h-2z"/><path fill="#5b4f47" fill-opacity=".5" d="M34 193h58v2H34z"/><path fill="#fff" fill-opacity=".5" d="M149 45l-41 11 32-23z"/><ellipse cy="65" fill-opacity=".5" rx="1" ry="161"/></g></g></svg>