<svg xmlns="http://www.w3.org/2000/svg" viewBox="0 0 1200 807"><defs/><filter id="a"><feGaussianBlur stdDeviation="12"/></filter><rect width="100%" height="100%" fill="#73583d"/><g filter="url(#a)"><g fill-opacity=".5" transform="translate(2.3 2.3) scale(4.6875)"><circle cx="70" cy="146" r="187" fill="#93a48e"/><ellipse cx="60" cy="126" fill="#241200" rx="60" ry="22"/><circle r="1" fill="#1f1001" transform="rotate(-178.6 109.6 54.3) scale(38.86949 24.99127)"/><path fill="#d6e1e3" d="M93 61h91v30H93z"/><circle r="1" fill="#c6d2dd" transform="matrix(-71.37128 -25.38587 5.17154 -14.53955 211 156.4)"/><path fill="#c2edff" d="M25 61v32H-3V61z"/><circle r="1" fill="#e1ec9a" transform="matrix(6.67688 -11.54455 40.06288 23.17068 71.6 171)"/><circle cx="153" cy="15" r="61" fill="#9e9c72"/><circle r="1" fill="#71481f" transform="rotate(-51.9 170.3 -210.4) scale(44.87947 24.56189)"/><circle r="1" fill="#fff" transform="matrix(-7.7332 -6.72237 10.85403 -12.48613 106.4 79.2)"/><circle r="1" fill="#97a2be" transform="matrix(3.84952 14.885 -56.07044 14.5008 236.2 148.2)"/><path fill="#fdffff" d="M178 69l-18 24-8-6 18-24z"/><path fill="#2b211c" d="M50 104h62v28H50z"/><path fill="#fffff3" d="M195.8 147l-56-18.3 2.4-7.6 56 18.2z"/><circle r="1" fill="#615a54" transform="matrix(14.70679 12.85498 -47.13238 53.92198 20.8 122.6)"/><circle r="1" fill="#969370" transform="matrix(17.80987 3.85063 -21.21082 98.10394 136.2 95.3)"/><path fill="#949183" d="M202 103l52-5 17 18z"/><ellipse cx="75" cy="147" fill="#816804" rx="25" ry="10"/><path fill="#38302d" d="M241 87l-51 29-14-33z"/><circle r="1" fill="#7e7242" transform="matrix(15.73648 24.60645 -35.55406 22.73777 28.6 27.5)"/><path fill="#8e888c" d="M112 116l5-32 96 10z"/><path fill="#1d1005" d="M42 110h25v30H42z"/><path fill="#989567" d="M58.4 55.3l-4.3-38.9 61.7-4.2-20.9 73.5z"/><path fill="#644f0c" d="M256.5 126.7l-71-2.2-21.3 5.1 43 8.7z"/><circle r="1" fill="#837e65" transform="rotate(-46.4 123.5 -236.7) scale(68.9639 21.84743)"/><path fill="#817f81" d="M10 103h32v21H10z"/><ellipse cx="140" cy="159" fill="#908e43" rx="19" ry="29"/><path fill="#51432a" d="M37 113L3 159l-15-39z"/><path fill="azure" d="M100 64l8 25 16-22z"/><ellipse cx="246" cy="159" fill="#959ca7" rx="60" ry="25"/><path fill="#19110a" d="M206.6 124l-27.3-6.4 4-17.5 27.4 6.3z"/><path fill="#cdcdad" d="M154.6-16l-24.2 52.6 2.2-25.4-12.2 30.7z"/><ellipse cx="5" fill="#fff" rx="2" ry="17"/><path fill="#82969a" d="M271 92.5l-27.9 1.4-.2-14.7 6.6-4.5z"/><circle r="1" fill="#92a0a1" transform="matrix(-10.75909 -4.43458 8.61546 -20.90266 106.1 171)"/><path fill="#877a31" d="M81.6 161.4l75.9-45.4-23.4 4.9-61.2 23.9z"/><circle r="1" fill="#ffffea" transform="matrix(.52313 -3.31571 23.08489 3.6422 181.6 137.4)"/><path fill="#b1caf2" d="M0 61h26v19H0z"/><circle r="1" fill="#5b3b19" transform="matrix(21.01888 12.9309 -2.25673 3.66826 184.7 171.1)"/><path fill="#797415" d="M172 149l12-5-13-5z"/><path fill="#917f52" d="M170 83h11v50h-11z"/><circle r="1" fill="#c5c3ad" transform="matrix(-3.56815 17.85686 -2.25472 -.45054 74 44)"/><path fill="#76726b" d="M104 57l-21 46-45 4z"/><path fill="#edffff" d="M165.5 72.2l-15.4 16 16.4-3.6 10-11.5z"/><circle r="1" fill="#c4c29f" transform="matrix(-10.9465 15.5753 -3.0795 -2.16431 154.1 53.3)"/><circle r="1" fill="#483f07" transform="rotate(168.3 17.8 82) scale(19.94302 1)"/><path fill="#858886" d="M87 124l-9 6-2-12z"/><path fill="#908e8c" d="M83 100l58-26 31 31z"/><path fill="#ab9b8b" d="M202 102h28v5h-28z"/><path fill="#312923" d="M227 114h29v15h-29z"/><circle r="1" fill="#b4b395" transform="matrix(2.35274 1.60486 -11.02228 16.15877 207.9 21.8)"/><path fill="#716550" d="M48 91h101v5H48z"/><path fill="#4f403c" d="M33 96L0 94l-16 13z"/><path d="M219 87h8v12h-8z"/><path fill="#a29166" d="M215.6 113.7l-4.6 7.4-3.2 12.1-4 26.3z"/><path fill="#603f13" d="M273 1.3l-20.7 31.9L233 20.7l20.7-31.9z"/><path fill="#71684c" d="M120 121h70v5h-70z"/><circle r="1" fill="#c9d095" transform="matrix(-4.95373 -12.52106 17.3912 -6.8805 66.7 170.2)"/><circle r="1" fill="#a69778" transform="rotate(-11.9 707.7 -1000.9) scale(1 22.38366)"/><path fill="#8e8b60" d="M80 0h44v65H80z"/><path fill="#7a5931" d="M253 18l-15 83-35-70z"/><path fill="#807630" d="M-16 159l33-20 40 6z"/><path fill="#e1feff" d="M113 88l-9-20-13 21z"/><path fill="#979da4" d="M152.5 150.2l79.1 36.8 39.4-63.2L152.5 154z"/><path fill="#896a57" d="M181.5 89.7l27.9-7 4.8-18.5-36.5 18.5z"/><path fill="#8e9cba" d="M0 80h28v13H0z"/><path fill="#a7a8ae" d="M170.1 115.9l-3.4-26.5-17.4-3.7 7.4 16.2z"/><path fill="#120e0c" d="M247 104h9v5h-9z"/><path fill="#969196" d="M184.6 63.7l-39.7 61 51.5-62.2-39.5-8.8z"/><circle r="1" fill="#dfdfd0" transform="rotate(114.8 66 50.6) scale(26.83771 1)"/><path fill="#b1b870" d="M114.8 133.5l-1-4.9 31.4-6.1 1 4.9z"/><path fill="#4e4d40" d="M182 86h32v14h-32z"/><path fill="#807955" d="M28 0h35v81H28z"/><path fill="#2a130c" d="M93 113l-.9-8 19-2 .8 8z"/><path fill="#3d3627" d="M41 107h61v16H41z"/><circle r="1" fill="#83805f" transform="matrix(-22.46982 24.37675 -20.16666 -18.58907 178.3 7)"/><circle r="1" fill="#928e7f" transform="matrix(-17.43403 20.986 -12.67954 -10.53347 133 87)"/><path fill="#7b6a17" d="M187 132l20 7 20-6z"/><path fill="#e7f6ff" d="M102 65l10 23 11-24z"/><path fill="#d4deb5" d="M34 150h22v6H34z"/><path fill="#7e724e" d="M6 0h30v60H6z"/><path fill="#b4bcc0" d="M39 102h2v27h-2z"/><path fill="#6f7677" d="M-18.5 85.9l54.8-4.8.2 3-54.8 4.8z"/><path fill="#e7ffff" d="M151 85h15v4h-15z"/><ellipse cx="232" cy="101" fill="#042a0b" rx="3" ry="5"/><ellipse cx="119" cy="101" fill="#94969b" rx="48" ry="3"/><path fill="#6e6e49" d="M29.6 149.8l-16 36.8 59 .4H55.9z"/><path fill="#7c562a" d="M237 16l8 33-55 22z"/><ellipse cx="58" cy="96" fill="#60503c" rx="22" ry="3"/><path fill="#feffe3" d="M169.7 130.6l-34.5-2.8 14.9 5.6 4.1 1.3z"/><path fill="#664a26" d="M150 102l-1-8 6 7z"/><path fill="#7f745c" d="M195.7 63l-3.9-17.6 30-30.7 7.3 9.9z"/><path fill="#342317" d="M197.1 100.5l-14.6-1.4 24.7 31.3 7-17.3z"/><path fill="#c1bda5" d="M194.7 43.2l22.5-30.8-28.4 32.1-3.6.3z"/><circle r="1" fill="#745b13" transform="rotate(165.3 33.7 76) scale(32.03737 5.47219)"/><path fill="#929774" d="M142 131l11 27 22-15z"/><path fill="#fffff3" d="M166.1 139.3l1.1-6.9 26.7 4.3-1.1 6.9z"/><path fill="#644d2e" d="M149 96l34.6 33.3-.7.7-34.5-33.3z"/><path fill="#938e82" d="M104 112h5v6h-5z"/><path fill="#edfcff" d="M162 71l17-3-13 17z"/></g></g></svg>