<svg xmlns="http://www.w3.org/2000/svg" viewBox="0 0 817 1200"><defs/><filter id="a"><feGaussianBlur stdDeviation="12"/></filter><rect width="100%" height="100%" fill="#5b4a35"/><g filter="url(#a)"><g fill-opacity=".5" transform="translate(2.3 2.3) scale(4.6875)"><circle r="1" fill="#c5a97b" transform="matrix(-152.1792 -82.28299 76.38582 -141.27262 76.8 128.8)"/><circle r="1" fill="#020517" transform="matrix(-65.99779 1.3169 -.3666 -18.37242 129.6 215)"/><path fill="#e0bf8b" d="M66 20h77v62H66z"/><circle r="1" fill="#859dbd" transform="matrix(161.88574 25.06124 -5.43508 35.10846 46.2 255.2)"/><circle r="1" fill="#bbb9b1" transform="matrix(8.9378 -44.32213 18.8138 3.7939 78 156.4)"/><circle r="1" fill="#845417" transform="matrix(13.30822 -36.56403 51.67352 18.80762 163 130)"/><path fill="#fff" d="M79 35h16v23H79z"/><circle r="1" fill="#71511b" transform="rotate(-132 37.6 64.1) scale(38.44785 40.28592)"/><path fill="#d3e3ee" d="M-18.4 63.5l29.3-6.2 7.5 35.2-29.3 6.2z"/><circle r="1" fill="#a36f19" transform="matrix(.37281 26.08944 -172.98234 2.47189 105.3 .4)"/><path fill="#b5aca3" d="M93.1 211l46.3-25.4-80.6-7.5 37 23.8z"/><ellipse cx="92" cy="135" fill="#eafaff" rx="7" ry="23"/><path fill="#bf9147" d="M120.5 74l-1-52.9 68-1.2 1 53z"/><path fill="#c0daea" d="M60 111h9v81h-9z"/><ellipse cx="78" cy="129" fill="#916839" rx="8" ry="70"/><ellipse cx="37" cy="210" fill="#757e87" rx="31" ry="19"/><circle r="1" fill="#ad7e3e" transform="rotate(-130.8 40.2 16.4) scale(50.65717 20.11031)"/><path fill="#292520" d="M60 205l125 14-92 14z"/><circle r="1" fill="#b19e7a" transform="rotate(-100.5 135.9 53) scale(35.01498 2.66649)"/><circle r="1" fill="#8c96a3" transform="matrix(.22018 13.27774 -36.3605 .60296 151.8 245)"/><circle r="1" fill="#794a23" transform="matrix(82.891 -1.63395 .12332 6.25603 51.5 107.3)"/><ellipse cx="123" cy="136" fill="#97733f" rx="26" ry="48"/><circle r="1" fill="#a28041" transform="matrix(17.25117 -3.57804 7.49198 36.12186 42.3 154.9)"/><path fill="#654a36" d="M198.6 185.8l.7 14-83.9 4.4-.7-14z"/><path fill="#5d3619" d="M113 100h61v13h-61z"/><path fill="#f8ffff" d="M94.9 31.7l-13.7 3.6-6.5 16 19.1 2.5z"/><path fill="#ffffe6" d="M159 41l2 10 9-1z"/><path fill="#6f5234" d="M2.6 6.6l24 49.4-15.2 7.4-24-49.4z"/><ellipse cx="112" cy="70" fill="#8f693c" rx="100" ry="4"/><path fill="#926b39" d="M72 157h77v16H72z"/><path fill="#8f8679" d="M126.7 191.6L-2.8 223.7l101.3-58 28.4 55.5z"/><path fill="#4f4a2d" d="M-1 171l37-6-50-61z"/><path fill="#8d938c" d="M159.9 204.9l-13.4-33.2 17-3 6.2 43.5z"/><path fill="#1b1a1a" d="M134.2 202.2l48.3 31.8-29.5-3.5-7.5-40.4z"/><ellipse cx="173" cy="149" fill="#6b4a1d" rx="8" ry="78"/><ellipse cx="106" cy="199" fill="#fffde9" rx="12" ry="2"/><path fill="#f7e1aa" d="M73 20h30v4H73z"/><path fill="#293d7a" d="M40 84.3l-10 1.2-2-15.8 10-1.2z"/><ellipse cx="98" cy="87" fill="#b99e76" rx="78" ry="3"/><path fill="#939595" d="M189 271l-96.3-34.4 1.9-11.2-109.1 25.7z"/><ellipse cx="107" cy="53" fill="#6a534c" rx="94" ry="2"/><path fill="#a39e9f" d="M96 74h65v8H96z"/><path fill="#1f1d1d" d="M96 202h9v33h-9z"/><ellipse cx="123" cy="187" fill="#eefaff" rx="8" ry="3"/><path fill="#b4915b" d="M52 57h122v15H52z"/><path fill="#fcffff" d="M77.8 35.9l20.4 7.2-8.3 12-6.7.9z"/><ellipse cx="147" cy="93" fill="#0f0606" rx="52" ry="1"/><circle r="1" fill="#69717b" transform="matrix(10.40436 -.47927 1.3937 30.25565 0 201.2)"/><path fill="#e3eaf0" d="M86 136h12v21H86z"/><path fill="#c9e8fb" d="M69.4 189h-1l2.2-42h1z"/><path fill="#8c6936" d="M68 121h9v26h-9z"/><path fill="#ccb586" d="M95 30h35v22H95z"/><ellipse cx="122" cy="208" fill="#080000" rx="2" ry="13"/><path fill="#f9f6e8" d="M163 55h6v7h-6z"/><path fill="#adac9c" d="M149 178h3v28h-3z"/><path fill="#471f03" d="M116 53h1v38h-1z"/><path fill="#94743e" d="M17 114h43v59H17z"/><path fill="#f9dfa6" d="M93 210h2v11h-2z"/><path fill="#262624" d="M79 220l17-29-39 32z"/><path fill="#2c281f" d="M162 192l-13 27 4-30z"/><path fill="#a57e46" d="M12 83h66v12H12z"/><path fill="#b3afa2" d="M116.4 192.8l.5 4.1-45.1-6.8 3.6-6.6z"/><ellipse cx="131" cy="83" fill="#795b3d" rx="42" ry="3"/><circle cx="122" cy="139" r="26" fill="#9c7e4b"/><path fill="#c5c8c4" d="M-.7 46.8l13 45.1L.6 95.2l-13-45.1z"/><path fill="#9e8a6d" d="M115.3 193.3l-10.9-78.7-4.1 99-27.4-54.9z"/><path fill="#4f4f19" d="M22 154l-3 33 14-34z"/><path fill="#1e1f20" d="M57 208l14 4 8-8z"/><path fill="#593b1f" d="M118 72h56v2h-56z"/><path fill="#574b3a" d="M9 93l-5 93-20-90z"/><path fill="#a3732d" d="M145.3 81.2l2.1-18.5L165.7-16l-5.9 69z"/><ellipse cx="24" cy="42" fill="#9b7237" rx="7" ry="51"/><ellipse cx="147" cy="96" fill="#8d7a67" rx="110" ry="3"/><path fill="#c2d0d5" d="M85 113h13v9H85z"/><ellipse cx="101" cy="86" fill="#694323" rx="1" ry="35"/><path fill="#b28f57" d="M48 20h24v32H48z"/><circle r="1" fill="#a19e93" transform="matrix(-5.81948 2.16704 -8.48748 -22.79272 11 74.1)"/><path fill="#ac8e4f" d="M107 203h7v14h-7z"/><path fill="#55514f" d="M139 227l-25 2 10 6z"/><ellipse cx="108" cy="54" fill="#c8bbb1" rx="37" ry="1"/><ellipse cx="173" cy="241" fill="#89909a" rx="21" ry="11"/><path fill="#c9a98d" d="M0 163h18v2H0z"/><path fill="#7e7d77" d="M80.1 190.8l-96.1 6.7 22.3 28.7 96.4-30.9z"/><path fill="#2e2e31" d="M173.7 212l.6 18.9-34 1.2-.6-19z"/><circle cx="66" cy="116" r="5" fill="#b7c9d1"/><path fill="#98a2af" d="M189 222l-3-16-18 1z"/><path fill="#8a6224" d="M175 19h-70l61-24z"/><path fill="#905834" d="M109.5 199l9.5 8.3-3.9-23.8 9.2 11.6z"/><ellipse cx="131" cy="92" fill="#7e5933" rx="2" ry="21"/><path fill="#504738" d="M7 22l-23-11L9 48z"/><path fill="#b45e3a" d="M136 183l-1 27-5-19z"/><path fill="#130e07" d="M135 199h14v11h-14z"/><circle cx="164" cy="48" r="4" fill="#ffffe7"/><path fill="#c7bda1" d="M93 225.9l-1-.1 5-35.7 1 .1z"/><path fill="#ccc2b6" d="M88 74h27v6H88z"/><path fill="#977338" d="M173.6 128.2l-29.5 55.4-32.8-7 3.7-64z"/><ellipse cx="125" cy="208" fill="#f27758" rx="2" ry="12"/><path fill="#976020" d="M168 33h3v31h-3z"/><path fill="#734d2c" d="M43 83h108v2H43z"/><path fill="#87857f" d="M12.5 214.7l76.1 11.6 10.1 13-58 4.4z"/></g></g></svg>