<svg xmlns="http://www.w3.org/2000/svg" viewBox="0 0 912 1200"><defs/><filter id="a"><feGaussianBlur stdDeviation="12"/></filter><rect width="100%" height="100%" fill="#552b2a"/><g filter="url(#a)"><g fill-opacity=".5" transform="translate(2.3 2.3) scale(4.6875)"><circle cx="69" cy="150" r="198" fill="#fff"/><ellipse cx="34" cy="164" fill="#fff" rx="134" ry="188"/><circle r="1" fill="#fff" transform="matrix(6.05246 193.90556 -62.25197 1.9431 50.2 158.3)"/><ellipse cx="167" cy="84" fill="#ffbdae" rx="75" ry="139"/><path d="M35 81h18v17H35z"/><ellipse cx="141" cy="9" fill="#e13b47" rx="41" ry="25"/><circle cx="30" cy="220" r="123" fill="#fff"/><ellipse cx="113" cy="168" rx="2" ry="65"/><circle r="1" fill="#fff" transform="rotate(175.5 96.2 24.1) scale(11.09014 88.29757)"/><circle cx="49" cy="27" r="53" fill="#fff"/><ellipse cx="185" cy="171" fill="#e9545c" rx="21" ry="37"/><ellipse cx="94" cy="86" fill="#001214" rx="2" ry="35"/><path fill="#fff" d="M-16 226L102-6 71 271z"/><path fill="#ffe8e2" d="M117 100l21-70 72 88z"/><ellipse cx="43" cy="90" rx="8" ry="9"/><ellipse cx="140" cy="237" fill="#fff" rx="39" ry="14"/><path fill="#53c33b" d="M167 113h27v24h-27z"/><path d="M186 67h3v53h-3z"/><path fill="#af474d" d="M180.9 20l-24.7 23.5 3.5 20 20.6-4.7z"/><ellipse cx="171" cy="224" fill="#383c2f" rx="61" ry="3"/><ellipse cx="140" fill="#00130f" rx="42" ry="3"/><path fill="#ffd8d0" d="M125 41h33v188h-33z"/><path fill="#fff" d="M181 0h14v74h-14z"/><path fill="#002119" d="M99 30h51v3H99z"/><circle r="1" fill="#fff" transform="matrix(82.3871 -67.75214 18.07505 21.9794 15.9 64.5)"/><path fill="#fffff2" d="M168.6 222.1l.8-16 34 1.8-.8 16z"/><ellipse cx="102" cy="25" fill="#131e1f" rx="2" ry="34"/><path d="M90 114h25v3H90zm2-40h17v3H92z"/><path fill="#18281e" d="M118.7 45.2l18.5-18.1-14.9 19.4 2.3 17.8z"/><ellipse cx="173" cy="116" rx="17" ry="2"/><path fill="#293e3e" d="M167 133h3v77h-3z"/><path fill="#ff858a" d="M106 4h73v26h-73z"/><path d="M148 252h38v2h-38z"/><path d="M180 222h2v34h-2z"/><path fill="#fffff2" d="M179.3 271l-1.3-64.4L87.9 271l82.9-56.1z"/><circle r="1" transform="matrix(-4.4959 .1786 -.08847 -2.22718 122.4 75.3)"/><ellipse cx="180" cy="75" fill="#28322d" rx="27" ry="2"/><path fill="#fff" d="M102.2-12l-2.7 78.2L66 109.3 40 66.9z"/><path fill="#15240c" d="M175 271l-3-38-6 31z"/><ellipse cx="183" cy="125" fill="#c5ff9a" rx="18" ry="9"/><circle r="1" fill="#fff" transform="matrix(13.99306 -32.80627 58.01045 24.74355 52 140)"/><path fill="#ffdbd4" d="M96 78h90v35H96z"/><path fill="#fff" d="M190 0h5v116h-5z"/><path d="M35 83h17v12H35z"/><path fill="#f4c6bd" d="M115 142l3 76 56-40z"/><path fill="#feffd6" d="M117.1 26.4L96.6 43.8l24.6 5-4.1-22.6z"/><ellipse cx="113" cy="167" rx="1" ry="54"/><circle r="1" fill="#fff3eb" transform="matrix(6.22222 -.38345 .64425 10.45412 167.8 68.4)"/><path fill="#fff" d="M75.9 236.4l69-12.2 7.2 41.4-69 12.2z"/><circle r="1" fill="#fff" transform="matrix(32.49383 6.6132 -15.22123 74.7892 20 33.5)"/><path fill="#001e1b" d="M178 0h2v53h-2z"/><path fill="#050d00" d="M159 223h36v5h-36z"/><path fill="#ffffd9" d="M161.8 210.7l32.6 1.3-29.4 27 15-25.5z"/><path fill="#e1ffff" d="M194 74h1v146h-1z"/><path fill="#fff" d="M0 117h111v139H0z"/><path fill="#000607" d="M96 57h2v19h-2z"/><path fill="#000f00" d="M184 57h2v19h-2z"/><path fill="#ffeacc" d="M172.4 194.9L174 271l7.4-63.1-51.4-30.3z"/><ellipse cx="121" cy="55" rx="2" ry="5"/><path fill="#fff" d="M177 42l27 18-11-44z"/><path d="M121 117l2-3-6-1z"/><path fill="#030000" d="M122 222l-11-1 7 8z"/><path fill="#1f3131" d="M160.4 39.1l1.2-4.2-.5 12.1-13.9-14.9z"/><path fill="#fff" d="M53 226h108v26H53z"/><path fill="#697661" d="M110 32.6l-1.3 29.6-1.4 13.9-3.6.6z"/><path fill="#ffdad5" d="M174.1 158.9l-52.3 40.6 50.6-93.5-41 45.4z"/><path fill="#ff7e82" d="M103 3h76v24h-76z"/><path fill="#ffffd7" d="M177 245l-9-5-15 11z"/><path d="M179 205h16v2h-16z"/><path fill="#2b3b38" d="M192 204h2v30h-2z"/><circle r="1" fill="#28300b" transform="matrix(.83089 .55644 -2.88572 4.30902 162.6 240)"/><path d="M159 114h4v5h-4z"/><circle cx="160" cy="58" r="3"/><path fill="#fff" d="M92 121L49 81l41-94z"/><path fill="#000d09" d="M179 225h4v29h-4z"/><path fill="#b0c2c2" d="M182 228h13v28h-13z"/><path fill="#fffff8" d="M177 64h18v7h-18z"/><path fill="#ff9396" d="M108 25l-7-10 23-31z"/><path fill="#fcffff" d="M182.3 22.6l-4.4 47.3 23-67.9-23.5 13.1z"/><path d="M94 75h1v38h-1z"/><path fill="#132e29" d="M96 58h17v2H96z"/><path fill="#fd7376" d="M170 139h19v65h-19z"/><path fill="#ff8e91" d="M170.4 14l1.3-30L164.3.9l1.1 59.3z"/><circle cx="159" cy="75" r="3"/><path fill="#ffffd8" d="M110 32h10v41h-10z"/><path fill="#ffe1dc" d="M128.6 40.9l16.5-7.8L162 49.9 121.9 71z"/><path fill="#fff" d="M100 32h2v31h-2z"/><path fill="#ffddd8" d="M171.5 147.2L138 158.3l33.1-30.8-16.8-14z"/><path fill="#f7d0c8" d="M115 122h45v101h-45z"/><path d="M147 1l16-1-35-15z"/><path fill="#a44857" d="M210 135.5v.6l-57.7-3.1 19.5 4.5z"/><ellipse cx="118" cy="170" fill="#302e27" rx="4" ry="2"/><ellipse cx="180" cy="115" rx="12" ry="2"/><path fill="#37332d" d="M112 133h11v4h-11z"/><path d="M187 75h1v41h-1zm-95 42l23.8-3 .2 1-23.8 3z"/><path fill="#fff" d="M4.8 271L110 218.7 38.5 97 2 66.2z"/><circle r="1" transform="matrix(-.1762 -2.05532 2.73783 -.23471 114 152.5)"/><path fill="#fad1ca" d="M108.8 115.5l70.5-11.8-29-37.3L177.4 52z"/></g></g></svg>