<svg xmlns="http://www.w3.org/2000/svg" viewBox="0 0 1200 867"><defs/><filter id="a"><feGaussianBlur stdDeviation="12"/></filter><rect width="100%" height="100%" fill="#484848"/><g filter="url(#a)"><g fill-opacity=".5" transform="translate(2.3 2.3) scale(4.6875)"><circle cx="100" cy="93" r="183" fill="#fff"/><ellipse cx="119" cy="92" fill="#fff" rx="237" ry="129"/><circle cx="155" cy="98" r="191" fill="#fff"/><circle cx="65" cy="169" r="183" fill="#fff"/><circle r="1" fill="#969696" transform="matrix(-23.91279 .3679 -.29365 -19.08693 115.2 74.5)"/><path fill="#969696" d="M213.3 58.1l46 .8-.6 31-46-.8z"/><path fill="#fff" d="M180-16l91 11-168 204z"/><ellipse cx="42" cy="86" fill="#fff" rx="51" ry="183"/><path fill="#a8a8a8" d="M3 125h152v5H3z"/><path fill="#fff" d="M149.5 90.5h125v91h-125z"/><ellipse cx="201" cy="132" fill="#9b9b9b" rx="17" ry="3"/><path fill="#b2b2b2" d="M6 92h5v66H6z"/><circle r="1" fill="#a8a8a8" transform="matrix(.02006 -2.91854 17.5306 .12052 228 155)"/><path fill="#ababab" d="M121 26h32v6h-32z"/><path fill="#b8b8b8" d="M94 58h44v33H94z"/><circle r="1" fill="#fff" transform="matrix(-54.88132 -39.43623 17.3391 -24.12992 122.1 174.7)"/><ellipse cx="47" cy="38" fill="#fff" rx="46" ry="86"/><path fill="#a7a7a7" d="M151 4h28v5h-28z"/><path fill="#a5a5a5" d="M107 12h15v8h-15z"/><circle r="1" fill="#fff" transform="matrix(8.2174 23.30058 -63.63023 22.44041 239.9 2.1)"/><path fill="#c6c6c6" d="M233 105.5l-.2 9.9 6.5 19.9-5.3-60.7z"/><ellipse cx="115" cy="88" fill="#b3b3b3" rx="2" ry="32"/><path fill="#e5e5e5" d="M92 25h35v33H92z"/><path fill="#bababa" d="M225 23h2v68h-2z"/><path fill="#fff" d="M214 123l-104-1L210 19zM9 0h81v124H9zm130-16l29 47L96 5z"/><path fill="#aaa" d="M98 112h19v4H98z"/><ellipse cx="244" cy="114" fill="#a1a1a1" rx="9" ry="2"/><path fill="#fff" d="M129.6 89.6L92 91.4l-93.3 22.5 78.6 2.2z"/><path fill="silver" d="M213 57h43v34h-43z"/><circle r="1" fill="#fff" transform="matrix(-9.97823 .47056 -3.05208 -64.71925 254.9 155.8)"/><path fill="#aaa" d="M147 146h12l-4 6z"/><path fill="#fff" d="M-8 199l45-78 11 57z"/><path fill="#d6d6d6" d="M43 155h33v4H43z"/><path fill="#fff" d="M86 94h6v90h-6zm24-110L-16 29l121-5z"/><path fill="#b9b9b9" d="M-16 103l6-14h20z"/><circle r="1" fill="#fff" transform="matrix(3.9453 -23.21953 66.48473 11.29663 143.2 183)"/><path fill="#fff" d="M252.3 198.9l18.7-80.8-39.7-1.2 14.3 36.4z"/><path fill="#c1c1c1" d="M93 61h34v30H93z"/><ellipse cx="235" cy="102" fill="#b1b1b1" rx="2" ry="14"/><path fill="#cbcbcb" d="M43 181h28v2H43z"/><path fill="#ececec" d="M227 26h29v32h-29z"/><path fill="#eaeaea" d="M165 119l43 36-27-41z"/><ellipse cx="50" cy="169" fill="#a9a9a9" rx="1" ry="13"/><path fill="#fff" d="M62 91h51v22H62z"/><path fill="#b0b0b0" d="M7 130h3v26H7z"/><ellipse cx="63" cy="130" fill="#eee" rx="97" ry="2"/><path fill="#fcfcfc" d="M163.8 14.3L271 3.1 152.5 65.3l-16.3 13.3z"/><ellipse cx="39" cy="124" fill="#dadada" rx="112" ry="1"/><path fill="#fff" d="M198.6 82.1L221.5 26l4.5 31.9-29.5.9z"/><path fill="#dedede" d="M164 174h85v2h-85z"/><path fill="#fff" d="M6.8 125.8L0 141.4l-2.7-1.2L4 124.6z"/><path fill="#c3c3c3" d="M125.4 81.3l-3.1-35.2-.7 2.5 2.6-24.6z"/><path fill="#d6d6d6" d="M102 137h6v12h-6z"/><path fill="#bbb" d="M229 152h16v5h-16z"/><path fill="#c6c6c6" d="M8.8 128.5l19.5-3.7-24.5 10.4 16.8-3z"/><path fill="#bfbfbf" d="M93 58h44v33H93z"/><ellipse cx="204" cy="181" fill="#fff" rx="146" ry="6"/><circle r="1" fill="#c3c3c3" transform="matrix(-7.19361 -.113 .0157 -.99988 16.8 156.1)"/><path fill="#fff" d="M118 91h31v28h-31zM125.4.2l20 .7-.8 25-20-.8zM13 133h91v18H13z"/><path fill="#ebebeb" d="M97 26h26v32H97z"/><path fill="#bebebe" d="M113 83h4v30h-4z"/><path fill="#fff" d="M237 91h19v20h-19z"/><path fill="#bebebe" d="M168 4h14v4h-14z"/><path fill="#f2f2f2" d="M213.3 151.8l1.8 7.5-3.7 10.3-16.5-9.5z"/><path fill="#e7e7e7" d="M154 158.1l-35.7-25.8 1.8-2.4 35.6 25.8z"/><path fill="#fff" d="M219 3h37v23h-37zM99.2 118.6l-12.5 13.6L95.4-16-9.4 85.1z"/><path fill="#fefefe" d="M149.2 111.6l53.6-5.1-39.7 65-4.8-11.3z"/><path fill="silver" d="M127 56h8v37h-8z"/><path fill="#c1c1c1" d="M191 130h28v5h-28z"/><path fill="#b9b9b9" d="M40 125h41v4H40z"/><path fill="#e7e7e7" d="M221.6 30.7l-34.4 5-61.1 52.2 69.9-53z"/><path fill="#bcbcbc" d="M107 125h44v4h-44z"/><path fill="#b7b7b7" d="M123 28h32v3h-32z"/><ellipse cy="172" fill="#fff" rx="50" ry="16"/><path fill="#fcfcfc" d="M127 31.1l-1.5 19.4 25.9 17.2 36.5-35.9z"/><circle r="1" fill="#fff" transform="rotate(-38.2 37 -4.2) scale(72.13582 67.01585)"/><path fill="#bebebe" d="M142 73l-4 4 4 1z"/><path fill="#dcdcdc" d="M121.6 60.5l52.1-43.7.7.7-52.1 43.7z"/><path fill="#aeaeae" d="M225.6 32l1 .2-2.2 13.8-1-.2z"/><path fill="#fff" d="M193.6 199l-72.1-65-19.5-2.6 39.9 66.9zM119 3h13v14h-13z"/><path fill="#ccc" d="M184 8l-37-3 19-5z"/><ellipse cx="70" cy="132" fill="#e6e6e6" rx="53" ry="1"/><path fill="#fff" d="M234 151l-42-60 40 1zM10 70h83v54H10z"/><path fill="#c1c1c1" d="M215 58h41v31h-41z"/><path fill="#fefefe" d="M193.5-1.9L111 6.8l-.5-5L193-6.7z"/><ellipse cx="200" fill="#ebebeb" rx="2" ry="52"/><path fill="#f3f3f3" d="M62 154h15v30H62z"/><path fill="#eaeaea" d="M161.3 112.7l26.1 22.6 28.7 22.6-34.8-22.5z"/><ellipse cx="49" cy="157" fill="#a2a2a2" rx="5" ry="1"/><path fill="#fff" d="M-11.2 196.5L-16 90.7l18.1 3.7 4.4 36.8z"/><path fill="#bcbcbc" d="M251 116.7l-6.9-1.5 1-4 6.8 1.6z"/><path fill="#e8e8e8" d="M212 0h3v45h-3z"/></g></g></svg>