<svg xmlns="http://www.w3.org/2000/svg" viewBox="0 0 1200 814"><defs/><filter id="a"><feGaussianBlur stdDeviation="12"/></filter><rect width="100%" height="100%" fill="#4a4a4a"/><g filter="url(#a)"><g fill-opacity=".5" transform="translate(2.3 2.3) scale(4.6875)"><circle cx="61" cy="84" r="228" fill="#fff"/><circle cx="126" cy="83" r="167" fill="#fff"/><circle r="1" fill="#fff" transform="matrix(2.19847 -144.33136 217.00665 3.30546 162.6 86.8)"/><circle cx="107" cy="91" r="192" fill="#fff"/><circle r="1" fill="#fff" transform="rotate(109.2 35 95.8) scale(146.79488 58.13155)"/><path fill="#c9c9c9" d="M210.4 1.9l2.3 106.5 9.9 3.4.7-106.4z"/><path fill="#868686" d="M187 129h55v4h-55z"/><ellipse cx="33" cy="95" fill="#fff" rx="30" ry="172"/><ellipse cx="188" cy="141" fill="#a2a2a2" rx="3" ry="31"/><ellipse cx="110" cy="148" fill="#c5c5c5" rx="2" ry="93"/><ellipse cx="39" cy="100" fill="#cfcfcf" rx="117" ry="2"/><ellipse cx="44" cy="30" fill="#c8c8c8" rx="72" ry="2"/><ellipse cx="140" cy="138" fill="#cbcbcb" rx="3" ry="42"/><path fill="#878787" d="M197 52h5v7h-5z"/><circle r="1" fill="#fff" transform="matrix(9.07837 133.16638 -19.83878 1.35247 163.4 108.7)"/><circle r="1" fill="#fff" transform="rotate(82 85.5 183.3) scale(77.04549 30.24532)"/><path fill="#fff" d="M199 134h35v39h-35z"/><path fill="#969696" d="M238.5 55.2l-4.5 5.4-4.5-3.8 4.5-5.4z"/><path fill="#8f8f8f" d="M36 57h29v1H36z"/><path fill="#afafaf" d="M240 98l-3.4 2.1-6.5-10 3.3-2.2z"/><path fill="#fff" d="M189 108h67v20h-67zM76 31l2-47-94 29z"/><ellipse cx="34" cy="107" fill="#a9a9a9" rx="1" ry="49"/><path fill="#cfcfcf" d="M7 109L1 51l-13 57z"/><path fill="#c7c7c7" d="M240 145h5v26h-5z"/><circle r="1" fill="#fff" transform="matrix(-33.09896 -40.43903 15.8619 -12.98282 6.5 144.5)"/><circle r="1" fill="#fcfcfc" transform="matrix(21.64345 -.22555 .51427 49.3482 88 81.7)"/><circle cx="199" cy="93" r="3" fill="#878787"/><ellipse cx="205" cy="45" fill="#fff" rx="57" ry="4"/><ellipse cx="111" cy="153" fill="#cfcfcf" rx="2" ry="56"/><path fill="#fff" d="M190 149h52v20h-52z"/><ellipse cx="10" cy="86" fill="#a1a1a1" rx="24" ry="1"/><circle r="1" fill="#f3f3f3" transform="matrix(-11.67325 -10.52082 36.01396 -39.95885 108.2 68.4)"/><ellipse cx="190" cy="127" fill="#fff" rx="2" ry="18"/><ellipse cx="59" cy="82" fill="#fff" rx="19" ry="16"/><ellipse cx="19" cy="100" fill="#9e9e9e" rx="45" ry="1"/><ellipse cx="36" cy="106" fill="#bdbdbd" rx="30" ry="1"/><path fill="#afafaf" d="M33 140h33v2H33z"/><ellipse cx="173" cy="45" fill="#fff" rx="23" ry="82"/><path fill="#fff" d="M229.1 117.9L207 144.8l20.6-43.1L271 72.3z"/><path fill="#a7a7a7" d="M186 146h3v25h-3z"/><path fill="#fff" d="M64 44l-80-2 34 24zm2 68h43v53H66z"/><path fill="#e0e0e0" d="M70.5 61.7L67 16.4l-4.4 53.7L77 62.8z"/><path fill="#bdbdbd" d="M200 128h43v6h-43z"/><ellipse cx="39" cy="56" fill="#a0a0a0" rx="1" ry="9"/><path fill="#f0f0f0" d="M113 104h25v66h-25z"/><ellipse cx="37" cy="30" fill="#a5a5a5" rx="31" ry="1"/><ellipse cx="29" cy="10" fill="#fff" rx="49" ry="19"/><path fill="#d5d5d5" d="M211 111l14-3-14-51z"/><path fill="#fff" d="M237 164l-21-36-16 60z"/><path fill="#bebebe" d="M197.6 147.5l1.7-7.5-10 7.3-3.3 3.3z"/><circle r="1" fill="#c6c6c6" transform="matrix(-3.43916 -.48947 .74542 -5.23761 1.4 37.3)"/><path fill="#e9e9e9" d="M78 1h28v34H78z"/><ellipse cx="24" cy="161" fill="#fff" rx="74" ry="13"/><path fill="#999" d="M230.7 94.5l3.2-5.1 3.4 2.1-3.2 5.1z"/><ellipse cx="206" cy="67" fill="#fff" rx="4" ry="61"/><circle r="1" fill="#c6c6c6" transform="matrix(-1.86496 1.64998 -3.08332 -3.48506 237 145)"/><path fill="#fff" d="M246 45h10v128h-10zM224 0h7v123h-7zM69 37h36v24H69z"/><ellipse cx="78" cy="73" fill="#dadada" rx="1" ry="98"/><path fill="#fff" d="M79.1 105.8l23.7 52.3 9.5-82.1 101 2.9zM3 45h30v40H3z"/><path fill="#e4e4e4" d="M114 28h4v42h-4z"/><ellipse cx="163" cy="142" fill="#fff" rx="22" ry="172"/><path fill="#d8d8d8" d="M141 0h1v104h-1z"/><path fill="#fff" d="M0 112h33v61H0z"/><path fill="#dbdbdb" d="M65 98h2v55h-2z"/><path fill="#b0b0b0" d="M186 112h3v33h-3z"/><path fill="#fff" d="M106 0h33v29h-33zm36 84.7l69 42.6 19 .2-40.6-40.6zM37 112h37v27H37z"/><path fill="#bebebe" d="M195 171l5-3h-11z"/><path fill="#e0e0e0" d="M72 169h68v2H72z"/><ellipse cx="225" cy="1" fill="#fff" rx="89" ry="3"/><circle cx="200" cy="92" r="3" fill="#afafaf"/><path fill="#e5e5e5" d="M110 75H78v-6h32z"/><path fill="#acacac" d="M245.4 153.7l-1.9 10.8-1-.2 2-10.8z"/><circle r="1" fill="#fff" transform="matrix(-165.31852 -.28854 .00175 -1 112.6 172.1)"/><ellipse cx="28" cy="111" fill="#ddd" rx="41" ry="1"/><path fill="#fff" d="M229.9 91.2l30.2-9.1 6.1 20.4-38-50.9z"/><ellipse cx="249" cy="23" fill="#dadada" rx="53" ry="1"/><path fill="#dadada" d="M109 31h2v78h-2z"/><path fill="#e3e3e3" d="M5 40h63v2H5z"/><ellipse cx="104" cy="18" fill="#cecece" rx="1" ry="17"/><circle r="1" fill="#fff" transform="matrix(-8.55026 6.7526 -13.8922 -17.59057 194.4 70.3)"/><path fill="#fff" d="M36 66h41v30H36z"/><path fill="#dadada" d="M0 57h4v54H0z"/><path fill="#cecece" d="M65 27h4v16h-4z"/><ellipse cx="29" cy="96" fill="#fff" rx="35" ry="3"/><path fill="#cdcdcd" d="M65 97h4v13h-4z"/><path fill="#c4c4c4" d="M196.3 149.4l1.4-17 2 .2-1.4 17z"/><path fill="#fff" d="M222.9 48l-26-1 .2-5 26 1z"/><ellipse cx="250" cy="57" fill="#e8e8e8" rx="1" ry="107"/><path fill="#bebebe" d="M234.1 148l-1-.2L236 128l1 .2z"/><path fill="#fff" d="M235 134h21v10h-21zM0 0h79v26H0z"/><path fill="#e9e9e9" d="M138 30h4v41h-4z"/><path fill="#bababa" d="M186 145h5v26h-5z"/></g></g></svg>