<svg xmlns="http://www.w3.org/2000/svg" viewBox="0 0 1200 1008"><defs/><filter id="a"><feGaussianBlur stdDeviation="12"/></filter><rect width="100%" height="100%" fill="#535353"/><g filter="url(#a)"><g fill-opacity=".5" transform="translate(2.3 2.3) scale(4.6875)"><circle cx="143" cy="138" r="211" fill="#fff"/><circle cx="151" cy="95" r="199" fill="#fff"/><circle cx="89" cy="124" r="211" fill="#fff"/><circle r="1" fill="#fff" transform="matrix(-201.2888 -106.02771 87.08548 -165.32785 126.8 73.5)"/><path fill="#b5b5b5" d="M155 101V50l20 2z"/><path fill="#6d6d6d" d="M0 91h13v9H0z"/><path fill="#9a9a9a" d="M53 49h5v51h-5z"/><ellipse cx="18" cy="30" fill="#9c9c9c" rx="3" ry="25"/><path fill="#6e6e6e" d="M264.9 93.1l-.9 8-20.9-2.2.9-8z"/><circle r="1" fill="#e0e0e0" transform="matrix(33.14392 31.2911 -14.67226 15.54104 206 177.5)"/><ellipse cx="225" cy="19" fill="#fff" rx="157" ry="28"/><circle r="1" fill="#fff" transform="matrix(-52.95629 -24.63601 12.35546 -26.55865 222.6 124.9)"/><circle r="1" fill="#fff" transform="rotate(-122.5 63 64) scale(61.11557 54.46528)"/><ellipse cx="100" cy="40" fill="#a5a5a5" rx="40" ry="2"/><path fill="#d0d0d0" d="M197.2 178.8l51 51.2-121.8-99.7-6.3-10.2z"/><path fill="#b5b5b5" d="M123.5 126v1l-81 3v-1z"/><path fill="#a9a9a9" d="M78 51v6H50v-6z"/><path fill="#ababab" d="M11 8h30v5H11z"/><ellipse cx="111" cy="183" fill="#fff" rx="76" ry="17"/><path fill="#ebebeb" d="M161 59h88v30h-88z"/><path fill="#c9c9c9" d="M7.3 84.2l.1 9.9 17-14.1L69 40.3z"/><circle r="1" fill="#fff" transform="matrix(44.81496 55.9382 -17.10894 13.70684 236 145.3)"/><circle r="1" fill="#fff" transform="rotate(77 1.3 111) scale(34.98706 46.61898)"/><ellipse cx="135" cy="25" fill="#c4c4c4" rx="2" ry="25"/><circle r="1" fill="#fff" transform="rotate(-8.9 243.7 -1457.2) scale(67.66641 26.37957)"/><path fill="#a2a2a2" d="M80 92h2v45h-2z"/><path fill="#bababa" d="M22 160h2v55h-2z"/><ellipse cx="4" cy="3" fill="#fff" rx="11" ry="75"/><path fill="#b2b2b2" d="M167.5 57.5v-7h13v7z"/><ellipse cx="97" cy="213" fill="#d6d6d6" rx="79" ry="2"/><path fill="#fefefe" d="M0 99h79v64H0z"/><ellipse cx="55" cy="1" fill="#959595" rx="3" ry="7"/><path fill="#a9a9a9" d="M155 59h5v36h-5z"/><path fill="#b9b9b9" d="M173 169h2v46h-2z"/><path fill="#fff" d="M205.3 170.6l-7 8.5-73.6-61.7 7-8.5z"/><ellipse cx="82" cy="166" fill="#e5e5e5" rx="63" ry="3"/><ellipse cx="124" cy="91" fill="#d5d5d5" rx="2" ry="39"/><ellipse cx="9" cy="90" fill="#c4c4c4" rx="1" ry="126"/><ellipse cx="250" cy="176" fill="#fff" rx="19" ry="78"/><path fill="#fff" d="M136 6h20v99h-20zm10.5 134l1 57-48 1-1-57z"/><path fill="#fff" d="M242 92.8l-4.1 85.7-85.6-72.4-19.6-9.2z"/><ellipse cx="83" cy="43" fill="#fbfbfb" rx="54" ry="3"/><path fill="#f4f4f4" d="M161 57h25v41h-25z"/><path fill="#c7c7c7" d="M216 218l16-9-9-8z"/><path fill="#e5e5e5" d="M199.5 144.9l-74.9-54.6 121.6 108.6-62.7-38.9z"/><path fill="#d6d6d6" d="M14 63l-4-12 24-20z"/><circle cx="109" cy="50" r="5" fill="#d1d1d1"/><path fill="#a3a3a3" d="M107 127h27v2h-27z"/><path fill="#fff" d="M179 181l-5 31 40-1z"/><ellipse cx="92" cy="21" fill="#cbcbcb" rx="1" ry="107"/><path fill="#b5b5b5" d="M47 196h2v19h-2z"/><path fill="#fff" d="M59.6 38.5L30.1 52.6 88.6-.9l2.8 35.8z"/><path fill="#e9e9e9" d="M187 48h38v38h-38z"/><path fill="#b4b4b4" d="M123 216l-1-22h1l1 22z"/><path fill="#dbdbdb" d="M65.8 32.6L72.2 48l4.8-9.1L43.5 62z"/><ellipse cx="103" cy="165" fill="#d3d3d3" rx="77" ry="1"/><ellipse cx="224" cy="200" fill="#b9b9b9" rx="1" ry="34"/><path fill="#c1c1c1" d="M102 225.2l-1 .2-5-30.6 1-.2z"/><path fill="#d8d8d8" d="M237 193h6v22h-6z"/><path fill="#e7e7e7" d="M9 63l28-38 26-5z"/><ellipse cx="17" cy="40" fill="#b8b8b8" rx="3" ry="11"/><path fill="#cdcdcd" d="M244 81l3 10h24z"/><path fill="#ddd" d="M125.1-2.7l1.7 37.2-7.6 13.3 1.5 5.8z"/><path fill="#fff" d="M20 13h17v25H20zm228 22h8v55h-8zM59 60h30v30H59z"/><path fill="#aeaeae" d="M156 52h25v5h-25z"/><path fill="#c9c9c9" d="M72 189h2v26h-2z"/><ellipse cx="108" cy="76" fill="#d5d5d5" rx="1" ry="89"/><path fill="#fff" d="M8.5 138.5v75h-17v-75z"/><path fill="#d4d4d4" d="M215.7 175.3l-.7.8-82.7-69.4.7-.8zM-16 110.4L8 101l3.4 6.4-5.6-2.6z"/><circle r="1" fill="#e1e1e1" transform="rotate(-140 95.8 47.6) scale(32.88398 1)"/><path fill="#b2b2b2" d="M72 39h66v2H72z"/><path fill="#fff" d="M181 6h5v132h-5z"/><path fill="#d4d4d4" d="M166 214h90v1h-90z"/><path fill="#e9e9e9" d="M167 57h15v40h-15z"/><path fill="#fff" d="M61 103.8l-6.1 7.8-30-23.4 6.2-7.8z"/><path fill="#e3e3e3" d="M247 99h9v8h-9z"/><ellipse cx="98" cy="166" fill="#dbdbdb" rx="1" ry="196"/><path fill="#fefefe" d="M136 6h50v46h-50z"/><ellipse cx="73" cy="201" fill="#dbdbdb" rx="52" ry="1"/><path fill="silver" d="M14 27.3l3-20.8 1 .2-3 20.8z"/><path fill="#d1d1d1" d="M82 134h34v2H82z"/><ellipse cx="59" cy="45" fill="#939393" rx="5" ry="1"/><ellipse cx="224" cy="69" fill="#c2c2c2" rx="1" ry="20"/><ellipse cx="46" cy="56" fill="#858585" rx="4" ry="1"/><path fill="#aaa" d="M80 127h26v2H80z"/><path fill="#d4d4d4" d="M186.2 40h1l2.6 48h-1z"/><path fill="#fff" d="M.4 71.8L-16 22.2 20.7 4 9.8 21.2z"/><path fill="#9d9d9d" d="M89 122.3l12 .4v1l-12-.4z"/><path fill="silver" d="M188 136h1v47h-1z"/><path fill="#fff" d="M150 178h21v33h-21z"/><ellipse cx="201" cy="171" fill="silver" rx="1" ry="23"/><path fill="#b9b9b9" d="M135 138h12v2h-12z"/><ellipse cx="135" cy="17" fill="#bebebe" rx="1" ry="30"/><circle r="1" fill="#e5e5e5" transform="matrix(-.64145 .76717 -49.22694 -41.16011 14.7 90.1)"/><path fill="#a6a6a6" d="M-13 89l26 9v-9z"/><ellipse cx="15" cy="167" fill="#dfdfdf" rx="1" ry="214"/></g></g></svg>