<svg xmlns="http://www.w3.org/2000/svg" viewBox="0 0 1200 1012"><defs/><filter id="a"><feGaussianBlur stdDeviation="12"/></filter><rect width="100%" height="100%" fill="#4c4c4c"/><g filter="url(#a)"><g fill-opacity=".5" transform="translate(2.3 2.3) scale(4.6875)"><circle cx="159" cy="130" r="214" fill="#fff"/><circle cx="155" cy="103" r="202" fill="#fff"/><circle cx="124" cy="111" r="180" fill="#fff"/><circle r="1" fill="#fff" transform="rotate(-171.9 63.3 41.8) scale(225.22721 154.50374)"/><ellipse cx="96" cy="166" fill="#fff" rx="226" ry="71"/><circle r="1" fill="#b8b8b8" transform="matrix(-4.4968 -.2627 1.63373 -27.96639 102.5 67.7)"/><ellipse cx="152" cy="95" fill="#949494" rx="3" ry="40"/><path fill="#9f9f9f" d="M123 0h6v41h-6z"/><ellipse cx="31" cy="19" fill="#fff" rx="92" ry="29"/><path fill="#7b7b7b" d="M242 91h14v8h-14z"/><ellipse cy="94" fill="#8b8b8b" rx="11" ry="6"/><ellipse cx="165" cy="127" fill="#a5a5a5" rx="32" ry="2"/><ellipse cx="232" cy="5" fill="#fff" rx="105" ry="45"/><circle r="1" fill="#acacac" transform="matrix(49.6722 .28822 -.0058 .99998 143.7 40.2)"/><path fill="#999" d="M149 58h37v5h-37z"/><path fill="#9c9c9c" d="M98 52h28v5H98z"/><path fill="#fff" d="M69 41h29v76H69z"/><path fill="#d6d6d6" d="M256.7 85.3l-22.6 12.3-60.8 47.5 70-66.3z"/><circle r="1" fill="#fff" transform="matrix(-9.5279 50.42494 -35.66495 -6.73896 31 138)"/><path fill="#a8a8a8" d="M98 58h5v34h-5z"/><path fill="#fff" d="M124 50h25v48h-25zm34 14h48v28h-48z"/><path fill="#d9d9d9" d="M108 212h127v3H108z"/><ellipse cx="153" cy="177" fill="#d7d7d7" rx="85" ry="2"/><path fill="#aaa" d="M139 92h2v43h-2z"/><path fill="#fff" d="M111.6-50.2l9 86.5-132.2 14-9-86.6z"/><path fill="#dbdbdb" d="M0 82h63v6H0z"/><ellipse cx="167" cy="29" fill="#a6a6a6" rx="1" ry="26"/><path fill="#fff" d="M69 42h45v9H69zm94.9 85.4l21.9-.6 78.3-62.3 6.9-21.6z"/><ellipse cx="171" cy="196" fill="#fff" rx="112" ry="13"/><path fill="#f4f4f4" d="M145 129h56v13h-56z"/><path fill="#eaeaea" d="M104 57h19v39h-19z"/><path fill="#a8a8a8" d="M92 39h77v2H92z"/><path fill="#d6d6d6" d="M79.8 219.5l1.4-81h1l-1.4 81z"/><ellipse cx="220" cy="165" fill="#e7e7e7" rx="161" ry="2"/><ellipse cx="23" cy="70" fill="#b9b9b9" rx="1" ry="22"/><ellipse cx="20" cy="62" fill="#b3b3b3" rx="1" ry="16"/><ellipse cx="233" cy="198" fill="#c6c6c6" rx="1" ry="35"/><circle r="1" fill="#e9e9e9" transform="matrix(3.96603 4.5785 -35.19052 30.48298 210.7 83)"/><circle cx="246" cy="137" r="32" fill="#fff"/><path fill="#fdfdfd" d="M236.5 53.6l-33 27.7-36-43 33-27.6z"/><ellipse cx="197" cy="51" fill="#dfdfdf" rx="123" ry="1"/><path fill="#fff" d="M195.3-40.5l129 112.1-21.6 25-129-112.2zM128 0h24v38h-24z"/><ellipse cx="78" cy="214" fill="#dadada" rx="80" ry="1"/><ellipse cx="179" cy="152" fill="#e3e3e3" rx="100" ry="1"/><ellipse cx="116" cy="46" fill="#dcdcdc" rx="29" ry="2"/><path fill="#d2d2d2" d="M174 133l-11 1 5 8z"/><path fill="#fff" d="M11 88h82v10H11z"/><circle r="1" fill="#f4f4f4" transform="matrix(-5.4523 -6.01798 39.92 -36.16754 59.1 150.6)"/><path fill="#e4e4e4" d="M179.8 134.2l50.8-26.5-40 33.7 52-60.7z"/><path fill="#fff" d="M144.3 62l-20.1-16.9-.9 96.5 29.3-89.1z"/><path fill="#e6e6e6" d="M0 79h18v12H0z"/><path fill="#fff" d="M6 75L8 4l-24 80z"/><ellipse cx="156" cy="177" fill="#cfcfcf" rx="74" ry="1"/><path fill="#fff" d="M80.1 156.9l-5.1-75L84.1-16l14.8 98.3z"/><ellipse cx="67" cy="186" fill="#eaeaea" rx="2" ry="204"/><path fill="#afafaf" d="M153 127h41v2h-41z"/><path fill="#fff" d="M116 142h140v22H116z"/><ellipse cx="93" cy="28" fill="#e6e6e6" rx="2" ry="28"/><circle r="1" fill="#e0e0e0" transform="rotate(90.6 78.7 77.9) scale(52.47893 1.19645)"/><path fill="#b5b5b5" d="M6.8 99l-2.7 6.4-1-.4L6 98.6z"/><ellipse cx="246" cy="12" fill="#dadada" rx="1" ry="206"/><ellipse cx="30" cy="68" fill="#bcbcbc" rx="1" ry="20"/><path fill="#fff" d="M155 64h27v46h-27z"/><path fill="#bbb" d="M259.3 98.4h-15.9l4.3-15.7-11.6-2.2z"/><path fill="#f1f1f1" d="M103 57h8v34h-8z"/><ellipse cx="168" cy="23" fill="#cdcdcd" rx="1" ry="20"/><path fill="#fdfdfd" d="M237.1 100.2L235.8 230l7.4-140.7-62 53.4z"/><path fill="#fefefe" d="M147 48h38v10h-38z"/><path fill="#aeaeae" d="M161 36h4v5h-4z"/><path fill="#fff" d="M247 27h9v56h-9zM142 130h55v4h-55z"/><path fill="#dedede" d="M157 129h1v86h-1z"/><path fill="#bbb" d="M255.4 104l-8.5 3-.3-1 8.5-3z"/><ellipse cx="183" cy="98" fill="#e6e6e6" rx="2" ry="33"/><path fill="#e6e6e6" d="M167.5 41v-1l67-1v1z"/><circle r="1" fill="#e2e2e2" transform="matrix(1.0777 1.27529 -29.96045 25.31854 216 73.8)"/><ellipse cx="10" cy="76" fill="#c9c9c9" rx="1" ry="24"/><path fill="#efefef" d="M139.8 123.8l-64.4 47.8 47.7-43.2 28-2z"/><ellipse cx="233" cy="198" fill="#e7e7e7" rx="2" ry="59"/><circle r="1" fill="#fff" transform="matrix(23.3196 -77.85009 16.27463 4.87498 0 179)"/><path fill="#a9a9a9" d="M193 121h8v2h-8z"/><path fill="#ddd" d="M6 48h62v2H6z"/><path fill="#fff" d="M0 0h63v48H0z"/><path fill="#b0b0b0" d="M98 88h4v8h-4z"/><path fill="#cacaca" d="M152 209.5l-3.1 20.5h29z"/><circle r="1" fill="#cbcbcb" transform="matrix(.3776 1.5065 -2.11544 .53023 28.5 208)"/><ellipse cx="74" cy="30" fill="#e5e5e5" rx="1" ry="214"/><ellipse cx="17" cy="66" fill="#c7c7c7" rx="1" ry="19"/><path fill="#fff" d="M185 54h14v33h-14z"/><ellipse cx="161" cy="178" fill="#fdfdfd" rx="122" ry="1"/><path fill="#c5c5c5" d="M149 63h3v66h-3z"/><path fill="#d7d7d7" d="M134 47h9v7h-9z"/><ellipse cx="138" cy="51" fill="#dedede" rx="53" ry="1"/><ellipse cx="146" cy="90" fill="#fff" rx="4" ry="37"/><path fill="#e0e0e0" d="M81 212h27v3H81z"/><path fill="#fff" d="M118.3 127.5L16.5 214.4l9.2-26.2 77.2-59.1z"/><path fill="#d9d9d9" d="M26.2 83h-1l2.6-36h1z"/></g></g></svg>