<svg xmlns="http://www.w3.org/2000/svg" viewBox="0 0 1200 967"><defs/><filter id="a"><feGaussianBlur stdDeviation="12"/></filter><rect width="100%" height="100%" fill="#3f3f3f"/><g filter="url(#a)"><g fill-opacity=".5" transform="translate(2.3 2.3) scale(4.6875)"><circle cx="151" cy="122" r="205" fill="#fff"/><circle cx="143" cy="95" r="192" fill="#fff"/><circle cx="100" cy="91" r="197" fill="#fff"/><circle cx="140" cy="121" r="202" fill="#fff"/><circle r="1" fill="#fff" transform="matrix(85.96873 -218.17185 64.36488 25.36242 205.9 144.5)"/><circle r="1" fill="#e5e5e5" transform="matrix(-8.72663 100.49125 -25.01142 -2.17199 106.1 104.2)"/><ellipse cx="59" cy="102" fill="#fff" rx="203" ry="12"/><circle cx="27" cy="94" r="62" fill="#fdfdfd"/><circle r="1" fill="#e5e5e5" transform="matrix(-41.86638 -38.63318 14.96196 -16.21412 120.8 53.8)"/><path fill="#d1d1d1" d="M96 152h128v4H96z"/><path fill="#d2d2d2" d="M95 115.5l-6.2 3.7 77.7.9 36.7-4z"/><path fill="#fff" d="M117 221l154-66-154 2z"/><circle r="1" fill="#fff" transform="rotate(-35.7 124.6 -248.2) scale(24.74785 98.18718)"/><path fill="#c9c9c9" d="M19 190h74v4H19z"/><ellipse cx="37" cy="200" fill="#fff" rx="255" ry="7"/><ellipse cx="69" fill="#fff" rx="143" ry="12"/><ellipse cx="95" cy="13" fill="#d4d4d4" rx="100" ry="2"/><ellipse cx="49" cy="116" fill="#d6d6d6" rx="46" ry="2"/><path fill="#c9c9c9" d="M10 155.2l78-1.4v1l-78 1.4z"/><circle cx="237" cy="141" r="2" fill="#565656"/><path fill="#fff" d="M51 91h30v62H51z"/><ellipse cx="90" cy="89" fill="#d5d5d5" rx="79" ry="2"/><circle cx="93" cy="196" r="2" fill="#525252"/><path fill="#696969" d="M116 97.6l7.7-2.2.3 1-7.7 2.2z"/><circle r="1" fill="#dfdfdf" transform="matrix(.02787 2.66153 -58.73066 .61505 66.6 44)"/><path fill="#c5c5c5" d="M159 63h5v27h-5z"/><ellipse cy="133" fill="#858585" rx="5" ry="2"/><path fill="#626262" d="M-16 57l23 8-23-1z"/><circle cx="109" cy="7" r="3" fill="#9e9e9e"/><path fill="#939393" d="M118 110l-3 5-2-3z"/><circle r="1" fill="#707070" transform="matrix(-2.56753 .36476 -.14065 -.99006 116 135.4)"/><path fill="#fff" d="M165 53h92v36h-92z"/><path fill="#787878" d="M102 173h8v2h-8z"/><ellipse cx="215" cy="175" fill="#fff" rx="99" ry="19"/><path fill="#4a4a4a" d="M5.5 30.5l-.4 1-4.6-2 .4-1z"/><path fill="#dbdbdb" d="M128 10h9v61h-9z"/><ellipse cx="161" cy="103" fill="#fff" rx="47" ry="12"/><path fill="#d1d1d1" d="M87.6 65.7l21.2-16.4-18 2.3L92.4 92z"/><path fill="#fff" d="M8 221l3-88h-27z"/><path fill="#c8c8c8" d="M187.5 115.3l-67 2.4v-1l67-2.4z"/><ellipse cx="140" cy="193" fill="#c1c1c1" rx="50" ry="1"/><circle r="1" fill="#616161" transform="matrix(.09932 .99506 -1.83393 .18305 93.6 30.4)"/><path fill="#656565" d="M-4.6 168l.5-.9 8.7 4.9-.5.9z"/><path fill="#fafafa" d="M139 13h115v43H139z"/><path fill="#fff" d="M17.5 9.1L8.6 40.2-12.2-16l122 25.5z"/><path fill="#dfdfdf" d="M10 43h2v133h-2z"/><path fill="#dedede" d="M193 6h55v4h-55z"/><ellipse cx="189" cy="50" fill="#e5e5e5" rx="42" ry="2"/><path fill="#e3e3e3" d="M187 93h60v4h-60z"/><circle cx="130" cy="68" r="2" fill="#606060"/><ellipse cx="184" cy="135" fill="#d4d4d4" rx="51" ry="1"/><path fill="#fff" d="M14 91h96v24H14z"/><path fill="#bababa" d="M102 116h1v76h-1z"/><path fill="#fafafa" d="M16 158h46v34H16z"/><path fill="#ddd" d="M184 115.3l40 1.4v4l-40-1.4z"/><path fill="#dedede" d="M12 115h52v5H12z"/><path fill="#b9b9b9" d="M174 122h1v31h-1z"/><circle r="1" fill="#fff" transform="matrix(.90947 158.31222 -6.19689 .0356 254.3 96.4)"/><path fill="#d9d9d9" d="M11 12h129v4H11z"/><path fill="#d0d0d0" d="M113 154h3v40h-3z"/><ellipse cx="194" cy="154" fill="#cecece" rx="112" ry="1"/><ellipse cx="245" cy="69" fill="#eee" rx="3" ry="65"/><path fill="#e8e8e8" d="M34.6 145.3l-28.4 1.4 31.1 6 22.1-36.9z"/><ellipse cx="121" cy="49" fill="#f4f4f4" rx="6" ry="38"/><ellipse cx="43" cy="156" fill="#cbcbcb" rx="1" ry="39"/><path fill="#d8d8d8" d="M128 57h41v3h-41z"/><ellipse cy="63" fill="#fff" rx="1" ry="146"/><ellipse cx="83" cy="136" fill="#8d8d8d" rx="1" ry="4"/><path fill="#e0e0e0" d="M186 90h2v62h-2z"/><path fill="#b5b5b5" d="M24 202h5v3h-5z"/><path fill="#fff" d="M-16 114l25 16V60z"/><path fill="#f0f0f0" d="M104.4 189.9l-1 5.9 32.1-72.3-24.7 25.3z"/><ellipse cx="35" cy="51" fill="#d6d6d6" rx="70" ry="1"/><path fill="#828282" d="M93 45h1v12h-1z"/><path fill="#fff" d="M122 91h63v24h-63zm-84 62l44-5-21-35z"/><path fill="#e7e7e7" d="M127 121h9v31h-9z"/><path fill="#f7f7f7" d="M216.1 139.6l33 3.3 3 11.7-70-.8z"/><path fill="#c7c7c7" d="M89 87h29v3H89z"/><path fill="#aaa" d="M29.7 98.6l.3 1-5.7 1.8-.3-1z"/><path fill="#a1a1a1" d="M129.3 57.8l2.4-13.8 1 .2-2.4 13.8z"/><ellipse cx="71" cy="14" fill="#fbfbfb" rx="121" ry="1"/><path fill="#b5b5b5" d="M95.7 176l-2.4-13.8 1-.2 2.4 13.8z"/><path fill="#d7d7d7" d="M112.7 29.4L112 7.8l-5.1 6 2.4 26z"/><path fill="#fff" d="M10 54.8l5.3-31.7-21.9 18.1 24.5 43.7z"/><path fill="#d9d9d9" d="M36 118h2v77h-2z"/><path fill="#dadada" d="M17 119h1v76h-1z"/><ellipse cx="30" cy="159" fill="#d4d4d4" rx="1" ry="35"/><ellipse cx="131" cy="117" fill="#f9f9f9" rx="126" ry="1"/><path fill="#dadada" d="M167 117h2v38h-2z"/><path fill="#fff" d="M29 194h56v12H29z"/><path fill="#aeaeae" d="M128 116h9v3h-9z"/><path fill="#bbb" d="M50 154h8v4h-8z"/><ellipse cx="115" cy="60" fill="#c8c8c8" rx="1" ry="30"/><path fill="#ebebeb" d="M62 153h24v37H62z"/><path fill="#fbfbfb" d="M12 55h75v34H12z"/><path fill="#f7f7f7" d="M97 17h11v25H97z"/><path fill="#b9b9b9" d="M76 42h10v3H76z"/><path fill="#9c9c9c" d="M129.2 152l5-1 .6 3-5 1z"/><ellipse cx="11" cy="205" fill="#d8d8d8" rx="1" ry="99"/></g></g></svg>