<svg xmlns="http://www.w3.org/2000/svg" viewBox="0 0 912 1200"><defs/><filter id="a"><feGaussianBlur stdDeviation="12"/></filter><rect width="100%" height="100%" fill="#38343c"/><g filter="url(#a)"><g fill-opacity=".5" transform="translate(2.3 2.3) scale(4.6875)"><circle cx="95" cy="126" r="175" fill="#fff"/><circle cx="13" cy="66" r="232" fill="#fff"/><circle cx="25" cy="78" r="211" fill="#fff"/><ellipse cx="42" cy="89" rx="9" ry="10"/><ellipse cx="46" cy="182" fill="#fff" rx="67" ry="85"/><circle r="1" fill="#fff" transform="rotate(-107.6 38.8 -6) scale(49.18632 74.69458)"/><path d="M157 223h38v5h-38zm29-146h3v42h-3z"/><path fill="#302c17" d="M166 115h3v121h-3z"/><ellipse cx="94" cy="90" rx="2" ry="28"/><path fill="#000200" d="M113 123h2v110h-2z"/><ellipse cx="187" cy="116" fill="#060300" rx="30" ry="3"/><ellipse cx="140" cy="118" fill="#fff" rx="19" ry="81"/><path d="M56.9 90.1L38.3 81l-2.9 17.3 12.5-1.4z"/><path fill="#111211" d="M152.8 32.1l8.2 12.1-22.6-16.8-12.6 8.6z"/><path fill="#453b2f" d="M90 113h35v6H90z"/><ellipse cx="122" cy="49" rx="2" ry="12"/><ellipse cx="104" cy="241" fill="#fff" rx="75" ry="14"/><circle cx="181" cy="8" r="39" fill="#fff"/><path fill="#1b1d1c" d="M157.1 53.9l4.7 11.1.1-1.3-.9-28.1z"/><ellipse cx="12" cy="117" fill="#fff" rx="23" ry="255"/><circle r="1" fill="#fff" transform="matrix(18.9399 2.76303 -23.74921 162.79494 72.1 95.8)"/><path fill="#ecb5a4" d="M117 228l-1-45 82 25z"/><ellipse cx="180" cy="249" rx="2" ry="27"/><path d="M157 74h34v3h-34z"/><path fill="#19140e" d="M91 74h38v3H91z"/><ellipse cx="185" cy="168" fill="#fff" rx="16" ry="52"/><path d="M124 221l-12 2 11 3z"/><path fill="#fff" d="M4 117h107v139H4z"/><ellipse cx="185" cy="206" fill="#010d08" rx="24" ry="2"/><ellipse cx="108" cy="11" fill="#fff" rx="194" ry="19"/><path fill="#e4e2a5" d="M178 219l-20 24 20 6z"/><path d="M170 233h3v23h-3zm5-177h2v20h-2zm-42-26h16v3h-16z"/><circle r="1" transform="matrix(5.47456 -4.3831 4.8901 6.10783 45.6 88)"/><path fill="#161b19" d="M110 223h64v2h-64z"/><path fill="#010000" d="M106.8 83.5h-2l.4-25h2z"/><path fill="#ffcbbe" d="M163 48v67l21-8z"/><path d="M122.1 43.8l-.7-.7 12.5-13 .7.8z"/><path fill="#fff" d="M165 84l-42-39-1 194z"/><path fill="#ffc5b5" d="M118 69l1 50-24-32z"/><path fill="#fff" d="M2 5h103v66H2z"/><path d="M148 252h26v2h-26z"/><ellipse cx="116" cy="58" fill="#040504" rx="7" ry="2"/><path fill="#fff" d="M197.4 55.6l-1.3 26.2-74.3-83.7L191-16z"/><path fill="#ffdfd2" d="M155.3 218.4l7.6 15.3-57.3-44.7L210 224.1z"/><path fill="#fff" d="M96 226h54v30H96zm75-108h24v79h-24z"/><path d="M160.7 242.5l.6-19h2l-.6 19z"/><ellipse cx="187" cy="94" rx="1" ry="22"/><path fill="#fff" d="M67 29L43 130 170-16z"/><path fill="#404647" d="M178 62l-6-6h-16z"/><path d="M167 115h24v2h-24zM36 84h15v12H36z"/><ellipse cx="113" cy="187" rx="3" ry="4"/><path fill="#fffff1" d="M174 217h5v39h-5z"/><path fill="#fff" d="M-2 50l18 221 58-132z"/><path d="M123.3 70.3l2 5.7-4.6 1.7-2-5.7z"/><path fill="#292a0b" d="M122.6 135.3l-.4 2-12.8-2.6.4-2z"/><path fill="#292903" d="M119.2 169.1l-4.8 5.2-3.6-3.4 4.8-5.2z"/><path fill="#151600" d="M161 186h10v3h-10z"/><ellipse cx="104" cy="115" rx="11" ry="1"/><path fill="#fff" d="M174.3 73l-20 1-.6-13 20-1z"/><path d="M167 167h4v5h-4zm-6-125.5l1 .2-3 18.8-1-.2z"/><path fill="#fff" d="M75 227h95v10H75z"/><path fill="#050600" d="M122.8 151.6l.2 1-11.8 1.8-.2-1z"/><path fill="#ffffc8" d="M116 107h3v84h-3z"/><circle cx="113" cy="205" r="3"/><path fill="#ffebc1" d="M163 75h4v144h-4z"/><path fill="#c09c8f" d="M167.4 97.4l.2-9 17 .2-.2 9z"/><ellipse cx="166" cy="59" rx="8" ry="1"/><circle r="1" fill="#050605" transform="matrix(-2.69797 -1.60659 1.43574 -2.41106 160.9 74.7)"/><circle cx="168" cy="153" r="3"/><ellipse cx="130" cy="161" fill="#fff" rx="106" ry="5"/><path fill="#fff" d="M2.7 109.3l42.9-32.6L179.2 8.1 3.1 3.9z"/><path fill="#f9c6bd" d="M96 80h22v34H96z"/><path fill="#fff" d="M59 174h133v10H59zm55.8-109.5l6.6 6.2-8.2 8.8-6.6-6.2zM162 2h33v56h-33z"/><ellipse cx="74" cy="116" fill="#fff" rx="17" ry="246"/><circle cx="120" cy="170" r="2"/><circle cx="140" cy="51" r="18" fill="#fff"/><path fill="#f2c4bd" d="M110 220l61-28-50-3z"/><path fill="#fff" d="M73.7 110.2L124 146l-83.4 20.5 77.1-37.6z"/><ellipse cx="186" cy="206" rx="19" ry="1"/><path d="M111.6 114.1l4.5 6.7-1.7 1-4.5-6.6z"/><path fill="#16190a" d="M158 134h14v2h-14z"/><path d="M179 223h16v4h-16zm-64-3l3 7-6-5z"/><circle r="1" fill="#010000" transform="rotate(-6.8 744.5 -750.7) scale(1 9.88059)"/><path fill="#fff" d="M99.3 57.8l-.6-19 20-.6.6 19z"/><path d="M157.6 223l.2-1 14.6 3-.2 1z"/><path fill="#212322" d="M126 57l-6-15v14z"/><path fill="#fff" d="M172.5 86l.7-25.3-67.6 2.1 55.5 8.9z"/><path d="M94 86h2v31h-2z"/><path fill="#2b2b2b" d="M139.8 29.5l7.2 1.3 3.4 1.8 12.2 12.1z"/><path fill="#fff" d="M188.2 82.9l.3 21.8 21.5 49.5-8.7-87.8z"/><path fill="#ffffcd" d="M158 244l3 7 21-10z"/></g></g></svg>