<svg xmlns="http://www.w3.org/2000/svg" viewBox="0 0 1200 859"><defs/><filter id="prefix__a"><feGaussianBlur stdDeviation="12"/></filter><rect width="100%" height="100%" fill="#436272"/><g filter="url(#prefix__a)"><g transform="translate(2.3 2.3) scale(4.6875)"><circle cx="117" cy="120" r="191" fill="#fff" fill-opacity=".5"/><circle cx="130" cy="78" r="169" fill="#fff" fill-opacity=".5"/><circle cx="174" cy="86" r="200" fill="#fff" fill-opacity=".5"/><circle cx="115" cy="116" r="200" fill="#fff" fill-opacity=".5"/><path fill="#c2ddee" fill-opacity=".5" d="M158 73l-86 28 65-117z"/><path fill="#fff" fill-opacity=".5" d="M-16 198L254-16l17 214z"/><path fill="#afd4eb" fill-opacity=".5" d="M109.9-16L81.5 33.9 157 23.3l-78.6-9.9z"/><circle r="1" fill="#bbd5e8" fill-opacity=".5" transform="rotate(-44.8 308.5 -217) scale(4.48138 83.51452)"/><path fill="#fff" fill-opacity=".5" d="M208-16l63 85-175-8z"/><circle r="1" fill="#fff" fill-opacity=".5" transform="rotate(-54.5 104.3 30.6) scale(30.87214 78.42627)"/><circle r="1" fill="#b8d8ec" fill-opacity=".5" transform="matrix(26.28071 26.29374 -3.16706 3.1655 61.8 50)"/><circle cx="91" cy="152" r="3" fill="#002cb7" fill-opacity=".5"/><circle r="1" fill="#c4ddeb" fill-opacity=".5" transform="matrix(-42.65615 -38.37543 2.98229 -3.31496 177.4 94.6)"/><circle r="1" fill="#d0e4ec" fill-opacity=".5" transform="rotate(-138 122.1 29.5) scale(67.16038 4.39505)"/><ellipse cx="117" cy="72" fill="#b4cfe6" fill-opacity=".5" rx="24" ry="12"/><circle r="1" fill="#fff" fill-opacity=".5" transform="matrix(-8.79993 -19.05921 69.03073 -31.87253 14 20.3)"/><path fill="#97c1e1" fill-opacity=".5" d="M48.8 27.1l24.1-15.5 15 1.5 12.8-6.5z"/><path fill="#fff" fill-opacity=".5" d="M91.2 68.1l28.6 4.6L103 42 43.9 27z"/><path fill="#b8d7e9" fill-opacity=".5" d="M38 52l34 27-41-14z"/><ellipse cx="15" cy="155" fill="#d7e9f2" fill-opacity=".5" rx="12" ry="28"/><path fill="#cde3ef" fill-opacity=".5" d="M98.8 1.2l57.1 14.6 3 14.9-.5 18.8z"/><path fill="#99c6e7" fill-opacity=".5" d="M130 20l-39 1 51 14z"/><circle r="1" fill="#fff" fill-opacity=".5" transform="rotate(-29.2 368.1 -222.8) scale(30.07275 80.29445)"/><circle r="1" fill="#fff" fill-opacity=".5" transform="rotate(56.8 45.5 224) scale(81.51783 34.45174)"/><path fill="#8cbbde" fill-opacity=".5" d="M73 105h20v3H73z"/><ellipse cx="64" cy="153" fill="#b7d3e7" fill-opacity=".5" rx="24" ry="2"/><path fill="#d9e9f0" fill-opacity=".5" d="M230 153h32l-66 32z"/><path fill="#99bcdb" fill-opacity=".5" d="M94 150.7l.2-2 21.8 2.6-.2 2z"/><ellipse cx="45" cy="107" fill="#fff" fill-opacity=".5" rx="26" ry="38"/><circle r="1" fill="#8eb3de" fill-opacity=".5" transform="matrix(20.48644 -6.14623 .28736 .95782 123 74.7)"/><path fill="#fff" fill-opacity=".5" d="M-10 180l246 18-46-60z"/><path fill="#71a7e1" fill-opacity=".5" d="M80.6 72.3l-22-22 .8-.6 22 22z"/><circle r="1" fill="#fff" fill-opacity=".5" transform="matrix(2.5198 -7.75516 34.93018 11.3495 255.2 174)"/><path fill="#b7d1e6" fill-opacity=".5" d="M235.4 162.9l-7.4-32.8 11.7 13.2.5 18.2z"/><path fill="#fff" fill-opacity=".5" d="M-8 192L-10-5l42 60z"/><path fill="#c1daeb" fill-opacity=".5" d="M80.8 24.5l36.8 17.3-15 32.8 20.8-11.9z"/><path fill="#b4d0e6" fill-opacity=".5" d="M163.3 72.8l-43-13.1 30.8 36.1-22.4-19z"/><path fill="#a9d0e7" fill-opacity=".5" d="M130.3 42.8l13.3 5.3 2.6-4-28.7-5.9z"/><path fill="#9bc4e1" fill-opacity=".5" d="M18 23l5-2v10z"/><path fill="#82adda" fill-opacity=".5" d="M9 134h8v6H9z"/><ellipse cx="215" cy="10" fill="#fff" fill-opacity=".5" rx="58" ry="101"/><path fill="#fff" fill-opacity=".5" d="M92 68l25-12-54-33z"/><circle r="1" fill="#fff" fill-opacity=".5" transform="matrix(-22.24835 -20.29577 3.6833 -4.03765 60.4 60.6)"/><path fill="#cadfe5" fill-opacity=".5" d="M166.2 115l-40.6-36.8 49.8 42.4 21.4 21.3z"/><path fill="#fff" fill-opacity=".5" d="M179-16L135 6l-3 20z"/><path fill="#5290d8" fill-opacity=".5" d="M85 89l-8-3 1 3z"/><path fill="#aecbe7" fill-opacity=".5" d="M219.3 128.5l15.3 19.3-47.2-48 36.6 29.5z"/><path fill="#fff" fill-opacity=".5" d="M0 148h43v17H0z"/><path fill="#97c0e7" fill-opacity=".5" d="M220 150h3v22h-3z"/><path fill="#fff" fill-opacity=".5" d="M234.5 149l-26.6-25.6-1.3 3.5 20 34.8z"/><path fill="#b0d0e5" fill-opacity=".5" d="M44.3 28.2l15.4-8.3-24.9 16.6 23.4-5.7z"/><circle r="1" fill="#fff" fill-opacity=".5" transform="rotate(128.4 14 86.2) scale(34.10968 16.45599)"/><path fill="#9fc8e5" fill-opacity=".5" d="M101.9 87.4l-.2 1L54 76.6l.2-1z"/><path fill="#c0deec" fill-opacity=".5" d="M23 47l24 11-20-20z"/><path fill="#a8cae4" fill-opacity=".5" d="M82 12l3.1-5.2L57 19.9l30.8-6.4z"/><path fill="#c5dfea" fill-opacity=".5" d="M5 165h28v9H5z"/><path fill="#8db6e0" fill-opacity=".5" d="M222.3 156.2L195 132.6l.6-.8 27.2 23.6z"/><path fill="#abcbe4" fill-opacity=".5" d="M149.1 92.6l64.4 54-.6.8-64.4-54z"/><path fill="#fcfefc" fill-opacity=".5" d="M142.5-1.5l-18.3 3.2 1.7 23.3-21.2-9.9z"/><path fill="#fff" fill-opacity=".5" d="M93.6 51.3l71-1.8L270 91.9 144.8 65.8z"/><path fill="#80afde" fill-opacity=".5" d="M134 11l20.3 5-.2 1-20.4-5z"/><path fill="#a1c9e1" fill-opacity=".5" d="M147 53h10v5h-10z"/><path fill="#eff9f9" fill-opacity=".5" d="M113 21.5L81.2 35.2l60.5 11.9L100 34.3z"/><path fill="#add2ea" fill-opacity=".5" d="M128.5 24.1L85.7 11.8l30.7 15.3 42.6 7.1z"/><path fill="#bfd6e6" fill-opacity=".5" d="M4 143h6v14H4z"/><path fill="#95c3e7" fill-opacity=".5" d="M81.8 28.1L140.5 45l-.3 1-58.7-17z"/><path fill="#78a7de" fill-opacity=".5" d="M127 13h4v12h-4z"/><path fill="#accde4" fill-opacity=".5" d="M106.9 61.5l2.7 14.3-17.7-5.1 30.9-11.6z"/><path fill="#83afd7" fill-opacity=".5" d="M9.1 153.8l10 1.4-.2 1-10-1.4z"/><path fill="#acd0e7" fill-opacity=".5" d="M142.5 54.4l-1.9-10.6L163 32l-16.5 5.1z"/><path fill="#a3cae8" fill-opacity=".5" d="M93.5 1l.3-.9L124.5 9l-.3 1z"/><ellipse cx="157" cy="26" fill="#fff" fill-opacity=".5" rx="17" ry="6"/><circle cx="108" cy="44" r="5" fill="#a3c5e3" fill-opacity=".5"/><ellipse cx="29" fill="#fff" fill-opacity=".5" rx="56" ry="19"/><path fill="#7fb1e0" fill-opacity=".5" d="M99.8 90.4l-17.2 8-.4-.8 17.2-8z"/><ellipse cx="34" cy="68" fill="#b6d3e9" fill-opacity=".5" rx="10" ry="4"/><path fill="#95c1e6" fill-opacity=".5" d="M53.7 38L89 73.3l-.7.7L53 38.7z"/><path fill="#78a4d8" fill-opacity=".5" d="M127.4 67.8l25.4 5.4-.2 1-25.4-5.4z"/><path fill="#edf4f6" fill-opacity=".5" d="M143.8 68.4l-61.5-5.9 44.4 12.4-1.7-12z"/><path fill="#0663cd" fill-opacity=".5" d="M97.5 152l-.1 1-7-1 .2-1z"/><circle r="1" fill="#fcfffc" fill-opacity=".5" transform="matrix(-44.87566 -39.98322 1.28836 -1.446 175 98.6)"/><ellipse cx="50" cy="154" fill="#a1c6e5" fill-opacity=".5" rx="11" ry="2"/><path fill="#fff" fill-opacity=".5" d="M161.1 198l53.7-35.4-68-64.3-65.2-6.9z"/><path fill="#90b7e3" fill-opacity=".5" d="M85.4 88l-12 14.7-.8-.6 12-14.8z"/><path fill="#b1d1e9" fill-opacity=".5" d="M158.9 16l-26.5 11.5 21.4-13.9-5.7 11.4z"/><ellipse cx="30" cy="98" fill="#fff" fill-opacity=".5" rx="43" ry="31"/><path fill="#fff" fill-opacity=".5" d="M67.7 63.4l26.2 88.8 61.9-8.6-79-41.5zm15-30.9l35.9-2.7-18.4-3.8-8.7 6.1z"/><path fill="#6d9fdf" fill-opacity=".5" d="M23 133l.7.7L19 139l-.8-.7z"/><path fill="none" stroke="#97c1e9" stroke-opacity=".5" stroke-width=".5" d="M184 96.7q-7.5-7.3-35.2-30.8"/><path fill="#f4faf7" fill-opacity=".5" d="M48.3 64.8l-29.5-34 19.6 33.8 13 8.1z"/><path fill="#c1dbe2" fill-opacity=".5" d="M-13.6 70.6l40.5-25.4L25 43l12.5-7.8z"/><path fill="#fffffe" fill-opacity=".5" d="M116 47l8-14 8 1z"/><path fill="#0050cb" fill-opacity=".5" d="M91 151h4v3h-4z"/><circle r="1" fill="#cde2ec" fill-opacity=".5" transform="matrix(-1.71626 1.26987 -13.0133 -17.58767 53 69.2)"/><path fill="#fff" fill-opacity=".5" d="M61 66l41 12-21 2z"/><path fill="#fffffe" fill-opacity=".5" d="M76.7-16L132 11.8l-2.2-25.5L89.9 5.6z"/><path fill="#fff" fill-opacity=".5" d="M228.3 193.2l14.9-15.2-6.5-80.3 34.3 7.9z"/><path fill="#bad5ea" fill-opacity=".5" d="M17 23h9v7h-9z"/><path fill="#abcce0" fill-opacity=".5" d="M130 7l9-18-1 14z"/></g></g></svg>