<svg xmlns="http://www.w3.org/2000/svg" viewBox="0 0 1200 849"><defs/><filter id="a"><feGaussianBlur stdDeviation="12"/></filter><rect width="100%" height="100%" fill="#6f6f6f"/><g filter="url(#a)"><g fill-opacity=".5" transform="translate(2.3 2.3) scale(4.6875)"><circle cx="94" cy="102" r="199" fill="#fff"/><circle cx="144" cy="140" r="215" fill="#fff"/><circle r="1" fill="#fff" transform="matrix(-70.7963 141.20924 -159.59478 -80.01402 127 98.9)"/><circle r="1" fill="#fff" transform="matrix(0 -46.31212 228.50306 0 130.4 146.8)"/><ellipse cx="113" cy="9" fill="#fff" rx="255" ry="18"/><path fill="#c7c7c7" d="M60 30.8l5.4 33.5-43.5 7-5.3-33.6z"/><path fill="#c9c9c9" d="M203 21h18v92h-18z"/><path fill="#fff" d="M290.3 26.7l-2.6 75-68-2.4 2.6-75z"/><circle r="1" fill="#fff" transform="matrix(-1.62316 48.35655 -218.94837 -7.34934 46.7 164.7)"/><path fill="#b5b5b5" d="M155 64l26 5-25 25z"/><circle r="1" fill="#c3c3c3" transform="matrix(-.26681 -3.16444 57.13559 -4.8174 84.6 96)"/><path fill="#fff" d="M84.9 77.2L45.7 62.9 31.1 90.7l45 4.4z"/><path fill="#a7a7a7" d="M205.5 65.6l-1.4 14.5 2.8 19.9 6.6-33.6z"/><path fill="#878787" d="M114 71h20v3h-20z"/><path fill="#a0a0a0" d="M86 62h3v33h-3z"/><ellipse cx="241" cy="12" fill="#909090" rx="1" ry="90"/><ellipse cx="191" cy="58" fill="#fdfdfd" rx="10" ry="154"/><circle r="1" fill="#fff" transform="matrix(-15.22588 26.05597 -91.99806 -53.75933 12.8 118.5)"/><path fill="#aaa" d="M308.3 139.2l-106.7-7.4v-1l106.8 7.4z"/><path fill="#bebebe" d="M24 48h12v27H24z"/><path fill="#adadad" d="M203 130v-5h-17z"/><path fill="gray" d="M158 68h23v3h-23z"/><path fill="#cacaca" d="M113 33h7v61h-7z"/><path fill="#c5c5c5" d="M28 93h106v4H28z"/><circle r="1" fill="#fff" transform="matrix(25.18808 -23.2429 16.14026 17.49103 146.4 5.2)"/><path fill="#f0f0f0" d="M116 41h56v28h-56z"/><path fill="#fff" d="M15.9 35.4l8.3 12.5L1.8-16-16 106.4zM213 0h4v67h-4z"/><path fill="#fbfbfb" d="M183.4 113.8l-31.6-45-27.4 12 50.8-5.2z"/><path fill="#b9b9b9" d="M99.7 118.1l.1-1L202.3 128l-.1 1z"/><ellipse cx="190" cy="2" fill="#d7d7d7" rx="2" ry="111"/><path fill="#ddd" d="M152 29h22v37h-22z"/><path fill="#bbb" d="M24 19h4v32h-4z"/><ellipse cx="250" cy="40" fill="#fff" rx="8" ry="62"/><path fill="#a8a8a8" d="M77 116h20v2H77z"/><path fill="#fff" d="M116 92l-6-49-8 45zM28 0h7v47h-7zm76 114l101-18-4 29z"/><path fill="#bababa" d="M203.4 27l-1.8 34h-1l1.8-34z"/><ellipse cx="148" cy="70" fill="#fff" rx="3" ry="52"/><path fill="#d3d3d3" d="M123 33h8v33h-8z"/><path fill="#fff" d="M38 67h38v26H38z"/><path fill="#fefefe" d="M216 76h23v55h-23z"/><path fill="#e3e3e3" d="M10.5 40.5l36.8 57.9L67 99.8l-42.2 8z"/><path fill="#d1d1d1" d="M67 27h6v38h-6z"/><path fill="#cbcbcb" d="M142 24h3v74h-3z"/><path fill="#dbdbdb" d="M81 52h21v22H81z"/><ellipse cx="71" cy="107" fill="#fff" rx="18" ry="9"/><path fill="#b0b0b0" d="M42 30h3v33h-3z"/><path fill="#fff" d="M74 10h7v47h-7z"/><circle r="1" fill="#fff" transform="matrix(8.7167 -.11003 .49123 38.91631 182.1 11.7)"/><circle r="1" fill="#fff" transform="matrix(2.06807 53.83337 -7.52778 .28919 232.1 40)"/><path fill="#fff" d="M126 42h15v18h-15z"/><ellipse cx="23" cy="65" fill="#bababa" rx="2" ry="21"/><path fill="#fafafa" d="M16.3.8l.4 132.1 6.8-84.1L-16-4.4z"/><path fill="#9c9c9c" d="M220 64l-16 4 14 1z"/><ellipse cx="65" cy="10" fill="#fff" rx="19" ry="15"/><path fill="#b0b0b0" d="M155 71h5v24h-5z"/><path fill="#fff" d="M47 26h3v62h-3z"/><path fill="#c7c7c7" d="M206.9 88.1l36.1 2.4-19.2 1-13.1 3.5z"/><path fill="#cdcdcd" d="M237 132l25 15 5-11z"/><path fill="#9e9e9e" d="M168.6 26.3l.8-.6 6 8-.8.6z"/><path fill="#fff" d="M150.4 28.7l-13 78.8-3.8-33.6 19.6 20.9z"/><path fill="#ebebeb" d="M34 150.7l-2-3.5 90-48 2 3.6z"/><path fill="#d8d8d8" d="M87.6 5.4l7.9 25.8L94 10.3 83.7-12z"/><path fill="#fcfcfc" d="M155 34h9v33h-9z"/><path fill="#d2d2d2" d="M202.6 112.4l3.2 7.5-1 2.8-3.6 13.5z"/><path fill="#dcdcdc" d="M3 73l8-31 12 21z"/><ellipse cx="197" cy="57" fill="#fff" rx="4" ry="40"/><path fill="#8b8b8b" d="M90 96l-12 1v-1l12-1z"/><path fill="#b2b2b2" d="M152.6 34.3l-1.3-2.7 8-4 1.4 2.8z"/><path fill="#b6b6b6" d="M57 36.7l4.3-9 3.6 1.6-4.2 9z"/><path fill="#fff" d="M11.3 64.4l.3 35.2 16.7-26.9-.6 14z"/><path fill="#ebebeb" d="M103.5 46.7L61.7 78.2 56 25.4l-4.6 40.8z"/><path fill="#b1b1b1" d="M174 35h1v29h-1z"/><path fill="#fff" d="M237 139l-191-2 174 59z"/><path fill="#b7b7b7" d="M34 34h3v41h-3z"/><path fill="#bebebe" d="M114.9 32.3l-1.2-1.7-1.7 24.1 6.7-20.6z"/><ellipse cx="153" cy="51" fill="#c8c8c8" rx="2" ry="20"/><path fill="#f7f7f7" d="M204 32h3v35h-3z"/><path fill="#fff" d="M77.5-15.9l-1.1 36.7-51.6 9.7 17.3 4.4zM175 0h5v68h-5z"/><ellipse cx="124" cy="92" fill="#b9b9b9" rx="10" ry="3"/><ellipse cx="51" cy="45" fill="#c2c2c2" rx="2" ry="19"/><ellipse cx="171" cy="96" fill="#e2e2e2" rx="42" ry="3"/><path fill="#b4b4b4" d="M115 73h5v22h-5z"/><path fill="#fdfdfd" d="M159.9 27.6l82.6-33.5-65.6-8.7-96.2 52.4z"/><path fill="#e7e7e7" d="M156 76l9 24 22-28z"/><path fill="#fefefe" d="M212.1 129l-19.3-30.8 15.1 13.1 61.2 4.9z"/><path fill="#868686" d="M178 68h3v6h-3z"/><path fill="#fff" d="M115 69l-8 13 5 10z"/><path fill="#fafafa" d="M90 50h4v47h-4z"/><path fill="#ddd" d="M218 40l12 17 1-7z"/><ellipse cx="138" cy="60" fill="#fff" rx="3" ry="34"/><circle r="1" fill="#eaeaea" transform="matrix(113.88342 -23.56974 .20267 .97925 198.8 .2)"/><ellipse cx="40" cy="12" fill="#fff" rx="1" ry="79"/><path fill="#d1d1d1" d="M157.1 31.7l36.2 19.2-3.7 2L158.1 30z"/><path fill="#cfcfcf" d="M240 40h1v67h-1z"/><path fill="#b7b7b7" d="M59 28h2v35h-2z"/><circle r="1" fill="#ededed" transform="matrix(.29626 4.41932 -16.12247 1.0808 124 98)"/></g></g></svg>