<svg xmlns="http://www.w3.org/2000/svg" viewBox="0 0 1400 1050"><defs/><filter id="a"><feGaussianBlur stdDeviation="12"/></filter><rect width="100%" height="100%" fill="#51312f"/><g filter="url(#a)"><g fill-opacity=".5" transform="translate(2.7 2.7) scale(5.46875)"><circle r="1" fill="#aecac8" transform="matrix(101.15767 -79.31775 153.28228 195.48814 116 126.7)"/><circle r="1" fill="#2a0d08" transform="matrix(43.67877 1.90706 -.62526 14.32083 112.5 43.7)"/><circle r="1" fill="#626565" transform="matrix(-156.00697 -92.5342 22.51045 -37.95124 238 43)"/><path fill="#a0a6a9" d="M0 0h66v142H0z"/><path fill="#cfd3d7" d="M215.7 85l14.4 81.7-13.8 2.4L202 87.3z"/><circle r="1" fill="#4a4f4b" transform="matrix(-.25737 -18.43127 127.69901 -1.78313 124.8 183.5)"/><circle cx="235" cy="65" r="20" fill="#51231a"/><circle r="1" fill="#a09d99" transform="matrix(-25.96029 -12.704 21.68186 -44.30631 132.7 96.8)"/><path fill="#c4d2dd" d="M33 106h13v69H33z"/><path fill="#6f453a" d="M90.1 58.4L79.7 80.9l-27-52.3L140 4z"/><ellipse cx="54" cy="165" fill="#595c58" rx="10" ry="55"/><path fill="#151108" d="M157 122h14v14h-14z"/><path fill="#ebeff7" d="M144 52h15v15h-15z"/><ellipse cx="124" cy="169" fill="#212222" rx="58" ry="4"/><circle r="1" fill="#494943" transform="matrix(11.63385 -2.5666 3.9896 18.08408 199.4 158.3)"/><ellipse cx="98" cy="61" fill="#ced0d2" rx="8" ry="10"/><ellipse cx="207" cy="32" fill="#717677" rx="58" ry="15"/><path fill="#301f19" d="M100 39l12 31 15-62z"/><path d="M148.3 50.3l-15-.6.4-14 15 .6z"/><path fill="#bfc5c9" d="M238 171l-24 1-5-42z"/><path fill="#6f6e6a" d="M203.9 82.8L188.4 207l18.4-107.3L271 87.5z"/><path fill="#b3b9bd" d="M238 117h8v59h-8z"/><circle r="1" fill="#63655f" transform="matrix(-6.59975 23.55692 -7.91338 -2.21703 26.3 129.2)"/><circle r="1" fill="#a7a7a7" transform="matrix(42.66615 -34.0651 7.78399 9.74936 78.7 0)"/><path fill="#34211c" d="M82 75l11-28-22 7z"/><path fill="#cbd0d8" d="M237.8 97.8l8.3 47.3-5.9 1L232 99z"/><circle r="1" fill="#96999c" transform="matrix(-35.16243 8.9628 -2.59598 -10.18445 142.6 148.1)"/><ellipse cx="191" cy="73" fill="#8e8d8d" rx="20" ry="38"/><path fill="#8d716b" d="M87 0h58v37H87z"/><path fill="#44484c" d="M271 3L151 21l14-37z"/><path fill="#a7a8a7" d="M104 105h71v18h-71z"/><ellipse cy="11" fill="#a5bfe7" rx="7" ry="52"/><ellipse cx="55" cy="89" fill="#a0a09b" rx="29" ry="20"/><path fill="#3d3e37" d="M102 136l-17 19-5-17z"/><path fill="#79746b" d="M125.5 40.4L161 82.5l-8.4 7.1L117 47.5z"/><circle cx="91" cy="118" r="9" fill="#4c4a42"/><path fill="#42403d" d="M86 101h88v3H86z"/><ellipse cx="134" cy="191" fill="#7d7f7c" rx="107" ry="13"/><path fill="#e1e5eb" d="M88 63h17L84 77z"/><path fill="#aebbc1" d="M15.5 123v46h-5v-46z"/><path fill="#333837" d="M44 150h7v26h-7z"/><path fill="#6a625c" d="M161 52l-5.4 26.9 8.8 17.3L175 57.1z"/><path fill="#2a1f1d" d="M128.1 39.7l-10.2 13.6-20-15 10.2-13.6z"/><path fill="#3d4042" d="M205 171.7l6.3-2.2-1.1-21.6-10.6-45.6z"/><ellipse cx="147" cy="32" fill="#bdc0b5" rx="28" ry="2"/><path fill="#a8b4bd" d="M48 130l-37 43 30-1z"/><path fill="#cfd7de" d="M45.4 136.3l-8-.7 3.2-35.9 8 .7z"/><path fill="#5d5f58" d="M218 103l20 26 3 31z"/><path fill="#6c4b42" d="M126.9 24.1l-62.2 17-9.1 25.7 3.9-10.2z"/><path fill="#454a49" d="M0 174h46v7H0z"/><path fill="#797772" d="M242 83h14v53h-14z"/><path fill="#757775" d="M63 107L48 207l33-9z"/><path fill="#c1c4c9" d="M150.2 44.4l12.8 2.7-5.2 24.5-12.8-2.7z"/><path fill="#5e5e5c" d="M161 131l-17 10-33-7z"/><path fill="#000a1a" d="M151 39l-25-2 21 17z"/><path fill="#5d5d59" d="M196 172h59l7 32z"/><ellipse cx="103" cy="92" fill="#99968f" rx="53" ry="10"/><path fill="#606e87" d="M244-.5l11.7-2.2 8.4 43.2-11.8 2.2z"/><path fill="#939598" d="M99.5 137l28-1 1 29-28 1z"/><path fill="#7a7771" d="M119 41h14v22h-14z"/><path fill="#a4746b" d="M137-16L80 14l10 23z"/><circle r="1" fill="#563830" transform="matrix(-2.28694 -.8109 13.34323 -37.63076 119.5 25.7)"/><ellipse cx="240" cy="62" fill="#5a3b36" rx="26" ry="20"/><path fill="#2e251a" d="M93 138h7v12h-7z"/><path fill="#969796" d="M89 119h22v19H89z"/><path fill="#71756e" d="M30.2 166.6L14.1 170l6.4-61.2 4.7-6.4z"/><path fill="#c5cad0" d="M186 152h16v2h-16z"/><path fill="#29231b" d="M154 124h17v10h-17z"/><circle r="1" fill="#b2b6ba" transform="rotate(168.5 114 80.5) scale(3.32112 36.4431)"/><path fill="#999c99" d="M69 32L38 87 23 47z"/><path fill="#989c9c" d="M80 140.2l-.2 11.3 2.6-44.8-17.7.8z"/><path fill="#b8b9bc" d="M184 98h52v3h-52z"/><ellipse cx="41" cy="131" fill="#c3cbd1" rx="27" ry="1"/><circle r="1" fill="#c1c3c5" transform="rotate(166.6 99.8 74.8) scale(5.82218 24.51099)"/><ellipse cx="5" cy="123" fill="#7f827f" rx="9" ry="32"/><circle r="1" fill="#494944" transform="rotate(-101.5 127.2 -87.8) scale(28.44104 9.09731)"/><path fill="#898b8d" d="M71 152h106v12H71z"/><path fill="#3f372f" d="M82 115h8v11h-8z"/><path fill="#c8d0d6" d="M15 100h25v3H15z"/><path fill="#b1b6bd" d="M213 167h22v7h-22z"/><path fill="#55534c" d="M222 103h9v12h-9z"/><path fill="#727d83" d="M160.5-28.1l-26.1 61.7-13-5.5 26.2-61.7z"/><path fill="#625f5f" d="M146.5 24l1.2-18 85.8 6-1.2 18z"/><ellipse cx="119" cy="167" fill="#373a3d" rx="68" ry="2"/><circle r="1" fill="#6d6860" transform="matrix(-3.04714 -3.78987 20.55445 -16.5262 106.1 70.7)"/><ellipse cx="89" cy="108" fill="#adb1b2" rx="13" ry="2"/><path fill="#8a9fa0" d="M66 55l7-12-2 14z"/><path fill="#5a5c58" d="M232 136l3 29 6-6z"/><ellipse cx="64" cy="137" fill="#534d43" rx="5" ry="4"/><path fill="#c0c5c8" d="M187 162h18v2h-18z"/><path fill="#4d2317" d="M66 43.7l3.5 1.9-5.4 10.7-3.6-1.9z"/><path fill="#74746e" d="M19 104h19v16H19z"/><ellipse cx="196" cy="120" fill="#d5d9dd" rx="12" ry="1"/><path fill="#9a9b9d" d="M38.8-16h87.6L76.3 15.2 44.5 42.5z"/><path fill="#4d4e4c" d="M55.5 135.6l-6.5-5.2 1.9-39-5.7 78.9z"/><path fill="#767778" d="M200 27h18v71h-18z"/><path fill="#707376" d="M88 164h71v3H88z"/><path fill="#d9dddd" d="M189 130h28v1h-28z"/><path fill="#5a5c59" d="M149.4 51.9l.4-18 18.9 10.2-5-1.4z"/><path fill="#9a9a99" d="M100 107h53v27h-53z"/></g></g></svg>