<svg xmlns="http://www.w3.org/2000/svg" viewBox="0 0 1400 1050"><defs/><filter id="a"><feGaussianBlur stdDeviation="12"/></filter><rect width="100%" height="100%" fill="#3a3648"/><g filter="url(#a)"><g fill-opacity=".5" transform="translate(2.7 2.7) scale(5.46875)"><circle r="1" fill="#666d5b" transform="matrix(81.74012 -110.84972 96.99388 71.52289 188.1 61.3)"/><circle r="1" fill="#666a6f" transform="matrix(-23.70637 25.1566 -58.32529 -54.96297 238 62.6)"/><circle cy="44" r="90" fill="#3d412b"/><circle cx="128" cy="191" r="96" fill="#464a43"/><ellipse cx="5" cy="147" fill="#262a1f" rx="16" ry="171"/><path fill="#6d6c68" d="M73.4 106.8L61.3 71.3 28.1 43.8l-.2 14.4z"/><circle r="1" fill="#52554e" transform="matrix(-48.98613 -52.76383 10.72132 -9.95371 58.7 124.5)"/><path fill="#7a7978" d="M80.9 107.7l40 14.2-15.4-51-2.5 65.2z"/><path fill="#83817f" d="M118.9 44l16.2 7 33.3 30.6L142 71.2z"/><path fill="#161813" d="M29.4 26.5l50.8 57.7 44.2 56.4-86-91.3z"/><path fill="#b3b7c0" d="M225.2 48.7l23.7 27.7 22.1 24.7-16.9-9.9z"/><path fill="#9c989a" d="M147.7 11.2L124.8-12l29 20.5 9.6 33.9z"/><path fill="#9da2ad" d="M269 66l-27-41 12 43z"/><path fill="#1a1c18" d="M170.8 70.6L145.2 7.2 114.4-16l29 36.5z"/><path fill="#9f9fa1" d="M200.2 129.1l-27.5-28.4-24.9-46.3 6.9 23.7z"/><circle r="1" fill="#292d2b" transform="rotate(-141.4 113.3 3.8) scale(23.0859 4.45408)"/><path d="M115 102l-13-23-16-6z"/><path fill="#000200" d="M144-16l25 35-17-11z"/><path fill="#10120a" d="M121 85l1-15-26-22z"/><circle r="1" fill="#7e7b79" transform="matrix(18.43146 18.23945 -3.54495 3.58227 89.6 85.5)"/><circle r="1" fill="#94918f" transform="rotate(-47.2 162.2 -115.1) scale(1.70337 57.30722)"/><path fill="#7b7976" d="M74 90l9 38-23-19z"/><path fill="#a9b2bf" d="M241 169l-16-20 10 6z"/><path fill="#a29e9b" d="M123 92L94 73l13 17z"/><path fill="#9e9da2" d="M198 24l25 4-43-24z"/><path fill="#888a8b" d="M198.4 117.3l-3.3 2.2-35.5-56.8 3.3-2.2z"/><path fill="#73706c" d="M30.6 5.5L37 .6l26.5 33.9-6.3 4.9z"/><path fill="#0d1111" d="M240.9 38.4l-22-13.9-20.1-22.3L227.9 25z"/><path fill="#c2bbbe" d="M129.2 9.8l18.4 19.7-.8.7-18.4-19.7z"/><path fill="#867f7d" d="M98.9 21.8l.6-20.7 5.4 10.5 15.7 25.9z"/><circle r="1" fill="#303436" transform="rotate(134.8 68.2 124.6) scale(10.85916 32.32178)"/><path fill="#272823" d="M142 53L86 12l26 35z"/><path fill="#0e1313" d="M246.9 71.6l-14.3-17.8L271 81.3l-6.6 12.8z"/><path fill="#787371" d="M55 15.6L29.1-16l53.2 42.8L56.9 3.4z"/><path fill="#42463a" d="M79 122l-43 85-35-81z"/><path fill="#2c2e2e" d="M206.3 199.9l-89.8-91.5 11.9 22.3 14.9 24.5z"/><circle r="1" fill="#7c838d" transform="matrix(-15.58242 -12.75406 2.9755 -3.63535 254.2 139.6)"/><path fill="#73777d" d="M187 178l37 22-42-45z"/><path fill="#c2c2c9" d="M183 126l-6-6-5 1z"/><path fill="#a5a5ab" d="M196.6 30L240 65.2l-.7.8L196 30.8z"/><path fill="#161a17" d="M130.9 169.1l-25.8-.9 34.2 38.8-21.8-49.6z"/><path fill="#999697" d="M164.4 66.7l-34.7-27 1.9-2.4 34.7 27z"/><path fill="#646863" d="M79.9 207l-17.6-37.5 39.2 37.5-56.6-41.9z"/><path fill="#959697" d="M188.6 140.1l-38.4-44.8L138.8 75l40.3 51z"/><path d="M108.9 19.2l.7-.7L131 40.8l-.7.7z"/><circle r="1" fill="#101512" transform="rotate(-130.9 134.6 -14.4) scale(31.20021 1.24474)"/><circle r="1" fill="#313330" transform="rotate(-138.6 102.6 -15.6) scale(31.60601 3.81525)"/><path fill="#1e211a" d="M47 91l7-28 8 61z"/><path fill="#9699a0" d="M252.8 46.7l-6.6-17.5 1.9 20.1-23.4-33z"/><path fill="#151d1a" d="M271 164.2l-35.2-6 31.5 25.2-18.6-40z"/><circle r="1" fill="#000100" transform="rotate(-131.3 78.2 77) scale(28.47786 1.99995)"/><path fill="#181b15" d="M78.8 88.7l27.5 43.8-44.5-60.1-7.1-14.7z"/><circle r="1" fill="#1a1c1a" transform="rotate(53.4 11.8 190.3) scale(15.16706 2.38612)"/><path fill="#737372" d="M72 172.9l-18.3-37.2L24 101.2l12.3 18.5z"/><circle r="1" fill="#989fa8" transform="matrix(-.69602 .71802 -18.66576 -18.09403 230.3 141)"/><path d="M241 155v11l-8-20z"/><path fill="#a5a6a7" d="M142.7 167.4l-26.2-40.3.8-.5 26.2 40.3z"/><path fill="#2c2f2f" d="M185.9 200l8.7 7-55.4-40-40.8-42.6z"/><path fill="#0d110a" d="M18.8 56.1l-2.3-9 20.3 22-7.5 7.5z"/><path fill="#131412" d="M88 28L53-2l20 8z"/><path fill="#242723" d="M161.8 84.7l7.8 15.5 3.2 17.7-31.9-60.3z"/><circle r="1" fill="#7a7b7c" transform="matrix(13.66125 20.79726 -2.65703 1.74534 150.8 132.6)"/><path fill="#080d06" d="M61.8 182.3l8.1 24.7-6.7-12.7-19.3-24.9z"/><path fill="#989695" d="M58.2 91l.8-.7 36.8 48.8-.8.6z"/><ellipse cx="226" cy="46" fill="#222627" rx="7" ry="4"/><path fill="#7a7875" d="M16.6 72.5l44 48.5-26.1-41.7 2.8 26.2z"/><path fill="#6d6f6c" d="M58.3 160.9l16.1 19-13.8-8.6-30.3-34.8z"/><path fill="#222520" d="M159 52l-22-11-11-21z"/><path fill="#727374" d="M157.6 174.7l-20-52.3 2.8-1 20 52.2z"/><path fill="#020600" d="M108.7 156.7l-.9.6-32.5-54 .9-.6z"/><path fill="#212420" d="M49.2 115.9l-23-18.8L50 130.4l16.9 25.5z"/><circle r="1" fill="#101416" transform="rotate(144.6 105.6 91) scale(1 17.20607)"/><path fill="#7c8083" d="M211.2 121.8l-16.4-20.5 16 31.1-22.6-52.6z"/><path fill="#949599" d="M151.4 111.6l26 28.8 9.2 26.1-14-28.6z"/><path fill="#5a6764" d="M223 160l13 35 18-24z"/><circle r="1" fill="#888a8e" transform="matrix(.82704 -.56215 16.20693 23.8439 199.4 162.6)"/><path fill="#989ba1" d="M271 94.6l-58.6-37.7-2-1.6L239 70.5z"/><path fill="#848382" d="M109 146.9l-2.1.7 9.4-2.8-50.6-64.1z"/><path fill="#1e201e" d="M87.8 128.3l18.1 13.4-13.6-18.8-14-9.6z"/><circle r="1" fill="#161814" transform="matrix(14.53753 18.3467 -2.31284 1.83265 52.4 15.6)"/><path fill="#000400" d="M42.5 144.6l.7-.7 90.3 93.5-.7.7z"/><path fill="#6c6f72" d="M202 140l-4 10 20 17z"/><path fill="#8a8686" d="M117.5 2l16.3 18.7.8 16.8 27 43.8z"/><path fill="#000400" d="M49.2 207l-29.9-24.9 36.6 20.6-28.2-27.9z"/><path fill="#000100" d="M129 102l12 21-11-7z"/><path fill="#b7b6b9" d="M172.5 104.2l-14-30 1-.4 14 30z"/><path fill="#6b6c6b" d="M87 207l-35-37.2-10.2-11.2-35.6-27.8z"/><path fill="#827d7e" d="M89.1 5.8L96 19.7l37.7 37.1-9.5-3.1z"/><path fill="#7a7e8b" d="M235.9 6.1l35.1 54-29.9-57L209.7.9z"/><path fill="#9b9c9a" d="M65.2 214.4l-39.9-47.5 1.5-1.3 39.9 47.5z"/><path fill="#12161e" d="M233.7-1.1l10.1-10.5-13-2.1 34.5 43.2z"/><path d="M67 23l10 9-7 3z"/><path fill="#030602" d="M101.7 86l1.7-1.2 14.9 21.3-1.7 1.1z"/><path fill="#050702" d="M146.6 79.3l-28-30 .8-.6 28 30z"/><circle r="1" fill="#7f7e7e" transform="matrix(-.60012 .79991 -22.35581 -16.77207 119.1 121)"/><path fill="#7d7676" d="M62.9 17l37.9 44.4-13.6-22 16.7 14.1z"/><path fill="#a5a5a2" d="M184.1 70l-34.8-25.2.6-.8 34.8 25.2z"/><path fill="#999ca5" d="M231.7 16.6l15.4 19.5-7.2-13.4-37.8-36.6z"/><path fill="#929194" d="M196.1 21.8L195 11.2l-69-23.7 37-3.5z"/><circle r="1" fill="#9e9b98" transform="rotate(137.3 48.7 63.8) scale(1 17.70989)"/></g></g></svg>