<svg xmlns="http://www.w3.org/2000/svg" viewBox="0 0 1400 1050"><defs/><filter id="a"><feGaussianBlur stdDeviation="12"/></filter><rect width="100%" height="100%" fill="#6f513e"/><g filter="url(#a)"><g fill-opacity=".5" transform="translate(2.7 2.7) scale(5.46875)"><circle cx="158" cy="55" r="227" fill="#fff"/><circle cx="170" cy="39" r="249" fill="#fff"/><ellipse cx="129" cy="107" fill="#ad7333" rx="84" ry="40"/><circle r="1" fill="#fff" transform="rotate(86.4 37.2 55.4) scale(69.18337 250.06001)"/><circle cx="226" cy="179" r="71" fill="#fff"/><circle cx="48" cy="191" r="70" fill="#fff"/><circle r="1" fill="#fff" transform="rotate(103.7 78 87.6) scale(43.07129 226.77494)"/><path fill="#1e0700" d="M24 115h103v4H24z"/><circle r="1" fill="#fff" transform="matrix(154.06277 60.62527 -10.67326 27.1232 56.6 160.5)"/><ellipse cx="14" cy="56" fill="#fff" rx="70" ry="42"/><circle cx="222" cy="173" r="53" fill="#fff"/><path fill="#bf986f" d="M134 167L114 56l128 41z"/><path fill="#fff" d="M-16 121v83l287-10z"/><path fill="#b58c5f" d="M122 155L15 111l81-44z"/><circle r="1" fill="#fff" transform="matrix(10.0089 -35.37068 206.0727 58.3127 228.2 51.6)"/><path fill="#40312a" d="M149.9 97.4l23.5-7.6-23.6-11.3-7 .9z"/><path fill="#250f00" d="M179 103h50v3h-50z"/><path fill="#fff" d="M295.3 147l-124.5 87.3-40.1-57.4 124.5-87.2z"/><circle r="1" fill="#e9c397" transform="matrix(-4.93003 18.27151 -23.55943 -6.35682 116.5 83.2)"/><path fill="#e7be93" d="M41 87h36v28H41z"/><circle r="1" fill="#fff" transform="rotate(-126.6 32.7 20) scale(31.06803 70.59435)"/><path fill="#261608" d="M34 116h54v5H34z"/><circle r="1" fill="#f0cda6" transform="matrix(26.68826 -9.23663 2.9629 8.56096 181.5 119.6)"/><path fill="#f2d0a4" d="M139.9 142.8L121 154l-14.9-24.9L125 118z"/><circle r="1" fill="#331f0e" transform="matrix(.3418 1.2271 -18.53227 5.16215 159.5 139.7)"/><path fill="#7b6f69" d="M76.2 81.8l32.2 19.4 39.2 1.2-69.9 4.3z"/><path fill="#9f9fa6" d="M155 81l6-13.7 22 9.7-6 13.7z"/><path fill="#090000" d="M123.5 115.5l.8-.6 22.2 29.6-.8.6z"/><path fill="#442d19" d="M94.8 134.9l24.2 17.3-18.5-3.7h2.5z"/><path d="M181.5 106.4l-14.6 3.1-.4-2 14.6-3z"/><circle r="1" fill="#fff" transform="matrix(19.75095 -8.1904 12.71185 30.65434 26.3 146.8)"/><path fill="#e2ba8f" d="M241 93l-48-14-24 26z"/><path fill="#fff" d="M-16-16L19 86l252-68z"/><path fill="#e4b684" d="M81.6 112.3l24.9 17.9-21.8 1.8 38.4-25.8z"/><path fill="#cea375" d="M81.3 117.1l-37.1-1.7-37.3-5.1 46.2-23.7z"/><circle r="1" fill="#fff" transform="matrix(-55.89006 39.2461 -11.03866 -15.72007 233 127.9)"/><circle r="1" fill="#fff" transform="matrix(-103.7424 -45.71278 12.50967 -28.38994 214 50.4)"/><circle r="1" fill="#fff" transform="matrix(-118.61003 77.38654 -10.27913 -15.75479 166.8 169.6)"/><path fill="#f4f0ee" d="M163 81h21v4h-21z"/><path fill="#221000" d="M42 118.2l-30.2-7.5.3-1 30 7.6z"/><path fill="#5b3e25" d="M165 96l20-7-2-6z"/><path fill="#e5bc8b" d="M94 128l63 23-28 9z"/><path fill="#fff" d="M51.3 167.3l-86.8-38.6 14.2-32 86.8 38.6z"/><path fill="#e8c396" d="M98 143l-15-23-45-1z"/><path fill="#dab58e" d="M113.3 61.9L71.8 86.2l93.6 14-11 23.5z"/><path fill="#796351" d="M181 78l-21-11v9z"/><circle r="1" fill="#fff" transform="matrix(-60.63348 -35.0495 29.95318 -51.81716 230.3 27.4)"/><path fill="#190800" d="M159 112h7v5h-7z"/><circle cx="45" cy="191" r="62" fill="#fff"/><path fill="#fff" d="M-6.1-16l184.3 3.7-94.7 88.4L-5 111.5z"/><circle r="1" fill="#7a6b65" transform="rotate(73.5 -8.7 156.9) scale(6.60834 10.41561)"/><path fill="#e3c09a" d="M123.1 113.3L94 120.8l62.7-52.2-44.7-5.7z"/><path d="M146 79l11 6v-4z"/><path fill="#fff" d="M56 163h200v29H56z"/><circle r="1" fill="#896544" transform="matrix(-.7128 -1.90653 21.2457 -7.9432 181.5 88.3)"/><circle r="1" fill="#695039" transform="matrix(-.9114 .41151 -6.89233 -15.26481 89.6 121.9)"/><path fill="#dcb78e" d="M52.9 87.5l13.4-1.4 25 31.2-40.5-2.8z"/><path fill="#e1be96" d="M101 142.1l50.1 17.6-33.6-38.1-20.5 1z"/><ellipse cx="217" cy="96" fill="#d7af86" rx="28" ry="7"/><path fill="#e7bb8b" d="M118 105h44v8h-44z"/><path fill="#040000" d="M28 116h49v2H28z"/><path fill="#e7e0db" d="M163.3 77.1l-6.2.7 3.2 9.7 9.4-4.3z"/><path fill="#e2c5a3" d="M145 95.6l-26.5-39.2 1.6 43.7 36.8-1.8z"/><path fill="#e7b988" d="M144 130h40v7h-40z"/><path fill="#ac7d51" d="M229 104l-17-6h30z"/><path fill="#33200d" d="M128.5 121.8l15.8 21.8-.8.6-15.8-21.8z"/><circle r="1" fill="#fff" transform="rotate(-117.9 96.1 -30.6) scale(28.41109 35.71379)"/><path fill="#fff" d="M170-16L271 3l-87 79z"/><path fill="#251809" d="M105 117l15 2v-4z"/><path fill="#debf9d" d="M178.9 91.1l-20 12.7 77.8-11.1-23.6-7.3z"/><path fill="#745639" d="M177 136l-23 2-17 13z"/><path fill="#debc94" d="M115.6 148.8l9-14.4 23.8 14.8-9 14.4z"/><path fill="#e2c09c" d="M174 110l52-4-54 35z"/><path fill="#3d2917" d="M194.3 103.2l.3 3-29 2.6-.2-3z"/><circle r="1" fill="#36200b" transform="rotate(-159.3 68.8 63.5) scale(9.43021 1)"/><path fill="#967a60" d="M157 84l-1 14-18-9z"/><circle cx="96" cy="80" r="13" fill="#d2a97e"/><path fill="#cda372" d="M7.3 108.7l18.2-8.1 1.2 2.7-18.2 8.1z"/><path fill="#e0c4a3" d="M65 105l21-31-33 14z"/><path fill="#080000" d="M148.4 143.2l-.2-1 23.4-5.4.2 1z"/><path fill="#fff" d="M99.5 146.4l48.4 22.1L271 191.7l-287 .2z"/><path fill="#d3ab80" d="M93 109L49 88 9 111z"/><circle r="1" fill="#e4be92" transform="matrix(-16.65141 4.58656 -1.23965 -4.50051 152 149.4)"/><circle cx="105" cy="120" r="4" fill="#654c34"/><circle r="1" fill="#fff" transform="rotate(46.4 -164.3 70.4) scale(33.22346 31.32953)"/><path fill="#5c3f29" d="M83.3 103.2l-7.6-4.7 1-1.7 7.6 4.7z"/><path fill="#d3a575" d="M68 109h43v8H68z"/><path fill="#ddb183" d="M120.8 118l.3 1-21.9 7-.3-1z"/><path fill="#e5b581" d="M141 135h21v4h-21z"/><path fill="#5c4029" d="M123 102h18v2h-18z"/><path fill="#d2b9a1" d="M59 119.7l-54.3 3.2 33.5-2.7-5-3.1z"/><path fill="#321b06" d="M158.7 90.8l-.2-1 18.8-2.6.2 1z"/><path fill="#fff" d="M0 0h256v61H0z"/><path fill="#120300" d="M167.3 85.6l.4 4-7 .8-.4-4z"/><circle r="1" fill="#fff" transform="matrix(-40.57902 -23.67055 39.46158 -67.64998 247.8 160.3)"/><path fill="#80634d" d="M95.8 103.6l12.6 3.8-19.9.3-12-12.5z"/><path fill="#d4a77a" d="M135 109l28-20 17 14z"/><path fill="#7e7876" d="M90 101L78 83.8l4-2.8 12 17.2z"/><path fill="#c49c74" d="M158.1 108.1l-40.3 46.8 19.9-22.3 7.7 12.4z"/><path fill="#e5e1e0" d="M161 78.4l-1 2.6-13-5.5 1.2-2.7z"/></g></g></svg>