<svg xmlns="http://www.w3.org/2000/svg" viewBox="0 0 1400 1050"><defs/><filter id="a"><feGaussianBlur stdDeviation="12"/></filter><rect width="100%" height="100%" fill="#554a3e"/><g filter="url(#a)"><g fill-opacity=".5" transform="translate(2.7 2.7) scale(5.46875)"><ellipse cx="158" cy="53" fill="#e1e6e4" rx="88" ry="117"/><circle r="1" fill="#fff" transform="matrix(14.13145 -.59672 4.24465 100.52175 0 22)"/><circle r="1" fill="#fcffff" transform="matrix(26.92903 -4.87314 5.26967 29.12023 102.4 49.1)"/><circle r="1" fill="#fff" transform="matrix(-9.91887 22.81072 -22.86142 -9.94092 164.4 68.3)"/><ellipse cx="54" cy="177" rx="24" ry="62"/><circle r="1" fill="#2e2312" transform="matrix(-89.85071 -1.0264 .2064 -18.06831 153.8 4.4)"/><ellipse cx="230" cy="137" fill="#fff" rx="9" ry="32"/><ellipse cx="134" cy="118" rx="6" ry="176"/><circle r="1" fill="#000001" transform="rotate(118.9 58 124.2) scale(12.203 32.89422)"/><circle r="1" fill="#f2f1ee" transform="rotate(-113.4 131.7 -61.4) scale(14.59895 26.2133)"/><circle r="1" fill="#cbd8ea" transform="matrix(15.5466 1.6889 -2.82328 25.9887 180.4 161)"/><path fill="#9fcefd" d="M84 177h49v15H84z"/><path fill="#150000" d="M240 207l31-140.1-32.8-24.2-.8 49.8z"/><circle r="1" fill="#332216" transform="rotate(-113.8 97.5 34.7) scale(21.26914 12.22939)"/><path fill="#fff" d="M-13 21L1 130 16 24z"/><path fill="#d3e5e1" d="M79 21h49v89H79z"/><ellipse cx="149" cy="95" fill="#faf5f0" rx="10" ry="57"/><circle r="1" fill="#81796a" transform="rotate(-154.5 1.6 1) scale(41.78986 19.44839)"/><ellipse cx="237" cy="189" fill="#000008" rx="37" ry="22"/><circle r="1" fill="#efefef" transform="rotate(-94.2 148.1 -70.2) scale(32.5697 7.81036)"/><ellipse cx="84" cy="99" fill="#909483" rx="17" ry="39"/><circle r="1" fill="#949892" transform="matrix(-10.43316 36.14654 -12.59675 -3.63586 10.6 187.4)"/><ellipse cx="52" cy="165" rx="19" ry="40"/><circle r="1" fill="#6f624b" transform="matrix(-21.08245 -2.14946 7.97277 -78.19905 56.7 45.6)"/><path fill="#c4baaf" d="M140 19h95v39h-95z"/><path fill="#181103" d="M-6.8 28.4L-16-10.2l36.1 33.6-25.6-1.3z"/><path fill="#d5dadc" d="M222 19h14v144h-14z"/><path fill="#fffff7" d="M92 101h27v14H92z"/><ellipse cx="137" cy="146" fill="#21190f" rx="4" ry="87"/><path fill="#fff3df" d="M170.6 67.7l13-5.2 21.8 53.8-13 5.2z"/><path fill="#242b31" d="M196 131h26v61h-26z"/><path fill="#141601" d="M121 94h3v48h-3z"/><path fill="#967860" d="M181 87.3l1 20-29 1.4-1-20z"/><circle r="1" fill="#001c09" transform="matrix(20.54008 -32.78658 4.30002 2.69387 11.1 140.5)"/><circle r="1" fill="#544846" transform="matrix(16.30646 31.79944 -10.73667 5.50567 105.9 145.7)"/><ellipse cx="220" cy="101" fill="#4b453b" rx="3" ry="33"/><path fill="#f5f6fa" d="M80 21h8v77h-8z"/><path fill="#50483e" d="M137-16h126l-54 50z"/><circle r="1" fill="#a49d90" transform="matrix(15.38331 21.0238 -7.17475 5.24983 20.3 6.4)"/><ellipse cx="105" cy="173" rx="37" ry="3"/><ellipse cx="255" cy="181" fill="#030000" rx="9" ry="45"/><path fill="#c6cbcf" d="M221.6 83.6l5.7 81.3 7.1 6.1 5.7 5.9z"/><path fill="#c9b196" d="M192 79l-9 35 43 22z"/><path fill="#c2bfbc" d="M245.4-1.5L268.6-16l-25.9 60.5 28.3 4.1z"/><path fill="#002700" d="M92 73h7v13h-7z"/><ellipse cx="151" cy="185" fill="#495765" rx="31" ry="11"/><circle r="1" fill="#fff" transform="matrix(-8.65596 -13.26424 9.50412 -6.20219 174.4 69.3)"/><path fill="#372208" d="M239 46l28 1-29 93z"/><path fill="#fffdf8" d="M162.3 117.9l-20-9.1-1.6-19.4 26.9 23.3z"/><ellipse cx="195" cy="163" fill="#6d727a" rx="7" ry="25"/><path fill="#6f685c" d="M166 18L66 20l56-31z"/><path fill="#251e11" d="M210 88h12v11h-12z"/><path fill="#3d744a" d="M36 91l-52 79 13-52z"/><path fill="#daebeb" d="M-16 119.9l31-14.8L13.1 27 5 21.5z"/><path fill="#f6ffff" d="M111.5 36v68h-9V36z"/><path fill="#757c89" d="M167.1 164.8l1.2-51-28.1 53.8 33.7 23.2z"/><path fill="#121513" d="M130 116h57v3h-57z"/><path fill="#65809b" d="M67 207l37-32H77z"/><path fill="#4c5047" d="M81 100l3 12 17-22z"/><path fill="#8a8278" d="M141.2 15l84 29.6-11.1-26.7-5.7 34.4z"/><path fill="#d6dade" d="M171.6 177.6l-3.1-35.8 15.9-1.4 3.1 35.8z"/><path fill="#11211a" d="M24.6 100.9l-11.4-7.2-5.7.9 15.1-21.1z"/><path fill="#e1eaec" d="M81 12h57v2H81z"/><path fill="#d6efff" d="M125 59h4v106h-4z"/><path fill="#f9f9f2" d="M166 118l-23 6 5 14z"/><circle r="1" fill="#d7d6d1" transform="matrix(31.81272 17.20107 -1.94362 3.59465 205 37.2)"/><path fill="#101517" d="M217 123l-6-6 12-7z"/><path fill="#829486" d="M83.5 105l-1 52h-10l1-52z"/><path fill="#accae9" d="M81 167h49v2H81z"/><path fill="#c9c8c3" d="M253 20l-11 29-35-29z"/><path fill="#726652" d="M14 23h24v28H14z"/><path fill="#6e5f52" d="M223.3 70.6l-2.1 3.4-58.5-36.6 2.1-3.4z"/><path fill="#d9d2c8" d="M137.6 16.3l68.6 42.2 29.9 23.3-16.8-24.5z"/><path fill="#8a806f" d="M25 96l16 6-17-45z"/><path fill="#201c13" d="M209.7 128.4l-11.2-3.7-22.1-13.8 43.2 47.4z"/><path fill="#15110a" d="M130 120h9v60h-9z"/><path fill="#cecbc2" d="M230 87l9 25-34 1z"/><path fill="#50534a" d="M188.7 88.1l1.7-4.7 18.9 6.5-1.7 4.7z"/><ellipse cx="105" cy="135" fill="#252415" rx="10" ry="8"/><path fill="#061001" d="M70.5 117L32 195l42.3-39.9L70.9 95z"/><path fill="#5c6749" d="M116 72h2v59h-2z"/><ellipse cx="73" cy="26" fill="#d5d6d8" rx="1" ry="95"/><ellipse cx="156" cy="4" fill="#4f4639" rx="35" ry="15"/><path fill="#f3f3ef" d="M160.1 56.7l-15.3 33.7-4.5-9.9-.1-38.2z"/><path fill="#e2eef7" d="M79 113h40v3H79z"/><path fill="#615f60" d="M162.6 125l41.7 8.1-7 3.1-38.1 1.8z"/><path fill="#857261" d="M188 62.1l-55-30.5 1-1.7 55 30.5z"/><ellipse cx="245" cy="127" fill="#442f19" rx="8" ry="52"/><path fill="#5e4733" d="M138 92h46v2h-46z"/><path fill="#929877" d="M93.2 126.1l11.9-10.2-14.3-4.4 29.9 19.3z"/><ellipse cx="44" cy="25" fill="#4a3f2d" rx="6" ry="108"/><path fill="#6c907d" d="M11.8 140.3l-.6-24-16.6 6.9 22-28.7z"/><path fill="#7b8b9c" d="M120 26.5l1 67h-1l-1-67z"/><path fill="#060803" d="M166.1 117.8l14-2.7 11.2 7.3 34.2 16.2z"/><path fill="#cbc5ba" d="M194.2 89.3l-6.6-22.2 30.2 3.2 16.1-38z"/><ellipse cx="76" cy="42" fill="#78726a" rx="3" ry="94"/><circle r="1" fill="#141c21" transform="rotate(53.1 -64.9 318.4) scale(20.16222 8.87827)"/><circle cx="98" cy="98" r="4" fill="#3c4733"/><path fill="#a28573" d="M88 27l1 16 8-7z"/><ellipse cx="104" cy="42" fill="#fff" rx="14" ry="5"/></g></g></svg>