<svg xmlns="http://www.w3.org/2000/svg" viewBox="0 0 1200 825"><defs/><filter id="a"><feGaussianBlur stdDeviation="12"/></filter><rect width="100%" height="100%" fill="#594b35"/><g filter="url(#a)"><g fill-opacity=".5" transform="translate(2.3 2.3) scale(4.6875)"><circle r="1" fill="#fff" transform="matrix(-95.52213 16.13415 -42.4692 -251.4386 214 101.3)"/><circle cx="207" cy="58" r="88" fill="#fff"/><circle r="1" fill="#fc0000" transform="rotate(12.5 -680 1096.3) scale(51.45278 27.38495)"/><path fill="#fdffff" d="M-16 39.1l144.8 34.5L271 167.1l-89.8-117z"/><path fill="#fff" d="M172.2 183.1l-45.9-2.4L131.8 77l45.9 2.4z"/><ellipse cx="226" cy="32" fill="#191d0f" rx="20" ry="22"/><path fill="#181800" d="M110 70h18v75h-18z"/><ellipse cx="58" cy="105" fill="#9eafa8" rx="26" ry="31"/><path fill="#010" d="M195 63h30v18h-30z"/><circle r="1" fill="#fff" transform="matrix(-25.70966 -2.33976 4.56042 -50.11057 248.1 98)"/><ellipse cx="54" cy="22" fill="#6d836d" rx="76" ry="23"/><circle r="1" fill="#947a57" transform="matrix(10.67484 -28.81333 66.15433 24.50903 61.8 157.3)"/><ellipse cx="144" cy="139" fill="#feffff" rx="17" ry="175"/><circle r="1" fill="#fff" transform="matrix(-7.37947 -.80167 1.06634 -9.81587 27.5 39.7)"/><path d="M172 40h16v10h-16z"/><circle r="1" fill="#d60040" transform="matrix(-40.07554 -10.75864 8.21235 -30.59069 211.2 174.7)"/><path fill="#fff" d="M197 28l53-34L92-16zm-66 52h125v62H131z"/><circle r="1" fill="#fff" transform="rotate(82.5 22.8 93) scale(10.50216 23.55426)"/><path fill="#323b26" d="M32 71l56-37 9 52z"/><ellipse cx="255" cy="32" fill="#fff" rx="12" ry="128"/><path fill="#49502a" d="M129-16l-4 62-49-61z"/><path d="M201 31h10v13h-10z"/><path fill="#b3b8b6" d="M141.7 83.2l41-14-39.3-61.8-4.2 47.9z"/><path fill="#c3c2a9" d="M84 65L53 15l1 36z"/><path fill="#fff" d="M144.3 10.8l126.7.9L124.6-16l8.1 91z"/><path fill="#3f3f32" d="M210.1 12.7l32.9-.2-30.5 31.8 32 7.6z"/><path fill="#fff" d="M186 0h14v64h-14zm50 17h20v21h-20z"/><circle r="1" fill="#434b3c" transform="matrix(-16.93353 -11.21845 21.48395 -32.42864 100.5 113)"/><path fill="#f1f2f3" d="M138.7 97.3l25.5 93.7 8.4-39.5 98.4-38.8z"/><path fill="#d2e1e4" d="M41 126h39v7H41z"/><path fill="#162217" d="M56 59L9 78-8 40z"/><path fill="#b4b8ae" d="M40 79h19v31H40z"/><path fill="#f5f5ee" d="M10.5 28.1L-16 83.6 3.2 42.5-16 38.1z"/><path fill="#d6dac8" d="M94 37h27v7H94z"/><ellipse cx="48" cy="112" fill="#555745" rx="79" ry="13"/><path fill="#fff" d="M186 55.9l26.2 4.4 5.6-15.9-25-1.2z"/><path fill="#b1b2ad" d="M145 112h34v13h-34z"/><path fill="#f6faf8" d="M11 46l21-24 1 23z"/><path fill="#2a421b" d="M205 58l11-1-16 11z"/><path fill="#726748" d="M91 80l36 105 1-50z"/><path fill="#fff" d="M128 171l64 20-63-69z"/><path fill="#d7d5c6" d="M226 16h7v22h-7z"/><ellipse cx="27" cy="22" fill="#363f26" rx="41" ry="5"/><circle r="1" fill="#222416" transform="matrix(-3.12433 .42863 -3.24262 -23.63606 87.3 35.3)"/><path fill="#fdfefd" d="M99.8 68.3l111.4-42.9L92.6 53.8l-.1 4z"/><path fill="#bdbfb8" d="M203 101h35v13h-35z"/><path fill="#ada99a" d="M24 164h95v5H24z"/><path fill="#0f110d" d="M82.1 154.5l4-11.2 3.2-54.1-13 61z"/><path fill="#5f614f" d="M239 13h5v40h-5z"/><path fill="#fff" d="M268 52l-18 73-31-70z"/><path fill="#8f8d7b" d="M127 10l-13 3 14 45z"/><path fill="#a4ac9a" d="M63 83h22v17H63z"/><path d="M216 12h29v4h-29z"/><path fill="#d40033" d="M255 191l16-23.5-37.9-21-8.1-1.9z"/><path fill="#fff" d="M136-5l79-9v36z"/><path fill="#080600" d="M86.8 60.9l-2.5 1.6-19-29.4 2.4-1.6z"/><path fill="#35351f" d="M105 73h23v37h-23z"/><path fill="#fff" d="M129 0h127v12H129z"/><path fill="#ffe091" d="M17 80h8v8h-8z"/><path fill="#0a0d00" d="M172 40h9v11h-9z"/><path fill="#444d37" d="M28 0h100v12H28z"/><path d="M219 24h23v2h-23z"/><path fill="#0c2221" d="M25 154l-6 15-35-3z"/><path fill="#fff" d="M162.7 133.4l29.9-85.7 4.8 79.8-56.8-50.3zM236 27h6v10h-6z"/><ellipse cx="55" cy="27" fill="#fff" rx="5" ry="4"/><path fill="#bbc1c0" d="M140 12h46v20h-46z"/><ellipse cx="41" cy="5" fill="#8d948c" rx="35" ry="3"/><path fill="#fff" d="M226.5 138.8l29.1 20.6 15.4 10.8L255.3 3z"/><path fill="#423f21" d="M24 69h16v43H24z"/><ellipse cx="189" cy="164" fill="#d51546" rx="19" ry="18"/><path fill="#7c4b26" d="M83.2 130.6l-94.7 12 12.3 5.2 75.7 7.4z"/><path fill="#1a2b15" d="M5.8-11.2l9.9-4.8L-16 36l27.6-22.9z"/><path fill="#da4b66" d="M180 154h52v18h-52z"/><ellipse cx="133" cy="32" fill="#fff" rx="6" ry="173"/><path fill="#16210e" d="M15 0h52v4H15z"/><path fill="#54593c" d="M65 44h39v5H65z"/><path fill="#3d4139" d="M243.7 42.7l-27.2 13.2 1.2-15.7 18-5z"/><path fill="#858d89" d="M96.5 114.3l-3.1-33.1 13 8.4 25.5-60.2z"/><path fill="#c1c2af" d="M84.6 35.4l1.4 5.2-.3 16.9-5.1-6.1z"/><path fill="#121a10" d="M59 96l2 21 4-23z"/><path fill="#fff" d="M243.8 11.6l2.8 45.8L271-16 120.2 10.6z"/><ellipse cx="208" cy="150" fill="#d10031" rx="22" ry="8"/><path fill="#f2f3eb" d="M48.9 50.9l11-14.2 3.2 2.4-11 14.2z"/><path fill="#fbfbfb" d="M193.8 114l72.7 20.6-76.4 10-41.5 12.7z"/><circle r="1" fill="#a8b8ad" transform="matrix(3.07954 .13193 -.4053 9.46066 27 162.5)"/><path fill="#8e968e" d="M8 13h76v4H8z"/><path fill="#b1b3a5" d="M40.2 108.4l.6-31 11 .2-.6 31z"/><path fill="#fff" d="M92 53h43v13H92z"/><path fill="#393a25" d="M128.9 26.8l-18.6 8.5L57.5 26l69.1 7.1z"/><circle r="1" fill="#aea66a" transform="matrix(.26573 1.54266 -25.52252 4.39635 17.3 155)"/><path fill="#feffff" d="M166.5 40.4L221.7 4l-25.5 35-17.9 1.7z"/><path fill="#c0c3c1" d="M158.5 77.2L154 54.6l29.4-5.8 4.4 22.6z"/><path fill="#2e3928" d="M199 72h25v6h-25z"/><path fill="#5c6150" d="M202 22h13v18h-13z"/><path fill="#1a210d" d="M115 42h14v2h-14z"/><path fill="#606245" d="M30.1 37.9L59.4 3.1l-21 47 35.1-17.2z"/><ellipse cx="78" cy="109" fill="#6d7270" rx="7" ry="25"/></g></g></svg>