<svg xmlns="http://www.w3.org/2000/svg" viewBox="0 0 1200 825"><defs/><filter id="a"><feGaussianBlur stdDeviation="12"/></filter><rect width="100%" height="100%" fill="#594b35"/><g filter="url(#a)"><g fill-opacity=".5" transform="translate(2.3 2.3) scale(4.6875)"><circle r="1" fill="#fff" transform="matrix(-8.59442 -223.7191 72.51932 -2.78591 186.8 55.5)"/><circle r="1" fill="#fff" transform="matrix(-90.72973 -23.23821 19.8924 -77.66656 195.8 67)"/><circle r="1" fill="#fd0000" transform="rotate(106 45.2 171.1) scale(30.06319 53.22746)"/><circle r="1" fill="#767c66" transform="matrix(-55.3821 7.48795 -22.68115 -167.7534 68.5 36.8)"/><path fill="#fff" d="M130 73.7l46 1.6-4 113-46-1.6z"/><ellipse cx="224" cy="33" fill="#171c0e" rx="20" ry="22"/><path fill="#fff" d="M92 48h48v19H92z"/><circle r="1" fill="#122809" transform="matrix(-16.97065 -1.0878 .6403 -9.98939 211.3 71.8)"/><ellipse cx="232" cy="111" fill="#fff" rx="104" ry="33"/><path fill="#f2fbf6" d="M-14.1 38.4l104 26.9-64.3-37-6.2 10.8z"/><path fill="#271e00" d="M104 70h24v82h-24z"/><ellipse cx="185" fill="#fff" rx="33" ry="40"/><circle r="1" fill="#959d97" transform="matrix(21.67508 -1.5799 2.23199 30.62136 58.8 105.8)"/><ellipse cx="250" cy="6" fill="#fff" rx="15" ry="150"/><path fill="#191c0c" d="M4 77h125L-16 38z"/><ellipse cx="206" cy="164" fill="#d3003e" rx="36" ry="22"/><path fill="#030800" d="M178 37l13 11-22 2z"/><ellipse cx="149" cy="166" fill="#fff" rx="22" ry="89"/><path fill="#465131" d="M80 0h48v37H80z"/><ellipse cx="229" cy="46" fill="#323328" rx="15" ry="9"/><circle r="1" fill="#90704b" transform="matrix(57.43149 49.92443 -21.06575 24.23338 59.1 175)"/><path fill="#fff" d="M185 45h31v16h-31zm-59.6 24.6l-32-2.2 1.2-17 32 2.2z"/><ellipse cx="140" cy="16" fill="#fafdff" rx="13" ry="175"/><path fill="#3c3625" d="M218 13h25v14h-25z"/><path fill="#fff" d="M271 170l-52-41 11-85z"/><circle r="1" fill="#3f4032" transform="matrix(18.8493 -36.87393 18.30055 9.35492 99.8 110.4)"/><path fill="#9da28c" d="M28 26h39v21H28z"/><ellipse cx="232" cy="3" fill="#fff" rx="104" ry="9"/><path fill="#202216" d="M200.9 28.6l14-.2.2 15-14 .2z"/><circle cx="177" cy="112" r="35" fill="#f7f9fa"/><path fill="#f5ffff" d="M2 31L0 46l10-24z"/><path fill="#404b37" d="M34 0h19v43H34z"/><path fill="#e8ecec" d="M31 26.5l1.2-1.7 2.2 23-28.8-.6z"/><path fill="#c9ccc2" d="M49.3 133.6l33.7-.9-14.7-9.8-31.7 5.1z"/><ellipse cx="154" cy="44" fill="#bdc3c2" rx="15" ry="37"/><path fill="#4d5b43" d="M203 58h14v22h-14z"/><ellipse cx="106" cy="158" fill="#9a734a" rx="22" ry="14"/><ellipse cx="65" cy="115" fill="#575847" rx="62" ry="10"/><path fill="#afb3ab" d="M42 78h17v37H42z"/><path fill="#c6c6c3" d="M178 134.4l-33 1.2-1-24 33-1.2z"/><path fill="#d1d1c4" d="M230.1 15.3l40.9 9-24.7-6.1L226 34z"/><circle r="1" fill="#d60039" transform="matrix(-6.51136 -23.6092 11.99566 -3.30837 247 175)"/><path fill="#b7b8a1" d="M83 61L52 13l2 29z"/><path fill="#fff" d="M176.1 82.7l14.3-46.9 11.5 3.5-14.3 46.9z"/><path fill="#413c20" d="M-7 104l46-29-1 35z"/><circle r="1" fill="#fff" transform="rotate(-77.6 157.2 -117) scale(7.35438 21.38194)"/><ellipse cx="171" cy="21" fill="#b3b8b6" rx="16" ry="10"/><path fill="#484734" d="M226 38h18v16h-18z"/><ellipse cx="27" cy="168" fill="#a5b9aa" rx="4" ry="17"/><path fill="#263921" d="M29.2 21L17.6 42l-8.8-5 11.6-21z"/><path fill="#bbbdac" d="M84 53.9l16.4-20.2 22.8 8.1L78.8 47z"/><path fill="#fff" d="M250-16l-14 163 35-46z"/><path fill="#0a2323" d="M20 169l-30-3 35-13z"/><path fill="#b9bcb5" d="M203 102h33v11h-33z"/><path fill="#0f1205" d="M86 24h4v100h-4z"/><circle r="1" fill="#fff" transform="matrix(-40.86873 10.37824 -2.78332 -10.96048 190.6 95.6)"/><path d="M185 40h-14l6 9z"/><circle r="1" fill="#313a2f" transform="matrix(-3.66628 6.42766 -6.35795 -3.62651 65.8 107)"/><path fill="#76421e" d="M-3 140l97 17-22-25z"/><path fill="#2c3222" d="M62 35.8l-5.9-50.6 16.3 52.9 16.9 26.8z"/><path fill="#fff" d="M221-16l-22 53-24 2z"/><ellipse cx="45" cy="15" fill="#93a098" rx="38" ry="3"/><path fill="#fff" d="M187 44h26v13h-26z"/><path fill="#a8a294" d="M30 164h85v5H30z"/><path fill="#14150a" d="M91 139l-13 14 9-43z"/><ellipse cx="120" cy="53" fill="#fff" rx="19" ry="9"/><path fill="#63644d" d="M127.2 15.1l-1.6 12.8 3.5 24.7-8.7-7.2z"/><path fill="#5e6856" d="M212.4 63l-10.7-6 26.7 24.3-36.8-.6z"/><path fill="#bdc4a8" d="M62 83h20v10H62z"/><path fill="#fff" d="M156 103h12v73h-12z"/><ellipse cx="50" cy="1" fill="#12210f" rx="41" ry="2"/><path fill="#74715d" d="M98 79l27 62-37-39z"/><path fill="#fff" d="M170 0h2v101h-2z"/><path fill="#686964" d="M145.3 113.4l7.6-2.5 1.8 5.7-7.6 2.5z"/><ellipse cx="134" cy="64" fill="#fff" rx="7" ry="159"/><circle r="1" fill="#c2a162" transform="matrix(3.612 1.02492 -2.62255 9.24227 19.2 86.5)"/><ellipse cx="51" cy="6" fill="#8b968e" rx="41" ry="3"/><ellipse cx="234" cy="25" rx="1" ry="14"/><path d="M206 24h35v2h-35z"/><path fill="#9b9b84" d="M105.8 34.9L129 4.5l-5 24.4-36.1-9.4z"/><path fill="#fbfbf0" d="M97 64.2l-6.5-8.4 16.5-2.4 30.4 24.7z"/><circle r="1" fill="#2e322d" transform="rotate(-179.2 118 6.4) scale(8.28269 3.15359)"/><path fill="#302e1d" d="M86.1 84.6l-35.4-6.3 1.2-6.9 35.4 6.3z"/><circle cx="45" cy="130" r="5" fill="#d6e3e0"/><circle r="1" fill="#fcfdfe" transform="matrix(42.58235 23.22308 -4.64903 8.52457 239 137.6)"/><ellipse cx="219" cy="3" fill="#fff" rx="90" ry="9"/><path fill="#fffefa" d="M44.9 49.4l9.9 2.3 2.9-4.7 5.7-7.8z"/><path fill="#fff" d="M196 0h20v22h-20zM52.5 24.1l6.7 2-1.7 5.8-6.7-2z"/><path fill="#f2f6f6" d="M79.1 45.8l8.5 9.8-.7.6-8.5-9.8z"/><ellipse cx="190" cy="78" fill="#fff" rx="4" ry="67"/><path fill="#474e37" d="M11 170h64v6H11z"/><ellipse cx="33" cy="21" fill="#38452a" rx="38" ry="4"/><path fill="#a2a29d" d="M180.7 125.9l-15.5-1.3 10.4-17.6-1-2.1z"/><path fill="#b0ae78" d="M82 34l-6 7-9-24z"/><path fill="#090700" d="M216 12h6v16h-6z"/><path fill="#fff" d="M129.7 43.6l8.2 5.8 31.5-1-6.2-5.3z"/><ellipse cx="243" cy="23" fill="#151813" rx="1" ry="12"/><circle r="1" fill="#c7cdbd" transform="rotate(113.2 -9.3 20) scale(19.89786 1)"/></g></g></svg>