<svg xmlns="http://www.w3.org/2000/svg" viewBox="0 0 1400 1050"><defs/><filter id="a"><feGaussianBlur stdDeviation="12"/></filter><rect width="100%" height="100%" fill="#306837"/><g filter="url(#a)"><g fill-opacity=".5" transform="translate(2.7 2.7) scale(5.46875)"><circle cx="124" cy="76" r="184" fill="#fff"/><circle r="1" fill="#fff" transform="matrix(254.7375 -11.56756 4.78345 105.33979 144.1 73)"/><ellipse cx="133" cy="66" fill="#fff" rx="255" ry="102"/><circle r="1" fill="#fff" transform="rotate(-105.3 72 -7.4) scale(97.16339 201.88971)"/><ellipse cx="101" cy="158" fill="#bdb9c7" rx="55" ry="32"/><ellipse cx="183" cy="182" fill="#b5a1b2" rx="190" ry="16"/><path fill="#fff" d="M255 170L-16 11l271-27z"/><path fill="#aba09d" d="M195 138h30v22h-30z"/><path fill="#fff" d="M34.2 165.4L61 179.9l64.5-46L-16 182.6z"/><path fill="#a39a90" d="M58 127h16v24H58z"/><circle cx="41" cy="63" r="72" fill="#fff"/><ellipse cx="122" cy="103" fill="#fff" rx="63" ry="32"/><path fill="#bbb4ad" d="M7 144h30v15H7z"/><path fill="#bdb6b5" d="M157 126h25v17h-25z"/><path fill="#fff" d="M216 167l43-3 3-127z"/><path fill="#3f84c3" d="M104 146h47v6h-47z"/><ellipse cx="196" cy="179" fill="#aaaaa9" rx="146" ry="13"/><path fill="#fffbfe" d="M157.8 159l-3.2-9.6 102.8-57.3-77.1 72.7z"/><path fill="#fffffe" d="M38 156h66v12H38z"/><circle cx="217" cy="149" r="9" fill="#aca6a1"/><path fill="#b3a6b1" d="M.9 166.8l36-.6.2 17-36 .6z"/><path fill="#fffeff" d="M51.9 175.6l-15-1.3 3.2-35.9 15 1.3z"/><circle r="1" fill="#fff" transform="rotate(130.7 77 67.3) scale(65.12016 108.96356)"/><path fill="#fff" d="M9.1 118.5l6.9 40.7L111.6-16 50.1 162.8z"/><path fill="#edeef0" d="M113 161h71v7h-71z"/><path fill="#fff" d="M209 159h47v8h-47z"/><circle cx="27" cy="67" r="71" fill="#fff"/><path fill="#c9c3be" d="M14.4 160.6l-5.8 4.2-7.1-3.6 8.5-25.9z"/><ellipse cx="130" cy="113" fill="#fff" rx="39" ry="23"/><ellipse cx="72" cy="138" fill="#bebab3" rx="10" ry="15"/><ellipse cx="199" cy="179" fill="#acaaad" rx="24" ry="16"/><path fill="#c7c5c2" d="M205.3 155.4l8.2-11.9-64.7-.6 20.7-19.5z"/><ellipse cx="245" cy="132" fill="#fff" rx="29" ry="27"/><path fill="#96b7d7" d="M138.4 163.1l21.2-2.1-19.5-14.5L161 145z"/><path fill="#fff" d="M96 143h85v3H96z"/><path fill="#abacab" d="M164.2 207l-98.1-41 52.9 2.8 149.4-1.1z"/><path fill="#f8fbf4" d="M93 153h64v3H93z"/><path fill="#d5d5d2" d="M79.6 134.2l95 1.6-.2 8-95-1.6z"/><path fill="#e9e8e9" d="M188 83l1 59-11-22z"/><path fill="#fdfcfd" d="M16 162l54 10 7-18z"/><path fill="#699cca" d="M104 157h13v5h-13z"/><ellipse cx="77" cy="191" fill="#aeacae" rx="255" ry="17"/><path fill="#fff" d="M49 168h24v6H49z"/><path fill="#f9f9f6" d="M151 165h-47l26-8z"/><circle r="1" fill="#fff" transform="matrix(-161.04581 -55.76711 24.18186 -69.83306 209.8 21.7)"/><path fill="#fff" d="M-4.7 168.7l-.3-3 41.7-4.4.3 3z"/><path fill="#d6d5d1" d="M73 131h13v22H73z"/><path fill="#bebaae" d="M96.9 136.7l-4.5-4 6.7-7.4 4.5 4z"/><path fill="#fff" d="M82.5 101.6l4.6 35.2 45.3-29.3-12.5-48.8z"/><path fill="#dad8d3" d="M214.6 132.1l-10.3 4.1 26.6 12 .7 1z"/><path fill="#fff" d="M103.2 155.6l-14.6-3.4 2.2-9.8 14.6 3.4z"/><path fill="#d6d2cd" d="M199.5 160.5h-9v-19h9z"/><path fill="#adabad" d="M0 167h36v25H0z"/><ellipse cx="134" cy="156" fill="#7ba6ca" rx="25" ry="1"/><path fill="#a8a39e" d="M59 137h10v15H59z"/><path fill="#a69f9b" d="M215 139l-7 14 14 3z"/><ellipse cx="219" cy="161" fill="#fff" rx="48" ry="3"/><ellipse cx="89" cy="165" fill="#e3e4e2" rx="46" ry="3"/><path fill="#6f9cc4" d="M140.9 158.7l6.7-2.2 1.5 4.8-6.7 2.2z"/><path fill="#fffcfd" d="M189.9 144.9l-25 9.2-9.8 9.9 1.5-18z"/><circle cx="28" cy="151" r="9" fill="#cbc8c3"/><circle cx="26" cy="65" r="74" fill="#fff"/><path fill="#b8b3af" d="M222.6 143.8l-12.4 17.8L194 142l15.6 7.8z"/><ellipse cx="125" cy="125" fill="#fff" rx="26" ry="12"/><path fill="#fffefe" d="M51 97l-18 49 24 11z"/><path fill="#dadbdb" d="M38 173l9 1 3-22z"/><path fill="#fcfbfb" d="M3.2 160.9l37.2-1.6 10.9 7.1-30.3.8z"/><path fill="#c5c1bc" d="M13 155l-17 1 16-12z"/><path fill="#d7d8d6" d="M47 154h68v2H47z"/><ellipse cx="199" cy="184" fill="#abacab" rx="26" ry="20"/><path fill="#b1aca8" d="M56 141l13 10 5-21z"/><path fill="#8dafce" d="M111 156h39v2h-39z"/><path fill="#5b8dc0" d="M146 146h7v5z"/><path fill="#dae1e4" d="M108.2 158l-1.8 10.7 7-18.1 19.3-27.9z"/><ellipse cx="127" cy="137" fill="#bfc0c0" rx="60" ry="1"/><path fill="#aaabaa" d="M73 168h109v21H73z"/><path fill="#f9f9f9" d="M72.9 158.9l.2 15.6-20.5-1.1 2.3-5.9z"/><path fill="#acacac" d="M259.6 166.2L189.8 207l-1.7-42.5 56.1 4.3z"/><path fill="#beb9b3" d="M171 124l2 11h-17z"/><path fill="#e5e5e5" d="M153 152h48v4h-48z"/><path fill="#dadbdc" d="M151 135h38v9h-38z"/><ellipse cx="162" cy="164" fill="#e2e0e1" rx="27" ry="3"/><path fill="#fff" d="M103 109h58v25h-58z"/><ellipse cx="77" cy="133" fill="#c0bab3" rx="9" ry="3"/><path fill="#a7a29c" d="M217 154h9v3h-9z"/><path fill="#fff" d="M-15 127l21 37-14 3z"/><path fill="#fefefe" d="M57 60L11 95l84 38z"/><path fill="#fefdfe" d="M209 159h47v8h-47z"/><path fill="#a49c98" d="M96 131h4v5h-4z"/><path fill="#fff" d="M199 97h11v45h-11z"/><path fill="#ada8a1" d="M65.5 147.8l-3.6 7.1-5.4-2.7 3.6-7.1z"/><path fill="#fff" d="M94 150l-11-9 19 6z"/><path fill="#fefdfe" d="M173.9 146.2l-28.7-3.1 34.5 11.3 16.5-14z"/><ellipse cx="73" cy="154" fill="#dbdbda" rx="1" ry="23"/><circle r="1" fill="#d6d4cf" transform="matrix(1.86173 3.0262 -10.06814 6.19396 206.7 141.1)"/><path fill="#fff" d="M12.4 124.2L3 151.7l-11.4-4L1 120.4zM188 126h2v38h-2z"/><ellipse cx="138" cy="147" fill="#e9e7e1" rx="1" ry="14"/><path fill="#dddbdd" d="M187.7 151l-.4 18h-3l.4-18z"/><path fill="#acacad" d="M50 174h17v18H50z"/></g></g></svg>