<svg xmlns="http://www.w3.org/2000/svg" viewBox="0 0 1400 1050"><defs/><filter id="a"><feGaussianBlur stdDeviation="12"/></filter><rect width="100%" height="100%" fill="#42412a"/><g filter="url(#a)"><g fill-opacity=".5" transform="translate(2.7 2.7) scale(5.46875)"><circle r="1" fill="#fff" transform="rotate(-178.5 65 24.3) scale(86.6335 148.47211)"/><circle cx="127" cy="24" r="85" fill="#fff"/><ellipse cx="127" cy="162" fill="#6e7239" rx="90" ry="59"/><circle r="1" fill="#97b3d3" transform="matrix(-1.05758 67.32241 -14.05656 -.22082 244.4 37)"/><circle cx="74" cy="75" r="32" fill="#fff"/><circle cx="173" cy="69" r="39" fill="#e6ffff"/><path fill="#deffff" d="M238-16L44 0v110z"/><ellipse cx="243" cy="165" rx="30" ry="63"/><ellipse cx="9" cy="43" fill="#7090b2" rx="16" ry="65"/><path d="M0 107h256v5H0z"/><circle r="1" transform="matrix(13.88431 1.26357 -9.16457 100.7017 27.3 130.6)"/><path fill="#daefff" d="M44 0h168v107H44z"/><path fill="#000005" d="M213 9h20v155h-20z"/><ellipse cx="57" cy="163" fill="#f7f7bb" rx="4" ry="52"/><ellipse cx="46" cy="158" fill="#fdfecb" rx="3" ry="63"/><circle r="1" fill="#7f7f54" transform="matrix(19.65538 11.77897 -26.11001 43.56934 183.2 155.7)"/><ellipse cx="75" cy="143" rx="2" ry="42"/><path d="M192 108h3v84h-3zm-47 9h3v75h-3z"/><ellipse cx="205" cy="158" rx="2" ry="55"/><ellipse cx="122" cy="149" rx="2" ry="49"/><ellipse cx="210" cy="165" fill="#d1dfce" rx="3" ry="188"/><ellipse cx="33" cy="35" fill="#000609" rx="11" ry="191"/><ellipse cx="134" cy="150" rx="2" ry="49"/><path d="M97 113h4v79h-4z"/><ellipse cx="110" cy="160" rx="2" ry="55"/><ellipse cx="158" cy="150" rx="2" ry="47"/><ellipse cx="182" cy="108" rx="187" ry="3"/><path d="M87.9 187L84 115.1l2-.1 3.8 71.9z"/><circle r="1" fill="#6d7a79" transform="rotate(171.5 4.6 36) scale(12.97541 36.45974)"/><ellipse cx="63" cy="155" rx="2" ry="53"/><ellipse cx="170" cy="150" rx="2" ry="48"/><path fill="#e1e2a8" d="M65 118h8v74h-8z"/><ellipse cx="7" cy="164" fill="#161801" rx="37" ry="54"/><path fill="#e1e3ab" d="M78 113h7v79h-7z"/><path fill="#dadaa2" d="M89 113h8v79h-8z"/><path fill="#cecd8e" d="M196 119h8v73h-8z"/><path fill="#6f7d80" d="M229 9h27v98h-27z"/><ellipse cx="181" cy="144" rx="2" ry="43"/><ellipse cx="152" cy="128" fill="#e1e0e1" rx="4" ry="17"/><path fill="#d9d9e0" d="M122 132l-5-22-5 25z"/><ellipse cx="187" cy="155" fill="#cfd094" rx="4" ry="44"/><ellipse cx="102" cy="104" fill="#dde6e9" rx="61" ry="3"/><path fill="#cfcfb2" d="M100 112h9v56h-9z"/><path fill="#d0cf92" d="M137 116h8v76h-8z"/><circle cx="179" cy="10" r="34" fill="#b9d5f4"/><path d="M74 121h3v71h-3z"/><ellipse cx="175" cy="185" fill="#cfcf8f" rx="4" ry="76"/><ellipse cx="182" cy="155" rx="2" ry="49"/><ellipse cx="223" cy="39" rx="5" ry="191"/><path fill="#cdcdb8" d="M124 113h9v50h-9z"/><ellipse cx="51" cy="157" rx="2" ry="52"/><ellipse cx="163" cy="140" fill="#d1d1b1" rx="4" ry="30"/><ellipse cx="240" cy="179" fill="#070900" rx="25" ry="36"/><ellipse cx="19" cy="166" fill="#4a4c24" rx="5" ry="57"/><circle cx="113" cy="65" r="39" fill="#e5f4fb"/><ellipse cx="87" cy="137" rx="2" ry="31"/><path d="M157 112h3v80h-3z"/><ellipse cx="146" cy="170" rx="2" ry="67"/><path fill="#cecd79" d="M113 135h8v57h-8z"/><ellipse cx="169" cy="163" rx="2" ry="57"/><path fill="#090d00" d="M121 117h4v75h-4z"/><ellipse cx="158" cy="96" fill="#d9dfdd" rx="56" ry="11"/><ellipse cx="211" cy="179" fill="#9c9737" rx="3" ry="47"/><path fill="#bec064" d="M148 141h8v51h-8z"/><ellipse cx="98" cy="174" rx="2" ry="67"/><path d="M104 107h117v4H104z"/><ellipse cx="48" cy="110" rx="88" ry="2"/><path d="M62 107h3v85h-3z"/><ellipse cx="193" cy="143" rx="2" ry="37"/><ellipse cx="31" cy="78" rx="5" ry="191"/><path fill="#b3b454" d="M160 148h9v44h-9z"/><path fill="#c2c6da" d="M171 113h8v19h-8z"/><ellipse cx="110" cy="130" rx="2" ry="24"/><path fill="#64685c" d="M-16 96l42-14 2 27z"/><path fill="#e2e7e6" d="M43 82h69v25H43z"/><ellipse cx="239" fill="#7e929e" rx="7" ry="75"/><path fill="#a0a141" d="M89 160h9v32h-9z"/><path fill="#c2cbe8" d="M144 114l-7 21-1-23z"/><path d="M111.9 157l.6 37.1-2.9 3.8.9-60.3z"/><path fill="#314c62" d="M22 0h4v92h-4z"/><path fill="#29302e" d="M213 94V-6h6V94z"/><path fill="#b1b5c8" d="M76.2 113.6l1.3 18.7 18.7-23.1 1.9 19.2z"/><path fill="#b4b4c6" d="M183 113h8v24h-8z"/><path fill="#38382d" d="M36 38h8v68h-8z"/><path fill="#c4c2c2" d="M112 114h9v29h-9z"/><ellipse cx="134" cy="135" rx="2" ry="29"/><path fill="#baba81" d="M124 112h8v80h-8z"/><ellipse cx="239" cy="143" fill="#54431a" rx="3" ry="34"/><ellipse cx="63" cy="164" fill="#2a2b15" rx="78" ry="1"/><circle r="1" fill="#c6c652" transform="matrix(.63683 21.45691 -3.7918 .11254 105 181.8)"/><ellipse cx="87" cy="168" rx="2" ry="57"/><path fill="#babfc4" d="M45.6 114h4l.8 22h-4z"/><circle r="1" fill="#d5eaff" transform="matrix(57.29442 -8.57467 7.22818 48.29741 101 .5)"/><circle r="1" fill="#c5cedc" transform="matrix(3.89244 .35416 -.81926 9.00418 68.8 121.4)"/><path d="M252 101h4v91h-4z"/><path fill="#b1b2c2" d="M196 111h7v29h-7z"/><path fill="#040700" d="M21 138h22v54H21z"/><path fill="#3e413e" d="M3 113h21v18H3z"/><path d="M50 108h3v57h-3z"/></g></g></svg>