<svg xmlns="http://www.w3.org/2000/svg" viewBox="0 0 1400 1050"><defs/><filter id="a"><feGaussianBlur stdDeviation="12"/></filter><rect width="100%" height="100%" fill="#58522c"/><g filter="url(#a)"><g fill-opacity=".5" transform="translate(2.7 2.7) scale(5.46875)"><circle r="1" fill="#e5c3d8" transform="matrix(-44.31337 -212.7279 85.49955 -17.81042 65.7 105.5)"/><circle r="1" fill="#fff" transform="rotate(-129.2 47.5 -16) scale(29.01628 36.4261)"/><circle r="1" fill="#f3c2c0" transform="matrix(106.70756 4.58407 -1.10179 25.64737 166 191)"/><path d="M28.8 154.5l1.4-39 57 2-1.4 39z"/><circle r="1" fill="#091009" transform="matrix(-4.5184 99.31448 -47.9103 -2.17972 212.2 31.8)"/><circle r="1" fill="#494028" transform="matrix(-32.55792 17.7647 -16.10062 -29.50811 16.6 177.8)"/><path fill="#072600" d="M12.9 22.5l4.8-27.6 37.4 6.6-4.8 27.6z"/><ellipse cx="50" cy="82" fill="#d7b8b9" rx="50" ry="28"/><circle r="1" fill="#fff" transform="matrix(-9.93375 -15.62193 40.52736 -25.77074 95.4 0)"/><path fill="#000400" d="M32 43h45v12H32z"/><circle cx="167" cy="81" r="38" fill="#6a5a4a"/><circle r="1" fill="#b9b4b1" transform="rotate(-26.6 139 -234) scale(34.36605 20.71515)"/><path fill="#0c0a00" d="M35 116h52v26H35z"/><path fill="#748b5e" d="M231 80h21v78h-21z"/><ellipse cx="125" cy="151" fill="#a96753" rx="36" ry="23"/><circle r="1" transform="rotate(155.5 115.3 42.9) scale(10.40285 108.11258)"/><path fill="#34171b" d="M157 118h83v30h-83z"/><path fill="#c6a2a2" d="M78 79l105 34-93 11z"/><path fill="#9c969b" d="M241 163l-49-9 8-23z"/><circle r="1" fill="#835c58" transform="matrix(-5.86032 -60.86172 14.67848 -1.41338 143.5 83.8)"/><path fill="#ac9c9b" d="M14 28h98v16H14z"/><circle r="1" fill="#918a81" transform="matrix(2.93912 -10.81779 36.22289 9.84152 60.9 156)"/><path fill="#405345" d="M-10 25l23-6L1 90z"/><path fill="#100100" d="M210 85h19v67h-19z"/><ellipse cx="164" cy="186" fill="#c4a7a3" rx="29" ry="25"/><path fill="#d1ccd1" d="M-16 74.5L21.4 36l13.8 33.5L-16 54z"/><path fill="#fbffff" d="M61 0h62v27H61z"/><path fill="#899f5f" d="M229.8 89l-34.1-22.3L185 86.6l46.7-12.5z"/><path fill="#192602" d="M175.2-9.4L152.1 4.7l-11.5 15.4 67.3 22.5z"/><ellipse cx="92" cy="31" fill="#7b6c60" rx="82" ry="3"/><path fill="#c5bcc1" d="M64 50h48v19H64z"/><path fill="#a6b886" d="M239 109l13-16-6-24z"/><path fill="#3c3831" d="M50 57.2l5.7 2.1 37-14.9-72.2-1.2z"/><path fill="#1d0a07" d="M158 142h27v16h-27z"/><path fill="#1b0a07" d="M189 87h42v33h-42z"/><ellipse cx="174" cy="58" fill="#263e07" rx="16" ry="28"/><path fill="#ebffff" d="M158 111h23v5h-23z"/><path d="M147 150h2v22h-2z"/><circle r="1" fill="#4f4630" transform="matrix(-1.46557 16.75157 -28.63454 -2.5052 9.3 168)"/><circle cx="7" cy="191" r="9" fill="#eebfb8"/><circle r="1" fill="#0b1105" transform="matrix(-1.13801 6.72664 -11.8023 -1.99671 252.2 143.9)"/><path fill="#a59d96" d="M196 156l41 8 5-15z"/><circle cx="6" cy="107" r="29" fill="#b79d9d"/><path fill="#fff" d="M118.9 26.3l-2-5.7 14.2-4.9 2 5.7z"/><path fill="#a9786e" d="M213 171h43v19h-43z"/><path fill="#d0b1a6" d="M36 172h167v12H36z"/><path fill="#5f5d5a" d="M180 26l8.5-18.5 25.7 28.2-20.3-51.2z"/><ellipse cx="236" cy="50" fill="#0b0f00" rx="27" ry="20"/><path fill="#daced2" d="M23 37h77v5H23z"/><path fill="#593528" d="M33 56h48v2H33z"/><path d="M47.9 208L43 154h1l4.8 53.8z"/><path fill="#cfc1bf" d="M80.7 80.5l-71-9.9 50.5-17 20.1 8.2z"/><path fill="#080a00" d="M271 11l-56-27-17 36z"/><path fill="#33483c" d="M11.7 3.6l4.5 23.6-5.9 1.2L5.8 4.8z"/><path fill="#475634" d="M38 30l-9-46L63 8z"/><path fill="#0e0700" d="M73 136h14v13H73z"/><path fill="#7e8a87" d="M186 125l1 23 12 13z"/><path fill="#d6f3ff" d="M27 112h2v45h-2z"/><ellipse cx="221" cy="168" fill="#3b2121" rx="25" ry="5"/><circle cx="110" cy="101" r="30" fill="#bb9a94"/><path fill="#696865" d="M231 15.1L209.4 39l-4.4-4 21.5-24z"/><path fill="#97918e" d="M36.5 31.5l-15.6 3.6-3.4-14.6 15.6-3.6z"/><path fill="#2e3b22" d="M0 61h8v15H0z"/><circle r="1" fill="#4d632d" transform="matrix(8.43625 -15.0687 15.3711 8.60556 138.2 0)"/><path fill="#9d6758" d="M158 102l-41 22 42 22z"/><circle r="1" fill="#6e6a56" transform="rotate(138.5 69.1 50.2) scale(23.98002 4.53967)"/><path fill="#202c0f" d="M-8 32l7.4-3.2L7.9 48 .6 51.2z"/><path fill="#180b07" d="M168.5 121.4l-3.3-5.7-7 24.5 2.9 25.7z"/><path fill="#a4ae90" d="M100.7 33.1l.1-16.2 39.9-3.2-11.1-3.9z"/><path fill="#c9b8ba" d="M89 37h33v28H89z"/><ellipse cx="51" cy="115" fill="#d3ecfa" rx="34" ry="1"/><path fill="#ba7c6d" d="M61 94l26 19H43z"/><path fill="#402c20" d="M69 145.1l15 77.6-1 .2-15-77.6z"/><path fill="#5c362b" d="M149 61h6v56h-6z"/><ellipse cx="71" cy="158" fill="#d2e4f6" rx="20" ry="2"/><ellipse cx="58" cy="56" fill="#312116" rx="34" ry="1"/><path fill="#3e2517" d="M245.5 151.1l-60.3-67.4-8.8 45.9 4.2-4.6z"/><path d="M204.2 143.3l4 5.6-2.4 1.8-4-5.6z"/><path fill="#737170" d="M257.4 25.4l-8.8 2-2-8.8 8.8-2z"/><path fill="#291c11" d="M58 152h13v5H58z"/><path fill="#8c8b97" d="M144 171l23-15 12 10z"/><ellipse cx="123" cy="26" fill="#d0e2be" rx="24" ry="2"/><ellipse cx="32" cy="179" fill="#24190a" rx="2" ry="25"/><path fill="#2a2b2a" d="M73 45h16v6H73z"/><circle r="1" fill="#bc978b" transform="matrix(-5.02045 1.98774 -2.01838 -5.09785 38.3 187.3)"/><path fill="#26220c" d="M20.1 168.6l5.8 1.7-6 21.1-5.8-1.7z"/><path fill="#1f1e08" d="M237.6 92.6L186.1 83l14.5 19.6 44.1-30.1z"/><path fill="#8f9f67" d="M198.2 65l.4 17.2-10.6 4 7.2-24.6z"/><path fill="#3e4635" d="M25.4 22.3L-9.7-2.1l49.1 18.7-9.3-25z"/><path fill="#948389" d="M169 91l-12-19 3 18z"/><path fill="#070900" d="M190 126h5v28h-5z"/><path fill="#23240f" d="M230.8 115l39.8-13.9-21.3-26.9 3.2 38.8z"/><path fill="#91a375" d="M242 83l11 17-20 8z"/><path fill="#6e7449" d="M218.8 72.9l9.5-6.3 2 18.7-17.3.8z"/><path fill="#ccf089" d="M230 136h12v2h-12z"/><path fill="#c2b4b5" d="M7.2 31.8l4 51 15.9-27.5-1-16.7z"/><path fill="#aaa275" d="M207.2 133.4l3 9.5-11.4 3.7-3-9.5z"/><path fill="#c6a8a2" d="M87 98h28v37H87z"/><path fill="#706e5d" d="M-6.9 185.2l45.3-51.3 2.6 4L53.3 153z"/><path fill="#c4d9e5" d="M2.6 21L-1 11.6 5.4 9 9 18.3z"/></g></g></svg>