<svg xmlns="http://www.w3.org/2000/svg" viewBox="0 0 1400 1050"><defs/><filter id="a"><feGaussianBlur stdDeviation="12"/></filter><rect width="100%" height="100%" fill="#58522c"/><g filter="url(#a)"><g fill-opacity=".5" transform="translate(2.7 2.7) scale(5.46875)"><circle r="1" fill="#e8c5da" transform="matrix(52.08984 203.44103 -74.18035 18.99343 72.6 89)"/><circle r="1" transform="rotate(86.6 -42 99.8) scale(22.31953 31.31104)"/><circle cx="90" cy="11" r="33" fill="#fff"/><circle r="1" fill="#f5c4c2" transform="matrix(.29172 -14.90093 108.18092 2.1179 164.9 182.6)"/><ellipse cx="213" cy="30" fill="#0a1109" rx="48" ry="107"/><ellipse cx="35" fill="#072800" rx="22" ry="28"/><circle cx="16" cy="179" r="37" fill="#605144"/><ellipse cx="66" cy="85" fill="#d2b1b1" rx="64" ry="31"/><circle r="1" fill="#fff" transform="rotate(-122.4 44 -21) scale(17.07423 36.7341)"/><ellipse cx="57" cy="49" fill="#040e0c" rx="31" ry="6"/><ellipse cx="243" cy="104" fill="#8ea971" rx="10" ry="29"/><ellipse cx="158" cy="96" fill="#694d46" rx="27" ry="75"/><ellipse cx="117" cy="36" fill="#b8b2af" rx="32" ry="26"/><path fill="#1d0000" d="M159 120h27v38h-27z"/><path fill="#a59ca2" d="M193 152h50v12h-50z"/><circle r="1" fill="#060500" transform="matrix(21.00809 11.0295 -4.24074 8.07743 52.5 130)"/><circle cx="195" cy="77" r="9" fill="#aec17d"/><circle cy="119" r="29" fill="#bfa3a7"/><circle r="1" fill="#c6a9a5" transform="matrix(-17.74462 -21.48232 17.57797 -14.51958 170.3 186.3)"/><ellipse cx="241" cy="21" fill="#050900" rx="27" ry="51"/><path fill="#f9ffff" d="M162.1 107l17.6 4.1-1.8 7.8-17.6-4z"/><circle r="1" fill="#7b705e" transform="matrix(16.16458 15.39438 -26.87194 28.21637 28.6 172.8)"/><circle cx="118" cy="139" r="32" fill="#bf7e6e"/><path fill="#3d5143" d="M0 83L21-7l-37 69z"/><path fill="#110e00" d="M83 115l-48 21 53 10z"/><circle r="1" fill="#ccc4c9" transform="matrix(-5.3814 -17.49252 12.45952 -3.83305 19.5 54.8)"/><circle r="1" fill="#fff" transform="matrix(-27.3035 13.3168 -11.55057 -23.68218 90.2 1)"/><circle r="1" fill="#c7b2b1" transform="rotate(-112.5 94.1 22.2) scale(11.0631 23.72326)"/><path fill="#86736d" d="M122 28l-77-1 42 12z"/><path fill="#c7bdc0" d="M125 50L15 88l58-40z"/><path fill="#100002" d="M211 86h20v66h-20z"/><circle r="1" fill="#7b5d5a" transform="matrix(-12.34045 -41.39522 14.02568 -4.18124 144 69.7)"/><path fill="#473f2d" d="M39 152l-41-6 34 46z"/><path fill="#a99f9a" d="M201 128.9l10.6 10.4-.9-.2-17.3 16.2z"/><path fill="#fff" d="M117 18h13v10h-13z"/><path fill="#4a4440" d="M27 43h63v15H27z"/><path fill="#213705" d="M189-16L149 6l24 87z"/><path fill="#f8c4c3" d="M12.1 181.6l2 8.7-26.2 6.1-2-8.7z"/><path fill="#96a375" d="M249.1 85.9L214.3 84l7-13.2 31.6 32.8z"/><ellipse cx="60" cy="35" fill="#bdb1b1" rx="39" ry="8"/><circle r="1" fill="#615f5f" transform="matrix(23.94452 30.99566 -3.85424 2.97745 192.5 5.1)"/><circle r="1" fill="#4c5b38" transform="matrix(-19.8054 -10.72069 5.66903 -10.47296 41.3 1.3)"/><path fill="#706f60" d="M245 15h11v14h-11z"/><path fill="#26210b" d="M47 116h40v14H47z"/><path fill="#d4e9fa" d="M87 115h2v48h-2z"/><path fill="#838364" d="M158 54l-28-43 37 19z"/><path fill="#372619" d="M212.9 172.6l58.1-4.8-38.4-2.7-67.1-14.9z"/><path fill="#68675e" d="M1 2l65 31-48-1z"/><path fill="#b7bfc5" d="M61 50h39v6H61z"/><path fill="#797677" d="M227.6 18.2l-15.8 15.2-3.4-3.6 15.8-15.2z"/><ellipse cx="228" cy="153" fill="#a4a894" rx="28" ry="4"/><path fill="#a78580" d="M127 44L89 92l61 24z"/><path fill="#718249" d="M212.2 80l-7.3 6.7-21.1-22.6 7.3-6.8z"/><path fill="#898c84" d="M64.8 146l-3.4 17.7-40.2-7.8 3.4-17.6z"/><path fill="#000200" d="M187.4 39.2l-5.1-4.8 44.3-47.6 5.1 4.8z"/><path d="M256 106l15-31-34-56z"/><path fill="#a57665" d="M88 132h70v41H88z"/><circle r="1" fill="#260a09" transform="matrix(-10.32792 -4.1585 10.28158 -25.53506 201.3 108.7)"/><path fill="#cdbdbb" d="M85 90l-95-37 91 8z"/><ellipse cx="97" cy="30" fill="#736257" rx="41" ry="2"/><path fill="#ad7c6f" d="M61.7 95.9l30.9 19.7-44.2-.9-2.1-10.1z"/><path fill="#3e2717" d="M186.8 116.6l-17.5-62.8 58.8 84.3-77.5-21.6z"/><circle r="1" fill="#c7b7b9" transform="matrix(3.3614 -15.5081 15.8745 3.4408 105.5 50)"/><path fill="#fff" d="M122.4 27.9L104.7 5.3l18.1-.3-6.8 22.8z"/><path fill="#677647" d="M231 92h13v46h-13z"/><path fill="#cda79b" d="M30.5 207l11.3-44.9 3 22.8L23.1 207z"/><path fill="#cde3ef" d="M46 157h41v3H46z"/><path fill="#827771" d="M183.4 119.7l5.5 66.1.1-54.6-8.1-11.5z"/><path fill="#16260f" d="M227 138h29v10h-29z"/><path fill="#c4a598" d="M56.4 196.9l-8.5-19.2 23.7-10.6 8.5 19.2z"/><path fill="#434d38" d="M0 61h9v17H0z"/><ellipse cx="46" cy="181" fill="#2f2211" rx="2" ry="36"/><path fill="#adaba9" d="M34.6 24.8l-15.7 6.7-3.5-8.3 15.7-6.7z"/><path fill="#2d371a" d="M0 30l-16 7 28 17z"/><path fill="#68534b" d="M151.2 172.9l-6.4-4 5.7-52.8.1 54.1z"/><path fill="#483529" d="M76.5 192.1l-8.2-45 3.1 12.7 6.6 29.5z"/><path fill="#94a479" d="M243 72h6v30h-6z"/><path fill="#171706" d="M220.3-15.6l-65.8 39-8.7-5.2L199.1-16z"/><path fill="#6a5251" d="M181.8 85.2l.4 25-32 .6-.4-25z"/><path fill="#21270c" d="M247.5 76.9L235.2 100l-6-29.1-72-86.9z"/><path fill="#364020" d="M55 23l-12 6L30 8z"/><path fill="#cbbdc0" d="M76 42l-54 1v-9l54-1z"/><ellipse cx="4" cy="104" fill="#af9794" rx="31" ry="29"/><path fill="#9cadc0" d="M147 29h2v117h-2z"/><path fill="#cecadb" d="M171.1 117.6l-15.4-7.3 27.4 5.6-30.8-2.7z"/><ellipse cx="27" cy="138" fill="#e8ffff" rx="1" ry="23"/><path fill="#4a5346" d="M12.5 22.8L-5.8-7.6l44.6 37-20.4-9.5z"/><path fill="#353b1a" d="M231.8 117.3l26.4-5.8-7.2-14.6 20-7.1z"/><path fill="#344718" d="M162.1 80l-2.2-10.9L213 43l-29.2 40.2z"/><path fill="#9e6f64" d="M225 170h31v19h-31z"/><path fill="#3f511d" d="M166.2 39.3L135.8 9.1l-14.6 9.2 15-34.3z"/><ellipse cx="60" cy="46" fill="#2c2016" rx="31" ry="3"/><path fill="#cbd7c8" d="M126.2 22.8l.6-12 9 .4-.6 12z"/><circle r="1" fill="#be9f96" transform="matrix(-7.6426 17.96965 -29.41887 -12.51201 176.6 185.8)"/><path fill="#3e2218" d="M149 37h2v83h-2z"/><path d="M147 150h2v22h-2z"/><ellipse cx="162" cy="138" fill="#080400" rx="4" ry="20"/><path fill="#beafae" d="M55.5 78.6L7.1 69.7l7.2 43.9L6.6 24z"/><path fill="#282219" d="M78 116h9v39h-9z"/><circle cx="3" cy="17" r="6" fill="#b4c5cc"/></g></g></svg>