<svg xmlns="http://www.w3.org/2000/svg" viewBox="0 0 1400 1050"><defs/><filter id="a"><feGaussianBlur stdDeviation="12"/></filter><rect width="100%" height="100%" fill="#58522c"/><g filter="url(#a)"><g fill-opacity=".5" transform="translate(2.7 2.7) scale(5.46875)"><circle r="1" fill="#e4c2d6" transform="rotate(169.7 28.8 53.6) scale(88.46282 200.08759)"/><circle r="1" transform="matrix(29.93517 -.78388 .56727 21.66321 56.8 133.2)"/><path fill="#fff" d="M131.7 12.6l-28 41.5-51.4-34.7 28-41.5z"/><circle r="1" fill="#f6c5c3" transform="matrix(1.00681 -23.82475 117.7341 4.97534 174.5 191)"/><circle r="1" transform="matrix(-17.66714 62.43433 -74.1242 -20.97504 236.8 11.1)"/><circle r="1" fill="#3f381f" transform="matrix(35.77202 4.48041 -2.64737 21.13682 18 167.4)"/><circle cx="35" cy="8" r="20" fill="#072700"/><path d="M191.5 84.3l41 1.4-2 54-41-1.4z"/><ellipse cx="54" cy="78" fill="#dbbfc0" rx="51" ry="22"/><path d="M88 44l-62-2 17 15z"/><path fill="#fff" d="M60.6 28l-2-29.8 60.8-4.3 2 30z"/><ellipse cx="148" cy="95" fill="#7a534d" rx="16" ry="75"/><path fill="#090700" d="M60 116h27v32H60z"/><path fill="#ddd5f4" d="M165.5 109.6l-14.9 7.5 14.7-.8 24.8-1.8z"/><path fill="#b8b5b9" d="M195 154l37 10 18-16z"/><path fill="#c1a4a3" d="M87 26h38v106H87z"/><path fill="#200003" d="M159 117h26v40h-26z"/><circle r="1" fill="#c7aaab" transform="matrix(-16.77214 -14.55887 10.4381 -12.02492 171.4 179.2)"/><path fill="#2c3e11" d="M118.2 18.5l19-7 107.9 73.4L136.5-16z"/><path fill="#0b0900" d="M29.9 122.3l8.1-10.1 24.1 19.5-8.1 10.1z"/><path fill="#928a86" d="M195 132h16v28h-16z"/><ellipse cx="44" cy="104" fill="#c7a3a0" rx="97" ry="12"/><ellipse cx="245" cy="106" fill="#82a171" rx="7" ry="34"/><ellipse cy="51" fill="#334b3a" rx="8" ry="31"/><path fill="#978777" d="M33 142h42v50H33z"/><circle r="1" fill="#d7d1d6" transform="matrix(8.66974 4.25 -6.77284 13.8162 16 51)"/><ellipse cx="106" cy="32" fill="#897e76" rx="65" ry="5"/><circle r="1" transform="matrix(35.6364 115.19555 -7.69715 2.38116 255 73.5)"/><path fill="#b27562" d="M87 130h72v43H87z"/><ellipse cx="173" cy="56" fill="#1d3509" rx="14" ry="25"/><ellipse cx="58" cy="35" fill="#c2b5b6" rx="37" ry="8"/><path fill="#fff" d="M61 0h34v28H61z"/><path fill="#69685f" d="M14 34l46-2L5 4z"/><path fill="#60615c" d="M176.2-3.5l7.5-6.5 36.1 41.5-7.5 6.5z"/><path fill="#514734" d="M40 149l-10 58-40-56z"/><path fill="#c7d7c1" d="M88 17h57v12H88z"/><path fill="#240c0d" d="M182 87h48v39h-48z"/><circle r="1" fill="#19170e" transform="matrix(-31.09445 3.76284 -.60496 -4.99912 232.9 143.6)"/><path fill="#cbd4eb" d="M158.6 113.9l1-7 19.8 3.2-1 7z"/><path fill="#d7b9ae" d="M51 172h155v9H51z"/><path fill="#c4bcbe" d="M102.8 66.3l-70.1 9 73.4-36.4 25 8.8z"/><path fill="#654a4c" d="M149 61l33 40-33 17z"/><path fill="#768e58" d="M191 54h15v31h-15z"/><path fill="#b19f9f" d="M35.5 143.1l-8.7-2.9-42.8-27.4 27.6-53.3z"/><path d="M45 151h2v41h-2z"/><path fill="#87786d" d="M112 99l45-72-21-15z"/><ellipse cx="235" cy="39" fill="#060d00" rx="7" ry="46"/><circle cx="59" cy="22" r="6" fill="#fff"/><path fill="#33161a" d="M203 165h47v7h-47z"/><circle r="1" fill="#4c5541" transform="rotate(-158.7 16.2 5.3) scale(28.70742 6.50116)"/><path fill="#241e08" d="M40 118h47v24H40z"/><path fill="#a17265" d="M217 170h39v19h-39z"/><path fill="#bbafad" d="M33.6 15.7L15.2 26 103 39.3l-69.7 6.1z"/><path fill="#090d02" d="M265 7l-70 15 25-38z"/><path fill="#5f664d" d="M245.5 15.5L271 21l-4.9-12.4-19.4 31.9z"/><path fill="#d3dfeb" d="M8 55h89v1H8z"/><path fill="#fdffff" d="M77.8-13.8l46.3 7.5-6.2 20.9-61.2 5.2z"/><path fill="#342e25" d="M43 43h45v7H43z"/><path fill="#1f1b13" d="M80 136h7v19h-7z"/><path d="M147 152l3 10-3 6z"/><path fill="#bfdff3" d="M87 115h2v47h-2z"/><path fill="#fff" d="M135.3 16.3L120 19.7l-8.2-14.9 8.1 24.7z"/><path fill="#aebccd" d="M186 130h3v22h-3z"/><path fill="#cec3c2" d="M31 73l-47-23 98 16z"/><path fill="#372a1a" d="M63.8 115l25.4 143.8-1 .2-25.4-143.8z"/><path fill="#ad8882" d="M85 83l42-25 22 70z"/><path fill="#648550" d="M53-13.7l10.4 26-8.3 3.4-10.5-26z"/><path fill="#5f4a42" d="M139 46h9v35h-9z"/><path fill="#2e381c" d="M6.2 44.7l2.3 6.4-22.4-3.5 10.1-30z"/><ellipse cx="69" cy="158" fill="#cfe5f6" rx="23" ry="2"/><ellipse cx="4" cy="153" fill="#432f26" rx="1" ry="57"/><path fill="#88887f" d="M22.2 164.2L.3 207l29-67.1 19.2 3.2z"/><ellipse cx="248" cy="152" fill="#c1d294" rx="14" ry="2"/><ellipse cx="63" cy="31" fill="#88766d" rx="84" ry="3"/><path fill="#d9aca2" d="M11.2 181.8l4.2 4.2-23.7 17.2 11.2-18.9z"/><path fill="#93a47e" d="M237.9 92.8l12.6 10.5-1.1-30.4-18.1 43.7z"/><path fill="#3a3e27" d="M36-16L3 26 37 9z"/><path fill="#060500" d="M159 118h5v45h-5z"/><ellipse cx="147" cy="79" fill="#8c8d94" rx="2" ry="56"/><path fill="#79895c" d="M227 66l2 18-14-4z"/><circle r="1" fill="#2f3c12" transform="matrix(16.12187 19.2133 -3.34767 2.80903 202.7 64.5)"/><ellipse cx="60" cy="115" fill="#d7fdff" rx="27" ry="1"/><path fill="#1c100b" d="M212 86h17v66h-17z"/><path fill="#dcb4ae" d="M43 167l-7 7 4 16z"/><path fill="#5b5854" d="M69 44L43 57h36z"/><path fill="#222d04" d="M163.2 29.8L204.9-16 156.7 2l-1.3 31.1z"/><ellipse cx="27" cy="134" fill="#efffff" rx="1" ry="23"/><path fill="#140900" d="M32 156h2v36h-2z"/><path fill="#859b59" d="M243.7 136.9l-15.1-3.6 1.5 4.5 5.8 4.6z"/><path fill="#5f605e" d="M223 12l9 3-25 19z"/><path fill="#543427" d="M218.2 138.5l-56.2-17 25.6 55.6-11-91.6z"/><path fill="#3d442d" d="M7 76l-23-17H9z"/><path fill="#433119" d="M43 207l10-24-22 11z"/><path fill="#8f8e93" d="M179.4 165.9l26.5 2.2-60.2 2.9 19.3-15.6z"/><path fill="#252811" d="M172.2 14.8l-40.1 12.5 15.1-12.4 67.9-30z"/><path fill="#49591f" d="M125 0h42v11h-42z"/><path fill="#dcc489" d="M208.9 140.1l-7.3 3.3-2.5-5.5 7.3-3.3z"/><path fill="#33311a" d="M246.3 116.6L264 96.9l-37.9 20.8-43.9-13.8z"/><path fill="#aa6857" d="M146.8 134.1l-.6-26.9-19.5 11.4-13.3 9.8z"/><circle cx="162" cy="87" r="5" fill="#a29a94"/></g></g></svg>