<svg xmlns="http://www.w3.org/2000/svg" viewBox="0 0 1400 1051"><defs/><filter id="a"><feGaussianBlur stdDeviation="12"/></filter><rect width="100%" height="100%" fill="#5d4433"/><g filter="url(#a)"><g fill-opacity=".5" transform="translate(2.7 2.7) scale(5.46875)"><ellipse cx="132" cy="105" fill="#fff" rx="169" ry="170"/><circle cx="141" cy="39" r="215" fill="#fff"/><circle r="1" fill="#916b44" transform="matrix(-17.87466 29.95962 -50.17545 -29.93592 97.8 124.6)"/><path fill="#fff" d="M271 0l-89 149L-16-1z"/><circle r="1" fill="#fff" transform="rotate(-86.4 55 29.7) scale(187.16501 33.31276)"/><circle r="1" fill="#573d1f" transform="matrix(.58401 7.1035 -57.47441 4.72526 188.5 150)"/><ellipse cx="143" cy="180" fill="#fff" rx="255" ry="19"/><circle r="1" fill="#fff" transform="rotate(-165 83.3 12) scale(216.94171 58.42412)"/><path fill="#fff" d="M94 104h23v49H94z"/><path fill="#95663d" d="M67 77h29v84H67z"/><path fill="#1d0800" d="M105 152h36v12h-36z"/><circle r="1" fill="#fff" transform="matrix(3.89811 21.62653 -60.42654 10.89169 144.2 180.1)"/><circle r="1" fill="#9b7445" transform="matrix(-.14618 16.00638 -10.1329 -.09254 226 134)"/><path fill="#fff2d1" d="M41.8 129.9h41.3l-45-36.2 37.2 10.1z"/><path fill="#371c02" d="M52.3 92.6l7 42.5-7.2 11.8 3.7-60.6z"/><path fill="#7d451b" d="M83.1 89l10.7-15.9 16.9 27L53.9 97z"/><path fill="#fff" d="M116.2-10.5L.7 167.3l-62.9-40.8L53.3-51.3z"/><ellipse cx="235" cy="181" fill="#fff" rx="143" ry="27"/><ellipse cx="254" cy="74" fill="#fbffff" rx="22" ry="140"/><path fill="#fff" d="M78 91.7L40.9-16 271 3 98.5 69.2z"/><path fill="#231200" d="M116 129h7v19h-7z"/><ellipse cx="36" cy="174" fill="#fff" rx="69" ry="16"/><path fill="#ebcc9a" d="M193 118h29v29h-29z"/><ellipse cx="151" cy="153" fill="#311907" rx="45" ry="3"/><path fill="#8a5528" d="M74 83.4l-22.6 21.1-5.5-5.9 22.7-21.1z"/><path fill="#fffdf5" d="M15.8 153l48.6-35.3 4.1 44.1L31.4 55.2z"/><path fill="#d1c2a8" d="M19 148h85v10H19z"/><circle cx="133" cy="118" r="16" fill="#b7aea1"/><path fill="#7f6c57" d="M251.1 150.9l-17.2-9.9.1-23.1-20.4 36.4z"/><path fill="#fbffff" d="M150 57h41v87h-41z"/><path fill="#472912" d="M75.9 106.4v38.4l1.7 4.3 3.3-19.7z"/><path fill="#fff" d="M115.2 148.5l-35.6 2.3 16.3 3 17.7-46.8z"/><path fill="#fff2d2" d="M79.9 97l-33.1 3.2 25 21.5-22.4 4.4z"/><path fill="#7f6753" d="M105.9 134.9l-15 5.7-2.8-7.5 15-5.7z"/><path fill="#ffedcb" d="M72 99h3v49h-3z"/><path fill="#fbffff" d="M97 108l24-29-10 32z"/><ellipse cx="96" cy="125" fill="#f2f7f3" rx="3" ry="19"/><path fill="#908278" d="M85 162.3l.4-4 51.7 5.4-.5 4z"/><path fill="#8e5c35" d="M106.9 96.1l-32.5 30.5-1-42.8-24.7 17.1z"/><ellipse cx="70" cy="128" rx="1" ry="20"/><ellipse cx="209" cy="101" fill="#f5f8ff" rx="77" ry="17"/><path fill="#9f9689" d="M97.9 96.4l53.5 12.2-11.9-1.2-1.5 7.4z"/><path d="M52 130h5v12h-5z"/><path fill="#3d2912" d="M57.5 108.5v11h-9v-11z"/><path fill="#fcfeff" d="M53.6-16L271 36 77.6 71.8 67.1 83.9z"/><path fill="#fff0d2" d="M42.9 98.6l11.7 2.7-7.5 32.1-11.7-2.7z"/><path fill="#4b321d" d="M189 149h41v4h-41z"/><path fill="#fff6e6" d="M-16 129l89.9-2.7-3.6-30.2 4.2 22.4z"/><path d="M68 127h4v18h-4z"/><path fill="#0f0000" d="M107 109l-3 9 5 1z"/><ellipse cx="216" cy="166" fill="#f9feff" rx="85" ry="12"/><circle cx="141" cy="144" r="4" fill="#1d0d00"/><path fill="#382819" d="M225 143l-5 8 23-5z"/><ellipse cx="91" cy="129" fill="#86502b" rx="3" ry="26"/><path fill="#ffffea" d="M91 73l-16 5 2 16z"/><path d="M126 126l4 5-1 6z"/><path fill="#f3fbff" d="M234 114h22v30h-22z"/><path fill="#d6cdc1" d="M131 111h10v31h-10z"/><circle cx="130" cy="74" r="30" fill="#f6f9ff"/><ellipse cx="47" cy="129" fill="#ffddb0" rx="5" ry="30"/><path fill="#47382a" d="M99 126h5v11h-5z"/><path fill="#392311" d="M110 152h47v5h-47z"/><path fill="#f3e5cc" d="M206 118h13v29h-13z"/><path fill="#050000" d="M55 127h3v15h-3z"/><path fill="#d8d1c5" d="M142 148h44v2h-44z"/><path fill="#fff5ce" d="M59 101h6v51h-6z"/><path fill="#8a582a" d="M69 99L58 86l7-12z"/><path fill="#fcffff" d="M98 106h7v22h-7z"/><path fill="#a89784" d="M20 149h15v8H20z"/><path fill="#7f5535" d="M95 75l12 19-18 14z"/><ellipse cx="74" cy="132" fill="#8b5d3b" rx="1" ry="30"/><circle r="1" fill="#feffff" transform="rotate(11.9 -816 358) scale(62.43691 15.02158)"/><path fill="#f9fdff" d="M0 0h41v150H0z"/><path fill="#f9faff" d="M150 113h43v32h-43z"/><path fill="#ebf3fb" d="M232 149h24v9h-24z"/><path fill="#b08e68" d="M220 118h14v27h-14z"/><path fill="#fff" d="M102 100l16 12-20-3z"/><path fill="#fff" d="M112 108l3 39-15-1z"/><path fill="#ffe9c6" d="M50.4 157.5l-.6-55.1-6.8 31.9 16.5 11.2z"/><path fill="#c7b9a9" d="M115 109h34v20h-34z"/><path fill="#553b25" d="M117 103l-5 1-6-7z"/><path fill="#f2f4fa" d="M138 55h118v56H138z"/><path fill="#d1b792" d="M212.7 139.4l-1.6 9-18.6-7.2-.4-23.8z"/><path fill="#d8cfbe" d="M83 150h21v9H83z"/><path fill="#ffeece" d="M59 99h8v52h-8z"/><ellipse cx="82" cy="140" fill="#a06a41" rx="2" ry="22"/><ellipse cx="97" cy="160" fill="#3f261b" rx="14" ry="1"/><circle cx="56" cy="129" r="3" fill="#2b0e00"/><path fill="#7c716a" d="M105.8 163.5l-57.7-6 .1-1 57.7 6z"/><path fill="#492f1b" d="M107 152h27v10h-27z"/><path fill="#582700" d="M95.9 158.2l-.8-6 3-.4.8 6z"/><path fill="#5e4b3a" d="M139 132l-3-7 9 9z"/><path fill="#b77e52" d="M92.1 144.5l-12 .9-2.2-32 12-.8z"/><ellipse cx="145" cy="129" fill="#cabda9" rx="2" ry="20"/><path fill="#fffffc" d="M67 84l-1-4 2-3z"/><path fill="#fff1d9" d="M71.8 108.1l2.2-8.2-24.3.4-13.8 7.8z"/><path fill="#f0eee1" d="M72 150h79v1H72z"/><path fill="#0f0801" d="M76 127h3v13h-3z"/><path fill="#7d5a38" d="M168 145h30v3h-30z"/><path fill="#2f1200" d="M54 129h5v13h-5z"/></g></g></svg>