<svg xmlns="http://www.w3.org/2000/svg" viewBox="0 0 1200 848"><defs/><filter id="a"><feGaussianBlur stdDeviation="12"/></filter><rect width="100%" height="100%" fill="#393a3a"/><g filter="url(#a)"><g fill-opacity=".5" transform="translate(2.3 2.3) scale(4.6875)"><circle cx="129" cy="58" r="184" fill="#fff"/><circle r="1" fill="#fff" transform="rotate(-162.7 66.7 43.8) scale(166.14975 177.23372)"/><circle cx="176" cy="135" r="221" fill="#fff"/><circle cx="111" cy="143" r="198" fill="#efffff"/><circle r="1" fill="#a7b8ae" transform="rotate(-87.8 128.4 -41) scale(6.19701 67.39702)"/><ellipse cx="115" cy="60" fill="#cfdddf" rx="79" ry="31"/><circle r="1" fill="#9baea2" transform="rotate(-66.5 115.3 9.8) scale(5.09489 38.60577)"/><circle cx="204" cy="154" r="59" fill="#fff"/><path fill="#bed0c1" d="M36.6 99.3l-36.7 5.2-2.5-17.8 36.7-5.2z"/><path fill="#a7b99e" d="M162.8 42.1l52-30 4.4 7.8-52 30z"/><circle cx="235" cy="41" r="40" fill="#fff"/><path fill="#a1b09d" d="M163 79h20v20h-20z"/><path fill="#c0cfd6" d="M66.9 127.6l-20.4 20.6 37.3-1.8 6-42.2z"/><ellipse cx="68" cy="171" fill="#fff" rx="186" ry="18"/><ellipse cx="116" cy="15" fill="#fff" rx="93" ry="15"/><path fill="#c8d8c5" d="M30.9 91.5l27.8-23.3 59.5-31.5L76.8 28z"/><circle r="1" fill="#e1edf7" transform="matrix(21.17279 -12.22411 24.18709 41.89327 102.1 99.5)"/><path fill="#bcd0b1" d="M208.3 93.8l-.5-10 32-1.6.4 10z"/><circle cx="9" cy="132" r="34" fill="#f3fdff"/><ellipse cx="134" cy="51" fill="#e5f0f7" rx="20" ry="35"/><path fill="#9ca3aa" d="M-1.5-.5h255v1h-255z"/><circle cx="9" cy="41" r="40" fill="#f4fcff"/><circle r="1" fill="#9eb692" transform="matrix(-.70673 1.50189 -9.3953 -4.4211 40.5 55)"/><circle r="1" fill="#feffff" transform="matrix(-27.30595 44.9104 -24.33856 -14.79808 218.3 140)"/><path fill="#f4fdff" d="M91 53L22 93l80-20z"/><circle r="1" fill="#eff9fd" transform="matrix(-3.86354 -24.39342 27.41717 -4.34245 201 63)"/><path fill="#c6d0d7" d="M115.7 73.8l.7-16.1-22 .7 16.2 26.4z"/><path fill="#a5acac" d="M255 0h1v180h-1z"/><circle r="1" fill="#c6d8c0" transform="rotate(109.2 12.2 44) scale(4.06274 13.37545)"/><path fill="#a7b3a9" d="M161 53l39-27-40 14z"/><path fill="#c6d5da" d="M157 105l22-5-27-11z"/><path fill="#bfd1bc" d="M38.6 83.4L34 87.2l48.1-29.9-58 25.6z"/><path fill="#cee4c6" d="M197.6 21.5l1.7 8.9 27.4-18.2-5.2-4.2z"/><ellipse cx="200" cy="91" fill="#b3c3ae" rx="42" ry="3"/><circle cx="115" cy="33" r="4" fill="#9aa3a0"/><path fill="#b5c4b6" d="M1 93h31v7H1z"/><path fill="#fff" d="M56.5 48.2L67.6 55l-4 6.9L52.3 55z"/><path fill="#c8d3da" d="M107 79l22 8-42 15z"/><path fill="#b6c1c7" d="M100 110.2l10.9 1.7-1 6-10.8-1.8z"/><circle r="1" fill="#a7b6a7" transform="matrix(-2.95288 3.83012 -8.8252 -6.8039 76.7 118.3)"/><circle r="1" fill="#feffff" transform="matrix(1.66165 25.01737 -17.7976 1.18212 239.2 32.4)"/><path fill="#e5f1fa" d="M159.1 100.3l-8.4-26.6 37.8-3.7-64 28.7z"/><circle r="1" fill="#ddeaf0" transform="matrix(5.5268 12.6623 -19.00328 8.29448 44.5 145.5)"/><path fill="#5c6164" d="M186.5 56.5l.9.4-1.9 4.6-.9-.4z"/><ellipse cx="247" cy="120" fill="#fbffff" rx="7" ry="119"/><path fill="#e0ecf3" d="M87 97h19v31H87z"/><circle r="1" fill="#fff" transform="matrix(-50.2087 3.62526 -.48133 -6.66627 170.6 8.8)"/><circle r="1" fill="#f9ffff" transform="matrix(19.22517 15.96104 -5.90581 7.11358 88.7 19.5)"/><path fill="#fcffff" d="M42.9 74.4l-3.3-9.5 9.5-3.3 3.3 9.5z"/><path fill="#e5eef1" d="M168 38l-43-25 18 42z"/><path fill="#b5c5b6" d="M36.9 101.4l29.3 15.5-1.8-8.2-32.9-16.4z"/><ellipse cx="72" cy="93" fill="#d0dde5" rx="11" ry="6"/><path fill="#a3b2a2" d="M168 78h11v5h-11z"/><circle r="1" fill="#f8ffff" transform="matrix(-5.54613 29.23603 -28.60626 -5.42667 180.5 140.8)"/><path fill="#f4feff" d="M66.2 41.8l15.6 9-2 3.4-15.6-9z"/><path fill="#b8c7ba" d="M109.9 32l-8.8 7.2-18.3 12.5 40.4-17.3z"/><path fill="#c0cdc8" d="M100.6 40.4l-6.3 20.4 18-2.3-29.1-10.6z"/><circle r="1" fill="#f7ffff" transform="matrix(-.98536 -19.45136 63.6443 -3.22408 66.6 174.9)"/><circle r="1" fill="#f5fbff" transform="matrix(-1.73865 19.27458 -22.62624 -2.04098 45.8 20.7)"/><path fill="#b0b8bc" d="M147 40l-1-8 8 6z"/><path fill="#cdd8df" d="M150 58h27v14h-27z"/><ellipse cx="123" cy="30" fill="#f6fdff" rx="7" ry="12"/><ellipse cx="140" cy="79" fill="#e4eff7" rx="26" ry="6"/><circle r="1" fill="#ebf6fb" transform="rotate(167.9 41.3 77.2) scale(40.21939 9.19155)"/><circle r="1" fill="#f4fbff" transform="matrix(-1.39811 -53.6434 17.63699 -.45967 6 150.6)"/><path fill="#aeb6bc" d="M169 84v3l-32 1v-3z"/><path fill="#cfdce2" d="M166.7 96.8l-7.3 21.8-5.9-12.3-7.3 1.5z"/><path fill="#d0dae3" d="M150.7 91.3l-48.2.2-13.1-21.4-10.8 6.3z"/><path fill="#bdc8ce" d="M67 141l16-7 1-14z"/><path fill="#a9bca5" d="M38.6 53.4l-4.3 2.4-3-5.2 4.4-2.4z"/><path fill="#edf9ff" d="M35 102l39 23-32 9z"/><path fill="#b9cbb7" d="M40.9 77.4l37.5-19.8-4.4-8.3-18 24.9z"/><path fill="#f1f8fb" d="M201.7 52.2L175 63.5l-6.7-15.7L195 36.5z"/><path fill="#a2a8ae" d="M106 61.3l-2.5 1.5-3.5-6 2.5-1.6z"/><circle r="1" fill="#f0f7fb" transform="rotate(-76.4 41 -5) scale(2.49672 52.43168)"/><path fill="#d3e2e3" d="M201 108l-20-12-16 2z"/><circle r="1" fill="#c0d2bc" transform="rotate(119.9 8.4 44.3) scale(2.20369 19.1075)"/><path fill="#f0fafe" d="M75.2 62.6l14.3 20.5-14.7 10.3-14.3-20.5z"/><path fill="#c5d0d2" d="M159.9 79.1l4.7 11L158 93l-4.7-11z"/><path fill="#92aa79" d="M61 34.5l.9-.4 3.1 7.4-.9.4z"/><path fill="#fcffff" d="M113 28l28-26L32 1z"/><circle r="1" fill="#cddbe1" transform="matrix(1.2849 -.40708 4.34516 13.71489 134 152.7)"/><path fill="#f1fdff" d="M90 51l23 1 2-9z"/><ellipse cx="139" cy="61" fill="#d3dee3" rx="4" ry="24"/><path fill="#ebf7fd" d="M110 92h40v32h-40z"/><circle r="1" fill="#cfdbe0" transform="matrix(-4.9851 -18.59987 2.23132 -.59803 77 139.8)"/><circle r="1" fill="#f4fafc" transform="matrix(1.08342 4.43453 -30.68368 7.4965 169 28.5)"/><path fill="#f1fafb" d="M135.6 38.5l-13 1.2 42.6 15.1-52.6-40.9z"/><path fill="#b9c3c8" d="M102 62h6v11h-6z"/><path fill="#f2fafe" d="M60.8 31.9l34.8 11.7-5.5-4.9-26.3-7.8z"/><ellipse cx="19" cy="91" fill="#e9f5fb" rx="53" ry="2"/><path fill="#fcffff" d="M237 61.2l17.4 23.1-26.7-1.5-36 2.8z"/><path fill="#effafe" d="M88 133l1-18 31 28z"/><ellipse cx="212" cy="83" fill="#f7feff" rx="1" ry="68"/><path fill="#eaf5fb" d="M102.2 74.9l-11.6-24 10.5 12.8-24 40.4z"/><circle r="1" fill="#e6f1f4" transform="matrix(.6647 -3.51784 22.99872 4.34565 47.2 20.6)"/><circle cx="2" cy="72" r="13" fill="#fbffff"/><path fill="#aabaa9" d="M159 47l12-10-7 14z"/><path fill="#d0dee2" d="M129.3 163.2l-1 .4-15.6-36.8 1-.4z"/><path fill="#d6e3e8" d="M165 110l-42 20 21-1z"/></g></g></svg>