<svg xmlns="http://www.w3.org/2000/svg" viewBox="0 0 1400 1050"><defs/><filter id="prefix__a"><feGaussianBlur stdDeviation="12"/></filter><rect width="100%" height="100%" fill="#454545"/><g filter="url(#prefix__a)"><g transform="translate(2.7 2.7) scale(5.46875)"><circle cx="163" cy="103" r="196" fill="#fff" fill-opacity=".5"/><circle cx="164" cy="76" r="204" fill="#fff" fill-opacity=".5"/><circle cx="137" cy="153" r="213" fill="#fff" fill-opacity=".5"/><circle cx="124" cy="40" r="211" fill="#fff" fill-opacity=".5"/><ellipse cx="138" cy="119" fill="#bababa" fill-opacity=".5" rx="94" ry="12"/><circle cx="120" r="95" fill="#fff" fill-opacity=".5"/><circle r="1" fill="#c7cac8" fill-opacity=".5" transform="matrix(14.85326 .63536 -.9019 21.08455 227.1 92.5)"/><circle cx="37" cy="86" r="20" fill="#ccc" fill-opacity=".5"/><ellipse cx="96" cy="165" fill="#fff" fill-opacity=".5" rx="255" ry="39"/><ellipse cx="78" cy="123" fill="#a1a1a1" fill-opacity=".5" rx="112" ry="3"/><circle r="1" fill="#fff" fill-opacity=".5" transform="matrix(.92937 52.04209 -199.81207 3.56825 175.2 22.7)"/><ellipse cx="142" cy="99" fill="#e4e4e4" fill-opacity=".5" rx="108" ry="17"/><path fill="#fff" fill-opacity=".5" d="M0 112h71v10H0z"/><circle r="1" fill="#fff" fill-opacity=".5" transform="matrix(-29.05166 -36.68006 6.7539 -5.34928 191.5 88)"/><path fill="#4a4a4a" fill-opacity=".5" d="M101 120h8v8h-8z"/><path fill="#8b8b8b" fill-opacity=".5" d="M49 121h5v10h-5z"/><path fill="#fff" fill-opacity=".5" d="M250.3 128l3.1 60-189.7 10-3.1-60z"/><path fill="#bebebe" fill-opacity=".5" d="M90.6 109.3l5.8 24.5L93 93.2l-21 18.5z"/><path fill="#9e9f9e" fill-opacity=".5" d="M201 121h55v2h-55z"/><ellipse cy="60" fill="#fff" fill-opacity=".5" rx="17" ry="62"/><ellipse cx="55" cy="163" fill="#fff" fill-opacity=".5" rx="255" ry="31"/><path fill="#f1f1f1" fill-opacity=".5" d="M51 113h27v21H51z"/><circle r="1" fill="#fff" fill-opacity=".5" transform="matrix(-.26792 42.63076 -160.17753 -1.00667 148.6 29)"/><circle r="1" fill="#494949" fill-opacity=".5" transform="matrix(-4.11313 .69604 -.3869 -2.28638 82.4 123.9)"/><path fill="#5c5c5c" fill-opacity=".5" d="M179.9 127.5l.9-7.6 7.5 5.2-.8-.8z"/><path fill="#b9bcba" fill-opacity=".5" d="M219 90h9v24h-9z"/><path fill="#dcdcdc" fill-opacity=".5" d="M140 78h35v24h-35z"/><path fill="#515151" fill-opacity=".5" d="M137 122.6l5.5-4.4 2.5 3.2-5.5 4.4z"/><path fill="#fff" fill-opacity=".5" d="M188 119.5v-7h30v7zM152 159l39 45-13-91z"/><path fill="#a5a5a5" fill-opacity=".5" d="M63 111.3v-1l48-1.6v1z"/><circle r="1" fill="#616161" fill-opacity=".5" transform="matrix(-.00625 4.56653 -2.12644 -.00291 210.1 124.4)"/><path fill="#272727" fill-opacity=".5" d="M93.3 122l1 .2-1.6 5.8-1-.2z"/><ellipse cx="30" cy="77" fill="#dcdcdc" fill-opacity=".5" rx="17" ry="21"/><path fill="#fff" fill-opacity=".5" d="M182 37h21v71h-21z"/><path fill="#b9b9b9" fill-opacity=".5" d="M32.8 93l1 .2-4.6 37.7-1-.1z"/><path fill="#fff" fill-opacity=".5" d="M245 38h11v81h-11z"/><path fill="#e0e0e0" fill-opacity=".5" d="M238 83l-16-17-38 60z"/><path fill="#d2d2d2" fill-opacity=".5" d="M-8.4 134v-1l142.8-5v1z"/><ellipse cx="123" cy="119" fill="#bebebe" fill-opacity=".5" rx="52" ry="2"/><path fill="#f1f1f1" fill-opacity=".5" d="M83 110h89v5H83z"/><path fill="#fff" fill-opacity=".5" d="M32 103h29v19H32z"/><path fill="#ebebeb" fill-opacity=".5" d="M155 122h25v7h-25z"/><path fill="#555" fill-opacity=".5" d="M79 118h3v10h-3z"/><path fill="#fff" fill-opacity=".5" d="M271 15L85 94-13-16z"/><ellipse cx="185" cy="109" fill="#a4a4a4" fill-opacity=".5" rx="28" ry="1"/><ellipse cx="248" cy="120" fill="#aeaeae" fill-opacity=".5" rx="42" ry="1"/><path fill="#aeaeae" fill-opacity=".5" d="M196 128h60v1h-60z"/><path fill="#fff" fill-opacity=".5" d="M224 115h9v5h-9z"/><ellipse cx="5" cy="107" fill="#fff" fill-opacity=".5" rx="23" ry="15"/><circle r="1" fill="#fafafa" fill-opacity=".5" transform="matrix(-5.72671 3.52072 -7.78833 -12.6683 124.7 134.5)"/><ellipse cx="190" cy="123" fill="#fff" fill-opacity=".5" rx="3" ry="5"/><ellipse cx="125" cy="117" fill="#c5c5c5" fill-opacity=".5" rx="57" ry="2"/><path fill="#ededed" fill-opacity=".5" d="M83.7 130.6l-1.8 8.9.4-41.8 1.1-6.5z"/><ellipse cx="143" cy="107" fill="#f8f8f8" fill-opacity=".5" rx="76" ry="2"/><path fill="#d4d4d4" fill-opacity=".5" d="M41.5 98.5L28.7 70.3l3.9 58.8-10.7-44.3z"/><ellipse cx="55" cy="165" fill="#fff" fill-opacity=".5" rx="255" ry="33"/><path fill="#fff" fill-opacity=".5" d="M88 117h3v9h-3z"/><path fill="#e6e6e6" fill-opacity=".5" d="M35.9 98.6l20.9-26.8 17.3 13.6-20.9 26.8z"/><ellipse cx="210" cy="126" fill="#a7a7a7" fill-opacity=".5" rx="14" ry="1"/><path fill="#3a3a3a" fill-opacity=".5" d="M112.8 119.3l1.9.6-1.5 4.8-1.9-.6z"/><path fill="#fff" fill-opacity=".5" d="M207.3 106.1L183 196.3l88-70.7-82.1 16.7z"/><path fill="#eee" fill-opacity=".5" d="M217.3 121.2l36.1-35.3-23.8 39.1-27.9-41.4z"/><path fill="#f3f3f3" fill-opacity=".5" d="M95 121h5v9h-5z"/><circle cx="50" cy="126" r="3" fill="#707070" fill-opacity=".5"/><path fill="none" stroke="#f6f6f6" stroke-opacity=".5" stroke-width=".5" d="M98.3 207q7.3-73.8 5.6-104.2"/><path fill="none" stroke="#f3f3f3" stroke-opacity=".5" stroke-width=".5" d="M136.8 97.8q9.1 23.9 3.4 43.1"/><path fill="#6d6d6d" fill-opacity=".5" d="M186.2 130.6l-7.4-7.9 5.6.6-.4 4.7z"/><path fill="#eaeaea" fill-opacity=".5" d="M70.7 117.5l10.8 2-.2 1-10.8-2z"/><path fill="#ededed" fill-opacity=".5" d="M249.3 114.1l-14 1.5-4.6-43.7 14-1.5z"/><path fill="#f2f2f2" fill-opacity=".5" d="M185 122l4 7 3-8z"/><circle r="1" fill="#c9c9c9" fill-opacity=".5" transform="matrix(1.68712 -8.30715 4.37657 .88885 91 106)"/><path fill="#c2c4c3" fill-opacity=".5" d="M221 86h4v42h-4z"/><ellipse cx="186" cy="110" fill="#aaa" fill-opacity=".5" rx="14" ry="1"/><path fill="#eaeaea" fill-opacity=".5" d="M210 69l25-1-36 27z"/><ellipse cx="179" cy="129" fill="#cbcbcb" fill-opacity=".5" rx="30" ry="1"/><path fill="#fefefe" fill-opacity=".5" d="M47 126h2v32h-2z"/><path fill="#fff" fill-opacity=".5" d="M188 129h68v63h-68z"/><path fill="#e2e2e2" fill-opacity=".5" d="M74 127h56v4H74z"/><ellipse cx="10" cy="128" fill="#fff" fill-opacity=".5" rx="18" ry="4"/><path fill="#fff" fill-opacity=".5" d="M97 161l10-6-3-31zm-81.3-43l-16 1.6L-9.7 30l16-1.7z"/><path fill="#b0b0b0" fill-opacity=".5" d="M142 120h18v5h-18z"/><path fill="#a1a1a1" fill-opacity=".5" d="M192.1 106.2l1-.2 2.8 19.8-1 .2z"/><ellipse cx="213" cy="39" fill="#fff" fill-opacity=".5" rx="229" ry="31"/><path fill="#c8cac9" fill-opacity=".5" d="M233.7 107.8l-19.8-15.7 8 22.2-1.4-26.5z"/><circle cx="140" cy="124" r="2" fill="#4d4d4d" fill-opacity=".5"/><path fill="#cbcbcb" fill-opacity=".5" d="M155 117h20v9h-20z"/><path fill="#fff" fill-opacity=".5" d="M152 8l-19 82-32-24z"/><path fill="#fefefe" fill-opacity=".5" d="M195 111h27v9h-27z"/><ellipse cx="115" cy="94" fill="#e4e4e4" fill-opacity=".5" rx="12" ry="8"/><path fill="#c2c2c2" fill-opacity=".5" d="M91 109h37v2H91z"/><path fill="#fff" fill-opacity=".5" d="M188.7 109.1l-3.7-5.5L216.4-16l-16.7 122.5z"/><path fill="#f1f1f1" fill-opacity=".5" d="M78.7 109.1L32.5 53.2l49.8 29.5 7.2 9.3z"/><circle r="1" fill="#fff" fill-opacity=".5" transform="matrix(-7.3841 -77.05805 13.26323 -1.27095 255 52.9)"/><path fill="none" stroke="#f8f8f8" stroke-opacity=".5" stroke-width=".5" d="M236.3 183.7Q107 167.5 154.7 76.2"/><ellipse cx="62" cy="118" fill="#b7b7b7" fill-opacity=".5" rx="1" ry="10"/><path fill="#f4f4f4" fill-opacity=".5" d="M122 126h51v3h-51z"/><ellipse cx="142" cy="129" fill="#c9c9c9" fill-opacity=".5" rx="18" ry="1"/><path fill="none" stroke="#fdfdfd" stroke-opacity=".5" stroke-width=".5" d="M51.2 114q.3 3.3 0 36.7"/></g></g></svg>