<svg xmlns="http://www.w3.org/2000/svg" viewBox="0 0 1400 1050"><defs/><filter id="a"><feGaussianBlur stdDeviation="12"/></filter><rect width="100%" height="100%" fill="#4f3e2d"/><g filter="url(#a)"><g fill-opacity=".5" transform="translate(2.7 2.7) scale(5.46875)"><circle r="1" fill="#fff" transform="matrix(215.06482 -137.0114 55.93363 87.7982 88.8 65.3)"/><circle r="1" transform="matrix(11.6382 -20.15795 52.29019 30.18976 70.2 9)"/><circle cx="18" cy="72" r="60" fill="#eafbff"/><circle r="1" fill="#040000" transform="rotate(-151.3 87.3 58.1) scale(14.72914 42.3381)"/><circle cx="189" r="74" fill="#fffad5"/><circle r="1" fill="#fffff8" transform="matrix(20.92048 6.31626 -14.45283 47.87007 115.8 110.5)"/><circle r="1" fill="#958662" transform="matrix(20.74901 13.47457 -50.44786 77.6829 186.6 126)"/><circle r="1" fill="#f7e6a8" transform="matrix(-30.8459 -14.6467 14.9077 -31.39555 72.4 166)"/><path fill="#fff" d="M-12.7-1l32 1.1L12.7 191l-32-1.1z"/><path fill="#1e0500" d="M90 198l64-99-24 94z"/><ellipse cx="22" cy="113" fill="#323c39" rx="3" ry="120"/><circle r="1" fill="#e5f2f7" transform="rotate(-145.7 68.4 24.7) scale(38.57204 17.30632)"/><circle cx="68" cy="114" r="45" fill="#b7bcbb"/><circle cx="169" cy="102" r="16" fill="#e2e7ea"/><circle r="1" fill="#242e36" transform="matrix(-27.50099 -51.47348 16.86897 -9.01267 82.5 5.3)"/><path fill="#83490b" d="M176 110h80v29h-80z"/><path fill="#fff" d="M230 45l-13-17-41 44z"/><circle r="1" fill="#eef5ff" transform="matrix(9.67417 -2.82063 5.52546 18.9512 145.3 52.4)"/><path fill="#fff" d="M261.5-7l-6.3 35.4-18.7-3.3 6.3-35.5z"/><ellipse cx="213" cy="93" fill="#e4dcb2" rx="13" ry="17"/><ellipse cx="197" cy="74" rx="51" ry="2"/><circle cx="202" r="35" fill="#c9b079"/><ellipse cx="43" cy="78" fill="#fff" rx="5" ry="62"/><circle cx="190" cy="94" r="7" fill="#1e0500"/><circle r="1" fill="#e6eaff" transform="rotate(-17.4 62.9 -411) scale(11.98941 66.57167)"/><ellipse cx="53" cy="49" fill="#2c3538" rx="2" ry="129"/><circle r="1" fill="#ffffe7" transform="matrix(57.5508 -3.53868 .18017 2.93016 225.8 68.6)"/><circle r="1" fill="#ffffb6" transform="matrix(-12.2612 5.58775 -2.56513 -5.62866 19.7 189.1)"/><path fill="#616d7a" d="M126 30l-61 2 70 46z"/><circle r="1" fill="#d5c7cb" transform="matrix(-10.56788 -.9138 .31072 -3.59345 223.6 161.8)"/><circle r="1" fill="#676a6f" transform="matrix(-22.13018 13.66788 -10.02518 -16.23216 163 139)"/><path fill="#ffe79c" d="M61 163h37v29H61z"/><path fill="#dbba6f" d="M227 28h29v37h-29z"/><ellipse cx="67" cy="89" fill="#e7f2ff" rx="5" ry="56"/><ellipse cx="93" cy="139" fill="#b8a16e" rx="12" ry="27"/><ellipse cx="37" cy="45" fill="#816011" rx="2" ry="187"/><path fill="#3f2e00" d="M256 82l-20-2-6-21z"/><ellipse cx="3" cy="31" fill="#f8feff" rx="18" ry="64"/><path fill="#454e58" d="M145 80h11v40h-11z"/><path fill="#3b1000" d="M262.3 187l-27 1-1.6-45 27-1z"/><path fill="#dddac0" d="M158 80h27v30h-27z"/><path fill="#927029" d="M215.9 58l11.4 47.5-6.8 33.3 26.3-34.7z"/><ellipse cx="13" cy="142" fill="#cedae1" rx="8" ry="185"/><circle r="1" fill="#656059" transform="matrix(14.96862 -19.93633 26.138 19.62496 163.6 177.9)"/><ellipse cx="138" cy="96" fill="#fafdff" rx="6" ry="22"/><path fill="#282e34" d="M-16-16L91 36l20-35z"/><path fill="#fff" d="M239 54l1 14 11-5z"/><ellipse cx="162" cy="17" fill="#bdb8ac" rx="24" ry="55"/><ellipse cx="86" cy="103" fill="#a9893f" rx="3" ry="70"/><ellipse cy="34" fill="#feffff" rx="13" ry="118"/><path fill="#dae8f3" d="M39 112h11v63H39z"/><path fill="#fff" d="M248-.9l18 17.4-14 14.4-18-17.4z"/><ellipse cx="22" cy="89" fill="#272c2c" rx="2" ry="83"/><circle cx="216" cy="41" r="11" fill="#fff"/><path fill="#987a43" d="M63.3 166.5l-8.7 15L17.3 207H4.8z"/><path fill="#2d1a09" d="M182 145h59v8h-59z"/><ellipse cx="130" cy="191" fill="#221905" rx="9" ry="56"/><circle r="1" fill="#f5dda0" transform="rotate(141.2 29.5 91.3) scale(19.31373 11.42906)"/><path fill="#fff" d="M224 66h8v8h-8z"/><path fill="#5e3201" d="M94.2 195.1l12.7 11.9-3.8-1.3 48.5-108z"/><circle r="1" fill="#4e4d34" transform="matrix(.9719 3.41186 -16.15833 4.60282 157.4 77.6)"/><path fill="#f4faff" d="M40 27h13v59H40z"/><circle r="1" fill="#868482" transform="matrix(2.63405 -2.74838 7.73544 7.41366 212.3 160)"/><path fill="#ceb67b" d="M265.3 42.5L207-4.1l26.8 52.8 6 11.7z"/><path fill="#fff" d="M184 74l25-17-38 10z"/><path fill="#c3ccd9" d="M213 109l-38-3 27-5z"/><ellipse cx="227" cy="136" fill="#643708" rx="24" ry="12"/><path fill="#614629" d="M85 158h20v4H85z"/><path fill="#494746" d="M178 132h29v35h-29z"/><ellipse cx="71" cy="111" fill="#c1c7cf" rx="14" ry="45"/><path fill="#7a8084" d="M121 42.7l-16.4 19.4 27.5-14.9L102.9-16z"/><path fill="#fff" d="M130.5 36L90-34l3.5-2L134 34z"/><path fill="#78726a" d="M148 119h30v45h-30z"/><path fill="#492d00" d="M197 102l-7-17 7 1z"/><path fill="#ddcc79" d="M155.1 85.4l13.1-9.3 72 3.8-70.6 6.5z"/><path fill="#9faab3" d="M73 31h12v59H73z"/><path fill="#394452" d="M-3.1-16L24.7 5.9l37.6 25.8L77.6 6.1z"/><path fill="#f5f8ff" d="M132 118l-26-55 27 16z"/><path fill="#aa8f58" d="M228.2 58.3l-4.7 12.2-17.7-6.8 4.7-12.2z"/><path fill="#8d8685" d="M191.3 147.6l1.2-13.4 15.4 11.9-9.4-2.2z"/><path fill="#2d1c09" d="M213 167h43v19h-43z"/><path fill="#fae9ba" d="M43.2 162.3L37 183.7l12.7-12.3 51.9-5.7z"/><path fill="#a7afb6" d="M21.7 97.7l-1.5 43-8-.4 1.6-43z"/><path fill="#deeef8" d="M90 49h2v95h-2z"/><path fill="#fff" d="M243 59h7v10h-7z"/><ellipse cx="232" cy="87" fill="#b0963e" rx="9" ry="8"/><path fill="#211202" d="M158 119h32v2h-32z"/><path fill="#a4adc2" d="M136.1 89.4l-1.9-37.3-20.9 15.7 16.8 9.5z"/><path fill="#71572a" d="M250.4 61.5L271 28.1l-31.4 82.4 20.8 47.6z"/><ellipse cx="200" cy="75" fill="#382c02" rx="32" ry="2"/><circle r="1" fill="#d4c195" transform="matrix(-9.13723 -7.07415 17.20675 -22.2249 184.3 45.9)"/><circle r="1" fill="#e3e4eb" transform="rotate(159.4 65 30.5) scale(8.83709 44.05225)"/><path fill="#8b5b25" d="M238.2 131.3l-60.5-9.5-5.5-12.5 61.5 8.6z"/><path fill="#f7d98c" d="M-9.7 207l32-25.8 18.4.2-26.1 20z"/><path fill="#404f55" d="M95 48h1v56h-1z"/><path fill="#838375" d="M101.7 74.8l2.5 46.8-.4-10.8-3 22.8z"/><ellipse cx="98" cy="86" fill="#e0edfa" rx="3" ry="32"/><path fill="#c4cbdd" d="M180.2 94.2l-23.2 9.9-1.5 15.8 17.5-6.6z"/><path fill="#fff" d="M198.2 47.8l6.6 6.1-17 18.3-6.6-6.1z"/><ellipse cx="227" cy="132" fill="#331702" rx="42" ry="2"/></g></g></svg>