<svg xmlns="http://www.w3.org/2000/svg" viewBox="0 0 1400 1050"><defs/><filter id="prefix__a"><feGaussianBlur stdDeviation="12"/></filter><rect width="100%" height="100%" fill="#031195"/><g filter="url(#prefix__a)"><g transform="translate(2.7 2.7) scale(5.46875)"><circle cx="110" cy="88" r="191" fill="#fff" fill-opacity=".5"/><circle cx="136" cy="103" r="175" fill="#fff" fill-opacity=".5"/><circle cx="104" cy="101" r="182" fill="#fff" fill-opacity=".5"/><circle r="1" fill="#73a8dc" fill-opacity=".5" transform="matrix(70.71452 -14.00185 4.46574 22.55361 153.3 106.6)"/><circle r="1" fill="#fff" fill-opacity=".5" transform="matrix(227.93175 -105.41966 34.05286 73.62694 121 10)"/><circle r="1" fill="#2a63db" fill-opacity=".5" transform="matrix(72.11179 -50.04479 2.22748 3.20968 26 168)"/><circle cx="172" cy="98" r="38" fill="#a3c5e7" fill-opacity=".5"/><ellipse cx="106" cy="122" fill="#255bc4" fill-opacity=".5" rx="24" ry="6"/><circle cx="217" cy="112" r="35" fill="#bcdde0" fill-opacity=".5"/><circle r="1" fill="#fff" fill-opacity=".5" transform="rotate(-91.2 76 -61.4) scale(48.85939 254.99998)"/><circle r="1" fill="#abc3f4" fill-opacity=".5" transform="rotate(98.9 -4.7 141.8) scale(24.42975 17.30987)"/><path fill="#b0cfee" fill-opacity=".5" d="M97.2 101L30 129.4 135.4 142l-84.5 29.9z"/><path fill="#6792f0" fill-opacity=".5" d="M185 165l12-25 7 16z"/><circle r="1" fill="#fefffe" fill-opacity=".5" transform="matrix(-15.88094 -25.41482 19.62535 -12.26328 251.7 168.7)"/><path fill="#cfe5e5" fill-opacity=".5" d="M101 101h36v20h-36z"/><path fill="#fffffe" fill-opacity=".5" d="M102.9 135.8L85 123.2l82.7 23.3-25.5-17.7z"/><circle r="1" fill="#fefffa" fill-opacity=".5" transform="matrix(-15.81832 -42.08395 20.56 -7.728 249.3 65.4)"/><path fill="#001ad3" fill-opacity=".5" d="M151.3 85l.2-1 51.2 9-.2 1z"/><circle r="1" fill="#a8d0de" fill-opacity=".5" transform="matrix(-13.6959 -5.34736 4.66618 -11.95123 41.6 137.3)"/><path fill="#fff" fill-opacity=".5" d="M189.6 186.2l-.2 13-191-3.4.2-13z"/><path fill="#3e6dcc" fill-opacity=".5" d="M120.7 124.8l-25.4.4 70.4 7.9-4.4-8.1z"/><ellipse cy="99" fill="#fff" fill-opacity=".5" rx="23" ry="76"/><circle r="1" fill="#bedbf1" fill-opacity=".5" transform="rotate(-157.4 107.4 14.9) scale(33.12019 15.46068)"/><path fill="#315ee1" fill-opacity=".5" d="M141 182l12-20-1 12z"/><path fill="#78a6ec" fill-opacity=".5" d="M223.8 135.4l-4.7 71.6-1.8-32.1 11 2.5z"/><path fill="#3161cf" fill-opacity=".5" d="M88.2 117.9l-17.8 25.8-14.2 2.5 38.2-33.5z"/><path fill="#b6d1e8" fill-opacity=".5" d="M169 100l89 41-118-12z"/><circle r="1" fill="#90aede" fill-opacity=".5" transform="matrix(16.30256 -9.85648 2.67124 4.41822 86.8 143.6)"/><circle r="1" fill="#fffffe" fill-opacity=".5" transform="rotate(70.1 -24 43.7) scale(39.97718 113.13048)"/><path fill="#4478ec" fill-opacity=".5" d="M152 92h8v20h-8z"/><circle r="1" fill="#eefafe" fill-opacity=".5" transform="matrix(15.93136 -32.58275 14.34843 7.01567 101.2 166.8)"/><path fill="#8db2e6" fill-opacity=".5" d="M4.3 149.6l-17.9 6.4 34.3-19.6 41.8-21.1z"/><path fill="#f6fef5" fill-opacity=".5" d="M103.1 106.9l-53 25.1-66.1 28.9L75.3 111z"/><path fill="#1139a6" fill-opacity=".5" d="M106 123h19v6h-19z"/><path fill="none" stroke="#3971e3" stroke-opacity=".5" stroke-width=".5" d="M38.3 144q32.3-23.8 91.2-47"/><circle r="1" fill="#fbffff" fill-opacity=".5" transform="matrix(10.28184 -34.23379 9.11223 2.73678 178.7 166.7)"/><path fill="#feffff" fill-opacity=".5" d="M207 166l-8-29 39 6z"/><ellipse cx="104" cy="191" fill="#fffffe" fill-opacity=".5" rx="213" ry="4"/><path fill="#9abae6" fill-opacity=".5" d="M190 82l26-23-9 51z"/><path fill="#9fc3f5" fill-opacity=".5" d="M175.6 143.5L154.7 177l16.5-45.2-11.8 63.9z"/><path fill="#e1eee9" fill-opacity=".5" d="M224 102.7l-57.7 26.2-8.6 41.5 9.9-56.1z"/><path fill="#ddf1ee" fill-opacity=".5" d="M129 86l72-28-109 2z"/><circle r="1" fill="#8eb0eb" fill-opacity=".5" transform="matrix(64.1262 -54.02121 .98639 1.1709 34.5 185.4)"/><path fill="#fff" fill-opacity=".5" d="M68.2 140.2L-3.5 207l63.2-43.9.2 8.3z"/><ellipse cx="235" cy="137" fill="#86afde" fill-opacity=".5" rx="18" ry="4"/><path fill="#0030c8" fill-opacity=".5" d="M87 121h20v4H87z"/><path fill="#d6e9e3" fill-opacity=".5" d="M212 87h44v46h-44z"/><circle r="1" fill="#f5fffe" fill-opacity=".5" transform="rotate(131.5 39 114.1) scale(17.49363 5.63114)"/><path fill="#5c84e8" fill-opacity=".5" d="M46.2 150l-15.9 25.5-2.5-1.6 15.9-25.4z"/><ellipse cx="127" cy="116" fill="#70a5c5" fill-opacity=".5" rx="11" ry="4"/><path fill="#154dd7" fill-opacity=".5" d="M206 96.8l-.3 1L166 87.2l.2-1z"/><path fill="#86a2ee" fill-opacity=".5" d="M117 199.7l30.2-57.3-24.4 9.7 29.6-9.4z"/><path fill="#7ba5ef" fill-opacity=".5" d="M186 172l2 15 5-28z"/><path fill="#4e82e6" fill-opacity=".5" d="M184.8 72.4l-14.4 7.8-14.1 6.8-3-4z"/><path fill="#b6d8d8" fill-opacity=".5" d="M69 82l11-10 5 38z"/><ellipse cx="203" cy="134" fill="#7ba5de" fill-opacity=".5" rx="15" ry="3"/><circle r="1" fill="#f3f9f3" fill-opacity=".5" transform="matrix(-18.56455 7.48093 -1.3389 -3.3226 113.4 109.7)"/><path fill="#f6fff9" fill-opacity=".5" d="M145.4 135.7l81.6 4.7-103.7-11.6 5.8 26.9z"/><ellipse cx="132" cy="120" fill="#c4dcdc" fill-opacity=".5" rx="24" ry="3"/><circle cx="177" cy="95" r="4" fill="#fff" fill-opacity=".5"/><path fill="#f7fdfc" fill-opacity=".5" d="M223.4 55.7L271 29.1l-93.9 34.8 14.7 12.5z"/><path fill="#83a5f0" fill-opacity=".5" d="M123.2 160.5l9.4-16.9-2.5 4.2-8.5-6.7z"/><path fill="#779dec" fill-opacity=".5" d="M144.1 86.7l51.5 21.8L149.7 98l24.2 21.4z"/><circle r="1" fill="#fffffd" fill-opacity=".5" transform="matrix(60.173 -32.66677 16.36418 30.14322 180.3 16.5)"/><path fill="#acc7f2" fill-opacity=".5" d="M186 165.2l-3.1-.3-8 24.5 8.9-42.4z"/><path fill="#94b8f2" fill-opacity=".5" d="M200 150h4v37h-4z"/><path fill="#afcdef" fill-opacity=".5" d="M237.1 187.9l-6.7-29.7 1.8-6.2 7.5 27.5z"/><path fill="#2a5fdb" fill-opacity=".5" d="M216.8 172.4l1-.2 5.4 27.4-1 .2z"/><circle r="1" fill="#bbd0f4" fill-opacity=".5" transform="matrix(-52.59888 47.02882 -2.18265 -2.44117 49 188.3)"/><path fill="#fff" fill-opacity=".5" d="M173.6 107.7l-8.6-2.6 1.4-4.8 8.6 2.6z"/><path fill="#2350dd" fill-opacity=".5" d="M142 188.4l-.8-.5 10.8-20.3.8.5z"/><path fill="#6393dd" fill-opacity=".5" d="M196 105l-14 8-3-6z"/><ellipse cx="223" cy="165" fill="#4d7fe6" fill-opacity=".5" rx="3" ry="7"/><circle r="1" fill="#7ba7e5" fill-opacity=".5" transform="matrix(32.52859 3.42195 -.10462 .99451 174.9 129.4)"/><circle cx="194" cy="100" r="6" fill="#f4f8f0" fill-opacity=".5"/><path fill="#fff" fill-opacity=".5" d="M163 146l3-13-33 7z"/><path fill="#ebfbef" fill-opacity=".5" d="M92 127h20v6H92z"/><circle cx="97" cy="138" r="6" fill="#8096e2" fill-opacity=".5"/><ellipse cx="242" cy="147" fill="#fffffe" fill-opacity=".5" rx="14" ry="8"/><path fill="#629ae7" fill-opacity=".5" d="M153.6 78.8l.4 1-107.6 43.4-.4-1z"/><path fill="#fffffc" fill-opacity=".5" d="M138.8 142.2L98 200.4l-.8-.6 40.8-58.2z"/><path fill="#fff" fill-opacity=".5" d="M1.8 148l1.4 41.9-5 .2-1.4-42z"/><path fill="#fafff5" fill-opacity=".5" d="M103 128h15v13h-15z"/><path fill="#fffffe" fill-opacity=".5" d="M201 75h6v10h-6z"/><circle r="1" fill="#84abe2" fill-opacity=".5" transform="rotate(57.7 -135.5 92.5) scale(1 48.3624)"/><path fill="#1957db" fill-opacity=".5" d="M172.2 77.7l9-6.3.6.9-9 6.3z"/><circle cx="197" cy="149" r="3" fill="#255de7" fill-opacity=".5"/><ellipse cx="147" cy="99" fill="#6395e9" fill-opacity=".5" rx="28" ry="2"/><path fill="#b8c1ef" fill-opacity=".5" d="M140 144l-15 44-16-2z"/><path fill="#fffffb" fill-opacity=".5" d="M144 163l-11 36-19 8z"/><path fill="#adcdcb" fill-opacity=".5" d="M246 110h7v24h-7z"/><path fill="#e4f0e0" fill-opacity=".5" d="M143 110l-29 4 25-15z"/><circle r="1" fill="#fff" fill-opacity=".5" transform="rotate(94.8 22.7 151.7) scale(6.57085 6.13406)"/><path fill="#ecf3f9" fill-opacity=".5" d="M186.1 100.1L153 89.8l26.5 1 4.8 13.3z"/><path fill="#fffffc" fill-opacity=".5" d="M221 173h5v19h-5z"/><path fill="#fff" fill-opacity=".5" d="M204 140h5v52h-5z"/><path fill="#3b66dc" fill-opacity=".5" d="M35.6 159.2l30-20 24.9-16.4L19.4 177z"/><path fill="#0f4dc8" fill-opacity=".5" d="M141.4 106.2l1.4-3.8 3.8 1.4-1.4 3.8z"/><path fill="#cce2eb" fill-opacity=".5" d="M175 58l-47 12-17 25z"/><path fill="#81acd7" fill-opacity=".5" d="M221 84l1-13 10 8z"/></g></g></svg>