<svg xmlns="http://www.w3.org/2000/svg" viewBox="0 0 1400 1050"><defs/><filter id="a"><feGaussianBlur stdDeviation="12"/></filter><rect width="100%" height="100%" fill="#56522b"/><g filter="url(#a)"><g fill-opacity=".5" transform="translate(2.7 2.7) scale(5.46875)"><circle cx="40" cy="68" r="242" fill="#afb2c5"/><circle r="1" fill="#ffffe6" transform="matrix(25.14276 9.6514 -15.77507 41.09545 57.9 93.4)"/><circle r="1" transform="matrix(21.10566 -58.94906 21.31877 7.6328 67.8 178.3)"/><ellipse cx="185" cy="76" fill="#e7eae7" rx="24" ry="42"/><ellipse cx="247" cy="105" fill="#fff" rx="7" ry="44"/><circle r="1" fill="#ced9ff" transform="matrix(-16.96355 30.0639 -21.4658 -12.11208 16 188.7)"/><circle r="1" fill="#0f1d00" transform="matrix(.81114 16.58492 -16.78664 .821 179.5 169)"/><ellipse cx="126" cy="163" fill="#1f1000" rx="6" ry="191"/><ellipse cx="52" cy="75" fill="#ffffef" rx="34" ry="15"/><circle r="1" transform="matrix(-6.7884 18.51504 -23.1942 -8.50397 67.4 175.7)"/><ellipse cx="16" cy="96" fill="#556623" rx="28" ry="18"/><path fill="#fffff9" d="M46 62h27v54H46z"/><ellipse cx="58" cy="58" fill="#514e45" rx="89" ry="4"/><circle r="1" fill="#5d573e" transform="matrix(-37.67067 -146.24598 13.7001 -3.52893 147.2 102.2)"/><path fill="#1e1d21" d="M25 134l58 37-67-18z"/><path fill="#d4dcf3" d="M189.3 151.7l-8.7 2.2-11.9-47.6 8.7-2.2z"/><circle r="1" fill="#49557f" transform="rotate(57.3 -30.7 296.7) scale(42.90503 23.36375)"/><ellipse cx="78" cy="117" fill="#352813" rx="3" ry="61"/><path fill="#fff" d="M50 142h14v8H50z"/><path fill="#62550e" d="M208 33h43v29h-43z"/><ellipse cx="205" cy="89" fill="#f7fbea" rx="3" ry="72"/><path fill="#fff" d="M234 111h19v25h-19z"/><path fill="#82795f" d="M90 0h32v192H90z"/><path fill="#d8dde9" d="M24.5 120.9l-7 10.9-33.5 5 70.6 1.4z"/><ellipse cx="187" cy="60" rx="27" ry="2"/><path fill="#fff" d="M171 40h5v90h-5z"/><path fill="#e4e0c2" d="M222 86l2-22 47-7z"/><path fill="#1b150a" d="M187 32h3v114h-3z"/><path fill="#180901" d="M91.1 159.3l-1.6-74.9-1.5-3.3-11.8 103.5z"/><ellipse cx="12" cy="122" fill="#444039" rx="8" ry="44"/><ellipse cx="161" cy="32" fill="#9ea299" rx="10" ry="69"/><ellipse cx="186" cy="147" fill="#161b1c" rx="27" ry="3"/><path fill="#fff" d="M170 38h14v17h-14z"/><path fill="#726f60" d="M196.7 127l-3.4-22-62.8 102-.2-101z"/><ellipse cx="204" cy="34" fill="#211a08" rx="37" ry="3"/><path fill="#d8e399" d="M19 62h29v35H19z"/><circle r="1" fill="#9da098" transform="matrix(-59.36245 4.62557 -1.07405 -13.78383 203.2 18.5)"/><path fill="#f7ffff" d="M244 69h9v67h-9z"/><path fill="#1e151a" d="M34 130h48v3H34z"/><path fill="#ffffec" d="M9 63h6v16H9z"/><ellipse cx="57" cy="123" fill="#a4b98f" rx="22" ry="8"/><ellipse cx="129" cy="30" fill="#514226" rx="8" ry="145"/><path fill="#1f180e" d="M208 40h3v109h-3z"/><path fill="#1f222e" d="M236 134l-6-23-16 19z"/><path fill="#fffff9" d="M195 36h3v89h-3z"/><path fill="#140c0a" d="M19.2 93h-5l.6-34h5z"/><ellipse cx="164" cy="86" fill="#737774" rx="5" ry="39"/><path fill="#4f4d4f" d="M236 75h7v37h-7z"/><path fill="#edf6ff" d="M191.2 129l-5.9 17-8.5-3 5.9-17z"/><path fill="#4f5158" d="M67 138h-83l19 21z"/><path fill="#91a0c4" d="M211.7 147.2l.6 19-18 .6-.6-19z"/><path fill="#353d1d" d="M172.5 182.6l-18.9-76.2 25.2 53 1.7 25.2z"/><path fill="#b4c5de" d="M4 147h21v4H4z"/><path fill="#929187" d="M139 124h20v49h-20z"/><ellipse cx="7" cy="75" fill="#070000" rx="2" ry="19"/><ellipse cx="47" cy="52" fill="#7f8280" rx="74" ry="7"/><path fill="#9c9782" d="M100.1 137.4l-8.7 42.9-1.1-13.5.4-46z"/><path fill="#191418" d="M43 157h47v35H43z"/><ellipse cx="40" cy="66" fill="#fffff2" rx="21" ry="5"/><path fill="#f5fcc0" d="M18.6 122.1l49.2-31.7 11 36.3-4.1-11.1z"/><ellipse cx="200" cy="100" fill="#485368" rx="2" ry="42"/><path fill="#ccd2e8" d="M25 165h18v27H25z"/><path fill="#1d191a" d="M93 59.3l-46 2.4v-1l46-2.4z"/><path fill="#696a49" d="M74 94h31v12H74z"/><path fill="#fff" d="M87.5 58.3l-7.6 16.3.7 17.9 4.7-7.4z"/><path fill="#2e3917" d="M159 118l-16-7 19-15z"/><path fill="#c6cada" d="M169 135h39v10h-39z"/><path fill="#9a9351" d="M212 36h31v23h-31z"/><path fill="#908871" d="M136 35h14v73h-14z"/><path fill="#d8e3f8" d="M244 101h2v71h-2z"/><path fill="#68769d" d="M183.2 207l-2.7-28.7 31.5-4.6 34 33.3z"/><path fill="#fff" d="M169 91h3v33h-3z"/><ellipse cx="156" cy="123" fill="#4e483e" rx="35" ry="2"/><path fill="#fff" d="M54 62h22v26H54z"/><ellipse cx="183" cy="73" fill="#fffffb" rx="2" ry="38"/><circle cx="58" cy="146" r="5" fill="#fff"/><path fill="#564a43" d="M208 85h16v21h-16z"/><path fill="#86826c" d="M78.8 141.3l-1 17.4.4 3.6-11.4-21.8z"/><path fill="#fffff7" d="M171 37h16v21h-16z"/><path fill="#c6c9cc" d="M78 126.2l-18 .6v-5l18-.6z"/><ellipse cx="38" cy="151" fill="#050100" rx="13" ry="3"/><path fill="#290000" d="M90 114l-10-1v36z"/><path fill="#f4f2e5" d="M201 39h8v18h-8z"/><path fill="#9caad3" d="M177 149h31v6h-31z"/><ellipse cx="150" cy="25" fill="#f3f4e3" rx="1" ry="34"/><path fill="#3e2911" d="M87 60h3v61h-3z"/><ellipse cx="198" cy="60" fill="#2e271c" rx="34" ry="2"/><path fill="#929aae" d="M2 156h32v14H2z"/><path fill="#fff" d="M170 37h5v77h-5z"/><path fill="#768b5f" d="M63 117.5l12.5 4.3-19 4.8-19.4 1z"/><ellipse cx="40" cy="136" fill="#fff" rx="14" ry="2"/><path fill="#3d392f" d="M170 59h73v3h-73z"/><path fill="#6e6345" d="M125-16l23 53 4-53z"/><circle r="1" fill="#818892" transform="matrix(-2.33084 16.10627 -45.94353 -6.64877 45 12)"/><path fill="#5f573c" d="M76 60h4v60h-4z"/><path fill="#bdccea" d="M249 137h7v9h-7z"/><circle r="1" fill="#2e313b" transform="rotate(-158 127.8 44.2) scale(15.80638 2.61836)"/><ellipse cx="154" cy="39" fill="#dde0db" rx="1" ry="81"/><path fill="#3c480d" d="M169.2 156.1l43.9 21.2-44.8-29.3 12.3 37.8z"/><path fill="#c6c9b1" d="M249 39h5v43h-5z"/></g></g></svg>