<svg xmlns="http://www.w3.org/2000/svg" viewBox="0 0 1050 1400"><defs/><filter id="a"><feGaussianBlur stdDeviation="12"/></filter><rect width="100%" height="100%" fill="#655239"/><g filter="url(#a)"><g fill-opacity=".5" transform="translate(2.7 2.7) scale(5.46875)"><circle cx="140" cy="163" r="220" fill="#cbd6d9"/><circle cx="162" cy="238" r="42" fill="#fff"/><circle r="1" fill="#322b00" transform="matrix(-9.48443 -39.81146 26.5997 -6.33694 168.3 82.1)"/><circle r="1" fill="#3e311e" transform="matrix(20.75217 -3.09728 8.89517 59.59877 99 201.4)"/><ellipse cx="3" cy="106" fill="#1b0400" rx="12" ry="46"/><path fill="#100803" d="M12.9 183.2l19.8-2.8 8.4 60.4-19.8 2.8z"/><circle cx="10" cy="30" r="34" fill="#d5d9e0"/><path fill="#4d4233" d="M52 53h62v34H52z"/><circle r="1" fill="#c5cfdd" transform="matrix(-9.23296 41.16898 -19.50953 -4.3754 67.8 240.4)"/><path fill="#dce8fc" d="M-16 202l19 69 26-165z"/><circle cx="163" cy="248" r="43" fill="#feffff"/><circle cx="59" cy="120" r="46" fill="#a3aebb"/><ellipse cx="78" cy="172" rx="8" ry="17"/><ellipse cx="166" cy="187" fill="#4d4f4c" rx="29" ry="13"/><circle r="1" fill="#c0baab" transform="matrix(-6.5221 -19.60616 38.037 -12.65323 152.5 147.2)"/><ellipse cx="24" cy="80" fill="#cecfd1" rx="7" ry="95"/><circle r="1" fill="#162e00" transform="matrix(-6.36145 16.39373 -13.45346 -5.2205 189.9 70)"/><path fill="#4a3311" d="M109.7 199.3l-5.4 76.8-20-1.4 5.4-76.8z"/><path fill="#ccbe9f" d="M207 46l-40 13 20-75z"/><circle r="1" fill="#b2bed0" transform="matrix(-14.26574 75.49931 -7.62246 -1.44028 60.4 181)"/><path fill="#2b2b22" d="M91 149h24v18H91z"/><path fill="#d9ddde" d="M120 201h72v28h-72z"/><circle r="1" fill="#c9d5e6" transform="matrix(8.40936 67.4965 -10.44854 1.30178 7.4 247.5)"/><ellipse cx="135" cy="70" fill="#b4a689" rx="16" ry="20"/><circle r="1" fill="#2c1e04" transform="rotate(146.5 -15.7 93.3) scale(12.1286 3.11215)"/><circle r="1" fill="#4e4121" transform="matrix(11.8081 18.48949 -13.57686 8.67071 .9 78)"/><path fill="#55380f" d="M162 80h20v44h-20z"/><path fill="#2e3c0f" d="M152.8 40.8l16.8 6.5-11.2 32.3-13.2-31.8z"/><path fill="#162d00" d="M139 93l29-15-21 23z"/><path fill="#251913" d="M15.6 214l-3.2-31 10-1 3.2 30.8z"/><ellipse cx="80" cy="23" fill="#a5946f" rx="50" ry="31"/><path fill="#b2ac9d" d="M140 100h19v58h-19z"/><ellipse cy="101" fill="#abaa8d" rx="5" ry="23"/><circle r="1" fill="#b1b7bd" transform="matrix(-40.80934 34.2545 -9.37866 -11.17333 46 249.7)"/><ellipse cx="108" cy="84" fill="#514e44" rx="6" ry="27"/><path fill="#433824" d="M71 168h10v35H71z"/><circle cx="158" cy="13" r="30" fill="#b8a986"/><path fill="#271d1e" d="M17 234l1-47 15 61z"/><circle r="1" fill="#ac8261" transform="rotate(155.5 84.3 72.5) scale(18.26314 11.60328)"/><ellipse cx="114" cy="202" fill="#8e867b" rx="8" ry="29"/><path fill="#717062" d="M34 244l-15-70 27 47z"/><path fill="#c7cdd1" d="M80 204h9v21h-9z"/><circle cx="4" cy="142" r="9" fill="#392c0c"/><path fill="#b5b3a7" d="M178 124h14v60h-14z"/><path fill="#858d8e" d="M87 86h14v71H87z"/><circle r="1" fill="#877d67" transform="rotate(-125.1 93.2 70.3) scale(7.61414 30.72455)"/><ellipse cx="12" cy="161" fill="#c5c9cf" rx="21" ry="12"/><ellipse cx="10" cy="76" fill="#34240f" rx="8" ry="9"/><circle r="1" fill="#3e270b" transform="rotate(-94.7 172.9 76.5) scale(23.84785 3.77631)"/><path fill="#6e6353" d="M61 53h54v35H61z"/><path fill="#3a3931" d="M105.2 144.1l1.5-15.9 5.5 26-1.2 34z"/><circle r="1" fill="#8b8a89" transform="matrix(8.11415 .104 -.93581 73.0181 47.7 110.7)"/><circle r="1" fill="#b6b7b8" transform="matrix(3.10033 -56.66257 23.76071 1.30008 20.7 13)"/><ellipse cx="166" cy="252" fill="#f7fafe" rx="42" ry="16"/><circle r="1" fill="#2e3e00" transform="rotate(137 55.3 75.4) scale(8.66773 7.01299)"/><ellipse cx="77" cy="101" fill="#bbc6cd" rx="10" ry="12"/><ellipse cx="191" cy="62" fill="#1b2a00" rx="10" ry="11"/><ellipse cx="128" cy="156" fill="#b0aa9e" rx="16" ry="24"/><path fill="#070a0e" d="M72 159h14v20H72z"/><path fill="#505652" d="M87 96h7v12h-7z"/><ellipse cx="37" cy="71" fill="#9f9d9a" rx="7" ry="89"/><path fill="#776d56" d="M86.5 105.1l33.2 10.7 16.5-10.9-10.3 19z"/><path fill="#bbbaaa" d="M190 85h2v69h-2z"/><path fill="#bdcae2" d="M58 192l12-20-4 28z"/><path fill="#d1d3d2" d="M122 200h70v19h-70z"/><circle r="1" fill="#b1a58a" transform="matrix(4.9043 -101.22278 8.48973 .41133 123.8 27.7)"/><path fill="#c1c0bd" d="M18 77l-6 69 19-4z"/><path fill="#706d62" d="M170 169l-58 16 54 12z"/><ellipse cx="174" cy="86" fill="#243f00" rx="8" ry="10"/><ellipse cx="7" cy="122" fill="#4a3713" rx="5" ry="28"/><path fill="#b4bbc4" d="M9 246h76v10H9z"/><path fill="#797553" d="M146.9 87.6l30.4-33-6.9 8.8 15.8 15.8z"/><path fill="#374215" d="M152.8 49.5l18.6 35.3-19.5-46.3-11.4 20z"/><path fill="#a6a18a" d="M166.6 56.4L207 15.8l-37.1 49.5 37.1 49.3z"/><path fill="#594927" d="M28.1 246.9l12.3-27.8-6.7-3.1 14.3 4z"/><path fill="#9fa3a8" d="M54.4 167.4l10 81.4-14.8 1.8-10-81.4z"/><path fill="#9d937b" d="M141 78l16-16-39-10z"/><ellipse cx="177" cy="126" fill="#ceccbf" rx="60" ry="3"/><path fill="#634b2e" d="M189.2 122.9l-21-32.5 32.5-14.6-49.4 48z"/><path fill="#b1a997" d="M133.7 120l18.1-2.5 5.9-21.9-23.1 13.7z"/><path fill="#6e6f69" d="M106 91h9v63h-9z"/><path fill="#9ba1a3" d="M74 118h29v33H74z"/><circle cx="84" cy="176" r="7" fill="#352d24"/><path fill="#b6ad9a" d="M161.7 46.2l-9.9-10 8.5-8.4 9.9 10z"/><path fill="#403b30" d="M111 71L99 58v28z"/><path fill="#1d2e00" d="M188 78l-16-14 6-8z"/><path fill="#726a54" d="M25.2 189.9l-11.8-10.2L33 169.3l8.1 9.3z"/><path fill="#210f00" d="M182.2 133.5l2.7-5.4.9.4-2.7 5.4z"/><path fill="#968f78" d="M135 53h16v34h-16z"/><path fill="#150c06" d="M91 154h5v15h-5z"/><path fill="#7e7161" d="M116 194h5v62h-5z"/><path fill="#6a6454" d="M146 167h10v33h-10z"/><circle cx="100" cy="108" r="3" fill="#232a25"/><circle cy="68" r="8" fill="#2d1c02"/><path fill="#766c5c" d="M59.9 76.6L42.1 52l67.8 3.1-20.5 28.2z"/><path fill="#b2a995" d="M207 31.4l-49.6-13.9 18.3 40.1 4.5.7z"/><path fill="#949da0" d="M112.1 140.5l-8-50.7-23.5 19.4 20.2-8z"/><path fill="#b3bdcc" d="M73.4 155.4l-8.9 50.2-5.9-1 8.9-50.2z"/><path fill="#2c3503" d="M164 61.3L148.5 77l33.4-.4-12 17.4z"/><path fill="#cdd9e2" d="M70 106h3v51h-3z"/></g></g></svg>