<svg xmlns="http://www.w3.org/2000/svg" viewBox="0 0 933 1400"><defs/><filter id="a"><feGaussianBlur stdDeviation="12"/></filter><rect width="100%" height="100%" fill="#514a35"/><g filter="url(#a)"><g fill-opacity=".5" transform="translate(2.7 2.7) scale(5.46875)"><circle r="1" fill="#fff" transform="matrix(-44.59834 -20.51294 70.61954 -153.53788 28.9 47.1)"/><circle cx="16" cy="21" r="67" fill="#f5ffff"/><ellipse cx="137" cy="144" fill="#bec3d0" rx="15" ry="94"/><ellipse cy="145" fill="#fff" rx="18" ry="80"/><path fill="#cddded" d="M60 65h59v22H60z"/><ellipse cx="56" cy="155" fill="#2e3836" rx="38" ry="69"/><circle cx="114" cy="25" r="31" fill="#8d955b"/><circle r="1" fill="#687185" transform="rotate(12.5 -1142 286.8) scale(61.1749 42.07944)"/><circle r="1" fill="#b0c7c6" transform="matrix(7.9891 6.36674 -14.83166 18.61102 169 47.4)"/><circle cx="42" cy="15" r="43" fill="#c8e3ff"/><ellipse cx="47" cy="156" fill="#cfc8b4" rx="4" ry="63"/><ellipse cx="3" cy="114" fill="#fff" rx="9" ry="79"/><circle r="1" fill="#0a1000" transform="matrix(9.14018 -26.72247 8.5676 2.93047 117 91.5)"/><ellipse cx="169" cy="223" fill="#001014" rx="18" ry="80"/><circle r="1" fill="#333422" transform="matrix(-10.22782 33.6179 -13.93191 -4.2386 25.7 165.1)"/><circle r="1" fill="#d1d4d1" transform="matrix(12.23422 .17342 -.3131 22.0881 23.7 114.8)"/><circle r="1" fill="#242631" transform="rotate(165.9 36 116.2) scale(42.02371 16.11673)"/><path d="M11 88h111v5H11zm140.4-32.9l-13.8-8 29-50.2 13.8 8z"/><circle r="1" fill="#858786" transform="matrix(9.85847 -5.9455 17.59005 29.16674 62.8 83.7)"/><ellipse cx="102" cy="9" fill="#bfc2d3" rx="5" ry="38"/><ellipse cx="96" cy="137" fill="#bbc4c6" rx="2" ry="52"/><circle r="1" fill="#6a7d83" transform="matrix(-.8574 24.94222 -13.77168 -.4734 117.1 180.8)"/><ellipse cx="134" cy="126" fill="#b9c1cb" rx="6" ry="78"/><circle r="1" fill="#fff" transform="matrix(2.15668 8.48106 -19.20156 4.88283 18.7 76.7)"/><path fill="#cdd5df" d="M126 48l-18 10 11 6z"/><ellipse cx="72" cy="138" fill="#c0beb4" rx="2" ry="89"/><ellipse cx="58" cy="164" fill="#0c0f0d" rx="9" ry="44"/><circle r="1" fill="#515914" transform="rotate(16 22.3 441.3) scale(13.16488 51.84374)"/><path fill="#ddefff" d="M58 28h21v36H58z"/><path d="M77 40h13v7H77z"/><path fill="#14180e" d="M20 137h23v72H20z"/><path fill="#8d8878" d="M13.5 170.3L34 183.1l-15.4 24.6L-2 194.9z"/><path fill="#666163" d="M124 190h35v51h-35z"/><path fill="#cecfc6" d="M13 118h107v3H13z"/><path fill="#9e9f9f" d="M150.7 23.6l15-33.4L127.8 37l15-4.5z"/><path fill="#fff" d="M0 96h15v55H0z"/><ellipse cx="44" cy="64" fill="#11181d" rx="58" ry="1"/><path fill="#5e6359" d="M144 66h17v134h-17z"/><path fill="#aeb5c2" d="M39 67h64v20H39z"/><path fill="#03080c" d="M50 201h42v17H50z"/><path fill="#655c42" d="M44 125l-30-1 56-31z"/><path fill="#807a60" d="M61 178h11v22H61z"/><path fill="#060906" d="M50 122h21v20H50z"/><path fill="#405400" d="M167 44h3v125h-3z"/><path fill="#fff" d="M-5 204l-11-82 39 5z"/><path fill="#221505" d="M33.4 92.3l-17-3.6 62.2-1.5 5.7 5.7z"/><path fill="#aca997" d="M22 213h24v8H22z"/><circle r="1" fill="#0d150e" transform="matrix(-8.81432 3.05223 -5.02456 -14.51006 84.2 151.2)"/><path fill="#b7c2dc" d="M166.6 58.9L163 39.4l-8.3 13.2 6.4 12.2z"/><ellipse cx="2" cy="59" fill="#bfbf8e" rx="30" ry="8"/><path fill="#515a67" d="M139.4 250l-8.5 27.8-58.3-17.9 8.5-27.7z"/><circle r="1" fill="#e0eaf9" transform="matrix(-35.97993 9.01912 -3.44328 -13.73628 35.9 39.6)"/><path fill="#8a6a67" d="M78 45h17v19H78z"/><path fill="#161c10" d="M98.5 231.3l.2-46.7 19.5 41.4 2.4 16.7z"/><ellipse cx="17" cy="165" fill="#d6c8a5" rx="2" ry="29"/><path fill="#8f8f85" d="M138.3 69.9l11.4 47.3 1.1 66.9-15.9 8.8z"/><path fill="#7191c4" d="M157 123h9v12h-9z"/><ellipse cx="41" fill="#bed1fa" rx="44" ry="37"/><path fill="#fff" d="M0 67h35v20H0z"/><path fill="#b0b9c6" d="M6 167h5v54H6z"/><circle r="1" fill="#5e5f57" transform="matrix(-1.7551 26.9201 -4.81337 -.31382 123.8 112)"/><path fill="#a596a9" d="M129 214h6v26h-6z"/><ellipse cx="55" cy="223" fill="#5a616f" rx="40" ry="5"/><path fill="#1d1d12" d="M19 183h24v29H19z"/><path fill="#625c45" d="M35.9 186.9l-24.5-11.7-.6 45.6 19-25.2z"/><path fill="#b3b296" d="M117 34h5v35h-5z"/><path fill="#1b211d" d="M152 174h18v82h-18z"/><path fill="#444817" d="M162.3 81l11 11.7-17.6 16.3-11-11.7z"/><path fill="#787673" d="M0 234h38v22H0z"/><path fill="#bab8a4" d="M149 124h2v105h-2z"/><path fill="#070c0c" d="M35 127h8v78h-8z"/><ellipse cx="129" cy="3" fill="#616217" rx="21" ry="23"/><ellipse cx="80" cy="231" fill="#131203" rx="40" ry="3"/><ellipse cx="119" cy="149" fill="#7e807d" rx="2" ry="54"/><path fill="#14170d" d="M117 142L96 87l22 10z"/><circle cx="98" cy="14" r="13" fill="#a3958b"/><path fill="#cec9b5" d="M48.3 151.6l-4-.2 1.4-25 4 .2z"/><path fill="#131614" d="M50 142l12 23-12 42z"/><path fill="#2c3f34" d="M117 245l47 11-7-29z"/><ellipse cx="127" cy="145" fill="#292721" rx="1" ry="89"/><path fill="#0a0d00" d="M115 75h7v22h-7z"/><path fill="#a19f62" d="M26.7 50l-5.8 17.2L30 60l3.7 12.2z"/><path fill="#323a10" d="M102.7 32.7l7.3-8-.8 27.6L124 23.7z"/><ellipse cx="1" cy="100" fill="#fff" rx="11" ry="34"/><path fill="#d6d9d7" d="M17 120l11-6 16 6z"/><path fill="#6d7821" d="M117 64l20-20-25 44z"/><path fill="#bcc0c2" d="M129 70h7v99h-7z"/><path fill="#6f7f84" d="M104 161h14v26h-14z"/><path fill="#414a4f" d="M151 103h9v117h-9z"/><path fill="#a0a19a" d="M129 92.8l-5.1 19.7 7-3.9 32.2-29.4z"/><path fill="#5a4b42" d="M108 10L77 43l6 18z"/><circle r="1" fill="#acb2b0" transform="matrix(3.3895 -.16962 .20344 4.06546 104.3 41.6)"/><path fill="#fdfcee" d="M38.5 42.6L17.2 62.1-16 13v38.2z"/><path fill="#0f100a" d="M135.9 49.7l15-26 11.2 6.6-15 26z"/><path fill="#bec0ba" d="M62 93h21v3H62z"/><path fill="#d6e5f7" d="M75 15l4 47-42-15z"/><path fill="#94918a" d="M153 9l-18 40 2-26z"/><path fill="#0a0e08" d="M161 143h4v106h-4z"/><path fill="#6d7a12" d="M185 166l-21 21 4 14z"/></g></g></svg>