<svg xmlns="http://www.w3.org/2000/svg" viewBox="0 0 1400 1050"><defs/><filter id="a"><feGaussianBlur stdDeviation="12"/></filter><rect width="100%" height="100%" fill="#261f11"/><g filter="url(#a)"><g fill-opacity=".5" transform="translate(2.7 2.7) scale(5.46875)"><circle cx="243" cy="155" r="106" fill="#f4f7e5"/><path fill="#fff" d="M231.7 156.3l-11.2 52.8-82.2-17.4 11.2-52.8z"/><circle r="1" transform="matrix(-49.91809 -150.35945 12.74073 -4.22981 247.4 182.2)"/><circle r="1" fill="#fff" transform="matrix(14.91683 6.95583 -13.9246 29.86138 92.6 180.2)"/><circle r="1" fill="#ffffb3" transform="rotate(-73.7 106.5 -20.6) scale(45.24101 13.2194)"/><circle r="1" transform="matrix(-6.28531 15.02553 -64.69165 -27.0611 237.6 60)"/><circle r="1" transform="rotate(-160.5 116.7 51) scale(87.41948 14.23872)"/><circle r="1" fill="#fff" transform="matrix(24.99963 -20.6081 43.92059 53.27994 190.7 190.9)"/><ellipse cx="186" cy="92" fill="#fff" rx="23" ry="22"/><circle r="1" fill="#fff" transform="matrix(-11.69748 -1.9542 5.02945 -30.10544 98.3 184.8)"/><path fill="#f9e05f" d="M50 124h10v44H50z"/><path fill="#e6be1e" d="M163.6 35.3L140.4 64l-14-11.3L149.6 24z"/><circle r="1" fill="#ffff93" transform="matrix(-16.17831 -33.31792 10.90313 -5.29427 249.6 114.3)"/><ellipse cx="125" cy="168" rx="16" ry="177"/><ellipse cx="192" cy="191" fill="#fff" rx="39" ry="44"/><ellipse cx="97" cy="86" fill="#f0dd80" rx="16" ry="25"/><circle r="1" transform="matrix(9.55319 -3.3412 34.56381 98.82533 239 149.7)"/><circle r="1" fill="#0e0c00" transform="matrix(26.64233 10.6101 -5.94199 14.92054 153.5 118.2)"/><path fill="#fffecf" d="M211.1 122.9l-14.3-70.4-33.9 32.4-13.8 16.5z"/><path fill="#c8b54f" d="M68.5 97.4l-4.8 36.4-18.6 53.5 12.8-79.5z"/><ellipse cx="15" cy="150" rx="30" ry="65"/><path fill="#000403" d="M74.6 207l4.7-30.3 40.5-41L27 190.8z"/><circle r="1" fill="#0b0900" transform="rotate(125.5 99.5 79) scale(14.95957 97.24418)"/><circle r="1" fill="#060400" transform="matrix(-68.3572 -34.08164 4.11793 -8.25929 202.4 132.7)"/><circle r="1" transform="matrix(-18.79487 -7.31611 42.0519 -108.02999 93.1 5)"/><path fill="#dccd7e" d="M110 31l2 66-39 49z"/><path fill="#fff" d="M140 132l85 25-78 50zm-57 36h26v18H83z"/><path fill="#b0921f" d="M132 22h9v48h-9z"/><path fill="#020606" d="M104 111l39 96-1-53z"/><circle cx="206" r="30"/><path d="M142 112L206 0l-69 67z"/><path fill="#fff" d="M110.4 146.8l-30.8 31 29.6 9.7-3.4 19.5z"/><path fill="#e7e2c3" d="M218.5 111.7l-31-50.1-36.1 35.9 57 24.9z"/><circle r="1" fill="#8d7d36" transform="matrix(-6.86172 -3.10425 12.57707 -27.80074 93.7 70.4)"/><path fill="#3a3a2d" d="M167.1 140l-31-16.1 5.8-15.9 114.4 56.6z"/><path fill="#fff" d="M237 199.8l-17 5.9-15-43.5 17-5.9z"/><path fill="#644d06" d="M130 17h38v17h-38z"/><ellipse cx="243" cy="154" fill="#0a0d06" rx="20" ry="17"/><circle cx="28" cy="120" r="27" fill="#000101"/><path fill="#000302" d="M84.7 172.5l-26.8-3.2 3.4-27.8 26.8 3.2z"/><path fill="#fff" d="M142 140h29v33h-29z"/><path fill="#758183" d="M103 184.9l-4.7 17.4L79 197l4.7-17.4z"/><circle cx="10" cy="21" r="88" fill="#0f1004"/><circle r="1" fill="#948b59" transform="rotate(-109.2 130.1 -31) scale(25.35466 6.1187)"/><ellipse cx="255" cy="36" fill="#38361b" rx="43" ry="19"/><circle r="1" fill="#100c00" transform="rotate(-67 192.3 -85.5) scale(6.17368 54.03962)"/><path fill="#0c1213" d="M226 164l43 10-29 33z"/><path fill="#a78c22" d="M147.5 56.4L132 74.8l2.6-37.2 21.8 3.5z"/><ellipse cx="186" cy="177" fill="#fff" rx="43" ry="28"/><path fill="#a3903e" d="M57.3 109.6l8 13.6-10.9 47.7-12.2 12.8z"/><path fill="#000305" d="M112.5 78l28 2-3 42-28-2z"/><path fill="#b3a343" d="M246.4 91.8l-27.7-18 5-7.6 27.6 18z"/><circle r="1" transform="matrix(-11.25247 -10.69848 49.70585 -52.27975 118.6 0)"/><circle r="1" fill="#0c0a00" transform="matrix(71.30983 32.15105 -3.39517 7.53035 240.6 63.3)"/><path fill="#fff" d="M111.1 141.1l-.6 5.5-18.7 22.7 16.4 27.2z"/><path fill="#eae29a" d="M235.3 102.6l18.3-5 9.1 33.8-18.3 5z"/><path fill="#f6f4e1" d="M216.8 125.2l-40.9-48.3-20.8 17.2-5.8 5.6z"/><circle r="1" fill="#181403" transform="matrix(-19.49398 -67.59488 8.1802 -2.35912 215.2 84.5)"/><path fill="#fff" d="M145 133l28.3 9.7-4.2 12.3-28.4-9.7z"/><circle r="1" fill="#000001" transform="rotate(-65.6 142.3 71.4) scale(142.67278 13.1617)"/><path fill="#010403" d="M91.5 123.5L25.3 207l18.4-4.1L170.2 46.3z"/><path fill="#030405" d="M112 53h17v139h-17z"/><path fill="#2a240f" d="M10 54h32v47H10z"/><path fill="#000302" d="M146 62.5l24.6-34 23.5 17-24.7 34z"/><circle r="1" fill="#c3b55b" transform="rotate(7.4 -960.2 537) scale(2.19298 27.69294)"/><path fill="#c2b570" d="M82.4 134.3l-9.2-.2 41.5-111.7-7.9 82.8z"/><path fill="#dbd8b2" d="M211.9 96l-48.8-9.8 28.6-29.3 13.3 36z"/><ellipse cx="127" cy="184" fill="#0d0f0b" rx="16" ry="51"/><path fill="#2e3227" d="M92.5 165.2L56.9 193l33.2-52.2 22.5 2.4z"/><path fill="#d1ca82" d="M222 73l49 22-29 32z"/><circle r="1" fill="#000001" transform="matrix(9.33011 47.5257 -5.9023 1.15872 117.9 28.9)"/><path fill="#c4be91" d="M207 100l12 25-13-5z"/><path fill="#fff" d="M231.5 188.3L147 207l-7.5-77.7 68.2 25.6z"/><circle r="1" fill="#000200" transform="matrix(-8.23087 41.56893 -3.67251 -.72718 67.3 130.7)"/><path fill="#473607" d="M174.8 23.7l-18.6 16.9 4.1-34 35.8-15z"/><ellipse cx="115" cy="178" fill="#080807" rx="6" ry="105"/><path fill="#26210e" d="M57.8-16.3L89.5-1.5 66.2 48.3 34.5 33.5z"/><circle r="1" fill="#020405" transform="rotate(133.9 104.5 49) scale(68.12286 19.50839)"/><circle r="1" fill="#635834" transform="matrix(6.38174 19.79263 -3.32024 1.07055 214.5 104.7)"/><path fill="#090a04" d="M257 197l-29-65 43 13z"/><path fill="#5c4d1a" d="M75.9 141.7l-2-.3L86 54.3l2 .3z"/><path fill="#857430" d="M70.7 91.8l-18.8 28.6 1 22.2 14.3-38.7z"/><path fill="#d4c98a" d="M76 142l36-45-1-35z"/><ellipse cx="152" cy="29" fill="#70590f" rx="16" ry="5"/><path fill="#13140c" d="M118.9 109.1l44.8 12.4L142.3 97l-2.9 66.4z"/><path fill="#72642d" d="M112.8 24.2l.3 16.7-33.8 43.6 21.8-42z"/><path fill="#4a4115" d="M129 20h4v54h-4z"/><path fill="#0e0d01" d="M248.8 147.4L205.6 34.9l.4 30.5 27.7 71.3z"/><path fill="#7a6928" d="M219.9 61.2l37 21.1-.5 8.5-39.9-24.9z"/><path fill="#434132" d="M173 140l35-2-73-26z"/><path fill="#625019" d="M56.2 120.8l-12.3 33.5-2.5 29.6 10.1-25.8z"/><path fill="#000102" d="M70 102l22-54-26-4z"/><path fill="#6b6442" d="M225 140.9l-17-53.7-9.9-36.1-3.7 1.4z"/><path fill="#0f1109" d="M169 78l-49 51 20-64z"/><path fill="#fff" d="M212 224.2l-20.3-58.6 28.4-9.8 20.2 58.6zM110 183l-28-5 22-25z"/><path fill="#f6f7e7" d="M178.8 104.7l-30.4-3.9 24.5-21.2 4.4 4.7z"/><path fill="#b1a964" d="M221 69l44 50 3-25z"/><path fill="#181a17" d="M135 184h9v8h-9z"/></g></g></svg>