<svg xmlns="http://www.w3.org/2000/svg" viewBox="0 0 933 1400"><defs/><filter id="a"><feGaussianBlur stdDeviation="12"/></filter><rect width="100%" height="100%" fill="#4a493a"/><g filter="url(#a)"><g fill-opacity=".5" transform="translate(2.7 2.7) scale(5.46875)"><circle r="1" fill="#fff" transform="rotate(-17.7 331.9 -331.2) scale(50.67748 75.17928)"/><path fill="#fff" d="M121 21h45v49h-45z"/><ellipse cx="143" cy="120" fill="#fff" rx="22" ry="41"/><path d="M0 70h170v14H0z"/><ellipse cx="14" cy="124" fill="#fff" rx="9" ry="30"/><ellipse cx="114" cy="142" rx="5" ry="251"/><path d="M116 26L-16 4l201-20z"/><circle cx="86" cy="43" r="25" fill="#fffffe"/><circle r="1" fill="#cad2d2" transform="matrix(5.67887 -36.26453 19.36519 3.0325 81.8 120)"/><ellipse cx="8" cy="26" rx="31" ry="66"/><path fill="#0f1c18" d="M94 111h25v85H94z"/><ellipse cx="86" cy="244" fill="#9e9e9c" rx="24" ry="38"/><ellipse cx="141" cy="110" fill="#fff" rx="22" ry="28"/><path fill="#aaa6a4" d="M157.5 227.5v29h-39v-29z"/><ellipse cx="168" cy="132" rx="6" ry="255"/><path fill="#e2f8ff" d="M8 103h16v51H8z"/><ellipse cx="52" cy="173" fill="#ced5e6" rx="4" ry="78"/><path fill="#fff" d="M119 24h42v40h-42z"/><ellipse cx="3" cy="119" rx="5" ry="238"/><path fill="#fff" d="M131 84h31v75h-31zm-50 0h28v30H81z"/><circle r="1" fill="#132011" transform="rotate(-109.9 125 44.9) scale(24.26438 31.45345)"/><ellipse cx="104" cy="77" rx="169" ry="7"/><circle r="1" transform="matrix(1.31661 -62.22363 3.93538 .08327 59.1 160.8)"/><circle r="1" transform="matrix(161.18754 -7.59258 .51166 10.86226 75.4 9.3)"/><path fill="#00070d" d="M11 153h22v103H11z"/><path fill="#fff" d="M93.7 71.2L83 33.7l17.3-5L111 66.4z"/><path fill="#a6a370" d="M9.3 70.4L5.7 43l17.8 24.3-15 6.3z"/><circle cx="126" cy="90" r="8" fill="#fff"/><circle r="1" fill="#9b9438" transform="matrix(9.25921 -2.88085 6.04347 19.42404 45 45)"/><path d="M112 12h6v81h-6z"/><path fill="#fefff2" d="M97 21h14v42H97z"/><ellipse cx="77" cy="100" fill="#231a1a" rx="2" ry="22"/><circle r="1" fill="#6d787b" transform="matrix(-4.77347 -26.26669 9.40586 -1.70933 91.9 143.9)"/><path fill="#09180d" d="M66 162l38 27-22 23z"/><path d="M56 0h7v199h-7z"/><circle r="1" transform="matrix(-3.78928 .01168 -.25101 -81.4068 115.2 105.6)"/><path fill="#fff" d="M127 83h35v71h-35z"/><ellipse cx="59" cy="235" rx="4" ry="107"/><path fill="#fff" d="M119 35h42v35h-42z"/><path fill="#0d0f00" d="M6 5l37 101 14-29z"/><ellipse cx="146" cy="163" fill="#788d46" rx="15" ry="9"/><path fill="#fff" d="M80 84h18v32H80z"/><ellipse cx="34" cy="163" fill="#a9adad" rx="2" ry="81"/><ellipse cy="132" rx="7" ry="255"/><path fill="#0a0f0f" d="M163 69h7v64h-7z"/><ellipse cx="92" cy="76" fill="#020500" rx="157" ry="6"/><path fill="#adb2b5" d="M47.8 125.4L13.6 82.5l12.9 1.4-3.2 4.4z"/><path fill="#b4af76" d="M63 17h11v48H63z"/><circle cx="96" cy="217" r="14" fill="#858681"/><path fill="#a2a693" d="M63 87l21 31-20 67z"/><path fill="#fefff2" d="M78 36h30v34H78z"/><path fill="#717867" d="M128 198h34v17h-34z"/><path d="M24.8 107L10.2 91.9l5-4.9 14.6 15.1z"/><path fill="#070a0f" d="M25 67h8v86h-8z"/><path fill="#bdbfac" d="M122 18h39v9h-39z"/><path fill="#a1ac94" d="M95 99h16v17H95z"/><ellipse cx="9" cy="147" fill="#8b8c8a" rx="2" ry="112"/><path fill="#948f4a" d="M44 26h12v46H44z"/><path fill="#687670" d="M117.8 140.1l1.1-40.9 2.1 12 7.2 10.6z"/><circle r="1" fill="#fff" transform="matrix(3.49176 7.0341 -9.18132 4.55765 101.9 91.3)"/><ellipse cx="160" cy="244" fill="#a49f9d" rx="3" ry="16"/><ellipse cx="144" cy="225" fill="#273910" rx="19" ry="6"/><path fill="#fcffff" d="M10 131.5h14v19H10z"/><path fill="#fff" d="M119 86h41v25h-41z"/><path fill="#050603" d="M1 71h53v13H1z"/><ellipse cx="47" cy="191" fill="#676a72" rx="3" ry="94"/><path fill="#bcbec2" d="M50 128h5v85h-5z"/><path fill="#0c140e" d="M114 183l7-37 29 56z"/><path fill="#5b5942" d="M76.5 23.9l-8.2-7 40.1-1.6-18.8 9.6z"/><path fill="#1b2432" d="M35 121h9v130h-9z"/><path fill="#646f5c" d="M93 234l-30-1v-49z"/><path fill="#161e1c" d="M66 152h6v41h-6z"/><ellipse cx="95" cy="160" fill="#515b54" rx="11" ry="25"/><circle r="1" transform="rotate(103 73.6 61.9) scale(10.24349 51.2593)"/><path fill="#162113" d="M182 192l-39-7 42-44z"/><path d="M56 7h7v78h-7z"/><path fill="#bcd0f6" d="M17.7 100L5.5 87.5l12.6 50.2 4.4-14.3z"/><ellipse cx="47" cy="255" fill="#b7bbc9" rx="8" ry="3"/><ellipse cx="82" cy="118" fill="#7c8687" rx="19" ry="4"/><ellipse cx="144" cy="82" fill="#2b2c33" rx="65" ry="2"/><circle r="1" fill="#9c9f9d" transform="matrix(-1.7239 -20.42596 9.53686 -.80489 74.4 138.6)"/><path d="M112 94h6v162h-6zM57 196h6v60h-6z"/><circle cx="144" cy="154" r="6" fill="#9ca67a"/><circle r="1" fill="#050500" transform="matrix(1.35847 -33.42452 10.27975 .4178 21.2 18.5)"/><ellipse cx="70" cy="4" rx="168" ry="5"/><path fill="#53565a" d="M162 102h6v48h-6z"/><path fill="#cbc9ae" d="M160 24h4v46h-4z"/><path fill="#999750" d="M64 84h6v50h-6z"/><path fill="#36251e" d="M77.2 94.7l1-.2 2.6 16.8-1 .2z"/><circle r="1" fill="#c3c3b9" transform="matrix(-.8179 .57537 -13.72386 -19.50866 30.9 103)"/><path fill="#feffff" d="M161.6 130.3l-2.2-46.5-33.8 36.8v31.1z"/><path fill="#84817e" d="M92 209h18v38H92z"/><path fill="#f9fbf4" d="M151 130h12v27h-12z"/><path fill="#7d7d5d" d="M-3 67.2l19.1-3.5-4.4-3.6 18 12.4z"/><path fill="#9d9f8e" d="M11 157l-5-7 13 2z"/><path fill="#4c4b1c" d="M46.5 70.7l-6.8-46.1-9.6-10.2 5.9 56z"/><path fill="#7c8280" d="M97.8 145.5l-3.3 12.8-26.1-4.9L80.1 143z"/><circle r="1" fill="#ebecd3" transform="matrix(-.12841 3.12876 -24.94836 -1.02394 87 67)"/></g></g></svg>