<svg xmlns="http://www.w3.org/2000/svg" viewBox="0 0 1050 1400"><defs/><filter id="a"><feGaussianBlur stdDeviation="12"/></filter><rect width="100%" height="100%" fill="#544339"/><g filter="url(#a)"><g transform="translate(2.7 2.7) scale(5.46875)"><circle cx="132" cy="166" r="173" fill="#e1e3c6" fill-opacity=".5"/><circle r="1" fill-opacity=".5" transform="matrix(0 19.67437 -36.75624 0 74 27.6)"/><circle r="1" fill="#2b3238" fill-opacity=".5" transform="matrix(48.37146 35.93086 -16.6902 22.46897 76.4 215.7)"/><path fill="#e7e0c7" fill-opacity=".5" d="M122 194L-16 60l154-26z"/><path fill="#fff" fill-opacity=".5" d="M104 211l9-105 17 82z"/><circle cx="14" cy="11" r="38" fill="#828f88" fill-opacity=".5"/><circle cx="54" cy="175" r="49" fill="#5d6c7b" fill-opacity=".5"/><circle r="1" fill="#eeecd7" fill-opacity=".5" transform="matrix(-43.97121 -15.50732 7.23577 -20.51712 2.5 103.2)"/><circle r="1" fill="#1d190b" fill-opacity=".5" transform="rotate(-104.1 142 72.4) scale(41.14477 13.23753)"/><path fill="#fff" fill-opacity=".5" d="M105-1l27 1-24 24z"/><path fill-opacity=".5" d="M49 28h73v12H49z"/><circle cx="38" cy="235" r="60" fill="#6f7476" fill-opacity=".5"/><circle cx="177" cy="60" r="62" fill="#c9ac78" fill-opacity=".5"/><circle r="1" fill="#9e855b" fill-opacity=".5" transform="rotate(-16.5 837.6 -486.4) scale(45.14551 92.36918)"/><path fill="#272a2f" fill-opacity=".5" d="M81.9 184.9l-15.1-56.4 20.5-4.9-40.7 7.7z"/><path fill="#cfbb95" fill-opacity=".5" d="M88.5 227.8l-9.5 45-21.5-4.6 9.5-45z"/><path fill="#fff" fill-opacity=".5" d="M122.5 148.2l-1 59.2-19.7-38.6-12.7-32z"/><path fill="#181512" fill-opacity=".5" d="M105 17l-13-1.1L95-17l13 1.1z"/><ellipse cx="23" cy="150" fill="#8c9ba7" fill-opacity=".5" rx="36" ry="24"/><path fill="#fff" fill-opacity=".5" d="M116 199l6-69-25 22z"/><circle r="1" fill="#b8a88a" fill-opacity=".5" transform="matrix(23.37248 -10.2571 27.37875 62.38698 133 103)"/><path fill="#0d0100" fill-opacity=".5" d="M76 42l-27 5 1-41z"/><path fill="#00080a" fill-opacity=".5" d="M110.6 129.7l-4.4 15.4-2.8-.8 4.4-15.4z"/><path fill="#0c0600" fill-opacity=".5" d="M90.4 28.1l29.8-3.1 1.4 12.9L91.8 41z"/><ellipse cx="14" cy="36" fill="#6c6e65" fill-opacity=".5" rx="36" ry="17"/><circle r="1" fill="#201d17" fill-opacity=".5" transform="rotate(-18.6 496.4 -208.8) scale(1 37.54361)"/><ellipse cx="83" cy="9" fill="#f4f9fe" fill-opacity=".5" rx="2" ry="22"/><path fill="#fff" fill-opacity=".5" d="M106-16l22 32-22 12z"/><path fill="#af9f80" fill-opacity=".5" d="M105 198h32v24h-32z"/><ellipse cx="141" cy="5" fill="#b69f75" fill-opacity=".5" rx="20" ry="69"/><circle cx="37" cy="240" r="31" fill="#676e71" fill-opacity=".5"/><circle cx="185" cy="233" r="39" fill="#8a7757" fill-opacity=".5"/><path fill="#fff" fill-opacity=".5" d="M83 119h2v52h-2z"/><path fill="#22201a" fill-opacity=".5" d="M96 213.7l3.5-46.9 5.7 9-1.3 66.3z"/><path fill="#6f6d64" fill-opacity=".5" d="M62 10h11v24H62z"/><ellipse cx="91" fill="#fff" fill-opacity=".5" rx="1" ry="28"/><path fill="#878b84" fill-opacity=".5" d="M31 31l-7-20 46-22z"/><circle r="1" fill="#151814" fill-opacity=".5" transform="matrix(-15.13633 23.91054 -5.6867 -3.5999 106.1 248)"/><circle r="1" fill="#e4e2d5" fill-opacity=".5" transform="rotate(-1.2 6025.6 -3847.2) scale(1 44.35271)"/><path fill="#3c3f40" fill-opacity=".5" d="M101.5 208.8l-9.8 4.9-41.2-84.5 9.8-4.9z"/><ellipse cx="102" cy="134" fill="#7c837e" fill-opacity=".5" rx="5" ry="13"/><path fill="#bdc1c0" fill-opacity=".5" d="M97 0h5v27h-5z"/><path fill="#24201a" fill-opacity=".5" d="M84 0h6v25h-6z"/><path fill="#393529" fill-opacity=".5" d="M68 0h13v22H68z"/><path fill="#3f413c" fill-opacity=".5" d="M94.7 147.7l3.3 15.1-17.9-47 8.8 16.2z"/><ellipse cx="131" cy="165" fill="#afa082" fill-opacity=".5" rx="9" ry="251"/><circle r="1" fill="#0e0500" fill-opacity=".5" transform="rotate(96.3 19.1 37) scale(20.89239 4.64063)"/><ellipse cx="72" cy="106" fill="#c6bda4" fill-opacity=".5" rx="70" ry="22"/><circle r="1" fill="#80888c" fill-opacity=".5" transform="rotate(74.4 -109.3 95.6) scale(28.89917 56.40891)"/><circle r="1" fill="#cecab3" fill-opacity=".5" transform="matrix(3.96598 -32.9906 40.93965 4.92158 0 95.3)"/><circle r="1" fill="#231d0b" fill-opacity=".5" transform="matrix(1.04307 4.80816 -29.3413 6.36521 96.5 32.8)"/><path fill="#fff" fill-opacity=".5" d="M110 129h13v74h-13z"/><path fill="#95938c" fill-opacity=".5" d="M47 38l-15-1 16-25z"/><ellipse cx="86" cy="155" fill="#0b0907" fill-opacity=".5" rx="1" ry="23"/><ellipse cx="82" cy="154" fill="#232328" fill-opacity=".5" rx="1" ry="28"/><circle r="1" fill="#56564d" fill-opacity=".5" transform="matrix(25.92064 9.8523 -4.06905 10.70535 70.2 211.5)"/><path fill="#8b9190" fill-opacity=".5" d="M63.8 43.7l4.3-19.9-.7-20.3-3.3.6z"/><path fill="#e8ebea" fill-opacity=".5" d="M69.6 129l8.6 21.3-1.8.7-8.6-21.3z"/><path fill="#f9ffff" fill-opacity=".5" d="M91 134l9 23-3-32z"/><ellipse cx="88" cy="14" fill="#c1c5c6" fill-opacity=".5" rx="1" ry="15"/><path fill="#9ca3a4" fill-opacity=".5" d="M30.4 133.9l19.5-7.9 9.7 24.1-19.5 7.9z"/><path fill="#c0b496" fill-opacity=".5" d="M70 45h53v83H70z"/><circle cx="5" cy="26" r="29" fill="#6c6c61" fill-opacity=".5"/><path fill="#241d0a" fill-opacity=".5" d="M125.3 35.1L106 40.7l-51.4 6.4-5.5-15z"/><path fill="#fff" fill-opacity=".5" d="M87 138h2v42h-2z"/><ellipse cx="72" cy="141" fill="#0c0e10" fill-opacity=".5" rx="1" ry="15"/><path fill="#1e1e18" fill-opacity=".5" d="M108 224h14v32h-14z"/><path fill="#9a8a6c" fill-opacity=".5" d="M146.3 256.6l60.7-93.7-34.2 23.9-67.2 16z"/><circle r="1" fill="#ac9771" fill-opacity=".5" transform="rotate(-39.8 266.2 -176.2) scale(18.25183 29.62315)"/><circle r="1" fill="#808b93" fill-opacity=".5" transform="rotate(177.7 -1.6 103.3) scale(17.13133 67.31402)"/><ellipse cx="74" cy="141" fill="#fff" fill-opacity=".5" rx="2" ry="11"/><path fill="#3a3221" fill-opacity=".5" d="M78.7 262.1l8.4-6.5 1.7-31.1 15.3-12.4z"/><ellipse cx="77" cy="16" fill="#9ea096" fill-opacity=".5" rx="2" ry="17"/><ellipse cx="170" cy="11" fill="#b7a27b" fill-opacity=".5" rx="48" ry="87"/><path fill="#1c1100" fill-opacity=".5" d="M51 9h12v38H51z"/><ellipse cx="42" cy="73" fill="#c5bb9e" fill-opacity=".5" rx="61" ry="23"/><path fill="#ecf9ff" fill-opacity=".5" d="M126 23l-20-39v35z"/><path fill="#6d7171" fill-opacity=".5" d="M103 194.5l-19.8-22.4L37 271 18.3 159.3z"/><path fill="#11141a" fill-opacity=".5" d="M77 133h1v49h-1z"/><path fill="#fff" fill-opacity=".5" d="M79 130h2v28h-2z"/><path fill="#81867e" fill-opacity=".5" d="M61 126h62v2H61z"/><path fill="#b8b9b2" fill-opacity=".5" d="M91 159h5v27h-5z"/><path fill="#d1cebd" fill-opacity=".5" d="M61 126.5L8.2 102.2.8 51.9-11.8 128z"/><path fill="#ddc89d" fill-opacity=".5" d="M93.4 281l-1.8-54h1l1.8 54z"/><path fill="#3b3326" fill-opacity=".5" d="M98.1-4.4l6.7 29.2 2.5-40.8-8.4 36.6z"/><path fill="#c1b79f" fill-opacity=".5" d="M75 271h2.6l9.6-33.6-14.4 3.9z"/><ellipse cx="72" cy="28" fill="#2a2113" fill-opacity=".5" rx="5" ry="15"/><path fill="#fff" fill-opacity=".5" d="M98 146l16 3-7 33z"/><path fill="none" stroke="#fff" stroke-opacity=".5" stroke-width=".5" d="M92.2 26q2.7-37.2-17-42"/><path fill="#d6e0ea" fill-opacity=".5" d="M70 2h1v25h-1z"/><path fill="#e7eceb" fill-opacity=".5" d="M97.7 15h-1l1.6-30h1z"/><path fill="#a4967a" fill-opacity=".5" d="M123 145h22v111h-22z"/><path fill="#b1a385" fill-opacity=".5" d="M107.3 212.5l31.9-11.2-29.1-2.8-5.1-4.3z"/><path fill="#fff" fill-opacity=".5" d="M110.8 129l12-1 .4 5-12 1z"/><path fill="#b9ab8e" fill-opacity=".5" d="M113 39h30v87h-30z"/><path fill="#e7eff9" fill-opacity=".5" d="M106 0h17v24h-17z"/><path fill="#b29c6f" fill-opacity=".5" d="M122 27v-43l85 20z"/><path fill="#36332a" fill-opacity=".5" d="M98 168h4v86h-4z"/><path fill="#2b2419" fill-opacity=".5" d="M93 7h5v23h-5z"/><ellipse cx="111" cy="32" fill="#211d10" fill-opacity=".5" rx="12" ry="7"/></g></g></svg>