<svg xmlns="http://www.w3.org/2000/svg" viewBox="0 0 1301 1400"><defs/><filter id="a"><feGaussianBlur stdDeviation="12"/></filter><rect width="100%" height="100%" fill="#3c2c24"/><g filter="url(#a)"><g fill-opacity=".5" transform="translate(2.7 2.7) scale(5.46875)"><circle cx="153" cy="128" r="206" fill="#fff"/><circle cx="155" cy="87" r="228" fill="#fff"/><ellipse cx="104" cy="109" fill="#fff" rx="160" ry="255"/><circle cx="115" cy="76" r="206" fill="#fff"/><path fill="#fff" d="M142.5 129.3l-135 2.4-2-117 135-2.4z"/><path fill="#ae6b60" d="M158.3 150l.4 24h-9l-.4-24z"/><path fill="#c3948c" d="M167.3 89.3l.4 21-19 .4-.4-21z"/><ellipse cx="178" cy="49" fill="#a7685f" rx="32" ry="3"/><ellipse cx="165" cy="179" fill="#c8a7a0" rx="3" ry="41"/><ellipse cx="200" cy="146" fill="#fff" rx="32" ry="95"/><path fill="#96584e" d="M165.3 94.5h-1l2.4-33h1z"/><ellipse cx="193" cy="30" fill="#fff" rx="43" ry="18"/><path fill="#eef17f" d="M67 161h17v15H67z"/><ellipse cx="31" cy="148" fill="#fff" rx="27" ry="136"/><ellipse cx="96" cy="233" fill="#fff" rx="50" ry="16"/><path fill="#fff" d="M216 143l-59-45 77-54z"/><path fill="#e5ea70" d="M98.7 174.5h4l.6 33h-4z"/><ellipse cx="70" cy="255" fill="#afb0b0" rx="176" ry="1"/><path fill="#9c9d9d" d="M237 5h1v246h-1z"/><path fill="#e1e494" d="M131 171h6v38h-6z"/><path fill="#fdfdfe" d="M145 174l1-190-66 190z"/><ellipse cy="145" fill="#9a9b9b" rx="1" ry="141"/><path fill="#fff" d="M152 177h13v40h-13z"/><ellipse cx="55" cy="56" fill="#d9d9d9" rx="3" ry="51"/><ellipse cx="151" cy="147" fill="#c2aea2" rx="2" ry="69"/><path fill="#ededed" d="M63 90h64v45H63z"/><path fill="#c3a29c" d="M167 47l1 35-6-19z"/><path fill="#c4baa8" d="M69 208h79v2H69z"/><path fill="#d5d5d5" d="M95.9 82.6l-1.8-49 6-.2 1.8 49z"/><ellipse cx="150" cy="120" fill="#b7b0aa" rx="1" ry="98"/><path fill="#bf8f88" d="M170.6 169.7l-.7-.6-10.6 5.8-8.3-9.6z"/><circle r="1" fill="#d9d9d9" transform="matrix(26.05724 23.46204 -1.50746 1.6742 37.2 133.1)"/><path fill="#fff" d="M211.4 110.4l-28.6 66.4-26.9-14.2 50.1-29.1z"/><path fill="#ab7e77" d="M165 181h3v34h-3z"/><path fill="#fff" d="M170 52h36v51h-36z"/><ellipse cx="157" cy="154" fill="#bc857d" rx="8" ry="3"/><path fill="#fff" d="M152 116h12v36h-12z"/><path fill="#c5bfbd" d="M162 119h21v4h-21z"/><ellipse cx="146" cy="132" fill="#c2c3c3" rx="1" ry="121"/><circle r="1" fill="#e0e0e0" transform="matrix(-30.6422 -29.63388 1.80869 -1.87023 206.1 204.4)"/><path fill="#fff" d="M101.4 9l62.7 71.4 1.3-24.8-63.6 35.9zm117.4 214.4l-51.9-39.9 65.7 78.1-.5-110.9z"/><path fill="#e1e2e0" d="M209 41l17 53-15-1z"/><path fill="#fff" d="M88 143l3-73 19 76z"/><path fill="#e7e8ea" d="M65 172h23v46H65z"/><path fill="#d3d3d3" d="M201.4 144.4l-19.2-19.8 3-1.3 40 37.2z"/><path fill="#d6d6d5" d="M79 90h67v5H79z"/><path fill="#fff" d="M160 106l29-12-31 1z"/><ellipse cx="138" cy="219" fill="#c5c5c5" rx="51" ry="1"/><path fill="#d7d8d8" d="M20 175.8L58 210l-2 2.3L18 178z"/><path fill="#ebebeb" d="M20.6 209.8l36.8 30.9-18 21.5-36.8-30.9z"/><circle r="1" fill="#fff" transform="matrix(-4.34322 -14.20602 33.28529 -10.17633 184.9 31.2)"/><ellipse cx="234" cy="154" fill="#c6c7c7" rx="1" ry="140"/><ellipse cx="152" cy="2" fill="#fff" rx="214" ry="3"/><ellipse cx="165" cy="128" fill="#ab9c99" rx="1" ry="23"/><ellipse cx="142" cy="190" fill="#fff" rx="8" ry="16"/><ellipse cx="13" cy="12" fill="#b4b5b5" rx="133" ry="1"/><ellipse cx="4" cy="136" fill="#c8c9c9" rx="1" ry="125"/><ellipse cx="82" cy="5" fill="#c9caca" rx="154" ry="1"/><circle r="1" fill="#fff" transform="matrix(15.31713 -1.53335 3.04955 30.46286 74.7 58.4)"/><circle r="1" fill="#c28580" transform="matrix(.08975 -8.73263 3.38011 .03474 154 101.9)"/><path fill="#d6d7d7" d="M84 91h4v78h-4z"/><path fill="#fff" d="M46 164h17v61H46z"/><ellipse cx="166" cy="67" fill="#b7908a" rx="2" ry="21"/><path fill="#fff" d="M165 247l-98 1-35-40z"/><ellipse cx="166" cy="145" fill="#b69089" rx="2" ry="10"/><path fill="#dedcdc" d="M154.5 157h-73v-6h73z"/><ellipse cx="123" cy="162" fill="#b4aead" rx="34" ry="1"/><path fill="#c1c1c1" d="M11 120h2v53h-2z"/><ellipse cx="57" cy="49" fill="#b6b6b6" rx="1" ry="41"/><path fill="#fff" d="M168 218l-17 2 2-46z"/><ellipse cx="188" cy="14" fill="#cdcdcd" rx="42" ry="1"/><path fill="#fff" d="M5 13h45v104H5z"/><path fill="#eaebeb" d="M128.3 215l55.1-.9 20.4 22.5 49.2 24.5z"/><path fill="#b0a18a" d="M86 208h60v1H86z"/><path fill="#dedede" d="M58.6 216.9l-33-38.2 42.5 37.2L99 220z"/><path fill="#e2e2e2" d="M54.9 89.5l1.9 2.3-43.7 36.7-1.9-2.3z"/><path fill="#d6d6d6" d="M210 151h25v6h-25z"/><path fill="#d1d1d2" d="M211 90h23v5h-23z"/><ellipse cx="92" cy="99" fill="#fff" rx="48" ry="5"/><path fill="#fff" d="M151 52h14v35h-14z"/><path fill="#c4948e" d="M151 91h7v20h-7z"/><path fill="#fff" d="M95.5 203h-9v-26h9z"/><path fill="#ffff81" d="M84 171l-18-3 11-7z"/><path fill="#fff" d="M214 17h19v42h-19zM9 108l46 45-36 27z"/><path fill="#ffff6d" d="M132 178h2v29h-2z"/><path fill="#fff" d="M197 160l-38 7-1-11zM88 96h19v54H88z"/><path fill="#fff" d="M233.3 217L200 195.4 149.8 110l82.9 64.2z"/><path fill="#b7837b" d="M157 107h10v4h-10z"/><path fill="#e9e9e8" d="M104.7 104.7l22-.4.6 35-22 .4z"/><path fill="#d3d3d3" d="M14 121l14-3-26-2z"/><ellipse cx="12" cy="180" fill="#b3b3b3" rx="16" ry="1"/><path fill="#e0e2b4" d="M97 178h7v30h-7z"/><path fill="#fff" d="M152 122h13v29h-13zm-126-3l39 31-5-58z"/><path fill="#fcffff" d="M147 84h3v81h-3z"/><path fill="#fff" d="M59 13h35v76H59zm109 118h9v83h-9z"/></g></g></svg>