<svg xmlns="http://www.w3.org/2000/svg" viewBox="0 0 1400 1050"><defs/><filter id="a"><feGaussianBlur stdDeviation="12"/></filter><rect width="100%" height="100%" fill="#56522b"/><g filter="url(#a)"><g fill-opacity=".5" transform="translate(2.7 2.7) scale(5.46875)"><ellipse cx="98" cy="90" fill="#afb2c5" rx="180" ry="188"/><circle r="1" fill="#fffffa" transform="rotate(40.7 -92.3 121.8) scale(27.78444 31.95407)"/><circle r="1" transform="matrix(18.2166 -43.33556 18.68526 7.85456 67.9 169.1)"/><ellipse cx="187" cy="84" fill="#dcdfdd" rx="21" ry="62"/><circle r="1" fill="#f9ffff" transform="matrix(14.61161 .99434 -3.03646 44.6199 255 101.4)"/><circle r="1" fill="#5a553e" transform="rotate(154.9 59.8 109.3) scale(35.14144 155.05166)"/><circle cx="24" cy="176" r="19" fill="#d8e4ff"/><path d="M43 151l3 56 53-23z"/><ellipse cx="129" cy="84" fill="#3c2b0f" rx="8" ry="191"/><circle r="1" fill="#ffffec" transform="matrix(26.72903 4.95393 -2.50882 13.53636 46.4 75.5)"/><path fill="#242100" d="M5 83h15v50H5z"/><circle r="1" fill="#e0edc1" transform="rotate(74.3 -56.6 91.3) scale(17.30556 30.05223)"/><path fill="#140200" d="M78 95h12v97H78z"/><path fill="#525b7e" d="M271 149.6L193.1 112l-17.8 8.9 70.9 86.1z"/><path fill="#1b2a05" d="M164 157h34v23h-34z"/><path fill="#262528" d="M22 138h28v21H22z"/><path fill="#fff" d="M50 62h26v46H50z"/><path fill="#372f10" d="M191.5 28.8L157 37.4l37.5-1 58.2.5z"/><path fill="#87a42f" d="M21 78h22v30H21z"/><path fill="#fff" d="M40 141l26 3-9 6z"/><path fill="#fdffff" d="M236 110h17v26h-17z"/><path fill="#f8fbf9" d="M171.9 166.4l7.7-128.5-9.5-2.7-1.1 16.4z"/><ellipse cx="200" cy="61" fill="#363123" rx="33" ry="3"/><path fill="#e5e3ca" d="M219 62h33v20h-33z"/><path fill="#6c621f" d="M207.8 33.1l74-1.2.4 29-74 1.2z"/><circle r="1" fill="#8b8a82" transform="matrix(-16.56735 -.85366 2.16677 -42.0513 146.4 165.3)"/><path fill="#fffffc" d="M80 63h6v49h-6z"/><path fill="#665234" d="M96.4 140.4L76.2 68.3 85 49.2l-13.4 52.1z"/><ellipse cx="193" cy="11" fill="#9fa29b" rx="47" ry="22"/><path fill="#fff" d="M204 42h4v45h-4z"/><ellipse cx="188" cy="129" fill="#323129" rx="2" ry="111"/><path fill="#fdffff" d="M175.4 140.8l-5.5 4 17.2-.9-5.4-19.4z"/><path fill="#242838" d="M208 130l24-19 1 26z"/><ellipse cx="106" cy="97" fill="#888069" rx="16" ry="191"/><circle r="1" fill="#9eaabe" transform="matrix(.51684 37.01354 -3.69665 .05162 204 157.8)"/><circle r="1" fill="#adb4cf" transform="matrix(20.90508 13.6799 -19.2906 29.47913 13.6 188.5)"/><path fill="#0b1125" d="M235 98h9v13h-9z"/><circle cx="205" cy="191" r="22" fill="#697799"/><path fill="#fff" d="M171 40h17v19h-17z"/><path fill="#2e3416" d="M160 129.2l21.5 77.8-1.2-50.6 7.2 10.8z"/><path fill="#f4f8d9" d="M202 62h6v76h-6z"/><path fill="#51565d" d="M254 30h2v162h-2z"/><path fill="#4d4f56" d="M-1.3 160.6L-16 136l48 4 33.2 1.9z"/><path fill="#251f15" d="M208 30h3v120h-3z"/><path fill="#fcffdf" d="M20 62h56v19H20z"/><path fill="#a1a59e" d="M154 2h15v92h-15z"/><ellipse cx="248" cy="95" fill="#f9ffff" rx="5" ry="33"/><path fill="#3f403e" d="M48.6 62.5l-5.8-.3-24.1-4.9 68.4 1.8z"/><path fill="#434c5b" d="M199 65h3v70h-3z"/><path fill="#ecf0f3" d="M46.8 147.7l-8.2.8 23.3 2.4 3-11.1z"/><path fill="#fff" d="M195 63h3v64h-3z"/><path fill="#5f5b4c" d="M166.4 137.6l-40.5-27.1 79.7 19.8-16.5-13.4z"/><path fill="#5a5130" d="M76 61h4v64h-4z"/><path fill="#ffffda" d="M47 77h28v40H47z"/><ellipse cx="61" cy="131" fill="#221722" rx="28" ry="2"/><path fill="#1d1918" d="M16 61h4v52h-4z"/><path fill="#9eb0db" d="M191 147l22 11-40-6z"/><path fill="#fffffd" d="M182 44h3v59h-3z"/><path fill="#081c00" d="M156 96l6 5-4 20z"/><path fill="#b2b49e" d="M250 34h6v30h-6z"/><circle r="1" fill="#2a2520" transform="matrix(-.0737 -25.28275 2.2846 -.00666 6.8 78)"/><ellipse cx="214" cy="60" fill="#2b2722" rx="52" ry="2"/><ellipse cx="45" cy="135" fill="#fff" rx="13" ry="3"/><path fill="#1a170d" d="M171 145h44v3h-44z"/><path fill="#eef6ff" d="M234 110h5v20h-5z"/><path fill="#200100" d="M91.2 101.8l-17.6 42.5-3.7-14.3 19.3-1.8z"/><path fill="#151014" d="M44 158h46v24H44z"/><ellipse cx="224" cy="34" fill="#1e1815" rx="63" ry="2"/><ellipse cx="123" cy="185" rx="2" ry="37"/><path fill="#cfd4ea" d="M33 163h10v29H33z"/><ellipse cx="12" cy="74" fill="#ffffbe" rx="3" ry="11"/><path fill="#b1b5ca" d="M0 132h25v6H0z"/><ellipse cx="141" cy="86" fill="#7a7157" rx="12" ry="51"/><path fill="#fff" d="M170 64h6v47h-6z"/><path fill="#d5e4f9" d="M244 136h2v33h-2z"/><ellipse cx="88" cy="80" fill="#39351c" rx="2" ry="22"/><path fill="#302b24" d="M0 59h89v3H0z"/><path fill="#fffef1" d="M80.3 114.1l3.6-7.1 1.8.9-3.6 7.1z"/><ellipse cx="36" cy="151" fill="#050300" rx="14" ry="3"/><path fill="#fff" d="M70 123h9v4h-9z"/><path fill="#545147" d="M82.6 168.3l-32.1-37.9 18.3.6 9.2 15.2z"/><path fill="#fff" d="M201.3 52.1l4.6-13.2 2.8 1-4.6 13.2z"/><path fill="#fdffff" d="M55 61h21v33H55z"/><path fill="#cace8b" d="M33.4 88.7l25.2 9.7-11.4-22.8-29-9.6z"/><path fill="#c2c2c4" d="M159.5 109.7l37.8 35.5 8.9-2.4-41.4-23.2z"/><path fill="#322b18" d="M124 41l11-57h-16z"/><ellipse cx="97" cy="153" fill="#7b7664" rx="8" ry="191"/><path fill="#77786a" d="M8 111h8v53H8z"/><circle r="1" fill="#fff" transform="matrix(1.44386 4.90405 -3.52033 1.03646 83.3 67)"/><path fill="#626a81" d="M211 134h31v58h-31z"/><circle r="1" fill="#858a8e" transform="matrix(24.17775 -10.46265 25.15695 58.13428 56.7 0)"/><ellipse cx="151" cy="76" fill="#2d271f" rx="2" ry="20"/><path fill="#889963" d="M38 127.3l59.9-6.1-18.1 2.3-30.8-10z"/><path fill="#69794d" d="M4.5 79.2l13.9.9.3 41.5 21.6-16.1z"/><path fill="#6c7172" d="M-9 13l66 17-73 40z"/><path fill="#5d504d" d="M210 85h16v22h-16z"/><path fill="#a4a392" d="M150.1.7l25.3 15.4-8.3 23.7-19 23.3z"/><path fill="#767858" d="M73 102.1l1-11 31 2.8-1 11z"/><path fill="#fff" d="M80 63h7v31h-7z"/><path fill="#706445" d="M149 40l1-48-24 2z"/></g></g></svg>