<svg xmlns="http://www.w3.org/2000/svg" viewBox="0 0 1050 1400"><defs/><filter id="prefix__a"><feGaussianBlur stdDeviation="12"/></filter><rect width="100%" height="100%" fill="#4f3f30"/><g filter="url(#prefix__a)"><g transform="translate(2.7 2.7) scale(5.46875)"><circle cx="78" cy="148" r="187" fill="#b7bfbe" fill-opacity=".5"/><ellipse cx="127" cy="214" fill="#020000" fill-opacity=".5" rx="43" ry="109"/><circle cx="44" cy="142" r="47" fill="#eaf0f3" fill-opacity=".5"/><ellipse cx="8" cy="28" fill="#c1c6ca" fill-opacity=".5" rx="73" ry="91"/><ellipse cx="68" cy="237" fill="#4e3e20" fill-opacity=".5" rx="31" ry="64"/><circle r="1" fill="#bec3c8" fill-opacity=".5" transform="rotate(174.3 86.2 46.7) scale(30.43093 129.55517)"/><ellipse cx="117" cy="96" fill="#fff" fill-opacity=".5" rx="22" ry="12"/><path fill="#1f0c00" fill-opacity=".5" d="M83 34h45v38H83z"/><path fill="#fff" fill-opacity=".5" d="M48 126h43v48H48z"/><circle cx="142" cy="241" r="44" fill="#251500" fill-opacity=".5"/><path fill="#150000" fill-opacity=".5" d="M82 118l2-71 28 113z"/><circle r="1" fill="#9a9ea0" fill-opacity=".5" transform="matrix(-29.7686 -4.98155 16.09951 -96.20688 16 173.5)"/><path fill="#231a0a" fill-opacity=".5" d="M42.3 259.2l5.8-41.6 37.6 5.2-5.8 41.6z"/><circle r="1" fill="#817e79" fill-opacity=".5" transform="rotate(-68.7 105.8 12.6) scale(17.61345 29.84548)"/><ellipse cx="120" cy="141" fill="#372709" fill-opacity=".5" rx="31" ry="36"/><path fill="#fff" fill-opacity=".5" d="M95 86h32v21H95z"/><path fill="#85775f" fill-opacity=".5" d="M33 172l62 4 5 85z"/><path fill="#fff" fill-opacity=".5" d="M89.5 170.5h-43v-43h43z"/><circle r="1" fill="#352912" fill-opacity=".5" transform="matrix(-19.33313 6.0983 -26.61729 -84.38347 156.1 210.4)"/><ellipse cx="117" cy="9" fill="#aba397" fill-opacity=".5" rx="31" ry="24"/><path fill="#aaadaf" fill-opacity=".5" d="M50 108l33-5-2-64z"/><path fill="#1c0200" fill-opacity=".5" d="M82 0h6v112h-6z"/><path fill="#2a200e" fill-opacity=".5" d="M94 107h50v14H94z"/><ellipse cx="113" cy="224" fill="#3b2f19" fill-opacity=".5" rx="16" ry="118"/><path fill="#a1a4a3" fill-opacity=".5" d="M-16 217l5.7-222.7 39.4 114.1 17.2 112.4z"/><path fill="#918f8c" fill-opacity=".5" d="M129 0h29v107h-29z"/><path fill="#070000" fill-opacity=".5" d="M85 50h6v64h-6z"/><path fill="#b6bbbc" fill-opacity=".5" d="M203 221l-29-20 23 65z"/><circle r="1" fill="#b6b6b3" fill-opacity=".5" transform="rotate(170.6 24 5.6) scale(31.96186 44.00771)"/><path fill="#b19570" fill-opacity=".5" d="M99 222l-9 43-21 1z"/><ellipse cx="130" cy="226" fill="#5b4f39" fill-opacity=".5" rx="37" ry="6"/><path fill="#919290" fill-opacity=".5" d="M181.7 163.1l-16.9 6.2-20.5-56.4 16.9-6.2z"/><path fill="#89867d" fill-opacity=".5" d="M45 97h39v29H45z"/><ellipse cx="191" cy="65" fill="#b4b5b4" fill-opacity=".5" rx="18" ry="111"/><circle r="1" fill="#271e0b" fill-opacity=".5" transform="matrix(-4.15213 21.90915 -23.09608 -4.37707 167.5 255)"/><ellipse cx="117" cy="159" fill="#433725" fill-opacity=".5" rx="28" ry="53"/><path fill="#372d1e" fill-opacity=".5" d="M46 219h40v26H46z"/><circle r="1" fill="#bec3c4" fill-opacity=".5" transform="matrix(.16632 30.8016 -8.4896 .04584 38 154.1)"/><path fill="#696b66" fill-opacity=".5" d="M33.6 220.3L-.2 261.6l46.3 9.4 5.7-100.6z"/><path fill="#b8a633" fill-opacity=".5" d="M116 63h14v8h-14z"/><path fill="#825c33" fill-opacity=".5" d="M90 66h5v163h-5z"/><path fill="#9c9c9c" fill-opacity=".5" d="M8 56h75v63H8z"/><path fill="#331600" fill-opacity=".5" d="M80-16l9 9-7 26z"/><path fill="#a59d8e" fill-opacity=".5" d="M87 1h21v33H87z"/><path fill="#7c7666" fill-opacity=".5" d="M46 174h44v27H46z"/><path fill="#675b47" fill-opacity=".5" d="M128 33h3v74h-3z"/><path fill="#feffff" fill-opacity=".5" d="M51 174l37-50-2 49z"/><path fill="#f6f8fc" fill-opacity=".5" d="M90.5 125.5l-57 1.9 15-1.1 39.3 36.4z"/><path fill="#fbfffc" fill-opacity=".5" d="M131.5 100.5l-34.9-9.2-1.9 11.9.4 3.1z"/><path fill="#999895" fill-opacity=".5" d="M126 83l30 35 7-114z"/><ellipse cx="65" cy="122" fill="#817155" fill-opacity=".5" rx="23" ry="4"/><path fill="#787060" fill-opacity=".5" d="M119 53l-25-5v25z"/><ellipse cx="105" cy="163" fill="#302617" fill-opacity=".5" rx="9" ry="57"/><path fill="#5d4f39" fill-opacity=".5" d="M139.3 205.6l36-16.9-16.6 4.5H90z"/><ellipse cx="46" cy="146" fill="#473719" fill-opacity=".5" rx="1" ry="29"/><path fill="#aca48a" fill-opacity=".5" d="M49 173h42v2H49z"/><path fill="#1d0900" fill-opacity=".5" d="M83 47h7v67h-7z"/><circle r="1" fill="#2d2310" fill-opacity=".5" transform="rotate(-18.2 673.3 -405.6) scale(6.01539 53.77311)"/><path fill="#7e7052" fill-opacity=".5" d="M90 87h29v1H90z"/><path fill="#534630" fill-opacity=".5" d="M115 223h52v14h-52z"/><path fill="#6c6450" fill-opacity=".5" d="M44 197h52v23H44z"/><circle r="1" fill="#a5a8a7" fill-opacity=".5" transform="matrix(8.23478 -20.58841 42.69132 17.07531 0 170.9)"/><path fill="#a0a198" fill-opacity=".5" d="M87.4 119.1L71.1 95l13.4 27.1 5.9 8.3z"/><path fill="#241d11" fill-opacity=".5" d="M98 183h57v10H98z"/><ellipse cx="84" fill="#432b05" fill-opacity=".5" rx="3" ry="75"/><path fill="#f9fcfe" fill-opacity=".5" d="M49 127h40v46H49z"/><path fill="#b1b2af" fill-opacity=".5" d="M65 18h16v53H65z"/><ellipse cx="120" cy="150" fill="#423a2b" fill-opacity=".5" rx="15" ry="40"/><circle r="1" fill="#785d3e" fill-opacity=".5" transform="matrix(.11986 -68.6733 1 .00175 95.4 167.5)"/><path fill="none" stroke="#5c5646" stroke-opacity=".5" stroke-width=".5" d="M51.1 253.3q-6.7-49.7-5.2-117.9"/><path fill-opacity=".5" d="M104 63h4v8h-4z"/><ellipse cx="72" cy="117" fill="#d8dddc" fill-opacity=".5" rx="14" ry="1"/><path fill="#260e00" fill-opacity=".5" d="M85.3 81.5l-1.5-12 9-1 1.4 12z"/><path fill="#231c0a" fill-opacity=".5" d="M98 204h8v52h-8z"/><path fill="#f9fefd" fill-opacity=".5" d="M96 96h33v10H96z"/><path fill="#8e8e8a" fill-opacity=".5" d="M188.3 216.6l-7.6 3.5-32.9-95.2.9-38.7z"/><path fill="#c3c9c9" fill-opacity=".5" d="M37 120h8v61h-8z"/><circle r="1" fill="#a8a8a6" fill-opacity=".5" transform="matrix(-51.79034 -45.89787 8.07868 -9.11584 31.2 28.6)"/><ellipse cx="140" cy="119" fill="#2e2514" fill-opacity=".5" rx="4" ry="16"/><path fill="#78674e" fill-opacity=".5" d="M96 193h66v2H96z"/><circle r="1" fill="#868785" fill-opacity=".5" transform="rotate(122.5 -49.9 121.7) scale(33.49953 9.50144)"/><path fill="#251c05" fill-opacity=".5" d="M120.7 244.9l37.8-4.6 2.8 22.8-37.8 4.6z"/><path fill="#856e4e" fill-opacity=".5" d="M97.8 252.8L83 186.4l11 22.7 2.7-50.9z"/><path fill="#47443a" fill-opacity=".5" d="M53.1 229.3L48 213.6l-2.1 1-5.4 46.1z"/><ellipse cx="123" cy="169" fill="#79654b" fill-opacity=".5" rx="28" ry="1"/><path fill="#41392a" fill-opacity=".5" d="M66.7 239.2l3.9-21.7 18.7 3.3-3.9 21.7z"/><path fill="#2b2515" fill-opacity=".5" d="M98 205h62v17H98z"/><path fill="#211c19" fill-opacity=".5" d="M116 55h13v5h-13z"/><circle r="1" fill="#949594" fill-opacity=".5" transform="matrix(-30.9362 -16.78488 7.3145 -13.48136 47.2 92)"/><path fill="#3d311d" fill-opacity=".5" d="M149 173l16 8-7-28z"/><path fill="#716955" fill-opacity=".5" d="M43.4 205.6l3.3-30.9 15.9 1.7-3.3 30.9z"/><ellipse cx="105" cy="87" fill="#cdc8b4" fill-opacity=".5" rx="10" ry="3"/><path fill="#554f40" fill-opacity=".5" d="M37 250h41v6H37z"/><circle cx="109" cy="117" r="12" fill="#3b3323" fill-opacity=".5"/><path fill="#51452e" fill-opacity=".5" d="M88 33h41v15H88z"/><path fill="#685945" fill-opacity=".5" d="M159 150.5v1l-40-2v-1z"/><path fill="#94938f" fill-opacity=".5" d="M135 0h16v105h-16z"/><path fill="#61503b" fill-opacity=".5" d="M190.9 271l-15.5-55.3 18.8 43.7 12.8-13.2z"/><circle r="1" fill="#a0a2a1" fill-opacity=".5" transform="matrix(15.48271 -78.74882 19.52604 3.839 0 172)"/><path fill="#0c1310" fill-opacity=".5" d="M111 63l-8 4 13 2z"/></g></g></svg>