<svg xmlns="http://www.w3.org/2000/svg" viewBox="0 0 1400 1050"><defs/><filter id="a"><feGaussianBlur stdDeviation="12"/></filter><rect width="100%" height="100%" fill="#5d4e3a"/><g filter="url(#a)"><g fill-opacity=".5" transform="translate(2.7 2.7) scale(5.46875)"><circle cx="110" r="180" fill="#e4e5d8"/><circle r="1" fill="#11181e" transform="matrix(-51.65918 10.96631 -2.9312 -13.80802 129.4 179)"/><circle r="1" fill="#d2c5b2" transform="rotate(75.3 13.8 153.5) scale(30.4544 103.95136)"/><path fill="#b1b1b7" d="M268 180.4l-51-29.5 25-43.3 51 29.5z"/><circle r="1" fill="#898a81" transform="matrix(16.46648 -22.363 44.54784 32.80179 22 142.6)"/><circle r="1" fill="#7c7665" transform="matrix(-.44968 36.80472 -62.37493 -.7621 236.7 26.8)"/><ellipse cx="46" cy="99" fill="#fffff9" rx="6" ry="27"/><circle r="1" fill="#0a1320" transform="matrix(7.83726 -12.01438 27.41953 17.88641 232.4 174.5)"/><path fill="#aaa597" d="M183 105h21v75h-21z"/><path d="M43 124h9v15h-9z"/><path fill="#090c12" d="M124 151h10v33h-10z"/><path fill="#feffff" d="M43 151h9v28h-9z"/><ellipse cx="23" cy="37" fill="#7d7866" rx="16" ry="75"/><circle r="1" fill="#0f191d" transform="matrix(-7.48435 -8.05412 11.6378 -10.8145 27.5 180)"/><ellipse cx="84" cy="153" fill="#b4aa99" rx="34" ry="28"/><circle cy="155" r="26" fill="#898f83"/><path fill="#c8fff9" d="M185 186l14 4-41 16z"/><ellipse cx="229" cy="120" fill="#98887d" rx="41" ry="24"/><path fill="#fadaae" d="M204 65h38v26h-38z"/><path fill="#a39686" d="M131 127h25v46h-25z"/><ellipse cx="174" cy="178" fill="#232d34" rx="7" ry="29"/><ellipse cx="252" cy="189" fill="#8a8c9f" rx="22" ry="4"/><path fill="#d6d8b9" d="M35.9 125.7l-1.8-49 12-.4 1.8 49z"/><circle r="1" fill="#bab7a7" transform="matrix(-20.67771 -1.9531 3.89707 -41.25873 83.4 104.2)"/><circle r="1" fill="#c9c7bf" transform="matrix(7.63572 15.2291 -28.50438 14.29181 158.5 105.9)"/><path fill="#232323" d="M243 186l-39 6v-55z"/><path fill="#7d7360" d="M25 73l27 127-33-49z"/><path fill="#081216" d="M55 182h41v10H55z"/><circle r="1" fill="#040e12" transform="matrix(27.45028 -17.76413 2.73026 4.21897 2.1 190.7)"/><ellipse cx="194" cy="50" fill="#9e957f" rx="36" ry="22"/><path fill="#9da5ac" d="M214 169h4v17h-4z"/><ellipse cx="146" cy="21" fill="#8c846f" rx="240" ry="13"/><ellipse cx="179" cy="60" fill="#75664e" rx="176" ry="3"/><ellipse cy="95" fill="#a3a7a9" rx="23" ry="33"/><path fill="#fbffff" d="M187 86l-9 1 6 21z"/><path fill="#6c5f46" d="M47 147.8h-1l-7-79.6h1z"/><path fill="#1a1b1a" d="M116 165l17-9-8 35z"/><ellipse cx="38" cy="99" fill="#fffff4" rx="2" ry="24"/><circle r="1" fill="#867c74" transform="matrix(15.63513 7.72736 -8.61142 17.42389 219.8 132.2)"/><path fill="#0b1118" d="M178 131l-5-2-10 7z"/><circle r="1" fill="#706c64" transform="matrix(19.50498 -6.02071 .79515 2.576 132 132.9)"/><path fill="#928c7d" d="M41 183l75-13-58-6z"/><path fill="#25292d" d="M158 162h18v30h-18z"/><path fill="#756b51" d="M49.5 63.4L17.8 91.1l7.8-18.3-10.8-15z"/><circle r="1" fill="#2b2b25" transform="rotate(-133.2 50.4 87.6) scale(5.14199 31.66861)"/><ellipse cx="48" cy="98" fill="#fff" rx="3" ry="28"/><path fill="#b7a48e" d="M271 95L168 77l103 61z"/><circle r="1" fill="#79725e" transform="matrix(-26.33239 -7.8842 4.33072 -14.46415 249.2 24.8)"/><ellipse cx="129" fill="#979fa8" rx="253" ry="9"/><ellipse cx="52" cy="89" fill="#8c8060" rx="2" ry="80"/><path fill="#928b73" d="M40 54h4v126h-4z"/><path fill="#a59d8f" d="M108.2 142.2l97.4 17.8-13.5 14-66.8-51.7z"/><path fill="#0c151d" d="M186 181h28v6h-28z"/><path fill="#b8b2a0" d="M53 119h48v35H53z"/><path fill="#aba492" d="M110 61h95v23h-95z"/><path fill="#13110c" d="M231 185l39-6-36-16z"/><path fill="#363635" d="M147 207l27.8-47.1-35.9 18.2-18.3-30.6z"/><path fill="#bfb8ab" d="M177 150l36-26-55 14z"/><path fill="#8dc59c" d="M190 185l-4 22-36-10z"/><ellipse cx="99" cy="42" fill="#a49d8a" rx="107" ry="16"/><path fill="#7c7468" d="M149.1 132.5l7.1 38.6-16.2 9.8 22.1-1.2z"/><ellipse cx="60" cy="112" fill="#7a7861" rx="2" ry="21"/><path fill="#686762" d="M121.1 147.9l7.1-14.4 7.3 53.3-4.6-24.8z"/><path fill="#d6e3ea" d="M44 157l1 22 10-12z"/><path fill="#2e291e" d="M44 125h8v24h-8z"/><path fill="#1d1812" d="M204 150h17v21h-17z"/><path fill="#131518" d="M102 174h27v4h-27z"/><circle r="1" fill="#8e8a86" transform="matrix(-16.92017 -16.83225 23.8629 -23.98754 255 135.4)"/><path fill="#b0a89a" d="M52 139l-12-1-1 7z"/><circle r="1" fill="#f5e4c4" transform="matrix(-2.19856 12.47428 -6.67902 -1.17716 229.7 75.3)"/><path fill="#74665a" d="M135.4 160l17-4.2-38.5-7.6 14.6 2.4z"/><ellipse cx="71" cy="67" fill="#aaa58e" rx="32" ry="7"/><path fill="#302d22" d="M55 158.6l-2 .5-2-7.7 2-.5z"/><ellipse cy="154" fill="#868778" rx="21" ry="28"/><path fill="#5d6f72" d="M33.6 197.4L38 180l18.4 4.6L52 202z"/><path fill="#171a1f" d="M177 153h5v4h-5z"/><path fill="#a79a87" d="M161 174l-10-16-12 5z"/><path fill="#a4aeba" d="M117 190h6v2h-6z"/><ellipse cx="198" cy="103" fill="#8b7e68" rx="2" ry="31"/><circle r="1" fill="#918a76" transform="rotate(-128 24.9 7.8) scale(22.11713 30.23847)"/><path fill="#958976" d="M102.1 176.6l-3.4-32.7 26.3 26.4 1.2-15.4z"/><path fill="#bcb4a4" d="M183.7 128.7l-33-20.6-1.6 48.4-25.5-22.2z"/><path fill="#867967" d="M101 68h2v109h-2z"/><path fill="#959a9d" d="M-7.5 78v-96h15v96z"/><path fill="#766f69" d="M214.7 128.8l-.3 19 19.3 13.7 15.2 1.7z"/><path fill="#96938d" d="M15 75h8v93h-8z"/><path fill="#fff" d="M44 114h7v12h-7z"/><path fill="#6e675a" d="M173 160.8l-5.1 4.8-21.1-19.9 13.3 18.4z"/><circle cx="160" cy="166" r="4"/><path fill="#5d5444" d="M24 75h2v97h-2z"/><path fill="#beb9aa" d="M62 96l37-18 2 82z"/><path fill="#a5a38d" d="M62.1 132.1l29.8-3.9L86 130 60.5 97z"/><path fill="#202427" d="M177.4 205.3l-59.8 1.7 45.3-32.5-8.9-2.3z"/><path fill="#948a76" d="M60 176h36v5H60z"/><path fill="#b9b5aa" d="M179.2 65.2l2.5 36-23 1.6-2.4-36z"/><path fill="#878674" d="M189 91l-1-22-10-2z"/><path fill="#2c2d29" d="M12.3 180.8l-18.9 9.3 43 6 6.1-31.9z"/><path fill="#b2afa0" d="M200 102h4v71h-4z"/><path fill="#d6be9c" d="M191 65h7v45h-7z"/><path fill="#7e7665" d="M27.5 173.8l-12-14.8 11-8.8 12 14.8z"/></g></g></svg>