<svg xmlns="http://www.w3.org/2000/svg" viewBox="0 0 618 1400"><defs/><filter id="prefix__a"><feGaussianBlur stdDeviation="12"/></filter><rect width="100%" height="100%" fill="#5c5c5c"/><g filter="url(#prefix__a)"><g transform="translate(2.7 2.7) scale(5.46875)"><circle cx="74" cy="130" r="153" fill="#fff" fill-opacity=".5"/><circle cx="74" cy="113" r="181" fill="#fff" fill-opacity=".5"/><circle cx="57" cy="117" r="143" fill="#fff" fill-opacity=".5"/><circle cx="52" cy="102" r="156" fill="#fff" fill-opacity=".5"/><ellipse cx="29" cy="78" fill="#fff" fill-opacity=".5" rx="81" ry="180"/><circle r="1" fill="#fff" fill-opacity=".5" transform="matrix(7.1027 92.3078 -58.23745 4.48113 47 52.2)"/><path fill="#c7aba5" fill-opacity=".5" d="M108 121h2v68h-2z"/><ellipse cx="100" cy="244" fill="#fff" fill-opacity=".5" rx="112" ry="9"/><ellipse cx="100" cy="117" fill="#c7aca4" fill-opacity=".5" rx="13" ry="2"/><path fill="#868686" fill-opacity=".5" d="M5 250h7v6H5z"/><path fill="#dacfc7" fill-opacity=".5" d="M63 196h35v4H63z"/><ellipse cx="52" cy="245" fill="#fff" fill-opacity=".5" rx="66" ry="9"/><path fill="#d1b7ad" fill-opacity=".5" d="M88 128.3l1.4-4.2 2.1-5 .5 13.1z"/><path fill="#fff" fill-opacity=".5" d="M11 232h75v24H11z"/><path fill="#9d9d9d" fill-opacity=".5" d="M86 253h27v2H86z"/><path fill-opacity=".5" d="M5 253h2v2H5z"/><path fill="#fff" fill-opacity=".5" d="M6.7 266.3l-5.9 1.5-7.5-30.1 5.9-1.5z"/><ellipse cy="62" fill="#e3e3e3" fill-opacity=".5" rx="3" ry="47"/><path fill="#fff" fill-opacity=".5" d="M81 199h15v39H81z"/><circle r="1" fill="#eaeae8" fill-opacity=".5" transform="matrix(.02468 2.02019 -58.2034 .71112 43 230.1)"/><ellipse cx="69" cy="188" fill="#eaeae9" fill-opacity=".5" rx="4" ry="46"/><path fill="#8f8f8f" fill-opacity=".5" d="M74 93l1-1 1 4z"/><circle r="1" fill="#f0f0f0" fill-opacity=".5" transform="matrix(-2.7732 .09684 -3.29968 -94.49055 4.4 137.5)"/><ellipse cx="58" cy="149" fill="#e3e3e0" fill-opacity=".5" rx="53" ry="2"/><ellipse cx="43" cy="195" fill="#eee" fill-opacity=".5" rx="4" ry="45"/><path fill="#fff" fill-opacity=".5" d="M44 170h24v21H44zM109 0v104L2 43z"/><path fill="#e9e9e9" fill-opacity=".5" d="M110 0h3v154h-3z"/><ellipse cx="96" cy="185" fill="#eeeceb" fill-opacity=".5" rx="21" ry="4"/><path fill="#5f5f5f" fill-opacity=".5" d="M4 253h7v3H4z"/><path fill="#e9e9e9" fill-opacity=".5" d="M13 180h19v9H13z"/><path fill="#fff" fill-opacity=".5" d="M45.7 239.5L3.1 257.8-16 235.3 23.5 271z"/><path fill="#ceb8b4" fill-opacity=".5" d="M96 127l-6-8-2 2z"/><path fill="#fff" fill-opacity=".5" d="M106 177l-34 3 27-66z"/><path fill="#a7a7a7" fill-opacity=".5" d="M45 236h4v2h-4z"/><path fill="#a59c9b" fill-opacity=".5" d="M109.6 176.5l-4.6 3.8-.6-.8 4.6-3.8z"/><path fill="#fff" fill-opacity=".5" d="M81 200h27v13H81zM7 95h82v51H7z"/><path fill="#ededed" fill-opacity=".5" d="M21 147L9 115l12 1z"/><path fill="#fff" fill-opacity=".5" d="M93.9 239.9l-52.8 25.9 86.9-44.9v46.5z"/><path fill="#eaeaea" fill-opacity=".5" d="M98 211l-3 17 33 7z"/><path fill="#fff" fill-opacity=".5" d="M26.6 228.9L7 225.8l4.5-28.7 19.7 3.1z"/><ellipse cx="43" cy="210" fill="#d4d4d4" fill-opacity=".5" rx="1" ry="19"/><ellipse cx="32" cy="159" fill="#e4e4e4" fill-opacity=".5" rx="1" ry="72"/><ellipse cx="53" cy="247" fill="#fff" fill-opacity=".5" rx="112" ry="5"/><path fill="#fff" fill-opacity=".5" d="M82.1 192.9l18 4.1 27.9-26-18.9 13z"/><path fill="#cfd0ce" fill-opacity=".5" d="M108.1 196.7l6.1 5.8-10.2-10.1 2.9-.6z"/><path fill="#fff" fill-opacity=".5" d="M35 153h7v71h-7zm-28 3h23v25H7z"/><path fill="#e4e4e4" fill-opacity=".5" d="M3 201l6-8-4 21z"/><ellipse cx="74" cy="202" fill="#fff" fill-opacity=".5" rx="3" ry="9"/><ellipse cx="42" cy="186" fill="#dededf" fill-opacity=".5" rx="1" ry="40"/><path fill="#eaece7" fill-opacity=".5" d="M89 130h3v27h-3z"/><path fill="#a8a8a8" fill-opacity=".5" d="M86 254h10v2H86z"/><path fill="#fff" fill-opacity=".5" d="M108.2 231.4l3.3 18.7-25.7 4.5-3.3-18.7z"/><circle r="1" fill="#fff" fill-opacity=".5" transform="matrix(21.52765 4.10595 -13.86769 72.70873 29 42)"/><ellipse cx="56" cy="193" fill="#cbcbcb" fill-opacity=".5" rx="9" ry="1"/><circle r="1" fill="#fff" fill-opacity=".5" transform="matrix(7.2845 -1.25478 3.46206 20.09865 63.2 174.7)"/><path fill="#fdfdfd" fill-opacity=".5" d="M105.5 176.5l-24.6-4.3 3.6-20.7 24.6 4.3z"/><ellipse cx="90" cy="230" fill="#d9d8d0" fill-opacity=".5" rx="18" ry="1"/><path fill="#fff" fill-opacity=".5" d="M67.7 195.8l-1.6 19.8-29.6-20.1 37.5 3.7z"/><ellipse cy="166" fill="#fff" fill-opacity=".5" rx="1" ry="105"/><path fill="#d0d0d0" fill-opacity=".5" d="M76.6 164.3l-.6.8-10.6-7.4.6-.8z"/><path fill="#d0c6bc" fill-opacity=".5" d="M78 187h2v9h-2z"/><path fill="#f6f6f6" fill-opacity=".5" d="M68 160h30v12H68z"/><path fill="#fff" fill-opacity=".5" d="M112 104h1v152h-1zM80 61h27v52H80z"/><path fill="#eaeaea" fill-opacity=".5" d="M111-1l.2 1L-7 21l-.2-1z"/><path fill="#fff" fill-opacity=".5" d="M77 198l31 3-34 26z"/><path fill="#5f5f5f" fill-opacity=".5" d="M4 252h6v4H4z"/><path fill="#fff" fill-opacity=".5" d="M0 255h86v1H0z"/><path fill="#fffefe" fill-opacity=".5" d="M99 150.1l9.1 4.8-9.3 17.6 10.6 7.3z"/><path fill="#e1e1e1" fill-opacity=".5" d="M125.6 208.3l.2 1-33.4 6.4-.2-1z"/><ellipse cx="90" cy="129" fill="#d6bbb4" fill-opacity=".5" rx="1" ry="13"/><ellipse cx="4" cy="179" fill="#eee" fill-opacity=".5" rx="2" ry="59"/><ellipse cx="110" cy="199" fill="#e8e9e8" fill-opacity=".5" rx="2" ry="26"/><path fill="#e7e7e7" fill-opacity=".5" d="M18.5 198.4l16.7-.6-12-1.8-19.2.6z"/><ellipse cx="32" cy="158" fill="#e4e4e5" fill-opacity=".5" rx="2" ry="11"/><ellipse cy="234" fill="#fff" fill-opacity=".5" rx="4" ry="68"/><path fill="#fefefe" fill-opacity=".5" d="M6 167l-1-50 15 11z"/><path fill="none" stroke="#525252" stroke-opacity=".5" stroke-width=".5" d="M10 253.4q6 18.7-13.3 23.3"/><path fill="none" stroke="#dcc7bc" stroke-opacity=".5" stroke-width=".5" d="M128 205q0-5.9-48.3-7.6"/><path fill="#e0ded9" fill-opacity=".5" d="M38 149h58v1H38z"/><path fill="#e8e8e8" fill-opacity=".5" d="M3.7 89.5l.6 37h-2l-.6-37z"/><path fill="#caa4a1" fill-opacity=".5" d="M108 122h1v28h-1z"/><path fill="#eaeae8" fill-opacity=".5" d="M69 167h4v62h-4z"/><ellipse cx="20" cy="128" fill="#e8e8e8" fill-opacity=".5" rx="2" ry="14"/><path fill="#fff" fill-opacity=".5" d="M45.2 231.6l-56 22.2L91 237.3 51.4 271z"/><path fill="#e3e3e3" fill-opacity=".5" d="M83 226l-6-3-9 2z"/><path fill="#fff" fill-opacity=".5" d="M104 201h5v48h-5z"/><path fill="#d5d5d5" fill-opacity=".5" d="M95 223h13v2H95z"/><path fill="#e1e1e1" fill-opacity=".5" d="M112 0h1v64h-1z"/><path fill="#d6d6d6" fill-opacity=".5" d="M95 217h9v3h-9z"/><ellipse cx="105" cy="29" fill="#fff" fill-opacity=".5" rx="5" ry="87"/><path fill="#fefefe" fill-opacity=".5" d="M63.8 109.6l20.5 88.5-8-53.5 17.4-11.1z"/><path fill="#fff" fill-opacity=".5" d="M39 252l-27 5-3-19zm8-188h27v46H47z"/><ellipse cx="73" cy="216" fill="#fcfcfc" fill-opacity=".5" rx="2" ry="26"/><path fill="#fff" fill-opacity=".5" d="M49 233h64v20H49z"/><path fill="#ababab" fill-opacity=".5" d="M79.9 228l-2.8-1.1 1-2.8 2.8 1z"/></g></g></svg>