<svg xmlns="http://www.w3.org/2000/svg" viewBox="0 0 1400 944"><defs/><filter id="a"><feGaussianBlur stdDeviation="12"/></filter><rect width="100%" height="100%" fill="#584b39"/><g filter="url(#a)"><g fill-opacity=".5" transform="translate(2.7 2.7) scale(5.46875)"><ellipse cx="134" cy="83" fill="#fff" rx="159" ry="171"/><ellipse cx="144" cy="126" fill="#fff" rx="255" ry="146"/><circle r="1" fill="#120d00" transform="matrix(-8.70945 -47.3536 24.96457 -4.59158 62 29.8)"/><ellipse cx="233" cy="101" fill="#1e2214" rx="20" ry="21"/><circle r="1" fill="#fff" transform="matrix(-96.12674 140.94342 -52.01058 -35.47244 162.6 66.7)"/><path fill="#192f11" d="M204 126.5h30v19h-30z"/><ellipse cx="6" cy="34" fill="#fff" rx="29" ry="138"/><path fill="#52421b" d="M36 35h51v36H36z"/><circle r="1" fill="#fff" transform="matrix(16.8126 111.16817 -27.92207 4.22282 121.1 78)"/><ellipse cx="211" cy="165" fill="#fff" rx="106" ry="20"/><circle cx="225" cy="40" r="42" fill="#fff"/><path d="M183 109h16v9h-16z"/><path fill="#fff" d="M25 72h100v8H25zm128-88l-12 68-71-29z"/><circle r="1" fill="#fff" transform="matrix(6.56174 1.06181 -7.5537 46.68002 200 132)"/><path fill="#fff" d="M234 121h22v51h-22z"/><ellipse cx="42" cy="42" fill="#40391c" rx="7" ry="31"/><path fill="#fcfef9" d="M244 85h12v21h-12z"/><path fill="#fff" d="M201.5 113.8l69.5 46.4-44.8-39.7-1.5-10.1z"/><circle r="1" fill="#fff" transform="rotate(-157.9 9.1 24.8) scale(21.47819 51.50316)"/><path fill="#42453c" d="M216.7 93.1l-5.1 10.3-1.4 7.7 52 9.5z"/><path fill="#312b1a" d="M227 82h25v13h-25z"/><circle cx="59" cy="122" r="51" fill="#d6dddb"/><path fill="#465331" d="M87.3 1.2L37.8 2.7 37.2 9l51.6 7.9z"/><ellipse cx="216" cy="57" fill="#fff" rx="130" ry="24"/><path fill="#bbc1bd" d="M147 55l5-71 30 69z"/><circle r="1" fill="#fff" transform="matrix(-76.79942 -2.09988 .59331 -21.69938 187.4 166.2)"/><path fill="#fff" d="M0 109h146v10H0z"/><path fill="#dbe4d4" d="M41 19l29 6-23-14z"/><circle cx="61" cy="44" r="11" fill="#8e9d9d"/><path fill="#0f1200" d="M40 19.6l37.7 10-1.8 6.8-37.6-10z"/><path fill="#bdbfc0" d="M155 82h25v64h-25z"/><path fill="#514a31" d="M69 29h19v42H69z"/><ellipse cx="47" cy="148" fill="#fff" rx="152" ry="5"/><ellipse cx="253" cy="93" fill="#fff" rx="2" ry="98"/><path fill="#fdf9e1" d="M239 86h12v6h-12z"/><ellipse cx="182" cy="5" fill="#7b827e" rx="22" ry="2"/><circle cx="118" cy="25" r="32" fill="#fff"/><path fill="#c1c6c2" d="M48 153h61v18H48z"/><path fill="#a5aba6" d="M151 21h71v5h-71z"/><path fill="#fff" d="M101.5-.2l-75 1.4v-1l75-1.4z"/><path fill="#2b3a1d" d="M210.2 144.8l3.7-20.7 5.9 1L216 146z"/><path d="M184 108h10v6h-10z"/><path fill="#b7bcb8" d="M8 80h30v17H8z"/><path fill="#c5c8c5" d="M43 79h67v19H43z"/><ellipse cx="93" cy="25" fill="#fff" rx="21" ry="6"/><ellipse cx="26" cy="100" fill="#fff" rx="126" ry="3"/><path fill="#866240" d="M37 58h48v14H37z"/><circle cx="6" cy="53" r="29" fill="#fff"/><ellipse cx="75" cy="131" fill="#c6c9c6" rx="32" ry="14"/><circle r="1" fill="#fff" transform="rotate(-83.2 126 -17.4) scale(58.06104 23.858)"/><ellipse cx="245" cy="33" fill="#fff" rx="29" ry="48"/><ellipse cx="96" cy="76" fill="#fff" rx="249" ry="4"/><path fill="#121d10" d="M234.1 139.7l-7.9-4.7-5.4 7.4 14 2.8z"/><path fill="#fff" d="M197 114h17v16h-17z"/><ellipse cx="171" cy="33" fill="#fff" rx="82" ry="4"/><ellipse cy="137" fill="#fff" rx="9" ry="135"/><path fill="#c7cbc7" d="M10 187l23-84-25 1z"/><path fill="#fff" d="M201 133l14.4 26.3-46.3 25.7-14.5-26.3z"/><path fill="#7f8783" d="M30.5 2.2l-14-2.4-24.9 2.5L16 4.8z"/><circle cx="211" cy="77" r="15" fill="#fff"/><path fill="#3e3e33" d="M227 108h25v13h-25z"/><path fill="#373b38" d="M150 8h40v1h-40z"/><path fill="#d6d7cf" d="M236 88h4v19h-4z"/><ellipse cx="76" cy="104" fill="#777a77" rx="38" ry="1"/><path fill="#fff" d="M1 4h35v70H1z"/><path fill="#c1c3c4" d="M195 115l-27 16 28 9z"/><circle r="1" fill="#fff" transform="matrix(25.5736 6.66737 -19.11333 73.31184 119.8 4)"/><path fill="#fff" d="M248 7.4l-100.5 4.4L271 28.3 173.8 5.5z"/><path fill="#1c1508" d="M226 81l4 20 5-18z"/><path fill="#fff" d="M232 187l5-69 34 17z"/><path fill="#33342d" d="M211 111l1-10 19 10z"/><path fill="#fff" d="M101.6 55.8l159.3 2.3-7.8-73.3-29.7 106.8zM223 112l-19-1 22 15z"/><path fill="#c6c7c8" d="M153 83h43v17h-43z"/><path fill="#fff" d="M0 82h75v2H0zm0 31h151v5H0z"/><path fill="#454735" d="M70 29h18v30H70z"/><path fill="#c1c7c2" d="M221 98h8v7h-8z"/><path fill="#fff" d="M271 172.5l-79.2-32.4L97 169.2l20.4 17.8z"/><ellipse cx="66" cy="123" fill="#777976" rx="43" ry="1"/><path fill="#f9fffc" d="M219 121h37v9h-37z"/><path fill="#8f928d" d="M151 41h45v2h-45z"/><ellipse cx="242" cy="82" rx="9" ry="1"/><ellipse cx="41" cy="127" fill="#7f827f" rx="64" ry="1"/><path fill="#7f837f" d="M55.5 146.4l-43 2.2v-1l43-2.2z"/><path fill="#8c7455" d="M80.1 70.5l-32.4 2.6-7.8-28.6 16.7 8z"/><path fill="#1c1c06" d="M71 11h2v39h-2z"/><ellipse cx="18" cy="135" fill="#838683" rx="89" ry="1"/><path fill="#898c88" d="M24 107h75v2H24z"/><ellipse cx="60" cy="154" fill="#7d7f7c" rx="51" ry="1"/><ellipse cx="76" cy="162" fill="#737471" rx="35" ry="1"/><path fill="#fff" d="M27.2 17.7l9.2 59.7L-16 1.5l83.6 22.4z"/><ellipse cx="37" cy="131" fill="#80827f" rx="62" ry="1"/><path fill="#fff" d="M1.5 4.2L9 107.7 8.8 170-16 187z"/><circle r="1" fill="#1a1d1b" transform="rotate(-.6 8961.4 -21756) scale(15.89583 1)"/><path fill="#939692" d="M8 80h99v2H8z"/><ellipse cx="51" cy="170" fill="#7e8280" rx="44" ry="1"/><path fill="#fff" d="M252 62h4v110h-4zM88 0h119v4H88z"/></g></g></svg>