<svg xmlns="http://www.w3.org/2000/svg" viewBox="0 0 1400 944"><defs/><filter id="a"><feGaussianBlur stdDeviation="12"/></filter><rect width="100%" height="100%" fill="#584b39"/><g filter="url(#a)"><g fill-opacity=".5" transform="translate(2.7 2.7) scale(5.46875)"><circle cx="151" cy="100" r="183" fill="#fff"/><circle r="1" fill="#fff" transform="rotate(-6 1202.3 -1007.2) scale(243.80397 138.18897)"/><ellipse cx="61" cy="28" fill="#0c0800" rx="27" ry="46"/><circle r="1" fill="#fff" transform="matrix(-64.5115 -25.22002 72.02003 -184.2235 165.6 49.2)"/><circle cx="234" cy="100" r="20" fill="#1a1e0f"/><path fill="#031a00" d="M205 129h30v17h-30z"/><ellipse cx="8" cy="44" fill="#fff" rx="28" ry="128"/><ellipse cx="227" cy="23" fill="#fff" rx="148" ry="58"/><path fill="#5a4f2b" d="M35 71l58-1-56-86z"/><ellipse cx="214" cy="171" fill="#fff" rx="114" ry="26"/><path d="M197.5 107.9l-1 10-16-1.8 1-10z"/><ellipse cx="127" cy="95" fill="#fff" rx="26" ry="141"/><circle r="1" fill="#bec3bf" transform="matrix(-5.68768 31.61078 -18.7843 -3.37983 167 26)"/><path fill="#fff" d="M244 0h12v107h-12z"/><path fill="#3c3110" d="M71 29h17v40H71z"/><path fill="#43463d" d="M221.5 102l-8.8-10.5-3.4 19.2L271 122z"/><path fill="#fff" d="M234 120h22v52h-22z"/><circle r="1" fill="#f4faf4" transform="rotate(-166.8 27.8 6.6) scale(59.82656 3.1741)"/><ellipse cx="64" cy="130" fill="#dae1df" rx="53" ry="59"/><circle r="1" fill="#fff" transform="matrix(25.59946 -49.06138 25.83707 13.48138 0 54)"/><path d="M228 82h24v4h-24z"/><path fill="#fff" d="M172.3 32.6l98.7-15-5.4 15.5-63.5 81.4z"/><path fill="#c2c4c6" d="M153 82h30v63h-30z"/><ellipse cx="67" cy="113" fill="#fff" rx="116" ry="5"/><path fill="#fff" d="M88 0h61v80H88zm113 112h25v12h-25z"/><path fill="#575a57" d="M205 4.4l-62 2.2v-1l62-2.2z"/><ellipse cx="61" fill="#fff" rx="35" ry="1"/><circle r="1" fill="#fff" transform="rotate(-177.9 109.7 78.4) scale(108.69411 14.02313)"/><path fill="#424338" d="M225 104h27v17h-27z"/><path fill="#71654d" d="M71 1L35 68l41 2z"/><circle r="1" fill="#fff" transform="matrix(-48.07722 -.67133 .05025 -3.59883 72.3 76.5)"/><path fill="#9ca6a1" d="M52 32l4 28 15-25z"/><path fill="#566345" d="M37 1h52v15H37z"/><path fill="#b8bcb9" d="M9 80h102v10H9z"/><ellipse cx="64" cy="148" fill="#fff" rx="111" ry="5"/><path fill="#6a726e" d="M26.4 4.2l-25-.4.2-8 25 .4z"/><path fill="#261e0d" d="M224.9 84.9l2.1-3.8 10.7 7.4-8.2 14.2z"/><ellipse cx="60" cy="162" fill="#656965" rx="50" ry="1"/><path fill="#c2c5c1" d="M10 119h92v25H10z"/><path fill="#fff" d="M252 0h4v172h-4z"/><path fill="#2a2b19" d="M37.7 64.7l-.8-45.9 44.7 12.4L35.5 35z"/><circle r="1" fill="#fff" transform="matrix(-22.8304 .50168 -1.39272 -63.37993 128.2 114.5)"/><path fill="#fff" d="M34 11.2l1 67-33 .6-1-67z"/><path fill="#53614b" d="M212 125h14v17h-14z"/><ellipse cx="54" cy="100" fill="#fff" rx="98" ry="3"/><path fill="#fff" d="M199 107.9l-6.9 66.1 22.7-60.1 44.5 39.6z"/><path fill="#8d908d" d="M11 103h103v2H11z"/><path fill="#282912" d="M184 111h14v7h-14z"/><path fill="#fff" d="M178 99h26v9h-26z"/><path fill="#a9ada9" d="M150 21h74v5h-74z"/><path fill="#7b7e7a" d="M8 146h49v2H8z"/><path fill="#2b2a1e" d="M210.4 98h7l.2 14h-7z"/><ellipse cx="26" cy="96" fill="#747775" rx="73" ry="1"/><path fill="#fff" d="M221 54L97 58l128 33zM106.5 34.3L74 28.6l1.5-8.9 32.5 5.7z"/><path fill="#8e918c" d="M21 154h87v2H21z"/><path fill="#b4b5b7" d="M187.3 81l11 1-1.6 19-11-1z"/><ellipse cx="55" cy="166" fill="#696d6a" rx="48" ry="1"/><path d="M219 93h33v2h-33z"/><ellipse cx="51" cy="92" fill="#757976" rx="56" ry="1"/><ellipse cx="3" cy="94" fill="#fff" rx="5" ry="99"/><path fill="#7a5835" d="M36 57h51v15H36z"/><path fill="#404331" d="M71.6 33.1L86.8 30l-.3 32-19.3-3.9z"/><path fill="#babdba" d="M149 37h30v19h-30z"/><path fill="#ceccbc" d="M235 85h6v23h-6z"/><ellipse cx="240" fill="#fff" rx="24" ry="81"/><path fill="#b1b3b5" d="M183.1 138.8L185 122l12 1.3-2 16.7z"/><path fill="#3e3d2f" d="M238 80h13v9z"/><path fill="#fff" d="M88 0h55v79H88zm127.3 118.2l18.5 13.7 14.8 55.1 22.4-55.1z"/><ellipse cx="77" fill="#fff" rx="185" ry="1"/><ellipse cx="69" cy="158" fill="#6d706d" rx="40" ry="1"/><path fill="#fff" d="M181 57h2v115h-2z"/><path fill="#eceeee" d="M-16 20.9l60.2-8.6 1.9 9.1 4-9.6z"/><ellipse cx="53" cy="108" fill="#7f827e" rx="44" ry="1"/><ellipse cx="43" cy="135" fill="#858886" rx="64" ry="1"/><path fill="#fff" d="M117 30h96v8h-96z"/><ellipse cx="193" cy="170" fill="#fff" rx="57" ry="26"/><path fill="#767b75" d="M8 111h27v2H8z"/><ellipse cx="62" cy="170" fill="#757875" rx="35" ry="1"/><ellipse cx="35" cy="82" fill="#fff" rx="117" ry="1"/><path fill="#101812" d="M215 140h20v3h-20z"/><path fill="#fff" d="M226 98h2v9h-2z"/><circle r="1" fill="#fff" transform="matrix(.1337 -2.65321 26.84872 1.3529 174.1 12.7)"/><ellipse cx="31" cy="127" fill="#818482" rx="74" ry="1"/><path fill="#fff" d="M0 4h9v168H0zm15.5 139v-1l85-3v1z"/><path fill="#b4bdb1" d="M216.5 149.4l6.4-24.7 15.6 5-10.1-3.7z"/><ellipse cx="75" cy="86" fill="#fff" rx="77" ry="1"/><path fill="#282a1b" d="M70 8h3v48h-3z"/><ellipse cx="23" cy="123" fill="#848785" rx="87" ry="1"/><ellipse cx="172" cy="41" fill="#787b77" rx="23" ry="1"/><path fill="#fff" d="M0 125h151v2H0zm0 11h99v2H0z"/><ellipse cx="63" cy="133" fill="#fff" rx="89" ry="1"/><ellipse cx="50" cy="84" fill="#8e918e" rx="58" ry="1"/><path fill="#fff" d="M246.5 95.8l3.8 9.3-2.8 1.1-3.8-9.3z"/><path fill="#2d2d1d" d="M183 108h13v7h-13z"/><ellipse cx="23" cy="139" fill="#8b8d8b" rx="87" ry="1"/></g></g></svg>