<svg xmlns="http://www.w3.org/2000/svg" viewBox="0 0 1400 944"><defs/><filter id="a"><feGaussianBlur stdDeviation="12"/></filter><rect width="100%" height="100%" fill="#584b39"/><g filter="url(#a)"><g fill-opacity=".5" transform="translate(2.7 2.7) scale(5.46875)"><circle cx="145" cy="87" r="171" fill="#fff"/><circle r="1" fill="#fff" transform="matrix(-249.93064 -.43621 .2275 -130.34442 167.1 103)"/><ellipse cx="61" cy="32" fill="#0b0600" rx="27" ry="42"/><path fill="#0e1202" d="M223 82h29v37h-29z"/><circle cx="175" cy="10" r="93" fill="#fff"/><circle r="1" fill="#fff" transform="matrix(84.11858 27.65678 -12.5466 38.16068 124.4 132.2)"/><path fill="#21381a" d="M204.2 126.5l31-1 .6 20-31 1z"/><circle r="1" fill="#fff" transform="matrix(22.63131 3.05987 -10.6126 78.49244 11.3 71.7)"/><ellipse cx="225" cy="161" fill="#fff" rx="123" ry="16"/><path fill="#54451d" d="M36 28h49v44H36z"/><circle r="1" fill="#fff" transform="matrix(31.29637 -1.3943 7.88784 177.04974 120.5 54.1)"/><circle r="1" fill="#3a3a2e" transform="matrix(7.22112 5.60984 -11.78563 15.17073 225.5 95.5)"/><circle cx="235" cy="31" r="50" fill="#fff"/><ellipse cx="191" cy="112" rx="9" ry="5"/><path fill="#fff" d="M252.2 150.5L109-1.4 71.8 26.9l14.7 4.4z"/><path fill="#59643f" d="M36 1h52v18H36z"/><path fill="#201900" d="M83 30h5v33h-5z"/><path fill="#fff" d="M234 124h22v48h-22z"/><circle cy="38" r="36" fill="#fff"/><path fill="#fff" d="M197 32h14v99h-14z"/><circle r="1" fill="#d3dad7" transform="rotate(-42 175.6 -36.4) scale(33.74937 38.67782)"/><ellipse cx="247" cy="97" fill="#fff" rx="4" ry="11"/><path fill="#c2c4c6" d="M152.7 98.1l3.5 49.4 45.7-61.3-43.6-6.6z"/><circle r="1" fill="#c7cdca" transform="matrix(-7.18975 31.91855 -16.91918 -3.8111 165.5 28.6)"/><path fill="#a2aea8" d="M53 32.7l14.8 1.8L65 57.3l-14.8-1.8z"/><ellipse cy="126" fill="#fff" rx="9" ry="123"/><path fill="#fff" d="M181 31h45v60h-45z"/><path fill="#4b4f47" d="M249 110.4l-31.9-14.3 9.1-8.9-20.5 25.8z"/><circle r="1" fill="#e8ece3" transform="matrix(36.53497 8.23351 -.56727 2.51718 44.2 17.3)"/><ellipse cx="76" cy="75" fill="#fff" rx="255" ry="4"/><path fill="#0b0f00" d="M75 29L39 19l2 11z"/><ellipse cx="86" fill="#fff" rx="170" ry="1"/><path fill="#54544c" d="M225.4 122.9l4.8-1.2 23-2-27.5-36z"/><ellipse cx="216" cy="164" fill="#fff" rx="107" ry="18"/><path fill="#545854" d="M152.6 7V6l54.8-3v1z"/><path fill="#866440" d="M36.1 51.3l49.1 11.8 7.4 9.5-51.1-2.4z"/><circle r="1" fill="#fff" transform="rotate(91.9 22 105.6) scale(118.73166 20.46579)"/><path fill="#3e4834" d="M210 130h25v14h-25z"/><path fill="#fff" d="M90.5 110.5v7h-63v-7zM268 172.3l-24 1.2-14.2-51.4 27.2-1.5z"/><ellipse cx="236" cy="83" rx="12" ry="2"/><ellipse cx="62" cy="148" fill="#fff" rx="114" ry="5"/><circle r="1" fill="#fff" transform="matrix(-39.2678 -46.34955 20.25074 -17.15662 249.3 43)"/><path fill="#2d2f21" d="M184.1 122.1l-1.7-15.2.4 1.1 13.5.8z"/><path fill="#c6cac8" d="M16 119h92v26H16z"/><ellipse cx="14" cy="2" fill="#49514e" rx="13" ry="2"/><ellipse cx="193" cy="23" fill="#aaafab" rx="35" ry="3"/><path fill="#ddddd1" d="M237 86h5v20h-5z"/><path fill="#44422b" d="M36 1h8v72h-8z"/><path fill="#c1c2c4" d="M174 148.2L159.5 133l20.5-19.1 14.3 15.3z"/><path fill="#fff" d="M198 112h28v7h-28z"/><circle r="1" fill="#bdc3c0" transform="matrix(15.0714 -2.03773 1.3696 10.12985 22.6 87.6)"/><path fill="#bbc3c0" d="M49 154h63v10H49z"/><ellipse cx="77" cy="92" fill="#6b6e6a" rx="31" ry="1"/><circle r="1" fill="#0f100d" transform="rotate(89.4 71 166.6) scale(1 17.00864)"/><path fill="#fff" d="M252 37h4v135h-4z"/><path fill="#474730" d="M87 71L66 18l20 21z"/><path fill="#fafdfd" d="M28.5 9.6l30.6 14.6L4 8.7 45.7-4.6z"/><ellipse cx="41" cy="100" fill="#fff" rx="111" ry="3"/><path fill="#fff" d="M225.6 105.3l1.8-8.8 1 .2-1.8 8.8zM88 0h60v79H88z"/><path fill="#f9faf6" d="M142.1 21.3l6.7-2.6-75.9 11.1 2.8-14.3z"/><path fill="#fff" d="M0 5h36v75H0zm111 52h145v24H111z"/><path fill="#b4b8b5" d="M105.6 91.4l-89.5-2.9 78.7-.7 12.8-12.2z"/><ellipse cx="96" cy="113" fill="#fff" rx="87" ry="5"/><path fill="#fff" d="M91 30h165v7H91z"/><path fill="#cbd1cd" d="M8 103h29v45H8z"/><path fill="#fff" d="M208 110.3l52.5 29-2.5 4.4-52.5-29z"/><path fill="#c5c5c5" d="M156 82h41v17h-41z"/><ellipse cx="48" cy="156" fill="#fff" rx="210" ry="1"/><ellipse cx="72" cy="127" fill="#767874" rx="34" ry="1"/><path fill="#fff" d="M155.6 187l43-57.8-1.5-45.3 18.9 37.8z"/><ellipse cx="64" cy="104" fill="#727572" rx="50" ry="1"/><path fill="#90948f" d="M156 41h37v2h-37z"/><path fill="#373925" d="M234 107l17-2 1 16z"/><path fill="#bcbebb" d="M224 87h2v25h-2z"/><path fill="#5b5c41" d="M62 2h26v14H62z"/><path fill="#fff" d="M92 10h117v4H92z"/><path fill="#2c2f2c" d="M152 8h35v1h-35z"/><path fill="#c0c4bf" d="M148 44h34v13h-34z"/><path fill="#161109" d="M225 81h5v12h-5z"/><ellipse cx="47" cy="96" fill="#747774" rx="53" ry="1"/><path fill="#fff" d="M217 0h8v91h-8z"/><path fill="#858784" d="M29 107h74v2H29z"/><ellipse cx="65" cy="84" fill="#7e827f" rx="44" ry="1"/><path fill="#7a7c79" d="M13 123h78v1H13z"/><path fill="#fff" d="M9.9 187L4.9-1.2-16 64.6v97.8z"/><ellipse cx="63" cy="166" fill="#6d7674" rx="41" ry="1"/><ellipse cx="225" cy="167" fill="#fff" rx="117" ry="21"/><path fill="#fff" d="M0 148h78v6H0z"/><ellipse cx="12" cy="116" fill="#fff" rx="140" ry="3"/><ellipse cx="56" cy="135" fill="#777a77" rx="47" ry="1"/><path fill="#fff" d="M108 142.5l-118-2v-1l118 2z"/><circle r="1" fill="#c8c3ac" transform="rotate(162.4 28.5 12.4) scale(3.27884 4.28911)"/><path fill="#4d5046" d="M66.2 50.3l-25.1 2L84 33.6 68.9 68.3z"/><ellipse cx="39" cy="162" fill="#818683" rx="72" ry="1"/><path fill="#80837f" d="M148 14h23v2h-23z"/><ellipse cx="19" cy="80" fill="#888c89" rx="88" ry="1"/><path fill="#fff" d="M181 100h11v8h-11z"/></g></g></svg>