<svg xmlns="http://www.w3.org/2000/svg" viewBox="0 0 1400 944"><defs/><filter id="a"><feGaussianBlur stdDeviation="12"/></filter><rect width="100%" height="100%" fill="#584b39"/><g filter="url(#a)"><g fill-opacity=".5" transform="translate(2.7 2.7) scale(5.46875)"><circle cx="115" cy="84" r="166" fill="#fff"/><circle r="1" fill="#fff" transform="rotate(-98.6 109 1.3) scale(133.90949 249.84326)"/><ellipse cx="61" cy="32" fill="#0b0600" rx="27" ry="42"/><circle r="1" fill="#fff" transform="matrix(70.04 11.81263 -30.90053 183.21686 162.3 30)"/><circle r="1" fill="#2d3123" transform="matrix(19.78607 -9.60311 8.95977 18.46054 232.7 100.8)"/><ellipse cx="220" cy="136" fill="#102707" rx="16" ry="11"/><ellipse cx="12" cy="31" fill="#fff" rx="24" ry="155"/><circle r="1" fill="#fff" transform="rotate(75.1 95.4 177) scale(40.70184 62.40266)"/><path fill="#5b4a22" d="M35 37h54v35H35z"/><circle r="1" fill="#fff" transform="matrix(.89498 -14.74998 131.7932 7.9968 187.8 157.7)"/><path fill="#fff" d="M148.1-16l6.4 203L90.2 35.3l-21-11.2z"/><ellipse cx="189" cy="113" rx="8" ry="6"/><circle r="1" fill="#fff" transform="matrix(-3.63396 6.19393 -45.06655 -26.44039 247.1 136)"/><path fill="#3f3b1c" d="M36 1h9v68h-9z"/><ellipse cx="15" cy="43" fill="#fff" rx="21" ry="41"/><circle r="1" fill="#fff" transform="matrix(67.25545 -68.679 22.61442 22.14567 245.6 29)"/><path fill="#38382e" d="M252 118l-27 3V77z"/><circle r="1" fill="#fff" transform="rotate(79.2 1.1 124) scale(134.43561 23.45934)"/><path fill="#dae1df" d="M11 72h98v97H11z"/><path fill="#fff" d="M245.4-16l7.1 109.9-20.4 5.2L271 118z"/><path fill="#424845" d="M149 4h56v2h-56z"/><path fill="#c1c2c4" d="M195.3 80.2l-25.4 74.3-17.1-22.2 1.3-49.4z"/><ellipse cx="240" cy="166" fill="#fff" rx="134" ry="21"/><ellipse cx="74" cy="113" fill="#fff" rx="108" ry="5"/><ellipse cx="56" cy="76" fill="#fff" rx="255" ry="4"/><path fill="#1b1f05" d="M88.7 43.1L78.6 29.5l-39.2-8.2 1.3 4.3z"/><circle r="1" fill="#eaefe4" transform="matrix(.4388 -2.54033 45.21106 7.8093 61 20.7)"/><path fill="#626942" d="M58.2 16.2L81.6-12l8.5 22.6-20.5 16.9z"/><path d="M225 81h28v4h-28z"/><ellipse cx="13" cy="2" fill="#444b48" rx="14" ry="2"/><path fill="#bcc3bf" d="M149 15h28v41h-28z"/><ellipse cx="137" fill="#fff" rx="111" ry="1"/><path fill="#fff" d="M236 120.5l29 1-1 32-29-1z"/><path fill="#9ca9a6" d="M53 35h15v21H53z"/><path fill="#fff" d="M88 0h59v75H88z"/><ellipse cx="56" cy="100" fill="#fff" rx="96" ry="3"/><path fill="#fff" d="M268.1 27.1L135.9 68.7 223 92.8 255-9.5z"/><path fill="#1f200b" d="M183 109h15v9h-15z"/><ellipse cx="217" cy="106" fill="#1c1c14" rx="7" ry="6"/><path fill="#fff" d="M191 112h34v12h-34z"/><path fill="#c8cbc7" d="M43 78L11 187 9 78z"/><path fill="#a7aca7" d="M150 21h71v5h-71z"/><path fill="#463f23" d="M77 30h11v42H77z"/><path fill="#fff" d="M0 4h36v76H0z"/><path fill="#38432c" d="M202 145l33-1-3-11z"/><ellipse cx="169" cy="8" fill="#202623" rx="18" ry="1"/><ellipse cx="64" cy="150" fill="#fff" rx="230" ry="3"/><path fill="#434538" d="M225 106h27v13h-27z"/><path fill="#8c8f8b" d="M11 154h98v2H11z"/><path fill="#6f716f" d="M18 92h89v1H18z"/><ellipse cx="60" cy="162" fill="#6a6d6a" rx="51" ry="1"/><path fill="#c6c9c6" d="M9 119h95v25H9z"/><path fill="#fff" d="M89 30h154v8H89zm182 90l-19-48-2 115z"/><path fill="#040503" d="M242 81h2v40h-2z"/><ellipse cx="2" cy="106" fill="#fff" rx="7" ry="104"/><path fill="#fff" d="M0 113h144v6H0z"/><path fill="#8d8f8d" d="M17 84h90v2H17z"/><ellipse cx="57" cy="166" fill="#6b6e6a" rx="48" ry="1"/><path fill="#fff" d="M217 0h38v82h-38z"/><path fill="#c2c4c5" d="M174.4 147.1l22.5-10.1-.2-16.1-31.5.7z"/><path fill="#93968d" d="M239.4 94.5l4.1 12.7-28.2-.5 9.2-6.9z"/><ellipse cx="22" cy="158" fill="#787b78" rx="86" ry="1"/><ellipse cx="58" cy="104" fill="#787b77" rx="49" ry="1"/><ellipse cx="59" cy="80" fill="#7a7b78" rx="47" ry="1"/><path fill="#e5dfca" d="M238 86h17v6h-17z"/><path fill="#856645" d="M36 46v25l51-1z"/><path fill="#bababa" d="M183 82h14v18h-14z"/><path fill="#feffff" d="M191.1 149.5l26.9-28.6-29.9-20.7L226.4 70z"/><path fill="#342e15" d="M37 41l28-16-27-5z"/><path fill="#fefffc" d="M93.1 19.9l-19.9.7-.1 9.6 30.5-5.8z"/><path fill="#fff" d="M0 98h124v5H0zm235 17h7v57h-7zM0 133h153v1H0z"/><path fill="#535b3f" d="M88 16L87 1 38 5z"/><ellipse cx="41" cy="129" fill="#fff" rx="111" ry="1"/><ellipse cy="96" fill="#787a78" rx="100" ry="1"/><ellipse cx="60" cy="88" fill="#727572" rx="47" ry="1"/><path fill="#848684" d="M6 139h100v1H6z"/><path fill="#fff" d="M0 125h114v2H0zm88-68h168v23H88z"/><path fill="#1d1403" d="M227 82h8v16h-8z"/><ellipse cx="51" cy="123" fill="#868885" rx="59" ry="1"/><ellipse cy="150" fill="#fff" rx="8" ry="149"/><circle r="1" fill="#3a3a2c" transform="matrix(1.11113 4.44884 -6.88029 1.7184 191.2 112.2)"/><ellipse cx="184" cy="171" fill="#fff" rx="78" ry="26"/><path fill="#fff" d="M47 144h95v10H47z"/><ellipse cx="68" cy="127" fill="#757775" rx="37" ry="1"/><path fill="#334027" d="M220.4 125.9l-5 17.3-3.8-1.1 5-17.3z"/><ellipse cx="155" cy="23" fill="#fff" rx="81" ry="1"/><ellipse cx="62" cy="121" fill="#fff" rx="90" ry="1"/><path fill="#898c89" d="M53 109.7v-1l46-2.4v1z"/><path fill="#fff" d="M157.9 12.2l53.5-7.1L225-16l-3.4 38.2z"/><ellipse cx="45" cy="137" fill="#fff" rx="107" ry="1"/><path fill="#28291a" d="M70 11h3v50h-3z"/><ellipse cx="40" cy="170" fill="#838a88" rx="57" ry="1"/><ellipse cx="130" cy="90" fill="#fff" rx="23" ry="69"/><path fill="#fff" d="M198 47h7v125h-7z"/><path fill="#e0e2db" d="M235.4 94.7l.7 12.9 5.4-13.6 26.5 9.1z"/><circle r="1" fill="#9ca19c" transform="matrix(-.00873 -.99996 10.68991 -.09329 187.2 42)"/></g></g></svg>