<svg xmlns="http://www.w3.org/2000/svg" viewBox="0 0 1400 1050"><defs/><filter id="a"><feGaussianBlur stdDeviation="12"/></filter><rect width="100%" height="100%" fill="#4f4132"/><g filter="url(#a)"><g fill-opacity=".5" transform="translate(2.7 2.7) scale(5.46875)"><circle r="1" fill="#deebea" transform="rotate(176.1 64.1 34.4) scale(255 140.94995)"/><circle r="1" fill="#605030" transform="rotate(-5.3 144 -1316.7) scale(144.49717 46.29214)"/><circle r="1" fill="#fbfeec" transform="rotate(40.6 17.7 359.4) scale(33.4888 63.60641)"/><circle cx="75" cy="185" r="24" fill="#030f21"/><path fill="#fdffff" d="M92 75l45-2-46 130z"/><circle r="1" fill="#cddaf1" transform="matrix(-.13533 -19.38454 93.09685 -.64995 190.6 164.5)"/><ellipse cx="155" cy="191" fill="#131d2f" rx="108" ry="9"/><path fill="#131b0f" d="M95 106l45 20-2-25z"/><path d="M182 70h7v58h-7z"/><path fill="#e5edce" d="M139 77h41v52h-41z"/><path d="M158 72h79v3h-79z"/><circle r="1" fill="#fff" transform="rotate(82.3 91.7 159.8) scale(11.80455 26.2727)"/><path fill="#726c5a" d="M271 138l-43-15 7-40z"/><circle r="1" fill="#575d67" transform="matrix(24.11099 51.25861 -18.1394 8.5324 74.5 166.6)"/><circle r="1" fill="#e2ebee" transform="matrix(-9.50317 23.7259 -10.84366 -4.34332 109.4 132.7)"/><path fill="#fff" d="M238.2 126.7l-45.8 1.8-2.7-12.3 19.4-.7z"/><path fill="#71644d" d="M27 17h229v16H27z"/><path d="M136 70h4v40h-4zm-57.4 49.7l34.9 3.6-.1 1-34.9-3.6z"/><circle cx="13" cy="58" r="38" fill="#989d9b"/><path d="M86 68h4v60h-4z"/><path fill="#feffee" d="M136.2 74.3l-.4 26-38-.6.4-26z"/><path d="M182 78h7v41h-7z"/><ellipse cx="232" cy="176" fill="#d8deef" rx="122" ry="7"/><path fill="#adaf94" d="M135 37h79v34h-79z"/><path fill="#f5fcff" d="M88 127h26v31H88z"/><path fill="#828667" d="M172.7 104.3l-4.8 12.5L151 90.2l21.7-13z"/><path fill="#242623" d="M73.6 158.2l17 12.4-24.2 33.2-17-12.4z"/><path fill="#050807" d="M127 126l13-1-15-26z"/><path fill="#fff" d="M246 33h10v56h-10z"/><path fill="#919996" d="M113 125h84v35h-84z"/><ellipse cx="97" cy="175" fill="#788395" rx="19" ry="15"/><path fill="#68604d" d="M49 32h85v28H49z"/><path fill="#fffff5" d="M190 75h44v13h-44z"/><path fill="#91959e" d="M79 118.4l13.4 9-51.5 76.2-13.3-9z"/><ellipse cx="174" cy="191" fill="#171a1e" rx="64" ry="5"/><path fill="#1e201d" d="M173.3 75.5L66.8 72.7l54.1-1.8 26 1.1z"/><path d="M86.6 108.7l-.1-1 45-2.4v1z"/><path fill="#7f7a67" d="M271 110l-52-6 11 21z"/><ellipse cx="20" cy="126" fill="#9ca0a7" rx="29" ry="67"/><path fill="#9e9c9b" d="M160.3 62.6l73.2 11 21.2 101.3-9.1-117z"/><circle r="1" fill="#a4abac" transform="matrix(-.52312 13.02464 -110.1349 -4.42347 228.5 147.5)"/><path fill="#fdfff7" d="M142 126l16-1-17-41z"/><path fill="#22271f" d="M234 79h3v34h-3z"/><ellipse cx="50" cy="119" fill="#171f18" rx="2" ry="37"/><path fill="#36301d" d="M-16-16l39.1 26.8L60.9 45 5.6 5.9z"/><path fill="#fff" d="M212 42h44v16h-44z"/><circle r="1" fill="#8d7d68" transform="rotate(-32.2 137.4 -393.7) scale(35.9266 23.38505)"/><path fill="#727360" d="M113 128h101v5H113z"/><path fill="#f9fffd" d="M90 74h38v17H90z"/><ellipse cx="192" cy="184" fill="#828a9a" rx="93" ry="2"/><circle r="1" fill="#2e4014" transform="matrix(9.72829 2.16286 -.41723 1.87663 194.1 113)"/><path fill="#89897f" d="M-4 53.6l6-20 88 26.8-6 20z"/><path fill="#e3eea6" d="M204 88h30v24h-30z"/><path fill="#fffff3" d="M236 76h4v26h-4z"/><path d="M123 102h13v3h-13z"/><path fill="#f6fadf" d="M165 75l-28 1 7 14z"/><ellipse cx="223" cy="73" fill="#1d1c1f" rx="20" ry="2"/><path fill="#becd9a" d="M104 92h18v14h-18z"/><ellipse cx="110" cy="111" fill="#9faa9e" rx="22" ry="4"/><circle r="1" fill="#83868c" transform="matrix(12.4762 -2.9704 8.62335 36.2195 36.2 159)"/><ellipse cx="82" cy="103" fill="#ccd3da" rx="3" ry="27"/><ellipse cx="95" cy="122" fill="#302926" rx="20" ry="2"/><ellipse cx="27" cy="150" fill="#44483b" rx="1" ry="140"/><ellipse cx="67" cy="113" fill="#a6aaaf" rx="4" ry="43"/><path d="M254 111h2v12h-2z"/><path fill="#999f99" d="M27 21h-43L-3-1z"/><path fill="#fff" d="M222.8 115.1l1.3 12-17 1.8-1.2-12z"/><path fill="#969d83" d="M193.5 103.6l-4.2 2.7 5.2-25L206 91.7z"/><path fill="#393214" d="M85 9L78-2l21 5z"/><circle r="1" fill="#2b2e2e" transform="matrix(14.49375 -28.5566 6.11264 3.10244 67 183.2)"/><path fill="#414648" d="M47.1 160.2l15.5-22.4-2.1-10.5-4.6.3z"/><path d="M87 74h2v47h-2z"/><path fill="#c3cad6" d="M185 182h-69l1-19z"/><path d="M150 73h39v2h-39z"/><ellipse cx="59" cy="87" fill="#f3ffff" rx="5" ry="3"/><ellipse cx="73" cy="73" fill="#76725e" rx="3" ry="86"/><path fill="#e7ebee" d="M173 106l11 14h-23z"/><path fill="#fff" d="M102 115l22 12-2-13zm88-9h22v5h-22z"/><path fill="#0d0b10" d="M234 73h2v18h-2z"/><path fill="#fff" d="M236.2 34.9l-21.7 12.9L271 69.4l-5.9-37.7z"/><path fill="#d5ccbf" d="M271 124l-25 4-8-8z"/><path fill="#fff" d="M91 124h21l-22 13z"/><path fill="#090a0c" d="M142 116h-20l2 8z"/><path fill="#4b3a21" d="M119 52l-2-16 18 4z"/><path fill="#6e6346" d="M126.4 40.5l-.7-14 57.9-3 .7 14z"/><path fill="#89878b" d="M90 157l-5-40H69z"/><ellipse cx="210" cy="70" fill="#8d898e" rx="36" ry="2"/><circle cx="178" cy="79" r="4" fill="#fff"/><path fill="#b6b5b6" d="M83 61h50v7H83z"/><circle cx="218" cy="94" r="5" fill="#a6b752"/><path fill="#1a0600" d="M134.5 117v-1l25 1v1z"/><path fill="#fff" d="M92 116h31v3H92z"/><circle cx="168" cy="95" r="13" fill="#989a81"/><path fill="#fff" d="M89 118h26v3H89z"/><path fill="#666f76" d="M113 127h2v51h-2z"/><path fill="#a0a4a5" d="M-26 235.5v-163h52v163z"/><path fill="#909372" d="M254.4 128L240 138.4l-15.3-36.9-11 12.5z"/><circle cx="81" cy="188" r="15" fill="#4e5357"/></g></g></svg>