<svg xmlns="http://www.w3.org/2000/svg" viewBox="0 0 1400 1050"><defs/><filter id="a"><feGaussianBlur stdDeviation="12"/></filter><rect width="100%" height="100%" fill="#4a4442"/><g filter="url(#a)"><g fill-opacity=".5" transform="translate(2.7 2.7) scale(5.46875)"><circle cx="137" cy="68" r="192" fill="#fff"/><circle cx="126" r="172" fill="#fff"/><circle r="1" fill="#fff" transform="rotate(89.1 36 98.5) scale(86.09063 255.00001)"/><ellipse cx="127" cy="156" fill="#80746b" rx="121" ry="14"/><circle r="1" fill="#fff" transform="matrix(-254.75058 -4.64102 1.50222 -82.45848 123.7 67)"/><path fill="#beb9b6" d="M19 206l179-2-67-73z"/><path fill="#fff" d="M-11.6 137.1L23 89.4l18.6 13.5L7 150.6z"/><path fill="#8b7b70" d="M150 173l-45 1 22-47z"/><circle r="1" fill="#fff" transform="matrix(-10.214 1.61774 -20.44328 -129.07378 245.6 96.7)"/><circle cx="97" cy="52" r="88" fill="#fff"/><path fill="#8b8580" d="M90.9 182.1l-35.8-28 10.4-16.5 36.1 5.7z"/><ellipse cx="132" cy="191" fill="#c8c7c9" rx="255" ry="18"/><ellipse cx="175" cy="60" fill="#fff" rx="255" ry="76"/><path fill="#958d86" d="M180 140h67v34h-67z"/><circle r="1" fill="#fff" transform="matrix(9.66555 -1.11118 3.20092 27.84301 108.4 130)"/><path fill="#fff" d="M146 156.8L135.9 135l8.1-3.8 10.1 21.8z"/><ellipse cx="192" cy="159" fill="#736d68" rx="54" ry="5"/><circle r="1" fill="#f1f5f2" transform="matrix(-3.51085 9.19401 -4.58889 -1.75233 154 168.5)"/><path fill="#fff" d="M97 164h11v11H97z"/><path fill="#726a65" d="M7 154h90v10H7z"/><path fill="#e9eae9" d="M-16 84l29 86-29 16z"/><circle cx="207" cy="70" r="72" fill="#fff"/><path fill="#fff" d="M262 4L2 146-16-16z"/><path fill="#8f8b84" d="M126 124h4v45h-4z"/><path fill="#b9b2ad" d="M10.5 138.9l107.6 21.5-23.4-22.9 3.7 9z"/><path fill="#afa9a3" d="M144 163l17-25 18 12z"/><ellipse cx="247" cy="171" fill="#f5f5f3" rx="4" ry="9"/><path fill="#fff" d="M248 23h8v125h-8z"/><ellipse cx="20" cy="156" fill="#887f77" rx="9" ry="20"/><circle cx="131" cy="145" r="9" fill="#a09189"/><path fill="#a3a1a1" d="M251 152h5v40h-5z"/><path fill="#bab5b0" d="M28.6 152.3l18.2-15.1 33.9 24.6-19.7-9.9z"/><ellipse cx="233" cy="145" fill="#a59c96" rx="8" ry="10"/><path fill="#fff" d="M221 144l50-50L64-16z"/><path fill="#bfbab7" d="M193.4 161.4l-8.6-28.1 35.4 19.1-22.7-1.3z"/><path fill="#fff" d="M271-6L35 145-16-3z"/><circle r="1" fill="#fff" transform="matrix(5.1354 7.4294 -2.93873 2.03133 199.5 138.8)"/><path fill="#fff" d="M174 129L124 13l18 139zM56 63l-72 71 24 13z"/><path fill="#706a65" d="M162 156h89v3h-89z"/><path fill="#a79a90" d="M102 158l32-11 27 17z"/><circle r="1" fill="#afa6a0" transform="matrix(-2.94935 7.01229 -6.13266 -2.57938 70.1 142.7)"/><ellipse cx="85" cy="119" fill="#fff" rx="4" ry="28"/><circle cx="109" cy="151" r="5" fill="#fff"/><ellipse cx="66" cy="172" fill="#96897d" rx="22" ry="3"/><path fill="#b9b8b8" d="M0 174h254v18H0z"/><ellipse cx="31" cy="164" fill="#d4d4d0" rx="61" ry="1"/><path fill="#fff" d="M173 152l98-132-74-36z"/><path fill="#fff" d="M253.5-16L140.7 60.3l103.6 81.1 26.7 12z"/><path fill="#a6a5a5" d="M5 179l-21-47 22 18z"/><path fill="#aaa19c" d="M183 138h9v13h-9z"/><path fill="#ac9c93" d="M117 141h23v23h-23z"/><path fill="#aca6a2" d="M215 137l-9 6 14 21z"/><path fill="#a6a09c" d="M95.2 159.3l-9-15.6 8.6-5 9 15.6z"/><path fill="#fff" d="M140 70h10v84h-10z"/><path fill="#756c66" d="M94 152l-19 4 22 12z"/><path fill="#71665b" d="M34 165h14v4H34z"/><path fill="#d5d6d2" d="M171 164h84v1h-84z"/><path fill="#fff" d="M10 163l4 13-9-6z"/><path fill="#625f55" d="M162 160h3v10h-3z"/><circle cx="153" cy="169" r="4" fill="#fff"/><path fill="#9e938c" d="M117 145l33 25-21-41z"/><path fill="#fff" d="M33 148l21-79 34 27zm74.4 8l-9.3-30.7 10.5-3.2 9.3 30.6z"/><circle cx="103" cy="167" r="5" fill="#fff"/><path fill="#b8b9b6" d="M162 171h20l-3-7z"/><path fill="#786963" d="M210 162h13v6h-13z"/><path fill="#b9b3ae" d="M155.4 141.2l-7.9 17.8 14.2-7 7.8-8.7z"/><path fill="#837f7c" d="M211 155.5h-52v-3h52z"/><path fill="#fff" d="M224.7 144l-82.1-32.4 19.6-33.2 68.2 67.3z"/><path fill="#746d67" d="M9 155h31v9H9z"/><path fill="#a7a19d" d="M46.7 138.6l9.3 7.6-10.7 13.2-9.3-7.6z"/><path fill="#989491" d="M240 150h9v11h-9z"/><path fill="#ada7a2" d="M95 140l15 14-37-1z"/><path fill="#95a0a5" d="M127 120h2v12h-2z"/><path fill="#7e7671" d="M233.2 167.3l.6-15 11 .4-.6 15z"/><path fill="#b9b7b7" d="M1 174h192v18H1z"/><path fill="#fff" d="M0 0h127v135H0zm250.8 162l-1.7 8.8-4-.8 1.8-8.8z"/><path fill="#847970" d="M115 153l-2 17-4-14z"/><path fill="#82675a" d="M220 172h22v2h-22z"/><ellipse cx="128" cy="168" fill="#4b5552" rx="3" ry="4"/><ellipse cx="216" cy="170" fill="#b5b4ad" rx="31" ry="2"/><path fill="#5f5c55" d="M141 160h6v6h-6z"/><path fill="#a39d98" d="M235 134l-9 5 18 22z"/><path fill="#6d6762" d="M9 156h83v3H9z"/><path fill="#94938d" d="M113 169h32v5h-32z"/><path fill="#a7a19c" d="M101 144h4v20h-4z"/><path fill="#f8f8f7" d="M240.3 145.8l5-46.9 6.1 82.6-1.2-60.8z"/><ellipse cx="62" cy="173" fill="#81756c" rx="42" ry="1"/><path fill="#acaca9" d="M264 156l-2-15-16 13z"/><path fill="#b2b1ac" d="M67 177l7-3-23-15z"/><path fill="#fff" d="M79.3 128.2l-25 16.8-15.6-23.2 25-16.8z"/><path fill="#b1b3b3" d="M72.4 171l.3-4 21 2-.4 4z"/><path fill="#c6c2b6" d="M117 149h2v23h-2z"/><path fill="#6b625d" d="M221 155h20v6h-20z"/><path fill="#fff" d="M-16 144L7 40l6 102zm174.2-70.8l-61.3-5 48.9 79.7 9.6-1.2z"/><path fill="#87807a" d="M12 145l-5 16 12 7z"/><path fill="#acaaa9" d="M243 173h8v7h-8z"/></g></g></svg>