<svg xmlns="http://www.w3.org/2000/svg" viewBox="0 0 1400 1050"><defs/><filter id="a"><feGaussianBlur stdDeviation="12"/></filter><rect width="100%" height="100%" fill="#585858"/><g filter="url(#a)"><g fill-opacity=".5" transform="translate(2.7 2.7) scale(5.46875)"><circle cx="136" cy="97" r="198" fill="#fff"/><circle cx="91" cy="91" r="199" fill="#fff"/><circle cx="117" cy="150" r="212" fill="#fff"/><circle cx="59" cy="134" r="251" fill="#fff"/><circle r="1" fill="#cdcdcd" transform="matrix(97.5906 5.28532 -1.03787 19.1637 137 103.2)"/><path fill="#fff" d="M0 0h80v192H0z"/><circle cx="38" cy="100" r="23" fill="#d9d9d9"/><ellipse cx="149" cy="92" fill="#fff" rx="9" ry="191"/><circle cx="207" cy="27" r="55" fill="#fff"/><circle r="1" fill="#fff" transform="matrix(175.68197 11.98405 -3.04839 44.68833 166.3 166.1)"/><ellipse cx="23" cy="94" fill="#d2d2d2" rx="5" ry="70"/><path fill="#b9b9b9" d="M79 97h31v24H79z"/><path fill="#d5d5d5" d="M162 80h63v47h-63z"/><path fill="#b2b2b2" d="M118 93h24v26h-24z"/><ellipse cx="145" cy="18" fill="#fff" rx="255" ry="29"/><ellipse cx="255" cy="159" fill="#fff" rx="32" ry="133"/><path fill="#c1c1c1" d="M159 92h19v29h-19z"/><ellipse cx="112" cy="104" fill="#fff" rx="5" ry="27"/><ellipse cx="125" cy="175" fill="#fff" rx="196" ry="56"/><path fill="#fff" d="M190.5 87.5h7v29h-7z"/><path fill="#dadada" d="M25 108h38v15H25z"/><ellipse cy="101" fill="#fff" rx="21" ry="114"/><path fill="#fff" d="M60.3 84.3l18 .4-.6 31-18-.4z"/><path fill="#fff" d="M60 86h163v5H60z"/><path fill="#bbb" d="M193 117h25v7h-25z"/><path fill="#d5d5d5" d="M20 25h6v75h-6z"/><ellipse cx="149" cy="108" fill="#fff" rx="7" ry="24"/><ellipse cx="155" cy="9" fill="#fff" rx="144" ry="28"/><path fill="#e2e2e2" d="M20 120h9v41h-9z"/><path fill="#9b9b9b" d="M171 119h20v2h-20zm-91-2h28v3H80z"/><path fill="#f2f2f2" d="M28 77l38 1-35 40z"/><circle r="1" fill="#f7f7f7" transform="matrix(1.68566 -14.12358 61.61368 7.35364 137 135.3)"/><ellipse cx="181" cy="106" fill="#b2b2b2" rx="2" ry="16"/><ellipse cx="187" cy="53" fill="#fefefe" rx="44" ry="30"/><path fill="#a7a7a7" d="M214 123h12v3h-12z"/><path fill="#e6e6e6" d="M108 75.2l-9-4.3 13-28 9 4.2z"/><path fill="#fff" d="M271 90L237-14l-2 203z"/><path fill="#c3c3c3" d="M80 92h27v6H80z"/><circle r="1" fill="#fbfbfb" transform="matrix(52.74221 -.65069 .18063 14.64148 177.7 136.4)"/><path fill="#c6c6c6" d="M159 83h55v2h-55z"/><path fill="silver" d="M25 56h2v48h-2z"/><path fill="#fff" d="M192 84h33v4h-33z"/><circle r="1" fill="#b3b3b3" transform="rotate(-86.6 92.8 -7.7) scale(1 17.35507)"/><path fill="#fefefe" d="M58 68l56-13-86-35z"/><ellipse cx="66" cy="106" fill="#fff" rx="7" ry="21"/><path fill="#e9e9e9" d="M114 57h5v84h-5z"/><path fill="#e0e0e0" d="M115 142h22v4h-22z"/><path fill="#d8d8d8" d="M25 117h36v7H25z"/><path fill="#d5d5d5" d="M208 89h19v21h-19z"/><path fill="#e5e5e5" d="M20 18h7v38h-7z"/><path fill="#bcbcbc" d="M120 92l1 12 20-13z"/><circle cx="136" cy="116" r="4" fill="#aaa"/><ellipse cx="201" cy="143" fill="#f2f2f2" rx="21" ry="6"/><path fill="#c8c8c8" d="M24 82h42v2H24z"/><path fill="#fff" d="M109 64h4v116h-4z"/><path fill="#ddd" d="M132 54L93 71l17-14z"/><ellipse cx="135" cy="104" fill="#fff" rx="1" ry="12"/><circle r="1" fill="#fff" transform="matrix(5.86683 2.73575 -11.1703 23.95478 10.8 105)"/><circle r="1" fill="#fff" transform="matrix(-133.87547 11.09241 -2.40684 -29.04845 126.7 177.2)"/><path fill="#f0f0f0" d="M166.8 111.4l-3.5 7.5.8-27.5-.2-34.9z"/><ellipse cx="147" cy="106" fill="#fff" rx="7" ry="22"/><ellipse cx="130" cy="99" fill="#f5f5f5" rx="54" ry="1"/><path fill="#e5e5e5" d="M168.4 135.9l-16.9-6.2 2-5.6 17 6.2z"/><path fill="#afafaf" d="M205.2 123.4l-30.7-4.8.3-2 30.7 4.8z"/><circle cx="135" cy="117" r="2" fill="#757575"/><path fill="#ebebeb" d="M232 91.8l4-12.6-34.3-6.7 22.8 11.3z"/><path fill="#919191" d="M115 85h28v1h-28z"/><ellipse cx="178" cy="105" fill="#ececec" rx="2" ry="14"/><circle r="1" fill="#fbfbfb" transform="matrix(-34.8302 -1.70348 .13588 -2.77834 72 87.6)"/><path fill="#fff" d="M27 75h71v6H27z"/><path fill="#aaa" d="M208 110h3v6h-3z"/><path fill="#e3e3e3" d="M166 48.5l-.1 1-45.9-4 .1-1z"/><path fill="#c4c4c4" d="M157 95h6v25h-6z"/><path fill="#f7f7f7" d="M212 89h2v23h-2z"/><path fill="#f9f9f9" d="M117 91h2v24h-2z"/><path fill="#fefefe" d="M113.7 62.7l54.9 20.9-50.4-2.1 42.3-34.8z"/><ellipse cx="2" cy="95" fill="#fff" rx="18" ry="158"/><path fill="#8d8d8d" d="M92 106l3-6-3 1z"/><ellipse cx="85" cy="99" fill="#f2f2f2" rx="1" ry="18"/><path fill="#ccc" d="M213 80h24v2h-24z"/><path fill="silver" d="M87 121l-6-9-4 7z"/><ellipse cx="50" cy="86" fill="#fff" rx="28" ry="2"/><path fill="#b3b3b3" d="M124 93h4v22h-4z"/><path fill="#818181" d="M119.8 103l1.5-2.5.9.5-1.5 2.5z"/><path fill="#fafafa" d="M108.3 85.1L54.5 43l18.7 50.9-22.8-21z"/><ellipse cx="184" cy="84" fill="silver" rx="25" ry="1"/><path fill="#b2b2b2" d="M225 98l-5 5 2 5z"/><path fill="#fafafa" d="M192 46h5v72h-5z"/><path fill="#f2f2f2" d="M75 86h5v28h-5z"/><path fill="#d7d7d7" d="M176 116h39v3h-39z"/><ellipse cx="171" cy="108" fill="#fbfbfb" rx="1" ry="20"/><path fill="#fcfcfc" d="M22 124l116 33-51-37z"/><path fill="#f3f3f3" d="M226 83h9v43h-9z"/><path fill="#cfcfcf" d="M191.1 100.6l-1.9 14.6-2.9-12.9.7-21z"/><path fill="#f1f1f1" d="M210.7 103.3l-2.4 3.1-15-11.7 2.4-3.1z"/><path fill="#c2c2c2" d="M23.6 69.2l-4-11.3 2.8-1 4 11.2z"/><ellipse cx="150" cy="88" fill="#fefefe" rx="33" ry="2"/><path fill="#fff" d="M158.7 99l.3 16.6-10.3-.7-4.1-34.9zM255 23L131-16 0 19z"/></g></g></svg>