<svg xmlns="http://www.w3.org/2000/svg" viewBox="0 0 1200 900"><defs/><filter id="a"><feGaussianBlur stdDeviation="12"/></filter><rect width="100%" height="100%" fill="#4e372b"/><g filter="url(#a)"><g fill-opacity=".5" transform="translate(2.3 2.3) scale(4.6875)"><circle cx="48" cy="100" r="170" fill="#d8f3fb"/><ellipse cx="12" cy="131" fill="#fff" rx="32" ry="191"/><circle r="1" fill="#131004" transform="matrix(19.81233 -73.94063 31.85785 8.53628 148.3 46.9)"/><path fill="#fffffb" d="M180 44h36v40h-36z"/><circle r="1" fill="#f9ffff" transform="matrix(-37.7592 -1.52525 8.60679 -213.07003 0 152)"/><circle cx="189" cy="136" r="58" fill="#70625a"/><circle r="1" fill="#625a40" transform="matrix(22.81218 8.07822 -25.11266 70.91597 97.5 18.6)"/><ellipse cx="61" cy="147" fill="#aec4d6" rx="24" ry="60"/><circle r="1" fill="#575a4c" transform="matrix(.79357 35.25432 -23.20732 .5224 204.2 15.2)"/><ellipse cx="121" cy="180" fill="#000705" rx="71" ry="4"/><path fill="#202c30" d="M111 48h70v46h-70z"/><ellipse cx="109" cy="164" fill="#b3c2db" rx="74" ry="11"/><ellipse cx="238" cy="64" fill="#272f2c" rx="24" ry="111"/><path fill="#5b7c8b" d="M13 110h10v36H13z"/><circle r="1" fill="#fffffb" transform="matrix(.47646 -7.4568 5.56328 .35547 105.5 57.8)"/><ellipse cx="108" cy="113" fill="#978781" rx="22" ry="27"/><path fill="#fff" d="M183 54h18v32h-18z"/><path fill="#949183" d="M160 183h95v9h-95z"/><circle r="1" fill="#fff" transform="matrix(21.63527 -4.6951 8.42307 38.81404 14.1 59.6)"/><ellipse cx="27" cy="3" fill="#fafbfa" rx="25" ry="16"/><ellipse cx="27" cy="191" fill="#b7ddff" rx="33" ry="27"/><path fill="#335570" d="M14 148l-18 4 32-20z"/><path fill="#78948f" d="M41 51l-5 77 19-17z"/><path fill="#79655d" d="M190.2 131.1l.7-21 77 2.8-.8 21z"/><path fill="#ffffdf" d="M102 47h8v32h-8z"/><circle r="1" fill="#756e62" transform="matrix(5.0858 -12.824 27.70477 10.9873 198.2 30.3)"/><circle r="1" fill="#fff" transform="rotate(91.1 -64.7 92.3) scale(18.09823 16.50003)"/><circle cx="159" cy="110" r="22" fill="#8e776c"/><circle r="1" fill="#697371" transform="matrix(1.25397 -2.54313 49.9955 24.65178 48 36)"/><path fill="#567e91" d="M149 50h31v12h-31z"/><ellipse cx="255" cy="69" fill="#060f10" rx="17" ry="29"/><circle r="1" fill="#9f9698" transform="rotate(-172 60.8 65) scale(57.65738 17.71048)"/><path fill="#8a9096" d="M212 154.7l-1 22-27-1.4 1-22z"/><circle r="1" fill="#6b6755" transform="rotate(-135.9 70 -16.5) scale(18.6852 33.58817)"/><ellipse cx="81" cy="69" fill="#4d4a3f" rx="8" ry="24"/><circle r="1" fill="#56351d" transform="rotate(-115.9 167.2 3.4) scale(29.75879 26.10152)"/><ellipse cx="36" cy="101" fill="#9db7be" rx="21" ry="7"/><path fill="#fff" d="M181.7 61.6l-.4-10 33-1.2.4 10z"/><path fill="#6c6c60" d="M52 75h60v14H52z"/><ellipse cx="198" cy="178" fill="#2a1c12" rx="117" ry="2"/><ellipse cx="203" cy="67" fill="#6c6f61" rx="2" ry="44"/><ellipse cx="70" cy="189" fill="#a3b7cf" rx="70" ry="8"/><path fill="#854e27" d="M250.3 179l-36.6-15.4-4 10.1-.5 18z"/><path fill="#afc4bf" d="M13 47h11v28H13z"/><path fill="#5e6c6b" d="M56.3 174.7l30 1.6-.6 9-30-1.6z"/><path fill="#b7b39d" d="M180 78h32v13h-32z"/><ellipse cx="183" fill="#574f3c" rx="43" ry="23"/><circle r="1" fill="#978b72" transform="matrix(33.823 7.04906 -2.46242 11.81527 79.4 4.8)"/><path fill="#fff" d="M22.2 125.2l-.4-18 18-.4.4 18z"/><ellipse cx="2" cy="73" fill="#fff" rx="14" ry="29"/><path fill="#f1f8f3" d="M-16 22l76.3 31.3-4.5 8.9L30.9 27z"/><path fill="#6d7975" d="M43 113.3l62.7-50.9-63.9 62.5-2.9-70z"/><path fill="#97b1c2" d="M98.1 87.5l-80.3 51.8 34.6-10.7-14-8.8z"/><path fill="#434341" d="M214 66h14v45h-14z"/><path fill="#2d2e2c" d="M116 60h60v30h-60z"/><ellipse cx="195" cy="41" fill="#9b9584" rx="21" ry="7"/><path fill="#8d9282" d="M162 181h44v11h-44z"/><path fill="#6a6c69" d="M58 17h59v30H58z"/><circle r="1" fill="#afcddc" transform="matrix(-36.1791 12.31734 -2.40434 -7.06213 2.5 111)"/><path fill="#3c4248" d="M80 176h73v9H80z"/><circle r="1" fill="#8a7f74" transform="matrix(-19.61968 -20.31677 7.27458 -7.02498 107.4 99)"/><path fill="#b9a685" d="M95 47h9v37h-9z"/><path fill="#93ac9a" d="M38 41h14v43H38z"/><path fill="#f4ffff" d="M0 120h15v22H0z"/><path fill="#d7e8dd" d="M41.7 100.5l7.4 4.9 17.6-13.3-1.4-7.4z"/><path fill="#f0faff" d="M23.5 160.3l-34.7 24.1L0 155.9l50.1-32.4z"/><ellipse cx="180" cy="162" fill="#8b8a8d" rx="31" ry="11"/><path fill="#030c0d" d="M123 178h79v2h-79z"/><path fill="#ab8a7c" d="M129 72h10v6h-10z"/><ellipse cx="177" cy="102" fill="#766e60" rx="13" ry="18"/><path fill="#fff" d="M40 84L24 25v72z"/><path fill="#a6a5a7" d="M40 130h61v28H40z"/><path fill="#fcffff" d="M208.1 52.7l4.4-4.1 1.1 16.9-33.6-9.4z"/><path fill="#373932" d="M111 37l46 11-43 20z"/><path fill="#a6a6b5" d="M122 158h39v19h-39z"/><path fill="#475c6a" d="M38.3 128.4l-46 30-.6-.8 46-30z"/><path fill="#fff" d="M-16 10l14 96 21-84zm44 22h10v52H28z"/><path fill="#4b3525" d="M271 197l-58-73-1 37z"/><path fill="#68675e" d="M114 18h100v19H114z"/><path fill="#716868" d="M234.6 109l-17.5 17.1-8.4 40.9-29.3-28.9z"/><path fill="#c3d2af" d="M51 52l13 22-2-28z"/><path fill="#bad6f2" d="M-16 180.4l88.7-5.3-30.2-20.9 9.4 40.9z"/><path fill="#626256" d="M98.2 14.5l-35 87.7L65 69l17.4 21.8z"/><path fill="#acb2a9" d="M47.8 1.5l17.8 11.1-7.4 11.9-17.8-11.1z"/><path fill="#b0ac99" d="M201.7 89l-3.4 7.3-20-9.3 3.4-7.3z"/><ellipse cx="71" cy="35" fill="#868a80" rx="4" ry="41"/><path fill="#757c70" d="M203 33h3v54h-3z"/><circle r="1" fill="#99a7ae" transform="rotate(97.8 -39.4 128.8) scale(3.36442 25.46332)"/><path fill="#f4f9f4" d="M200 47l-20 1 33 14z"/><ellipse cx="160" cy="55" fill="#547b92" rx="20" ry="3"/><circle r="1" fill="#ffe" transform="rotate(24.9 -95 273) scale(2.66727 9.26316)"/><path fill="#667f6e" d="M50 61h7v31h-7z"/><path fill="#f7fbfe" d="M-9 158l48-21 1 39z"/><path fill="#73807f" d="M25.7 99.9l-.3-1 26.9-10.8.3 1z"/><circle r="1" fill="#1b2020" transform="rotate(20.4 -47.4 723) scale(25.04799 16.49635)"/><path fill="#696960" d="M76.3 14l24.6 35.1L54 .2 44.6-16z"/><path fill="#8ca9b6" d="M22 45h1v53h-1z"/><circle r="1" fill="#a7bdcc" transform="matrix(-5.71817 -4.95323 20.95744 -24.19393 60 118)"/><path fill="#bab7a7" d="M206 79h8v19h-8z"/></g></g></svg>