<svg xmlns="http://www.w3.org/2000/svg" viewBox="0 0 1200 900"><defs/><filter id="a"><feGaussianBlur stdDeviation="12"/></filter><rect width="100%" height="100%" fill="#4e372b"/><g filter="url(#a)"><g fill-opacity=".5" transform="translate(2.3 2.3) scale(4.6875)"><circle r="1" fill="#d8f2f9" transform="rotate(3.6 -1612 1519.4) scale(123.96584 185.269)"/><path fill="#fff" d="M-16-2l52-2.7L46 186l-52 2.7z"/><path fill="#141004" d="M191.5-14.2l-17.7 125.8-67.3-9.4 17.7-125.8z"/><path fill="#fff" d="M180 44h35v37h-35z"/><circle r="1" fill="#edffff" transform="rotate(80 -47 50) scale(211.6857 33.14881)"/><path fill="#73645c" d="M250.4 198.5l-92.7 24.8-32.1-119.8 92.7-24.8z"/><circle r="1" fill="#655c43" transform="matrix(-24.26135 65.42606 -21.59162 -8.00663 95.6 25.6)"/><path fill="#605e4f" d="M228.8-16l-16.9 66.1-36.8-6-127.5 1.3z"/><ellipse cx="153" cy="180" fill="#1a170d" rx="98" ry="4"/><ellipse cx="77" cy="165" fill="#c3d4f0" rx="101" ry="10"/><ellipse cx="106" cy="62" fill="#fffffb" rx="5" ry="17"/><circle r="1" fill="#9cafbc" transform="matrix(-12.02367 -67.3757 20.0779 -3.58304 59.4 141.6)"/><ellipse cx="142" cy="68" fill="#1d272c" rx="33" ry="25"/><circle r="1" fill="#16292c" transform="matrix(23.66006 -62.31197 32.87451 12.48256 255 47.6)"/><ellipse cx="15" fill="#fff" rx="27" ry="100"/><path fill="#516e81" d="M24 139L4 149l15-37z"/><circle r="1" fill="#fffdea" transform="rotate(81.3 56 146.6) scale(27.4563 8.55982)"/><circle r="1" fill="#4e483a" transform="rotate(122.2 93.7 59) scale(13.83235 58.89963)"/><circle r="1" fill="#677479" transform="rotate(113.7 -.6 12.8) scale(1.81656 62.17381)"/><path fill="#7b6c63" d="M100 91h137v32H100z"/><ellipse cx="197" cy="191" fill="#928f84" rx="58" ry="11"/><path fill="#513218" d="M212 133h44v53h-44z"/><path fill="#6f766b" d="M34.3 96.3l12 35.5.7-33.1L163.3-16z"/><circle cx="22" cy="161" r="18" fill="#fff"/><path fill="#5990ae" d="M152 53h28v8h-28z"/><ellipse cx="143" cy="152" fill="#9996a0" rx="33" ry="25"/><circle r="1" fill="#a4bfe3" transform="matrix(-107.5166 -2.4399 .15852 -6.9855 59.8 190.7)"/><path fill="#0c1418" d="M96 177h109v4H96z"/><path fill="#f3ffff" d="M42.2 98.5l20.2-11.1 3.4 6-20.2 11.2z"/><path fill="#3d4d53" d="M56.4 182.4l.5-7.9 32.8 2.1 6.6 2.5z"/><path fill="#4d4a3f" d="M75 45h13v45H75z"/><path fill="#2f3331" d="M112 59h69v31h-69z"/><path fill="#a1b7c6" d="M28.7 133.3l-15.3 8.6 72.1-25.2-4.4-26.8z"/><ellipse cx="204" cy="80" fill="#777a61" rx="3" ry="20"/><circle cx="98" r="40" fill="#807a6b"/><circle cy="131" r="15" fill="#faffff"/><path fill="#3e5c74" d="M6 152.5l-22 5.9 51.5-28.8-11.7 8.4z"/><path fill="#d1d9d4" d="M39.4-16l-4.9 34.2L59 14.1l-13.3-24z"/><path fill="#fff" d="M183.8 61.5l.4-10 30 1-.4 10z"/><path fill="#855a3d" d="M223.9 185.6L209.4 207l-3.8-43.4 65.4 25.9z"/><circle r="1" fill="#3f3239" transform="rotate(92.5 19.8 113.6) scale(25.98115 4.6378)"/><path fill="#8b9195" d="M157 157h54v18h-54z"/><ellipse cx="196" cy="35" fill="#847e71" rx="23" ry="13"/><path fill="#87a095" d="M38 18h14v69H38z"/><path fill="#e8e4c7" d="M206 61h8v32h-8z"/><path fill="#282b29" d="M215 50h41v62h-41z"/><path fill="#645e5a" d="M271 114.4l-40.3-3.2-44.5 25.1 67.7-5.3z"/><path fill="#7c796f" d="M111.3 106.4l17.4-5.9-19.3-16.2-75-11.1z"/><path fill="#a6c2d2" d="M-16 113.1l60.6-24.2-32.4 34.2-14.4-5.7z"/><path fill="#3a3c31" d="M133 43l-21-2-1 36z"/><path fill="#acbfbc" d="M14.7 46h9l-.4 28h-9z"/><path fill="#c6d5b4" d="M49.3 50.1l1.9-2.8L62 46.1l3.2 30.5z"/><path fill="#6b716e" d="M36.5 27.1l-2.6 3L67 53.6 148.1 13z"/><path fill="#ffffd9" d="M111 46l-11 10 6 16z"/><path fill="#b6daff" d="M43 201l-59-26 69-6z"/><ellipse cx="8" cy="81" fill="#fff" rx="31" ry="19"/><path fill="#0e110e" d="M260.3 40.7l13.5 50.2-24.1 6.4-13.5-50.2z"/><circle cx="30" cy="118" r="9" fill="#fff"/><path fill="#aaa8ad" d="M39.9 153.9l7.9-34.1L110 134l-7.9 34.1z"/><path fill="#474846" d="M215 17.5h12v89h-12z"/><ellipse cx="101" cy="177" fill="#2e333e" rx="29" ry="2"/><path fill="#63797c" d="M92.6 72.4L76.4 89.5l-31.5 19.8-10.5 22.5z"/><path fill="#a58576" d="M128.6 70.3l9 .4-.2 7-9-.4z"/><circle r="1" fill="#847672" transform="matrix(-13.86383 14.58547 -31.00217 -29.46828 173.6 126.1)"/><path fill="#60594a" d="M200.6 43.5L155.3-16l58.3 29.5-9.8 45.8z"/><path fill="#fff" d="M29 31L-8 8l-8 80z"/><path fill="#fafeff" d="M42 127l-58 44 50-2z"/><path fill="#bba377" d="M93 46h11v20H93z"/><ellipse cx="246" cy="156" fill="#3a2e24" rx="34" ry="14"/><path fill="#929483" d="M161 180h28v12h-28z"/><path fill="#83908e" d="M23 117l-6 22-3-28z"/><path fill="#9b9989" d="M174 86l30-11 11 30z"/><path fill="#9f9175" d="M104.4-13.6l7 24-31.8 9.2-7-24z"/><circle r="1" fill="#2c2e28" transform="rotate(135 120.9 52.2) scale(36.72267 14.35962)"/><path fill="#fff" d="M180.3 72.5l9.9-26.5 23.1 19.5.5-17.2z"/><path fill="#958b85" d="M130.8 159.1l-50-69.3 15.8-18.6 11.9 2.8z"/><path fill="#a6b7ca" d="M40 153h85v23H40z"/><path fill="#aec1cb" d="M21 21h3v84h-3z"/><ellipse cx="31" cy="57" fill="#fff" rx="7" ry="29"/><circle r="1" fill="#fffffe" transform="matrix(25.31022 .6879 -.09945 3.65913 22.9 40.7)"/><path fill="#605f55" d="M110 17h65v30h-65z"/><path fill="#f7f3df" d="M182 39h4v43h-4z"/><path fill="#56564c" d="M53.2 84.5l42.5-18.8-5.7 14-4.8 5.2z"/><path fill="#aaafa8" d="M72 25h2v44h-2z"/><path fill="#383231" d="M104.5 88.4l37.8 10.4.3-9.5-25-16.9z"/><path fill="#969687" d="M185.9 32.9L177.1 45l39.9-2.9-12 12.7z"/><path fill="#4b6678" d="M41 126.3l-13.5 10.2-.6-.8 13.6-10.2z"/><path fill="#a3aab8" d="M166 176l-41-20-39 17z"/><path fill="#aac4d6" d="M44.6 138l-7.5-8 34.3-32 7.5 8z"/><path fill="#94a1a9" d="M32.7 29.5l23.8 1.8-69.7-22.9 15.5 6.2z"/><path fill="#fffffd" d="M24 110.3l15.8-5.6-3.5 22.4-12.7 9z"/><path fill="#444337" d="M187.7 13.2L207.8-16l30.4 1.9-19 36.3z"/><ellipse cx="65" cy="71" fill="#55615b" rx="2" ry="32"/><path fill="#a09492" d="M156.6 147.1l-91.9-1.8 3.8-31 65.7 8.6z"/><path fill="#716d70" d="M161 137h51v16h-51z"/><path fill="#788c83" d="M33 106l32-25-11-23z"/><path fill="#4e3a27" d="M207.1 184.3l-4.9-11.3 17.7 20.4 2.8 13.6z"/><path fill="#fff" d="M56 46l3 11-4-1z"/><path fill="#a4b5a6" d="M38 46h11v38H38z"/><path fill="#6a6b64" d="M50.4-8.9l44 60.9-67.5-20.4 81.9 14z"/></g></g></svg>