<svg xmlns="http://www.w3.org/2000/svg" viewBox="0 0 1400 1050"><defs/><filter id="a"><feGaussianBlur stdDeviation="12"/></filter><rect width="100%" height="100%" fill="#444"/><g filter="url(#a)"><g fill-opacity=".5" transform="translate(2.7 2.7) scale(5.46875)"><circle r="1" fill="#cdcdcd" transform="matrix(91.38719 126.24645 -42.08395 30.4637 237 26.5)"/><circle cx="28" cy="139" r="152" fill="#151515"/><path fill="#f7f7f7" d="M134.1 138.6l1.1 9.9-86.6-26.2-36.3-20.7z"/><circle cx="175" cy="75" r="58" fill="#5d5d5d"/><circle cx="235" cy="23" r="34" fill="#bbb"/><circle r="1" fill="#b3b3b3" transform="matrix(-4.925 25.10293 -4.76079 -.93403 19.8 56.1)"/><ellipse cx="8" cy="111" fill="#020202" rx="29" ry="46"/><circle r="1" fill="#6c6c6c" transform="matrix(92.7332 123.2126 -18.87259 14.20403 219 77.8)"/><circle cx="67" cy="168" r="39" fill="#060606"/><path fill="#fff" d="M48 0l12.8-2L62 6 49.2 8z"/><ellipse cx="178" cy="171" fill="#1d1d1d" rx="30" ry="48"/><path fill="#7f7f7f" d="M17 20L9-16l-19 81z"/><path fill="#cacaca" d="M20 112h26v6H20z"/><ellipse cx="101" cy="8" fill="#111" rx="21" ry="45"/><ellipse cx="142" cy="165" fill="#0f0f0f" rx="30" ry="21"/><circle r="1" transform="matrix(1.5222 -7.0245 44.68662 9.68348 115.5 123.5)"/><path fill="#747474" d="M29.8 155.6l-12.5 13.2 21.3 29.6-6.1 6.1z"/><circle r="1" fill="#c7c7c7" transform="matrix(21.15094 4.14965 -.53717 2.73798 53.4 120)"/><path fill="#f2f2f2" d="M10 19l3 9V17z"/><path fill="#0f0f0f" d="M-14 130L-1 25l50 153z"/><path fill="#9b9b9b" d="M73 26h8v13h-8z"/><path fill="#c7c7c7" d="M17 36h8v18h-8z"/><path fill="#7c7c7c" d="M64.9 57.8l14.2.1-8.7 8.2L58 64.7z"/><circle r="1" fill="#030303" transform="rotate(-90.6 41.7 -.9) scale(44.24696 4.78088)"/><ellipse cx="255" cy="32" fill="#bdbdbd" rx="15" ry="43"/><circle r="1" fill="#8b8b8b" transform="rotate(-39.7 173 -281.4) scale(15.49477 41.2787)"/><circle r="1" fill="#111" transform="matrix(3.49623 10.44913 -29.60045 9.90417 42.6 99.6)"/><path fill="#5b5b5b" d="M153 111h20v30h-20z"/><path fill="#ddd" d="M90.5 124l43.3 18.4-2.3 5.5-43.3-18.3z"/><circle cx="100" cy="155" r="16" fill="#080808"/><circle r="1" fill="#292929" transform="matrix(-27.41477 -3.5002 2.66622 -20.88277 245.7 191)"/><circle r="1" fill="#b8b8b8" transform="matrix(25.70035 10.10297 -1.87782 4.77686 77 126)"/><circle cx="228" cy="100" r="19" fill="#525252"/><circle cx="25" cy="14" r="3" fill="#f6f6f6"/><path fill="#3f3f3f" d="M48 172h94v9H48z"/><path d="M6 18L9 4l29-9z"/><ellipse cx="23" cy="191" rx="16" ry="7"/><ellipse cx="113" cy="191" fill="#030303" rx="31" ry="9"/><ellipse cx="103" cy="49" fill="#202020" rx="39" ry="18"/><path fill="#bababa" d="M112.8 137.4l20 6.5-1.6 4.7-20-6.5z"/><path fill="#666" d="M223 106h33v47h-33z"/><ellipse cx="49" cy="21" fill="silver" rx="2" ry="5"/><ellipse cx="33" cy="24" rx="5" ry="13"/><circle r="1" fill="#a4a4a4" transform="matrix(-1.2239 -1.45883 18.37373 -15.41487 13.7 0)"/><path fill="#2b2b2b" d="M190 82l6 38-20-13z"/><path fill="#373737" d="M139 89.6l-5.4 30.5-32.5-5.7 5.3-30.5z"/><path fill="#070707" d="M106 124l53 10-29 5z"/><path fill="#050505" d="M212.2 122.7l2.8-14.9-7.3-4.9 6.6 22.3z"/><path fill="#0d0d0d" d="M33.4 163.4L-16 144l9.8 52.6 39.6-54.5z"/><circle cx="77" cy="90" r="27" fill="#1e1e1e"/><ellipse cx="28" cy="136" fill="#2f2f2f" rx="25" ry="9"/><path fill="#f9f9f9" d="M19 13.3l-1 6-3-.6 1-6z"/><path d="M186.7 152l-1.7 9.8-21.7-3.8 1.7-9.8z"/><path fill="#696969" d="M47 46h4v35h-4z"/><circle r="1" fill="#4e4e4e" transform="matrix(-2.0033 -1.99004 49.5239 -49.8541 161 186)"/><circle r="1" fill="#020202" transform="matrix(6.25184 -7.47711 13.91807 11.63731 70 146.2)"/><path fill="#3b3b3b" d="M20 59l18 20 2-53z"/><path fill="#b0b0b0" d="M31 49l-9-6-16 7z"/><path fill="#434343" d="M87 163l23.2 11.8-3.2 6.2-23.2-11.8z"/><circle r="1" fill="#4d4d4d" transform="rotate(78.5 -23.8 27.8) scale(2.24843 32.15375)"/><path fill="#676767" d="M263.9 41.3l-21.1-3.8 6.9-1.5 21-16z"/><path fill="#b4b4b4" d="M51 13L64 3 50-4z"/><path fill="#8f8f8f" d="M20 163h8v13h-8z"/><circle r="1" fill="#303030" transform="rotate(-152.4 68 31.4) scale(22.23796 15.17301)"/><circle r="1" fill="#b5b5b5" transform="matrix(2.48008 -11.74366 35.0199 7.39566 226.2 0)"/><circle cx="68" cy="60" r="4" fill="#959595"/><path fill="#959595" d="M3 0h2v32H3z"/><path fill="#0f0f0f" d="M94 40L69 57 50 35z"/><path d="M182.6 123.2l-1.2 16-6-.4 1.2-16z"/><ellipse cx="17" cy="110" fill="#0b0b0b" rx="29" ry="3"/><circle cx="153" cy="13" r="20" fill="#585858"/><circle r="1" fill="#1d1d1d" transform="matrix(-9.57094 20.65297 -10.5969 -4.91078 138.8 157.1)"/><path fill="#191919" d="M29.1 6.7l-2.2 47.2L47.4 6 72 12.5z"/><circle r="1" fill="#252525" transform="matrix(-1.76127 6.76164 -51.9069 -13.52074 30.2 81.5)"/><path fill="#d5d5d5" d="M7 30h3v7H7z"/><circle r="1" fill="#545454" transform="rotate(47.9 -60.4 280.4) scale(3.10388 14.93064)"/><circle r="1" fill="#2b2b2b" transform="rotate(-71.2 176 -98.4) scale(9.56379 4.2343)"/><ellipse cx="255" cy="114" fill="#7e7e7e" rx="17" ry="15"/><path fill="#202020" d="M185 138l-2 21 43-46z"/><path fill="#060606" d="M32 63l5-21-15 16z"/><path d="M10 179h11v13H10z"/><path fill="#141414" d="M72 133h17v59H72z"/><path fill="#1e1e1e" d="M-2.5-16l7.2 31.2-5 8.9L-1-16z"/><circle r="1" fill="#363636" transform="matrix(4.60715 -24.92947 9.46087 1.74844 140.9 59.4)"/><path fill="#191919" d="M40 13l51-5-20 19z"/><path fill="#010101" d="M-3 134l40-10-46-25z"/><path fill="#b6b6b6" d="M2.4 15.7L13.7-16h11.5-1.3z"/><ellipse cx="137" cy="111" fill="#4d4d4d" rx="30" ry="9"/><circle r="1" fill="#2d2d2d" transform="matrix(-11.66895 29.74114 -10.55234 -4.14021 116.6 26.9)"/><path fill="#929292" d="M85 34.7l-.1 1L63 33.2l.1-1z"/><path fill="#373737" d="M125 151h29v9h-29z"/><path fill="#d6d6d6" d="M19 114h37v2H19z"/><path fill="#454545" d="M152 212.7l97-78.7 19 23.3-97.2 78.7z"/><path fill="#262626" d="M155.2 88.4l14.5 20.1-22.5-4.2L163 81z"/><path fill="#8b8b8b" d="M191.8 8.9l56.6 74.9-43.6 42.9 57.7-48.2z"/><circle r="1" fill="#060606" transform="matrix(3.01616 1.94378 -6.31668 9.80156 7 55.6)"/><path fill="#0a0a0a" d="M-8 134l-11.8-25.3L12 94l11.9 25.4z"/><path fill="#484848" d="M127 11h8v38h-8z"/><path fill="#040404" d="M35 154h13v38H35z"/><path fill="#050505" d="M130 160.3l-3.8 15.5-24.3-6 4-15.6z"/></g></g></svg>