<svg xmlns="http://www.w3.org/2000/svg" viewBox="0 0 1400 1050"><defs/><filter id="prefix__a"><feGaussianBlur stdDeviation="12"/></filter><rect width="100%" height="100%" fill="#344235"/><g filter="url(#prefix__a)"><g transform="translate(2.7 2.7) scale(5.46875)"><circle cx="150" cy="70" r="198" fill="#fff" fill-opacity=".5"/><circle cx="150" cy="40" r="214" fill="#fff" fill-opacity=".5"/><ellipse cx="140" cy="27" fill="#fff" fill-opacity=".5" rx="255" ry="40"/><circle cx="36" cy="191" r="79" fill="#fff" fill-opacity=".5"/><ellipse cx="107" cy="82" fill="#998379" fill-opacity=".5" rx="71" ry="29"/><circle r="1" fill="#fff" fill-opacity=".5" transform="matrix(148.57337 -125.1104 25.72878 30.55391 223.3 166)"/><circle cx="219" cy="37" r="53" fill="#fff" fill-opacity=".5"/><circle r="1" fill="#a48b7e" fill-opacity=".5" transform="matrix(35.69894 -5.4627 3.7349 24.40763 192.4 106)"/><circle r="1" fill="#fff" fill-opacity=".5" transform="rotate(-122.5 33.9 -5) scale(38.00626 138.12269)"/><path fill="#fff" fill-opacity=".5" d="M164 179l-41.3 77.7L-46 167l41.3-77.7z"/><ellipse cx="139" cy="127" fill="#b39f94" fill-opacity=".5" rx="63" ry="27"/><circle r="1" fill="#fff" fill-opacity=".5" transform="matrix(-122.5373 98.05243 -23.39558 -29.23774 233.6 155)"/><circle r="1" fill="#fff" fill-opacity=".5" transform="matrix(-10.49174 27.74215 -165.92905 -62.75235 169.2 38.7)"/><path fill="#ac998e" fill-opacity=".5" d="M101.4 111l-12.7 26.1L18.6 103l12.7-26z"/><circle r="1" fill="#fff" fill-opacity=".5" transform="matrix(27.71972 -71.14044 18.37536 7.15992 24.6 33.2)"/><ellipse cx="99" cy="70" fill="#ab9f99" fill-opacity=".5" rx="29" ry="25"/><ellipse cx="98" cy="182" fill="#fff" fill-opacity=".5" rx="46" ry="32"/><circle r="1" fill="#fff" fill-opacity=".5" transform="matrix(15.51655 -19.40958 56.96753 45.54142 31.5 139.6)"/><circle cx="223" cy="165" r="39" fill="#fff" fill-opacity=".5"/><circle r="1" fill="#c1bbb8" fill-opacity=".5" transform="matrix(25.73768 -.30945 .45526 37.8648 78.5 93.3)"/><ellipse cx="148" cy="143" fill="#b6a395" fill-opacity=".5" rx="34" ry="20"/><ellipse cx="191" cy="30" fill="#fff" fill-opacity=".5" rx="86" ry="36"/><path fill="#958075" fill-opacity=".5" d="M114 58h26v30h-26z"/><circle r="1" fill="#fff" fill-opacity=".5" transform="rotate(-155.1 135.4 9.2) scale(104.58954 26.03133)"/><circle r="1" fill="#fff" fill-opacity=".5" transform="rotate(164.6 9.5 26.7) scale(59.19152 25.17641)"/><circle cx="67" cy="178" r="46" fill="#fff" fill-opacity=".5"/><ellipse cx="186" cy="90" fill="#aa9990" fill-opacity=".5" rx="18" ry="15"/><ellipse cx="57" cy="174" fill="#fff" fill-opacity=".5" rx="73" ry="37"/><circle cy="28" r="58" fill="#fff" fill-opacity=".5"/><path fill="#776d6f" fill-opacity=".5" d="M166 71l-21-6 38 30z"/><path fill="#a9998d" fill-opacity=".5" d="M10 96l93 48-72-68z"/><ellipse cx="142" cy="114" fill="#c4beba" fill-opacity=".5" rx="45" ry="19"/><ellipse cx="187" cy="183" fill="#fff" fill-opacity=".5" rx="255" ry="13"/><circle r="1" fill="#fff" fill-opacity=".5" transform="matrix(-13.17928 -17.30028 97.5277 -74.2962 238.4 132.5)"/><path fill="#938e83" fill-opacity=".5" d="M150.9 66.6l-36.5 14.3-39.7 9.8 34.6 16z"/><path fill="#b19c8d" fill-opacity=".5" d="M219.3 94.8l21-1.5-1.5 8.3-13.5 12.1z"/><ellipse cx="126" cy="18" fill="#fff" fill-opacity=".5" rx="255" ry="27"/><circle r="1" fill="#bbaca1" fill-opacity=".5" transform="matrix(.95817 22.86133 -17.82168 .74695 152.6 147.7)"/><path fill="#746565" fill-opacity=".5" d="M174 88l21 31-8-25z"/><path fill="#803b2f" fill-opacity=".5" d="M128.7 61.8L117 56.2l-.2 11.2-4 1.1z"/><ellipse cx="19" cy="139" fill="#fff" fill-opacity=".5" rx="37" ry="32"/><path fill="#cac3c0" fill-opacity=".5" d="M117.2 69l-38-9.4-30.9 37.8 3.1 8.4z"/><path fill="#b0a196" fill-opacity=".5" d="M177 134l41-15-54 43z"/><path fill="#ccc6c3" fill-opacity=".5" d="M143 128l-68-5 6-31z"/><ellipse cx="254" cy="87" fill="#fff" fill-opacity=".5" rx="13" ry="191"/><path fill="#cbc6c6" fill-opacity=".5" d="M187 115l-46 9 59 6z"/><path fill="#b6aba5" fill-opacity=".5" d="M114.9 82.2l9.9-13.1L101 45.2 69.1 58.1z"/><path fill="#b7aa9f" fill-opacity=".5" d="M168.1 150.1L28.9 104.2l85.2 46.5 38.9 21.6z"/><path fill="#c0b1a6" fill-opacity=".5" d="M160 65l81 31-45 8z"/><path fill="#fff" fill-opacity=".5" d="M12.2 59.6l17 13.9-31.4 38.9-17-13.9zM271 105.1L231.7-16l-108 65.9 110 44.1z"/><path fill="#b6aea4" fill-opacity=".5" d="M192.1 117.6l-26.8-36.1-30.5 3.3-29.9 26.3z"/><path fill="#fff" fill-opacity=".5" d="M89 139l18 68 57-31z"/><path fill="#927c71" fill-opacity=".5" d="M116 94.5l1.5 6.8-19.6 4.2-1.4-6.8z"/><circle cx="97" cy="52" r="9" fill="#c3bbb9" fill-opacity=".5"/><ellipse cx="121" cy="23" fill="#fff" fill-opacity=".5" rx="38" ry="26"/><path fill="#791a0a" fill-opacity=".5" d="M123 74h9v3h-9z"/><circle cx="220" cy="168" r="39" fill="#fff" fill-opacity=".5"/><path fill="#746d70" fill-opacity=".5" d="M194.6 115.4l11.2 15.4-2.4 1.8-11.2-15.4z"/><circle r="1" fill="#fff" fill-opacity=".5" transform="matrix(72.45552 18.04142 -6.6126 26.5566 7.4 131.8)"/><path fill="#6e8076" fill-opacity=".5" d="M119 88l-5-8-28 7z"/><ellipse cx="119" cy="72" fill="#cdbfb3" fill-opacity=".5" rx="22" ry="2"/><circle r="1" fill="#99908d" fill-opacity=".5" transform="matrix(.48659 -2.52682 23.87404 4.59742 95.5 60.5)"/><path fill="#d1c0b4" fill-opacity=".5" d="M85 90h34v5H85z"/><circle r="1" fill="#fff" fill-opacity=".5" transform="matrix(-.93068 -1.62374 69.99896 -40.12115 55.1 62.1)"/><path fill="#baaba0" fill-opacity=".5" d="M45 70.6l11.1 17.8-27.1 17-11.1-17.8z"/><path fill="#fff" fill-opacity=".5" d="M177 71L19 5l252-21z"/><circle r="1" fill="#fff" fill-opacity=".5" transform="matrix(-37.76833 -3.23789 1.50552 -17.56108 51.7 39.4)"/><path fill="#9ca39e" fill-opacity=".5" d="M152.4 91l-2 3.5L123.6 79l2-3.5z"/><path fill="#ab958b" fill-opacity=".5" d="M146 61l-9 17 22 10z"/><circle r="1" fill="#bbada2" fill-opacity=".5" transform="matrix(18.83571 .71875 -.4071 10.66876 217.9 99.2)"/><ellipse cx="134" cy="129" fill="#a29488" fill-opacity=".5" rx="63" ry="1"/><path fill="#fff" fill-opacity=".5" d="M127 159l-77-41-66 77z"/><path fill="#908785" fill-opacity=".5" d="M162.1 66.4l31.4 44.4 7.1 17.3-15.2-16.3z"/><path fill="#c3bab3" fill-opacity=".5" d="M78 123l-28-12 74-13z"/><path fill="#d4cabf" fill-opacity=".5" d="M129 57h11v8h-11z"/><path fill="#630f02" fill-opacity=".5" d="M115.7 59.6l.4-.9 8.2 3.7-.4.9z"/><path fill="none" stroke="#7b7272" stroke-opacity=".5" stroke-width=".5" d="M95.3 44.6Q59.1 79.2 47 95.2"/><path fill="none" stroke="#ccc5c0" stroke-opacity=".5" stroke-width=".5" d="M71.1 98.6q54.5-40.9 145.9 61.3"/><circle r="1" fill="#b9a89c" fill-opacity=".5" transform="matrix(5.80666 -1.2025 1.9582 9.45576 111 57.3)"/><path fill="#fff" fill-opacity=".5" d="M103 148l-54.7-29.8L10.7 98-16 207z"/><ellipse cx="255" cy="134" fill="#fff" fill-opacity=".5" rx="46" ry="26"/><circle r="1" fill="#fff" fill-opacity=".5" transform="rotate(-26.9 466.4 -314.8) scale(49.29147 26.6079)"/><path fill="#7d7575" fill-opacity=".5" d="M138.9 70.5l-.2 1-65.6-14 .2-1z"/><circle cx="59" cy="69" r="6" fill="#cec6c5" fill-opacity=".5"/><path fill="#c3b8b2" fill-opacity=".5" d="M90 67l38 10-50 9z"/><path fill="#bcafa4" fill-opacity=".5" d="M71 125l132 5-47 40z"/><path fill="#888081" fill-opacity=".5" d="M164.6 75.3l-29.8-3.6.6-5 29.8 3.6z"/><path fill="#c4b5ab" fill-opacity=".5" d="M159.8 109l-8.2-14.8 16.6-9.2 8.2 14.8z"/><path fill="#c0b3a9" fill-opacity=".5" d="M185.4 106.9l47.1-1.5L90.6 40.9l118.3 42.6z"/><path fill="#fff" fill-opacity=".5" d="M29 76l125-63-170-28z"/><path fill="#837976" fill-opacity=".5" d="M41.8 113l-2-.7L44.3 99l2 .7z"/><path fill="none" stroke="#766b61" stroke-opacity=".5" stroke-width=".5" d="M26.7 104.5q46.7 24 57.4 30.7"/><path fill="#8c8381" fill-opacity=".5" d="M147.3 67.7l24.5 4.7-1.1 6-24.5-4.8z"/><path fill="#fff" fill-opacity=".5" d="M256.9 99.7L256.4-16 6.7 11.9l112.1 39.4z"/><path fill="#c0b3a9" fill-opacity=".5" d="M213.3 122.6L168.5 74 225 88.3 197.8 93z"/><path fill="#b9ab9f" fill-opacity=".5" d="M74.1 107.9l36.8 8.2-40.8-2.5-49.1-11z"/><path fill="#893e30" fill-opacity=".5" d="M120 74h18v2h-18z"/><circle cx="123" cy="60" r="2" fill="#600100" fill-opacity=".5"/><ellipse cx="126" cy="93" fill="#4a5341" fill-opacity=".5" rx="2" ry="1"/></g></g></svg>