<svg xmlns="http://www.w3.org/2000/svg" viewBox="0 0 1400 1050"><defs/><filter id="prefix__a"><feGaussianBlur stdDeviation="12"/></filter><rect width="100%" height="100%" fill="#51332c"/><g filter="url(#prefix__a)"><g transform="translate(2.7 2.7) scale(5.46875)"><circle r="1" fill="#ecc876" fill-opacity=".5" transform="rotate(94.6 44.2 61.2) scale(114.18941 255.00001)"/><circle r="1" fill="#845f27" fill-opacity=".5" transform="matrix(75.61405 -12.20716 5.37227 33.27708 178.1 135.1)"/><path fill="#daba75" fill-opacity=".5" d="M20 142.9l-23-.8 1-33 23 .8z"/><circle r="1" fill="#322309" fill-opacity=".5" transform="matrix(49.375 -11.07845 4.24191 18.90558 88.8 143.8)"/><path fill="#050600" fill-opacity=".5" d="M19 131l32 38-17-75z"/><circle cx="106" cy="56" r="69" fill="#ba9565" fill-opacity=".5"/><path fill="#b38a59" fill-opacity=".5" d="M134 74h41v82h-41z"/><path fill="#e0b871" fill-opacity=".5" d="M38.9 142.2L78 129.3l-16.8 2.8-16-8z"/><circle cx="210" cy="133" r="34" fill="#755627" fill-opacity=".5"/><path fill="#ad8d3c" fill-opacity=".5" d="M16 155h27v16H16z"/><circle r="1" fill="#846a3f" fill-opacity=".5" transform="matrix(-19.4444 -82.2556 28.18325 -6.66224 241 41.7)"/><circle r="1" fill="#482f04" fill-opacity=".5" transform="matrix(-231.10854 5.85598 -.59828 -23.61136 149.4 188.7)"/><path fill="#161810" fill-opacity=".5" d="M268.7 120.1l3.8 16.6-31.2 7.2-3.8-16.6z"/><ellipse cx="98" cy="153" fill="#583a1d" fill-opacity=".5" rx="25" ry="37"/><path fill="#b49364" fill-opacity=".5" d="M47 139L18 45l80-5z"/><path fill="#1a1810" fill-opacity=".5" d="M102.6 155.9l6-11-67.2 9.3 55.4-28.6z"/><path fill="#704d2e" fill-opacity=".5" d="M54.6 119.1l14.7-11.5 1.2 18.6-18.4 3.3z"/><ellipse cx="31" cy="130" fill="#231b0a" fill-opacity=".5" rx="10" ry="23"/><path fill="#a5875b" fill-opacity=".5" d="M7.8 76.7L31.2 82l-15 65.2-23.4-5.4z"/><ellipse cx="196" cy="80" fill="#ac8859" fill-opacity=".5" rx="42" ry="23"/><path fill="#7e5c2e" fill-opacity=".5" d="M241 95l-89 65h88z"/><path fill="#614513" fill-opacity=".5" d="M0 143h18v30H0z"/><path fill="#422a11" fill-opacity=".5" d="M194 207l18-17-4-53z"/><ellipse cx="86" cy="6" fill="#9d8059" fill-opacity=".5" rx="98" ry="23"/><path fill="#66401e" fill-opacity=".5" d="M177 180l-48-32-74 22z"/><circle r="1" fill="#36270e" fill-opacity=".5" transform="matrix(-7.23322 -36.87664 7.93624 -1.55666 252 162.7)"/><circle cx="155" cy="136" r="22" fill="#9e7546" fill-opacity=".5"/><circle r="1" fill="#b38c5a" fill-opacity=".5" transform="matrix(-8.06573 31.41393 -15.03255 -3.8597 109.3 92.6)"/><circle r="1" fill="#7f6940" fill-opacity=".5" transform="matrix(-13.57233 7.89928 -46.97363 -80.70877 241.4 5.3)"/><circle r="1" fill="#a3855d" fill-opacity=".5" transform="matrix(23.62165 -72.26188 15.66588 5.12101 24.6 68.9)"/><path fill="#1d1706" fill-opacity=".5" d="M42 153h15v17H42z"/><path fill="#120b06" fill-opacity=".5" d="M212 123h3v17h-3z"/><path fill="#372917" fill-opacity=".5" d="M8.5 207l-14.2-10.6L42.7 127 31.1 90.7z"/><path fill="#604128" fill-opacity=".5" d="M147.9 117L72 140.4l18.2-27.5 23.6 46.7z"/><path fill="#73522c" fill-opacity=".5" d="M178 103h64v21h-64z"/><circle r="1" fill="#a17c44" fill-opacity=".5" transform="matrix(0 -5.98455 2.09658 0 98.8 161.4)"/><path fill="#856131" fill-opacity=".5" d="M196 102l4 59-37 5z"/><path fill="#bb935e" fill-opacity=".5" d="M41.6 125.7l29.7 3.8-25.5 9.7-2 3.3z"/><circle r="1" fill="#907b55" fill-opacity=".5" transform="matrix(16.584 2.1701 -10.23184 78.192 0 58)"/><path fill="#a28053" fill-opacity=".5" d="M221 103l8-70L98-16z"/><path fill="#0b0807" fill-opacity=".5" d="M58.7 124.6l1-.1 1.6 15h-1z"/><path fill="#a67c4d" fill-opacity=".5" d="M117 101l-14 21 31 2z"/><ellipse cx="77" cy="191" fill="#312211" fill-opacity=".5" rx="100" ry="4"/><path fill="#89672f" fill-opacity=".5" d="M58.1 177l5.4-15.3-2.5-3.3-2.2-2.2z"/><path fill="#977540" fill-opacity=".5" d="M22 159h20v14H22z"/><path fill="#866032" fill-opacity=".5" d="M138.3 100.7l16.3 76.8-.9-57.2-18.2-1.6z"/><circle r="1" fill="#292112" fill-opacity=".5" transform="rotate(72.2 -69.8 115) scale(8.47071 25.96563)"/><path fill="#cb9f6c" fill-opacity=".5" d="M172 110h4v29h-4z"/><path fill="#36291b" fill-opacity=".5" d="M70 123h4v18h-4z"/><path fill="#25200f" fill-opacity=".5" d="M20 131h22v21H20z"/><circle cx="94" cy="66" r="30" fill="#b59161" fill-opacity=".5"/><path fill="#030303" fill-opacity=".5" d="M205 148h3v16h-3z"/><circle cx="172" cy="71" r="32" fill="#ab8859" fill-opacity=".5"/><circle r="1" fill="#613d20" fill-opacity=".5" transform="rotate(81.6 -26 148.7) scale(62.29163 1)"/><ellipse cx="135" cy="140" fill="#967040" fill-opacity=".5" rx="3" ry="29"/><path fill="#957748" fill-opacity=".5" d="M241.5 115.7l29.5 26.4-56.1-73 36.6-39.4z"/><ellipse cx="227" cy="172" fill="#472d13" fill-opacity=".5" rx="38" ry="12"/><path fill="#b79260" fill-opacity=".5" d="M117.8 97.5l3.9 27.1 21-12.3-10.6-49.1z"/><ellipse cx="109" cy="130" fill="#472d19" fill-opacity=".5" rx="24" ry="5"/><ellipse cx="79" cy="164" fill="#a17b3d" fill-opacity=".5" rx="2" ry="8"/><ellipse cx="125" cy="156" fill="#4f3018" fill-opacity=".5" rx="7" ry="17"/><path fill="#ab8a5d" fill-opacity=".5" d="M44 88.7l-30.7 23 25.5-94.2 96.1-3.3z"/><path fill="#846634" fill-opacity=".5" d="M19 152h20v20H19z"/><path fill="#8a643c" fill-opacity=".5" d="M162 61.4l-38.4 92.9L156.2 65l21.9-18.2z"/><path fill="#8d6530" fill-opacity=".5" d="M211 137h9v24h-9z"/><circle r="1" fill="#927549" fill-opacity=".5" transform="rotate(-134.5 100.7 -40.2) scale(60.70384 21.2959)"/><path fill="#805d3a" fill-opacity=".5" d="M86.3 128.7l19-18.6-14.9 5.7L88 98.2z"/><path fill="#72532d" fill-opacity=".5" d="M121 168l-2-23-15 13z"/><ellipse cx="181" cy="104" fill="#3f2310" fill-opacity=".5" rx="23" ry="1"/><ellipse cx="117" cy="161" fill="#946e39" fill-opacity=".5" rx="2" ry="10"/><path fill="#846039" fill-opacity=".5" d="M128.9 61.1l1.8-6.2-32.4 118.9 21.8-90z"/><path fill="#14140f" fill-opacity=".5" d="M56 141h52v5H56z"/><path fill="#bf9a66" fill-opacity=".5" d="M42 98h7v41h-7z"/><ellipse cx="214" cy="104" fill="#483018" fill-opacity=".5" rx="28" ry="1"/><path fill="#b48852" fill-opacity=".5" d="M138 137h9v16h-9z"/><ellipse cx="221" cy="95" fill="#9d7d4e" fill-opacity=".5" rx="23" ry="9"/><path fill="#593a17" fill-opacity=".5" d="M194 178h62v8h-62z"/><path fill="#be9a66" fill-opacity=".5" d="M114.8 120.1L94.2 72l13.6 25.6-8.9 24.9z"/><path fill="#43301b" fill-opacity=".5" d="M0 172h59v20H0z"/><circle cx="65" cy="127" r="5" fill="#b68f5d" fill-opacity=".5"/><path fill="#674a25" fill-opacity=".5" d="M19.4 148.7l3-31.5L9 179.3l13.7-8.2z"/><path fill="#b79261" fill-opacity=".5" d="M102 59l-31 4 5 65z"/><path fill="#161a19" fill-opacity=".5" d="M241 126h15v10h-15z"/><path fill="#76552a" fill-opacity=".5" d="M205.4 139l29-11.2 4.2 11.2-29 11.2z"/><path fill="#b49265" fill-opacity=".5" d="M152 108l6 8h-25z"/><path fill="#49311c" fill-opacity=".5" d="M130.4 149.4l-1.2-5.5-23.7 19.4 31.8-17z"/><path fill="#2a1a0d" fill-opacity=".5" d="M231 188h25v4h-25z"/><ellipse cx="69" cy="171" fill="#4d3117" fill-opacity=".5" rx="8" ry="25"/><circle r="1" fill="#93754f" fill-opacity=".5" transform="matrix(7.6593 -4.96021 3.3545 5.17985 255 119.5)"/><path fill="#967349" fill-opacity=".5" d="M13.5 133.2l57.4-33.4-22.5 42.9 28.5-46.3z"/><path fill="#846235" fill-opacity=".5" d="M177 109h34v30h-34z"/><path fill="#5c3d22" fill-opacity=".5" d="M53.3 109.5l3.7 47.3-2-35.8 6.9 15.7z"/><path fill="#6f5232" fill-opacity=".5" d="M61.4 134.8l20.5-.2-27.8-22.5 16.5 10z"/><path fill="#a9804c" fill-opacity=".5" d="M220 127h6v7h-6z"/><path fill="#9a7640" fill-opacity=".5" d="M182 146h9v10h-9z"/><path fill="none" stroke="#4e3720" stroke-opacity=".5" stroke-width=".5" d="M79 99.6Q62.9 170.7 62.3 207"/><path fill="#a78658" fill-opacity=".5" d="M-10 135l28 6V82z"/><path fill="#543118" fill-opacity=".5" d="M147.4 170.7l18.2-10.5 11 19-18.2 10.6z"/><path fill="#402a16" fill-opacity=".5" d="M185 108h1v29h-1z"/><path fill="#704f2a" fill-opacity=".5" d="M20 157l-1-13-35-5z"/></g></g></svg>