<svg xmlns="http://www.w3.org/2000/svg" viewBox="0 0 1400 1050"><defs/><filter id="a"><feGaussianBlur stdDeviation="12"/></filter><rect width="100%" height="100%" fill="#453730"/><g filter="url(#a)"><g fill-opacity=".5" transform="translate(2.7 2.7) scale(5.46875)"><circle r="1" fill="#ffffed" transform="rotate(-66.4 83.7 -91.8) scale(74.2646 94.68066)"/><circle r="1" fill="#fff" transform="matrix(-7.09353 -8.30546 23.10701 -19.73525 17.5 111.7)"/><circle cx="17" cy="191" r="37" fill="#ffa"/><path fill="#8c918a" d="M53 143h106v49H53z"/><circle r="1" fill="#fff" transform="matrix(24.20976 8.71605 -11.28554 31.3468 183.8 2.9)"/><circle r="1" fill="#4a4032" transform="matrix(-49.86465 8.46785 -3.68364 -21.6919 219.1 47.5)"/><circle r="1" fill="#fff" transform="matrix(-.47769 -23.83314 14.07148 -.28204 164.8 84.1)"/><ellipse cx="130" fill="#fff" rx="17" ry="65"/><circle r="1" fill="#878262" transform="rotate(-30.5 97.2 -76.8) scale(26.03539 44.81094)"/><circle cx="234" cy="148" r="71" fill="#0e0a08"/><circle cx="237" cy="19" r="31" fill="#787973"/><path fill="#fff" d="M-16 125l63-27-14-12z"/><path fill="#0c0500" d="M90.5 31l16.6 3.7-5.6 24.4-16.6-3.8z"/><path fill="#fff" d="M127 177h24v15h-24z"/><path fill="#230600" d="M160 199l-62 8-79-56z"/><circle r="1" fill="#fffee2" transform="matrix(-14.08633 -3.74808 9.90928 -37.2418 92.5 4)"/><circle r="1" fill="#feffff" transform="rotate(176.5 49.4 84.8) scale(12.57105 7.37808)"/><circle r="1" fill="#3b3526" transform="matrix(-4.51971 76.07543 -9.47122 -.5627 60.6 0)"/><circle r="1" fill="#655945" transform="rotate(-159.3 66.8 28.7) scale(26.64009 20.75449)"/><path fill="#fff" d="M134.7 150.7l-6.3-11-10.1 8.8 12.5 7z"/><circle r="1" fill="#f9bf71" transform="rotate(111.3 -46.6 102.4) scale(15.21233 50.23671)"/><circle r="1" fill="#12100c" transform="matrix(-3.5299 -30.04864 9.14436 -1.07422 142.6 148.8)"/><ellipse cx="73" cy="152" fill="#dbeef7" rx="10" ry="8"/><circle r="1" fill="#fff" transform="matrix(10.07363 -1.041 2.0825 20.15196 194.9 9.3)"/><path fill="#4a433b" d="M180.1 100.8L207.6 16 242 27.2 214.4 112z"/><ellipse cx="81" cy="104" fill="#211f17" rx="40" ry="25"/><path fill="#dbf8ff" d="M20.3 150.8L-16 184.1l12.6 3L24 158.8z"/><circle cx="167" cy="89" r="13" fill="#fff"/><circle r="1" transform="rotate(-79.1 101.6 -64.3) scale(48.49564 2.17026)"/><circle r="1" fill="#a6a395" transform="rotate(17.1 112 751.5) scale(7.49254 66.78008)"/><circle r="1" fill="#fff" transform="matrix(17.45736 -15.8588 4.34126 4.77885 18 107.5)"/><circle r="1" fill="#050706" transform="matrix(5.76996 32.32266 -19.15408 3.41922 2.7 71.5)"/><ellipse cx="41" cy="5" fill="#919078" rx="20" ry="33"/><path fill="#010200" d="M39 17L22 46l11 22z"/><path fill="#d3d8d1" d="M153 117.3l5.3 33.3-3.9 10.6-4.8-42.5z"/><ellipse cx="74" cy="53" fill="#c6b399" rx="10" ry="27"/><path fill="#f6f6f0" d="M111 43h28v23h-28z"/><path fill="#89a69b" d="M-1.7 4.7L5 2.4l12.7 36.9-6.7 2.3z"/><circle r="1" fill="#2f291e" transform="matrix(-29.4529 30.77825 -6.03856 -5.77853 88.4 155.3)"/><path fill="#fff" d="M167 20.2l9.7-29.5 34.2 11.1-9.6 29.5z"/><circle r="1" fill="#010000" transform="rotate(-78.3 79.8 -39) scale(90.53853 1)"/><path fill="#f2ffff" d="M91.3 51l7 1-1.6 11-7-1z"/><ellipse cx="43" cy="139" fill="#98adaf" rx="8" ry="6"/><ellipse cx="117" cy="75" fill="#a79880" rx="19" ry="17"/><path fill="#92886d" d="M37 28h18v42H37z"/><circle r="1" fill="#413931" transform="matrix(-30.30441 6.8294 -4.3308 -19.21728 113 110.2)"/><path fill="#dfe3e2" d="M162 118h4v16h-4z"/><path fill="#353531" d="M149 137l-28 61-28 6z"/><path fill="#fff" d="M136 173l-10 15 18-15zM39.6 91.9L43 98l-56.5 30-3.3-6.2z"/><circle r="1" fill="#29201e" transform="matrix(-11.28948 -13.12565 41.39984 -35.60836 221.3 92.8)"/><path fill="#39220d" d="M111 207l-87-49 22-15z"/><ellipse cx="122" cy="146" fill="#f4ffff" rx="7" ry="5"/><path fill="#fffffb" d="M136.5 18.5l6.2-29.3 10.8 2.3-6.2 29.3z"/><path fill="#11110b" d="M156 167h23v25h-23z"/><circle r="1" fill="#1b1611" transform="matrix(12.83824 -6.6263 11.31227 21.91712 56.3 95)"/><circle r="1" fill="#fcffff" transform="matrix(-13.85382 5.7525 -3.43847 -8.28093 169.9 85.4)"/><path fill="#3c433f" d="M33.4 110.9l5.2 8.6-36 21.6-5.2-8.6z"/><path fill="#332821" d="M249 120.7l-112.2.2-57-38.3 73.8 19.6z"/><path fill="#807a6e" d="M111 110h14v19h-14z"/><path fill="#fff" d="M100 155l-9 16 15-15z"/><circle r="1" fill="#232d38" transform="matrix(18.43647 -73.04798 2.81618 .71077 213.7 0)"/><path fill="#a9a384" d="M23 0h12v33H23z"/><ellipse cx="83" cy="71" fill="#8e856e" rx="9" ry="11"/><path fill="#d4ceb4" d="M71 0h14v49H71z"/><circle r="1" fill="#171913" transform="rotate(97.6 20.7 42.4) scale(34.66053 2.1868)"/><path fill="#685440" d="M174.2 75.8l19.4-9.8-4.5-4 4.1-38.1z"/><path fill="#2c1d0d" d="M94 32L82 56l29-28z"/><path fill="#2b2620" d="M90 92l9 65 29-19z"/><circle r="1" fill="#c5ba9d" transform="matrix(4.92166 -30.04012 8.61431 1.41134 115.1 33.8)"/><path fill="#51514d" d="M172.2 102.3L183.3 87l6.5 4.7-11.1 15.3z"/><path fill="#cb9747" d="M112 207l-65-33-63 6z"/><circle r="1" fill="#202323" transform="matrix(.98291 .18407 -10.99008 58.68618 139.6 68.8)"/><path fill="#ccc4ab" d="M155 13h29v29h-29z"/><circle r="1" fill="#363734" transform="matrix(-8.1215 42.98178 -1.3309 -.25148 153.4 17.1)"/><path fill="#fff" d="M123.6 58.3l4.4-16.5 14.4 4-4.4 16.4z"/><path fill="#e9f5f4" d="M162.7 57.1l-13.3 45.5 31.1-45.5-8.5 2.3z"/><path fill="#f0f7f6" d="M225.2-3.2l-58.7 8.7 66.4-7.4-7.2 13.9z"/><path fill="#4a514e" d="M45 132h16v25H45z"/><path fill="#fff" d="M146.5 182.8L123.8 203l23.2-3.3 2.1-26.3z"/><path fill="#80837d" d="M254.7 44l-61.5 46.4-1.9-2.4 61.5-46.4z"/><path fill="#5d6566" d="M132.1 197.7l-73.4-35.3 72 27.6 33.1-32.6z"/><path fill="#fff" d="M108 162l-9 15 9-5z"/><circle r="1" fill="#edf9fc" transform="matrix(-4.02382 2.68356 -1.55759 -2.3355 70.9 145.5)"/><path fill="#585c59" d="M65.9 158.9l14.7-14.2-24.3 14.6 84.6 47.7z"/><path fill="#5e6f70" d="M-16 174l35-34-8 19z"/><path fill="#27221c" d="M171 124l-24 19h67z"/><circle cx="164" cy="124" r="3" fill="#fff"/><path fill="#fff" d="M169 102l21-29-40 22z"/><circle r="1" fill="#231c1b" transform="matrix(-.95693 13.34988 -19.27933 -1.38196 10.4 84.7)"/><path fill="#28261d" d="M111.9-12.8l-4.8 49.7-14.7 68.2 1.8-26.2z"/><path fill="#fff" d="M8 105l32-7-3-12z"/><path fill="#2e2e2b" d="M130.3 123.4l3.8-45.3 11.1-30.7-2.9 21.7z"/><path fill="#dce5e7" d="M193 60l-10 15 7-3z"/><circle r="1" fill="#1a1209" transform="matrix(77.60907 46.98004 -1.82832 3.02032 94 186.4)"/><path fill="#10100a" d="M42.4-30.8l2 .2-10.8 87.4-2-.2z"/><path fill="#070f08" d="M9 31l12 41-34-51z"/><path fill="#645b4f" d="M92.7 116.5l-.8-14.2-15.4-9.1 4.9 21z"/><circle r="1" fill="#fcffff" transform="matrix(2.315 1.74107 -7.08683 9.42294 133.9 182.3)"/><path fill="#3c4145" d="M116 149.1l2.9 2.8-17 17-2.8-2.8z"/></g></g></svg>