<svg xmlns="http://www.w3.org/2000/svg" viewBox="0 0 1400 1050"><defs/><filter id="a"><feGaussianBlur stdDeviation="12"/></filter><rect width="100%" height="100%" fill="#4d6244"/><g filter="url(#a)"><g fill-opacity=".5" transform="translate(2.7 2.7) scale(5.46875)"><circle cx="131" cy="86" r="169" fill="#fff"/><circle cx="107" cy="82" r="192" fill="#fff"/><circle cx="189" cy="76" r="235" fill="#fff"/><circle cx="212" cy="191" r="88" fill="#fff"/><circle r="1" fill="#b7c4a0" transform="rotate(-27.8 274.8 -285) scale(54.88858 21.49227)"/><ellipse cx="75" cy="168" fill="#fff" rx="255" ry="39"/><circle r="1" fill="#fff" transform="matrix(-2.29788 33.7065 -254.40947 -17.3439 155.4 24.2)"/><circle r="1" fill="#aeb7a6" transform="rotate(-99.8 63.3 5.9) scale(12.08331 45.20977)"/><path fill="#9aaf80" d="M212 69l19 33-75-53z"/><circle r="1" fill="#869480" transform="rotate(-32.1 232 -160.4) scale(6.96205 24.65381)"/><path fill="#b5bdaf" d="M59 101l14-52 6 103z"/><circle r="1" fill="#fff" transform="rotate(-35.5 214.7 -355.4) scale(36.57654 74.64866)"/><ellipse cx="25" cy="142" fill="#fff" rx="41" ry="60"/><circle r="1" fill="#fff" transform="matrix(-6.51671 -26.73263 156.89743 -38.24747 87.2 26.5)"/><path fill="#fff" d="M169 131.3l-11.4 6.3-42.6-77 11.4-6.2z"/><path fill="#b4bbb0" d="M77.1 66.3l23-14.3 14.8 23.7-23 14.3z"/><path fill="#fff" d="M177 98h79v94h-79z"/><circle r="1" fill="#94a680" transform="matrix(24.84842 -8.30255 1.42006 4.25005 47.6 69.3)"/><circle r="1" fill="#fffeff" transform="rotate(-20.2 254 -83.8) scale(32.27791 6.3794)"/><circle r="1" fill="#fff" transform="matrix(2.7328 -62.59121 18.6059 .81235 98.1 151.1)"/><ellipse cx="222" cy="95" fill="#718b54" rx="6" ry="8"/><path fill="#babebf" d="M122 126h15v25h-15z"/><path fill="#faf8fc" d="M111.8 72.3L70.5 59.9 183.9 51l-34.2 32.8z"/><path fill="#a9b3a1" d="M105.3 52.7l7.2 32L96 60.5 65.3 49.7z"/><path fill="#abba8c" d="M127 84h25v9h-25z"/><circle r="1" fill="#fff" transform="matrix(134.14594 1.17067 -.26986 30.92303 99.4 180)"/><path fill="#4f6b45" d="M159 74l15 3-15 3z"/><circle r="1" fill="#fff" transform="matrix(-13.47458 -42.7359 138.6723 -43.7232 25.5 23.5)"/><circle r="1" fill="#b9bfb9" transform="matrix(5.33904 -26.7613 5.99657 1.19635 74 124.3)"/><path fill="#5a754a" d="M191 72l-7-11 14 4z"/><path fill="#c1d095" d="M183 115l-15 7.8-5-9.8 15-7.8z"/><ellipse cx="176" cy="19" fill="#fff" rx="255" ry="24"/><path fill="#7d9361" d="M63.6 97.6l4.9 1.9 1.9 3.6-13.4 7.4z"/><path fill="#6e7b6a" d="M101 66l-8 9-8-7z"/><ellipse cx="129" cy="48" fill="#dfdede" rx="42" ry="6"/><path fill="#d5e0ba" d="M198.7 73.4l-14.1 1.8 37.1 30-3.5-24.4z"/><path fill="#fff" d="M70 89h29v13H70z"/><circle r="1" fill="#fff" transform="matrix(-36.95528 24.9724 -19.29577 -28.55474 252 56.6)"/><path fill="#fff" d="M161.6 113.2l26.2 93.8-47-99.4 2.2-18.8zM176 94h34v11h-34zM63 110l-3 36 13-33z"/><path fill="#b2b6c1" d="M136 132h16l-11-21z"/><path fill="#fff" d="M71 43l18 22-13-3z"/><path fill="#fefcff" d="M188 79l-58-19 38 2z"/><circle cx="124" cy="103" r="6" fill="#889b71"/><path fill="#b1b5b8" d="M55 102h5v12h-5z"/><circle cx="123" cy="90" r="5" fill="#fff"/><path fill="#b3c099" d="M159 92h58v3h-58z"/><path fill="#9bae86" d="M170 61h23v3h-23z"/><path fill="#cbd7a6" d="M184 113l-26-31 3 37z"/><path fill="#6f8762" d="M202 71h10v6h-10z"/><path fill="#cbccd6" d="M107.2 91l7.6-2.6 14 40.6-7.6 2.6z"/><ellipse cx="100" cy="169" fill="#fff" rx="32" ry="36"/><path fill="#7a9556" d="M103 52l-1 9-9-8z"/><path fill="#6b835f" d="M111 88l9-4-6-5z"/><path fill="#fffeff" d="M34 79h23v26H34z"/><circle r="1" fill="#fff" transform="rotate(132.4 54.2 111.2) scale(28.6191 27.15746)"/><path fill="#fbfbfb" d="M157.9 82.2l-22 2.3-3.8-36.7 22-2.3z"/><ellipse cx="153" cy="50" fill="#e5e4e5" rx="54" ry="5"/><path fill="#aab79d" d="M66.3 130.4l14-19.7-23.2-12.2 22.2 27.1z"/><path fill="#fefcfe" d="M-16 39l96 129-96-6z"/><path fill="#fff" d="M-16-8.4l210.6 61.3-23.1 30.3 36.3-64.8z"/><ellipse cx="254" cy="150" fill="#fff" rx="25" ry="191"/><path fill="#d2ddbc" d="M206 83l-4.8-22.2-10.8 26 43.3 19.9z"/><path fill="#abb99d" d="M47 67l-22-1-3 16z"/><path fill="#c9d7ad" d="M187 62l10 27-23-25z"/><path fill="#d4d6d8" d="M105.9 71.1L90.3 52.7l8.9 26 32.7 60.4z"/><path fill="#fefcfe" d="M98 87l-28-1 46 37z"/><path fill="#f0eff0" d="M18 48l49 7-53 17z"/><path fill="#507029" d="M66.7 83.2l-.7-.7 3.3-3.7.7.7z"/><path fill="#fff" d="M81 64l18-2-32-10z"/><circle r="1" fill="#b0bc98" transform="matrix(-22.8852 1.8232 -.07942 -.99684 151.1 84)"/><circle cx="128" cy="113" r="5" fill="#86996f"/><circle r="1" fill="#e0e2e5" transform="matrix(-.40472 -2.73924 23.52144 -3.47523 51 74.5)"/><path fill="#fefdfe" d="M102 72l31 104-40-63z"/><path fill="#718861" d="M198 67l-7 7-3-13z"/><path fill="#f6f5f7" d="M171.9 98.2l22.3-2.7 44.4 15.9-48 4.6z"/><circle r="1" fill="#fffeff" transform="matrix(11.21622 17.1756 -5.43337 3.54817 148.9 110.6)"/><path fill="#c7cacc" d="M79 131l-14 17 9 4z"/><path fill="#68805a" d="M232 96l-16-11 4 10z"/><path fill="#c6cbcb" d="M118.2 103.8l3.7-10.3-18.2-14.4 21.5 68.1z"/><ellipse cx="96" cy="85" fill="#afb999" rx="11" ry="2"/><path fill="#9cab8a" d="M189.5 78.9l-.8 3.3-25.8-9-5.3 8.3z"/><path fill="#dfe0e3" d="M74.6 123.4l43.6-7.6L87 121l-35.5-17.7z"/><path fill="#f1f1f1" d="M109 77l69-20-36-18z"/><path fill="#fff" d="M187 94l32 10-10-11z"/><path fill="#b7bbc4" d="M146 127l-15-18 1-18z"/><path fill="#fff" d="M13 178l58-68-5 32z"/><path fill="#fafafa" d="M157.7 83.4l-56.4-7.6 75.4-2.2-27.9-25z"/><path fill="#e3e5de" d="M176.3 58.5l-1.8 26.2-9.2-37.2-8.7 11z"/><path fill="#fff" d="M155.3 202.7L271 186.2l-55.5-54.4-82.5.7z"/><path fill="#d9e3c4" d="M215.5 76.9l-2.2 26.8 5.9-20.5-69.6 15.1z"/><circle cx="74" cy="112" r="2" fill="#607a4b"/><ellipse cx="65" cy="191" fill="#fff" rx="255" ry="41"/><circle r="1" fill="#bec1c2" transform="rotate(163.3 19.5 40.5) scale(38.29955 1)"/><circle r="1" fill="#f6f6f7" transform="rotate(161.6 16 44) scale(29.39554 3.94661)"/><circle r="1" fill="#d4dfbe" transform="matrix(10.96543 -5.32453 .74435 1.53292 205.3 69.9)"/><path fill="#f0eff1" d="M102 100l8-6-11-17z"/><path fill="#889b75" d="M70 124h6v7h-6z"/><path fill="#949c8e" d="M102.8 74.3L60.9 60.7l.3-1 41.9 13.6z"/></g></g></svg>