<svg xmlns="http://www.w3.org/2000/svg" viewBox="0 0 1400 1050"><defs/><filter id="a"><feGaussianBlur stdDeviation="12"/></filter><rect width="100%" height="100%" fill="#444"/><g filter="url(#a)"><g fill-opacity=".5" transform="translate(2.7 2.7) scale(5.46875)"><circle r="1" fill="#fff" transform="matrix(113.87487 -41.08068 16.57826 45.95463 42 67.7)"/><circle r="1" transform="matrix(39.79006 251.87646 -77.74197 12.28125 249.2 88)"/><circle r="1" fill="#fff" transform="matrix(28.75206 -8.13601 7.5283 26.60445 22.2 65.7)"/><circle cx="60" cy="138" r="51" fill="#515151"/><ellipse cx="130" cy="27" fill="#e8e8e8" rx="26" ry="23"/><circle r="1" fill="#c4c4c4" transform="matrix(4.52914 26.77787 -26.46182 4.47568 120.9 67)"/><path fill="#4b4b4b" d="M70 29h31v45H70z"/><circle cx="4" cy="72" r="28" fill="#fff"/><ellipse cx="137" cy="124" fill="#797979" rx="53" ry="19"/><circle cx="219" cy="191" r="57"/><circle cx="240" cy="20" r="52"/><circle r="1" fill="#8e8e8e" transform="matrix(2.95902 10.92318 -53.92713 14.60853 23.6 24)"/><circle r="1" fill="#1e1e1e" transform="matrix(18.39745 -44.53767 17.29032 7.14222 171.6 34)"/><circle r="1" fill="#5f5f5f" transform="matrix(-21.0392 -.81162 1.5024 -38.9458 255 107.1)"/><path fill="#4b4b4b" d="M56.3 140.4l-1.6-47 55-1.8 1.6 47z"/><circle r="1" transform="matrix(19.74097 -.9862 2.56105 51.26535 209 124.9)"/><ellipse cx="122" cy="38" fill="#e5e5e5" rx="21" ry="26"/><ellipse cx="32" cy="118" fill="#7a7a7a" rx="103" ry="15"/><circle cx="151" cy="14" r="9" fill="#bbb"/><circle r="1" fill="#757575" transform="matrix(-8.93458 -8.12984 18.0043 -19.78646 31.1 27)"/><path d="M46 4l74-20 48 21z"/><path fill="#909090" d="M115 111h12v56h-12z"/><ellipse cx="43" cy="81" fill="#dfdfdf" rx="30" ry="12"/><ellipse cx="36" cy="100" fill="#353535" rx="19" ry="8"/><circle r="1" fill="#818181" transform="matrix(12.52706 2.34875 -3.9781 21.21722 3.4 142)"/><circle r="1" fill="#fff" transform="rotate(-94.5 32 32.7) scale(27.52896 15.88732)"/><ellipse cx="72" cy="150" fill="#1c1c1c" rx="41" ry="7"/><circle r="1" fill="#303030" transform="rotate(169.6 58 95.2) scale(61.5883 18.02653)"/><path fill="#222" d="M69 93h44v13H69z"/><ellipse cx="54" cy="34" fill="#adadad" rx="11" ry="29"/><path fill="#929292" d="M90 67h56v26H90z"/><path fill="#999" d="M140 141h11v21h-11z"/><circle r="1" fill="#242424" transform="matrix(4.4958 1.17945 -5.08125 19.36857 109 132.3)"/><ellipse cx="21" fill="#010101" rx="38" ry="6"/><circle r="1" fill="#fff" transform="rotate(149.3 -9.7 39.6) scale(11.29485 24.47411)"/><path fill="#191919" d="M141 94h34v16h-34z"/><path fill="#424242" d="M235 93h13v75h-13z"/><circle r="1" fill="#3d3d3d" transform="matrix(16.76813 -22.59312 14.29252 10.6076 163.8 65.1)"/><circle cy="24" r="17" fill="#929292"/><path fill="#7d7d7d" d="M109 76l-63-1 1-17z"/><ellipse cx="160" cy="158" fill="#101010" rx="8" ry="17"/><path fill="#777" d="M45 92h10v82H45z"/><path fill="silver" d="M91 44h4v43h-4z"/><ellipse cx="72" cy="10" fill="#b3b3b3" rx="27" ry="4"/><circle r="1" transform="matrix(3.06183 28.3024 -19.2704 2.08473 207.6 121.7)"/><path fill="#727272" d="M155 112h33v28h-33z"/><path fill="#1a1a1a" d="M155.2 30.2l5.7 2-8.1 23.6-5.7-2z"/><path fill="#999" d="M159.3 8.3l-11 36.3-9.6-2.9 11-36.3z"/><ellipse cx="61" cy="125" fill="#343434" rx="7" ry="33"/><path fill="#939393" d="M72 110h10v24H72z"/><path fill="#0c0c0c" d="M245 115h5v44h-5z"/><ellipse cx="42" cy="116" fill="#9a9a9a" rx="10" ry="11"/><path fill="#1d1d1d" d="M76.1 133.7l6.5 17.8-18.7 6.8-6.5-17.8z"/><circle r="1" fill="#5f5f5f" transform="matrix(-9.13618 -18.21729 6.31698 -3.16804 170.8 145)"/><path fill="#2a2a2a" d="M144 93h11v42h-11z"/><path fill="#e1e1e1" d="M102 45h16v23h-16z"/><ellipse cx="222" cy="170" rx="16" ry="41"/><ellipse cx="80" cy="44" fill="#ccc" rx="69" ry="2"/><path fill="#9b9b9b" d="M69 6h91v6H69z"/><circle cx="211" cy="59" r="32" fill="#181818"/><path fill="#969696" d="M108 91l21-34 26 34z"/><path fill="#1d1d1d" d="M169.7 207l-5-27.7-32.7 1.2-17.3 1.2z"/><ellipse cx="19" cy="19" fill="#6b6b6b" rx="27" ry="12"/><circle cx="255" cy="16" r="40" fill="#020202"/><circle r="1" fill="#0a0a0a" transform="matrix(-14.97736 12.9049 -15.7206 -18.24525 179.5 .2)"/><path fill="#454545" d="M83 116h20v16H83z"/><path fill="#b4b4b4" d="M91 90l-32 1 18-23z"/><path fill="#bdbdbd" d="M75.5 42.7l1.9 36.4L82.1 44l52.8 2.7z"/><path fill="#555" d="M18 92h16v62H18z"/><path fill="#535353" d="M237 139l34-50-32-13z"/><path fill="#fff" d="M43 39h3v39h-3z"/><path fill="#888" d="M0 26h71v11H0z"/><path fill="#4d4d4d" d="M117 180l-33-21 96 6z"/><circle r="1" fill="#2f2f2f" transform="rotate(5 -886.7 2056.5) scale(14.62452 29.74317)"/><path fill="#404040" d="M80 47h10v21H80z"/><path d="M249.8 208.6L228.1 191l32-39.6L282 169z"/><path fill="#474747" d="M138.7 100.9l.2 10.5-18.7 18.5 15.5 12.7z"/><circle cx="38" cy="186" r="33" fill="#505050"/><path fill="#fff" d="M18.8 61.7l-31.3 61.8L-7.7 29l30.2 32z"/><circle r="1" fill="#999" transform="matrix(-8.85761 10.66905 -1.88467 -1.56468 127.2 112.9)"/><path fill="#fff" d="M16.2 100L1.3 97.8 3.8 82l14.9 2.4z"/><path fill="#d0d0d0" d="M120 16l32-5-12-6z"/><path fill="#545454" d="M92 31l-30 5 8 6z"/><path fill="#323232" d="M223 97h14v24h-14z"/><circle r="1" fill="#212121" transform="matrix(15.77109 23.7759 -13.07298 8.6716 178 34)"/><path fill="#e2e2e2" d="M6.6 70.8L29 93.9l11.1-1.8 33.8-12.7z"/><path fill="#0d0d0d" d="M219 18h18v77h-18z"/><ellipse cx="16" cy="110" fill="#a8a8a8" rx="5" ry="13"/><path fill="#3b3b3b" d="M39.6 96.5l-24.1-3.7 2.9 3.4L43.2 109z"/><path fill="#656565" d="M57 100h18v22H57z"/><path fill="#fff" d="M60 37h3v23h-3z"/><path fill="#7e7e7e" d="M120 133h9v28h-9z"/><circle r="1" fill="#989898" transform="matrix(-26.97816 12.86792 -1.4008 -2.93683 95.5 20.6)"/><path fill="#222" d="M226 139h30v12h-30z"/><path fill="#121212" d="M165.1 136.3L155 153.2l13.8-7.3.8 5.2z"/><path d="M200.4 107.6l26 10.5-18.8 46.3-26-10.5z"/><ellipse cx="128" cy="95" fill="#2e2e2e" rx="48" ry="4"/><ellipse cx="124" cy="2" fill="#1f1f1f" rx="43" ry="5"/><path fill="#868686" d="M110.5 112l7 .2-56.5.8 43.9-7.6z"/><path fill="#959595" d="M121.4 146.2l-8.2-18.1 16.9-4.1-6.8-21.1z"/></g></g></svg>