<svg xmlns="http://www.w3.org/2000/svg" viewBox="0 0 1400 1049"><defs/><filter id="a"><feGaussianBlur stdDeviation="12"/></filter><rect width="100%" height="100%" fill="#444"/><g filter="url(#a)"><g fill-opacity=".5" transform="translate(2.7 2.7) scale(5.46875)"><circle r="1" fill="#fff" transform="matrix(56.74382 -116.55486 190.54669 92.76617 162 30.8)"/><circle cx="178" r="54" fill="#fff"/><ellipse cx="175" cy="174" fill="#7f7f7f" rx="91" ry="33"/><circle cx="62" cy="123" r="37" fill="#1a1a1a"/><circle r="1" fill="#f7f7f7" transform="matrix(-98.86657 -15.64545 4.97586 -31.44338 65.3 17.1)"/><path fill="#fff" d="M211.4 72l-5 70.8-39.8-2.8 5-70.8z"/><ellipse cx="160" cy="100" rx="7" ry="50"/><ellipse cx="124" cy="14" rx="82" ry="3"/><ellipse cx="140" cy="143" fill="#eaeaea" rx="18" ry="42"/><ellipse cx="118" cy="56" rx="92" ry="5"/><circle r="1" fill="#292929" transform="rotate(63.4 -29.6 250) scale(28.30799 16.35795)"/><ellipse cx="21" cy="72" fill="#bcbcbc" rx="22" ry="42"/><path d="M13 97l-29 68 34 41z"/><circle r="1" fill="#e2e2e2" transform="matrix(-16.53545 -1.44666 6.90288 -78.9003 228.2 59.8)"/><circle r="1" fill="#fff" transform="rotate(-81.2 85.7 -58.3) scale(11.62981 79.14802)"/><path fill="#666" d="M91.9 162.6l-22.6-42.3 46.8-25 22.6 42.4z"/><path fill="#eaeaea" d="M59 80h11v36H59z"/><ellipse cx="41" cy="172" rx="14" ry="68"/><circle r="1" fill="#2b2b2b" transform="matrix(3.37308 -12.03093 8.60637 2.41295 126.6 96)"/><path fill="#fff" d="M141.3 128.9l.4-20 15 .2-.4 20z"/><path fill="#222" d="M155 143h55v11h-55z"/><path fill="#a7a7a7" d="M202.3 191.5l-32-1 1.4-38 32 1z"/><path fill="#3f3f3f" d="M74.3 85.2l11-10.2 18.4 19.8-11 10.2z"/><path d="M116 133h29v6h-29z"/><path fill="#fff" d="M176.6 118.9l2.8-53 22 1.2-2.8 53z"/><circle cx="28" cy="44" r="18" fill="#eaeaea"/><circle r="1" fill="#444" transform="matrix(-.7299 -4.7083 11.72262 -1.81729 93 47)"/><path d="M93 13h105v3H93z"/><ellipse cx="20" cy="71" fill="#747474" rx="45" ry="10"/><path fill="#7c7c7c" d="M185.7 70.2l.6 17-18 .6-.6-17z"/><ellipse cx="159" cy="99" rx="3" ry="49"/><path fill="#0f0f0f" d="M30 103h30v52H30z"/><path fill="#0c0c0c" d="M146 52h67v9h-67z"/><path fill="#fff" d="M121 78l-11 4-1 23z"/><path fill="#f9f9f9" d="M149 18h80v33h-80z"/><circle r="1" fill="#979797" transform="matrix(-10.35294 13.1604 -23.53835 -18.517 119.2 164.8)"/><path d="M66 179h26v12H66z"/><ellipse cx="42" fill="#fff" rx="17" ry="16"/><ellipse cx="254" cy="134" fill="#707070" rx="9" ry="61"/><ellipse cx="201" cy="84" rx="1" ry="71"/><path fill="#f6f6f6" d="M155 158l2-52-17 51z"/><ellipse cx="161" cy="121" fill="#0b0b0b" rx="5" ry="45"/><path fill="#2c2c2c" d="M208 147h18v44h-18z"/><path fill="#a0a0a0" d="M9-16l19 148-42-89z"/><path fill="#fff" d="M142 113.4l-6.6 11.2-17.3-10 6.5-11.2z"/><path fill="#707070" d="M60 155h54v23H60z"/><ellipse cx="99" cy="57" fill="#0a0a0a" rx="58" ry="4"/><path fill="#fdfdfd" d="M136 82h16v15h-16z"/><ellipse cx="169" cy="134" fill="#f8f8f8" rx="4" ry="28"/><ellipse cx="198" cy="3" fill="#fff" rx="29" ry="8"/><circle r="1" fill="#fff" transform="matrix(-3.87278 -7.10318 28.52247 -15.55096 94.4 34.3)"/><path fill="#fff" d="M197 140.5h-30v-11h30zM108 18h30v34h-30z"/><path fill="#2b2b2b" d="M140.9 52.1l25.7 8.8-2.9 19.4-29-24.5z"/><ellipse cx="51" cy="44" fill="#0c0c0c" rx="1" ry="33"/><path d="M4 117h11v74H4z"/><path fill="#9e9e9e" d="M160.4 176.3l-38.4 6.6 14.6-20.8 79.3-6.8z"/><path fill="#6f6f6f" d="M28 102l7-19 19 22z"/><path fill="#373737" d="M67 107h27v49H67z"/><ellipse cx="66" cy="15" fill="#191919" rx="19" ry="3"/><ellipse cx="81" cy="109" fill="#7b7b7b" rx="5" ry="46"/><path fill="#f0f0f0" d="M210 44h18v17h-18z"/><path fill="#e5e5e5" d="M67 83.1l-6 49-.3-23.8 21.9-32z"/><path fill="#565656" d="M194 206l-39-69 17 69z"/><circle r="1" fill="#737373" transform="matrix(6.05436 .60353 -.46709 4.68563 171.5 49.1)"/><path fill="#e3e3e3" d="M165 67h4v25h-4z"/><path fill="#8b8b8b" d="M147 92h11v17h-11z"/><path fill="#8c8c8c" d="M17.9 175.8l-2.8-28 10.2 20.8-.2 10.4z"/><path fill="#fff" d="M170 107h25v16h-25z"/><path fill="#3b3b3b" d="M200.7 145.3l-40.9-.9-30.8-13 36.5 10.6z"/><path fill="#080808" d="M72 118h9v32h-9z"/><ellipse cx="255" cy="25" fill="#b3b3b3" rx="28" ry="72"/><ellipse cx="105" cy="120" fill="#999" rx="12" ry="23"/><path fill="#343434" d="M81 13h121v5H81z"/><circle r="1" fill="#d6d6d6" transform="matrix(30.07629 6.00983 -1.43954 7.20421 31.3 43)"/><ellipse cx="55" cy="53" fill="#0a0a0a" rx="14" ry="2"/><path fill="#c3c3c3" d="M134.2 37.6l-36.3-.5 51.8 10.1-6.9-27.1z"/><ellipse cx="100" cy="5" fill="#e5e5e5" rx="78" ry="8"/><path fill="#0b0b0b" d="M205 57l-13 7 10-1z"/><path fill="#f9f9f9" d="M135.8 129.3l23.9 6.6-34.5-4.9 13.2-23.5z"/><path fill="#fff" d="M30-16L49 4v47z"/><path fill="#b7b7b7" d="M51 61h76v14H51z"/><path d="M43 58h20v3H43z"/><path fill="#3c3c3c" d="M61 134.7l-8.6-62.4-5.4 38 13.9-13.5z"/><path fill="#d0d0d0" d="M35 84.5L28.5 98 15 91.5 21.5 78z"/><path fill="#919191" d="M17 122l15-7L5 63z"/><path fill="#fff" d="M120.3 78.3l-1.6 18-7-.6 1.6-18z"/><circle r="1" fill="#919191" transform="matrix(-1.61053 -.0675 1.35662 -32.36795 207.2 115)"/><circle r="1" fill="#828282" transform="rotate(-77.9 224.4 -62.4) scale(31.88932 10.98252)"/><ellipse cx="155" cy="128" fill="#434343" rx="45" ry="1"/><path fill="#e6e6e6" d="M122 154h37v7h-37z"/><path fill="#6e6e6e" d="M91.4 61.7l-29.5 56.2-3.8 32.3 9.6-11.6z"/><ellipse cx="6" cy="75" fill="#202020" rx="90" ry="1"/><ellipse cx="22" cy="95" fill="#fcfcfc" rx="2" ry="16"/><path fill="#303030" d="M128 63h6v11h-6z"/><path fill="#2f2f2f" d="M110 104l1-11 8 9z"/><circle r="1" fill="#969696" transform="rotate(2.7 -1777.4 5142) scale(2.90073 29.65298)"/><path d="M3 93h4v26H3z"/><ellipse cx="181" cy="63" rx="20" ry="1"/><path fill="#c3c3c3" d="M175 155h22v10h-22z"/></g></g></svg>