<svg xmlns="http://www.w3.org/2000/svg" viewBox="0 0 1400 1050"><defs/><filter id="a"><feGaussianBlur stdDeviation="12"/></filter><rect width="100%" height="100%" fill="#694531"/><g filter="url(#a)"><g fill-opacity=".5" transform="translate(2.7 2.7) scale(5.46875)"><circle cx="176" cy="69" r="217" fill="#fff"/><circle cx="90" cy="87" r="200" fill="#fff"/><circle cx="136" cy="80" r="46" fill="#491a00"/><circle r="1" fill="#9e6a36" transform="matrix(-57.18185 -17.04665 6.67254 -22.3826 194 125.7)"/><circle r="1" fill="#fff" transform="matrix(49.14212 39.63133 -75.21796 93.2689 57.1 21.3)"/><circle cx="223" cy="18" r="75" fill="#fff"/><circle r="1" fill="#fff" transform="matrix(-1.60887 33.71352 -202.97704 -9.68642 79.4 176.2)"/><circle r="1" fill="#48280a" transform="matrix(-24.26184 24.86203 -17.28867 -16.87131 138.8 85.5)"/><circle r="1" fill="#fff" transform="matrix(92.54544 82.34966 -20.9904 23.58923 215.8 57.8)"/><circle r="1" fill="#e3ccaf" transform="rotate(104.5 20.3 126.6) scale(19.8193 76.60854)"/><path fill="#b28f6d" d="M90 37l66 13-66 24z"/><circle cx="36" cy="51" r="54" fill="#fff"/><circle r="1" fill="#7e4a21" transform="matrix(-30.1914 -3.70916 1.38106 -11.24142 209.8 119.3)"/><ellipse cx="86" cy="169" fill="#fff" rx="67" ry="30"/><path fill="#743b09" d="M154 37.2l-13.7 14.6-18.3-17 13.7-14.6z"/><path fill="#fff" d="M98.2 81.7l11-.4.6 15-11 .4z"/><path fill="#614025" d="M110 66h73v29h-73z"/><circle cx="240" cy="56" r="58" fill="#fff"/><circle r="1" fill="#fff" transform="rotate(-111.4 167.6 17.6) scale(15.52554 136.89147)"/><circle r="1" fill="#af8966" transform="rotate(74.2 14.5 170.5) scale(15.71632 32.25764)"/><path fill="#fffdfa" d="M-16 131.1l127.7-67 29.9-9-27.4-3.8z"/><ellipse cx="48" cy="175" fill="#fff" rx="119" ry="35"/><ellipse cx="93" cy="61" fill="#350d00" rx="3" ry="21"/><circle r="1" fill="#fff" transform="rotate(-21.7 80 -224.3) scale(82.55682 27.96639)"/><circle cx="194" cy="152" r="23" fill="#dcccb9"/><path fill="#fff" d="M113 124l31 5-45-23z"/><path fill="#c3a98e" d="M127 125.3l63.9 31.2-8 16.2-63.8-31.2z"/><path fill="#fff" d="M0 0h89v102H0z"/><path fill="#f2dbc0" d="M164.5 98.3l-8.6 11.5 19-1.2 18.6-7.3z"/><path fill="#927c66" d="M12 133h93v5H12z"/><path fill="#fff" d="M255.9-16l9.9 84.9-106.6-16.1-38-62.1z"/><ellipse cx="237" cy="128" fill="#9f7a59" rx="14" ry="13"/><ellipse cx="61" cy="122" fill="#ebc8a1" rx="46" ry="14"/><path fill="#4d2909" d="M175 82h-6V54h6z"/><path fill="#775539" d="M209 101l-55-28-45 13z"/><circle r="1" fill="#8e7e6f" transform="rotate(-112.8 157 13.4) scale(3.33502 24.21045)"/><path d="M117 91h12v16h-12z"/><ellipse cx="97" cy="162" fill="#fff" rx="35" ry="27"/><path fill="#442c1a" d="M91.3 64.6l7.6 14.1 84.7-8.4-94.2 1.2z"/><ellipse cx="242" cy="184" fill="#fff" rx="48" ry="28"/><path fill="#fff" d="M37.3 78.5L-16 106.1 77.3 207-16 160z"/><path fill="#523b23" d="M89 95l8-19v29z"/><path fill="#c28b61" d="M137.4 83.2l9.6 12.7-14.9-.6-10.8-5.4z"/><path fill="#fff" d="M0 0h90v106H0zm103.1 85l7 5.4-6.1 10.5-5.9-5.3z"/><path fill="#f2e1ce" d="M185 133h30v31h-30z"/><ellipse cx="137" cy="126" fill="#ebcfb3" rx="61" ry="6"/><path fill="#3c2716" d="M109.9 60.7l16.6 7-2.4 5.6-16.6-7z"/><path fill="#603c23" d="M114 46l-2-7-22 2z"/><path fill="#493c2b" d="M73.5 139.5l-.3 2-16.7-3 .3-2z"/><path fill="#fff" d="M250 86h6v106h-6z"/><path fill="#605046" d="M189.4 172.3l-31.5-12.7.7-1.9 31.5 12.7z"/><path fill="#fff9df" d="M126 51l3 13-24-9z"/><ellipse cx="148" cy="64" fill="#b38864" rx="23" ry="4"/><path fill="#83664c" d="M215 160l1-14 33 1z"/><circle r="1" fill="#83786e" transform="rotate(27.9 -229.9 346.2) scale(28.42928 2.07232)"/><path fill="#261401" d="M29.2 139.3l-8 4.3-.4-1 8-4.2z"/><path fill="#945c2e" d="M144 32L96 53l60-3z"/><ellipse cx="117" cy="13" fill="#fff" rx="9" ry="32"/><ellipse cx="160" cy="182" fill="#fff" rx="255" ry="11"/><path fill="#fcca9f" d="M118 62h3v26h-3z"/><path fill="#50341f" d="M168.8 111.6l-28.9-3.1 3.1-21-14.1 31.9z"/><ellipse cx="137" cy="40" fill="#8b5f3b" rx="6" ry="22"/><circle r="1" fill="#fff" transform="rotate(113.9 66.3 79.6) scale(11.30204 4.28468)"/><path fill="#fff" d="M183 0h73v92h-73z"/><path fill="#56361f" d="M200 96h5v30h-5z"/><path fill="#fff" d="M96 70l3-14 10 11z"/><circle r="1" fill="#feffff" transform="matrix(-146.5787 -68.98792 .83538 -1.77493 175.3 145.5)"/><path fill="#fff" d="M58.5 41.4L91.4-10l4.8 61.8 17.6-7.3z"/><ellipse cx="41" cy="137" fill="#625649" rx="16" ry="2"/><ellipse cx="91" cy="79" fill="#887259" rx="2" ry="38"/><path fill="#e1c6aa" d="M90 99l-64 39-8-24z"/><path fill="#cfb192" d="M209.6 101.5L162.8 96 151 93.9l7.7 15.6z"/><circle r="1" fill="#fff" transform="matrix(-.8604 28.7752 -32.71064 -.97807 44.4 167)"/><path fill="#b18562" d="M130.4 114l-2.5-40.7 3.7-11.1 2.4 39.9z"/><path fill="#71604e" d="M15.8 124.9l-4 6.9-7.4-7.7 1.7 3.3z"/><ellipse cx="235" cy="90" fill="#fff" rx="32" ry="23"/><path fill="#805637" d="M164 111l21-4 32 25z"/><path fill="#210e00" d="M91 77l13-8 13 3z"/><path fill="#0e0c0a" d="M120.7 84.4l6-16.4 3.2 11.1-3.4 8.8z"/><path fill="#7a7067" d="M170.8 140.3l-21.2-9 1.6-3.6 21.2 9z"/><path fill="#97816e" d="M129.8 149l14.1.6 20.4-9-1.1-1.5z"/><path fill="#fff" d="M47.8 207L271 188.6l-285.3-53 16.5-12.1z"/><path fill="#83532c" d="M89 50h20v4H89z"/><path fill="#f2d9bd" d="M163.6 143.1l-18.6 7.6 44.3 20.1 15.9-9.8z"/><path fill="#f5e6d4" d="M128 140.7l-1.1-18.1 40.2 15.7-27.7 5.8z"/><path fill="#fff" d="M109 85l-9-2v18z"/><circle cx="94" cy="10" r="31" fill="#fff"/><path fill="#fff" d="M4-16L-7 124l92-31z"/><path fill="#807064" d="M96.3 136l.5-4 16.9 2-.5 4z"/><path fill="#846346" d="M171.5 138.8l31.3-10.2 6.9-3.7-37.6 11.4z"/><path fill="#776c64" d="M192.3 168.4l4.2-5.6-9.7 13.4 20.9-14.4z"/><path fill="#18110c" d="M174 98l-19.7-7.2L156 86l19.7 7.1z"/><path fill="#1a0900" d="M136 111l-4-17 11 14z"/><path fill="#eed0b0" d="M184.9 124l-2.8-19.8 1-.2 2.8 19.8z"/><circle r="1" fill="#fff" transform="rotate(-75.6 200 -9.6) scale(23.97756 30.65393)"/><ellipse cx="151" cy="86" fill="#a67a57" rx="22" ry="3"/><path fill="#fff" d="M144.3 27.3L155 20l20.7 30.7L165 58z"/><ellipse cx="98" cy="42" fill="#684429" rx="11" ry="2"/><path fill="#82736a" d="M216.7 161L167 137.9l.4-.9 49.8 23.3z"/></g></g></svg>