<svg xmlns="http://www.w3.org/2000/svg" viewBox="0 0 1400 1050"><defs/><filter id="a"><feGaussianBlur stdDeviation="12"/></filter><rect width="100%" height="100%" fill="#41562d"/><g filter="url(#a)"><g fill-opacity=".5" transform="translate(2.7 2.7) scale(5.46875)"><circle r="1" fill="#fff" transform="rotate(176.6 65.2 4.5) scale(220.56633 36.02314)"/><circle r="1" fill="#c7b6cf" transform="matrix(16.46507 55.7858 -152.59836 45.0391 61.3 153.2)"/><circle r="1" fill="#fff" transform="matrix(-2.4209 -24.73657 137.06935 -13.4146 126.5 11.8)"/><circle r="1" fill="#f5f5f8" transform="matrix(28.14858 -46.23206 19.43678 11.83417 85.6 166)"/><circle r="1" transform="matrix(24.80608 19.311 -10.11732 12.99627 179 156.2)"/><ellipse cx="86" cy="68" fill="#151721" rx="100" ry="24"/><ellipse cx="255" cy="7" fill="#e6f7ff" rx="38" ry="29"/><ellipse cx="20" cy="9" fill="#e0f5ff" rx="197" ry="31"/><path fill="#cfcaff" d="M163.2 169l18.5 29.7-22.9 14.3-18.5-29.7z"/><circle r="1" fill="#222a3b" transform="matrix(10.1692 -.39119 2.8864 75.03348 129.7 167.2)"/><circle r="1" fill="#fffeff" transform="matrix(51.31387 -21.19204 1.9824 4.80014 15 119.5)"/><path fill="#182f03" d="M182 24h46v13h-46z"/><circle r="1" fill="#87856a" transform="matrix(-31.49958 -16.23913 12.68705 -24.6095 223 119.3)"/><ellipse cx="132" cy="55" fill="#151e1f" rx="20" ry="23"/><ellipse cx="175" cy="131" fill="#eae9e4" rx="39" ry="5"/><circle r="1" fill="#839474" transform="rotate(75 -63.1 54.8) scale(9.41222 60.61446)"/><path fill="#d7e9ff" d="M0 0h38v46H0z"/><path fill="#535249" d="M-16 138l105 3-18-42z"/><path fill="#eaf2ff" d="M154 0h16v44h-16z"/><path fill="#c1c0bb" d="M32 157h88v35H32z"/><path fill="#9d879e" d="M209.4 207l-20.8-27.4-28.5-5L271 190.2z"/><path fill="#cfd2d1" d="M83.5 100.1L116 141l4.6-56.8L81.5 207z"/><path fill="#192420" d="M74 100l31-52-71-11z"/><path fill="#121b0f" d="M199 167.2l-39-1.4 1-29 39 1.4z"/><path fill="#dae8ff" d="M203-16L-16 20 86 44z"/><path fill="#5d6244" d="M149.6 40.3l27.6 4.4-12.8 81-27.6-4.4z"/><path fill="#fff9ff" d="M264.7 132.8l-.4 9-19-.6.4-9z"/><circle r="1" fill="#5f6d84" transform="matrix(-12.77922 1.92 -7.675 -51.08355 141.8 176.3)"/><path fill="#e1e5ea" d="M106.6 93.1l-24.5-.4 1.8 2.5.5 19.9z"/><path fill="#3f621f" d="M91 100h20v19H91z"/><ellipse cx="16" cy="162" fill="#666453" rx="16" ry="37"/><path fill="#fcfbfb" d="M134.9 113.9l34.9 65.1 9.8 28-5.1-4.1z"/><ellipse cx="242" cy="163" fill="#333033" rx="81" ry="21"/><path fill="#6c6860" d="M41 138h17v41H41z"/><circle cx="204" cy="109" r="22" fill="#73735c"/><circle cx="255" cy="4" r="31" fill="#d3dfff"/><path fill="#41692b" d="M12 82h67v14H12z"/><path d="M130 195l-7-35-3 41z"/><path fill="#ded7cd" d="M164.1 90l29.6-4.8-2.5 10.7-19.7-.9z"/><circle r="1" fill="#78796e" transform="matrix(4.51932 -8.86967 36.59253 18.64483 129.4 96.8)"/><path fill="#070a16" d="M174 136l-26-3 33 66z"/><circle cx="43" cy="191" r="11" fill="#edf0f1"/><ellipse cx="202" cy="57" fill="#404d2b" rx="39" ry="31"/><ellipse cx="163" cy="13" fill="#dde6ff" rx="23" ry="28"/><path fill="#9a958d" d="M256 96l-63-9 17 16z"/><ellipse cx="32" cy="67" fill="#111815" rx="72" ry="14"/><path fill="#a8a5a3" d="M85 181l34-53 1 79z"/><path fill="#495530" d="M188 139h44v36h-44z"/><path fill="#948793" d="M-16 93l8 21 54-19z"/><path fill="#2f2f25" d="M17 125h24v12H17z"/><path fill="#121410" d="M120 109h10v18h-10z"/><ellipse cx="94" cy="124" fill="#f5f7f9" rx="12" ry="6"/><circle r="1" fill="#2e3b30" transform="matrix(2.42482 -9.5828 24.89647 6.29978 143.7 46.6)"/><ellipse cx="45" cy="50" fill="#2d3b36" rx="16" ry="14"/><path fill="#222d27" d="M-9.1 57l15-12.7 14.4-.4 26.5 38.2z"/><ellipse cx="156" cy="129" fill="#e1dedd" rx="15" ry="5"/><path fill="#d5e5f9" d="M31-16l-47 41 48 23z"/><path fill="#546278" d="M103 135v4H85v-4z"/><path fill="#47572f" d="M171 36l26-9-38 72z"/><path fill="#dadbd9" d="M72 140h25v34H72z"/><path fill="#83807b" d="M42 126h31v31H42z"/><path fill="#f5eddf" d="M188.5 180.8l81.2 11.4-.2 1-81.2-11.4z"/><ellipse cx="69" cy="179" fill="#5e636c" rx="18" ry="2"/><ellipse cx="76" cy="87" fill="#4d5946" rx="33" ry="6"/><path fill="#2e2936" d="M176 185h43v6h-43z"/><path fill="#d7e5f5" d="M71-16L32.1 22.7 40 41.6l-56 4.2z"/><path fill="#535d3f" d="M214 98h42v20h-42z"/><path fill="#d2e2fe" d="M112.8 44.7l-22-13.8 8.4-13.6 22 13.8z"/><path fill="#bbb4a9" d="M275.8 181l-57.7-5v-1l57.8 5z"/><path fill="#768979" d="M192 23h44v5h-44z"/><path fill="#0e0e19" d="M195.9 160.9l27.5 5.3-12.5 5.8-49.2-11.9z"/><path fill="#15141a" d="M241 149h15v26h-15z"/><path fill="#ede6e4" d="M-16 138v-19l55-10z"/><path fill="#756f61" d="M164 95h28v33h-28z"/><path fill="#5a7148" d="M126.2 91.3l-16.5-1.2-22.3 26.7 3.5 1.6z"/><path fill="#36463e" d="M91 41h38v14H91z"/><path fill="#ebeff0" d="M73.5 98.7v-4l29 .6v4z"/><path fill="#e6e6eb" d="M81 121l15-16-10-3z"/><circle r="1" fill="#848381" transform="rotate(-82 220 -47.2) scale(1 81.92857)"/><ellipse cx="4" cy="185" fill="#b3c3af" rx="2" ry="32"/><ellipse cx="148" cy="5" fill="#d7e4fb" rx="123" ry="20"/><path fill="#59584e" d="M63 105l21-8 9 5z"/><ellipse cx="64" cy="91" fill="#375b25" rx="18" ry="6"/><path fill="#6d6d64" d="M83 138.5H67v-41h16z"/><path fill="#5d6773" d="M129 173h31v19h-31z"/><path fill="#7e7c74" d="M141 123l-33-38 83 14z"/><circle r="1" fill="#2d2e21" transform="matrix(37.84058 4.86998 -.19889 1.54541 229 191)"/><path fill="#191811" d="M121 146h6v44h-6z"/><circle r="1" fill="#dae7f6" transform="matrix(-11.85914 -7.30994 14.29281 -23.18768 91 21.6)"/><path fill="#3a3e3e" d="M142.4 136.8l-5.9-29.9-15.3 33.2-1.1-40.5z"/><path fill="#56672b" d="M210.7 145.3l-23.5-13.2-4.8 8.4 44.7 31.8z"/><path fill="#abaaa6" d="M109 116h11v76h-11z"/><path fill="#f0f7ff" d="M34 119h7v4h-7z"/><path fill="#cee1f7" d="M47 41L18-3l46-13z"/><path fill="#f8e9da" d="M196 190h10v2h-10z"/><path fill="#7d7f83" d="M59 155h41v2H59z"/><path fill="#5a6f2c" d="M216 125l-17 5 15-22z"/><path fill="#1f2126" d="M152.9 132.7l34.2 49.2 40.7 12-51-9.2z"/><path fill="#54672e" d="M193.4 106.8l3.4-6.8 34-28.5-32.2-2z"/><circle r="1" fill="#dde8f5" transform="matrix(-5.44193 25.89657 -16.97852 -3.56788 161.7 15.3)"/></g></g></svg>