<svg xmlns="http://www.w3.org/2000/svg" viewBox="0 0 1400 1050"><defs/><filter id="a"><feGaussianBlur stdDeviation="12"/></filter><rect width="100%" height="100%" fill="#394626"/><g filter="url(#a)"><g fill-opacity=".5" transform="translate(2.7 2.7) scale(5.46875)"><circle cx="134" cy="53" r="204" fill="#c9d7f9"/><circle r="1" fill="#0d0c00" transform="matrix(-22.47696 23.853 -66.08414 -62.27188 77.8 130.2)"/><circle r="1" fill="#fff" transform="rotate(-56.7 139 75) scale(34.01452 105.37941)"/><circle r="1" fill="#99c5ff" transform="rotate(87.8 53.3 80.8) scale(46.20816 161.09304)"/><ellipse cx="155" cy="84" fill="#1b2600" rx="255" ry="14"/><circle r="1" fill="#fff9f6" transform="matrix(-6.8846 30.60919 -64.8256 -14.58054 221.2 185.4)"/><ellipse cx="127" cy="103" fill="#454a1b" rx="54" ry="29"/><circle r="1" fill="#c7c088" transform="matrix(-32.58801 -10.84 5.6283 -16.9202 132.7 161.7)"/><ellipse cx="66" cy="104" fill="#c7cda5" rx="51" ry="7"/><circle r="1" transform="rotate(-148.7 79.4 75.9) scale(36.72374 11.89322)"/><path fill="#5b6400" d="M261 115l-89-32 99-42z"/><ellipse cx="4" cy="83" fill="#000700" rx="48" ry="20"/><circle r="1" fill="#b2aa5b" transform="matrix(-61.24878 2.5796 -.95822 -22.7515 215.9 131.5)"/><path fill="#11182a" d="M36 112h111v22H36z"/><path fill="#afc8f9" d="M50 74l167-9 54-64z"/><ellipse cx="210" cy="117" fill="#d3d5e5" rx="34" ry="8"/><circle r="1" fill="#030c12" transform="rotate(-40.1 250 -27.3) scale(10.49859 50.40899)"/><path fill="#909633" d="M192.2 118.1L152 102.7l11.8-30.8L204 87.3z"/><ellipse cx="188" cy="138" fill="#8e8d43" rx="55" ry="15"/><circle r="1" fill="#e6deec" transform="rotate(-127.6 55.2 73.1) scale(59.53365 23.64628)"/><circle r="1" fill="#6e90d7" transform="matrix(-197.99178 -3.25915 .4263 -25.89696 121.3 8.8)"/><circle r="1" fill="#d8d9d9" transform="rotate(-20.7 453 -264.6) scale(46.38831 3.58081)"/><circle r="1" fill="#999e71" transform="rotate(-8.7 712.6 -160.9) scale(74.59192 6.41592)"/><circle r="1" fill="#a1baf1" transform="matrix(46.3334 -14.06902 5.46545 17.99935 74.8 47.1)"/><ellipse cx="146" cy="100" fill="#cfd2a9" rx="23" ry="4"/><path fill="#969659" d="M229.7 118.9l38.8 8L254 85.6l-26.2.7z"/><circle r="1" fill="#4a5a07" transform="matrix(-5.36081 -12.75287 37.76186 -15.87362 226.9 74.5)"/><path fill="#faf1ff" d="M61 157l36 35H72z"/><ellipse cx="125" cy="116" fill="#2a3037" rx="50" ry="11"/><ellipse cx="64" cy="85" fill="#061500" rx="41" ry="7"/><circle r="1" fill="#1e2834" transform="matrix(-2.07131 -13.27677 45.09257 -7.03491 90.8 134.2)"/><circle r="1" fill="#1b2710" transform="matrix(-.42017 -2.62496 12.5068 -2.00193 184.5 126.6)"/><path fill="#000200" d="M14.3 102.4l-22.4 5.2-2.8-35.8 15.7-2.1z"/><ellipse cx="126" cy="83" fill="#4b5e0c" rx="39" ry="14"/><path fill="#e0defc" d="M64.1 107.4l38.4-2-86.7 10.2-31.8-.7z"/><path fill="#e8e1db" d="M152 180h13v12h-13z"/><circle r="1" fill="#aac5ea" transform="matrix(-7.57008 -3.2506 8.83234 -20.56903 95 56.8)"/><path fill="#7d7b48" d="M159 167l-14 29-57-44z"/><circle r="1" fill="#c2c2c4" transform="matrix(-.73282 3.42752 -39.07038 -8.35345 134 157.1)"/><path fill="#8d8843" d="M117 151l50 8 7-35z"/><path fill="#e2e2ef" d="M208.3 114l33.3 7.1-2 8.8-33.2-7z"/><path fill="#fff" d="M219.9 172.9l-6.3-26.1 9.3 3.8-9.7 24.6z"/><path fill="#aeaec5" d="M66 96h33v9H66z"/><path fill="#646e29" d="M43 92l23 14-78 5z"/><path fill="#42520f" d="M174 87l2-20 62 11z"/><path fill="#272f36" d="M177.6 191.3l1.3-4.8 15.5 4.2-1.3 4.8z"/><path fill="#afccec" d="M140.3 70.1l15 2.8L271 43.8-16 58.4z"/><ellipse cx="124" cy="35" fill="#8fa9df" rx="179" ry="15"/><path fill="#1c242d" d="M79.3 173.7l17.1-33.9-79.6-27.6 8.3 9.5z"/><path fill="#1b1708" d="M271 168l-40.4-15.4 23.2 11.8 17.2 2.3z"/><path fill="#bfddf6" d="M239.3 56.6l6.8-15.5-42.8 30.7-30.9-6.4z"/><ellipse cx="60" cy="72" fill="#6f7819" rx="21" ry="3"/><path fill="#2f3a20" d="M44.7 101.6L54 68l31.5 38.5 1.6-11.6z"/><circle r="1" fill="#d5d2c5" transform="matrix(-.06775 .9977 -62.74528 -4.26061 241.6 103.6)"/><ellipse cx="3" cy="66" fill="#697819" rx="30" ry="6"/><path fill="#4d5e21" d="M88.6 78L101 66.4 117.4 84 105 95.6z"/><path d="M202 94h17v5h-17z"/><path fill="#0a1329" d="M100 97h25v4h-25z"/><path fill="#e1dfe7" d="M54 152l-70-40 34 1z"/><path fill="#a1a47b" d="M156 94h47v5h-47z"/><path fill="#7a812b" d="M160 69h21v45h-21z"/><ellipse cx="111" cy="186" fill="#080f00" rx="18" ry="8"/><path fill="#303d52" d="M221 169l8-6-8-2z"/><path fill="#9a9f8e" d="M93 158.4l3.5 5 29.5-23-44.7 12.8z"/><ellipse cx="120" cy="103" fill="#bbbcb6" rx="10" ry="3"/><path fill="#373e3d" d="M76 109h80v19H76z"/><path fill="#70791c" d="M244 48h12v54h-12z"/><path fill="#d4d1d1" d="M231.9 147.7l-36.4 44.5-23.7-41.7 64.9 12.6z"/><ellipse cx="38" fill="#6a8bc4" rx="142" ry="15"/><ellipse cx="123" cy="169" fill="#53552e" rx="7" ry="10"/><circle r="1" fill="#768728" transform="matrix(7.40587 -8.10686 4.07238 3.72025 207.8 73.9)"/><ellipse cx="198" cy="146" fill="#6d7731" rx="18" ry="6"/><path fill="#979448" d="M194 136h77v24z"/><path fill="#cacbce" d="M150.3 127.3l-17.5 18 42.9-27.2 54.5-2.7z"/><path fill="#11170c" d="M104.9 207l-1.2-40.3-26.4-19.5-1.5-2.8z"/><path fill="#1e2809" d="M216.5 94.6l10.4-27 4.6 1.8-10.4 27z"/><path fill="#9499b6" d="M255.4 136.3l-21.9-7.1 3.1-9.5 21.9 7.1z"/><ellipse cx="13" cy="165" fill="#d2d0d8" rx="47" ry="31"/><circle r="1" fill="#b7babd" transform="rotate(158.8 54.2 80.5) scale(50.85493 1)"/><path fill="#9eb9e3" d="M2 48h108v14H2z"/><path fill="#0b1505" d="M36 99l68-17-120-3z"/><path fill="#bad6ea" d="M88.7 78.5l-1-1.8L71.3 64l29.3-.3z"/><path fill="#c8c7c9" d="M172 150l-25 39 81-9z"/><path fill="#d4d2d1" d="M232.6 157.2l32.5 12-.6 13.1-50.6-4.2z"/><path fill="#666b24" d="M168 104h23v8h-23z"/><path fill="#a3bded" d="M228 27h28v22h-28z"/><path fill="#e9e0db" d="M195 107h19v2h-19z"/><ellipse cx="43" cy="22" fill="#7c9ccc" rx="103" ry="14"/><path fill="#202732" d="M72.4 157.8l58.3-22.7 48.8-18.9-42.3 3.8z"/><ellipse cx="220" cy="101" fill="#dad8d2" rx="9" ry="2"/><path fill="#9eb8e8" d="M125 72l38-43-61 19z"/><circle r="1" fill="#3f4c15" transform="matrix(-4.49869 -13.3306 6.59141 -2.2244 183.8 80.8)"/><path fill="#222929" d="M23 115l36 38 21-35z"/><path fill="#b2d0e7" d="M35 62h128v7H35z"/><ellipse cx="44" cy="101" fill="#8a9540" rx="24" ry="3"/><path fill="#6c6854" d="M207 101l26 10 3-7z"/><path fill="#a1aa33" d="M235 56l36 24-11-20z"/><path fill="#d6d6de" d="M6.9 138l49 13.5 37.7 36.2 19.9 19.3z"/><path fill="#081021" d="M83.6 95.8l.8 8-4 .4-.8-8z"/><path fill="#373718" d="M209 98h39v2h-39z"/></g></g></svg>