<svg xmlns="http://www.w3.org/2000/svg" viewBox="0 0 1400 1050"><defs/><filter id="prefix__a"><feGaussianBlur stdDeviation="12"/></filter><rect width="100%" height="100%" fill="#3d3e3f"/><g filter="url(#prefix__a)"><g transform="translate(2.7 2.7) scale(5.46875)"><circle cx="139" cy="100" r="177" fill="#fff" fill-opacity=".5"/><circle r="1" fill="#fff" fill-opacity=".5" transform="matrix(55.7664 -154.05298 186.2431 67.41906 107.6 75)"/><circle r="1" fill="#fff" fill-opacity=".5" transform="matrix(-16.37915 153.67918 -214.80437 -22.89388 150.7 92.8)"/><circle cx="122" cy="106" r="175" fill="#fff" fill-opacity=".5"/><circle cx="145" cy="96" r="185" fill="#fff" fill-opacity=".5"/><circle cx="120" cy="102" r="171" fill="#fff" fill-opacity=".5"/><ellipse cx="130" cy="70" fill="#e1e9fa" fill-opacity=".5" rx="15" ry="37"/><path fill="#8e9eed" fill-opacity=".5" d="M138 62h2v36h-2z"/><path fill="#e0e8f9" fill-opacity=".5" d="M86.8 167l8.3-12.3L116 69.8l-37.1 84.1z"/><circle r="1" fill="#d2ddf8" fill-opacity=".5" transform="matrix(7.50224 39.7757 -2.73157 .51521 157.5 127.7)"/><circle r="1" fill="#fff" fill-opacity=".5" transform="matrix(67.06498 21.75555 -52.54972 161.99299 28.6 104)"/><circle r="1" fill="#fff" fill-opacity=".5" transform="matrix(-11.78344 -210.76219 53.77783 -3.00665 206 70)"/><ellipse cx="180" cy="100" fill="#f6fafb" fill-opacity=".5" rx="27" ry="54"/><path fill="#b6c3f0" fill-opacity=".5" d="M80 149h16v4H80z"/><path fill="#c2cef6" fill-opacity=".5" d="M158.3 140.6l-7.1-50.9 6.1 67.2 6.1-6.9z"/><path fill="#a6b4ec" fill-opacity=".5" d="M97 93h25v2H97z"/><ellipse cx="121" cy="64" fill="#8092ec" fill-opacity=".5" rx="1" ry="24"/><path fill="#7b8bed" fill-opacity=".5" d="M131.6 100.6l-.2 5-5-.2.2-5z"/><path fill="#b8c5f0" fill-opacity=".5" d="M132.7 168l.5 4-18 2-.4-4z"/><path fill="#bcc7f3" fill-opacity=".5" d="M138 55l5 8-3-20z"/><ellipse cx="149" cy="96" fill="#afbff6" fill-opacity=".5" rx="9" ry="2"/><ellipse cx="132" cy="64" fill="#fafcfd" fill-opacity=".5" rx="7" ry="40"/><circle r="1" fill="#f6fafc" fill-opacity=".5" transform="matrix(-20.21677 14.84374 -7.61362 -10.36955 99.1 83.4)"/><path fill="#c7d2f6" fill-opacity=".5" d="M153 43h-31l9-6z"/><circle r="1" fill="#fff" fill-opacity=".5" transform="rotate(-99.6 158.5 25.5) scale(19.59602 75.32617)"/><path fill="#fcfefe" fill-opacity=".5" d="M141 0h25v96h-25z"/><ellipse cx="153" cy="101" fill="#7d8dee" fill-opacity=".5" rx="1" ry="6"/><circle r="1" fill="#e6edf8" fill-opacity=".5" transform="matrix(3.75508 8.71919 -8.43878 3.63431 169.3 147)"/><ellipse cx="130" cy="100" fill="#fff" fill-opacity=".5" rx="24" ry="3"/><path fill="#f8fbfc" fill-opacity=".5" d="M42 99l60-10-35 71z"/><ellipse cx="130" cy="19" fill="#fff" fill-opacity=".5" rx="255" ry="21"/><path fill="#d0dbf2" fill-opacity=".5" d="M127 28h20v3h-20z"/><path fill="#fff" fill-opacity=".5" d="M-16 193.8l19.2-62.3 97.3 31.4 98.2 44.1z"/><path fill="#fffffe" fill-opacity=".5" d="M110 53h9v41h-9z"/><path fill="#96a6f1" fill-opacity=".5" d="M105 101h2v8h-2z"/><path fill="#f2f6fa" fill-opacity=".5" d="M161 101l18-15-32 4z"/><path fill="#b5c1f3" fill-opacity=".5" d="M107.7 106.8l-12.5 32.7-1-.3 12.6-32.7z"/><path fill="#fcfefd" fill-opacity=".5" d="M72.9 97.7l-1.3 57.2 25.5-18.4 7.9-36.7z"/><ellipse cx="140" cy="54" fill="#93a5f0" fill-opacity=".5" rx="1" ry="13"/><path fill="#e1e9f8" fill-opacity=".5" d="M121.4 131.7l16.9-1.3-18.2 7.3-1-19z"/><path fill="#fffffe" fill-opacity=".5" d="M122 97l21 12-21-54z"/><path fill="#dae4f8" fill-opacity=".5" d="M100 154h66v2h-66z"/><path fill="#fff" fill-opacity=".5" d="M157 142l6 40-31 4z"/><path fill="#dae3f5" fill-opacity=".5" d="M201 110l5 6-17-3z"/><circle r="1" fill="#fff" fill-opacity=".5" transform="matrix(27.9871 -3.18873 11.93121 104.7189 231.4 97.2)"/><path fill="#e7eef8" fill-opacity=".5" d="M61 117l5-8-24 4z"/><circle cx="131" cy="62" r="4" fill="#dae2f5" fill-opacity=".5"/><path fill="#f1f6f9" fill-opacity=".5" d="M166 59l-27-23 51 22z"/><path fill="#d0d9f2" fill-opacity=".5" d="M137 134.9l-.2 1L117 133l.2-1z"/><path fill="#fff" fill-opacity=".5" d="M107.9 105.3l7.7 9-22.4 37.9 8.6-27.6z"/><circle r="1" fill="#fff" fill-opacity=".5" transform="matrix(48.67692 -2.28482 1.94218 41.37725 16 81.6)"/><circle cx="91" cy="150" r="5" fill="#ccd5f4" fill-opacity=".5"/><path fill="#f5f9fb" fill-opacity=".5" d="M95.9 50.8l49.9-24.9-27.9 18.8-23.8 89.8z"/><path fill="#909be7" fill-opacity=".5" d="M105.3 97.7l-1.2-1.5 4.6-3.9 1.2 1.5z"/><path fill="#dfe7f6" fill-opacity=".5" d="M122 28h23v4h-23z"/><path fill="#a5b4f2" fill-opacity=".5" d="M161.9 154.4l-1 .2-8.8-41 1-.2z"/><path fill="#8a98ea" fill-opacity=".5" d="M91 149.6l2.8 4.2-.8.6-2.8-4.2z"/><path fill="#adbaf2" fill-opacity=".5" d="M138 69h2v26h-2z"/><circle r="1" fill="#fff" fill-opacity=".5" transform="matrix(4.87934 18.23947 -24.99947 6.68775 203.8 149)"/><path fill="#fffffe" fill-opacity=".5" d="M122 43h15v17h-15z"/><path fill="#d2daf4" fill-opacity=".5" d="M173.4 141l1 .1-1.8 14-1-.2z"/><path fill="#fdffff" fill-opacity=".5" d="M157.1 140.7l-3.7-24.6-32.2-8.6 45.8 87.8z"/><ellipse cx="130" cy="106" fill="#697cee" fill-opacity=".5" rx="3" ry="1"/><path fill="#f9fcfb" fill-opacity=".5" d="M125 67l14 9-1-17z"/><path fill="#feffff" fill-opacity=".5" d="M150.4 119.1l-42.7 14 31.6-34.5 12.1 5.3z"/><path fill="#fefffd" fill-opacity=".5" d="M154 74h5v44h-5z"/><path fill="#d2ddf4" fill-opacity=".5" d="M129.7 160l-2.8 5.4-2.6-1.5 2.8-5.3z"/><circle r="1" fill="#fdfffe" fill-opacity=".5" transform="matrix(-2.58664 29.76783 -6.02748 -.52375 147.7 43.8)"/><path fill="#e8eef8" fill-opacity=".5" d="M125 66h10v9h-10z"/><path fill="none" stroke="#a0adf2" stroke-opacity=".5" stroke-width=".5" d="M118 40.5q.6 3 21.5-.7"/><path fill="#fff" fill-opacity=".5" d="M-16 200.3l195.9 6.7-19-63.3v23.5z"/><path fill="#eff4fb" fill-opacity=".5" d="M111.8 157.6l-48-7.3 19.7 9.4 14.1-10.2z"/><ellipse cx="197" cy="30" fill="#fff" fill-opacity=".5" rx="47" ry="27"/><path fill="#ebf0f9" fill-opacity=".5" d="M85.3 97.4l18-11.5-31.7-1.3 21.7 3.2z"/><path fill="#aebdf0" fill-opacity=".5" d="M81 83h2v3h-2z"/><ellipse cx="116" cy="95" fill="#bcc7f3" fill-opacity=".5" rx="5" ry="1"/><path fill="#7b8bec" fill-opacity=".5" d="M131 102h-5l7 3z"/><path fill="#fff" fill-opacity=".5" d="M115 141l-7-46 20 1z"/><ellipse cx="151" cy="154" fill="#d0daf6" fill-opacity=".5" rx="18" ry="1"/><circle cx="88" cy="148" r="4" fill="#f3f8f9" fill-opacity=".5"/><path fill="#93a0ed" fill-opacity=".5" d="M124.8 168.3l.3 3-4 .4-.2-3z"/><path fill="#91a0f1" fill-opacity=".5" d="M137 40.6l-10-.2v-1l10 .2z"/><path fill="#eff5f9" fill-opacity=".5" d="M196.1 67l-21.7-15.1 17 13.9 18.5 52.9z"/><path fill="#e0e8f7" fill-opacity=".5" d="M161.9 136.3l7.2 27-1 .4-7.2-27z"/><path fill="#c7d2f4" fill-opacity=".5" d="M126.5 41.5l.3 1-13.3 4-.3-1z"/><path fill="#bfcbf6" fill-opacity=".5" d="M139 94h9v4h-9z"/><path fill="#bec9f3" fill-opacity=".5" d="M120 66h2v25h-2z"/><path fill="#f8fbfc" fill-opacity=".5" d="M153 140l-22-44 4 24z"/><ellipse cx="115" cy="55" fill="#fefffe" fill-opacity=".5" rx="5" ry="30"/><path fill="#b6c2f3" fill-opacity=".5" d="M139 51h2v15h-2z"/><path fill="#fafcfc" fill-opacity=".5" d="M186 66.3l-46.7 23.4 1.6-38.8 5.1-10.1z"/><circle r="1" fill="#eef4fa" fill-opacity=".5" transform="rotate(-146.3 76.3 44.9) scale(1 22.00053)"/><ellipse cx="132" cy="99" fill="#fff" fill-opacity=".5" rx="20" ry="3"/><path fill="#ccd8f4" fill-opacity=".5" d="M107.3 163.2l4.5-8.9 1 .5-4.6 8.9z"/><path fill="#e3eaf9" fill-opacity=".5" d="M97 85h33v2H97z"/><path fill="#c6d1f3" fill-opacity=".5" d="M127 130.9l.6 1.9-8.7 2.3-.5-1.9z"/><path fill="#feffff" fill-opacity=".5" d="M135 133.6l22.4 18.7-61 1.4 13.8-17.6z"/><circle r="1" fill="#ecf2f7" fill-opacity=".5" transform="matrix(17.85133 21.03895 -.7625 .64698 175.8 110)"/><path fill="#fff" fill-opacity=".5" d="M129 91V71h9z"/><path fill="#fffffd" fill-opacity=".5" d="M123 46h17v8h-17z"/></g></g></svg>