<svg xmlns="http://www.w3.org/2000/svg" viewBox="0 0 1400 1050"><defs/><filter id="a"><feGaussianBlur stdDeviation="12"/></filter><rect width="100%" height="100%" fill="#4e3d2b"/><g filter="url(#a)"><g fill-opacity=".5" transform="translate(2.7 2.7) scale(5.46875)"><ellipse cx="50" cy="70" fill="#d7ded5" rx="255" ry="46"/><ellipse cx="205" cy="6" rx="144" ry="20"/><circle r="1" fill="#a09f93" transform="matrix(41.40936 -3.40447 8.11633 98.72079 17.6 109)"/><circle r="1" fill="#736655" transform="matrix(171.3456 -84.3125 12.92283 26.26265 167.8 161)"/><path fill="#3e4433" d="M184 22l-38-1 5 77z"/><path fill="#c8c2bd" d="M99 45h32v66H99z"/><ellipse cx="246" cy="79" fill="#251b0b" rx="4" ry="187"/><ellipse cx="213" cy="37" fill="#564939" rx="58" ry="8"/><ellipse cx="185" cy="102" fill="#211301" rx="3" ry="147"/><ellipse cx="224" cy="90" fill="snow" rx="7" ry="17"/><circle r="1" fill="#3d3320" transform="matrix(4.86875 -16.75834 27.62984 8.02721 9 167)"/><circle r="1" fill="#f3ece9" transform="matrix(-3.3911 0 0 -41.33729 176 74)"/><circle r="1" fill="#686557" transform="matrix(27.465 23.48264 -8.99742 10.52327 53.7 16.9)"/><circle cx="100" r="29"/><ellipse cx="76" cy="163" fill="#221602" rx="27" ry="18"/><path fill="#e1d8d6" d="M196 41h11v62h-11z"/><circle r="1" fill="#6b6459" transform="matrix(15.32802 18.66064 -19.3858 15.92367 68.6 123.6)"/><ellipse cx="222" cy="71" fill="#040000" rx="42" ry="3"/><ellipse cx="255" cy="73" fill="#ede4dd" rx="6" ry="42"/><ellipse cx="172" cy="6" rx="104" ry="16"/><ellipse cx="227" cy="54" fill="#fffffe" rx="5" ry="15"/><ellipse cx="161" cy="116" fill="#413420" rx="70" ry="7"/><path fill="#010000" d="M145 39l10-3v40z"/><circle r="1" fill="#b9baae" transform="matrix(18.93786 6.16494 -10.49194 32.22983 35.2 75.6)"/><circle r="1" fill="#6f5f4d" transform="matrix(1.58077 -19.64718 80.44046 6.47209 195.7 158)"/><ellipse cx="117" cy="26" fill="#7c7061" rx="70" ry="4"/><path fill="#938276" d="M29 184h107v8H29z"/><path fill="#645a4b" d="M247 28l-22 3 20 79z"/><path fill="#c3c6bf" d="M1 9h7v117H1z"/><ellipse cx="229" cy="191" fill="#121008" rx="47" ry="13"/><path fill="#e4e2e4" d="M179 81l-3 28-18-27z"/><ellipse cx="195" cy="87" fill="#e4dfdd" rx="9" ry="8"/><circle r="1" fill="#1a1000" transform="rotate(90.9 28.8 186.7) scale(2.95052 38.78591)"/><path fill="#230c00" d="M186 70h70v3h-70z"/><path fill="#525342" d="M9.3 41.5L9-11.7 21.5 6.8l-7.4 47.7z"/><ellipse cx="141" cy="63" fill="#8f9455" rx="8" ry="37"/><ellipse cx="126" cy="83" fill="#d4d2cf" rx="5" ry="28"/><path fill="#554738" d="M187 19l-18 24 102-2z"/><path fill="#3a2916" d="M150 170l-97-25 2 38z"/><ellipse cx="232" cy="122" fill="#39301c" rx="53" ry="9"/><circle r="1" fill="#847a6c" transform="matrix(3.2428 -4.57998 44.89661 31.78857 73.5 23.9)"/><circle r="1" fill="#746250" transform="matrix(16.78577 6.41998 -17.57602 45.95449 157.5 156.8)"/><path fill="#fff" d="M100.4 45l2.2 31.9-3 .2-2.2-32z"/><path fill="#938a7d" d="M104 30h18v82h-18z"/><path fill="#3f3c2d" d="M67 22L15 11l54 28z"/><circle r="1" fill="#7a7266" transform="matrix(-17.46468 .51834 -.39184 -13.20234 68.7 113.8)"/><path fill="#fcfaf7" d="M205.3 59.2l-5.1-20-.6 34 3.8-11.8z"/><path fill="#fff" d="M174 44h2v37h-2z"/><path fill="#726758" d="M186 105h44v10h-44z"/><ellipse cx="29" cy="76" fill="#fff" rx="1" ry="31"/><path fill="#90917a" d="M163 27h9v46h-9z"/><ellipse cx="185" cy="60" fill="#31210f" rx="2" ry="66"/><circle r="1" fill="#332614" transform="rotate(-99.7 106.6 13.1) scale(6.0904 34.882)"/><path fill="#646353" d="M146 58l25 62-24-26z"/><path fill="#7cb6db" d="M104.5 129.5l-16.7 3-.3-2 16.7-3z"/><ellipse cy="159" fill="#443b2a" rx="10" ry="26"/><ellipse cx="173" cy="96" fill="#665647" rx="69" ry="1"/><ellipse cx="15" cy="134" fill="#ab9583" rx="32" ry="4"/><path fill="#706b5e" d="M234 74h11v32h-11z"/><ellipse cx="116" cy="13" rx="40" ry="10"/><path fill="#c9c2ba" d="M216 96l16 10 3-11z"/><circle r="1" fill="#261805" transform="matrix(1.13893 .00296 -.1412 54.39917 248.3 67.4)"/><path fill="#c4c2b7" d="M99 67h19v27H99z"/><ellipse cx="143" cy="81" fill="#503622" rx="44" ry="1"/><path fill="#5e5449" d="M62 73l-8 8 32-2z"/><path fill="#c3bfbb" d="M250 91h6v23h-6z"/><path fill="#b2aba5" d="M187 78h5v25h-5z"/><path fill="#6a5d4a" d="M15 149h37v37H15z"/><path fill="#a5a298" d="M1 125l54-42 1 28z"/><ellipse cx="246" cy="186" fill="#625243" rx="60" ry="2"/><path fill="#736258" d="M57 48h5v72h-5z"/><ellipse cx="26" cy="54" fill="#848561" rx="3" ry="37"/><path fill="#8b7a6b" d="M181.4 150l-45.8 4-1-12 45.8-4z"/><ellipse cx="245" cy="71" fill="#32250d" rx="14" ry="3"/><ellipse cx="226" cy="58" fill="#eae4df" rx="5" ry="12"/><path fill="#766a56" d="M221.4 33.3l-1.8 34-11-.6 1.8-34z"/><path fill="#fdfff9" d="M81 43l-5 3 2 6z"/><path fill="#fff" d="M251 48h3v19h-3z"/><ellipse cx="227" cy="26" fill="#1a0f00" rx="43" ry="2"/><path d="M54 148h36v4H54zm95-103h7v19h-7z"/><path fill="#968972" d="M180.9 29.5l-50-2.3-3.6 39.2 25.1-31.7z"/><path fill="#686151" d="M179.6 27.4l-34.3 19 52.3-7.9-6.3 45.6z"/><path fill="#62685a" d="M36.3 49.5l.4-23h5l-.4 23z"/><ellipse cx="138" cy="104" fill="#483528" rx="1" ry="39"/><path fill="#faf7f3" d="M224 78h4v29h-4z"/><path fill="#5b4f42" d="M59 47l10 10 18 1z"/><path fill="#796654" d="M204.1 164l36.4 2.6 5.5 12.3-55.3-.2z"/><path fill="#50422e" d="M129 111h60v26h-60z"/><ellipse cx="106" cy="81" fill="#807566" rx="2" ry="34"/><circle cx="246" cy="2" r="19"/><ellipse cx="6" cy="173" fill="#29271b" rx="34" ry="3"/><path fill="#dbd8d4" d="M92 59l6-15 14 20z"/><ellipse cx="21" cy="44" fill="#bab8a9" rx="3" ry="29"/><path fill="#a3aca1" d="M15 12H-4L-9 1z"/><ellipse cx="244" cy="95" fill="#817464" rx="2" ry="63"/><path fill="#878675" d="M18.6 96.9l-.4-67-9.8 17 3.4 78.4z"/><path fill="#e5e4e0" d="M123 45h3v60h-3z"/><path fill="#503e2a" d="M95 97h31v1H95z"/><path fill="#7d7265" d="M203 94h17v13h-17z"/></g></g></svg>