<svg xmlns="http://www.w3.org/2000/svg" viewBox="0 0 1400 1050"><defs/><filter id="a"><feGaussianBlur stdDeviation="12"/></filter><rect width="100%" height="100%" fill="#5d4c33"/><g filter="url(#a)"><g fill-opacity=".5" transform="translate(2.7 2.7) scale(5.46875)"><circle r="1" fill="#fff" transform="matrix(-9.96946 81.1385 -249.44452 -30.64916 190.8 23.3)"/><path fill="#fff" d="M3-16l265 6-11 134z"/><circle cx="72" cy="116" r="84" fill="#736e66"/><path fill="#fff" d="M19.3 65.6l-70.9-27.2 32.3-84 70.9 27.2z"/><path fill="#feffff" d="M271-3L28-1l216 116z"/><ellipse cx="112" cy="88" fill="#545356" rx="58" ry="29"/><circle r="1" fill="#4d4a4e" transform="matrix(1.82882 -30.21264 27.96041 1.69249 54.7 48)"/><path fill="#fff" d="M-29.6 52.5L-16-6 33.6 5.5 20 64z"/><circle r="1" fill="#53555a" transform="matrix(1.27624 -29.23081 36.57958 1.5971 185.1 119.8)"/><circle cx="56" cy="137" r="86" fill="#7c715d"/><circle r="1" fill="#919292" transform="matrix(-51.17319 21.19663 -7.83164 -18.90725 255 182.3)"/><ellipse cx="236" cy="89" fill="#ccd8e2" rx="20" ry="31"/><ellipse cx="127" cy="11" fill="#fff" rx="52" ry="33"/><circle r="1" fill="#fff" transform="matrix(19.87178 -28.59175 19.64346 13.65256 9 26.3)"/><circle cx="96" cy="81" r="39" fill="#646162"/><path fill="#323533" d="M269 103l-156 96 158-42z"/><path fill="#ebf5fa" d="M239.8-16L105.5 26.9 176 87l9.7 8.5z"/><path d="M37 19l-5 19 16-26z"/><ellipse cx="74" cy="79" fill="#d8ddd8" rx="2" ry="36"/><circle r="1" fill="#595958" transform="matrix(-77.31223 -32.03871 4.18406 -10.0965 153.2 97.7)"/><path fill="#acaa9b" d="M249.5 118.9l-19.9-13.7 13.9 25.6 25.5 6.1z"/><circle r="1" fill="#656669" transform="matrix(-6.24512 45.46107 -19.8901 -2.73236 38.5 77.2)"/><path fill="#5f5b55" d="M198.3 125.3l-180.4-6 148.3-28.1 3.4-16z"/><path fill="#fff" d="M100 59h1v55h-1z"/><circle r="1" fill="#6f524a" transform="rotate(-149.7 48.7 6) scale(53.33633 2.25291)"/><circle r="1" fill="#8c7756" transform="matrix(-28.14381 6.49751 -6.13425 -26.57034 112 149.4)"/><ellipse cx="98" cy="1" fill="#fff" rx="48" ry="27"/><circle r="1" fill="#dbe6ee" transform="matrix(20.13063 24.83714 -55.59593 45.0608 229.1 38.3)"/><circle r="1" fill="#403634" transform="matrix(16.06122 -37.69852 2.34318 .9983 29.3 47)"/><path fill="#3c3035" d="M41 9.7l13 5.2-3 7.4-13-5.2z"/><circle r="1" fill="#757472" transform="matrix(7.21343 -17.01947 49.83457 21.1216 13.9 86.8)"/><path fill="#212427" d="M52.4 74.5l-5.1-2.7L-16 54.7l59.7 21.4z"/><circle r="1" fill="#392c1b" transform="matrix(.3266 -3.42548 43.98549 4.19368 178.3 127.7)"/><ellipse cx="91" cy="113" fill="#1f1c13" rx="19" ry="3"/><circle r="1" fill="#fff" transform="rotate(111.5 8 19.3) scale(41.81355 8.89172)"/><path fill="#595957" d="M266.4 148.5l5 12-105.8 45-5-12z"/><path fill="#d3d7d5" d="M87 33h2v82h-2z"/><ellipse cx="129" cy="96" fill="#d7dbd8" rx="1" ry="28"/><path fill="#787978" d="M178 102h33v22h-33z"/><circle r="1" fill="#fffffd" transform="rotate(19.9 -36.5 393.3) scale(32.78945 18.12753)"/><circle r="1" fill="#655e4f" transform="rotate(47.3 -92.3 252.2) scale(15.57241 21.14526)"/><circle r="1" fill="#282213" transform="rotate(-18.1 624.4 -527.6) scale(107.98671 2.79832)"/><path fill="#514228" d="M-16 110L4.1 91.9l18.3 29.7 23.9-8.5z"/><path fill="#4c4241" d="M233 113l-42-21 55 50z"/><path fill="#b3babb" d="M59 45h3v32h-3z"/><path fill="#31271e" d="M90 62h8v22h-8z"/><path fill="#a89b80" d="M280 187.4l-31.2 28-18.8-20.8 31.2-28z"/><ellipse cx="111" cy="84" fill="#f2f5f0" rx="1" ry="32"/><ellipse cx="170" cy="77" rx="1" ry="6"/><path fill="#dddfd9" d="M138 67l-1 48h-1l1-48z"/><circle cx="9" cy="191" r="80" fill="#766549"/><path fill="#9c9997" d="M163.5 114h-3V74h3z"/><path fill="#312d27" d="M82 53h5v31h-5z"/><path fill="#6c5046" d="M54.2 15.5l-2.1 1 11.2 13.7 94.6 41.6z"/><ellipse cx="120" cy="104" fill="#928d81" rx="2" ry="46"/><path fill="#261910" d="M102 68h8v12h-8z"/><path fill="#413931" d="M113 79h5v45h-5z"/><path fill="#322c27" d="M139 81h4v36h-4z"/><path fill="#808181" d="M51 71l1-50-26 43z"/><path fill="#999996" d="M71 66h7v41h-7z"/><path fill="#534735" d="M44 112h7v80h-7z"/><ellipse cx="81" cy="147" fill="#837358" rx="32" ry="25"/><ellipse cx="9" cy="28" fill="#fff" rx="20" ry="33"/><path fill="#2b2822" d="M78 47h3v36h-3z"/><path fill="#5d4729" d="M47 119h87v4H47z"/><path d="M253 134h3v18h-3z"/><path fill="#cbd0d5" d="M238 86h11v35h-11z"/><path fill="#bcb6b6" d="M76.5 37.5l18 12.9-5.1-9.6L66 35.7z"/><path fill="#928f86" d="M10 95h17v14H10z"/><circle r="1" fill="#d2dce6" transform="matrix(72.70589 -13.58548 2.43873 13.05144 247.3 37)"/><path fill="#2f2720" d="M152 86h3v36h-3z"/><path fill="#36291f" d="M61 40l-7 17 1-14z"/><path fill="#e5ebe6" d="M144 109l-1-28h1l1 28z"/><path fill="#76726c" d="M62.3 85.9L61.9 58 50.3 77.5 69.2 140z"/><path fill="#3c362e" d="M122 70h7v24h-7z"/><ellipse cx="116" cy="83" fill="#342c25" rx="4" ry="13"/><path fill="#ebf0f0" d="M172 84.8L169.3 54 270 45.2l2.7 30.8z"/><path fill="#fdfffe" d="M130.6 55.8L21.7-2.9l-31.9 15.3L118.1-16z"/><path fill="#b4bbb9" d="M208.5 108.7L180.6 95l1-1.8 27.8 13.6z"/><circle r="1" fill="#715a50" transform="matrix(-87.70236 -40.33574 .41784 -.90852 123.4 65)"/><circle r="1" fill="#8d827a" transform="matrix(-18.46902 -9.91427 3.36408 -6.26685 125.8 67.7)"/><circle r="1" fill="#7a564b" transform="matrix(-1.12946 1.55266 -21.4536 -15.60615 157.4 75)"/><path fill="#61543f" d="M161 134h69v14h-69z"/><path fill="#47413a" d="M89 58h10v30H89z"/><path fill="#413a32" d="M145 83h5v53h-5z"/><path fill="#d4d8dc" d="M231.3 113.3l-13.7-6 53.2-.1-53.1-38.6z"/><path fill="#69564d" d="M187 85.1l6.2 16.5-10.3-.8 23.8-.3z"/><path fill="#7f6d53" d="M107 118h32v67h-32z"/><circle r="1" fill="#23231f" transform="rotate(95 21.6 156) scale(26.88856 1.85654)"/><ellipse cx="150" cy="97" fill="#ccd2d0" rx="1" ry="24"/><path fill="#0b0700" d="M-9 91l20 8-7 2z"/><path fill="#c6c6c3" d="M156 76h1v29h-1z"/><circle r="1" fill="#353128" transform="rotate(11.6 -730.8 1117.6) scale(23.66824 4.27339)"/><path fill="#95948f" d="M130.6 114.4l-69.3-9.8.1-1 69.3 9.8z"/><path fill="#e0e9ea" d="M72.4 73.9L69 77.5l-1.4-1.4 3.4-3.6z"/><path fill="#1a1b0c" d="M271 144.3l-19.9-30.7 9.7-5.7-7.9 38.6z"/><path fill="#2d2c28" d="M223 123h20v12h-20z"/><path fill="#f8f9f8" d="M183.7 85.1L171 79.3l14.2 14.3L201 73.4z"/><ellipse cx="81" cy="76" fill="#9facb2" rx="1" ry="28"/><circle r="1" fill="#9097a6" transform="matrix(2.66815 6.09838 -2.94628 1.28905 109.8 87.6)"/></g></g></svg>