<svg xmlns="http://www.w3.org/2000/svg" viewBox="0 0 1400 1050"><defs/><filter id="a"><feGaussianBlur stdDeviation="12"/></filter><rect width="100%" height="100%" fill="#345952"/><g filter="url(#a)"><g fill-opacity=".5" transform="translate(2.7 2.7) scale(5.46875)"><circle cx="97" cy="132" r="212" fill="#c0c0a0"/><ellipse cx="23" cy="139" fill="#33594e" rx="53" ry="30"/><circle r="1" fill="#c4beb6" transform="matrix(55.99988 -2.9952 1.60456 29.99988 66.1 191)"/><path fill="#b2af9c" d="M219-4L0-16l-13 75z"/><ellipse cx="112" cy="70" fill="#527068" rx="63" ry="47"/><ellipse cx="138" cy="161" fill="#416149" rx="39" ry="19"/><circle r="1" fill="#b8b7af" transform="rotate(156.4 56.8 77.8) scale(53.96391 8.83917)"/><circle r="1" fill="#abb290" transform="matrix(29.4559 5.2186 -3.97485 22.43572 189.7 33.6)"/><circle r="1" fill="#b5cb7c" transform="rotate(-62.6 88.2 19.4) scale(15.62396 21.80135)"/><path fill="#254a35" d="M223.5 157.5l-3.6-20.7 24.6-4.3 3.6 20.7z"/><path fill="#305461" d="M196.8 105.4l-19.2-25.6 17.6-13.2 19.2 25.6z"/><circle r="1" fill="#b2aeab" transform="matrix(-3.66697 -10.53012 26.16315 -9.11097 164.6 184)"/><path fill="#316354" d="M255.2 40.2L242 50.9l-25.2-31L230 9z"/><circle r="1" fill="#2d5356" transform="rotate(93.6 -72.2 90.6) scale(10.08997 22.1865)"/><circle r="1" fill="#c5bcaf" transform="matrix(-13.61653 -7.73526 4.18275 -7.36297 69.7 111.6)"/><circle r="1" fill="#acad90" transform="rotate(14.8 -501.2 878.2) scale(15.10218 19.61441)"/><path fill="#48684b" d="M177 116h41v19h-41z"/><path fill="#bab8ac" d="M65 153h31v39H65z"/><path fill="#eee0d5" d="M-3.9 201l-3-16.7L12 181l3 16.7z"/><path fill="#3a6261" d="M135 46L40 75l70 1z"/><circle cx="143" cy="83" r="20" fill="#8d938b"/><ellipse cx="135" cy="8" fill="#c1b19c" rx="38" ry="12"/><circle r="1" fill="#829a4e" transform="rotate(-11.2 1046.1 -1016.8) scale(45.333 9.28867)"/><path fill="#c8c4b4" d="M159 117l15 16-56 3z"/><path fill="#124040" d="M129 172h19v12h-19z"/><circle r="1" fill="#b6b4a9" transform="matrix(1.4026 3.98094 -94.50784 33.29795 248.8 89.6)"/><path fill="#61765f" d="M18 183h33v9H18z"/><path fill="#72867b" d="M76.4 7.3l21.2 25.2-36 30.2-21.2-25.2z"/><path fill="#5c6d69" d="M193 47l56 37-10-39z"/><path fill="#3b5d5d" d="M175.5 110.8l-11.3 3.3 29.9-18.3-1 9.3z"/><path fill="#245252" d="M79 138l-28 19 33-9z"/><ellipse cx="119" cy="103" fill="#306150" rx="17" ry="8"/><path fill="#b0b0a6" d="M248 58l23 21-46-18z"/><path fill="#3b6148" d="M151.3 144.5l23.6-4.6 3.8 19.6-23.6 4.6z"/><path fill="#9ca788" d="M92 95.1l-.9 9 48.5 40.4-25.6 8z"/><path fill="#bdb7ad" d="M89 152l18-2-28-25z"/><path fill="#8bae64" d="M271 150V95l-61 21z"/><circle cx="237" cy="146" r="17" fill="#517052"/><path fill="#33585a" d="M105 162H94l-5 14z"/><path fill="#a5a796" d="M192 129l-11 14 55 26z"/><path fill="#afada2" d="M-9.4 57.3L28 35.8l7.5 13L-2 70.1z"/><path fill="#a5b47a" d="M171 7l48 45 14-18z"/><circle r="1" fill="#929b75" transform="matrix(23.7978 -12.91334 2.60806 4.80636 5.4 144.3)"/><circle r="1" fill="#919e6a" transform="matrix(26.7109 -3.24404 3.47758 28.63385 255.9 173.6)"/><path fill="#134655" d="M217.2 183.2l10.9-5.3-3.7-6.5-9.3 6.6z"/><path fill="#809157" d="M176 150h27v25h-27z"/><path fill="#5d7277" d="M159.7 96.2l51.4-40.4-94.2 28.9 17.8-4.9z"/><path fill="#b6b3a7" d="M108 207l-30-45 99 43z"/><path fill="#c1beb5" d="M183 97l-20 16-6-8z"/><path fill="#4e7065" d="M271 27l-41 39-5-30z"/><path fill="#a4a39c" d="M185.8 45.8l7 11.6-54.6 24.4 16.3-6.8z"/><path fill="#5f7c5e" d="M93.9 111.7l16.2 21.6-12 9L82 120.7z"/><path fill="#adab93" d="M111 82l32 3-24-12z"/><path fill="#466a51" d="M110 120l-11-13 35 10z"/><path fill="#3f5f4b" d="M170 126l26 3-29-15z"/><path fill="#28554d" d="M33 151.7l11.3 2.6-8.7-16.3L8 150.8z"/><ellipse cy="83" fill="#416861" rx="6" ry="18"/><path fill="#83906d" d="M133 174l-27-12 32-29z"/><path fill="#929c83" d="M71.2 108.5l-39.7 26.4-23-6.7 94.6-2.7z"/><path fill="#c1beb2" d="M233.2 167l-.5.8-62-38.7.6-.9z"/><path fill="#c6c4b6" d="M7 180l20 3-20 6z"/><path fill="#2c575c" d="M22 109l9 15-41 2z"/><path fill="#546e65" d="M123.1 128.2l-.3-1 68-23.4.4 1z"/><path fill="#c6bfb8" d="M145 28h19v5h-19z"/><path fill="#436c52" d="M238 162h28l-23-11z"/><circle r="1" fill="#68837d" transform="matrix(-.99745 10.75214 -25.39218 -2.35556 190.2 0)"/><circle r="1" fill="#406561" transform="rotate(-23.3 201.2 -347.6) scale(11.25235 8.86834)"/><circle r="1" fill="#597258" transform="matrix(-8.87171 -13.70329 4.81049 -3.11438 145.7 146.4)"/><path fill="#aeaa93" d="M116 33L84 13l65-18z"/><path fill="#b2a382" d="M236.7 213l-12.5-19.3 41-26.7 12.6 19.3z"/><circle r="1" fill="#cdc5bb" transform="rotate(124.8 93.7 95.2) scale(1.70313 9.25749)"/><path fill="#486d66" d="M38 71l54-7-27 29z"/><path fill="#b7b7aa" d="M47.6 159.6l31.5 31-46.8-9.9 2.1-.7z"/><path fill="#41625d" d="M73 156l-25-35 42 22z"/><path fill="#aea497" d="M80 126.6l1.8 10.1L65 96.9l5.3 41.9z"/><path fill="#50665e" d="M96.5 156.6l18.6 4.1 11 16-17.2-35.5z"/><path fill="#aeb0a6" d="M155 69l-12 3-5-15z"/><path fill="#3a6741" d="M210.6 118l53.5 31.9-23.6-6.8-12.6-9.6z"/><path fill="#385957" d="M119 178l22 9 18-18z"/><circle r="1" fill="#979c97" transform="matrix(22.23493 -14.11071 4.4221 6.96812 155 184)"/><path fill="#a3a999" d="M171.9 116.2l-26.3-22.7-10.8 9.7-7-15z"/><circle cx="96" cy="89" r="19" fill="#73896a"/><circle r="1" fill="#3f6161" transform="matrix(-12.5149 5.50625 -1.32544 -3.01253 141 113)"/><path fill="#dce0d2" d="M114 176l-17-8 4 9z"/><path fill="#276155" d="M271 60l-28-26 28-10z"/><path fill="#c2c2bb" d="M122.7 123.1l-17.5 6.4 27.5 2.5-2.5 3.1z"/><circle r="1" fill="#6f7f7b" transform="matrix(1.09141 3.02104 -5.49331 1.98458 113.5 179.3)"/><path fill="#366269" d="M126.5 28.3l15.5 2.4-20 11.2-6-6.5z"/><ellipse cx="155" cy="159" fill="#2e584a" rx="22" ry="4"/><path fill="#315561" d="M49.4 193.4l-7.6 2.6-3.2-9.4 7.6-2.6z"/><path fill="#61717c" d="M194 50l-16-12-2 9z"/><path fill="#3f624a" d="M217 108l3.6-7.9 7.1 11.6-11.6-.5z"/><path fill="#536e6d" d="M178 84l1-29 50 42z"/><path fill="#b9bcac" d="M66 155.4l3.1 38 31.7-52.7-2.2 16.4z"/><path fill="#92a270" d="M141 150l20 2-13 6z"/><path fill="#a8a295" d="M271 51l-14 6-17-15z"/><path fill="#8a9481" d="M174.6 155.7l-10-5.8-18.6-12.5 8.8-11.2z"/><path fill="#8b8c7b" d="M76 178l30 1-13-10z"/><circle r="1" fill="#c8d0c8" transform="matrix(1.39612 2.59478 -4.55543 2.45104 214.6 144.4)"/><circle r="1" fill="#959b8b" transform="matrix(1.13242 3.48523 -29.18769 9.48365 55.6 176.3)"/></g></g></svg>