<svg xmlns="http://www.w3.org/2000/svg" viewBox="0 0 1400 1050"><defs/><filter id="a"><feGaussianBlur stdDeviation="12"/></filter><rect width="100%" height="100%" fill="#5b4530"/><g filter="url(#a)"><g fill-opacity=".5" transform="translate(2.7 2.7) scale(5.46875)"><circle r="1" fill="#ba9e6a" transform="rotate(30.9 -77.8 332.7) scale(204.3765 111.13681)"/><circle r="1" fill="#2a1908" transform="matrix(43.40682 -21.3588 10.96522 22.28427 240 79.8)"/><circle r="1" fill="#b8a582" transform="rotate(68.9 -36.5 81) scale(40.99287 35.56896)"/><circle r="1" fill="#5d3a1a" transform="matrix(-7.00138 -23.66448 88.80832 -26.27484 60.6 15.4)"/><ellipse cx="100" cy="123" fill="#c5ad82" rx="37" ry="21"/><ellipse cx="132" cy="69" fill="#c9a06a" rx="26" ry="36"/><circle r="1" fill="#371b04" transform="matrix(7.51214 -27.24205 12.69883 3.50177 163.5 99.2)"/><circle r="1" fill="#381300" transform="matrix(98.79536 76.99076 -25.17373 32.3032 20 191)"/><ellipse cx="189" cy="40" fill="#ac916a" rx="43" ry="24"/><circle r="1" fill="#48371e" transform="rotate(-34.5 288 -147.5) scale(38.30697 8.03991)"/><path fill="#5f300e" d="M156.5 31l-54.1-14.6 5.1-19.3 54.1 14.5z"/><ellipse cx="254" cy="99" fill="#261c11" rx="25" ry="15"/><path fill="#b39871" d="M124 18L54 42l30 19z"/><circle cx="85" cy="85" r="28" fill="#8b6940"/><circle r="1" fill="#b8a075" transform="matrix(1.0617 -18.57755 21.85581 1.24905 83.5 137.8)"/><circle r="1" fill="#978664" transform="rotate(65 -58.1 204.3) scale(31.60043 43.9667)"/><circle r="1" fill="#74654b" transform="rotate(-169.9 114.8 -10.2) scale(53.4852 25.1147)"/><ellipse cx="16" cy="19" fill="#857a5e" rx="10" ry="100"/><path fill="#bea982" d="M-16 105.7l73.7-38.1 2 55.4-20.3-20.7z"/><path fill="#6c3d17" d="M18 129h46v27H18z"/><path fill="#241a10" d="M229 56l25-4 6-16z"/><path fill="#b38a55" d="M227.5 123.9l-15.2-7.7 8.2-16 15.2 7.6z"/><circle r="1" fill="#c8a26b" transform="matrix(-24.09486 -19.02898 9.18123 -11.62545 132 68.9)"/><circle cx="243" cy="71" r="6" fill="#d3aa6e"/><path fill="#6a4826" d="M126 0h10v52h-10z"/><path fill="#81633b" d="M106.2 186.2l-35.3-30.6-31.1 29.9 93.3-11.5z"/><ellipse cx="70" cy="24" fill="#5d3311" rx="20" ry="12"/><path fill="#69685b" d="M159.4 63l21-13.7L194.6 71l-21 13.6z"/><circle r="1" fill="#634e2f" transform="matrix(-.81546 -5.6589 40.11667 -5.7809 0 54.8)"/><circle cx="192" cy="117" r="21" fill="#8d6532"/><ellipse cx="127" cy="103" fill="#ae8754" rx="21" ry="25"/><circle r="1" fill="#2b1708" transform="matrix(5.12001 11.07983 -28.0373 12.9561 13 178.7)"/><path fill="#aa8a5d" d="M160-16l48 45-32 24z"/><path fill="#3f2812" d="M161 119l10-41 5 43z"/><path fill="#6b4921" d="M112.5 75.1L99.3 111l1-10.5-3-36.6z"/><path fill="#5e421d" d="M99 66L89 46l13-4z"/><circle cx="152" cy="44" r="19" fill="#8e826b"/><path fill="#caa875" d="M83 36.2l22.9-7 3.2 10.6-23 7z"/><ellipse cx="255" fill="#887f69" rx="52" ry="8"/><path fill="#5e2e0b" d="M115 194l-57-30 10 42z"/><path fill="#8a866c" d="M24 10l16 15-56-7z"/><path fill="#836c4b" d="M26.8 95.1l14 31.8-56.8 29.8 36.7-18.4z"/><path fill="#463723" d="M254 48l-51 51-10-18z"/><path fill="#6f5736" d="M22 80l-38-14v60z"/><path fill="#9a7646" d="M261.8 55.3l-49.2 37.2 7.8-1.4L271 55.2z"/><path fill="#95815f" d="M148 167l-59 12-27-19z"/><path fill="#bca987" d="M71 128.9l-42.4-41L39 77.1l42.4 41z"/><ellipse cx="225" cy="135" fill="#997746" rx="26" ry="29"/><circle r="1" fill="#967144" transform="matrix(17.14221 13.24421 -4.77054 6.17459 129.1 89)"/><path fill="#362716" d="M218.7 98.2l9.9-13.4 28.7-7.9-19 34z"/><path fill="#a29379" d="M4.2 68.9l41.5-19.3 31.7 24.6-61 7.7z"/><path fill="#4d250e" d="M0 149h66v8H0z"/><circle r="1" fill="#6a5536" transform="matrix(4.79217 -8.1648 14.78039 8.67505 248.2 17.4)"/><path fill="#625945" d="M76.2 105l29.7 18.6-2.1 3.4L74 108.4z"/><path fill="#422c17" d="M94 80l-6-5 2-15z"/><ellipse cx="69" cy="140" fill="#a38a5e" rx="14" ry="9"/><path fill="#c6aa79" d="M123 12h3v31h-3z"/><ellipse cx="124" cy="191" fill="#3f3a2f" rx="10" ry="3"/><path fill="#68534a" d="M65.6 49.6l-1.2 23-4-.2 1.2-23z"/><path fill="#ac804b" d="M175.8 105.3l2.4-27.9 14 1.3-2.4 27.9z"/><path fill="#c49f6b" d="M136.7 68.7l-30-12.1 2-5.6.8-18.1z"/><path fill="#b8a076" d="M130.8 110.2l-50.3 26.4 62.3-13.2-13.3-20.3z"/><path fill="#9d8664" d="M162.2 124.9l-21.9 15-36.5 26.2 21.2 13.5z"/><circle r="1" fill="#5c4626" transform="matrix(4.7637 2.1509 -5.36983 11.89286 55 135.2)"/><path fill="#8b988f" d="M44-10L18 5l-34-6z"/><path fill="#aa8652" d="M58 116l-17-12 2 36z"/><circle r="1" fill="#80683f" transform="matrix(-16.83094 7.00605 -18.81934 -45.21056 255 171)"/><path fill="#cea771" d="M143 57l20 12-8 15z"/><path fill="#b08d5a" d="M86.1 76.9l-21-.8.8-21 21 .8z"/><path fill="#ab9870" d="M69.4 92.5l7-7.1 26.2 26.1-7 7.1z"/><path fill="#764a1d" d="M9.5 17.2L4.4 28.8 68 24.5 25 42.2z"/><path fill="#878574" d="M46-6l-2 16-8-1z"/><path fill="#72634b" d="M144.3 57.6l13.6 7.8 19.2 1.7-101.7-50z"/><path fill="#543714" d="M5 5l4 7 20-7z"/><path fill="#553c21" d="M145 11l-17 24 17-9z"/><path fill="#b58d5c" d="M189.4 78l9.4 19.7 3.1 12.4-1.7 2.4z"/><path fill="#46311a" d="M191.7 6.6L183 8.2l-2.6-14.8 8.8-1.6z"/><path fill="#563d1f" d="M197.6 123l8.7-24.2-6.3 33.3-4.4 6.9z"/><path fill="#422b17" d="M176.6 107.6l-26.7 16v-21.1l-4.7 32z"/><path fill="#6b421b" d="M39.8 150.9L-16 111.2l43.6 9.2-26.4 26.5z"/><circle r="1" fill="#9d815a" transform="matrix(26.34912 -18.72534 6.934 9.7571 213.8 54)"/><path fill="#c29d67" d="M88.3 56.5l10 25.5-2.7-14.8-3.8-12.9z"/><path fill="#5e4b2f" d="M245 112l-3-39 29 57z"/><path fill="#6a5b3e" d="M61 165l-23.9 7.3 40.3.7L92 152.8z"/><path fill="#a6855b" d="M271 130l-50-14v-16z"/><path fill="#8d8578" d="M164 2.3l-1.8 6.8L142 3.7l1.8-6.8z"/><ellipse cx="214" cy="187" fill="#817551" rx="46" ry="27"/><path fill="#c0ae8c" d="M57 67L33 90l29-12z"/><path fill="#645132" d="M108 162l-13.3-7.9 27.3-18.2.7 15z"/><path fill="#683f1e" d="M90.6 13.4l20.4 8.5 44.6-18.1-45.1.3z"/><circle r="1" fill="#795726" transform="matrix(-2.59154 .02262 -.05565 -6.37738 75.1 79.5)"/><path fill="#7e6b52" d="M66.9 106.5l24.9-3L53 87.6l18.8-13z"/><path fill="#997c53" d="M55 120.2l-39.2 17.5-.8-1.9 39.2-17.5z"/><path fill="#4c1b04" d="M28 138l11-11 1 15z"/><path fill="#2c1508" d="M94 181l-3 11 14-4z"/><circle r="1" fill="#947e54" transform="matrix(-3.67635 19.45656 -31.36255 -5.92602 187.6 154.2)"/><path fill="#6f431c" d="M87.2 171.3l24.1-17.1-49.1 28.7 9.6 3z"/><path fill="#68553a" d="M-16 61.8v-8.1L2.1 67.6l69.5-42z"/><path fill="#82745d" d="M86.3 19.2L93.6-16 85.9 1l-6.8-17z"/><path fill="#977548" d="M223 115.7l-18.7-12.6.2 37.7 44.4 12.7z"/></g></g></svg>