<svg xmlns="http://www.w3.org/2000/svg" viewBox="0 0 1400 1050"><defs/><filter id="a"><feGaussianBlur stdDeviation="12"/></filter><rect width="100%" height="100%" fill="#675b39"/><g filter="url(#a)"><g fill-opacity=".5" transform="translate(2.7 2.7) scale(5.46875)"><circle r="1" fill="#9b9f9f" transform="matrix(19.63574 105.94499 -162.7416 30.16237 142.7 121.4)"/><ellipse cx="100" cy="148" fill="#b6b4a6" rx="149" ry="16"/><circle cx="42" cy="87" r="51" fill="#746323"/><circle r="1" fill="#0f1417" transform="matrix(42.35903 -14.5282 4.04095 11.78198 121 182.4)"/><path fill="#d4f5ff" d="M214 167h40v20h-40z"/><path d="M215.1 207l-4.3-46.7-3-10-34.4 56.7z"/><circle r="1" fill="#99adcd" transform="matrix(-16.48188 -15.83575 20.14908 -20.9712 63.1 174.6)"/><path fill="#9a98bb" d="M36 33l106-18-29 49z"/><ellipse cx="14" cy="13" fill="#353a3c" rx="32" ry="58"/><path fill="#eff" d="M246 73h5v54h-5z"/><circle r="1" fill="#040803" transform="matrix(6.7688 -4.42938 7.05604 10.78275 226.6 121.5)"/><circle r="1" fill="#6e5e25" transform="rotate(-93.7 99.4 13) scale(28.61385 20.59534)"/><circle cx="212" r="49" fill="#58606f"/><path fill="#fffffe" d="M232 68l16-24-20 12z"/><path fill="#c9b072" d="M97 71h92v14H97z"/><path fill="#1c1b1d" d="M248 125h8v49h-8z"/><ellipse cx="251" cy="68" fill="#352400" rx="23" ry="7"/><ellipse cx="236" cy="100" fill="#d5f4ff" rx="3" ry="25"/><ellipse cx="116" cy="164" fill="#81879c" rx="21" ry="16"/><circle r="1" fill="#375177" transform="matrix(-11.22575 19.97992 -17.69834 -9.94385 18.7 184.6)"/><circle r="1" fill="#6f6330" transform="rotate(-17.7 433.3 -11.8) scale(56.33047 11.67887)"/><path fill="#535758" d="M144 153h60v21h-60z"/><path d="M240 83h6v34h-6z"/><circle r="1" fill="#cbbd9d" transform="matrix(9.80234 -2.66324 4.05329 14.91858 220 88.8)"/><ellipse cx="157" cy="138" fill="#d4c69e" rx="32" ry="10"/><path fill="#fffff9" d="M28.5 64l47.2 9-.2 1-47.2-9z"/><ellipse cx="147" cy="103" fill="#80764c" rx="63" ry="25"/><path fill="#9ab0c6" d="M152 175h37v13h-37z"/><circle r="1" fill="#bac6d5" transform="matrix(-10.14826 8.4037 -13.41422 -16.19894 227.4 171)"/><ellipse cx="5" cy="115" fill="#b7af2f" rx="28" ry="11"/><circle r="1" fill="#c4bb96" transform="matrix(-36.16704 7.35827 -2.5478 -12.52285 56.8 146.5)"/><path fill="#14160a" d="M58.7 200.7l29.8-15.2 8-9.1 51.3 9.9z"/><path fill="#bce0ff" d="M147.7 183.5l38.1 23.3-56.3-14.3 13.2-3.2z"/><circle r="1" fill="#474b51" transform="matrix(1.30947 20.99561 -76.47016 4.76935 106.7 0)"/><circle r="1" fill="#7b7975" transform="matrix(-3.67865 10.74118 -19.6497 -6.72965 247.6 167)"/><circle r="1" fill="#a2a790" transform="matrix(-11.21347 -2.01762 3.1822 -17.68598 0 96.4)"/><path fill="#1e2223" d="M252 56h4v70h-4z"/><circle r="1" fill="#4f4733" transform="matrix(.47103 -26.36539 3.67548 .06566 13.7 114.5)"/><circle r="1" fill="#dbb15f" transform="matrix(-2.18021 -.00787 .07762 -21.51068 65.9 94.5)"/><path fill="#cbad5b" d="M103 75h22v22h-22z"/><path fill="#99b5d9" d="M239 117h8v35h-8z"/><circle r="1" fill="#454343" transform="rotate(-89 94 -65.7) scale(48.244 2.74596)"/><path fill="#222500" d="M83 120h14v10H83z"/><path fill="#d4eeff" d="M216 174h27v12h-27z"/><path fill="#242517" d="M188 166h24v26h-24z"/><path fill="#d1b168" d="M55.3 66.3l-14.8 2.2 7.9.3 6.1 51.4z"/><path fill="#5e5805" d="M40 79h9v52h-9z"/><path fill="#5f5942" d="M-16 97l33-72 46 23z"/><path fill="#0a0500" d="M195 133l-7 7 8 2z"/><circle r="1" fill="#494941" transform="matrix(-7.14492 12.36785 -7.33824 -4.2393 149.1 165.5)"/><circle cx="112" cy="138" r="9" fill="#dcc992"/><circle cx="129" cy="42" r="25" fill="#827b89"/><path fill="#988e76" d="M201.3 139.2l2.8-15.8 30.6 5.4-2.8 15.8z"/><path fill="#b7ac93" d="M194.3 68.8l-30.5 19-5.9 6 2.5-23.4z"/><path fill="#344c67" d="M168.6 183.7l33 17.3-31.4 6-13.1-20.1z"/><path fill="#cfe1f0" d="M245 73h5v31h-5z"/><ellipse cx="52" cy="35" fill="#999cad" rx="16" ry="5"/><path fill="#10283b" d="M61 147l12-2-14-3z"/><path fill="#27281b" d="M215 109h20v10h-20z"/><ellipse cx="58" cy="103" fill="#494120" rx="4" ry="29"/><path fill="#1d1f17" d="M241.3 141l-3.6 1.6-11-23.5 3.6-1.7z"/><ellipse cy="173" fill="#647fa7" rx="10" ry="27"/><path fill="#6d7b8c" d="M121 124h18v15h-18z"/><circle r="1" fill="#68664d" transform="matrix(-.17065 -10.47736 31.33538 -.51039 180.5 110.5)"/><circle r="1" fill="#645e48" transform="matrix(-9.31384 10.1726 -5.61688 -5.14271 194.1 169.3)"/><path fill="#fff" d="M244 45l-16 18 12-6z"/><circle cx="3" cy="3" r="21" fill="#2b2e24"/><circle r="1" fill="#54491b" transform="rotate(-40.1 212.4 -317.3) scale(20.48879 7.10646)"/><ellipse cx="158" cy="174" fill="#8b8e84" rx="17" ry="4"/><path fill="#848993" d="M84 144h46v33H84z"/><path fill="#7e776f" d="M159 28h72v42h-72z"/><path fill="#6e767b" d="M264.4 55.4l-39-15.7 10.2-25 39 15.6z"/><path fill="#858998" d="M158.7 164l.6-17 28 1-.6 17z"/><path fill="#2a291c" d="M113.3 193.7l.9 13.3 19.3-36.2 17.3 14z"/><path fill="#bbae8d" d="M190.6 120.1l21.6 38.4.3 17.8 21.5-18.8z"/><path fill="#cdedff" d="M238 118h3v17h-3z"/><path fill="#dfce8d" d="M92 140h61v5H92z"/><ellipse cx="77" cy="107" fill="#be9a62" rx="2" ry="29"/><path fill="#0a0700" d="M240.9 119.6l-.8-15 3-.2.8 15z"/><path d="M172.9 192l39.4-7 .8 5-39.4 7z"/><path fill="#51431e" d="M68 78h6v54h-6z"/><path fill="#c2bfaf" d="M22.7 150.3l51.5-22 3.1 7.4-51.5 22z"/><path fill="#73613c" d="M79 53l28 9-25 39z"/><path fill="#95a2b2" d="M43.6 191.3l-5-3.7 1.2-26.3 74.3-13.9z"/><path fill="#94875c" d="M166 101l-54 1-13 33z"/><path fill="#c3bdb0" d="M215.8 91l20.9-13.4 17 5.7-45.2-1.8z"/><path fill="#486896" d="M219 187h34v5h-34z"/><path fill="#86878d" d="M123.7 183.1l3-7.9-35.5-26.8 64-2.1z"/><ellipse cx="223" cy="8" fill="#52585c" rx="33" ry="17"/><circle r="1" fill="#a2b6c8" transform="matrix(3.18527 -3.57507 7.8234 6.9704 180.3 181)"/><path fill="#8e8d6f" d="M18 71h10v39H18z"/><path fill="#b6ac32" d="M-16 91.3l46.4 35 2-21.4-48.4 27.5z"/><ellipse cx="161" cy="98" fill="#ccae73" rx="2" ry="31"/><path fill="#e6d3a8" d="M141.3 73.6l37.5-1.8-40.2 3.7 4 18.4z"/><path fill="#5b4c28" d="M-16 61.8l52.2 2.4-1.2 62.6-7.2-57.6z"/><path fill="#767456" d="M198 111h20v21h-20z"/><circle r="1" fill="#64562c" transform="rotate(23.9 -57.7 551.5) scale(5.38406 4.43174)"/><path fill="#767571" d="M186 149h26v14h-26z"/><path fill="#c3ab7e" d="M180.8 80.8l2.1 36.6 2-39-8.9-9.6z"/><path fill="#d6c8a8" d="M161 144h49v4h-49z"/></g></g></svg>