<svg xmlns="http://www.w3.org/2000/svg" viewBox="0 0 1400 1050"><defs/><filter id="a"><feGaussianBlur stdDeviation="12"/></filter><rect width="100%" height="100%" fill="#46322c"/><g filter="url(#a)"><g fill-opacity=".5" transform="translate(2.7 2.7) scale(5.46875)"><ellipse cx="80" cy="43" fill="#a6b7bd" rx="180" ry="112"/><circle r="1" fill="#c1c7b0" transform="rotate(167.8 -6 57) scale(35.9241 142.12361)"/><circle r="1" fill="#070000" transform="matrix(-19.95956 -99.88785 11.06407 -2.21082 29.5 36.2)"/><circle cx="159" cy="94" r="47" fill="#c9a77b"/><circle cx="221" cy="42" r="42" fill="#7ca1d1"/><circle cx="59" r="58" fill="#162e53"/><ellipse cx="241" cy="124" fill="#000905" rx="25" ry="49"/><circle r="1" fill="#000f04" transform="matrix(4.6649 47.5764 -75.0876 7.3624 186 190.8)"/><path fill="#303024" d="M-2 138l39 35-1-40z"/><circle r="1" fill="#6a4f3e" transform="matrix(-37.26785 50.35465 -13.82224 -10.22995 109.8 86.2)"/><circle r="1" fill="#3363a1" transform="matrix(74.07282 -.50662 .15843 23.16432 224.4 0)"/><ellipse cy="71" fill="#fff" rx="6" ry="65"/><ellipse cx="114" cy="134" fill="#bc9567" rx="56" ry="20"/><circle r="1" fill="#37588a" transform="matrix(1.31261 23.93523 -61.82334 3.3904 110.3 36.4)"/><ellipse cx="68" cy="134" fill="#6c5e45" rx="22" ry="89"/><path fill="#ffe0aa" d="M133 54h91v7h-91z"/><circle r="1" fill="#231500" transform="matrix(9.68696 -36.55633 9.3438 2.47599 17.6 7.8)"/><circle r="1" fill="#ffecb4" transform="matrix(65.97717 20.35649 -1.24252 4.02713 236 41.8)"/><circle r="1" fill="#aeccf7" transform="matrix(.38033 4.57666 -12.87504 1.06995 218.9 113.4)"/><path fill="#fff" d="M17.8 35l6.4 73.7-4 .3-6.4-73.7z"/><circle r="1" fill="#ffda91" transform="matrix(-63.18438 -45.40258 1.94982 -2.71346 220 6.4)"/><path fill="#ffc88a" d="M84.6-16l88.8 31.1-24.4 1-49-19.2z"/><path fill="#f5fade" d="M2.2 176.8L1.4 207 16 196.9l-8.5-48.5z"/><ellipse cx="75" cy="64" fill="#eaa765" rx="34" ry="6"/><path fill="#120f0b" d="M196 103l71-38-7 42z"/><ellipse cx="75" cy="84" fill="#344f78" rx="34" ry="16"/><path fill="#be7e30" d="M86.5 15.1L13 37.6 11.5 33 85 10.4z"/><path fill="#ffca68" d="M166.4 24.6l-76 21.7-.8-2.9 76-21.7z"/><path d="M124 84h11v9h-11z"/><path fill="#f6f4db" d="M9 109h8v35H9z"/><circle r="1" fill="#2c66b0" transform="rotate(-111.7 41.2 1.2) scale(13.48524 20.33432)"/><path fill="#3772c4" d="M221.7 92.9L203.8 70l16.5-12.9L238.2 80z"/><path fill="#1d5aa7" d="M206.9 52l-39.6-23.9-14.8 15.3L168.9 56z"/><circle r="1" fill="#281600" transform="rotate(-14 118 -85.1) scale(9.25469 69.97592)"/><path fill="#ffd293" d="M184 29l56 38-30-6z"/><ellipse cx="10" cy="60" fill="#1b202b" rx="3" ry="26"/><path fill="#452612" d="M182-16l-36 61 28-26z"/><path fill="#1a58a8" d="M70.7 21.3l59-15.8 5.6 21.2-59 15.8z"/><path fill="#28200d" d="M38 93.2L28 73.5l23.9 89.7 12.2-1.9z"/><path fill="#34261f" d="M106 54h25v15h-25z"/><circle r="1" fill="#2c61a8" transform="matrix(-1.88757 4.95003 -64.99126 -24.78287 228.2 31)"/><circle r="1" fill="#ce9a69" transform="matrix(.4077 5.55187 -19.60427 1.43965 67.9 104)"/><ellipse cx="155" cy="115" fill="#bea98e" rx="19" ry="31"/><path fill="#542a0a" d="M101.7 48.4L25.1 63.6l68.1-23.4 3.1 3.6z"/><path d="M34.1 156.4l-3 .1-1.2-37h3z"/><path fill="#ffddac" d="M213 120l6-3-20-14z"/><path fill="#2f2619" d="M25.1 223h-7L17 151h7z"/><path fill="#c3a381" d="M124.2 57.3l35-16.1-20.7 56 53.2-2z"/><circle r="1" fill="#272934" transform="matrix(5.58722 49.03842 -1.59235 .18143 16.1 98.3)"/><path fill="#edc07f" d="M90.9 89.9l35.9-17.4 14.9-6.5-58.6 21.1z"/><path fill="#165cb2" d="M34.5 15.7L29.1-9.7l28.4-6 5.4 25.4z"/><ellipse cx="8" cy="97" fill="#252830" rx="2" ry="25"/><path fill="#1a201d" d="M6 141l-8 60-14-82z"/><path fill="#000b06" d="M123 167.9l9.3 16.6-53.4 29.6-9.2-16.6z"/><path fill="#647071" d="M176 62l56 42-98-39z"/><path fill="#383645" d="M202.7 7.8l21.1 3-7.1 2L222 .5z"/><path fill="#ffd9a8" d="M184.4 67.6l-9.9-2.4 41.9 29.6 3.6-4.9z"/><path d="M126 102h10v4h-10z"/><circle r="1" fill="#327ad3" transform="matrix(27.4158 -12.26368 1.29311 2.8908 72 84.5)"/><path fill="#2d5898" d="M271 61.6v7.7l-24.3 1.1-56.6-39.7z"/><path fill="#e5be8a" d="M105.9 66.9l35.9 9.2L199 94.2l-88.4-20z"/><path fill="#fdffee" d="M-3.2 74l-6.5-52.5 13-1.6 6.4 52.6z"/><path fill="#472a11" d="M38 85.5l-.6 8.2 86.9-33.5-50.6 11.7z"/><path fill="#462503" d="M109-3l-2 15H57z"/><path fill="#807d60" d="M123.5 114l-23.7 49.8 9.8 9.7 31.9-20.1z"/><path fill="#dfcfb2" d="M75 135h23v6H75z"/><circle r="1" fill="#bdb497" transform="matrix(-4.82694 2.51406 -6.4022 -12.29207 10.3 156.8)"/><path fill="#e9fbef" d="M93 148h27v4H93z"/><ellipse cx="91" cy="154" fill="#031301" rx="32" ry="2"/><path d="M223.1 134.2l-26.8 13.3 71.1-9.7-2.6-22.9z"/><path fill="#808355" d="M95 185l2-14-53-1z"/><path fill="#ffedbf" d="M259.8 55l-53-18.2 1.4-3.8 53 18.2z"/><path fill="#dfe4df" d="M45.8 146.9L40 168l-3.9-1 5.9-21z"/><path fill="#2e5f9f" d="M225.3 60.2l1.1 9-37.7 4.6-1.1-9z"/><path fill="#0a1910" d="M100.5 199.4l-3 6.3-58-27 3-6.4z"/><path fill="#566059" d="M148 105l6-8 28 23z"/><path fill="#556973" d="M190 117.6l34.4 9.4-25.2-18L169 88.6z"/><path fill="#4a2a1d" d="M105 123l-29-8 22 16z"/><circle r="1" fill="#fff1ce" transform="matrix(-1.45037 2.17288 -28.37664 -18.94097 248.4 25.4)"/><path fill="#172d4a" d="M141 52h12v5h-12z"/><path fill="#726f65" d="M29.4 86l7.8 21.6-6.6 2.4-7.8-21.6z"/><path fill="#ffc272" d="M170 26l17 6 9 12z"/><path fill="#f4f7e1" d="M16 56h8v38h-8z"/><path fill="#474943" d="M156.3 149.5l-56.8-4 .2-3 56.8 4z"/><path fill="#898d78" d="M50.1 199l4.8-14.4-31.9 1.2v-38.3z"/><circle r="1" fill="#447dc2" transform="matrix(13.31521 -8.2993 16.20138 25.9931 250.2 0)"/><circle r="1" fill="#ffdea0" transform="rotate(27.7 -22.9 515.3) scale(13.35478 2.40202)"/><path fill="#c88f62" d="M120 97.2l1.7 3.6-65.6 32-1.8-3.6z"/><path d="M27 129h3v27h-3z"/><circle r="1" fill="#442b12" transform="rotate(-105.1 32.3 -11.4) scale(3.14917 38.92381)"/><circle r="1" fill="#dbddca" transform="matrix(-5.71556 -31.678 1.07963 -.1948 15 118.8)"/><path fill="#bb8b5f" d="M36 71l32-3 27-27z"/><circle r="1" fill="#343728" transform="rotate(-25 402 -411.2) scale(62.63078 8.1419)"/><circle cx="168" cy="126" r="5" fill="#3b3b37"/><path fill="#b5a999" d="M168.5 118.4L225 116l-83.7 37 33-22.9z"/><ellipse cx="7" cy="132" fill="#2e2f2d" rx="2" ry="17"/><circle r="1" fill="#333335" transform="rotate(-104 88.9 5.8) scale(2.89493 26.3473)"/><circle r="1" fill="#361f17" transform="matrix(-77.70084 -25.23152 .44863 -1.38156 97.9 0)"/><circle r="1" fill="#40302a" transform="matrix(-.43555 -1.55635 42.94226 -12.01759 146.1 24.9)"/><path fill="#ffffe6" d="M36.3 126.5h-1l-1.6-29h1z"/></g></g></svg>