<svg xmlns="http://www.w3.org/2000/svg" viewBox="0 0 1400 1050"><defs/><filter id="a"><feGaussianBlur stdDeviation="12"/></filter><rect width="100%" height="100%" fill="#46322c"/><g filter="url(#a)"><g fill-opacity=".5" transform="translate(2.7 2.7) scale(5.46875)"><circle r="1" fill="#a9babb" transform="matrix(27.14425 74.0011 -210.06442 77.05347 68.3 98.6)"/><ellipse cx="1" cy="70" fill="#fff" rx="5" ry="71"/><circle cx="81" cy="46" r="61" fill="#3c475d"/><circle r="1" fill="#cdaa7b" transform="matrix(2.47909 -45.83493 44.45027 2.4042 158.6 97.2)"/><circle r="1" fill="#789dcf" transform="matrix(40.7995 9.49434 -11.69074 50.23795 219.2 37.3)"/><circle cx="226" cy="166" r="47" fill="#000b01"/><circle r="1" fill="#19230c" transform="matrix(81.37926 2.062 -.56144 22.15783 119.8 174.8)"/><circle r="1" transform="rotate(166.4 118.8 61.8) scale(34.92536 15.47918)"/><path fill="#fcffe9" d="M27.8 87.1L12.1 18.6l4.9 86.8 9.6 29.1z"/><path fill="#180000" d="M34 18l18 118-27-57z"/><path fill="#a3ccf5" d="M225.4 116.7l5.5-6.7-21.2-2.3-20.2 22.9z"/><path fill="#ffb866" d="M42 59h65v10H42z"/><ellipse cx="9" cy="186" fill="#f1eabe" rx="7" ry="40"/><circle r="1" fill="#1253a8" transform="matrix(53.29366 -16.6916 4.0882 13.05297 82 31.8)"/><circle r="1" fill="#0f4997" transform="matrix(42.55944 12.28415 -2.51146 8.70117 198.2 15)"/><circle cx="73" cy="125" r="33" fill="#895f36"/><circle r="1" fill="#ffe6a7" transform="matrix(-1.3569 3.79569 -45.44038 -16.24429 208.6 32.8)"/><circle r="1" transform="rotate(-11.8 87.7 -84.7) scale(5.89013 57.73261)"/><path fill="#ffffea" d="M8.7 115.4l9 .2-.4 27-9-.2z"/><circle r="1" fill="#010500" transform="matrix(-3.73291 .67427 -3.16976 -17.54844 31.2 153)"/><ellipse cx="53" cy="4" fill="#186ac6" rx="24" ry="7"/><ellipse cx="210" cy="58" fill="#fff5b1" rx="22" ry="4"/><path d="M117 86h18v6h-18z"/><circle r="1" fill="#ffd682" transform="matrix(-.6488 -2.2002 28.32003 -8.35107 123.4 35.4)"/><circle r="1" fill="#bf9a6f" transform="matrix(-7.63706 -14.91013 25.29836 -12.95798 114 134.3)"/><circle r="1" fill="#ffcc92" transform="matrix(38.65308 13.34833 -1.7096 4.95055 123.4 1.1)"/><path fill="#ffffef" d="M5 118l-21-42L7 46z"/><ellipse cx="163" cy="39" fill="#134c9b" rx="23" ry="10"/><path fill="#020400" d="M53.8 161l-17.3-50 5.7-2 17.3 50z"/><path fill="#a19564" d="M70 171h26v13H70z"/><path fill="#472e20" d="M149 42l32-58-5 35z"/><ellipse cx="19" cy="182" fill="#412e12" rx="5" ry="35"/><path fill="#fff6bd" d="M218.3 7.8l3.4-4.9 36 25.3-3.4 4.9z"/><path fill="#1c5aa8" d="M264 32.4L214.3-1.2 230-24.4l49.7 33.6z"/><path fill="#d7d8c8" d="M38 127h5v45h-5z"/><path fill="#ffdfab" d="M155.4 64.8l-.6-7 51.8-4.6.6 7z"/><path fill="#060600" d="M-8 141l26 8-17-15z"/><circle cx="135" cy="186" r="24" fill="#000709"/><path fill="#ecbc88" d="M201.7 99.6l-4.7-5.3-81.3-26.7-14.5 4z"/><path fill="#2865b8" d="M189 61l34 31 2-31z"/><path fill="#11110b" d="M241 111l-36-8 66-45z"/><circle r="1" fill="#f1cb96" transform="matrix(-50.20285 -30.64877 1.2258 -2.00788 219.3 55.8)"/><path fill="#ffe" d="M10 128V88l7 21z"/><path fill="#442b16" d="M100.5 65.4l20.2 4.6 21.9 4.9-17.7-21.1z"/><path fill="#9a9a87" d="M24 120l1-56 23 85z"/><path fill="#2765bb" d="M197 37l74 22-22 12z"/><circle r="1" fill="#3b2809" transform="matrix(4.40536 42.68205 -7.19598 .74272 32.1 53.6)"/><ellipse cx="149" cy="127" fill="#d1b595" rx="14" ry="19"/><path fill="#4e462b" d="M43 153h81v22H43z"/><path fill="#ffe7bc" d="M267 58l-78-28.4 2-5.6 78 28.4z"/><path fill="#d0a575" d="M49.6 108.9l11.8.4 31-5-28.7-8.7z"/><path fill="#442b16" d="M67.8 81.8L21.2 93.7l53.3-21.5 59.4-15.1z"/><path fill="#ddc481" d="M61 167h6v16h-6z"/><path fill="#405d6e" d="M165 61l8 22 46 14z"/><circle r="1" fill="#1d60ba" transform="matrix(1.63656 5.06688 -23.45177 7.57471 109.5 50)"/><path fill="#fffff3" d="M7 51L0-7l-16 110z"/><circle r="1" fill="#bbb097" transform="rotate(163.2 31.5 77) scale(21.06813 5.16394)"/><path fill="#89775b" d="M134 157l2-67-32 85z"/><path fill="#f4c382" d="M178.8 68.6l-.9-8.3 36.4 27.9.4 5.4z"/><path fill="#abae90" d="M60.1 188.3l-38.3 16 20.3-40.6-2.2 21.4z"/><path fill="#3b2917" d="M106.2 36.3l-65.9 30L6.6 12.1l20.6 48.2z"/><path fill="#d5903b" d="M60 16.6l34.8-5.9-.4 2.9-71.1 18.2z"/><path fill="#133163" d="M143 26L112 5l52 14z"/><path fill="#0a1008" d="M248 74h8v70h-8z"/><path fill="#1f4982" d="M210 14l11-10-45-7z"/><ellipse cx="21" cy="88" fill="ivory" rx="3" ry="36"/><circle r="1" fill="#c7a784" transform="rotate(167.5 70.2 35.9) scale(17.18418 9.01622)"/><path fill="#1c1f15" d="M3.5 150.4L1 191.5V207L-14.9 91.5z"/><path fill="#d9ece6" d="M90 148h32v3H90z"/><circle r="1" fill="#3176cb" transform="matrix(29.03802 -11.08854 1.36061 3.5631 76.8 82.5)"/><ellipse cx="35" cy="116" fill="#ffffe9" rx="2" ry="14"/><path fill="#5b473c" d="M120 73l-53 49 57-29z"/><path fill="#141d14" d="M140.3 178.4l-7.4-16.4 54.8-24.4 7.4 16.4z"/><path fill="#baa389" d="M211.2 124l-74.1-28.8 38.2-8.5-21.6 60.7z"/><path fill="#f8bc6d" d="M88.3 87l34.1-16.7 1.3 2.7-34.1 16.7z"/><path fill="#513b35" d="M92 129.3l17-.2-31.2-14.9-17.8-6.7z"/><path fill="#3d4437" d="M59 165.2l-14.2-7.5 46.4-11.1 28.2-6.7z"/><path fill="#453229" d="M173.4 27.6l85.5 30.8-87.3-34.9L168-16z"/><path fill="#303840" d="M17.3 89.4l1.1 28-5.9-24.2-.6-25.5z"/><path fill="#1455ac" d="M175.8 44.9l22-.8.4 9-22 .8z"/><path fill="#57483f" d="M127 43h26v13h-26z"/><path fill="#070905" d="M123.4 88.2l4-7 11.2 6.6-4 7z"/><path fill="#4c5852" d="M4.7 40.5l11.8 54-5.7-67.6L1.9-9.6z"/><path fill="#393a3d" d="M196.8 105.4L271 90.1l-77.5 10.8 7.5 41.3z"/><path d="M250 141l-40-1 61-29z"/><path fill="#422508" d="M78 9l25 4 15-11z"/><circle r="1" fill="#734a38" transform="rotate(-55.2 117 -202.9) scale(1 131.51503)"/><path fill="#0a0800" d="M33.2 121.4L28.7 147l-2-.4 4.6-25.6z"/><path fill="#2f2d1a" d="M41 177h20v12H41z"/><path fill="#82a1c8" d="M198 101l5 21 30-11z"/><circle r="1" fill="#45443a" transform="rotate(153.9 102 89.6) scale(59.4921 4.16991)"/><path fill="#646961" d="M178.9 115.2l-4.4 6.7-29.4-19 4.4-6.8z"/><path fill="#fad7a8" d="M241.8 69.1l.2 5.9-33.9-20.9-5.7-10.8z"/><path fill="#51402e" d="M137.9 98.3l-1.2 6.8 5.7 1.8-22.9-2z"/><path fill="#daa26f" d="M164.9 22.6L98.7 49.4 95 41.8l41.9-13z"/><path fill="#8e8164" d="M10.3 176.2l23.1 9.8.3.6L11 150.3z"/><circle r="1" fill="#585d58" transform="matrix(10.539 7.63527 -1.9049 2.62933 164 125.4)"/><path fill="#c68346" d="M79.5 49L42.6 64.1v1.4L84 53.4z"/><path fill="#3b6faf" d="M271 52.3L181.8-16l1.3 7.3L172.5 15z"/><path fill="#07090b" d="M87 151h4v38h-4z"/></g></g></svg>