<svg xmlns="http://www.w3.org/2000/svg" viewBox="0 0 1400 1050"><defs/><filter id="a"><feGaussianBlur stdDeviation="12"/></filter><rect width="100%" height="100%" fill="#46322c"/><g filter="url(#a)"><g fill-opacity=".5" transform="translate(2.7 2.7) scale(5.46875)"><ellipse cx="90" cy="54" fill="#a6b7bc" rx="170" ry="99"/><circle r="1" fill="#c3cab4" transform="matrix(18.07525 110.379 -39.92994 6.53878 0 129.2)"/><circle r="1" transform="rotate(76.7 -9.9 35.5) scale(64.23107 10.41354)"/><circle r="1" fill="#84a9d8" transform="matrix(-23.07678 -29.32535 40.50889 -31.87735 228 42.5)"/><path fill="#cda97d" d="M83 145l104-9 7-118z"/><circle cx="72" cy="9" r="46" fill="#133468"/><circle cx="255" cy="109" r="36"/><ellipse cx="191" cy="181" fill="#000e03" rx="73" ry="39"/><circle cx="68" cy="139" r="52" fill="#6e6043"/><ellipse cy="69" fill="#fff" rx="6" ry="67"/><path fill="#1050a7" d="M182-14l89 57-100-27z"/><circle r="1" fill="#211707" transform="matrix(18.17193 -4.83342 5.8228 21.89164 22 13.6)"/><path fill="#0c4799" d="M173.7 30l31.9 22.9-27.9 2.2L124.1 39z"/><path fill="#283852" d="M25 71h66v29H25z"/><ellipse cx="19" cy="69" fill="#fff" rx="3" ry="29"/><path fill="#f7fbdd" d="M8 146l9 61H-1z"/><circle r="1" fill="#0548a4" transform="matrix(.15036 9.15655 -26.72455 .43885 122.2 19.3)"/><path fill="#120500" d="M26.1 67.4l26 94.7L55 149 44.5 88.8z"/><circle r="1" fill="#b49777" transform="rotate(-12.4 638 -563.4) scale(57.37958 28.43214)"/><circle r="1" fill="#103c7f" transform="matrix(1.06634 6.5906 -28.4159 4.59762 114 50.6)"/><ellipse cx="178" cy="59" fill="#ffe1a3" rx="50" ry="4"/><path fill="#f5dab6" d="M246 52l23-11-73-12z"/><path fill="#9eaab9" d="M245.1 112.8l-86.6 16.6 49.1-14.2-15.9-11.2z"/><path fill="#292f2f" d="M16.5 163.5l3-28.9 18 2-3 28.8z"/><ellipse cx="10" cy="47" fill="#212529" rx="3" ry="39"/><circle r="1" fill="#75583d" transform="matrix(19.76879 -.37377 .61425 32.48813 119.4 85)"/><ellipse cx="217" cy="146" fill="#131a11" rx="41" ry="21"/><path fill="#ffe19c" d="M99.9-3.7l1.6-4.8 58.6 20.2-1.6 4.8z"/><circle r="1" fill="#1d60b5" transform="matrix(4.00016 10.62901 -32.1073 12.08337 71.3 36.1)"/><path fill="#ffe8b2" d="M202.1 35L271 55.4l-88.6-36.9-13.1 4z"/><path fill="#d5882e" d="M26.8 27.8l46.9-14.4 1.5 4.8-46.9 14.4z"/><path fill="#f2a95f" d="M46 60h60v9H46z"/><circle r="1" fill="#0d0902" transform="matrix(-4.03612 -8.19594 20.05095 -9.87416 233.7 94.6)"/><path fill="#02130c" d="M96.8 181.7l.7-23.7 57 47.3-83.9-13.8z"/><circle r="1" fill="#3067b4" transform="rotate(-161.5 114.6 19.6) scale(22.69524 11.71248)"/><circle r="1" fill="#e9bf87" transform="matrix(-38.07879 -26.56413 2.12783 -3.05018 208 49.8)"/><path fill="#171a2a" d="M13 66.7l11 78.2-3 .4-11-78.2z"/><path fill="#0e130b" d="M10.1 147.9l-11.8 2-2.4-13.8 11.8-2z"/><path fill="#ffe4a7" d="M264.3 32.3l-73.4-47.2 40.6 33.2 35.9 24.8z"/><ellipse cx="21" cy="89" fill="#fffff2" rx="3" ry="37"/><path fill="#5a3205" d="M116 0l1.3 9-57.2 9-1.4-9z"/><path fill="#345588" d="M271 60.2l-71.7-25.3-41.9-19.1L271 82.2z"/><circle r="1" fill="#cea97e" transform="matrix(-2.02344 4.31957 -31.32199 -14.67229 138.8 82.7)"/><path fill="#ffdaa4" d="M187 70l34 19-12 3z"/><path fill="#422a1c" d="M94.3 75.4l40.1-36.2 7.6-6.6-13.9 28z"/><path fill="#276cbd" d="M233.2-14l31.1 21.7-11.5 16.4-31.1-21.8z"/><path fill="#2982f0" d="M48.4 98.7l-2.3-5.5 51.5-21.9 2.3 5.5z"/><path fill="#bcc1bf" d="M37 128h5v56h-5z"/><circle r="1" fill="#461e00" transform="rotate(-110.2 50.8 3.4) scale(2.58135 35.46892)"/><ellipse cx="73" cy="122" fill="#9f7458" rx="21" ry="29"/><path fill="#212328" d="M6 82h3v53H6z"/><path fill="#fdffdd" d="M19.8 68.7l-3 .3-4.6-37.7 3-.3z"/><ellipse cx="19" cy="191" fill="#2f1b0b" rx="4" ry="28"/><path fill="#f4ca9f" d="M182 97l-29-18 63 19z"/><circle r="1" fill="#342c34" transform="matrix(4.10974 7.69686 -9.89176 5.28171 98.6 98.2)"/><path fill="#dfa76d" d="M109 46l31-16-48 9z"/><circle r="1" fill="#523623" transform="matrix(-2.9716 -1.91519 17.17036 -26.64146 162.3 24.5)"/><path fill="#1f1305" d="M35 24L3-14l34 114z"/><circle r="1" fill="#281b1a" transform="matrix(.37594 1.20836 -42.25526 13.14635 135.5 27.7)"/><path fill="#737257" d="M152.1 149.3L98 180.9l31.3-52.1 8.7 9.1z"/><path fill="#235eaf" d="M271 52l-17-19h-27z"/><path fill="#593d32" d="M96.3 120.2l12.6-15.7-5.2 27.3-66-22.5z"/><circle r="1" fill="#0b4ba1" transform="matrix(1.26522 -5.77472 13.27175 2.9078 158 3.8)"/><path fill="#185db1" d="M34 14l-2-30L76 5z"/><ellipse cx="18" cy="127" fill="#bfbeb0" rx="10" ry="20"/><path fill="#abaca0" d="M48.7 155.1l-2.4-15.7-7.2 51.7-7.3-102.5z"/><circle r="1" fill="#442918" transform="rotate(109.9 76 71.6) scale(1 129.62666)"/><path fill="#242e3c" d="M204.4 85.1l-.2.7 54.1 36.7-49.4-18.1z"/><path fill="#1f141b" d="M238-7.9L214.5 11 212 7.9 235.4-11z"/><path fill="#e0b88a" d="M126.6 89.6l5.2 6.2 40-3.9-63.9 15.4z"/><path fill="#f9fde7" d="M-16 109L-1-3 9 67z"/><path fill="#0a161f" d="M136.1 87.1l-1.8 6-38.4-1.9 36.6-4.8z"/><path fill="#483426" d="M54.3 75.8l6.1-1.1-12.2 15.9 71.4-28.8z"/><path fill="#ffe9c1" d="M191.7 62.3l-.4-7 31-1.6.4 7z"/><path fill="#dee2d2" d="M79.9 138.7l14-3 15.9 17.3 12.7-2.6z"/><path fill="#010a0c" d="M-2.8 143.5h5l.6 33h-5z"/><path fill="#1a1a0f" d="M221 93l50 93-4-125z"/><path fill="#4a493c" d="M232 109l-33 35 72-35z"/><circle r="1" fill="#5c6b61" transform="matrix(-3.79062 5.99599 -18.47988 -11.68283 177.6 78.6)"/><path fill="#cd9854" d="M64.6 14.6l23.5-5 1.3 5.8-23.5 5z"/><path fill="#0d1d14" d="M37 171l36 31 23-8z"/><path fill="#7d8056" d="M60 171h35v14H60z"/><path fill="#c7af93" d="M137 112h27v34h-27z"/><path fill="#746d5e" d="M165.4 92l16.7 21.6 13.5-8.2 16.2-3.7z"/><path fill="#9ea792" d="M27.6 167.4l11.3 19.1 16.3 1.1L23.7 207z"/><path fill="#ffe5a0" d="M165.7 22.3l.3 1-27.7 8.4-.3-1z"/><circle r="1" fill="#162119" transform="matrix(2.65743 -26.1619 2.13722 .2171 80.4 169)"/><path fill="#1f64bb" d="M128 38l-3 15-46 3z"/><path fill="#3d2c1e" d="M31.1 18.9l-7.6 7.8 36.4-8.9 82.8-29.7z"/><path fill="#303028" d="M29.1 118.6L24.2 158l8.2 2.9 5.4-12.8z"/><circle r="1" fill="#263134" transform="matrix(-2.26669 2.01549 -4.61817 -5.19375 168.1 127.3)"/><path fill="#f5f5de" d="M10 97h4v47h-4z"/><path fill="#36362f" d="M4 18l9 18-4 20z"/><path d="M227.5 156.5l-8.6-20.2 39.6-16.8 8.6 20.2z"/><circle r="1" fill="#000101" transform="matrix(-1.45339 -.11949 1.94784 -23.69205 69 177.2)"/><path fill="#c5a47f" d="M161.5 50.7l-19.3 23-7.7-6.4 19.3-23z"/><path fill="#464c36" d="M174 193.3l-17-.6 1-28 17 .6z"/><path fill="#e1bb96" d="M205.3 127.4l-115-30.9 100.5 32-24.9-27.1z"/><path d="M88 156h3v30h-3z"/><path fill="#ee943f" d="M84 49.9l.9 2.8L62 60.1l-1-2.8z"/></g></g></svg>