<svg xmlns="http://www.w3.org/2000/svg" viewBox="0 0 1400 1050"><defs/><filter id="a"><feGaussianBlur stdDeviation="12"/></filter><rect width="100%" height="100%" fill="#484848"/><g filter="url(#a)"><g fill-opacity=".5" transform="translate(2.7 2.7) scale(5.46875)"><ellipse cx="140" cy="70" fill="#fff" rx="237" ry="47"/><circle cx="132" cy="165" r="54" fill="#a6a6a6"/><ellipse cx="42" cy="154" rx="30" ry="63"/><path fill="#fff" d="M240.1 162l2.8-53 21 1-2.8 53z"/><circle r="1" fill="#fff" transform="rotate(2.7 -908.8 3429.8) scale(42.44252 18.93552)"/><path d="M271 49l-22 55-5-120z"/><ellipse cx="208" cy="167" fill="#afafaf" rx="30" ry="23"/><circle r="1" fill="#e1e1e1" transform="matrix(-35.27978 -32.21486 17.5054 -19.17086 70 57)"/><ellipse cx="8" cy="173" rx="68" ry="36"/><ellipse cx="46" cy="84" rx="6" ry="19"/><ellipse cx="171" cy="114" rx="7" ry="29"/><ellipse cx="113" cy="19" fill="#636363" rx="195" ry="10"/><ellipse cx="98" cy="163" fill="#b8b8b8" rx="8" ry="86"/><path fill="#fff" d="M227 71h19v34h-19z"/><ellipse cx="233" cy="7" rx="24" ry="16"/><path d="M202.9 61.3L271 45.5l-3.5-12.1-35.7 15.8zM238 164h18v28h-18z"/><path fill="#6e6e6e" d="M224.7 133L160 120.4l5.4-27.4 64.8 12.6z"/><circle r="1" fill="#666" transform="matrix(-3.95495 -9.26878 48.57032 -20.72473 110.2 111.5)"/><path d="M76 132h14v27H76z"/><ellipse cx="207" cy="36" fill="#ebebeb" rx="52" ry="9"/><path fill="#b4b4b4" d="M2 23h39v82H2z"/><circle r="1" fill="#090909" transform="matrix(.002 -9.13864 98.34483 .02152 57.7 0)"/><path fill="#e1e1e1" d="M176 29h34v60h-34z"/><path fill="#0d0d0d" d="M-16 71.8L5.5 59l-9.3-13.7 20.1.8z"/><path d="M204 138.8l6.8-11.1 29.1 17.5-6.7 11.1zM249 46h7v57h-7z"/><ellipse cx="212" cy="79" fill="#030303" rx="2" ry="33"/><path fill="#6b6b6b" d="M32 8h156v21H32z"/><circle r="1" fill="#b2b2b2" transform="matrix(18.52294 -26.8648 7.62461 5.25707 83.3 182.7)"/><circle r="1" fill="#c8c8c8" transform="matrix(-19.43052 13.45433 -5.15021 -7.43785 76.9 104)"/><ellipse cx="25" cy="180" rx="37" ry="23"/><circle r="1" fill="#adadad" transform="rotate(40.3 -118.2 61) scale(23.29572 27.93697)"/><path fill="#e4e4e4" d="M121 29h50v46h-50z"/><path fill="#f0f0f0" d="M256 109l-10 48-4-65z"/><circle r="1" fill="#333" transform="rotate(179.2 74.3 32.5) scale(25.45211 1)"/><path d="M44 71l15 27-19 13z"/><path fill="#474747" d="M115.7 165.9l31 26.9-20.4 23.3-31-26.9z"/><ellipse cx="89" cy="54" fill="#787878" rx="23" ry="6"/><path fill="#434343" d="M116.5 82.7l16.9 53.1 11.9-21.7-29.7 4.8z"/><path fill="#282828" d="M169 61h5v78h-5z"/><path fill="#656565" d="M18.8 117.3L4.2 157.9l13.9-3 6.1-29.7z"/><path fill="#c6c6c6" d="M142 100h22v28h-22z"/><circle r="1" fill="#484848" transform="matrix(-1.65427 -.0355 .77738 -36.23054 253 116.2)"/><path fill="#9a9a9a" d="M241.3 153.2l-3.9 27.7-28.7-4 3.9-27.8z"/><path fill="#e2e2e2" d="M37 29h33v39H37z"/><ellipse cx="167" cy="5" rx="204" ry="2"/><path fill="#1a1a1a" d="M14 55h21v4H14z"/><path fill="#c2c2c2" d="M207.4 85.1l-.8 44-12-.2.8-44z"/><path fill="#050505" d="M207 137l5-37 6 45z"/><circle cx="182" cy="172" r="33" fill="#747474"/><path fill="#2e2e2e" d="M124 130.2l1.6-7.8 72.4 15.4-1.6 7.8z"/><ellipse cx="84" cy="81" fill="#dbdbdb" rx="25" ry="22"/><path fill="#f7f7f7" d="M216 66h25v10h-25z"/><ellipse cx="74" cy="100" fill="#e3e3e3" rx="2" ry="40"/><circle r="1" fill="#2c2c2c" transform="matrix(.01077 -1.7129 37.5329 .23599 161.6 96)"/><circle r="1" fill="#959595" transform="matrix(-18.38257 5.88112 -6.98103 -21.82058 146.5 157.2)"/><ellipse cx="115" cy="74" fill="#777" rx="7" ry="67"/><circle r="1" fill="#7c7c7c" transform="rotate(174.2 123.8 21.6) scale(14.63596 8.15984)"/><path fill="#c4c4c4" d="M31 64h11v41H31z"/><path fill="#222" d="M-10.7 5l21.2-33.9L48.7-5 27.5 28.9z"/><ellipse cx="233" cy="135" fill="#111" rx="9" ry="19"/><path fill="#111" d="M128.3 63.5h2l-.6 31h-2z"/><path fill="#474747" d="M31 103h9v56h-9z"/><path fill="#cacaca" d="M127 98h37v11h-37z"/><path fill="#0f0f0f" d="M191.2 113l6.4 18.9-6.4 3.6 5.6-49.9z"/><path fill="#ddd" d="M109 54l-1-25H79z"/><path d="M45 136l-61 68 99-34z"/><path fill="#aeaeae" d="M217 94l9 35-13-4z"/><path fill="#949494" d="M24 22.4L14.7 49-24 35.7-15 9z"/><path fill="#dadada" d="M29 27l28 34-40-12z"/><path fill="#fff" d="M132.9 66.7l8 .7-1.8 20-8-.8z"/><path fill="#b7b7b7" d="M209.3 55.1l-28.7 54 11.1-60.7 60.6-10.6z"/><path d="M239.9 151.5l-24.7-19.9 52.4 55.8-23.7 18z"/><path fill="#989898" d="M164.2 152.4l-71.8-31.3-13.8 1.2 33.7 25.6z"/><path fill="#101010" d="M33 121l9-18-58 25z"/><path fill="#f4f4f4" d="M243 103h7v56h-7z"/><path d="M42 69h11v7H42z"/><circle r="1" fill="#5b5b5b" transform="matrix(.7669 -3.51732 18.67795 4.07245 70 142.4)"/><ellipse cx="193" cy="97" fill="#363636" rx="2" ry="40"/><path fill="#d6d6d6" d="M173.3 91.1l5.2-35.7 15 7.2-1.9 36.4z"/><path fill="#686868" d="M57.5 116.2l3.9 2.1-2.3-22.4-30 31.3z"/><path d="M215.6 57l-.8-1.8 47.6-18.3.8 1.9zM-16 169.4L35.5 207l54-63.8-38.4 11.6z"/><path fill="#a3a3a3" d="M75 78h14v37H75z"/><path fill="#ebebeb" d="M238 162l9-6-20 1z"/><path fill="#494949" d="M89.4 122.7L73 121l15-9.7 44.5 8.3z"/><path fill="#797979" d="M248.3 58.1l-3 .3 1.2 47 4.6-22z"/><path fill="#575757" d="M109 183h126v9H109z"/><path fill="#313131" d="M126 65.8l48-2.6v1l-48 2.6z"/><path fill="#242424" d="M141 65h2v30h-2z"/><path fill="#e6e6e6" d="M128 28h62v35h-62z"/><path fill="#4e4e4e" d="M191 7h40v21h-40z"/><path fill="#858585" d="M146.3 25l-57-2 .4-12 57 2z"/><circle r="1" fill="#acacac" transform="matrix(.31942 -5.05087 14.00382 .88562 88.2 162.8)"/><circle r="1" fill="#979797" transform="matrix(-4.10317 -4.24394 19.10265 -18.469 215.6 173.8)"/><path fill="#c4c4c4" d="M12 38l29-10-28 34z"/><path fill="#2e2e2e" d="M139.9 136.1l-.5-9.8-7.2-24.4-.4 26.4z"/><path d="M243 161l-1 14-6-10zM0 138h24v5H0z"/></g></g></svg>