<svg xmlns="http://www.w3.org/2000/svg" viewBox="0 0 1400 1050"><defs/><filter id="a"><feGaussianBlur stdDeviation="12"/></filter><rect width="100%" height="100%" fill="#494337"/><g filter="url(#a)"><g fill-opacity=".5" transform="translate(2.7 2.7) scale(5.46875)"><circle cx="143" cy="50" r="152" fill="#fff"/><ellipse cx="119" cy="53" fill="#fff" rx="169" ry="86"/><ellipse cx="139" cy="167" fill="#565e4d" rx="255" ry="26"/><circle r="1" fill="#fff" transform="matrix(-157.09292 10.04128 -4.45544 -69.70404 120.2 40.5)"/><ellipse cx="202" cy="99" fill="#747973" rx="26" ry="31"/><path fill="#c2c4ca" d="M140 180L21 169l20 36z"/><ellipse cx="77" cy="148" fill="#3e2e19" rx="18" ry="25"/><circle cx="115" cy="57" r="77" fill="#fff"/><path d="M195 138h16v30h-16z"/><path fill="#8f6255" d="M13.2 101l6.9-11 68.7 43-6.9 11z"/><circle r="1" fill="#959996" transform="matrix(-23.24781 24.32745 -14.40512 -13.76583 174.6 122.1)"/><path fill="#e1e5e4" d="M63.2 147.8l-6.4-15.6L11 88.4l41.4 78.9z"/><circle r="1" fill="#fff" transform="rotate(-20.2 349.9 -649.7) scale(15.32021 49.78717)"/><circle r="1" fill="#fff" transform="matrix(-102.1499 -78.77817 17.18612 -22.28486 41.7 62.7)"/><path d="M24 146h22v20H24z"/><path fill="#080f00" d="M161 172l22-4-9-32z"/><ellipse cx="239" cy="185" fill="#94937e" rx="161" ry="17"/><path fill="#14210e" d="M98 159.1l.9 11-54.8 4.8-1-11z"/><path fill="#1d2215" d="M211.2 174.7l2.7-2.1 22.6-.9-1.3-37.5z"/><circle r="1" fill="#fff" transform="matrix(7.08545 28.96043 -113.89543 27.86562 136.8 58.8)"/><ellipse cx="110" cy="154" fill="#434e33" rx="42" ry="12"/><path fill="#d3d5d3" d="M187.3 105.1l-12.1-8.4 7.2 69.3 14.7-22.2z"/><path fill="#e2e4e2" d="M170.4 133.8l-.8 23-18-.6.8-23z"/><path fill="#4e2216" d="M-7 97l32 37-41 7z"/><path fill="#e8e8e7" d="M39 125l-19 29-1-35z"/><path fill="#000200" d="M-16 207v-33.5l42.1.3-11 33.2z"/><ellipse cx="204" cy="112" fill="#8f918d" rx="49" ry="18"/><path fill="#cbcdca" d="M216 87h13v72h-13z"/><path fill="#a4a3a5" d="M-16 175.9l37.6-11.1L4 155.3l.2-20.4z"/><path fill="#2f302b" d="M203.8 94.9l-4.5 3.8 3.3 24.3 6.9 2.2z"/><circle r="1" fill="#fff" transform="matrix(23.20609 32.344 -24.3454 17.46727 255 75.4)"/><circle r="1" fill="#a27f74" transform="rotate(-57.8 148.1 4) scale(10.15395 35.54134)"/><path fill="#151913" d="M213.1 137.6l-34.7 32.9 10.9.1 21.4-8.9z"/><path fill="#e1e5e6" d="M238 132h10v27h-10z"/><path fill="#1a2300" d="M254.6 161.2l-4.2-33.8 5-.6 4.2 33.8z"/><circle r="1" fill="#fff" transform="matrix(28.20542 -4.82124 7.56625 44.26441 125.8 98.8)"/><path fill="#dee0e0" d="M178.5 134h15v22h-15z"/><circle cx="58" cy="27" r="75" fill="#feffff"/><ellipse cx="230" cy="3" fill="#dceeff" rx="54" ry="37"/><path fill="#0a1500" d="M110 169.1l-14.6 3.6L94 167l14.6-3.6z"/><path fill="#d9dddc" d="M29 144L6 80l54 62z"/><path fill="#fff" d="M199.4-16L36.3 99.1 145 146.9l-.7-5.6z"/><path fill="#0f1808" d="M220 155h14v13h-14z"/><path fill="#a5a69d" d="M136.3 194.7L109.1 182l10.6-22.7 27.2 12.7z"/><path fill="#c6c2bf" d="M21.9 165.3l-5-6.8 3.4-17.1 5.7-22.6z"/><path fill="#2c400d" d="M141 147h8v24h-8z"/><circle r="1" fill="#a6acb4" transform="rotate(124.7 -21 110.7) scale(14.722 24.34313)"/><path d="M171 136h7v23h-7z"/><path fill="#d5d7d4" d="M145 119l49-20-3 15z"/><path fill="#fff" d="M243.8 103.6l-22.1-11.8 14.5-27.4 22.1 11.8z"/><path fill="#1b1c16" d="M218 111.7l-.1 4-26-1.4.2-4z"/><path fill="#171a15" d="M179.6 117.1l-6.6-.1-4 7.4 6.6.9z"/><path fill="#bb988c" d="M70 118.9l38.7 28.3-44.7-8.8 6-14.5z"/><path fill="#513a2f" d="M12.6 144.3L-6 124.8l11.5-11L24 133.1z"/><path fill="#8f7166" d="M16 92l43 41 25-8z"/><ellipse cx="35" cy="147" fill="#060400" rx="12" ry="3"/><ellipse cx="194" cy="167" fill="#262c13" rx="56" ry="2"/><path fill="#010301" d="M196 139h15v24h-15z"/><path fill="#5d5e5b" d="M215 77l-10-11 25 15z"/><ellipse cx="233" cy="121" rx="3" ry="4"/><path fill="#d2d3d1" d="M217.1 83.2L215.6 95 181 90.8l1.5-11.9z"/><path fill="#8b7a71" d="M9.8 83.3l89.6 77-72.1-65-22-3.3z"/><circle r="1" fill="#fff" transform="matrix(-17.13412 -10.91564 9.597 -15.06427 104 122)"/><path fill="#6b6c67" d="M166.1 103.8l-19.5 32.6 4.9 2.6 6.4-32.5z"/><path fill="#48453d" d="M56.9 167l-25.8-4.5-23.3 12.8 19.6 2.8z"/><path fill="#d4d6d3" d="M58.4 165.2l1.8-26.6L14.1 90l-9.9-.8z"/><path fill="#12120a" d="M36 149h11v15H36z"/><path fill="#6c6f6c" d="M181.3 83.1l-1.3-2.6 26.7-13.6 1.3 2.6z"/><path fill="#c2c4bf" d="M179 114l-1 28 29-28z"/><path fill="#b5b8b5" d="M238 110h13v46h-13z"/><path fill="#525344" d="M215 172l-25-19-1 19z"/><ellipse cy="71" fill="#fff" rx="194" ry="16"/><circle cx="162" cy="82" r="20" fill="#fff"/><path fill="#dedfda" d="M57 155l-9 10-1-36z"/><path fill="#050803" d="M232 137h4v18h-4z"/><circle r="1" fill="#fbffff" transform="rotate(124.1 94 83) scale(18.51358 30.58186)"/><path fill="#202122" d="M98 147h52v3H98z"/><circle r="1" fill="#1a1910" transform="matrix(.26528 -1.2698 12.88893 2.69264 75 142.7)"/><path fill="#3a4025" d="M103 140h17v5h-17z"/><circle r="1" fill="#e3effc" transform="matrix(67.9579 4.41384 -1.72807 26.60638 22.2 .9)"/><circle r="1" fill="#82888e" transform="matrix(-16.90252 -9.47951 4.00422 -7.13975 39.5 191)"/><path fill="#ecf3f9" d="M128 128h16v19h-16z"/><path fill="#c0c3be" d="M204.2 132.2l25.1 13.6.9 15.8-23.5-31.2z"/><path fill="#afb6ad" d="M163.8 174.7l27.4 1.5-24.3-3.4-16.6-15.1z"/><path fill="#9f957e" d="M28 142h2v31h-2z"/><path fill="#20211e" d="M210.7 114l1.6-18h1l-1.6 18z"/><path fill="#fff" d="M252 89h4v37h-4z"/><path fill="#7a7963" d="M208 169h30v21h-30z"/><path fill="#fdffff" d="M94 0h106v70H94z"/><path fill="#6f6f6b" d="M253.2 112.1l-2.3 3.3-14-9.5 2.2-3.3z"/><circle r="1" fill="#cddef2" transform="matrix(-9.1529 -5.78622 16.5634 -26.2007 223.3 14)"/><path fill="#606650" d="M177.6 156.7l5.9 2.4-25.1 10.6 1.1-13.9z"/><path fill="#000900" d="M19.1 181.9l-2.3 3L-16 207v-36.3z"/><path fill="#886153" d="M29.5 137L-16 89.2v36.1l32.7 7.2z"/><ellipse cx="100" cy="155" fill="#84896d" rx="6" ry="12"/><circle r="1" fill="#70716d" transform="matrix(.52813 -.84916 19.62244 12.20415 240.4 104.6)"/><path fill="#a8a7a1" d="M79 175l59-10-25 19z"/><path fill="#383d2f" d="M87.9 174.9l-.6-28-41.1 19.6-13.6 4z"/><path fill="#fff" d="M98 139l43-150 40 104z"/><ellipse cx="255" cy="81" fill="#fff" rx="30" ry="25"/></g></g></svg>